{
	"asset":{
		"generator":"Khronos glTF Blender I/O v5.2.40",
		"version":"2.0"
	},
	"scene":0,
	"scenes":[
		{
			"name":"Scene",
			"nodes":[
				0,
				1,
				2,
				3
			]
		}
	],
	"nodes":[
		{
			"mesh":0,
			"name":"stub0"
		},
		{
			"mesh":1,
			"name":"stub1"
		},
		{
			"mesh":2,
			"name":"stub2"
		},
		{
			"mesh":3,
			"name":"trunk"
		}
	],
	"materials":[
		{
			"doubleSided":true,
			"name":"M_dead2",
			"pbrMetallicRoughness":{
				"baseColorFactor":[
					0.19751642644405365,
					0.11657577753067017,
					0.05284162610769272,
					1
				],
				"metallicFactor":0,
				"roughnessFactor":0.8500000238418579
			}
		},
		{
			"doubleSided":true,
			"name":"M_dead",
			"pbrMetallicRoughness":{
				"baseColorFactor":[
					0.32972902059555054,
					0.20109573006629944,
					0.0915183499455452,
					1
				],
				"metallicFactor":0,
				"roughnessFactor":0.8500000238418579
			}
		}
	],
	"meshes":[
		{
			"name":"Cone.001",
			"primitives":[
				{
					"attributes":{
						"POSITION":0,
						"NORMAL":1,
						"TEXCOORD_0":2
					},
					"indices":3,
					"material":0
				}
			]
		},
		{
			"name":"Cone.002",
			"primitives":[
				{
					"attributes":{
						"POSITION":4,
						"NORMAL":5,
						"TEXCOORD_0":6
					},
					"indices":3,
					"material":0
				}
			]
		},
		{
			"name":"Cone.003",
			"primitives":[
				{
					"attributes":{
						"POSITION":7,
						"NORMAL":8,
						"TEXCOORD_0":9
					},
					"indices":3,
					"material":0
				}
			]
		},
		{
			"name":"Cone",
			"primitives":[
				{
					"attributes":{
						"POSITION":10,
						"NORMAL":11,
						"TEXCOORD_0":12
					},
					"indices":13,
					"material":1
				}
			]
		}
	],
	"accessors":[
		{
			"bufferView":0,
			"componentType":5126,
			"count":26,
			"max":[
				0.6470217108726501,
				0.4380563795566559,
				0.11261794716119766
			],
			"min":[
				0.31045055389404297,
				0.10136991739273071,
				-0.22827883064746857
			],
			"type":"VEC3"
		},
		{
			"bufferView":1,
			"componentType":5126,
			"count":26,
			"type":"VEC3"
		},
		{
			"bufferView":2,
			"componentType":5126,
			"count":26,
			"type":"VEC2"
		},
		{
			"bufferView":3,
			"componentType":5123,
			"count":60,
			"type":"SCALAR"
		},
		{
			"bufferView":4,
			"componentType":5126,
			"count":26,
			"max":[
				-0.10925731062889099,
				0.5843524932861328,
				0.23194606602191925
			],
			"min":[
				-0.452906996011734,
				0.2682630121707916,
				-0.1207316592335701
			],
			"type":"VEC3"
		},
		{
			"bufferView":5,
			"componentType":5126,
			"count":26,
			"type":"VEC3"
		},
		{
			"bufferView":6,
			"componentType":5126,
			"count":26,
			"type":"VEC2"
		},
		{
			"bufferView":7,
			"componentType":5126,
			"count":26,
			"max":[
				0.6383264064788818,
				0.3271735906600952,
				0.23804382979869843
			],
			"min":[
				0.3097354769706726,
				-0.013216689229011536,
				-0.07771456241607666
			],
			"type":"VEC3"
		},
		{
			"bufferView":8,
			"componentType":5126,
			"count":26,
			"type":"VEC3"
		},
		{
			"bufferView":9,
			"componentType":5126,
			"count":26,
			"type":"VEC2"
		},
		{
			"bufferView":10,
			"componentType":5126,
			"count":34,
			"max":[
				0.6692389249801636,
				0.6366087198257446,
				0.5944812297821045
			],
			"min":[
				-0.4650920629501343,
				-0.32978472113609314,
				-0.5398497581481934
			],
			"type":"VEC3"
		},
		{
			"bufferView":11,
			"componentType":5126,
			"count":34,
			"type":"VEC3"
		},
		{
			"bufferView":12,
			"componentType":5126,
			"count":34,
			"type":"VEC2"
		},
		{
			"bufferView":13,
			"componentType":5123,
			"count":84,
			"type":"SCALAR"
		}
	],
	"bufferViews":[
		{
			"buffer":0,
			"byteLength":312,
			"byteOffset":0,
			"target":34962
		},
		{
			"buffer":0,
			"byteLength":312,
			"byteOffset":312,
			"target":34962
		},
		{
			"buffer":0,
			"byteLength":208,
			"byteOffset":624,
			"target":34962
		},
		{
			"buffer":0,
			"byteLength":120,
			"byteOffset":832,
			"target":34963
		},
		{
			"buffer":0,
			"byteLength":312,
			"byteOffset":952,
			"target":34962
		},
		{
			"buffer":0,
			"byteLength":312,
			"byteOffset":1264,
			"target":34962
		},
		{
			"buffer":0,
			"byteLength":208,
			"byteOffset":1576,
			"target":34962
		},
		{
			"buffer":0,
			"byteLength":312,
			"byteOffset":1784,
			"target":34962
		},
		{
			"buffer":0,
			"byteLength":312,
			"byteOffset":2096,
			"target":34962
		},
		{
			"buffer":0,
			"byteLength":208,
			"byteOffset":2408,
			"target":34962
		},
		{
			"buffer":0,
			"byteLength":408,
			"byteOffset":2616,
			"target":34962
		},
		{
			"buffer":0,
			"byteLength":408,
			"byteOffset":3024,
			"target":34962
		},
		{
			"buffer":0,
			"byteLength":272,
			"byteOffset":3432,
			"target":34962
		},
		{
			"buffer":0,
			"byteLength":168,
			"byteOffset":3704,
			"target":34963
		}
	],
	"buffers":[
		{
			"byteLength":3872,
			"uri":"dead_tree_trunk_02.bin"
		}
	]
}
