{"asset": {"generator": "Khronos glTF Blender I/O v5.2.40", "version": "2.0"}, "scene": 0, "scenes": [{"name": "Scene", "nodes": [0, 1]}], "nodes": [{"mesh": 0, "name": "block"}, {"mesh": 1, "name": "groove"}], "materials": [{"doubleSided": true, "name": "sandstone", "normalTexture": {"index": 0}, "pbrMetallicRoughness": {"baseColorTexture": {"index": 1}, "metallicFactor": 0, "roughnessFactor": 0.9200000166893005}}, {"doubleSided": true, "name": "groove_shade", "pbrMetallicRoughness": {"baseColorFactor": [0.44999998807907104, 0.33000001311302185, 0.20000000298023224, 1], "metallicFactor": 0, "roughnessFactor": 0.949999988079071}}], "meshes": [{"name": "Cube", "primitives": [{"attributes": {"POSITION": 0, "NORMAL": 1, "TEXCOORD_0": 2}, "indices": 3, "material": 0}]}, {"name": "Cube.001", "primitives": [{"attributes": {"POSITION": 4, "NORMAL": 5, "TEXCOORD_0": 6}, "indices": 7, "material": 1}]}], "textures": [{"sampler": 0, "source": 0}, {"sampler": 0, "source": 1}], "images": [{"mimeType": "image/jpeg", "name": "sandstone_blocks_04_nor_gl_1k", "uri": "textures/sandstone_blocks_04_nor_gl_1k.jpg"}, {"mimeType": "image/jpeg", "name": "sandstone_blocks_04_Diffuse_1k", "uri": "textures/sandstone_blocks_04_Diffuse_1k.jpg"}], "accessors": [{"bufferView": 0, "componentType": 5126, "count": 6140, "max": [1.903889775276184, 3.1526193618774414, 1.7547096014022827], "min": [-1.9028072357177734, -1.053322196006775, -1.7540467977523804], "type": "VEC3"}, {"bufferView": 1, "componentType": 5126, "count": 6140, "type": "VEC3"}, {"bufferView": 2, "componentType": 5126, "count": 6140, "type": "VEC2"}, {"bufferView": 3, "componentType": 5123, "count": 9216, "type": "SCALAR"}, {"bufferView": 4, "componentType": 5126, "count": 24, "max": [1.9049999713897705, 1.7799999713897705, 1.7549999952316284], "min": [-1.9049999713897705, 1.6600000858306885, -1.7549999952316284], "type": "VEC3"}, {"bufferView": 5, "componentType": 5126, "count": 24, "type": "VEC3"}, {"bufferView": 6, "componentType": 5126, "count": 24, "type": "VEC2"}, {"bufferView": 7, "componentType": 5123, "count": 36, "type": "SCALAR"}], "bufferViews": [{"buffer": 0, "byteLength": 73680, "byteOffset": 0, "target": 34962}, {"buffer": 0, "byteLength": 73680, "byteOffset": 73680, "target": 34962}, {"buffer": 0, "byteLength": 49120, "byteOffset": 147360, "target": 34962}, {"buffer": 0, "byteLength": 18432, "byteOffset": 196480, "target": 34963}, {"buffer": 0, "byteLength": 288, "byteOffset": 214912, "target": 34962}, {"buffer": 0, "byteLength": 288, "byteOffset": 215200, "target": 34962}, {"buffer": 0, "byteLength": 192, "byteOffset": 215488, "target": 34962}, {"buffer": 0, "byteLength": 72, "byteOffset": 215680, "target": 34963}], "samplers": [{"magFilter": 9729, "minFilter": 9987}], "buffers": [{"byteLength": 215752, "uri": "bl_sandstone_block.bin"}]}