{
	"asset":{
		"generator":"Khronos glTF Blender I/O v5.2.40",
		"version":"2.0"
	},
	"scene":0,
	"scenes":[
		{
			"name":"Scene",
			"nodes":[
				0
			]
		}
	],
	"nodes":[
		{
			"mesh":0,
			"name":"street_lamp_01"
		}
	],
	"materials":[
		{
			"doubleSided":true,
			"name":"street_lamp_01",
			"normalTexture":{
				"index":0
			},
			"pbrMetallicRoughness":{
				"baseColorTexture":{
					"index":1
				},
				"metallicRoughnessTexture":{
					"index":2
				}
			}
		},
		{
			"alphaMode":"BLEND",
			"doubleSided":true,
			"name":"street_lamp_01_glass",
			"normalTexture":{
				"index":3
			},
			"pbrMetallicRoughness":{
				"baseColorTexture":{
					"index":4
				},
				"metallicRoughnessTexture":{
					"index":5
				}
			}
		},
		{
			"doubleSided":true,
			"name":"street_lamp_01_bulb",
			"normalTexture":{
				"index":6
			},
			"pbrMetallicRoughness":{
				"baseColorTexture":{
					"index":7
				},
				"metallicRoughnessTexture":{
					"index":8
				}
			}
		}
	],
	"meshes":[
		{
			"name":"street_lamp_01_post_mesh",
			"primitives":[
				{
					"attributes":{
						"POSITION":0,
						"NORMAL":1,
						"TEXCOORD_0":2
					},
					"indices":3,
					"material":0
				},
				{
					"attributes":{
						"POSITION":4,
						"NORMAL":5,
						"TEXCOORD_0":6
					},
					"indices":7,
					"material":1
				},
				{
					"attributes":{
						"POSITION":8,
						"NORMAL":9,
						"TEXCOORD_0":10
					},
					"indices":11,
					"material":2
				}
			]
		}
	],
	"textures":[
		{
			"sampler":0,
			"source":0
		},
		{
			"sampler":0,
			"source":1
		},
		{
			"sampler":0,
			"source":2
		},
		{
			"sampler":0,
			"source":0
		},
		{
			"sampler":0,
			"source":3
		},
		{
			"sampler":0,
			"source":2
		},
		{
			"sampler":0,
			"source":0
		},
		{
			"sampler":0,
			"source":1
		},
		{
			"sampler":0,
			"source":2
		}
	],
	"images":[
		{
			"mimeType":"image/jpeg",
			"name":"street_lamp_01_nor_gl",
			"uri":"textures/street_lamp_01_nor_gl_2k.jpg"
		},
		{
			"mimeType":"image/jpeg",
			"name":"street_lamp_01_diff",
			"uri":"textures/street_lamp_01_diff_2k.jpg"
		},
		{
			"mimeType":"image/jpeg",
			"name":"street_lamp_01_metal-street_lamp_01_rough",
			"uri":"textures/street_lamp_01_arm_2k.jpg"
		},
		{
			"mimeType":"image/png",
			"name":"street_lamp_01_diff",
			"uri":"textures/street_lamp_01_diff_2k.jpg"
		}
	],
	"accessors":[
		{
			"bufferView":0,
			"componentType":5126,
			"count":9477,
			"max":[
				0.35217753052711487,
				3.8705554008483887,
				0.19328635931015015
			],
			"min":[
				-0.35217753052711487,
				0,
				-0.19328634440898895
			],
			"type":"VEC3"
		},
		{
			"bufferView":1,
			"componentType":5126,
			"count":9477,
			"type":"VEC3"
		},
		{
			"bufferView":2,
			"componentType":5126,
			"count":9477,
			"type":"VEC2"
		},
		{
			"bufferView":3,
			"componentType":5123,
			"count":45099,
			"type":"SCALAR"
		},
		{
			"bufferView":4,
			"componentType":5126,
			"count":96,
			"max":[
				0.17362678050994873,
				3.5095479488372803,
				0.17387129366397858
			],
			"min":[
				-0.17362673580646515,
				3.1376540660858154,
				-0.17394882440567017
			],
			"type":"VEC3"
		},
		{
			"bufferView":5,
			"componentType":5126,
			"count":96,
			"type":"VEC3"
		},
		{
			"bufferView":6,
			"componentType":5126,
			"count":96,
			"type":"VEC2"
		},
		{
			"bufferView":7,
			"componentType":5123,
			"count":144,
			"type":"SCALAR"
		},
		{
			"bufferView":8,
			"componentType":5126,
			"count":148,
			"max":[
				0.030023464933037758,
				3.301558494567871,
				0.029995419085025787
			],
			"min":[
				-0.029966535046696663,
				3.2271063327789307,
				-0.02999458834528923
			],
			"type":"VEC3"
		},
		{
			"bufferView":9,
			"componentType":5126,
			"count":148,
			"type":"VEC3"
		},
		{
			"bufferView":10,
			"componentType":5126,
			"count":148,
			"type":"VEC2"
		},
		{
			"bufferView":11,
			"componentType":5123,
			"count":672,
			"type":"SCALAR"
		}
	],
	"bufferViews":[
		{
			"buffer":0,
			"byteLength":113724,
			"byteOffset":0,
			"target":34962
		},
		{
			"buffer":0,
			"byteLength":113724,
			"byteOffset":113724,
			"target":34962
		},
		{
			"buffer":0,
			"byteLength":75816,
			"byteOffset":227448,
			"target":34962
		},
		{
			"buffer":0,
			"byteLength":90198,
			"byteOffset":303264,
			"target":34963
		},
		{
			"buffer":0,
			"byteLength":1152,
			"byteOffset":393464,
			"target":34962
		},
		{
			"buffer":0,
			"byteLength":1152,
			"byteOffset":394616,
			"target":34962
		},
		{
			"buffer":0,
			"byteLength":768,
			"byteOffset":395768,
			"target":34962
		},
		{
			"buffer":0,
			"byteLength":288,
			"byteOffset":396536,
			"target":34963
		},
		{
			"buffer":0,
			"byteLength":1776,
			"byteOffset":396824,
			"target":34962
		},
		{
			"buffer":0,
			"byteLength":1776,
			"byteOffset":398600,
			"target":34962
		},
		{
			"buffer":0,
			"byteLength":1184,
			"byteOffset":400376,
			"target":34962
		},
		{
			"buffer":0,
			"byteLength":1344,
			"byteOffset":401560,
			"target":34963
		}
	],
	"samplers":[
		{
			"magFilter":9729,
			"minFilter":9987
		}
	],
	"buffers":[
		{
			"byteLength":402904,
			"uri":"street_lamp_01.bin"
		}
	]
}
