{
	"asset":{
		"generator":"Khronos glTF Blender I/O v5.2.40",
		"version":"2.0"
	},
	"extensionsUsed":[
		"KHR_materials_emissive_strength"
	],
	"scene":0,
	"scenes":[
		{
			"name":"Scene",
			"nodes":[
				0,
				1,
				2,
				3,
				4,
				5,
				6,
				7,
				8,
				9,
				10,
				11,
				12,
				13,
				14,
				15
			]
		}
	],
	"nodes":[
		{
			"mesh":0,
			"name":"hex0"
		},
		{
			"mesh":1,
			"name":"hex1"
		},
		{
			"mesh":2,
			"name":"hex2"
		},
		{
			"mesh":3,
			"name":"hex3"
		},
		{
			"mesh":4,
			"name":"hex4"
		},
		{
			"mesh":5,
			"name":"hex5"
		},
		{
			"mesh":6,
			"name":"hex6"
		},
		{
			"mesh":7,
			"name":"seam0"
		},
		{
			"mesh":8,
			"name":"seam1"
		},
		{
			"mesh":9,
			"name":"top0"
		},
		{
			"mesh":10,
			"name":"top1"
		},
		{
			"mesh":11,
			"name":"top2"
		},
		{
			"mesh":12,
			"name":"top3"
		},
		{
			"mesh":13,
			"name":"top4"
		},
		{
			"mesh":14,
			"name":"top5"
		},
		{
			"mesh":15,
			"name":"top6"
		}
	],
	"materials":[
		{
			"doubleSided":true,
			"name":"M_hx0",
			"pbrMetallicRoughness":{
				"baseColorFactor":[
					0.08241420239210129,
					0.058187179267406464,
					0.06190747395157814,
					1
				],
				"metallicFactor":0,
				"roughnessFactor":0.8500000238418579
			}
		},
		{
			"doubleSided":true,
			"name":"M_hx1",
			"pbrMetallicRoughness":{
				"baseColorFactor":[
					0.03994717076420784,
					0.02899118699133396,
					0.030256519094109535,
					1
				],
				"metallicFactor":0,
				"roughnessFactor":0.8500000238418579
			}
		},
		{
			"doubleSided":true,
			"name":"M_hx2",
			"pbrMetallicRoughness":{
				"baseColorFactor":[
					0.08241420239210129,
					0.058187179267406464,
					0.06190747395157814,
					1
				],
				"metallicFactor":0,
				"roughnessFactor":0.8500000238418579
			}
		},
		{
			"doubleSided":true,
			"name":"M_hx3",
			"pbrMetallicRoughness":{
				"baseColorFactor":[
					0.03994717076420784,
					0.02899118699133396,
					0.030256519094109535,
					1
				],
				"metallicFactor":0,
				"roughnessFactor":0.8500000238418579
			}
		},
		{
			"doubleSided":true,
			"name":"M_hx4",
			"pbrMetallicRoughness":{
				"baseColorFactor":[
					0.08241420239210129,
					0.058187179267406464,
					0.06190747395157814,
					1
				],
				"metallicFactor":0,
				"roughnessFactor":0.8500000238418579
			}
		},
		{
			"doubleSided":true,
			"name":"M_hx5",
			"pbrMetallicRoughness":{
				"baseColorFactor":[
					0.03994717076420784,
					0.02899118699133396,
					0.030256519094109535,
					1
				],
				"metallicFactor":0,
				"roughnessFactor":0.8500000238418579
			}
		},
		{
			"doubleSided":true,
			"name":"M_hx6",
			"pbrMetallicRoughness":{
				"baseColorFactor":[
					0.08241420239210129,
					0.058187179267406464,
					0.06190747395157814,
					1
				],
				"metallicFactor":0,
				"roughnessFactor":0.8500000238418579
			}
		},
		{
			"doubleSided":true,
			"emissiveFactor":[
				1,
				0.19751642644405365,
				0.015175238251686096
			],
			"extensions":{
				"KHR_materials_emissive_strength":{
					"emissiveStrength":1.7999999523162842
				}
			},
			"name":"M_hs0",
			"pbrMetallicRoughness":{
				"baseColorFactor":[
					1,
					0.19751642644405365,
					0.015175238251686096,
					1
				],
				"metallicFactor":0,
				"roughnessFactor":0.8500000238418579
			}
		},
		{
			"doubleSided":true,
			"emissiveFactor":[
				1,
				0.19751642644405365,
				0.015175238251686096
			],
			"extensions":{
				"KHR_materials_emissive_strength":{
					"emissiveStrength":1.7999999523162842
				}
			},
			"name":"M_hs1",
			"pbrMetallicRoughness":{
				"baseColorFactor":[
					1,
					0.19751642644405365,
					0.015175238251686096,
					1
				],
				"metallicFactor":0,
				"roughnessFactor":0.8500000238418579
			}
		},
		{
			"doubleSided":true,
			"name":"M_ht0",
			"pbrMetallicRoughness":{
				"baseColorFactor":[
					0.08241420239210129,
					0.058187179267406464,
					0.06190747395157814,
					1
				],
				"metallicFactor":0,
				"roughnessFactor":0.8500000238418579
			}
		},
		{
			"doubleSided":true,
			"name":"M_ht1",
			"pbrMetallicRoughness":{
				"baseColorFactor":[
					0.08241420239210129,
					0.058187179267406464,
					0.06190747395157814,
					1
				],
				"metallicFactor":0,
				"roughnessFactor":0.8500000238418579
			}
		},
		{
			"doubleSided":true,
			"name":"M_ht2",
			"pbrMetallicRoughness":{
				"baseColorFactor":[
					0.08241420239210129,
					0.058187179267406464,
					0.06190747395157814,
					1
				],
				"metallicFactor":0,
				"roughnessFactor":0.8500000238418579
			}
		},
		{
			"doubleSided":true,
			"name":"M_ht3",
			"pbrMetallicRoughness":{
				"baseColorFactor":[
					0.08241420239210129,
					0.058187179267406464,
					0.06190747395157814,
					1
				],
				"metallicFactor":0,
				"roughnessFactor":0.8500000238418579
			}
		},
		{
			"doubleSided":true,
			"name":"M_ht4",
			"pbrMetallicRoughness":{
				"baseColorFactor":[
					0.08241420239210129,
					0.058187179267406464,
					0.06190747395157814,
					1
				],
				"metallicFactor":0,
				"roughnessFactor":0.8500000238418579
			}
		},
		{
			"doubleSided":true,
			"name":"M_ht5",
			"pbrMetallicRoughness":{
				"baseColorFactor":[
					0.08241420239210129,
					0.058187179267406464,
					0.06190747395157814,
					1
				],
				"metallicFactor":0,
				"roughnessFactor":0.8500000238418579
			}
		},
		{
			"doubleSided":true,
			"name":"M_ht6",
			"pbrMetallicRoughness":{
				"baseColorFactor":[
					0.08241420239210129,
					0.058187179267406464,
					0.06190747395157814,
					1
				],
				"metallicFactor":0,
				"roughnessFactor":0.8500000238418579
			}
		}
	],
	"meshes":[
		{
			"name":"Cylinder",
			"primitives":[
				{
					"attributes":{
						"POSITION":0,
						"NORMAL":1,
						"TEXCOORD_0":2
					},
					"indices":3,
					"material":0
				}
			]
		},
		{
			"name":"Cylinder.002",
			"primitives":[
				{
					"attributes":{
						"POSITION":4,
						"NORMAL":5,
						"TEXCOORD_0":6
					},
					"indices":3,
					"material":1
				}
			]
		},
		{
			"name":"Cylinder.004",
			"primitives":[
				{
					"attributes":{
						"POSITION":7,
						"NORMAL":8,
						"TEXCOORD_0":9
					},
					"indices":3,
					"material":2
				}
			]
		},
		{
			"name":"Cylinder.006",
			"primitives":[
				{
					"attributes":{
						"POSITION":10,
						"NORMAL":11,
						"TEXCOORD_0":12
					},
					"indices":3,
					"material":3
				}
			]
		},
		{
			"name":"Cylinder.008",
			"primitives":[
				{
					"attributes":{
						"POSITION":13,
						"NORMAL":14,
						"TEXCOORD_0":15
					},
					"indices":3,
					"material":4
				}
			]
		},
		{
			"name":"Cylinder.010",
			"primitives":[
				{
					"attributes":{
						"POSITION":16,
						"NORMAL":17,
						"TEXCOORD_0":18
					},
					"indices":3,
					"material":5
				}
			]
		},
		{
			"name":"Cylinder.012",
			"primitives":[
				{
					"attributes":{
						"POSITION":19,
						"NORMAL":20,
						"TEXCOORD_0":21
					},
					"indices":3,
					"material":6
				}
			]
		},
		{
			"name":"Cube",
			"primitives":[
				{
					"attributes":{
						"POSITION":22,
						"NORMAL":23,
						"TEXCOORD_0":24
					},
					"indices":25,
					"material":7
				}
			]
		},
		{
			"name":"Cube.001",
			"primitives":[
				{
					"attributes":{
						"POSITION":26,
						"NORMAL":27,
						"TEXCOORD_0":28
					},
					"indices":25,
					"material":8
				}
			]
		},
		{
			"name":"Cylinder.001",
			"primitives":[
				{
					"attributes":{
						"POSITION":29,
						"NORMAL":30,
						"TEXCOORD_0":31
					},
					"indices":3,
					"material":9
				}
			]
		},
		{
			"name":"Cylinder.003",
			"primitives":[
				{
					"attributes":{
						"POSITION":32,
						"NORMAL":33,
						"TEXCOORD_0":34
					},
					"indices":3,
					"material":10
				}
			]
		},
		{
			"name":"Cylinder.005",
			"primitives":[
				{
					"attributes":{
						"POSITION":35,
						"NORMAL":36,
						"TEXCOORD_0":37
					},
					"indices":3,
					"material":11
				}
			]
		},
		{
			"name":"Cylinder.007",
			"primitives":[
				{
					"attributes":{
						"POSITION":38,
						"NORMAL":39,
						"TEXCOORD_0":40
					},
					"indices":3,
					"material":12
				}
			]
		},
		{
			"name":"Cylinder.009",
			"primitives":[
				{
					"attributes":{
						"POSITION":41,
						"NORMAL":42,
						"TEXCOORD_0":43
					},
					"indices":3,
					"material":13
				}
			]
		},
		{
			"name":"Cylinder.011",
			"primitives":[
				{
					"attributes":{
						"POSITION":44,
						"NORMAL":45,
						"TEXCOORD_0":46
					},
					"indices":3,
					"material":14
				}
			]
		},
		{
			"name":"Cylinder.013",
			"primitives":[
				{
					"attributes":{
						"POSITION":47,
						"NORMAL":48,
						"TEXCOORD_0":49
					},
					"indices":3,
					"material":15
				}
			]
		}
	],
	"accessors":[
		{
			"bufferView":0,
			"componentType":5126,
			"count":36,
			"max":[
				0.2944486439228058,
				2.5999999046325684,
				0.3400000035762787
			],
			"min":[
				-0.2944486439228058,
				0,
				-0.3400000035762787
			],
			"type":"VEC3"
		},
		{
			"bufferView":1,
			"componentType":5126,
			"count":36,
			"type":"VEC3"
		},
		{
			"bufferView":2,
			"componentType":5126,
			"count":36,
			"type":"VEC2"
		},
		{
			"bufferView":3,
			"componentType":5123,
			"count":60,
			"type":"SCALAR"
		},
		{
			"bufferView":4,
			"componentType":5126,
			"count":36,
			"max":[
				0.914448618888855,
				1.899999976158142,
				0.24000000953674316
			],
			"min":[
				0.3255513608455658,
				0,
				-0.4399999976158142
			],
			"type":"VEC3"
		},
		{
			"bufferView":5,
			"componentType":5126,
			"count":36,
			"type":"VEC3"
		},
		{
			"bufferView":6,
			"componentType":5126,
			"count":36,
			"type":"VEC2"
		},
		{
			"bufferView":7,
			"componentType":5126,
			"count":36,
			"max":[
				-0.25555136799812317,
				1.5,
				0.09000000357627869
			],
			"min":[
				-0.8444486856460571,
				0,
				-0.5900000333786011
			],
			"type":"VEC3"
		},
		{
			"bufferView":8,
			"componentType":5126,
			"count":36,
			"type":"VEC3"
		},
		{
			"bufferView":9,
			"componentType":5126,
			"count":36,
			"type":"VEC2"
		},
		{
			"bufferView":10,
			"componentType":5126,
			"count":36,
			"max":[
				0.5944486856460571,
				1.100000023841858,
				0.940000057220459
			],
			"min":[
				0.005551367998123169,
				0,
				0.2600000202655792
			],
			"type":"VEC3"
		},
		{
			"bufferView":11,
			"componentType":5126,
			"count":36,
			"type":"VEC3"
		},
		{
			"bufferView":12,
			"componentType":5126,
			"count":36,
			"type":"VEC2"
		},
		{
			"bufferView":13,
			"componentType":5126,
			"count":36,
			"max":[
				-0.005551367998123169,
				0.800000011920929,
				0.8400000333786011
			],
			"min":[
				-0.5944486856460571,
				0,
				0.1599999964237213
			],
			"type":"VEC3"
		},
		{
			"bufferView":14,
			"componentType":5126,
			"count":36,
			"type":"VEC3"
		},
		{
			"bufferView":15,
			"componentType":5126,
			"count":36,
			"type":"VEC2"
		},
		{
			"bufferView":16,
			"componentType":5126,
			"count":36,
			"max":[
				0.34444865584373474,
				1.2000000476837158,
				-0.3099999725818634
			],
			"min":[
				-0.24444864690303802,
				0,
				-0.9900000095367432
			],
			"type":"VEC3"
		},
		{
			"bufferView":17,
			"componentType":5126,
			"count":36,
			"type":"VEC3"
		},
		{
			"bufferView":18,
			"componentType":5126,
			"count":36,
			"type":"VEC2"
		},
		{
			"bufferView":19,
			"componentType":5126,
			"count":36,
			"max":[
				-0.3255513608455658,
				0.550000011920929,
				0.49000000953674316
			],
			"min":[
				-0.914448618888855,
				0,
				-0.1899999976158142
			],
			"type":"VEC3"
		},
		{
			"bufferView":20,
			"componentType":5126,
			"count":36,
			"type":"VEC3"
		},
		{
			"bufferView":21,
			"componentType":5126,
			"count":36,
			"type":"VEC2"
		},
		{
			"bufferView":22,
			"componentType":5126,
			"count":24,
			"max":[
				0.3700000047683716,
				0.699999988079071,
				0.33000001311302185
			],
			"min":[
				0.26999998092651367,
				0,
				0.23000000417232513
			],
			"type":"VEC3"
		},
		{
			"bufferView":23,
			"componentType":5126,
			"count":24,
			"type":"VEC3"
		},
		{
			"bufferView":24,
			"componentType":5126,
			"count":24,
			"type":"VEC2"
		},
		{
			"bufferView":25,
			"componentType":5123,
			"count":36,
			"type":"SCALAR"
		},
		{
			"bufferView":26,
			"componentType":5126,
			"count":24,
			"max":[
				-0.3699999749660492,
				0.699999988079071,
				0.17000000178813934
			],
			"min":[
				-0.4699999988079071,
				0,
				0.06999999284744263
			],
			"type":"VEC3"
		},
		{
			"bufferView":27,
			"componentType":5126,
			"count":24,
			"type":"VEC3"
		},
		{
			"bufferView":28,
			"componentType":5126,
			"count":24,
			"type":"VEC2"
		},
		{
			"bufferView":29,
			"componentType":5126,
			"count":36,
			"max":[
				0.25980761647224426,
				2.6449999809265137,
				0.30000001192092896
			],
			"min":[
				-0.25980761647224426,
				2.5949997901916504,
				-0.30000001192092896
			],
			"type":"VEC3"
		},
		{
			"bufferView":30,
			"componentType":5126,
			"count":36,
			"type":"VEC3"
		},
		{
			"bufferView":31,
			"componentType":5126,
			"count":36,
			"type":"VEC2"
		},
		{
			"bufferView":32,
			"componentType":5126,
			"count":36,
			"max":[
				0.8798075914382935,
				1.9449999332427979,
				0.20000001788139343
			],
			"min":[
				0.3601923882961273,
				1.8949999809265137,
				-0.4000000059604645
			],
			"type":"VEC3"
		},
		{
			"bufferView":33,
			"componentType":5126,
			"count":36,
			"type":"VEC3"
		},
		{
			"bufferView":34,
			"componentType":5126,
			"count":36,
			"type":"VEC2"
		},
		{
			"bufferView":35,
			"componentType":5126,
			"count":36,
			"max":[
				-0.2901923954486847,
				1.5449999570846558,
				0.050000011920928955
			],
			"min":[
				-0.8098076581954956,
				1.4950000047683716,
				-0.550000011920929
			],
			"type":"VEC3"
		},
		{
			"bufferView":36,
			"componentType":5126,
			"count":36,
			"type":"VEC3"
		},
		{
			"bufferView":37,
			"componentType":5126,
			"count":36,
			"type":"VEC2"
		},
		{
			"bufferView":38,
			"componentType":5126,
			"count":36,
			"max":[
				0.5598076581954956,
				1.1449999809265137,
				0.9000000357627869
			],
			"min":[
				0.04019239544868469,
				1.0950000286102295,
				0.30000001192092896
			],
			"type":"VEC3"
		},
		{
			"bufferView":39,
			"componentType":5126,
			"count":36,
			"type":"VEC3"
		},
		{
			"bufferView":40,
			"componentType":5126,
			"count":36,
			"type":"VEC2"
		},
		{
			"bufferView":41,
			"componentType":5126,
			"count":36,
			"max":[
				-0.04019239544868469,
				0.8449999690055847,
				0.800000011920929
			],
			"min":[
				-0.5598076581954956,
				0.7950000166893005,
				0.19999998807907104
			],
			"type":"VEC3"
		},
		{
			"bufferView":42,
			"componentType":5126,
			"count":36,
			"type":"VEC3"
		},
		{
			"bufferView":43,
			"componentType":5126,
			"count":36,
			"type":"VEC2"
		},
		{
			"bufferView":44,
			"componentType":5126,
			"count":36,
			"max":[
				0.3098076283931732,
				1.2450000047683716,
				-0.34999996423721313
			],
			"min":[
				-0.2098076194524765,
				1.1950000524520874,
				-0.949999988079071
			],
			"type":"VEC3"
		},
		{
			"bufferView":45,
			"componentType":5126,
			"count":36,
			"type":"VEC3"
		},
		{
			"bufferView":46,
			"componentType":5126,
			"count":36,
			"type":"VEC2"
		},
		{
			"bufferView":47,
			"componentType":5126,
			"count":36,
			"max":[
				-0.3601923882961273,
				0.5949999690055847,
				0.45000001788139343
			],
			"min":[
				-0.8798075914382935,
				0.5450000166893005,
				-0.15000000596046448
			],
			"type":"VEC3"
		},
		{
			"bufferView":48,
			"componentType":5126,
			"count":36,
			"type":"VEC3"
		},
		{
			"bufferView":49,
			"componentType":5126,
			"count":36,
			"type":"VEC2"
		}
	],
	"bufferViews":[
		{
			"buffer":0,
			"byteLength":432,
			"byteOffset":0,
			"target":34962
		},
		{
			"buffer":0,
			"byteLength":432,
			"byteOffset":432,
			"target":34962
		},
		{
			"buffer":0,
			"byteLength":288,
			"byteOffset":864,
			"target":34962
		},
		{
			"buffer":0,
			"byteLength":120,
			"byteOffset":1152,
			"target":34963
		},
		{
			"buffer":0,
			"byteLength":432,
			"byteOffset":1272,
			"target":34962
		},
		{
			"buffer":0,
			"byteLength":432,
			"byteOffset":1704,
			"target":34962
		},
		{
			"buffer":0,
			"byteLength":288,
			"byteOffset":2136,
			"target":34962
		},
		{
			"buffer":0,
			"byteLength":432,
			"byteOffset":2424,
			"target":34962
		},
		{
			"buffer":0,
			"byteLength":432,
			"byteOffset":2856,
			"target":34962
		},
		{
			"buffer":0,
			"byteLength":288,
			"byteOffset":3288,
			"target":34962
		},
		{
			"buffer":0,
			"byteLength":432,
			"byteOffset":3576,
			"target":34962
		},
		{
			"buffer":0,
			"byteLength":432,
			"byteOffset":4008,
			"target":34962
		},
		{
			"buffer":0,
			"byteLength":288,
			"byteOffset":4440,
			"target":34962
		},
		{
			"buffer":0,
			"byteLength":432,
			"byteOffset":4728,
			"target":34962
		},
		{
			"buffer":0,
			"byteLength":432,
			"byteOffset":5160,
			"target":34962
		},
		{
			"buffer":0,
			"byteLength":288,
			"byteOffset":5592,
			"target":34962
		},
		{
			"buffer":0,
			"byteLength":432,
			"byteOffset":5880,
			"target":34962
		},
		{
			"buffer":0,
			"byteLength":432,
			"byteOffset":6312,
			"target":34962
		},
		{
			"buffer":0,
			"byteLength":288,
			"byteOffset":6744,
			"target":34962
		},
		{
			"buffer":0,
			"byteLength":432,
			"byteOffset":7032,
			"target":34962
		},
		{
			"buffer":0,
			"byteLength":432,
			"byteOffset":7464,
			"target":34962
		},
		{
			"buffer":0,
			"byteLength":288,
			"byteOffset":7896,
			"target":34962
		},
		{
			"buffer":0,
			"byteLength":288,
			"byteOffset":8184,
			"target":34962
		},
		{
			"buffer":0,
			"byteLength":288,
			"byteOffset":8472,
			"target":34962
		},
		{
			"buffer":0,
			"byteLength":192,
			"byteOffset":8760,
			"target":34962
		},
		{
			"buffer":0,
			"byteLength":72,
			"byteOffset":8952,
			"target":34963
		},
		{
			"buffer":0,
			"byteLength":288,
			"byteOffset":9024,
			"target":34962
		},
		{
			"buffer":0,
			"byteLength":288,
			"byteOffset":9312,
			"target":34962
		},
		{
			"buffer":0,
			"byteLength":192,
			"byteOffset":9600,
			"target":34962
		},
		{
			"buffer":0,
			"byteLength":432,
			"byteOffset":9792,
			"target":34962
		},
		{
			"buffer":0,
			"byteLength":432,
			"byteOffset":10224,
			"target":34962
		},
		{
			"buffer":0,
			"byteLength":288,
			"byteOffset":10656,
			"target":34962
		},
		{
			"buffer":0,
			"byteLength":432,
			"byteOffset":10944,
			"target":34962
		},
		{
			"buffer":0,
			"byteLength":432,
			"byteOffset":11376,
			"target":34962
		},
		{
			"buffer":0,
			"byteLength":288,
			"byteOffset":11808,
			"target":34962
		},
		{
			"buffer":0,
			"byteLength":432,
			"byteOffset":12096,
			"target":34962
		},
		{
			"buffer":0,
			"byteLength":432,
			"byteOffset":12528,
			"target":34962
		},
		{
			"buffer":0,
			"byteLength":288,
			"byteOffset":12960,
			"target":34962
		},
		{
			"buffer":0,
			"byteLength":432,
			"byteOffset":13248,
			"target":34962
		},
		{
			"buffer":0,
			"byteLength":432,
			"byteOffset":13680,
			"target":34962
		},
		{
			"buffer":0,
			"byteLength":288,
			"byteOffset":14112,
			"target":34962
		},
		{
			"buffer":0,
			"byteLength":432,
			"byteOffset":14400,
			"target":34962
		},
		{
			"buffer":0,
			"byteLength":432,
			"byteOffset":14832,
			"target":34962
		},
		{
			"buffer":0,
			"byteLength":288,
			"byteOffset":15264,
			"target":34962
		},
		{
			"buffer":0,
			"byteLength":432,
			"byteOffset":15552,
			"target":34962
		},
		{
			"buffer":0,
			"byteLength":432,
			"byteOffset":15984,
			"target":34962
		},
		{
			"buffer":0,
			"byteLength":288,
			"byteOffset":16416,
			"target":34962
		},
		{
			"buffer":0,
			"byteLength":432,
			"byteOffset":16704,
			"target":34962
		},
		{
			"buffer":0,
			"byteLength":432,
			"byteOffset":17136,
			"target":34962
		},
		{
			"buffer":0,
			"byteLength":288,
			"byteOffset":17568,
			"target":34962
		}
	],
	"buffers":[
		{
			"byteLength":17856,
			"uri":"hd_basalt_hex.bin"
		}
	]
}
