{
	"asset":{
		"generator":"Khronos glTF Blender I/O v5.2.40",
		"version":"2.0"
	},
	"extensionsUsed":[
		"KHR_materials_emissive_strength"
	],
	"scene":0,
	"scenes":[
		{
			"name":"Scene",
			"nodes":[
				0
			]
		}
	],
	"nodes":[
		{
			"mesh":0,
			"name":"bl_portal"
		}
	],
	"materials":[
		{
			"doubleSided":true,
			"name":"stoneDk",
			"pbrMetallicRoughness":{
				"baseColorFactor":[
					0.33922332525253296,
					0.2590273320674896,
					0.14799802005290985,
					1
				],
				"metallicFactor":0,
				"roughnessFactor":0.8500000238418579
			}
		},
		{
			"doubleSided":true,
			"name":"stone",
			"pbrMetallicRoughness":{
				"baseColorFactor":[
					0.5924380421638489,
					0.48776519298553467,
					0.288815975189209,
					1
				],
				"metallicFactor":0,
				"roughnessFactor":0.8500000238418579
			}
		},
		{
			"doubleSided":true,
			"name":"stoneLt",
			"pbrMetallicRoughness":{
				"baseColorFactor":[
					0.7817506790161133,
					0.6800203323364258,
					0.46474114060401917,
					1
				],
				"metallicFactor":0,
				"roughnessFactor":0.8500000238418579
			}
		},
		{
			"doubleSided":true,
			"name":"rune",
			"pbrMetallicRoughness":{
				"baseColorFactor":[
					0.46474114060401917,
					0.20471012592315674,
					1,
					1
				],
				"metallicFactor":0,
				"roughnessFactor":0.8500000238418579
			}
		},
		{
			"doubleSided":true,
			"name":"basalt",
			"pbrMetallicRoughness":{
				"baseColorFactor":[
					0.044552627950906754,
					0.02899118699133396,
					0.05637409910559654,
					1
				],
				"metallicFactor":0,
				"roughnessFactor":0.8500000238418579
			}
		},
		{
			"doubleSided":true,
			"name":"gold",
			"pbrMetallicRoughness":{
				"baseColorFactor":[
					0.8751375675201416,
					0.4936161935329437,
					0.044552627950906754,
					1
				],
				"metallicFactor":0,
				"roughnessFactor":0.8500000238418579
			}
		},
		{
			"doubleSided":true,
			"emissiveFactor":[
				0.2590273320674896,
				0.10615606606006622,
				1
			],
			"extensions":{
				"KHR_materials_emissive_strength":{
					"emissiveStrength":2.200000047683716
				}
			},
			"name":"portal",
			"pbrMetallicRoughness":{
				"baseColorFactor":[
					0.2590273320674896,
					0.10615606606006622,
					1,
					1
				],
				"metallicFactor":0,
				"roughnessFactor":0.8500000238418579
			}
		}
	],
	"meshes":[
		{
			"name":"Cube",
			"primitives":[
				{
					"attributes":{
						"POSITION":0,
						"NORMAL":1,
						"TEXCOORD_0":2
					},
					"indices":3,
					"material":0
				},
				{
					"attributes":{
						"POSITION":4,
						"NORMAL":5,
						"TEXCOORD_0":6
					},
					"indices":7,
					"material":1
				},
				{
					"attributes":{
						"POSITION":8,
						"NORMAL":9,
						"TEXCOORD_0":10
					},
					"indices":11,
					"material":2
				},
				{
					"attributes":{
						"POSITION":12,
						"NORMAL":13,
						"TEXCOORD_0":14
					},
					"indices":15,
					"material":3
				},
				{
					"attributes":{
						"POSITION":16,
						"NORMAL":17,
						"TEXCOORD_0":18
					},
					"indices":19,
					"material":4
				},
				{
					"attributes":{
						"POSITION":20,
						"NORMAL":21,
						"TEXCOORD_0":22
					},
					"indices":23,
					"material":5
				},
				{
					"attributes":{
						"POSITION":24,
						"NORMAL":25,
						"TEXCOORD_0":26
					},
					"indices":27,
					"material":6
				}
			]
		}
	],
	"accessors":[
		{
			"bufferView":0,
			"componentType":5126,
			"count":1080,
			"max":[
				2.299999952316284,
				0.6499999761581421,
				0
			],
			"min":[
				-2.299999952316284,
				-0.6499999761581421,
				-2.929999828338623
			],
			"type":"VEC3"
		},
		{
			"bufferView":1,
			"componentType":5126,
			"count":1080,
			"type":"VEC3"
		},
		{
			"bufferView":2,
			"componentType":5126,
			"count":1080,
			"type":"VEC2"
		},
		{
			"bufferView":3,
			"componentType":5123,
			"count":1620,
			"type":"SCALAR"
		},
		{
			"bufferView":4,
			"componentType":5126,
			"count":3672,
			"max":[
				2.1500000953674316,
				0.5249999761581421,
				-0.1899999976158142
			],
			"min":[
				-2.1500000953674316,
				-0.5249999761581421,
				-4.319999694824219
			],
			"type":"VEC3"
		},
		{
			"bufferView":5,
			"componentType":5126,
			"count":3672,
			"type":"VEC3"
		},
		{
			"bufferView":6,
			"componentType":5126,
			"count":3672,
			"type":"VEC2"
		},
		{
			"bufferView":7,
			"componentType":5123,
			"count":5508,
			"type":"SCALAR"
		},
		{
			"bufferView":8,
			"componentType":5126,
			"count":432,
			"max":[
				1.899999976158142,
				0.38999998569488525,
				-1.524999976158142
			],
			"min":[
				-1.899999976158142,
				-0.38999998569488525,
				-2.2750000953674316
			],
			"type":"VEC3"
		},
		{
			"bufferView":9,
			"componentType":5126,
			"count":432,
			"type":"VEC3"
		},
		{
			"bufferView":10,
			"componentType":5126,
			"count":432,
			"type":"VEC2"
		},
		{
			"bufferView":11,
			"componentType":5123,
			"count":648,
			"type":"SCALAR"
		},
		{
			"bufferView":12,
			"componentType":5126,
			"count":1944,
			"max":[
				1.3434394598007202,
				0.4699999988079071,
				-1.3380218744277954
			],
			"min":[
				-1.3434394598007202,
				0.4099999964237213,
				-4.220000267028809
			],
			"type":"VEC3"
		},
		{
			"bufferView":13,
			"componentType":5126,
			"count":1944,
			"type":"VEC3"
		},
		{
			"bufferView":14,
			"componentType":5126,
			"count":1944,
			"type":"VEC2"
		},
		{
			"bufferView":15,
			"componentType":5123,
			"count":2916,
			"type":"SCALAR"
		},
		{
			"bufferView":16,
			"componentType":5126,
			"count":2376,
			"max":[
				1.0700000524520874,
				0.48500001430511475,
				-2.706998825073242
			],
			"min":[
				-1.0700000524520874,
				-0.48500001430511475,
				-3.9200000762939453
			],
			"type":"VEC3"
		},
		{
			"bufferView":17,
			"componentType":5126,
			"count":2376,
			"type":"VEC3"
		},
		{
			"bufferView":18,
			"componentType":5126,
			"count":2376,
			"type":"VEC2"
		},
		{
			"bufferView":19,
			"componentType":5123,
			"count":3564,
			"type":"SCALAR"
		},
		{
			"bufferView":20,
			"componentType":5126,
			"count":60,
			"max":[
				0.18782925605773926,
				0.21000000834465027,
				-4.38480806350708
			],
			"min":[
				-0.18782925605773926,
				-0.21000000834465027,
				-4.895191669464111
			],
			"type":"VEC3"
		},
		{
			"bufferView":21,
			"componentType":5126,
			"count":60,
			"type":"VEC3"
		},
		{
			"bufferView":22,
			"componentType":5126,
			"count":60,
			"type":"VEC2"
		},
		{
			"bufferView":23,
			"componentType":5123,
			"count":60,
			"type":"SCALAR"
		},
		{
			"bufferView":24,
			"componentType":5126,
			"count":192,
			"max":[
				0.949999988079071,
				-0.020000001415610313,
				-1.8999998569488525
			],
			"min":[
				-0.949999988079071,
				-0.07999999821186066,
				-3.799999952316284
			],
			"type":"VEC3"
		},
		{
			"bufferView":25,
			"componentType":5126,
			"count":192,
			"type":"VEC3"
		},
		{
			"bufferView":26,
			"componentType":5126,
			"count":192,
			"type":"VEC2"
		},
		{
			"bufferView":27,
			"componentType":5123,
			"count":372,
			"type":"SCALAR"
		}
	],
	"bufferViews":[
		{
			"buffer":0,
			"byteLength":12960,
			"byteOffset":0,
			"target":34962
		},
		{
			"buffer":0,
			"byteLength":12960,
			"byteOffset":12960,
			"target":34962
		},
		{
			"buffer":0,
			"byteLength":8640,
			"byteOffset":25920,
			"target":34962
		},
		{
			"buffer":0,
			"byteLength":3240,
			"byteOffset":34560,
			"target":34963
		},
		{
			"buffer":0,
			"byteLength":44064,
			"byteOffset":37800,
			"target":34962
		},
		{
			"buffer":0,
			"byteLength":44064,
			"byteOffset":81864,
			"target":34962
		},
		{
			"buffer":0,
			"byteLength":29376,
			"byteOffset":125928,
			"target":34962
		},
		{
			"buffer":0,
			"byteLength":11016,
			"byteOffset":155304,
			"target":34963
		},
		{
			"buffer":0,
			"byteLength":5184,
			"byteOffset":166320,
			"target":34962
		},
		{
			"buffer":0,
			"byteLength":5184,
			"byteOffset":171504,
			"target":34962
		},
		{
			"buffer":0,
			"byteLength":3456,
			"byteOffset":176688,
			"target":34962
		},
		{
			"buffer":0,
			"byteLength":1296,
			"byteOffset":180144,
			"target":34963
		},
		{
			"buffer":0,
			"byteLength":23328,
			"byteOffset":181440,
			"target":34962
		},
		{
			"buffer":0,
			"byteLength":23328,
			"byteOffset":204768,
			"target":34962
		},
		{
			"buffer":0,
			"byteLength":15552,
			"byteOffset":228096,
			"target":34962
		},
		{
			"buffer":0,
			"byteLength":5832,
			"byteOffset":243648,
			"target":34963
		},
		{
			"buffer":0,
			"byteLength":28512,
			"byteOffset":249480,
			"target":34962
		},
		{
			"buffer":0,
			"byteLength":28512,
			"byteOffset":277992,
			"target":34962
		},
		{
			"buffer":0,
			"byteLength":19008,
			"byteOffset":306504,
			"target":34962
		},
		{
			"buffer":0,
			"byteLength":7128,
			"byteOffset":325512,
			"target":34963
		},
		{
			"buffer":0,
			"byteLength":720,
			"byteOffset":332640,
			"target":34962
		},
		{
			"buffer":0,
			"byteLength":720,
			"byteOffset":333360,
			"target":34962
		},
		{
			"buffer":0,
			"byteLength":480,
			"byteOffset":334080,
			"target":34962
		},
		{
			"buffer":0,
			"byteLength":120,
			"byteOffset":334560,
			"target":34963
		},
		{
			"buffer":0,
			"byteLength":2304,
			"byteOffset":334680,
			"target":34962
		},
		{
			"buffer":0,
			"byteLength":2304,
			"byteOffset":336984,
			"target":34962
		},
		{
			"buffer":0,
			"byteLength":1536,
			"byteOffset":339288,
			"target":34962
		},
		{
			"buffer":0,
			"byteLength":744,
			"byteOffset":340824,
			"target":34963
		}
	],
	"buffers":[
		{
			"byteLength":341568,
			"uri":"bl_portal.bin"
		}
	]
}
