{
	"asset":{
		"generator":"Khronos glTF Blender I/O v5.2.40",
		"version":"2.0"
	},
	"scene":0,
	"scenes":[
		{
			"name":"Scene",
			"nodes":[
				0,
				1,
				2
			]
		}
	],
	"nodes":[
		{
			"mesh":0,
			"name":"flag",
			"translation":[
				0.2800000011920929,
				0,
				-5.619999885559082
			]
		},
		{
			"mesh":1,
			"name":"Pulley",
			"rotation":[
				0,
				0,
				-0.7071068286895752,
				0.7071068286895752
			],
			"translation":[
				0,
				0,
				-4.519999980926514
			]
		},
		{
			"mesh":2,
			"name":"Tower",
			"rotation":[
				0.04845333471894264,
				0.7826374769210815,
				-0.6175435781478882,
				0.06140679121017456
			],
			"translation":[
				-1.9249999523162842,
				-0.574999988079071,
				-2.375
			]
		}
	],
	"materials":[
		{
			"doubleSided":true,
			"name":"PulleyMetal",
			"pbrMetallicRoughness":{
				"baseColorFactor":[
					0.800000011920929,
					0.800000011920929,
					0.800000011920929,
					1
				],
				"metallicFactor":0,
				"roughnessFactor":0.5
			}
		},
		{
			"doubleSided":true,
			"name":"Wood",
			"pbrMetallicRoughness":{
				"baseColorFactor":[
					0.800000011920929,
					0.800000011920929,
					0.800000011920929,
					1
				],
				"metallicFactor":0,
				"roughnessFactor":0.5
			}
		}
	],
	"meshes":[
		{
			"name":"Cube",
			"primitives":[
				{
					"attributes":{
						"POSITION":0,
						"NORMAL":1,
						"TEXCOORD_0":2
					},
					"indices":3
				}
			]
		},
		{
			"name":"Cylinder.008",
			"primitives":[
				{
					"attributes":{
						"POSITION":4,
						"NORMAL":5,
						"TEXCOORD_0":6
					},
					"indices":7,
					"material":0
				}
			]
		},
		{
			"name":"Cylinder",
			"primitives":[
				{
					"attributes":{
						"POSITION":8,
						"NORMAL":9,
						"TEXCOORD_0":10
					},
					"indices":11,
					"material":1
				}
			]
		}
	],
	"accessors":[
		{
			"bufferView":0,
			"componentType":5126,
			"count":24,
			"max":[
				0.15000000596046448,
				0.009999999776482582,
				0.10999999940395355
			],
			"min":[
				-0.15000000596046448,
				-0.009999999776482582,
				-0.10999999940395355
			],
			"type":"VEC3"
		},
		{
			"bufferView":1,
			"componentType":5126,
			"count":24,
			"type":"VEC3"
		},
		{
			"bufferView":2,
			"componentType":5126,
			"count":24,
			"type":"VEC2"
		},
		{
			"bufferView":3,
			"componentType":5123,
			"count":36,
			"type":"SCALAR"
		},
		{
			"bufferView":4,
			"componentType":5126,
			"count":72,
			"max":[
				0.30000001192092896,
				0.07000000029802322,
				0.30000001192092896
			],
			"min":[
				-0.30000001192092896,
				-0.07000000029802322,
				-0.30000001192092896
			],
			"type":"VEC3"
		},
		{
			"bufferView":5,
			"componentType":5126,
			"count":72,
			"type":"VEC3"
		},
		{
			"bufferView":6,
			"componentType":5126,
			"count":72,
			"type":"VEC2"
		},
		{
			"bufferView":7,
			"componentType":5123,
			"count":132,
			"type":"SCALAR"
		},
		{
			"bufferView":8,
			"componentType":5126,
			"count":384,
			"max":[
				0.2812526226043701,
				3.4596927165985107,
				0.7404720783233643
			],
			"min":[
				-4.6864118576049805,
				-2.4722206592559814,
				-2.3706958293914795
			],
			"type":"VEC3"
		},
		{
			"bufferView":9,
			"componentType":5126,
			"count":384,
			"type":"VEC3"
		},
		{
			"bufferView":10,
			"componentType":5126,
			"count":384,
			"type":"VEC2"
		},
		{
			"bufferView":11,
			"componentType":5123,
			"count":672,
			"type":"SCALAR"
		}
	],
	"bufferViews":[
		{
			"buffer":0,
			"byteLength":288,
			"byteOffset":0,
			"target":34962
		},
		{
			"buffer":0,
			"byteLength":288,
			"byteOffset":288,
			"target":34962
		},
		{
			"buffer":0,
			"byteLength":192,
			"byteOffset":576,
			"target":34962
		},
		{
			"buffer":0,
			"byteLength":72,
			"byteOffset":768,
			"target":34963
		},
		{
			"buffer":0,
			"byteLength":864,
			"byteOffset":840,
			"target":34962
		},
		{
			"buffer":0,
			"byteLength":864,
			"byteOffset":1704,
			"target":34962
		},
		{
			"buffer":0,
			"byteLength":576,
			"byteOffset":2568,
			"target":34962
		},
		{
			"buffer":0,
			"byteLength":264,
			"byteOffset":3144,
			"target":34963
		},
		{
			"buffer":0,
			"byteLength":4608,
			"byteOffset":3408,
			"target":34962
		},
		{
			"buffer":0,
			"byteLength":4608,
			"byteOffset":8016,
			"target":34962
		},
		{
			"buffer":0,
			"byteLength":3072,
			"byteOffset":12624,
			"target":34962
		},
		{
			"buffer":0,
			"byteLength":1344,
			"byteOffset":15696,
			"target":34963
		}
	],
	"buffers":[
		{
			"byteLength":17040,
			"uri":"bl_ziptower.bin"
		}
	]
}
