{
	"asset":{
		"generator":"Khronos glTF Blender I/O v5.2.40",
		"version":"2.0"
	},
	"scene":0,
	"scenes":[
		{
			"name":"Scene",
			"nodes":[
				0,
				1,
				2,
				3,
				4,
				5,
				6,
				7,
				8
			]
		}
	],
	"nodes":[
		{
			"mesh":0,
			"name":"arm1"
		},
		{
			"mesh":1,
			"name":"arm-1"
		},
		{
			"mesh":2,
			"name":"ball0"
		},
		{
			"mesh":3,
			"name":"ball1"
		},
		{
			"mesh":4,
			"name":"ball2"
		},
		{
			"mesh":5,
			"name":"eye0.09"
		},
		{
			"mesh":6,
			"name":"eye-0.09"
		},
		{
			"mesh":7,
			"name":"nose"
		},
		{
			"mesh":8,
			"name":"scarf"
		}
	],
	"materials":[
		{
			"doubleSided":true,
			"name":"M_ar1",
			"pbrMetallicRoughness":{
				"baseColorFactor":[
					0.15728072822093964,
					0.08919350802898407,
					0.0477757528424263,
					1
				],
				"metallicFactor":0,
				"roughnessFactor":0.8500000238418579
			}
		},
		{
			"doubleSided":true,
			"name":"M_ar-1",
			"pbrMetallicRoughness":{
				"baseColorFactor":[
					0.15728072822093964,
					0.08919350802898407,
					0.0477757528424263,
					1
				],
				"metallicFactor":0,
				"roughnessFactor":0.8500000238418579
			}
		},
		{
			"doubleSided":true,
			"name":"M_sb0",
			"pbrMetallicRoughness":{
				"baseColorFactor":[
					0.8912620544433594,
					0.9406006932258606,
					0.97430020570755,
					1
				],
				"metallicFactor":0,
				"roughnessFactor":0.8500000238418579
			}
		},
		{
			"doubleSided":true,
			"name":"M_sb1",
			"pbrMetallicRoughness":{
				"baseColorFactor":[
					0.8912620544433594,
					0.9406006932258606,
					0.97430020570755,
					1
				],
				"metallicFactor":0,
				"roughnessFactor":0.8500000238418579
			}
		},
		{
			"doubleSided":true,
			"name":"M_sb2",
			"pbrMetallicRoughness":{
				"baseColorFactor":[
					0.8912620544433594,
					0.9406006932258606,
					0.97430020570755,
					1
				],
				"metallicFactor":0,
				"roughnessFactor":0.8500000238418579
			}
		},
		{
			"doubleSided":true,
			"name":"M_ey0.09",
			"pbrMetallicRoughness":{
				"baseColorFactor":[
					0.013473397120833397,
					0.00902149174362421,
					0.00902149174362421,
					1
				],
				"metallicFactor":0,
				"roughnessFactor":0.8500000238418579
			}
		},
		{
			"doubleSided":true,
			"name":"M_ey-0.09",
			"pbrMetallicRoughness":{
				"baseColorFactor":[
					0.013473397120833397,
					0.00902149174362421,
					0.00902149174362421,
					1
				],
				"metallicFactor":0,
				"roughnessFactor":0.8500000238418579
			}
		},
		{
			"doubleSided":true,
			"name":"M_no",
			"pbrMetallicRoughness":{
				"baseColorFactor":[
					0.8122414946556091,
					0.24680042266845703,
					0.038472745567560196,
					1
				],
				"metallicFactor":0,
				"roughnessFactor":0.8500000238418579
			}
		},
		{
			"doubleSided":true,
			"name":"M_sc",
			"pbrMetallicRoughness":{
				"baseColorFactor":[
					0.7518950700759888,
					0.09387587010860443,
					0.06575387716293335,
					1
				],
				"metallicFactor":0,
				"roughnessFactor":0.8500000238418579
			}
		}
	],
	"meshes":[
		{
			"name":"Cone.002",
			"primitives":[
				{
					"attributes":{
						"POSITION":0,
						"NORMAL":1,
						"TEXCOORD_0":2
					},
					"indices":3,
					"material":0
				}
			]
		},
		{
			"name":"Cone.001",
			"primitives":[
				{
					"attributes":{
						"POSITION":4,
						"NORMAL":5,
						"TEXCOORD_0":6
					},
					"indices":7,
					"material":1
				}
			]
		},
		{
			"name":"Icosphere",
			"primitives":[
				{
					"attributes":{
						"POSITION":8,
						"NORMAL":9,
						"TEXCOORD_0":10
					},
					"indices":11,
					"material":2
				}
			]
		},
		{
			"name":"Icosphere.001",
			"primitives":[
				{
					"attributes":{
						"POSITION":12,
						"NORMAL":13,
						"TEXCOORD_0":14
					},
					"indices":11,
					"material":3
				}
			]
		},
		{
			"name":"Icosphere.002",
			"primitives":[
				{
					"attributes":{
						"POSITION":15,
						"NORMAL":16,
						"TEXCOORD_0":17
					},
					"indices":11,
					"material":4
				}
			]
		},
		{
			"name":"Icosphere.004",
			"primitives":[
				{
					"attributes":{
						"POSITION":18,
						"NORMAL":19,
						"TEXCOORD_0":20
					},
					"indices":21,
					"material":5
				}
			]
		},
		{
			"name":"Icosphere.003",
			"primitives":[
				{
					"attributes":{
						"POSITION":22,
						"NORMAL":23,
						"TEXCOORD_0":24
					},
					"indices":21,
					"material":6
				}
			]
		},
		{
			"name":"Cone",
			"primitives":[
				{
					"attributes":{
						"POSITION":25,
						"NORMAL":26,
						"TEXCOORD_0":27
					},
					"indices":28,
					"material":7
				}
			]
		},
		{
			"name":"Torus",
			"primitives":[
				{
					"attributes":{
						"POSITION":29,
						"NORMAL":30,
						"TEXCOORD_0":31
					},
					"indices":32,
					"material":8
				}
			]
		}
	],
	"accessors":[
		{
			"bufferView":0,
			"componentType":5126,
			"count":24,
			"max":[
				0.8659964799880981,
				1.2918436527252197,
				0.02500000037252903
			],
			"min":[
				0.22960364818572998,
				1.0917357206344604,
				-0.02500000037252903
			],
			"type":"VEC3"
		},
		{
			"bufferView":1,
			"componentType":5126,
			"count":24,
			"type":"VEC3"
		},
		{
			"bufferView":2,
			"componentType":5126,
			"count":24,
			"type":"VEC2"
		},
		{
			"bufferView":3,
			"componentType":5123,
			"count":36,
			"type":"SCALAR"
		},
		{
			"bufferView":4,
			"componentType":5126,
			"count":24,
			"max":[
				-0.22960364818572998,
				1.2918436527252197,
				0.02500000037252903
			],
			"min":[
				-0.8659964799880981,
				1.0917357206344604,
				-0.02500000037252903
			],
			"type":"VEC3"
		},
		{
			"bufferView":5,
			"componentType":5126,
			"count":24,
			"type":"VEC3"
		},
		{
			"bufferView":6,
			"componentType":5126,
			"count":24,
			"type":"VEC2"
		},
		{
			"bufferView":7,
			"componentType":5123,
			"count":36,
			"type":"SCALAR"
		},
		{
			"bufferView":8,
			"componentType":5126,
			"count":63,
			"max":[
				0.5263363718986511,
				0.9941298961639404,
				0.5376821756362915
			],
			"min":[
				-0.5382147431373596,
				-0.08549001812934875,
				-0.5645478963851929
			],
			"type":"VEC3"
		},
		{
			"bufferView":9,
			"componentType":5126,
			"count":63,
			"type":"VEC3"
		},
		{
			"bufferView":10,
			"componentType":5126,
			"count":63,
			"type":"VEC2"
		},
		{
			"bufferView":11,
			"componentType":5123,
			"count":240,
			"type":"SCALAR"
		},
		{
			"bufferView":12,
			"componentType":5126,
			"count":63,
			"max":[
				0.38797545433044434,
				1.5803381204605103,
				0.40018075704574585
			],
			"min":[
				-0.40115055441856384,
				0.7407490015029907,
				-0.4188389778137207
			],
			"type":"VEC3"
		},
		{
			"bufferView":13,
			"componentType":5126,
			"count":63,
			"type":"VEC3"
		},
		{
			"bufferView":14,
			"componentType":5126,
			"count":63,
			"type":"VEC2"
		},
		{
			"bufferView":15,
			"componentType":5126,
			"count":63,
			"max":[
				0.295834481716156,
				2.0321991443634033,
				0.3069191873073578
			],
			"min":[
				-0.2751510739326477,
				1.4591561555862427,
				-0.2984548509120941
			],
			"type":"VEC3"
		},
		{
			"bufferView":16,
			"componentType":5126,
			"count":63,
			"type":"VEC3"
		},
		{
			"bufferView":17,
			"componentType":5126,
			"count":63,
			"type":"VEC2"
		},
		{
			"bufferView":18,
			"componentType":5126,
			"count":60,
			"max":[
				0.12130487710237503,
				1.8849999904632568,
				0.26977241039276123
			],
			"min":[
				0.05869513005018234,
				1.815000057220459,
				0.2102275937795639
			],
			"type":"VEC3"
		},
		{
			"bufferView":19,
			"componentType":5126,
			"count":60,
			"type":"VEC3"
		},
		{
			"bufferView":20,
			"componentType":5126,
			"count":60,
			"type":"VEC2"
		},
		{
			"bufferView":21,
			"componentType":5123,
			"count":60,
			"type":"SCALAR"
		},
		{
			"bufferView":22,
			"componentType":5126,
			"count":60,
			"max":[
				-0.05869513005018234,
				1.8849999904632568,
				0.26977241039276123
			],
			"min":[
				-0.12130487710237503,
				1.815000057220459,
				0.2102275937795639
			],
			"type":"VEC3"
		},
		{
			"bufferView":23,
			"componentType":5126,
			"count":60,
			"type":"VEC3"
		},
		{
			"bufferView":24,
			"componentType":5126,
			"count":60,
			"type":"VEC2"
		},
		{
			"bufferView":25,
			"componentType":5126,
			"count":36,
			"max":[
				0.04330126941204071,
				1.8475972414016724,
				0.449878990650177
			],
			"min":[
				-0.04330126941204071,
				1.7483164072036743,
				0.14509309828281403
			],
			"type":"VEC3"
		},
		{
			"bufferView":26,
			"componentType":5126,
			"count":36,
			"type":"VEC3"
		},
		{
			"bufferView":27,
			"componentType":5126,
			"count":36,
			"type":"VEC2"
		},
		{
			"bufferView":28,
			"componentType":5123,
			"count":60,
			"type":"SCALAR"
		},
		{
			"bufferView":29,
			"componentType":5126,
			"count":200,
			"max":[
				0.32999998331069946,
				1.5865739583969116,
				0.313848614692688
			],
			"min":[
				-0.32999998331069946,
				1.4534260034561157,
				-0.313848614692688
			],
			"type":"VEC3"
		},
		{
			"bufferView":30,
			"componentType":5126,
			"count":200,
			"type":"VEC3"
		},
		{
			"bufferView":31,
			"componentType":5126,
			"count":200,
			"type":"VEC2"
		},
		{
			"bufferView":32,
			"componentType":5123,
			"count":300,
			"type":"SCALAR"
		}
	],
	"bufferViews":[
		{
			"buffer":0,
			"byteLength":288,
			"byteOffset":0,
			"target":34962
		},
		{
			"buffer":0,
			"byteLength":288,
			"byteOffset":288,
			"target":34962
		},
		{
			"buffer":0,
			"byteLength":192,
			"byteOffset":576,
			"target":34962
		},
		{
			"buffer":0,
			"byteLength":72,
			"byteOffset":768,
			"target":34963
		},
		{
			"buffer":0,
			"byteLength":288,
			"byteOffset":840,
			"target":34962
		},
		{
			"buffer":0,
			"byteLength":288,
			"byteOffset":1128,
			"target":34962
		},
		{
			"buffer":0,
			"byteLength":192,
			"byteOffset":1416,
			"target":34962
		},
		{
			"buffer":0,
			"byteLength":72,
			"byteOffset":1608,
			"target":34963
		},
		{
			"buffer":0,
			"byteLength":756,
			"byteOffset":1680,
			"target":34962
		},
		{
			"buffer":0,
			"byteLength":756,
			"byteOffset":2436,
			"target":34962
		},
		{
			"buffer":0,
			"byteLength":504,
			"byteOffset":3192,
			"target":34962
		},
		{
			"buffer":0,
			"byteLength":480,
			"byteOffset":3696,
			"target":34963
		},
		{
			"buffer":0,
			"byteLength":756,
			"byteOffset":4176,
			"target":34962
		},
		{
			"buffer":0,
			"byteLength":756,
			"byteOffset":4932,
			"target":34962
		},
		{
			"buffer":0,
			"byteLength":504,
			"byteOffset":5688,
			"target":34962
		},
		{
			"buffer":0,
			"byteLength":756,
			"byteOffset":6192,
			"target":34962
		},
		{
			"buffer":0,
			"byteLength":756,
			"byteOffset":6948,
			"target":34962
		},
		{
			"buffer":0,
			"byteLength":504,
			"byteOffset":7704,
			"target":34962
		},
		{
			"buffer":0,
			"byteLength":720,
			"byteOffset":8208,
			"target":34962
		},
		{
			"buffer":0,
			"byteLength":720,
			"byteOffset":8928,
			"target":34962
		},
		{
			"buffer":0,
			"byteLength":480,
			"byteOffset":9648,
			"target":34962
		},
		{
			"buffer":0,
			"byteLength":120,
			"byteOffset":10128,
			"target":34963
		},
		{
			"buffer":0,
			"byteLength":720,
			"byteOffset":10248,
			"target":34962
		},
		{
			"buffer":0,
			"byteLength":720,
			"byteOffset":10968,
			"target":34962
		},
		{
			"buffer":0,
			"byteLength":480,
			"byteOffset":11688,
			"target":34962
		},
		{
			"buffer":0,
			"byteLength":432,
			"byteOffset":12168,
			"target":34962
		},
		{
			"buffer":0,
			"byteLength":432,
			"byteOffset":12600,
			"target":34962
		},
		{
			"buffer":0,
			"byteLength":288,
			"byteOffset":13032,
			"target":34962
		},
		{
			"buffer":0,
			"byteLength":120,
			"byteOffset":13320,
			"target":34963
		},
		{
			"buffer":0,
			"byteLength":2400,
			"byteOffset":13440,
			"target":34962
		},
		{
			"buffer":0,
			"byteLength":2400,
			"byteOffset":15840,
			"target":34962
		},
		{
			"buffer":0,
			"byteLength":1600,
			"byteOffset":18240,
			"target":34962
		},
		{
			"buffer":0,
			"byteLength":600,
			"byteOffset":19840,
			"target":34963
		}
	],
	"buffers":[
		{
			"byteLength":20440,
			"uri":"hd_snowman.bin"
		}
	]
}
