{
	"asset":{
		"generator":"Khronos glTF Blender I/O v5.2.40",
		"version":"2.0"
	},
	"extensionsUsed":[
		"KHR_materials_emissive_strength"
	],
	"scene":0,
	"scenes":[
		{
			"name":"Scene",
			"nodes":[
				0,
				1,
				2,
				3,
				4,
				5,
				6
			]
		}
	],
	"nodes":[
		{
			"mesh":0,
			"name":"crack0"
		},
		{
			"mesh":1,
			"name":"crack1"
		},
		{
			"mesh":2,
			"name":"spike0"
		},
		{
			"mesh":3,
			"name":"spike1"
		},
		{
			"mesh":4,
			"name":"spike2"
		},
		{
			"mesh":5,
			"name":"spike3"
		},
		{
			"mesh":6,
			"name":"spike4"
		}
	],
	"materials":[
		{
			"doubleSided":true,
			"emissiveFactor":[
				1,
				0.19751642644405365,
				0.015175238251686096
			],
			"extensions":{
				"KHR_materials_emissive_strength":{
					"emissiveStrength":1.600000023841858
				}
			},
			"name":"M_oc0",
			"pbrMetallicRoughness":{
				"baseColorFactor":[
					1,
					0.19751642644405365,
					0.015175238251686096,
					1
				],
				"metallicFactor":0,
				"roughnessFactor":0.8500000238418579
			}
		},
		{
			"doubleSided":true,
			"emissiveFactor":[
				1,
				0.19751642644405365,
				0.015175238251686096
			],
			"extensions":{
				"KHR_materials_emissive_strength":{
					"emissiveStrength":1.600000023841858
				}
			},
			"name":"M_oc1",
			"pbrMetallicRoughness":{
				"baseColorFactor":[
					1,
					0.19751642644405365,
					0.015175238251686096,
					1
				],
				"metallicFactor":0,
				"roughnessFactor":0.8500000238418579
			}
		},
		{
			"doubleSided":true,
			"name":"M_ob0",
			"pbrMetallicRoughness":{
				"baseColorFactor":[
					0.019917838275432587,
					0.011126082390546799,
					0.025371277704834938,
					1
				],
				"metallicFactor":0.3499999940395355,
				"roughnessFactor":0.30000001192092896
			}
		},
		{
			"doubleSided":true,
			"name":"M_ob1",
			"pbrMetallicRoughness":{
				"baseColorFactor":[
					0.019917838275432587,
					0.011126082390546799,
					0.025371277704834938,
					1
				],
				"metallicFactor":0.3499999940395355,
				"roughnessFactor":0.30000001192092896
			}
		},
		{
			"doubleSided":true,
			"name":"M_ob2",
			"pbrMetallicRoughness":{
				"baseColorFactor":[
					0.019917838275432587,
					0.011126082390546799,
					0.025371277704834938,
					1
				],
				"metallicFactor":0.3499999940395355,
				"roughnessFactor":0.30000001192092896
			}
		},
		{
			"doubleSided":true,
			"name":"M_ob3",
			"pbrMetallicRoughness":{
				"baseColorFactor":[
					0.019917838275432587,
					0.011126082390546799,
					0.025371277704834938,
					1
				],
				"metallicFactor":0.3499999940395355,
				"roughnessFactor":0.30000001192092896
			}
		},
		{
			"doubleSided":true,
			"name":"M_ob4",
			"pbrMetallicRoughness":{
				"baseColorFactor":[
					0.019917838275432587,
					0.011126082390546799,
					0.025371277704834938,
					1
				],
				"metallicFactor":0.3499999940395355,
				"roughnessFactor":0.30000001192092896
			}
		}
	],
	"meshes":[
		{
			"name":"Cube",
			"primitives":[
				{
					"attributes":{
						"POSITION":0,
						"NORMAL":1,
						"TEXCOORD_0":2
					},
					"indices":3,
					"material":0
				}
			]
		},
		{
			"name":"Cube.001",
			"primitives":[
				{
					"attributes":{
						"POSITION":4,
						"NORMAL":5,
						"TEXCOORD_0":6
					},
					"indices":7,
					"material":1
				}
			]
		},
		{
			"name":"Cone",
			"primitives":[
				{
					"attributes":{
						"POSITION":8,
						"NORMAL":9,
						"TEXCOORD_0":10
					},
					"indices":11,
					"material":2
				}
			]
		},
		{
			"name":"Cone.001",
			"primitives":[
				{
					"attributes":{
						"POSITION":12,
						"NORMAL":13,
						"TEXCOORD_0":14
					},
					"indices":15,
					"material":3
				}
			]
		},
		{
			"name":"Cone.002",
			"primitives":[
				{
					"attributes":{
						"POSITION":16,
						"NORMAL":17,
						"TEXCOORD_0":18
					},
					"indices":19,
					"material":4
				}
			]
		},
		{
			"name":"Cone.003",
			"primitives":[
				{
					"attributes":{
						"POSITION":20,
						"NORMAL":21,
						"TEXCOORD_0":22
					},
					"indices":23,
					"material":5
				}
			]
		},
		{
			"name":"Cone.004",
			"primitives":[
				{
					"attributes":{
						"POSITION":24,
						"NORMAL":25,
						"TEXCOORD_0":26
					},
					"indices":27,
					"material":6
				}
			]
		}
	],
	"accessors":[
		{
			"bufferView":0,
			"componentType":5126,
			"count":24,
			"max":[
				0.40745073556900024,
				0.480300635099411,
				-0.18119654059410095
			],
			"min":[
				0.15254926681518555,
				-0.12030062079429626,
				-0.37880346179008484
			],
			"type":"VEC3"
		},
		{
			"bufferView":1,
			"componentType":5126,
			"count":24,
			"type":"VEC3"
		},
		{
			"bufferView":2,
			"componentType":5126,
			"count":24,
			"type":"VEC2"
		},
		{
			"bufferView":3,
			"componentType":5123,
			"count":36,
			"type":"SCALAR"
		},
		{
			"bufferView":4,
			"componentType":5126,
			"count":24,
			"max":[
				-0.050535544753074646,
				0.4803006947040558,
				0.34622493386268616
			],
			"min":[
				-0.349464476108551,
				-0.12030068039894104,
				0.15377506613731384
			],
			"type":"VEC3"
		},
		{
			"bufferView":5,
			"componentType":5126,
			"count":24,
			"type":"VEC3"
		},
		{
			"bufferView":6,
			"componentType":5126,
			"count":24,
			"type":"VEC2"
		},
		{
			"bufferView":7,
			"componentType":5123,
			"count":36,
			"type":"SCALAR"
		},
		{
			"bufferView":8,
			"componentType":5126,
			"count":36,
			"max":[
				0.33519551157951355,
				2.1424989700317383,
				0.4876396954059601
			],
			"min":[
				-0.4297358989715576,
				-0.15763700008392334,
				-0.3291042745113373
			],
			"type":"VEC3"
		},
		{
			"bufferView":9,
			"componentType":5126,
			"count":36,
			"type":"VEC3"
		},
		{
			"bufferView":10,
			"componentType":5126,
			"count":36,
			"type":"VEC2"
		},
		{
			"bufferView":11,
			"componentType":5123,
			"count":60,
			"type":"SCALAR"
		},
		{
			"bufferView":12,
			"componentType":5126,
			"count":36,
			"max":[
				0.7488629817962646,
				1.2684736251831055,
				0.06344607472419739
			],
			"min":[
				0.2559722065925598,
				-0.1143115982413292,
				-0.5196037888526917
			],
			"type":"VEC3"
		},
		{
			"bufferView":13,
			"componentType":5126,
			"count":36,
			"type":"VEC3"
		},
		{
			"bufferView":14,
			"componentType":5126,
			"count":36,
			"type":"VEC2"
		},
		{
			"bufferView":15,
			"componentType":5123,
			"count":60,
			"type":"SCALAR"
		},
		{
			"bufferView":16,
			"componentType":5126,
			"count":36,
			"max":[
				-0.17739112675189972,
				0.963675856590271,
				0.08929640799760818
			],
			"min":[
				-0.5798724293708801,
				-0.07928639650344849,
				-0.39554211497306824
			],
			"type":"VEC3"
		},
		{
			"bufferView":17,
			"componentType":5126,
			"count":36,
			"type":"VEC3"
		},
		{
			"bufferView":18,
			"componentType":5126,
			"count":36,
			"type":"VEC2"
		},
		{
			"bufferView":19,
			"componentType":5123,
			"count":60,
			"type":"SCALAR"
		},
		{
			"bufferView":20,
			"componentType":5126,
			"count":36,
			"max":[
				0.3509381115436554,
				0.7331658601760864,
				0.5818747878074646
			],
			"min":[
				0.011066140606999397,
				-0.04356348514556885,
				0.2340267449617386
			],
			"type":"VEC3"
		},
		{
			"bufferView":21,
			"componentType":5126,
			"count":36,
			"type":"VEC3"
		},
		{
			"bufferView":22,
			"componentType":5126,
			"count":36,
			"type":"VEC2"
		},
		{
			"bufferView":23,
			"componentType":5123,
			"count":60,
			"type":"SCALAR"
		},
		{
			"bufferView":24,
			"componentType":5126,
			"count":36,
			"max":[
				-0.14961916208267212,
				0.4892609417438507,
				0.5488017797470093
			],
			"min":[
				-0.4105006754398346,
				-0.034944646060466766,
				0.2726299464702606
			],
			"type":"VEC3"
		},
		{
			"bufferView":25,
			"componentType":5126,
			"count":36,
			"type":"VEC3"
		},
		{
			"bufferView":26,
			"componentType":5126,
			"count":36,
			"type":"VEC2"
		},
		{
			"bufferView":27,
			"componentType":5123,
			"count":60,
			"type":"SCALAR"
		}
	],
	"bufferViews":[
		{
			"buffer":0,
			"byteLength":288,
			"byteOffset":0,
			"target":34962
		},
		{
			"buffer":0,
			"byteLength":288,
			"byteOffset":288,
			"target":34962
		},
		{
			"buffer":0,
			"byteLength":192,
			"byteOffset":576,
			"target":34962
		},
		{
			"buffer":0,
			"byteLength":72,
			"byteOffset":768,
			"target":34963
		},
		{
			"buffer":0,
			"byteLength":288,
			"byteOffset":840,
			"target":34962
		},
		{
			"buffer":0,
			"byteLength":288,
			"byteOffset":1128,
			"target":34962
		},
		{
			"buffer":0,
			"byteLength":192,
			"byteOffset":1416,
			"target":34962
		},
		{
			"buffer":0,
			"byteLength":72,
			"byteOffset":1608,
			"target":34963
		},
		{
			"buffer":0,
			"byteLength":432,
			"byteOffset":1680,
			"target":34962
		},
		{
			"buffer":0,
			"byteLength":432,
			"byteOffset":2112,
			"target":34962
		},
		{
			"buffer":0,
			"byteLength":288,
			"byteOffset":2544,
			"target":34962
		},
		{
			"buffer":0,
			"byteLength":120,
			"byteOffset":2832,
			"target":34963
		},
		{
			"buffer":0,
			"byteLength":432,
			"byteOffset":2952,
			"target":34962
		},
		{
			"buffer":0,
			"byteLength":432,
			"byteOffset":3384,
			"target":34962
		},
		{
			"buffer":0,
			"byteLength":288,
			"byteOffset":3816,
			"target":34962
		},
		{
			"buffer":0,
			"byteLength":120,
			"byteOffset":4104,
			"target":34963
		},
		{
			"buffer":0,
			"byteLength":432,
			"byteOffset":4224,
			"target":34962
		},
		{
			"buffer":0,
			"byteLength":432,
			"byteOffset":4656,
			"target":34962
		},
		{
			"buffer":0,
			"byteLength":288,
			"byteOffset":5088,
			"target":34962
		},
		{
			"buffer":0,
			"byteLength":120,
			"byteOffset":5376,
			"target":34963
		},
		{
			"buffer":0,
			"byteLength":432,
			"byteOffset":5496,
			"target":34962
		},
		{
			"buffer":0,
			"byteLength":432,
			"byteOffset":5928,
			"target":34962
		},
		{
			"buffer":0,
			"byteLength":288,
			"byteOffset":6360,
			"target":34962
		},
		{
			"buffer":0,
			"byteLength":120,
			"byteOffset":6648,
			"target":34963
		},
		{
			"buffer":0,
			"byteLength":432,
			"byteOffset":6768,
			"target":34962
		},
		{
			"buffer":0,
			"byteLength":432,
			"byteOffset":7200,
			"target":34962
		},
		{
			"buffer":0,
			"byteLength":288,
			"byteOffset":7632,
			"target":34962
		},
		{
			"buffer":0,
			"byteLength":120,
			"byteOffset":7920,
			"target":34963
		}
	],
	"buffers":[
		{
			"byteLength":8040,
			"uri":"hd_obsidian.bin"
		}
	]
}
