{
	"asset":{
		"generator":"Khronos glTF Blender I/O v5.2.40",
		"version":"2.0"
	},
	"scene":0,
	"scenes":[
		{
			"name":"Scene",
			"nodes":[
				0,
				1,
				2,
				3,
				4,
				5,
				6,
				7,
				8,
				9,
				10,
				11,
				12,
				13,
				14,
				15,
				16,
				17,
				18,
				19,
				20,
				21,
				22,
				23,
				24,
				25,
				26,
				27,
				28,
				29,
				30,
				31,
				32,
				33,
				34,
				35,
				36,
				37,
				38,
				39,
				40,
				41,
				42
			]
		}
	],
	"nodes":[
		{
			"mesh":0,
			"name":"bed"
		},
		{
			"mesh":1,
			"name":"edge0"
		},
		{
			"mesh":2,
			"name":"edge1"
		},
		{
			"mesh":3,
			"name":"flag0_0"
		},
		{
			"mesh":4,
			"name":"flag0_1"
		},
		{
			"mesh":5,
			"name":"flag0_2"
		},
		{
			"mesh":6,
			"name":"flag0_3"
		},
		{
			"mesh":7,
			"name":"flag1_0"
		},
		{
			"mesh":8,
			"name":"flag1_1"
		},
		{
			"mesh":9,
			"name":"flag1_2"
		},
		{
			"mesh":10,
			"name":"flag1_3"
		},
		{
			"mesh":11,
			"name":"flag2_0"
		},
		{
			"mesh":12,
			"name":"flag2_1"
		},
		{
			"mesh":13,
			"name":"flag2_2"
		},
		{
			"mesh":14,
			"name":"flag2_3"
		},
		{
			"mesh":15,
			"name":"flag3_0"
		},
		{
			"mesh":16,
			"name":"flag3_1"
		},
		{
			"mesh":17,
			"name":"flag3_2"
		},
		{
			"mesh":18,
			"name":"flag3_3"
		},
		{
			"mesh":19,
			"name":"flag4_0"
		},
		{
			"mesh":20,
			"name":"flag4_1"
		},
		{
			"mesh":21,
			"name":"flag4_2"
		},
		{
			"mesh":22,
			"name":"flag4_3"
		},
		{
			"mesh":23,
			"name":"flag5_0"
		},
		{
			"mesh":24,
			"name":"flag5_1"
		},
		{
			"mesh":25,
			"name":"flag5_2"
		},
		{
			"mesh":26,
			"name":"flag5_3"
		},
		{
			"mesh":27,
			"name":"flag6_0"
		},
		{
			"mesh":28,
			"name":"flag6_1"
		},
		{
			"mesh":29,
			"name":"flag6_2"
		},
		{
			"mesh":30,
			"name":"flag6_3"
		},
		{
			"mesh":31,
			"name":"flag7_0"
		},
		{
			"mesh":32,
			"name":"flag7_1"
		},
		{
			"mesh":33,
			"name":"flag7_2"
		},
		{
			"mesh":34,
			"name":"flag7_3"
		},
		{
			"mesh":35,
			"name":"flag8_0"
		},
		{
			"mesh":36,
			"name":"flag8_1"
		},
		{
			"mesh":37,
			"name":"flag8_2"
		},
		{
			"mesh":38,
			"name":"flag8_3"
		},
		{
			"mesh":39,
			"name":"flag9_0"
		},
		{
			"mesh":40,
			"name":"flag9_1"
		},
		{
			"mesh":41,
			"name":"flag9_2"
		},
		{
			"mesh":42,
			"name":"flag9_3"
		}
	],
	"materials":[
		{
			"doubleSided":true,
			"name":"M_bed",
			"pbrMetallicRoughness":{
				"baseColorFactor":[
					0.28012436628341675,
					0.20109573006629944,
					0.11129941791296005,
					1
				],
				"metallicFactor":0,
				"roughnessFactor":0.949999988079071
			}
		},
		{
			"doubleSided":true,
			"name":"M_be0",
			"pbrMetallicRoughness":{
				"baseColorFactor":[
					0.4819522500038147,
					0.3586539030075073,
					0.18698850274085999,
					1
				],
				"metallicFactor":0,
				"roughnessFactor":0.8500000238418579
			}
		},
		{
			"doubleSided":true,
			"name":"M_be1",
			"pbrMetallicRoughness":{
				"baseColorFactor":[
					0.4819522500038147,
					0.3586539030075073,
					0.18698850274085999,
					1
				],
				"metallicFactor":0,
				"roughnessFactor":0.8500000238418579
			}
		},
		{
			"doubleSided":true,
			"name":"M_f00",
			"pbrMetallicRoughness":{
				"baseColorFactor":[
					0.7226724624633789,
					0.5924380421638489,
					0.39929330348968506,
					1
				],
				"metallicFactor":0,
				"roughnessFactor":0.8500000238418579
			}
		},
		{
			"doubleSided":true,
			"name":"M_f01",
			"pbrMetallicRoughness":{
				"baseColorFactor":[
					0.4819522500038147,
					0.3586539030075073,
					0.18698850274085999,
					1
				],
				"metallicFactor":0,
				"roughnessFactor":0.8500000238418579
			}
		},
		{
			"doubleSided":true,
			"name":"M_f02",
			"pbrMetallicRoughness":{
				"baseColorFactor":[
					0.7226724624633789,
					0.5924380421638489,
					0.39929330348968506,
					1
				],
				"metallicFactor":0,
				"roughnessFactor":0.8500000238418579
			}
		},
		{
			"doubleSided":true,
			"name":"M_f03",
			"pbrMetallicRoughness":{
				"baseColorFactor":[
					0.7226724624633789,
					0.5924380421638489,
					0.39929330348968506,
					1
				],
				"metallicFactor":0,
				"roughnessFactor":0.8500000238418579
			}
		},
		{
			"doubleSided":true,
			"name":"M_f10",
			"pbrMetallicRoughness":{
				"baseColorFactor":[
					0.7226724624633789,
					0.5924380421638489,
					0.39929330348968506,
					1
				],
				"metallicFactor":0,
				"roughnessFactor":0.8500000238418579
			}
		},
		{
			"doubleSided":true,
			"name":"M_f11",
			"pbrMetallicRoughness":{
				"baseColorFactor":[
					0.7226724624633789,
					0.5924380421638489,
					0.39929330348968506,
					1
				],
				"metallicFactor":0,
				"roughnessFactor":0.8500000238418579
			}
		},
		{
			"doubleSided":true,
			"name":"M_f12",
			"pbrMetallicRoughness":{
				"baseColorFactor":[
					0.8751375675201416,
					0.6186857223510742,
					0.2590273320674896,
					1
				],
				"metallicFactor":0,
				"roughnessFactor":0.8500000238418579
			}
		},
		{
			"doubleSided":true,
			"name":"M_f13",
			"pbrMetallicRoughness":{
				"baseColorFactor":[
					0.4819522500038147,
					0.3586539030075073,
					0.18698850274085999,
					1
				],
				"metallicFactor":0,
				"roughnessFactor":0.8500000238418579
			}
		},
		{
			"doubleSided":true,
			"name":"M_f20",
			"pbrMetallicRoughness":{
				"baseColorFactor":[
					0.4819522500038147,
					0.3586539030075073,
					0.18698850274085999,
					1
				],
				"metallicFactor":0,
				"roughnessFactor":0.8500000238418579
			}
		},
		{
			"doubleSided":true,
			"name":"M_f21",
			"pbrMetallicRoughness":{
				"baseColorFactor":[
					0.7226724624633789,
					0.5924380421638489,
					0.39929330348968506,
					1
				],
				"metallicFactor":0,
				"roughnessFactor":0.8500000238418579
			}
		},
		{
			"doubleSided":true,
			"name":"M_f22",
			"pbrMetallicRoughness":{
				"baseColorFactor":[
					0.8751375675201416,
					0.6186857223510742,
					0.2590273320674896,
					1
				],
				"metallicFactor":0,
				"roughnessFactor":0.8500000238418579
			}
		},
		{
			"doubleSided":true,
			"name":"M_f23",
			"pbrMetallicRoughness":{
				"baseColorFactor":[
					0.7226724624633789,
					0.5924380421638489,
					0.39929330348968506,
					1
				],
				"metallicFactor":0,
				"roughnessFactor":0.8500000238418579
			}
		},
		{
			"doubleSided":true,
			"name":"M_f30",
			"pbrMetallicRoughness":{
				"baseColorFactor":[
					0.4819522500038147,
					0.3586539030075073,
					0.18698850274085999,
					1
				],
				"metallicFactor":0,
				"roughnessFactor":0.8500000238418579
			}
		},
		{
			"doubleSided":true,
			"name":"M_f31",
			"pbrMetallicRoughness":{
				"baseColorFactor":[
					0.7226724624633789,
					0.5924380421638489,
					0.39929330348968506,
					1
				],
				"metallicFactor":0,
				"roughnessFactor":0.8500000238418579
			}
		},
		{
			"doubleSided":true,
			"name":"M_f32",
			"pbrMetallicRoughness":{
				"baseColorFactor":[
					0.7226724624633789,
					0.5924380421638489,
					0.39929330348968506,
					1
				],
				"metallicFactor":0,
				"roughnessFactor":0.8500000238418579
			}
		},
		{
			"doubleSided":true,
			"name":"M_f33",
			"pbrMetallicRoughness":{
				"baseColorFactor":[
					0.7226724624633789,
					0.5924380421638489,
					0.39929330348968506,
					1
				],
				"metallicFactor":0,
				"roughnessFactor":0.8500000238418579
			}
		},
		{
			"doubleSided":true,
			"name":"M_f40",
			"pbrMetallicRoughness":{
				"baseColorFactor":[
					0.7226724624633789,
					0.5924380421638489,
					0.39929330348968506,
					1
				],
				"metallicFactor":0,
				"roughnessFactor":0.8500000238418579
			}
		},
		{
			"doubleSided":true,
			"name":"M_f41",
			"pbrMetallicRoughness":{
				"baseColorFactor":[
					0.4819522500038147,
					0.3586539030075073,
					0.18698850274085999,
					1
				],
				"metallicFactor":0,
				"roughnessFactor":0.8500000238418579
			}
		},
		{
			"doubleSided":true,
			"name":"M_f42",
			"pbrMetallicRoughness":{
				"baseColorFactor":[
					0.7226724624633789,
					0.5924380421638489,
					0.39929330348968506,
					1
				],
				"metallicFactor":0,
				"roughnessFactor":0.8500000238418579
			}
		},
		{
			"doubleSided":true,
			"name":"M_f43",
			"pbrMetallicRoughness":{
				"baseColorFactor":[
					0.7226724624633789,
					0.5924380421638489,
					0.39929330348968506,
					1
				],
				"metallicFactor":0,
				"roughnessFactor":0.8500000238418579
			}
		},
		{
			"doubleSided":true,
			"name":"M_f50",
			"pbrMetallicRoughness":{
				"baseColorFactor":[
					0.8751375675201416,
					0.6186857223510742,
					0.2590273320674896,
					1
				],
				"metallicFactor":0,
				"roughnessFactor":0.8500000238418579
			}
		},
		{
			"doubleSided":true,
			"name":"M_f51",
			"pbrMetallicRoughness":{
				"baseColorFactor":[
					0.8751375675201416,
					0.6186857223510742,
					0.2590273320674896,
					1
				],
				"metallicFactor":0,
				"roughnessFactor":0.8500000238418579
			}
		},
		{
			"doubleSided":true,
			"name":"M_f52",
			"pbrMetallicRoughness":{
				"baseColorFactor":[
					0.7226724624633789,
					0.5924380421638489,
					0.39929330348968506,
					1
				],
				"metallicFactor":0,
				"roughnessFactor":0.8500000238418579
			}
		},
		{
			"doubleSided":true,
			"name":"M_f53",
			"pbrMetallicRoughness":{
				"baseColorFactor":[
					0.4819522500038147,
					0.3586539030075073,
					0.18698850274085999,
					1
				],
				"metallicFactor":0,
				"roughnessFactor":0.8500000238418579
			}
		},
		{
			"doubleSided":true,
			"name":"M_f60",
			"pbrMetallicRoughness":{
				"baseColorFactor":[
					0.7226724624633789,
					0.5924380421638489,
					0.39929330348968506,
					1
				],
				"metallicFactor":0,
				"roughnessFactor":0.8500000238418579
			}
		},
		{
			"doubleSided":true,
			"name":"M_f61",
			"pbrMetallicRoughness":{
				"baseColorFactor":[
					0.4819522500038147,
					0.3586539030075073,
					0.18698850274085999,
					1
				],
				"metallicFactor":0,
				"roughnessFactor":0.8500000238418579
			}
		},
		{
			"doubleSided":true,
			"name":"M_f62",
			"pbrMetallicRoughness":{
				"baseColorFactor":[
					0.4819522500038147,
					0.3586539030075073,
					0.18698850274085999,
					1
				],
				"metallicFactor":0,
				"roughnessFactor":0.8500000238418579
			}
		},
		{
			"doubleSided":true,
			"name":"M_f63",
			"pbrMetallicRoughness":{
				"baseColorFactor":[
					0.4819522500038147,
					0.3586539030075073,
					0.18698850274085999,
					1
				],
				"metallicFactor":0,
				"roughnessFactor":0.8500000238418579
			}
		},
		{
			"doubleSided":true,
			"name":"M_f70",
			"pbrMetallicRoughness":{
				"baseColorFactor":[
					0.4819522500038147,
					0.3586539030075073,
					0.18698850274085999,
					1
				],
				"metallicFactor":0,
				"roughnessFactor":0.8500000238418579
			}
		},
		{
			"doubleSided":true,
			"name":"M_f71",
			"pbrMetallicRoughness":{
				"baseColorFactor":[
					0.7226724624633789,
					0.5924380421638489,
					0.39929330348968506,
					1
				],
				"metallicFactor":0,
				"roughnessFactor":0.8500000238418579
			}
		},
		{
			"doubleSided":true,
			"name":"M_f72",
			"pbrMetallicRoughness":{
				"baseColorFactor":[
					0.7226724624633789,
					0.5924380421638489,
					0.39929330348968506,
					1
				],
				"metallicFactor":0,
				"roughnessFactor":0.8500000238418579
			}
		},
		{
			"doubleSided":true,
			"name":"M_f73",
			"pbrMetallicRoughness":{
				"baseColorFactor":[
					0.8751375675201416,
					0.6186857223510742,
					0.2590273320674896,
					1
				],
				"metallicFactor":0,
				"roughnessFactor":0.8500000238418579
			}
		},
		{
			"doubleSided":true,
			"name":"M_f80",
			"pbrMetallicRoughness":{
				"baseColorFactor":[
					0.4819522500038147,
					0.3586539030075073,
					0.18698850274085999,
					1
				],
				"metallicFactor":0,
				"roughnessFactor":0.8500000238418579
			}
		},
		{
			"doubleSided":true,
			"name":"M_f81",
			"pbrMetallicRoughness":{
				"baseColorFactor":[
					0.7226724624633789,
					0.5924380421638489,
					0.39929330348968506,
					1
				],
				"metallicFactor":0,
				"roughnessFactor":0.8500000238418579
			}
		},
		{
			"doubleSided":true,
			"name":"M_f82",
			"pbrMetallicRoughness":{
				"baseColorFactor":[
					0.7226724624633789,
					0.5924380421638489,
					0.39929330348968506,
					1
				],
				"metallicFactor":0,
				"roughnessFactor":0.8500000238418579
			}
		},
		{
			"doubleSided":true,
			"name":"M_f83",
			"pbrMetallicRoughness":{
				"baseColorFactor":[
					0.7226724624633789,
					0.5924380421638489,
					0.39929330348968506,
					1
				],
				"metallicFactor":0,
				"roughnessFactor":0.8500000238418579
			}
		},
		{
			"doubleSided":true,
			"name":"M_f90",
			"pbrMetallicRoughness":{
				"baseColorFactor":[
					0.4819522500038147,
					0.3586539030075073,
					0.18698850274085999,
					1
				],
				"metallicFactor":0,
				"roughnessFactor":0.8500000238418579
			}
		},
		{
			"doubleSided":true,
			"name":"M_f91",
			"pbrMetallicRoughness":{
				"baseColorFactor":[
					0.4819522500038147,
					0.3586539030075073,
					0.18698850274085999,
					1
				],
				"metallicFactor":0,
				"roughnessFactor":0.8500000238418579
			}
		},
		{
			"doubleSided":true,
			"name":"M_f92",
			"pbrMetallicRoughness":{
				"baseColorFactor":[
					0.4819522500038147,
					0.3586539030075073,
					0.18698850274085999,
					1
				],
				"metallicFactor":0,
				"roughnessFactor":0.8500000238418579
			}
		},
		{
			"doubleSided":true,
			"name":"M_f93",
			"pbrMetallicRoughness":{
				"baseColorFactor":[
					0.4819522500038147,
					0.3586539030075073,
					0.18698850274085999,
					1
				],
				"metallicFactor":0,
				"roughnessFactor":0.8500000238418579
			}
		}
	],
	"meshes":[
		{
			"name":"Cube",
			"primitives":[
				{
					"attributes":{
						"POSITION":0,
						"NORMAL":1,
						"TEXCOORD_0":2
					},
					"indices":3,
					"material":0
				}
			]
		},
		{
			"name":"Cube.041",
			"primitives":[
				{
					"attributes":{
						"POSITION":4,
						"NORMAL":5,
						"TEXCOORD_0":6
					},
					"indices":7,
					"material":1
				}
			]
		},
		{
			"name":"Cube.042",
			"primitives":[
				{
					"attributes":{
						"POSITION":8,
						"NORMAL":9,
						"TEXCOORD_0":10
					},
					"indices":7,
					"material":2
				}
			]
		},
		{
			"name":"Cube.001",
			"primitives":[
				{
					"attributes":{
						"POSITION":11,
						"NORMAL":12,
						"TEXCOORD_0":13
					},
					"indices":3,
					"material":3
				}
			]
		},
		{
			"name":"Cube.002",
			"primitives":[
				{
					"attributes":{
						"POSITION":14,
						"NORMAL":15,
						"TEXCOORD_0":16
					},
					"indices":17,
					"material":4
				}
			]
		},
		{
			"name":"Cube.003",
			"primitives":[
				{
					"attributes":{
						"POSITION":18,
						"NORMAL":19,
						"TEXCOORD_0":20
					},
					"indices":17,
					"material":5
				}
			]
		},
		{
			"name":"Cube.004",
			"primitives":[
				{
					"attributes":{
						"POSITION":21,
						"NORMAL":22,
						"TEXCOORD_0":23
					},
					"indices":17,
					"material":6
				}
			]
		},
		{
			"name":"Cube.005",
			"primitives":[
				{
					"attributes":{
						"POSITION":24,
						"NORMAL":25,
						"TEXCOORD_0":26
					},
					"indices":17,
					"material":7
				}
			]
		},
		{
			"name":"Cube.006",
			"primitives":[
				{
					"attributes":{
						"POSITION":27,
						"NORMAL":28,
						"TEXCOORD_0":29
					},
					"indices":3,
					"material":8
				}
			]
		},
		{
			"name":"Cube.007",
			"primitives":[
				{
					"attributes":{
						"POSITION":30,
						"NORMAL":31,
						"TEXCOORD_0":32
					},
					"indices":3,
					"material":9
				}
			]
		},
		{
			"name":"Cube.008",
			"primitives":[
				{
					"attributes":{
						"POSITION":33,
						"NORMAL":34,
						"TEXCOORD_0":35
					},
					"indices":17,
					"material":10
				}
			]
		},
		{
			"name":"Cube.009",
			"primitives":[
				{
					"attributes":{
						"POSITION":36,
						"NORMAL":37,
						"TEXCOORD_0":38
					},
					"indices":17,
					"material":11
				}
			]
		},
		{
			"name":"Cube.010",
			"primitives":[
				{
					"attributes":{
						"POSITION":39,
						"NORMAL":40,
						"TEXCOORD_0":41
					},
					"indices":17,
					"material":12
				}
			]
		},
		{
			"name":"Cube.011",
			"primitives":[
				{
					"attributes":{
						"POSITION":42,
						"NORMAL":43,
						"TEXCOORD_0":44
					},
					"indices":3,
					"material":13
				}
			]
		},
		{
			"name":"Cube.012",
			"primitives":[
				{
					"attributes":{
						"POSITION":45,
						"NORMAL":46,
						"TEXCOORD_0":47
					},
					"indices":17,
					"material":14
				}
			]
		},
		{
			"name":"Cube.013",
			"primitives":[
				{
					"attributes":{
						"POSITION":48,
						"NORMAL":49,
						"TEXCOORD_0":50
					},
					"indices":51,
					"material":15
				}
			]
		},
		{
			"name":"Cube.014",
			"primitives":[
				{
					"attributes":{
						"POSITION":52,
						"NORMAL":53,
						"TEXCOORD_0":54
					},
					"indices":55,
					"material":16
				}
			]
		},
		{
			"name":"Cube.015",
			"primitives":[
				{
					"attributes":{
						"POSITION":56,
						"NORMAL":57,
						"TEXCOORD_0":58
					},
					"indices":3,
					"material":17
				}
			]
		},
		{
			"name":"Cube.016",
			"primitives":[
				{
					"attributes":{
						"POSITION":59,
						"NORMAL":60,
						"TEXCOORD_0":61
					},
					"indices":62,
					"material":18
				}
			]
		},
		{
			"name":"Cube.017",
			"primitives":[
				{
					"attributes":{
						"POSITION":63,
						"NORMAL":64,
						"TEXCOORD_0":65
					},
					"indices":51,
					"material":19
				}
			]
		},
		{
			"name":"Cube.018",
			"primitives":[
				{
					"attributes":{
						"POSITION":66,
						"NORMAL":67,
						"TEXCOORD_0":68
					},
					"indices":3,
					"material":20
				}
			]
		},
		{
			"name":"Cube.019",
			"primitives":[
				{
					"attributes":{
						"POSITION":69,
						"NORMAL":70,
						"TEXCOORD_0":71
					},
					"indices":17,
					"material":21
				}
			]
		},
		{
			"name":"Cube.020",
			"primitives":[
				{
					"attributes":{
						"POSITION":72,
						"NORMAL":73,
						"TEXCOORD_0":74
					},
					"indices":17,
					"material":22
				}
			]
		},
		{
			"name":"Cube.021",
			"primitives":[
				{
					"attributes":{
						"POSITION":75,
						"NORMAL":76,
						"TEXCOORD_0":77
					},
					"indices":3,
					"material":23
				}
			]
		},
		{
			"name":"Cube.022",
			"primitives":[
				{
					"attributes":{
						"POSITION":78,
						"NORMAL":79,
						"TEXCOORD_0":80
					},
					"indices":81,
					"material":24
				}
			]
		},
		{
			"name":"Cube.023",
			"primitives":[
				{
					"attributes":{
						"POSITION":82,
						"NORMAL":83,
						"TEXCOORD_0":84
					},
					"indices":17,
					"material":25
				}
			]
		},
		{
			"name":"Cube.024",
			"primitives":[
				{
					"attributes":{
						"POSITION":85,
						"NORMAL":86,
						"TEXCOORD_0":87
					},
					"indices":17,
					"material":26
				}
			]
		},
		{
			"name":"Cube.025",
			"primitives":[
				{
					"attributes":{
						"POSITION":88,
						"NORMAL":89,
						"TEXCOORD_0":90
					},
					"indices":17,
					"material":27
				}
			]
		},
		{
			"name":"Cube.026",
			"primitives":[
				{
					"attributes":{
						"POSITION":91,
						"NORMAL":92,
						"TEXCOORD_0":93
					},
					"indices":94,
					"material":28
				}
			]
		},
		{
			"name":"Cube.027",
			"primitives":[
				{
					"attributes":{
						"POSITION":95,
						"NORMAL":96,
						"TEXCOORD_0":97
					},
					"indices":51,
					"material":29
				}
			]
		},
		{
			"name":"Cube.028",
			"primitives":[
				{
					"attributes":{
						"POSITION":98,
						"NORMAL":99,
						"TEXCOORD_0":100
					},
					"indices":51,
					"material":30
				}
			]
		},
		{
			"name":"Cube.029",
			"primitives":[
				{
					"attributes":{
						"POSITION":101,
						"NORMAL":102,
						"TEXCOORD_0":103
					},
					"indices":17,
					"material":31
				}
			]
		},
		{
			"name":"Cube.030",
			"primitives":[
				{
					"attributes":{
						"POSITION":104,
						"NORMAL":105,
						"TEXCOORD_0":106
					},
					"indices":3,
					"material":32
				}
			]
		},
		{
			"name":"Cube.031",
			"primitives":[
				{
					"attributes":{
						"POSITION":107,
						"NORMAL":108,
						"TEXCOORD_0":109
					},
					"indices":3,
					"material":33
				}
			]
		},
		{
			"name":"Cube.032",
			"primitives":[
				{
					"attributes":{
						"POSITION":110,
						"NORMAL":111,
						"TEXCOORD_0":112
					},
					"indices":17,
					"material":34
				}
			]
		},
		{
			"name":"Cube.033",
			"primitives":[
				{
					"attributes":{
						"POSITION":113,
						"NORMAL":114,
						"TEXCOORD_0":115
					},
					"indices":3,
					"material":35
				}
			]
		},
		{
			"name":"Cube.034",
			"primitives":[
				{
					"attributes":{
						"POSITION":116,
						"NORMAL":117,
						"TEXCOORD_0":118
					},
					"indices":3,
					"material":36
				}
			]
		},
		{
			"name":"Cube.035",
			"primitives":[
				{
					"attributes":{
						"POSITION":119,
						"NORMAL":120,
						"TEXCOORD_0":121
					},
					"indices":17,
					"material":37
				}
			]
		},
		{
			"name":"Cube.036",
			"primitives":[
				{
					"attributes":{
						"POSITION":122,
						"NORMAL":123,
						"TEXCOORD_0":124
					},
					"indices":17,
					"material":38
				}
			]
		},
		{
			"name":"Cube.037",
			"primitives":[
				{
					"attributes":{
						"POSITION":125,
						"NORMAL":126,
						"TEXCOORD_0":127
					},
					"indices":3,
					"material":39
				}
			]
		},
		{
			"name":"Cube.038",
			"primitives":[
				{
					"attributes":{
						"POSITION":128,
						"NORMAL":129,
						"TEXCOORD_0":130
					},
					"indices":3,
					"material":40
				}
			]
		},
		{
			"name":"Cube.039",
			"primitives":[
				{
					"attributes":{
						"POSITION":131,
						"NORMAL":132,
						"TEXCOORD_0":133
					},
					"indices":17,
					"material":41
				}
			]
		},
		{
			"name":"Cube.040",
			"primitives":[
				{
					"attributes":{
						"POSITION":134,
						"NORMAL":135,
						"TEXCOORD_0":136
					},
					"indices":3,
					"material":42
				}
			]
		}
	],
	"accessors":[
		{
			"bufferView":0,
			"componentType":5126,
			"count":96,
			"max":[
				4.699999809265137,
				-0.009999997913837433,
				12
			],
			"min":[
				-4.699999809265137,
				-0.21000000834465027,
				-12
			],
			"type":"VEC3"
		},
		{
			"bufferView":1,
			"componentType":5126,
			"count":96,
			"type":"VEC3"
		},
		{
			"bufferView":2,
			"componentType":5126,
			"count":96,
			"type":"VEC2"
		},
		{
			"bufferView":3,
			"componentType":5123,
			"count":132,
			"type":"SCALAR"
		},
		{
			"bufferView":4,
			"componentType":5126,
			"count":24,
			"max":[
				-4.5,
				0.09000000357627869,
				12
			],
			"min":[
				-4.699999809265137,
				-0.05000000074505806,
				-12
			],
			"type":"VEC3"
		},
		{
			"bufferView":5,
			"componentType":5126,
			"count":24,
			"type":"VEC3"
		},
		{
			"bufferView":6,
			"componentType":5126,
			"count":24,
			"type":"VEC2"
		},
		{
			"bufferView":7,
			"componentType":5123,
			"count":36,
			"type":"SCALAR"
		},
		{
			"bufferView":8,
			"componentType":5126,
			"count":24,
			"max":[
				4.699999809265137,
				0.09000000357627869,
				12
			],
			"min":[
				4.5,
				-0.05000000074505806,
				-12
			],
			"type":"VEC3"
		},
		{
			"bufferView":9,
			"componentType":5126,
			"count":24,
			"type":"VEC3"
		},
		{
			"bufferView":10,
			"componentType":5126,
			"count":24,
			"type":"VEC2"
		},
		{
			"bufferView":11,
			"componentType":5126,
			"count":96,
			"max":[
				-2.3434648513793945,
				0.05954232066869736,
				11.9171724319458
			],
			"min":[
				-4.531954765319824,
				-0.010457677766680717,
				9.624798774719238
			],
			"type":"VEC3"
		},
		{
			"bufferView":12,
			"componentType":5126,
			"count":96,
			"type":"VEC3"
		},
		{
			"bufferView":13,
			"componentType":5126,
			"count":96,
			"type":"VEC2"
		},
		{
			"bufferView":14,
			"componentType":5126,
			"count":96,
			"max":[
				-0.11077988147735596,
				0.05298863351345062,
				11.837275505065918
			],
			"min":[
				-2.121150493621826,
				-0.01701136864721775,
				9.696494102478027
			],
			"type":"VEC3"
		},
		{
			"bufferView":15,
			"componentType":5126,
			"count":96,
			"type":"VEC3"
		},
		{
			"bufferView":16,
			"componentType":5126,
			"count":96,
			"type":"VEC2"
		},
		{
			"bufferView":17,
			"componentType":5123,
			"count":132,
			"type":"SCALAR"
		},
		{
			"bufferView":18,
			"componentType":5126,
			"count":96,
			"max":[
				2.204300880432129,
				0.056525129824876785,
				11.882116317749023
			],
			"min":[
				0.08951270580291748,
				-0.013474870473146439,
				9.778705596923828
			],
			"type":"VEC3"
		},
		{
			"bufferView":19,
			"componentType":5126,
			"count":96,
			"type":"VEC3"
		},
		{
			"bufferView":20,
			"componentType":5126,
			"count":96,
			"type":"VEC2"
		},
		{
			"bufferView":21,
			"componentType":5126,
			"count":96,
			"max":[
				4.479759216308594,
				0.060409508645534515,
				11.987201690673828
			],
			"min":[
				2.4018714427948,
				-0.009590491652488708,
				9.68910026550293
			],
			"type":"VEC3"
		},
		{
			"bufferView":22,
			"componentType":5126,
			"count":96,
			"type":"VEC3"
		},
		{
			"bufferView":23,
			"componentType":5126,
			"count":96,
			"type":"VEC2"
		},
		{
			"bufferView":24,
			"componentType":5126,
			"count":96,
			"max":[
				-2.485945701599121,
				0.051520392298698425,
				9.549187660217285
			],
			"min":[
				-4.486300945281982,
				-0.018479609861969948,
				7.222622871398926
			],
			"type":"VEC3"
		},
		{
			"bufferView":25,
			"componentType":5126,
			"count":96,
			"type":"VEC3"
		},
		{
			"bufferView":26,
			"componentType":5126,
			"count":96,
			"type":"VEC2"
		},
		{
			"bufferView":27,
			"componentType":5126,
			"count":96,
			"max":[
				-0.10599219799041748,
				0.05199027806520462,
				9.435559272766113
			],
			"min":[
				-2.139288902282715,
				-0.018009722232818604,
				7.254010200500488
			],
			"type":"VEC3"
		},
		{
			"bufferView":28,
			"componentType":5126,
			"count":96,
			"type":"VEC3"
		},
		{
			"bufferView":29,
			"componentType":5126,
			"count":96,
			"type":"VEC2"
		},
		{
			"bufferView":30,
			"componentType":5126,
			"count":96,
			"max":[
				2.2480199337005615,
				0.052457354962825775,
				9.518444061279297
			],
			"min":[
				0.05982470512390137,
				-0.01754264533519745,
				7.238876819610596
			],
			"type":"VEC3"
		},
		{
			"bufferView":31,
			"componentType":5126,
			"count":96,
			"type":"VEC3"
		},
		{
			"bufferView":32,
			"componentType":5126,
			"count":96,
			"type":"VEC2"
		},
		{
			"bufferView":33,
			"componentType":5126,
			"count":96,
			"max":[
				4.444449424743652,
				0.05199147015810013,
				9.475125312805176
			],
			"min":[
				2.415308713912964,
				-0.018008528277277946,
				7.358189582824707
			],
			"type":"VEC3"
		},
		{
			"bufferView":34,
			"componentType":5126,
			"count":96,
			"type":"VEC3"
		},
		{
			"bufferView":35,
			"componentType":5126,
			"count":96,
			"type":"VEC2"
		},
		{
			"bufferView":36,
			"componentType":5126,
			"count":96,
			"max":[
				-2.347492218017578,
				0.05715174973011017,
				7.048245906829834
			],
			"min":[
				-4.489027500152588,
				-0.012848252430558205,
				4.931080341339111
			],
			"type":"VEC3"
		},
		{
			"bufferView":37,
			"componentType":5126,
			"count":96,
			"type":"VEC3"
		},
		{
			"bufferView":38,
			"componentType":5126,
			"count":96,
			"type":"VEC2"
		},
		{
			"bufferView":39,
			"componentType":5126,
			"count":96,
			"max":[
				-0.07002639770507812,
				0.053789518773555756,
				7.143918037414551
			],
			"min":[
				-2.1662700176239014,
				-0.016210483387112617,
				4.860703468322754
			],
			"type":"VEC3"
		},
		{
			"bufferView":40,
			"componentType":5126,
			"count":96,
			"type":"VEC3"
		},
		{
			"bufferView":41,
			"componentType":5126,
			"count":96,
			"type":"VEC2"
		},
		{
			"bufferView":42,
			"componentType":5126,
			"count":96,
			"max":[
				2.1613826751708984,
				0.06139064580202103,
				7.049876689910889
			],
			"min":[
				0.08985376358032227,
				-0.008609354496002197,
				4.844760417938232
			],
			"type":"VEC3"
		},
		{
			"bufferView":43,
			"componentType":5126,
			"count":96,
			"type":"VEC3"
		},
		{
			"bufferView":44,
			"componentType":5126,
			"count":96,
			"type":"VEC2"
		},
		{
			"bufferView":45,
			"componentType":5126,
			"count":96,
			"max":[
				4.441291332244873,
				0.05010893940925598,
				7.0640974044799805
			],
			"min":[
				2.43194580078125,
				-0.019891060888767242,
				4.917057991027832
			],
			"type":"VEC3"
		},
		{
			"bufferView":46,
			"componentType":5126,
			"count":96,
			"type":"VEC3"
		},
		{
			"bufferView":47,
			"componentType":5126,
			"count":96,
			"type":"VEC2"
		},
		{
			"bufferView":48,
			"componentType":5126,
			"count":96,
			"max":[
				-2.4418773651123047,
				0.059833917766809464,
				4.74709415435791
			],
			"min":[
				-4.534318447113037,
				-0.01016608253121376,
				2.5138449668884277
			],
			"type":"VEC3"
		},
		{
			"bufferView":49,
			"componentType":5126,
			"count":96,
			"type":"VEC3"
		},
		{
			"bufferView":50,
			"componentType":5126,
			"count":96,
			"type":"VEC2"
		},
		{
			"bufferView":51,
			"componentType":5123,
			"count":132,
			"type":"SCALAR"
		},
		{
			"bufferView":52,
			"componentType":5126,
			"count":96,
			"max":[
				-0.0427170991897583,
				0.058980777859687805,
				4.808794021606445
			],
			"min":[
				-2.202162265777588,
				-0.011019224300980568,
				2.4852733612060547
			],
			"type":"VEC3"
		},
		{
			"bufferView":53,
			"componentType":5126,
			"count":96,
			"type":"VEC3"
		},
		{
			"bufferView":54,
			"componentType":5126,
			"count":96,
			"type":"VEC2"
		},
		{
			"bufferView":55,
			"componentType":5123,
			"count":132,
			"type":"SCALAR"
		},
		{
			"bufferView":56,
			"componentType":5126,
			"count":96,
			"max":[
				2.1945858001708984,
				0.052501801401376724,
				4.639739990234375
			],
			"min":[
				0.09200966358184814,
				-0.0174981988966465,
				2.445457696914673
			],
			"type":"VEC3"
		},
		{
			"bufferView":57,
			"componentType":5126,
			"count":96,
			"type":"VEC3"
		},
		{
			"bufferView":58,
			"componentType":5126,
			"count":96,
			"type":"VEC2"
		},
		{
			"bufferView":59,
			"componentType":5126,
			"count":96,
			"max":[
				4.465240955352783,
				0.05654172599315643,
				4.640280246734619
			],
			"min":[
				2.4027509689331055,
				-0.013458272442221642,
				2.4579124450683594
			],
			"type":"VEC3"
		},
		{
			"bufferView":60,
			"componentType":5126,
			"count":96,
			"type":"VEC3"
		},
		{
			"bufferView":61,
			"componentType":5126,
			"count":96,
			"type":"VEC2"
		},
		{
			"bufferView":62,
			"componentType":5123,
			"count":132,
			"type":"SCALAR"
		},
		{
			"bufferView":63,
			"componentType":5126,
			"count":96,
			"max":[
				-2.3891921043395996,
				0.05865362286567688,
				2.2976765632629395
			],
			"min":[
				-4.451053142547607,
				-0.011346379294991493,
				0.07189011573791504
			],
			"type":"VEC3"
		},
		{
			"bufferView":64,
			"componentType":5126,
			"count":96,
			"type":"VEC3"
		},
		{
			"bufferView":65,
			"componentType":5126,
			"count":96,
			"type":"VEC2"
		},
		{
			"bufferView":66,
			"componentType":5126,
			"count":96,
			"max":[
				-0.18872153759002686,
				0.06108327955007553,
				2.3341946601867676
			],
			"min":[
				-2.19508695602417,
				-0.008916718885302544,
				0.041649460792541504
			],
			"type":"VEC3"
		},
		{
			"bufferView":67,
			"componentType":5126,
			"count":96,
			"type":"VEC3"
		},
		{
			"bufferView":68,
			"componentType":5126,
			"count":96,
			"type":"VEC2"
		},
		{
			"bufferView":69,
			"componentType":5126,
			"count":96,
			"max":[
				2.1882004737854004,
				0.055061087012290955,
				2.3744091987609863
			],
			"min":[
				0.17705881595611572,
				-0.01493891328573227,
				0.036231279373168945
			],
			"type":"VEC3"
		},
		{
			"bufferView":70,
			"componentType":5126,
			"count":96,
			"type":"VEC3"
		},
		{
			"bufferView":71,
			"componentType":5126,
			"count":96,
			"type":"VEC2"
		},
		{
			"bufferView":72,
			"componentType":5126,
			"count":96,
			"max":[
				4.578296661376953,
				0.052484720945358276,
				2.343224048614502
			],
			"min":[
				2.3820362091064453,
				-0.017515281215310097,
				0.09657156467437744
			],
			"type":"VEC3"
		},
		{
			"bufferView":73,
			"componentType":5126,
			"count":96,
			"type":"VEC3"
		},
		{
			"bufferView":74,
			"componentType":5126,
			"count":96,
			"type":"VEC2"
		},
		{
			"bufferView":75,
			"componentType":5126,
			"count":96,
			"max":[
				-2.3935046195983887,
				0.051279567182064056,
				-0.16515934467315674
			],
			"min":[
				-4.480415344238281,
				-0.018720433115959167,
				-2.3039631843566895
			],
			"type":"VEC3"
		},
		{
			"bufferView":76,
			"componentType":5126,
			"count":96,
			"type":"VEC3"
		},
		{
			"bufferView":77,
			"componentType":5126,
			"count":96,
			"type":"VEC2"
		},
		{
			"bufferView":78,
			"componentType":5126,
			"count":96,
			"max":[
				-0.08529353141784668,
				0.061991602182388306,
				-0.017497658729553223
			],
			"min":[
				-2.255743980407715,
				-0.008008399978280067,
				-2.3712596893310547
			],
			"type":"VEC3"
		},
		{
			"bufferView":79,
			"componentType":5126,
			"count":96,
			"type":"VEC3"
		},
		{
			"bufferView":80,
			"componentType":5126,
			"count":96,
			"type":"VEC2"
		},
		{
			"bufferView":81,
			"componentType":5123,
			"count":132,
			"type":"SCALAR"
		},
		{
			"bufferView":82,
			"componentType":5126,
			"count":96,
			"max":[
				2.223416805267334,
				0.053812429308891296,
				-0.1115502119064331
			],
			"min":[
				0.16860949993133545,
				-0.016187572851777077,
				-2.333771228790283
			],
			"type":"VEC3"
		},
		{
			"bufferView":83,
			"componentType":5126,
			"count":96,
			"type":"VEC3"
		},
		{
			"bufferView":84,
			"componentType":5126,
			"count":96,
			"type":"VEC2"
		},
		{
			"bufferView":85,
			"componentType":5126,
			"count":96,
			"max":[
				4.429195404052734,
				0.05638102442026138,
				-0.06681787967681885
			],
			"min":[
				2.3933165073394775,
				-0.01361897774040699,
				-2.410475254058838
			],
			"type":"VEC3"
		},
		{
			"bufferView":86,
			"componentType":5126,
			"count":96,
			"type":"VEC3"
		},
		{
			"bufferView":87,
			"componentType":5126,
			"count":96,
			"type":"VEC2"
		},
		{
			"bufferView":88,
			"componentType":5126,
			"count":96,
			"max":[
				-2.427177906036377,
				0.056182146072387695,
				-2.483656167984009
			],
			"min":[
				-4.536798000335693,
				-0.013817854225635529,
				-4.714390754699707
			],
			"type":"VEC3"
		},
		{
			"bufferView":89,
			"componentType":5126,
			"count":96,
			"type":"VEC3"
		},
		{
			"bufferView":90,
			"componentType":5126,
			"count":96,
			"type":"VEC2"
		},
		{
			"bufferView":91,
			"componentType":5126,
			"count":96,
			"max":[
				-0.05499589443206787,
				0.058335162699222565,
				-2.4842348098754883
			],
			"min":[
				-2.1877994537353516,
				-0.011664839461445808,
				-4.781740665435791
			],
			"type":"VEC3"
		},
		{
			"bufferView":92,
			"componentType":5126,
			"count":96,
			"type":"VEC3"
		},
		{
			"bufferView":93,
			"componentType":5126,
			"count":96,
			"type":"VEC2"
		},
		{
			"bufferView":94,
			"componentType":5123,
			"count":132,
			"type":"SCALAR"
		},
		{
			"bufferView":95,
			"componentType":5126,
			"count":96,
			"max":[
				2.182417392730713,
				0.06002278998494148,
				-2.4426724910736084
			],
			"min":[
				0.12944567203521729,
				-0.009977210313081741,
				-4.797720909118652
			],
			"type":"VEC3"
		},
		{
			"bufferView":96,
			"componentType":5126,
			"count":96,
			"type":"VEC3"
		},
		{
			"bufferView":97,
			"componentType":5126,
			"count":96,
			"type":"VEC2"
		},
		{
			"bufferView":98,
			"componentType":5126,
			"count":96,
			"max":[
				4.580870628356934,
				0.05214379355311394,
				-2.469149351119995
			],
			"min":[
				2.410506248474121,
				-0.017856206744909286,
				-4.692468643188477
			],
			"type":"VEC3"
		},
		{
			"bufferView":99,
			"componentType":5126,
			"count":96,
			"type":"VEC3"
		},
		{
			"bufferView":100,
			"componentType":5126,
			"count":96,
			"type":"VEC2"
		},
		{
			"bufferView":101,
			"componentType":5126,
			"count":96,
			"max":[
				-2.417374610900879,
				0.05346591770648956,
				-4.835268974304199
			],
			"min":[
				-4.517444610595703,
				-0.01653408259153366,
				-7.110415458679199
			],
			"type":"VEC3"
		},
		{
			"bufferView":102,
			"componentType":5126,
			"count":96,
			"type":"VEC3"
		},
		{
			"bufferView":103,
			"componentType":5126,
			"count":96,
			"type":"VEC2"
		},
		{
			"bufferView":104,
			"componentType":5126,
			"count":96,
			"max":[
				-0.08239269256591797,
				0.05885392799973488,
				-4.92178201675415
			],
			"min":[
				-2.248030424118042,
				-0.011146072298288345,
				-7.112793445587158
			],
			"type":"VEC3"
		},
		{
			"bufferView":105,
			"componentType":5126,
			"count":96,
			"type":"VEC3"
		},
		{
			"bufferView":106,
			"componentType":5126,
			"count":96,
			"type":"VEC2"
		},
		{
			"bufferView":107,
			"componentType":5126,
			"count":96,
			"max":[
				2.2826428413391113,
				0.06171346455812454,
				-4.905242443084717
			],
			"min":[
				0.09133946895599365,
				-0.008286533877253532,
				-7.13995885848999
			],
			"type":"VEC3"
		},
		{
			"bufferView":108,
			"componentType":5126,
			"count":96,
			"type":"VEC3"
		},
		{
			"bufferView":109,
			"componentType":5126,
			"count":96,
			"type":"VEC2"
		},
		{
			"bufferView":110,
			"componentType":5126,
			"count":96,
			"max":[
				4.448151111602783,
				0.06024625897407532,
				-4.923194408416748
			],
			"min":[
				2.3915796279907227,
				-0.009753743186593056,
				-7.043692111968994
			],
			"type":"VEC3"
		},
		{
			"bufferView":111,
			"componentType":5126,
			"count":96,
			"type":"VEC3"
		},
		{
			"bufferView":112,
			"componentType":5126,
			"count":96,
			"type":"VEC2"
		},
		{
			"bufferView":113,
			"componentType":5126,
			"count":96,
			"max":[
				-2.416261672973633,
				0.05697014182806015,
				-7.328941345214844
			],
			"min":[
				-4.549373149871826,
				-0.013029856607317924,
				-9.538347244262695
			],
			"type":"VEC3"
		},
		{
			"bufferView":114,
			"componentType":5126,
			"count":96,
			"type":"VEC3"
		},
		{
			"bufferView":115,
			"componentType":5126,
			"count":96,
			"type":"VEC2"
		},
		{
			"bufferView":116,
			"componentType":5126,
			"count":96,
			"max":[
				-0.08385169506072998,
				0.05192027613520622,
				-7.208798885345459
			],
			"min":[
				-2.172065258026123,
				-0.018079724162817,
				-9.477828979492188
			],
			"type":"VEC3"
		},
		{
			"bufferView":117,
			"componentType":5126,
			"count":96,
			"type":"VEC3"
		},
		{
			"bufferView":118,
			"componentType":5126,
			"count":96,
			"type":"VEC2"
		},
		{
			"bufferView":119,
			"componentType":5126,
			"count":96,
			"max":[
				2.2745466232299805,
				0.05862154811620712,
				-7.184295177459717
			],
			"min":[
				0.07725286483764648,
				-0.011378452181816101,
				-9.539032936096191
			],
			"type":"VEC3"
		},
		{
			"bufferView":120,
			"componentType":5126,
			"count":96,
			"type":"VEC3"
		},
		{
			"bufferView":121,
			"componentType":5126,
			"count":96,
			"type":"VEC2"
		},
		{
			"bufferView":122,
			"componentType":5126,
			"count":96,
			"max":[
				4.423569202423096,
				0.05380821228027344,
				-7.280886173248291
			],
			"min":[
				2.3872594833374023,
				-0.016191789880394936,
				-9.431159973144531
			],
			"type":"VEC3"
		},
		{
			"bufferView":123,
			"componentType":5126,
			"count":96,
			"type":"VEC3"
		},
		{
			"bufferView":124,
			"componentType":5126,
			"count":96,
			"type":"VEC2"
		},
		{
			"bufferView":125,
			"componentType":5126,
			"count":96,
			"max":[
				-2.4512534141540527,
				0.05795028805732727,
				-9.705564498901367
			],
			"min":[
				-4.465648651123047,
				-0.012049712240695953,
				-11.858699798583984
			],
			"type":"VEC3"
		},
		{
			"bufferView":126,
			"componentType":5126,
			"count":96,
			"type":"VEC3"
		},
		{
			"bufferView":127,
			"componentType":5126,
			"count":96,
			"type":"VEC2"
		},
		{
			"bufferView":128,
			"componentType":5126,
			"count":96,
			"max":[
				-0.158929705619812,
				0.05334233492612839,
				-9.723685264587402
			],
			"min":[
				-2.240938186645508,
				-0.016657663509249687,
				-11.853604316711426
			],
			"type":"VEC3"
		},
		{
			"bufferView":129,
			"componentType":5126,
			"count":96,
			"type":"VEC3"
		},
		{
			"bufferView":130,
			"componentType":5126,
			"count":96,
			"type":"VEC2"
		},
		{
			"bufferView":131,
			"componentType":5126,
			"count":96,
			"max":[
				2.2259652614593506,
				0.053616590797901154,
				-9.689348220825195
			],
			"min":[
				0.16690897941589355,
				-0.01638341136276722,
				-11.922636032104492
			],
			"type":"VEC3"
		},
		{
			"bufferView":132,
			"componentType":5126,
			"count":96,
			"type":"VEC3"
		},
		{
			"bufferView":133,
			"componentType":5126,
			"count":96,
			"type":"VEC2"
		},
		{
			"bufferView":134,
			"componentType":5126,
			"count":96,
			"max":[
				4.577128887176514,
				0.05502922087907791,
				-9.704724311828613
			],
			"min":[
				2.4145312309265137,
				-0.014970777556300163,
				-11.971720695495605
			],
			"type":"VEC3"
		},
		{
			"bufferView":135,
			"componentType":5126,
			"count":96,
			"type":"VEC3"
		},
		{
			"bufferView":136,
			"componentType":5126,
			"count":96,
			"type":"VEC2"
		}
	],
	"bufferViews":[
		{
			"buffer":0,
			"byteLength":1152,
			"byteOffset":0,
			"target":34962
		},
		{
			"buffer":0,
			"byteLength":1152,
			"byteOffset":1152,
			"target":34962
		},
		{
			"buffer":0,
			"byteLength":768,
			"byteOffset":2304,
			"target":34962
		},
		{
			"buffer":0,
			"byteLength":264,
			"byteOffset":3072,
			"target":34963
		},
		{
			"buffer":0,
			"byteLength":288,
			"byteOffset":3336,
			"target":34962
		},
		{
			"buffer":0,
			"byteLength":288,
			"byteOffset":3624,
			"target":34962
		},
		{
			"buffer":0,
			"byteLength":192,
			"byteOffset":3912,
			"target":34962
		},
		{
			"buffer":0,
			"byteLength":72,
			"byteOffset":4104,
			"target":34963
		},
		{
			"buffer":0,
			"byteLength":288,
			"byteOffset":4176,
			"target":34962
		},
		{
			"buffer":0,
			"byteLength":288,
			"byteOffset":4464,
			"target":34962
		},
		{
			"buffer":0,
			"byteLength":192,
			"byteOffset":4752,
			"target":34962
		},
		{
			"buffer":0,
			"byteLength":1152,
			"byteOffset":4944,
			"target":34962
		},
		{
			"buffer":0,
			"byteLength":1152,
			"byteOffset":6096,
			"target":34962
		},
		{
			"buffer":0,
			"byteLength":768,
			"byteOffset":7248,
			"target":34962
		},
		{
			"buffer":0,
			"byteLength":1152,
			"byteOffset":8016,
			"target":34962
		},
		{
			"buffer":0,
			"byteLength":1152,
			"byteOffset":9168,
			"target":34962
		},
		{
			"buffer":0,
			"byteLength":768,
			"byteOffset":10320,
			"target":34962
		},
		{
			"buffer":0,
			"byteLength":264,
			"byteOffset":11088,
			"target":34963
		},
		{
			"buffer":0,
			"byteLength":1152,
			"byteOffset":11352,
			"target":34962
		},
		{
			"buffer":0,
			"byteLength":1152,
			"byteOffset":12504,
			"target":34962
		},
		{
			"buffer":0,
			"byteLength":768,
			"byteOffset":13656,
			"target":34962
		},
		{
			"buffer":0,
			"byteLength":1152,
			"byteOffset":14424,
			"target":34962
		},
		{
			"buffer":0,
			"byteLength":1152,
			"byteOffset":15576,
			"target":34962
		},
		{
			"buffer":0,
			"byteLength":768,
			"byteOffset":16728,
			"target":34962
		},
		{
			"buffer":0,
			"byteLength":1152,
			"byteOffset":17496,
			"target":34962
		},
		{
			"buffer":0,
			"byteLength":1152,
			"byteOffset":18648,
			"target":34962
		},
		{
			"buffer":0,
			"byteLength":768,
			"byteOffset":19800,
			"target":34962
		},
		{
			"buffer":0,
			"byteLength":1152,
			"byteOffset":20568,
			"target":34962
		},
		{
			"buffer":0,
			"byteLength":1152,
			"byteOffset":21720,
			"target":34962
		},
		{
			"buffer":0,
			"byteLength":768,
			"byteOffset":22872,
			"target":34962
		},
		{
			"buffer":0,
			"byteLength":1152,
			"byteOffset":23640,
			"target":34962
		},
		{
			"buffer":0,
			"byteLength":1152,
			"byteOffset":24792,
			"target":34962
		},
		{
			"buffer":0,
			"byteLength":768,
			"byteOffset":25944,
			"target":34962
		},
		{
			"buffer":0,
			"byteLength":1152,
			"byteOffset":26712,
			"target":34962
		},
		{
			"buffer":0,
			"byteLength":1152,
			"byteOffset":27864,
			"target":34962
		},
		{
			"buffer":0,
			"byteLength":768,
			"byteOffset":29016,
			"target":34962
		},
		{
			"buffer":0,
			"byteLength":1152,
			"byteOffset":29784,
			"target":34962
		},
		{
			"buffer":0,
			"byteLength":1152,
			"byteOffset":30936,
			"target":34962
		},
		{
			"buffer":0,
			"byteLength":768,
			"byteOffset":32088,
			"target":34962
		},
		{
			"buffer":0,
			"byteLength":1152,
			"byteOffset":32856,
			"target":34962
		},
		{
			"buffer":0,
			"byteLength":1152,
			"byteOffset":34008,
			"target":34962
		},
		{
			"buffer":0,
			"byteLength":768,
			"byteOffset":35160,
			"target":34962
		},
		{
			"buffer":0,
			"byteLength":1152,
			"byteOffset":35928,
			"target":34962
		},
		{
			"buffer":0,
			"byteLength":1152,
			"byteOffset":37080,
			"target":34962
		},
		{
			"buffer":0,
			"byteLength":768,
			"byteOffset":38232,
			"target":34962
		},
		{
			"buffer":0,
			"byteLength":1152,
			"byteOffset":39000,
			"target":34962
		},
		{
			"buffer":0,
			"byteLength":1152,
			"byteOffset":40152,
			"target":34962
		},
		{
			"buffer":0,
			"byteLength":768,
			"byteOffset":41304,
			"target":34962
		},
		{
			"buffer":0,
			"byteLength":1152,
			"byteOffset":42072,
			"target":34962
		},
		{
			"buffer":0,
			"byteLength":1152,
			"byteOffset":43224,
			"target":34962
		},
		{
			"buffer":0,
			"byteLength":768,
			"byteOffset":44376,
			"target":34962
		},
		{
			"buffer":0,
			"byteLength":264,
			"byteOffset":45144,
			"target":34963
		},
		{
			"buffer":0,
			"byteLength":1152,
			"byteOffset":45408,
			"target":34962
		},
		{
			"buffer":0,
			"byteLength":1152,
			"byteOffset":46560,
			"target":34962
		},
		{
			"buffer":0,
			"byteLength":768,
			"byteOffset":47712,
			"target":34962
		},
		{
			"buffer":0,
			"byteLength":264,
			"byteOffset":48480,
			"target":34963
		},
		{
			"buffer":0,
			"byteLength":1152,
			"byteOffset":48744,
			"target":34962
		},
		{
			"buffer":0,
			"byteLength":1152,
			"byteOffset":49896,
			"target":34962
		},
		{
			"buffer":0,
			"byteLength":768,
			"byteOffset":51048,
			"target":34962
		},
		{
			"buffer":0,
			"byteLength":1152,
			"byteOffset":51816,
			"target":34962
		},
		{
			"buffer":0,
			"byteLength":1152,
			"byteOffset":52968,
			"target":34962
		},
		{
			"buffer":0,
			"byteLength":768,
			"byteOffset":54120,
			"target":34962
		},
		{
			"buffer":0,
			"byteLength":264,
			"byteOffset":54888,
			"target":34963
		},
		{
			"buffer":0,
			"byteLength":1152,
			"byteOffset":55152,
			"target":34962
		},
		{
			"buffer":0,
			"byteLength":1152,
			"byteOffset":56304,
			"target":34962
		},
		{
			"buffer":0,
			"byteLength":768,
			"byteOffset":57456,
			"target":34962
		},
		{
			"buffer":0,
			"byteLength":1152,
			"byteOffset":58224,
			"target":34962
		},
		{
			"buffer":0,
			"byteLength":1152,
			"byteOffset":59376,
			"target":34962
		},
		{
			"buffer":0,
			"byteLength":768,
			"byteOffset":60528,
			"target":34962
		},
		{
			"buffer":0,
			"byteLength":1152,
			"byteOffset":61296,
			"target":34962
		},
		{
			"buffer":0,
			"byteLength":1152,
			"byteOffset":62448,
			"target":34962
		},
		{
			"buffer":0,
			"byteLength":768,
			"byteOffset":63600,
			"target":34962
		},
		{
			"buffer":0,
			"byteLength":1152,
			"byteOffset":64368,
			"target":34962
		},
		{
			"buffer":0,
			"byteLength":1152,
			"byteOffset":65520,
			"target":34962
		},
		{
			"buffer":0,
			"byteLength":768,
			"byteOffset":66672,
			"target":34962
		},
		{
			"buffer":0,
			"byteLength":1152,
			"byteOffset":67440,
			"target":34962
		},
		{
			"buffer":0,
			"byteLength":1152,
			"byteOffset":68592,
			"target":34962
		},
		{
			"buffer":0,
			"byteLength":768,
			"byteOffset":69744,
			"target":34962
		},
		{
			"buffer":0,
			"byteLength":1152,
			"byteOffset":70512,
			"target":34962
		},
		{
			"buffer":0,
			"byteLength":1152,
			"byteOffset":71664,
			"target":34962
		},
		{
			"buffer":0,
			"byteLength":768,
			"byteOffset":72816,
			"target":34962
		},
		{
			"buffer":0,
			"byteLength":264,
			"byteOffset":73584,
			"target":34963
		},
		{
			"buffer":0,
			"byteLength":1152,
			"byteOffset":73848,
			"target":34962
		},
		{
			"buffer":0,
			"byteLength":1152,
			"byteOffset":75000,
			"target":34962
		},
		{
			"buffer":0,
			"byteLength":768,
			"byteOffset":76152,
			"target":34962
		},
		{
			"buffer":0,
			"byteLength":1152,
			"byteOffset":76920,
			"target":34962
		},
		{
			"buffer":0,
			"byteLength":1152,
			"byteOffset":78072,
			"target":34962
		},
		{
			"buffer":0,
			"byteLength":768,
			"byteOffset":79224,
			"target":34962
		},
		{
			"buffer":0,
			"byteLength":1152,
			"byteOffset":79992,
			"target":34962
		},
		{
			"buffer":0,
			"byteLength":1152,
			"byteOffset":81144,
			"target":34962
		},
		{
			"buffer":0,
			"byteLength":768,
			"byteOffset":82296,
			"target":34962
		},
		{
			"buffer":0,
			"byteLength":1152,
			"byteOffset":83064,
			"target":34962
		},
		{
			"buffer":0,
			"byteLength":1152,
			"byteOffset":84216,
			"target":34962
		},
		{
			"buffer":0,
			"byteLength":768,
			"byteOffset":85368,
			"target":34962
		},
		{
			"buffer":0,
			"byteLength":264,
			"byteOffset":86136,
			"target":34963
		},
		{
			"buffer":0,
			"byteLength":1152,
			"byteOffset":86400,
			"target":34962
		},
		{
			"buffer":0,
			"byteLength":1152,
			"byteOffset":87552,
			"target":34962
		},
		{
			"buffer":0,
			"byteLength":768,
			"byteOffset":88704,
			"target":34962
		},
		{
			"buffer":0,
			"byteLength":1152,
			"byteOffset":89472,
			"target":34962
		},
		{
			"buffer":0,
			"byteLength":1152,
			"byteOffset":90624,
			"target":34962
		},
		{
			"buffer":0,
			"byteLength":768,
			"byteOffset":91776,
			"target":34962
		},
		{
			"buffer":0,
			"byteLength":1152,
			"byteOffset":92544,
			"target":34962
		},
		{
			"buffer":0,
			"byteLength":1152,
			"byteOffset":93696,
			"target":34962
		},
		{
			"buffer":0,
			"byteLength":768,
			"byteOffset":94848,
			"target":34962
		},
		{
			"buffer":0,
			"byteLength":1152,
			"byteOffset":95616,
			"target":34962
		},
		{
			"buffer":0,
			"byteLength":1152,
			"byteOffset":96768,
			"target":34962
		},
		{
			"buffer":0,
			"byteLength":768,
			"byteOffset":97920,
			"target":34962
		},
		{
			"buffer":0,
			"byteLength":1152,
			"byteOffset":98688,
			"target":34962
		},
		{
			"buffer":0,
			"byteLength":1152,
			"byteOffset":99840,
			"target":34962
		},
		{
			"buffer":0,
			"byteLength":768,
			"byteOffset":100992,
			"target":34962
		},
		{
			"buffer":0,
			"byteLength":1152,
			"byteOffset":101760,
			"target":34962
		},
		{
			"buffer":0,
			"byteLength":1152,
			"byteOffset":102912,
			"target":34962
		},
		{
			"buffer":0,
			"byteLength":768,
			"byteOffset":104064,
			"target":34962
		},
		{
			"buffer":0,
			"byteLength":1152,
			"byteOffset":104832,
			"target":34962
		},
		{
			"buffer":0,
			"byteLength":1152,
			"byteOffset":105984,
			"target":34962
		},
		{
			"buffer":0,
			"byteLength":768,
			"byteOffset":107136,
			"target":34962
		},
		{
			"buffer":0,
			"byteLength":1152,
			"byteOffset":107904,
			"target":34962
		},
		{
			"buffer":0,
			"byteLength":1152,
			"byteOffset":109056,
			"target":34962
		},
		{
			"buffer":0,
			"byteLength":768,
			"byteOffset":110208,
			"target":34962
		},
		{
			"buffer":0,
			"byteLength":1152,
			"byteOffset":110976,
			"target":34962
		},
		{
			"buffer":0,
			"byteLength":1152,
			"byteOffset":112128,
			"target":34962
		},
		{
			"buffer":0,
			"byteLength":768,
			"byteOffset":113280,
			"target":34962
		},
		{
			"buffer":0,
			"byteLength":1152,
			"byteOffset":114048,
			"target":34962
		},
		{
			"buffer":0,
			"byteLength":1152,
			"byteOffset":115200,
			"target":34962
		},
		{
			"buffer":0,
			"byteLength":768,
			"byteOffset":116352,
			"target":34962
		},
		{
			"buffer":0,
			"byteLength":1152,
			"byteOffset":117120,
			"target":34962
		},
		{
			"buffer":0,
			"byteLength":1152,
			"byteOffset":118272,
			"target":34962
		},
		{
			"buffer":0,
			"byteLength":768,
			"byteOffset":119424,
			"target":34962
		},
		{
			"buffer":0,
			"byteLength":1152,
			"byteOffset":120192,
			"target":34962
		},
		{
			"buffer":0,
			"byteLength":1152,
			"byteOffset":121344,
			"target":34962
		},
		{
			"buffer":0,
			"byteLength":768,
			"byteOffset":122496,
			"target":34962
		},
		{
			"buffer":0,
			"byteLength":1152,
			"byteOffset":123264,
			"target":34962
		},
		{
			"buffer":0,
			"byteLength":1152,
			"byteOffset":124416,
			"target":34962
		},
		{
			"buffer":0,
			"byteLength":768,
			"byteOffset":125568,
			"target":34962
		},
		{
			"buffer":0,
			"byteLength":1152,
			"byteOffset":126336,
			"target":34962
		},
		{
			"buffer":0,
			"byteLength":1152,
			"byteOffset":127488,
			"target":34962
		},
		{
			"buffer":0,
			"byteLength":768,
			"byteOffset":128640,
			"target":34962
		}
	],
	"buffers":[
		{
			"byteLength":129408,
			"uri":"hd_rd_stone.bin"
		}
	]
}
