{
	"asset":{
		"generator":"Khronos glTF Blender I/O v5.2.40",
		"version":"2.0"
	},
	"scene":0,
	"scenes":[
		{
			"name":"Scene",
			"nodes":[
				0,
				1,
				2,
				3
			]
		}
	],
	"nodes":[
		{
			"mesh":0,
			"name":"chip"
		},
		{
			"mesh":1,
			"name":"drum"
		},
		{
			"mesh":2,
			"name":"plinth"
		},
		{
			"mesh":3,
			"name":"shaft"
		}
	],
	"materials":[
		{
			"doubleSided":true,
			"name":"M_bc3",
			"pbrMetallicRoughness":{
				"baseColorFactor":[
					0.4819522500038147,
					0.3586539030075073,
					0.18698850274085999,
					1
				],
				"metallicFactor":0,
				"roughnessFactor":0.8500000238418579
			}
		},
		{
			"doubleSided":true,
			"name":"M_bd",
			"pbrMetallicRoughness":{
				"baseColorFactor":[
					0.4819522500038147,
					0.3586539030075073,
					0.18698850274085999,
					1
				],
				"metallicFactor":0,
				"roughnessFactor":0.8500000238418579
			}
		},
		{
			"doubleSided":true,
			"name":"M_bpp",
			"pbrMetallicRoughness":{
				"baseColorFactor":[
					0.4819522500038147,
					0.3586539030075073,
					0.18698850274085999,
					1
				],
				"metallicFactor":0,
				"roughnessFactor":0.8500000238418579
			}
		},
		{
			"doubleSided":true,
			"name":"M_bs",
			"pbrMetallicRoughness":{
				"baseColorFactor":[
					0.7226724624633789,
					0.5924380421638489,
					0.39929330348968506,
					1
				],
				"metallicFactor":0,
				"roughnessFactor":0.8500000238418579
			}
		}
	],
	"meshes":[
		{
			"name":"Icosphere",
			"primitives":[
				{
					"attributes":{
						"POSITION":0,
						"NORMAL":1,
						"TEXCOORD_0":2
					},
					"indices":3,
					"material":0
				}
			]
		},
		{
			"name":"Cylinder",
			"primitives":[
				{
					"attributes":{
						"POSITION":4,
						"NORMAL":5,
						"TEXCOORD_0":6
					},
					"indices":7,
					"material":1
				}
			]
		},
		{
			"name":"Cube",
			"primitives":[
				{
					"attributes":{
						"POSITION":8,
						"NORMAL":9,
						"TEXCOORD_0":10
					},
					"indices":11,
					"material":2
				}
			]
		},
		{
			"name":"Cone",
			"primitives":[
				{
					"attributes":{
						"POSITION":12,
						"NORMAL":13,
						"TEXCOORD_0":14
					},
					"indices":15,
					"material":3
				}
			]
		}
	],
	"accessors":[
		{
			"bufferView":0,
			"componentType":5126,
			"count":22,
			"max":[
				-0.15875914692878723,
				0.2164565473794937,
				-0.1780460774898529
			],
			"min":[
				-0.45677855610847473,
				0.023762835189700127,
				-0.43447184562683105
			],
			"type":"VEC3"
		},
		{
			"bufferView":1,
			"componentType":5126,
			"count":22,
			"type":"VEC3"
		},
		{
			"bufferView":2,
			"componentType":5126,
			"count":22,
			"type":"VEC2"
		},
		{
			"bufferView":3,
			"componentType":5123,
			"count":60,
			"type":"SCALAR"
		},
		{
			"bufferView":4,
			"componentType":5126,
			"count":42,
			"max":[
				0.8847577571868896,
				0.5543363094329834,
				0.5136443376541138
			],
			"min":[
				0.21524229645729065,
				-0.03433629870414734,
				-0.11364434659481049
			],
			"type":"VEC3"
		},
		{
			"bufferView":5,
			"componentType":5126,
			"count":42,
			"type":"VEC3"
		},
		{
			"bufferView":6,
			"componentType":5126,
			"count":42,
			"type":"VEC2"
		},
		{
			"bufferView":7,
			"componentType":5123,
			"count":108,
			"type":"SCALAR"
		},
		{
			"bufferView":8,
			"componentType":5126,
			"count":24,
			"max":[
				0.550000011920929,
				0.30000001192092896,
				0.550000011920929
			],
			"min":[
				-0.550000011920929,
				0,
				-0.550000011920929
			],
			"type":"VEC3"
		},
		{
			"bufferView":9,
			"componentType":5126,
			"count":24,
			"type":"VEC3"
		},
		{
			"bufferView":10,
			"componentType":5126,
			"count":24,
			"type":"VEC2"
		},
		{
			"bufferView":11,
			"componentType":5123,
			"count":36,
			"type":"SCALAR"
		},
		{
			"bufferView":12,
			"componentType":5126,
			"count":72,
			"max":[
				0.2800000011920929,
				1.9768962860107422,
				0.2800000011920929
			],
			"min":[
				-0.2800000011920929,
				0.2999999523162842,
				-0.2800000011920929
			],
			"type":"VEC3"
		},
		{
			"bufferView":13,
			"componentType":5126,
			"count":72,
			"type":"VEC3"
		},
		{
			"bufferView":14,
			"componentType":5126,
			"count":72,
			"type":"VEC2"
		},
		{
			"bufferView":15,
			"componentType":5123,
			"count":132,
			"type":"SCALAR"
		}
	],
	"bufferViews":[
		{
			"buffer":0,
			"byteLength":264,
			"byteOffset":0,
			"target":34962
		},
		{
			"buffer":0,
			"byteLength":264,
			"byteOffset":264,
			"target":34962
		},
		{
			"buffer":0,
			"byteLength":176,
			"byteOffset":528,
			"target":34962
		},
		{
			"buffer":0,
			"byteLength":120,
			"byteOffset":704,
			"target":34963
		},
		{
			"buffer":0,
			"byteLength":504,
			"byteOffset":824,
			"target":34962
		},
		{
			"buffer":0,
			"byteLength":504,
			"byteOffset":1328,
			"target":34962
		},
		{
			"buffer":0,
			"byteLength":336,
			"byteOffset":1832,
			"target":34962
		},
		{
			"buffer":0,
			"byteLength":216,
			"byteOffset":2168,
			"target":34963
		},
		{
			"buffer":0,
			"byteLength":288,
			"byteOffset":2384,
			"target":34962
		},
		{
			"buffer":0,
			"byteLength":288,
			"byteOffset":2672,
			"target":34962
		},
		{
			"buffer":0,
			"byteLength":192,
			"byteOffset":2960,
			"target":34962
		},
		{
			"buffer":0,
			"byteLength":72,
			"byteOffset":3152,
			"target":34963
		},
		{
			"buffer":0,
			"byteLength":864,
			"byteOffset":3224,
			"target":34962
		},
		{
			"buffer":0,
			"byteLength":864,
			"byteOffset":4088,
			"target":34962
		},
		{
			"buffer":0,
			"byteLength":576,
			"byteOffset":4952,
			"target":34962
		},
		{
			"buffer":0,
			"byteLength":264,
			"byteOffset":5528,
			"target":34963
		}
	],
	"buffers":[
		{
			"byteLength":5792,
			"uri":"hd_column_broken.bin"
		}
	]
}
