{
	"asset":{
		"generator":"Khronos glTF Blender I/O v5.2.40",
		"version":"2.0"
	},
	"scene":0,
	"scenes":[
		{
			"name":"Scene",
			"nodes":[
				0,
				1,
				2,
				3,
				4,
				5,
				6,
				7
			]
		}
	],
	"nodes":[
		{
			"mesh":0,
			"name":"mound"
		},
		{
			"mesh":1,
			"name":"root0"
		},
		{
			"mesh":2,
			"name":"root1"
		},
		{
			"mesh":3,
			"name":"root2"
		},
		{
			"mesh":4,
			"name":"root3"
		},
		{
			"mesh":5,
			"name":"root4"
		},
		{
			"mesh":6,
			"name":"root5"
		},
		{
			"mesh":7,
			"name":"root6"
		}
	],
	"materials":[
		{
			"doubleSided":true,
			"name":"M_mound",
			"pbrMetallicRoughness":{
				"baseColorFactor":[
					0.2590273320674896,
					0.10114516317844391,
					0.02775527909398079,
					1
				],
				"metallicFactor":0,
				"roughnessFactor":0.8500000238418579
			}
		},
		{
			"doubleSided":true,
			"name":"M_root",
			"pbrMetallicRoughness":{
				"baseColorFactor":[
					0.14799802005290985,
					0.05112205073237419,
					0.015175238251686096,
					1
				],
				"metallicFactor":0,
				"roughnessFactor":0.8500000238418579
			}
		}
	],
	"meshes":[
		{
			"name":"Icosphere",
			"primitives":[
				{
					"attributes":{
						"POSITION":0,
						"NORMAL":1,
						"TEXCOORD_0":2
					},
					"indices":3,
					"material":0
				}
			]
		},
		{
			"name":"Cone",
			"primitives":[
				{
					"attributes":{
						"POSITION":4,
						"NORMAL":5,
						"TEXCOORD_0":6
					},
					"indices":7,
					"material":1
				}
			]
		},
		{
			"name":"Cone.001",
			"primitives":[
				{
					"attributes":{
						"POSITION":8,
						"NORMAL":9,
						"TEXCOORD_0":10
					},
					"indices":7,
					"material":1
				}
			]
		},
		{
			"name":"Cone.002",
			"primitives":[
				{
					"attributes":{
						"POSITION":11,
						"NORMAL":12,
						"TEXCOORD_0":13
					},
					"indices":7,
					"material":1
				}
			]
		},
		{
			"name":"Cone.003",
			"primitives":[
				{
					"attributes":{
						"POSITION":14,
						"NORMAL":15,
						"TEXCOORD_0":16
					},
					"indices":7,
					"material":1
				}
			]
		},
		{
			"name":"Cone.004",
			"primitives":[
				{
					"attributes":{
						"POSITION":17,
						"NORMAL":18,
						"TEXCOORD_0":19
					},
					"indices":7,
					"material":1
				}
			]
		},
		{
			"name":"Cone.005",
			"primitives":[
				{
					"attributes":{
						"POSITION":20,
						"NORMAL":21,
						"TEXCOORD_0":22
					},
					"indices":7,
					"material":1
				}
			]
		},
		{
			"name":"Cone.006",
			"primitives":[
				{
					"attributes":{
						"POSITION":23,
						"NORMAL":24,
						"TEXCOORD_0":25
					},
					"indices":7,
					"material":1
				}
			]
		}
	],
	"accessors":[
		{
			"bufferView":0,
			"componentType":5126,
			"count":22,
			"max":[
				0.5900490880012512,
				0.041538842022418976,
				0.15297728776931763
			],
			"min":[
				-0.48533210158348083,
				-0.06921331584453583,
				-0.9671990871429443
			],
			"type":"VEC3"
		},
		{
			"bufferView":1,
			"componentType":5126,
			"count":22,
			"type":"VEC3"
		},
		{
			"bufferView":2,
			"componentType":5126,
			"count":22,
			"type":"VEC2"
		},
		{
			"bufferView":3,
			"componentType":5123,
			"count":60,
			"type":"SCALAR"
		},
		{
			"bufferView":4,
			"componentType":5126,
			"count":22,
			"max":[
				0.9768481254577637,
				0.11141329258680344,
				-0.31015849113464355
			],
			"min":[
				0.233347088098526,
				-0.228318452835083,
				-0.5025014281272888
			],
			"type":"VEC3"
		},
		{
			"bufferView":5,
			"componentType":5126,
			"count":22,
			"type":"VEC3"
		},
		{
			"bufferView":6,
			"componentType":5126,
			"count":22,
			"type":"VEC2"
		},
		{
			"bufferView":7,
			"componentType":5123,
			"count":48,
			"type":"SCALAR"
		},
		{
			"bufferView":8,
			"componentType":5126,
			"count":22,
			"max":[
				0.6320489048957825,
				0.14195901155471802,
				-0.5238945484161377
			],
			"min":[
				0.23293302953243256,
				-0.2582617700099945,
				-1.2087767124176025
			],
			"type":"VEC3"
		},
		{
			"bufferView":9,
			"componentType":5126,
			"count":22,
			"type":"VEC3"
		},
		{
			"bufferView":10,
			"componentType":5126,
			"count":22,
			"type":"VEC2"
		},
		{
			"bufferView":11,
			"componentType":5126,
			"count":22,
			"max":[
				0.012682478874921799,
				0.11760468035936356,
				-0.5956286787986755
			],
			"min":[
				-0.18170341849327087,
				-0.2333771288394928,
				-1.3360137939453125
			],
			"type":"VEC3"
		},
		{
			"bufferView":12,
			"componentType":5126,
			"count":22,
			"type":"VEC3"
		},
		{
			"bufferView":13,
			"componentType":5126,
			"count":22,
			"type":"VEC2"
		},
		{
			"bufferView":14,
			"componentType":5126,
			"count":22,
			"max":[
				-0.12262466549873352,
				0.13190889358520508,
				-0.43921875953674316
			],
			"min":[
				-0.773910403251648,
				-0.23658648133277893,
				-0.9264957904815674
			],
			"type":"VEC3"
		},
		{
			"bufferView":15,
			"componentType":5126,
			"count":22,
			"type":"VEC3"
		},
		{
			"bufferView":16,
			"componentType":5126,
			"count":22,
			"type":"VEC2"
		},
		{
			"bufferView":17,
			"componentType":5126,
			"count":22,
			"max":[
				-0.12141731381416321,
				0.12986710667610168,
				0.1167801022529602
			],
			"min":[
				-0.765352189540863,
				-0.25105929374694824,
				-0.35558438301086426
			],
			"type":"VEC3"
		},
		{
			"bufferView":18,
			"componentType":5126,
			"count":22,
			"type":"VEC3"
		},
		{
			"bufferView":19,
			"componentType":5126,
			"count":22,
			"type":"VEC2"
		},
		{
			"bufferView":20,
			"componentType":5126,
			"count":22,
			"max":[
				-0.004381187260150909,
				0.11744748800992966,
				0.5367798805236816
			],
			"min":[
				-0.19876708090305328,
				-0.23449134826660156,
				-0.19769568741321564
			],
			"type":"VEC3"
		},
		{
			"bufferView":21,
			"componentType":5126,
			"count":22,
			"type":"VEC3"
		},
		{
			"bufferView":22,
			"componentType":5126,
			"count":22,
			"type":"VEC2"
		},
		{
			"bufferView":23,
			"componentType":5126,
			"count":22,
			"max":[
				0.6282004714012146,
				0.1425333023071289,
				0.4051538407802582
			],
			"min":[
				0.23239010572433472,
				-0.25419098138809204,
				-0.2700490355491638
			],
			"type":"VEC3"
		},
		{
			"bufferView":24,
			"componentType":5126,
			"count":22,
			"type":"VEC3"
		},
		{
			"bufferView":25,
			"componentType":5126,
			"count":22,
			"type":"VEC2"
		}
	],
	"bufferViews":[
		{
			"buffer":0,
			"byteLength":264,
			"byteOffset":0,
			"target":34962
		},
		{
			"buffer":0,
			"byteLength":264,
			"byteOffset":264,
			"target":34962
		},
		{
			"buffer":0,
			"byteLength":176,
			"byteOffset":528,
			"target":34962
		},
		{
			"buffer":0,
			"byteLength":120,
			"byteOffset":704,
			"target":34963
		},
		{
			"buffer":0,
			"byteLength":264,
			"byteOffset":824,
			"target":34962
		},
		{
			"buffer":0,
			"byteLength":264,
			"byteOffset":1088,
			"target":34962
		},
		{
			"buffer":0,
			"byteLength":176,
			"byteOffset":1352,
			"target":34962
		},
		{
			"buffer":0,
			"byteLength":96,
			"byteOffset":1528,
			"target":34963
		},
		{
			"buffer":0,
			"byteLength":264,
			"byteOffset":1624,
			"target":34962
		},
		{
			"buffer":0,
			"byteLength":264,
			"byteOffset":1888,
			"target":34962
		},
		{
			"buffer":0,
			"byteLength":176,
			"byteOffset":2152,
			"target":34962
		},
		{
			"buffer":0,
			"byteLength":264,
			"byteOffset":2328,
			"target":34962
		},
		{
			"buffer":0,
			"byteLength":264,
			"byteOffset":2592,
			"target":34962
		},
		{
			"buffer":0,
			"byteLength":176,
			"byteOffset":2856,
			"target":34962
		},
		{
			"buffer":0,
			"byteLength":264,
			"byteOffset":3032,
			"target":34962
		},
		{
			"buffer":0,
			"byteLength":264,
			"byteOffset":3296,
			"target":34962
		},
		{
			"buffer":0,
			"byteLength":176,
			"byteOffset":3560,
			"target":34962
		},
		{
			"buffer":0,
			"byteLength":264,
			"byteOffset":3736,
			"target":34962
		},
		{
			"buffer":0,
			"byteLength":264,
			"byteOffset":4000,
			"target":34962
		},
		{
			"buffer":0,
			"byteLength":176,
			"byteOffset":4264,
			"target":34962
		},
		{
			"buffer":0,
			"byteLength":264,
			"byteOffset":4440,
			"target":34962
		},
		{
			"buffer":0,
			"byteLength":264,
			"byteOffset":4704,
			"target":34962
		},
		{
			"buffer":0,
			"byteLength":176,
			"byteOffset":4968,
			"target":34962
		},
		{
			"buffer":0,
			"byteLength":264,
			"byteOffset":5144,
			"target":34962
		},
		{
			"buffer":0,
			"byteLength":264,
			"byteOffset":5408,
			"target":34962
		},
		{
			"buffer":0,
			"byteLength":176,
			"byteOffset":5672,
			"target":34962
		}
	],
	"buffers":[
		{
			"byteLength":5848,
			"uri":"pine_roots.bin"
		}
	]
}
