{
	"asset":{
		"generator":"Khronos glTF Blender I/O v5.2.40",
		"version":"2.0"
	},
	"scene":0,
	"scenes":[
		{
			"name":"Scene",
			"nodes":[
				0,
				1,
				2,
				3,
				4,
				5,
				6,
				7,
				8,
				9,
				10,
				11,
				12,
				13,
				14,
				15,
				16,
				17,
				18,
				19
			]
		}
	],
	"nodes":[
		{
			"mesh":0,
			"name":"awn0",
			"rotation":[
				-0.12186934798955917,
				0,
				0,
				0.9925461411476135
			]
		},
		{
			"mesh":1,
			"name":"awn1",
			"rotation":[
				-0.12186934798955917,
				0,
				0,
				0.9925461411476135
			]
		},
		{
			"mesh":2,
			"name":"awn2",
			"rotation":[
				-0.12186934798955917,
				0,
				0,
				0.9925461411476135
			]
		},
		{
			"mesh":3,
			"name":"awn3",
			"rotation":[
				-0.12186934798955917,
				0,
				0,
				0.9925461411476135
			]
		},
		{
			"mesh":4,
			"name":"awn4",
			"rotation":[
				-0.12186934798955917,
				0,
				0,
				0.9925461411476135
			]
		},
		{
			"mesh":5,
			"name":"awn5",
			"rotation":[
				-0.12186934798955917,
				0,
				0,
				0.9925461411476135
			]
		},
		{
			"mesh":6,
			"name":"base"
		},
		{
			"mesh":7,
			"name":"body"
		},
		{
			"mesh":8,
			"name":"cornice"
		},
		{
			"mesh":9,
			"name":"door"
		},
		{
			"mesh":10,
			"name":"glassL"
		},
		{
			"mesh":11,
			"name":"glassR"
		},
		{
			"mesh":12,
			"name":"sign"
		},
		{
			"mesh":13,
			"name":"signIn"
		},
		{
			"mesh":14,
			"name":"sill0_0",
			"translation":[
				0,
				2.5299999713897705,
				0
			]
		},
		{
			"mesh":15,
			"name":"sill0_1",
			"translation":[
				0,
				2.5299999713897705,
				0
			]
		},
		{
			"mesh":16,
			"name":"sill0_2",
			"translation":[
				0,
				2.5299999713897705,
				0
			]
		},
		{
			"mesh":17,
			"name":"win0_0",
			"translation":[
				0,
				2.5299999713897705,
				0
			]
		},
		{
			"mesh":18,
			"name":"win0_1",
			"translation":[
				0,
				2.5299999713897705,
				0
			]
		},
		{
			"mesh":19,
			"name":"win0_2",
			"translation":[
				0,
				2.5299999713897705,
				0
			]
		}
	],
	"materials":[
		{
			"doubleSided":true,
			"name":"M_sa0",
			"pbrMetallicRoughness":{
				"baseColorFactor":[
					0.9157501459121704,
					0.8671355247497559,
					0.7518950700759888,
					1
				],
				"metallicFactor":0,
				"roughnessFactor":0.8500000238418579
			}
		},
		{
			"doubleSided":true,
			"name":"M_sa1",
			"pbrMetallicRoughness":{
				"baseColorFactor":[
					0.7518950700759888,
					0.09387587010860443,
					0.06575387716293335,
					1
				],
				"metallicFactor":0,
				"roughnessFactor":0.8500000238418579
			}
		},
		{
			"doubleSided":true,
			"name":"M_sa2",
			"pbrMetallicRoughness":{
				"baseColorFactor":[
					0.9157501459121704,
					0.8671355247497559,
					0.7518950700759888,
					1
				],
				"metallicFactor":0,
				"roughnessFactor":0.8500000238418579
			}
		},
		{
			"doubleSided":true,
			"name":"M_sa3",
			"pbrMetallicRoughness":{
				"baseColorFactor":[
					0.7518950700759888,
					0.09387587010860443,
					0.06575387716293335,
					1
				],
				"metallicFactor":0,
				"roughnessFactor":0.8500000238418579
			}
		},
		{
			"doubleSided":true,
			"name":"M_sa4",
			"pbrMetallicRoughness":{
				"baseColorFactor":[
					0.9157501459121704,
					0.8671355247497559,
					0.7518950700759888,
					1
				],
				"metallicFactor":0,
				"roughnessFactor":0.8500000238418579
			}
		},
		{
			"doubleSided":true,
			"name":"M_sa5",
			"pbrMetallicRoughness":{
				"baseColorFactor":[
					0.7518950700759888,
					0.09387587010860443,
					0.06575387716293335,
					1
				],
				"metallicFactor":0,
				"roughnessFactor":0.8500000238418579
			}
		},
		{
			"doubleSided":true,
			"name":"M_sbb",
			"pbrMetallicRoughness":{
				"baseColorFactor":[
					0.373615026473999,
					0.3488648235797882,
					0.302125483751297,
					1
				],
				"metallicFactor":0,
				"roughnessFactor":0.8500000238418579
			}
		},
		{
			"doubleSided":true,
			"name":"M_sb",
			"pbrMetallicRoughness":{
				"baseColorFactor":[
					0.701169490814209,
					0.4936161935329437,
					0.2590273320674896,
					1
				],
				"metallicFactor":0,
				"roughnessFactor":0.8500000238418579
			}
		},
		{
			"doubleSided":true,
			"name":"M_sc",
			"pbrMetallicRoughness":{
				"baseColorFactor":[
					0.5924380421638489,
					0.5604991316795349,
					0.5054324865341187,
					1
				],
				"metallicFactor":0,
				"roughnessFactor":0.8500000238418579
			}
		},
		{
			"doubleSided":true,
			"name":"M_sd",
			"pbrMetallicRoughness":{
				"baseColorFactor":[
					0.023103555664420128,
					0.037028513848781586,
					0.04943345859646797,
					1
				],
				"metallicFactor":0,
				"roughnessFactor":0.8500000238418579
			}
		},
		{
			"doubleSided":true,
			"emissiveFactor":[
				0.07551753988406418,
				0.160677959268809,
				0.2073533112261412
			],
			"name":"M_sg",
			"pbrMetallicRoughness":{
				"baseColorFactor":[
					0.21576440334320068,
					0.45907989144325256,
					0.5924380421638489,
					1
				],
				"metallicFactor":0,
				"roughnessFactor":0.8500000238418579
			}
		},
		{
			"doubleSided":true,
			"emissiveFactor":[
				0.07551753988406418,
				0.160677959268809,
				0.2073533112261412
			],
			"name":"M_sg2",
			"pbrMetallicRoughness":{
				"baseColorFactor":[
					0.21576440334320068,
					0.45907989144325256,
					0.5924380421638489,
					1
				],
				"metallicFactor":0,
				"roughnessFactor":0.8500000238418579
			}
		},
		{
			"doubleSided":true,
			"name":"M_ss",
			"pbrMetallicRoughness":{
				"baseColorFactor":[
					0.023103555664420128,
					0.037028513848781586,
					0.04943345859646797,
					1
				],
				"metallicFactor":0,
				"roughnessFactor":0.8500000238418579
			}
		},
		{
			"doubleSided":true,
			"emissiveFactor":[
				0.8999999761581421,
				0.7379673047074391,
				0.35936396362082235
			],
			"name":"M_ssi",
			"pbrMetallicRoughness":{
				"baseColorFactor":[
					1,
					0.8199636936187744,
					0.39929330348968506,
					1
				],
				"metallicFactor":0,
				"roughnessFactor":0.8500000238418579
			}
		},
		{
			"doubleSided":true,
			"name":"M_sl0_0",
			"pbrMetallicRoughness":{
				"baseColorFactor":[
					0.5924380421638489,
					0.5604991316795349,
					0.5054324865341187,
					1
				],
				"metallicFactor":0,
				"roughnessFactor":0.8500000238418579
			}
		},
		{
			"doubleSided":true,
			"name":"M_sl0_1",
			"pbrMetallicRoughness":{
				"baseColorFactor":[
					0.5924380421638489,
					0.5604991316795349,
					0.5054324865341187,
					1
				],
				"metallicFactor":0,
				"roughnessFactor":0.8500000238418579
			}
		},
		{
			"doubleSided":true,
			"name":"M_sl0_2",
			"pbrMetallicRoughness":{
				"baseColorFactor":[
					0.5924380421638489,
					0.5604991316795349,
					0.5054324865341187,
					1
				],
				"metallicFactor":0,
				"roughnessFactor":0.8500000238418579
			}
		},
		{
			"doubleSided":true,
			"name":"M_wg0_0",
			"pbrMetallicRoughness":{
				"baseColorFactor":[
					0.01606770046055317,
					0.04943345859646797,
					0.0915183499455452,
					1
				],
				"metallicFactor":0,
				"roughnessFactor":0.8500000238418579
			}
		},
		{
			"doubleSided":true,
			"name":"M_wg0_1",
			"pbrMetallicRoughness":{
				"baseColorFactor":[
					0.01606770046055317,
					0.04943345859646797,
					0.0915183499455452,
					1
				],
				"metallicFactor":0,
				"roughnessFactor":0.8500000238418579
			}
		},
		{
			"doubleSided":true,
			"emissiveFactor":[
				0.800000011920929,
				0.6559709646697485,
				0.31943464755169515
			],
			"name":"M_wg0_2",
			"pbrMetallicRoughness":{
				"baseColorFactor":[
					1,
					0.8199636936187744,
					0.39929330348968506,
					1
				],
				"metallicFactor":0,
				"roughnessFactor":0.8500000238418579
			}
		}
	],
	"meshes":[
		{
			"name":"Cube.005",
			"primitives":[
				{
					"attributes":{
						"POSITION":0,
						"NORMAL":1,
						"TEXCOORD_0":2
					},
					"indices":3,
					"material":0
				}
			]
		},
		{
			"name":"Cube.006",
			"primitives":[
				{
					"attributes":{
						"POSITION":4,
						"NORMAL":5,
						"TEXCOORD_0":6
					},
					"indices":3,
					"material":1
				}
			]
		},
		{
			"name":"Cube.007",
			"primitives":[
				{
					"attributes":{
						"POSITION":7,
						"NORMAL":8,
						"TEXCOORD_0":9
					},
					"indices":3,
					"material":2
				}
			]
		},
		{
			"name":"Cube.008",
			"primitives":[
				{
					"attributes":{
						"POSITION":10,
						"NORMAL":11,
						"TEXCOORD_0":12
					},
					"indices":3,
					"material":3
				}
			]
		},
		{
			"name":"Cube.009",
			"primitives":[
				{
					"attributes":{
						"POSITION":13,
						"NORMAL":14,
						"TEXCOORD_0":15
					},
					"indices":3,
					"material":4
				}
			]
		},
		{
			"name":"Cube.010",
			"primitives":[
				{
					"attributes":{
						"POSITION":16,
						"NORMAL":17,
						"TEXCOORD_0":18
					},
					"indices":3,
					"material":5
				}
			]
		},
		{
			"name":"Cube.001",
			"primitives":[
				{
					"attributes":{
						"POSITION":19,
						"NORMAL":20,
						"TEXCOORD_0":21
					},
					"indices":3,
					"material":6
				}
			]
		},
		{
			"name":"Cube",
			"primitives":[
				{
					"attributes":{
						"POSITION":22,
						"NORMAL":23,
						"TEXCOORD_0":24
					},
					"indices":25,
					"material":7
				}
			]
		},
		{
			"name":"Cube.019",
			"primitives":[
				{
					"attributes":{
						"POSITION":26,
						"NORMAL":27,
						"TEXCOORD_0":28
					},
					"indices":3,
					"material":8
				}
			]
		},
		{
			"name":"Cube.004",
			"primitives":[
				{
					"attributes":{
						"POSITION":29,
						"NORMAL":30,
						"TEXCOORD_0":31
					},
					"indices":3,
					"material":9
				}
			]
		},
		{
			"name":"Cube.002",
			"primitives":[
				{
					"attributes":{
						"POSITION":32,
						"NORMAL":33,
						"TEXCOORD_0":34
					},
					"indices":3,
					"material":10
				}
			]
		},
		{
			"name":"Cube.003",
			"primitives":[
				{
					"attributes":{
						"POSITION":35,
						"NORMAL":36,
						"TEXCOORD_0":37
					},
					"indices":3,
					"material":11
				}
			]
		},
		{
			"name":"Cube.011",
			"primitives":[
				{
					"attributes":{
						"POSITION":38,
						"NORMAL":39,
						"TEXCOORD_0":40
					},
					"indices":3,
					"material":12
				}
			]
		},
		{
			"name":"Cube.012",
			"primitives":[
				{
					"attributes":{
						"POSITION":41,
						"NORMAL":42,
						"TEXCOORD_0":43
					},
					"indices":3,
					"material":13
				}
			]
		},
		{
			"name":"Cube.014",
			"primitives":[
				{
					"attributes":{
						"POSITION":44,
						"NORMAL":45,
						"TEXCOORD_0":46
					},
					"indices":3,
					"material":14
				}
			]
		},
		{
			"name":"Cube.016",
			"primitives":[
				{
					"attributes":{
						"POSITION":47,
						"NORMAL":48,
						"TEXCOORD_0":49
					},
					"indices":3,
					"material":15
				}
			]
		},
		{
			"name":"Cube.018",
			"primitives":[
				{
					"attributes":{
						"POSITION":50,
						"NORMAL":51,
						"TEXCOORD_0":52
					},
					"indices":3,
					"material":16
				}
			]
		},
		{
			"name":"Cube.013",
			"primitives":[
				{
					"attributes":{
						"POSITION":53,
						"NORMAL":54,
						"TEXCOORD_0":55
					},
					"indices":3,
					"material":17
				}
			]
		},
		{
			"name":"Cube.015",
			"primitives":[
				{
					"attributes":{
						"POSITION":56,
						"NORMAL":57,
						"TEXCOORD_0":58
					},
					"indices":3,
					"material":18
				}
			]
		},
		{
			"name":"Cube.017",
			"primitives":[
				{
					"attributes":{
						"POSITION":59,
						"NORMAL":60,
						"TEXCOORD_0":61
					},
					"indices":3,
					"material":19
				}
			]
		}
	],
	"accessors":[
		{
			"bufferView":0,
			"componentType":5126,
			"count":24,
			"max":[
				-1.4189999103546143,
				2,
				3.049999952316284
			],
			"min":[
				-2.1643333435058594,
				1.9000000953674316,
				2.049999952316284
			],
			"type":"VEC3"
		},
		{
			"bufferView":1,
			"componentType":5126,
			"count":24,
			"type":"VEC3"
		},
		{
			"bufferView":2,
			"componentType":5126,
			"count":24,
			"type":"VEC2"
		},
		{
			"bufferView":3,
			"componentType":5123,
			"count":36,
			"type":"SCALAR"
		},
		{
			"bufferView":4,
			"componentType":5126,
			"count":24,
			"max":[
				-0.702333390712738,
				2,
				3.049999952316284
			],
			"min":[
				-1.4476666450500488,
				1.9000000953674316,
				2.049999952316284
			],
			"type":"VEC3"
		},
		{
			"bufferView":5,
			"componentType":5126,
			"count":24,
			"type":"VEC3"
		},
		{
			"bufferView":6,
			"componentType":5126,
			"count":24,
			"type":"VEC2"
		},
		{
			"bufferView":7,
			"componentType":5126,
			"count":24,
			"max":[
				0.014333337545394897,
				2,
				3.049999952316284
			],
			"min":[
				-0.7309999465942383,
				1.9000000953674316,
				2.049999952316284
			],
			"type":"VEC3"
		},
		{
			"bufferView":8,
			"componentType":5126,
			"count":24,
			"type":"VEC3"
		},
		{
			"bufferView":9,
			"componentType":5126,
			"count":24,
			"type":"VEC2"
		},
		{
			"bufferView":10,
			"componentType":5126,
			"count":24,
			"max":[
				0.7309999465942383,
				2,
				3.049999952316284
			],
			"min":[
				-0.014333337545394897,
				1.9000000953674316,
				2.049999952316284
			],
			"type":"VEC3"
		},
		{
			"bufferView":11,
			"componentType":5126,
			"count":24,
			"type":"VEC3"
		},
		{
			"bufferView":12,
			"componentType":5126,
			"count":24,
			"type":"VEC2"
		},
		{
			"bufferView":13,
			"componentType":5126,
			"count":24,
			"max":[
				1.4476666450500488,
				2,
				3.049999952316284
			],
			"min":[
				0.702333390712738,
				1.9000000953674316,
				2.049999952316284
			],
			"type":"VEC3"
		},
		{
			"bufferView":14,
			"componentType":5126,
			"count":24,
			"type":"VEC3"
		},
		{
			"bufferView":15,
			"componentType":5126,
			"count":24,
			"type":"VEC2"
		},
		{
			"bufferView":16,
			"componentType":5126,
			"count":24,
			"max":[
				2.1643333435058594,
				2,
				3.049999952316284
			],
			"min":[
				1.4189999103546143,
				1.9000000953674316,
				2.049999952316284
			],
			"type":"VEC3"
		},
		{
			"bufferView":17,
			"componentType":5126,
			"count":24,
			"type":"VEC3"
		},
		{
			"bufferView":18,
			"componentType":5126,
			"count":24,
			"type":"VEC2"
		},
		{
			"bufferView":19,
			"componentType":5126,
			"count":24,
			"max":[
				2.5,
				0.20000000298023224,
				2.299999952316284
			],
			"min":[
				-2.5,
				0,
				2.140000104904175
			],
			"type":"VEC3"
		},
		{
			"bufferView":20,
			"componentType":5126,
			"count":24,
			"type":"VEC3"
		},
		{
			"bufferView":21,
			"componentType":5126,
			"count":24,
			"type":"VEC2"
		},
		{
			"bufferView":22,
			"componentType":5126,
			"count":96,
			"max":[
				2.5,
				4.599999904632568,
				2.200000047683716
			],
			"min":[
				-2.5,
				0,
				-2.200000047683716
			],
			"type":"VEC3"
		},
		{
			"bufferView":23,
			"componentType":5126,
			"count":96,
			"type":"VEC3"
		},
		{
			"bufferView":24,
			"componentType":5126,
			"count":96,
			"type":"VEC2"
		},
		{
			"bufferView":25,
			"componentType":5123,
			"count":132,
			"type":"SCALAR"
		},
		{
			"bufferView":26,
			"componentType":5126,
			"count":24,
			"max":[
				2.5999999046325684,
				4.599999904632568,
				2.299999952316284
			],
			"min":[
				-2.5999999046325684,
				4.400000095367432,
				-2.299999952316284
			],
			"type":"VEC3"
		},
		{
			"bufferView":27,
			"componentType":5126,
			"count":24,
			"type":"VEC3"
		},
		{
			"bufferView":28,
			"componentType":5126,
			"count":24,
			"type":"VEC2"
		},
		{
			"bufferView":29,
			"componentType":5126,
			"count":24,
			"max":[
				0.3499999940395355,
				1.899999976158142,
				2.309999942779541
			],
			"min":[
				-0.3499999940395355,
				0,
				2.2100000381469727
			],
			"type":"VEC3"
		},
		{
			"bufferView":30,
			"componentType":5126,
			"count":24,
			"type":"VEC3"
		},
		{
			"bufferView":31,
			"componentType":5126,
			"count":24,
			"type":"VEC2"
		},
		{
			"bufferView":32,
			"componentType":5126,
			"count":24,
			"max":[
				-0.15000003576278687,
				1.850000023841858,
				2.2899999618530273
			],
			"min":[
				-2.049999952316284,
				0.1499999761581421,
				2.190000057220459
			],
			"type":"VEC3"
		},
		{
			"bufferView":33,
			"componentType":5126,
			"count":24,
			"type":"VEC3"
		},
		{
			"bufferView":34,
			"componentType":5126,
			"count":24,
			"type":"VEC2"
		},
		{
			"bufferView":35,
			"componentType":5126,
			"count":24,
			"max":[
				2.049999952316284,
				1.850000023841858,
				2.2899999618530273
			],
			"min":[
				0.15000003576278687,
				0.1499999761581421,
				2.190000057220459
			],
			"type":"VEC3"
		},
		{
			"bufferView":36,
			"componentType":5126,
			"count":24,
			"type":"VEC3"
		},
		{
			"bufferView":37,
			"componentType":5126,
			"count":24,
			"type":"VEC2"
		},
		{
			"bufferView":38,
			"componentType":5126,
			"count":24,
			"max":[
				2.0999999046325684,
				2.799999952316284,
				2.319999933242798
			],
			"min":[
				-2.0999999046325684,
				2.200000047683716,
				2.200000047683716
			],
			"type":"VEC3"
		},
		{
			"bufferView":39,
			"componentType":5126,
			"count":24,
			"type":"VEC3"
		},
		{
			"bufferView":40,
			"componentType":5126,
			"count":24,
			"type":"VEC2"
		},
		{
			"bufferView":41,
			"componentType":5126,
			"count":24,
			"max":[
				1.7999999523162842,
				2.680000066757202,
				2.299999952316284
			],
			"min":[
				-1.7999999523162842,
				2.319999933242798,
				2.259999990463257
			],
			"type":"VEC3"
		},
		{
			"bufferView":42,
			"componentType":5126,
			"count":24,
			"type":"VEC3"
		},
		{
			"bufferView":43,
			"componentType":5126,
			"count":24,
			"type":"VEC2"
		},
		{
			"bufferView":44,
			"componentType":5126,
			"count":24,
			"max":[
				-0.8533333539962769,
				0.5953999757766724,
				2.2899999618530273
			],
			"min":[
				-1.8133333921432495,
				0.5454000234603882,
				2.1700000762939453
			],
			"type":"VEC3"
		},
		{
			"bufferView":45,
			"componentType":5126,
			"count":24,
			"type":"VEC3"
		},
		{
			"bufferView":46,
			"componentType":5126,
			"count":24,
			"type":"VEC2"
		},
		{
			"bufferView":47,
			"componentType":5126,
			"count":24,
			"max":[
				0.47999998927116394,
				0.5953999757766724,
				2.2899999618530273
			],
			"min":[
				-0.47999998927116394,
				0.5454000234603882,
				2.1700000762939453
			],
			"type":"VEC3"
		},
		{
			"bufferView":48,
			"componentType":5126,
			"count":24,
			"type":"VEC3"
		},
		{
			"bufferView":49,
			"componentType":5126,
			"count":24,
			"type":"VEC2"
		},
		{
			"bufferView":50,
			"componentType":5126,
			"count":24,
			"max":[
				1.8133333921432495,
				0.5953999757766724,
				2.2899999618530273
			],
			"min":[
				0.8533333539962769,
				0.5454000234603882,
				2.1700000762939453
			],
			"type":"VEC3"
		},
		{
			"bufferView":51,
			"componentType":5126,
			"count":24,
			"type":"VEC3"
		},
		{
			"bufferView":52,
			"componentType":5126,
			"count":24,
			"type":"VEC2"
		},
		{
			"bufferView":53,
			"componentType":5126,
			"count":24,
			"max":[
				-0.9333333969116211,
				1.7848000526428223,
				2.259999990463257
			],
			"min":[
				-1.7333333492279053,
				0.6071999669075012,
				2.180000066757202
			],
			"type":"VEC3"
		},
		{
			"bufferView":54,
			"componentType":5126,
			"count":24,
			"type":"VEC3"
		},
		{
			"bufferView":55,
			"componentType":5126,
			"count":24,
			"type":"VEC2"
		},
		{
			"bufferView":56,
			"componentType":5126,
			"count":24,
			"max":[
				0.4000000059604645,
				1.7848000526428223,
				2.259999990463257
			],
			"min":[
				-0.4000000059604645,
				0.6071999669075012,
				2.180000066757202
			],
			"type":"VEC3"
		},
		{
			"bufferView":57,
			"componentType":5126,
			"count":24,
			"type":"VEC3"
		},
		{
			"bufferView":58,
			"componentType":5126,
			"count":24,
			"type":"VEC2"
		},
		{
			"bufferView":59,
			"componentType":5126,
			"count":24,
			"max":[
				1.7333333492279053,
				1.7848000526428223,
				2.259999990463257
			],
			"min":[
				0.9333333969116211,
				0.6071999669075012,
				2.180000066757202
			],
			"type":"VEC3"
		},
		{
			"bufferView":60,
			"componentType":5126,
			"count":24,
			"type":"VEC3"
		},
		{
			"bufferView":61,
			"componentType":5126,
			"count":24,
			"type":"VEC2"
		}
	],
	"bufferViews":[
		{
			"buffer":0,
			"byteLength":288,
			"byteOffset":0,
			"target":34962
		},
		{
			"buffer":0,
			"byteLength":288,
			"byteOffset":288,
			"target":34962
		},
		{
			"buffer":0,
			"byteLength":192,
			"byteOffset":576,
			"target":34962
		},
		{
			"buffer":0,
			"byteLength":72,
			"byteOffset":768,
			"target":34963
		},
		{
			"buffer":0,
			"byteLength":288,
			"byteOffset":840,
			"target":34962
		},
		{
			"buffer":0,
			"byteLength":288,
			"byteOffset":1128,
			"target":34962
		},
		{
			"buffer":0,
			"byteLength":192,
			"byteOffset":1416,
			"target":34962
		},
		{
			"buffer":0,
			"byteLength":288,
			"byteOffset":1608,
			"target":34962
		},
		{
			"buffer":0,
			"byteLength":288,
			"byteOffset":1896,
			"target":34962
		},
		{
			"buffer":0,
			"byteLength":192,
			"byteOffset":2184,
			"target":34962
		},
		{
			"buffer":0,
			"byteLength":288,
			"byteOffset":2376,
			"target":34962
		},
		{
			"buffer":0,
			"byteLength":288,
			"byteOffset":2664,
			"target":34962
		},
		{
			"buffer":0,
			"byteLength":192,
			"byteOffset":2952,
			"target":34962
		},
		{
			"buffer":0,
			"byteLength":288,
			"byteOffset":3144,
			"target":34962
		},
		{
			"buffer":0,
			"byteLength":288,
			"byteOffset":3432,
			"target":34962
		},
		{
			"buffer":0,
			"byteLength":192,
			"byteOffset":3720,
			"target":34962
		},
		{
			"buffer":0,
			"byteLength":288,
			"byteOffset":3912,
			"target":34962
		},
		{
			"buffer":0,
			"byteLength":288,
			"byteOffset":4200,
			"target":34962
		},
		{
			"buffer":0,
			"byteLength":192,
			"byteOffset":4488,
			"target":34962
		},
		{
			"buffer":0,
			"byteLength":288,
			"byteOffset":4680,
			"target":34962
		},
		{
			"buffer":0,
			"byteLength":288,
			"byteOffset":4968,
			"target":34962
		},
		{
			"buffer":0,
			"byteLength":192,
			"byteOffset":5256,
			"target":34962
		},
		{
			"buffer":0,
			"byteLength":1152,
			"byteOffset":5448,
			"target":34962
		},
		{
			"buffer":0,
			"byteLength":1152,
			"byteOffset":6600,
			"target":34962
		},
		{
			"buffer":0,
			"byteLength":768,
			"byteOffset":7752,
			"target":34962
		},
		{
			"buffer":0,
			"byteLength":264,
			"byteOffset":8520,
			"target":34963
		},
		{
			"buffer":0,
			"byteLength":288,
			"byteOffset":8784,
			"target":34962
		},
		{
			"buffer":0,
			"byteLength":288,
			"byteOffset":9072,
			"target":34962
		},
		{
			"buffer":0,
			"byteLength":192,
			"byteOffset":9360,
			"target":34962
		},
		{
			"buffer":0,
			"byteLength":288,
			"byteOffset":9552,
			"target":34962
		},
		{
			"buffer":0,
			"byteLength":288,
			"byteOffset":9840,
			"target":34962
		},
		{
			"buffer":0,
			"byteLength":192,
			"byteOffset":10128,
			"target":34962
		},
		{
			"buffer":0,
			"byteLength":288,
			"byteOffset":10320,
			"target":34962
		},
		{
			"buffer":0,
			"byteLength":288,
			"byteOffset":10608,
			"target":34962
		},
		{
			"buffer":0,
			"byteLength":192,
			"byteOffset":10896,
			"target":34962
		},
		{
			"buffer":0,
			"byteLength":288,
			"byteOffset":11088,
			"target":34962
		},
		{
			"buffer":0,
			"byteLength":288,
			"byteOffset":11376,
			"target":34962
		},
		{
			"buffer":0,
			"byteLength":192,
			"byteOffset":11664,
			"target":34962
		},
		{
			"buffer":0,
			"byteLength":288,
			"byteOffset":11856,
			"target":34962
		},
		{
			"buffer":0,
			"byteLength":288,
			"byteOffset":12144,
			"target":34962
		},
		{
			"buffer":0,
			"byteLength":192,
			"byteOffset":12432,
			"target":34962
		},
		{
			"buffer":0,
			"byteLength":288,
			"byteOffset":12624,
			"target":34962
		},
		{
			"buffer":0,
			"byteLength":288,
			"byteOffset":12912,
			"target":34962
		},
		{
			"buffer":0,
			"byteLength":192,
			"byteOffset":13200,
			"target":34962
		},
		{
			"buffer":0,
			"byteLength":288,
			"byteOffset":13392,
			"target":34962
		},
		{
			"buffer":0,
			"byteLength":288,
			"byteOffset":13680,
			"target":34962
		},
		{
			"buffer":0,
			"byteLength":192,
			"byteOffset":13968,
			"target":34962
		},
		{
			"buffer":0,
			"byteLength":288,
			"byteOffset":14160,
			"target":34962
		},
		{
			"buffer":0,
			"byteLength":288,
			"byteOffset":14448,
			"target":34962
		},
		{
			"buffer":0,
			"byteLength":192,
			"byteOffset":14736,
			"target":34962
		},
		{
			"buffer":0,
			"byteLength":288,
			"byteOffset":14928,
			"target":34962
		},
		{
			"buffer":0,
			"byteLength":288,
			"byteOffset":15216,
			"target":34962
		},
		{
			"buffer":0,
			"byteLength":192,
			"byteOffset":15504,
			"target":34962
		},
		{
			"buffer":0,
			"byteLength":288,
			"byteOffset":15696,
			"target":34962
		},
		{
			"buffer":0,
			"byteLength":288,
			"byteOffset":15984,
			"target":34962
		},
		{
			"buffer":0,
			"byteLength":192,
			"byteOffset":16272,
			"target":34962
		},
		{
			"buffer":0,
			"byteLength":288,
			"byteOffset":16464,
			"target":34962
		},
		{
			"buffer":0,
			"byteLength":288,
			"byteOffset":16752,
			"target":34962
		},
		{
			"buffer":0,
			"byteLength":192,
			"byteOffset":17040,
			"target":34962
		},
		{
			"buffer":0,
			"byteLength":288,
			"byteOffset":17232,
			"target":34962
		},
		{
			"buffer":0,
			"byteLength":288,
			"byteOffset":17520,
			"target":34962
		},
		{
			"buffer":0,
			"byteLength":192,
			"byteOffset":17808,
			"target":34962
		}
	],
	"buffers":[
		{
			"byteLength":18000,
			"uri":"hd_bldg_shop.bin"
		}
	]
}
