{
	"asset":{
		"generator":"Khronos glTF Blender I/O v5.2.40",
		"version":"2.0"
	},
	"scene":0,
	"scenes":[
		{
			"name":"Scene",
			"nodes":[
				0,
				1,
				2,
				3
			]
		}
	],
	"nodes":[
		{
			"mesh":0,
			"name":"barrel"
		},
		{
			"mesh":1,
			"name":"hoop"
		},
		{
			"mesh":2,
			"name":"hoop.001"
		},
		{
			"mesh":3,
			"name":"hoop.002"
		}
	],
	"materials":[
		{
			"doubleSided":true,
			"name":"M_brl",
			"pbrMetallicRoughness":{
				"baseColorFactor":[
					0.33922332525253296,
					0.14799802005290985,
					0.041451890021562576,
					1
				],
				"metallicFactor":0,
				"roughnessFactor":0.8500000238418579
			}
		},
		{
			"doubleSided":true,
			"name":"M_bhp",
			"pbrMetallicRoughness":{
				"baseColorFactor":[
					0.06575387716293335,
					0.05284162610769272,
					0.0477757528424263,
					1
				],
				"metallicFactor":0.4000000059604645,
				"roughnessFactor":0.8500000238418579
			}
		}
	],
	"meshes":[
		{
			"name":"barrel",
			"primitives":[
				{
					"attributes":{
						"POSITION":0,
						"NORMAL":1
					},
					"indices":2,
					"material":0
				}
			]
		},
		{
			"name":"Torus",
			"primitives":[
				{
					"attributes":{
						"POSITION":3,
						"NORMAL":4,
						"TEXCOORD_0":5
					},
					"indices":6,
					"material":1
				}
			]
		},
		{
			"name":"Torus.001",
			"primitives":[
				{
					"attributes":{
						"POSITION":7,
						"NORMAL":8,
						"TEXCOORD_0":9
					},
					"indices":6,
					"material":1
				}
			]
		},
		{
			"name":"Torus.002",
			"primitives":[
				{
					"attributes":{
						"POSITION":10,
						"NORMAL":11,
						"TEXCOORD_0":12
					},
					"indices":6,
					"material":1
				}
			]
		}
	],
	"accessors":[
		{
			"bufferView":0,
			"componentType":5126,
			"count":102,
			"max":[
				0.19243796169757843,
				0.8719475269317627,
				0.19356957077980042
			],
			"min":[
				-0.19243492186069489,
				0.0006841421127319336,
				-0.1794397234916687
			],
			"type":"VEC3"
		},
		{
			"bufferView":1,
			"componentType":5126,
			"count":102,
			"type":"VEC3"
		},
		{
			"bufferView":2,
			"componentType":5123,
			"count":600,
			"type":"SCALAR"
		},
		{
			"bufferView":3,
			"componentType":5126,
			"count":192,
			"max":[
				0.3701118528842926,
				0.20720013976097107,
				0.3771752715110779
			],
			"min":[
				-0.37010881304740906,
				0.17752408981323242,
				-0.3630453944206238
			],
			"type":"VEC3"
		},
		{
			"bufferView":4,
			"componentType":5126,
			"count":192,
			"type":"VEC3"
		},
		{
			"bufferView":5,
			"componentType":5126,
			"count":192,
			"type":"VEC2"
		},
		{
			"bufferView":6,
			"componentType":5123,
			"count":288,
			"type":"SCALAR"
		},
		{
			"bufferView":7,
			"componentType":5126,
			"count":192,
			"max":[
				0.3929125666618347,
				0.45115387439727783,
				0.3999759554862976
			],
			"min":[
				-0.39290952682495117,
				0.4214777946472168,
				-0.3858461380004883
			],
			"type":"VEC3"
		},
		{
			"bufferView":8,
			"componentType":5126,
			"count":192,
			"type":"VEC3"
		},
		{
			"bufferView":9,
			"componentType":5126,
			"count":192,
			"type":"VEC2"
		},
		{
			"bufferView":10,
			"componentType":5126,
			"count":192,
			"max":[
				0.3701118528842926,
				0.695107638835907,
				0.3771752715110779
			],
			"min":[
				-0.37010881304740906,
				0.665431559085846,
				-0.3630453944206238
			],
			"type":"VEC3"
		},
		{
			"bufferView":11,
			"componentType":5126,
			"count":192,
			"type":"VEC3"
		},
		{
			"bufferView":12,
			"componentType":5126,
			"count":192,
			"type":"VEC2"
		}
	],
	"bufferViews":[
		{
			"buffer":0,
			"byteLength":1224,
			"byteOffset":0,
			"target":34962
		},
		{
			"buffer":0,
			"byteLength":1224,
			"byteOffset":1224,
			"target":34962
		},
		{
			"buffer":0,
			"byteLength":1200,
			"byteOffset":2448,
			"target":34963
		},
		{
			"buffer":0,
			"byteLength":2304,
			"byteOffset":3648,
			"target":34962
		},
		{
			"buffer":0,
			"byteLength":2304,
			"byteOffset":5952,
			"target":34962
		},
		{
			"buffer":0,
			"byteLength":1536,
			"byteOffset":8256,
			"target":34962
		},
		{
			"buffer":0,
			"byteLength":576,
			"byteOffset":9792,
			"target":34963
		},
		{
			"buffer":0,
			"byteLength":2304,
			"byteOffset":10368,
			"target":34962
		},
		{
			"buffer":0,
			"byteLength":2304,
			"byteOffset":12672,
			"target":34962
		},
		{
			"buffer":0,
			"byteLength":1536,
			"byteOffset":14976,
			"target":34962
		},
		{
			"buffer":0,
			"byteLength":2304,
			"byteOffset":16512,
			"target":34962
		},
		{
			"buffer":0,
			"byteLength":2304,
			"byteOffset":18816,
			"target":34962
		},
		{
			"buffer":0,
			"byteLength":1536,
			"byteOffset":21120,
			"target":34962
		}
	],
	"buffers":[
		{
			"byteLength":22656,
			"uri":"wine_barrel_01.bin"
		}
	]
}
