{
	"asset":{
		"generator":"Khronos glTF Blender I/O v5.2.40",
		"version":"2.0"
	},
	"scene":0,
	"scenes":[
		{
			"name":"Scene",
			"nodes":[
				0,
				1,
				2,
				3,
				4,
				5
			]
		}
	],
	"nodes":[
		{
			"mesh":0,
			"name":"cap"
		},
		{
			"mesh":1,
			"name":"strata0"
		},
		{
			"mesh":2,
			"name":"strata1"
		},
		{
			"mesh":3,
			"name":"strata2"
		},
		{
			"mesh":4,
			"name":"strata3"
		},
		{
			"mesh":5,
			"name":"strata4"
		}
	],
	"materials":[
		{
			"doubleSided":true,
			"name":"M_mc",
			"pbrMetallicRoughness":{
				"baseColorFactor":[
					0.39929330348968506,
					0.10114516317844391,
					0.03561437129974365,
					1
				],
				"metallicFactor":0,
				"roughnessFactor":0.8500000238418579
			}
		},
		{
			"doubleSided":true,
			"name":"M_ms0",
			"pbrMetallicRoughness":{
				"baseColorFactor":[
					0.5924380421638489,
					0.2590273320674896,
					0.10114516317844391,
					1
				],
				"metallicFactor":0,
				"roughnessFactor":0.8500000238418579
			}
		},
		{
			"doubleSided":true,
			"name":"M_ms1",
			"pbrMetallicRoughness":{
				"baseColorFactor":[
					0.7518950700759888,
					0.47044023871421814,
					0.14497213065624237,
					1
				],
				"metallicFactor":0,
				"roughnessFactor":0.8500000238418579
			}
		},
		{
			"doubleSided":true,
			"name":"M_ms2",
			"pbrMetallicRoughness":{
				"baseColorFactor":[
					0.535641610622406,
					0.16364067792892456,
					0.06190747395157814,
					1
				],
				"metallicFactor":0,
				"roughnessFactor":0.8500000238418579
			}
		},
		{
			"doubleSided":true,
			"name":"M_ms3",
			"pbrMetallicRoughness":{
				"baseColorFactor":[
					0.7518950700759888,
					0.47044023871421814,
					0.14497213065624237,
					1
				],
				"metallicFactor":0,
				"roughnessFactor":0.8500000238418579
			}
		},
		{
			"doubleSided":true,
			"name":"M_ms4",
			"pbrMetallicRoughness":{
				"baseColorFactor":[
					0.39929330348968506,
					0.10114516317844391,
					0.03561437129974365,
					1
				],
				"metallicFactor":0,
				"roughnessFactor":0.8500000238418579
			}
		}
	],
	"meshes":[
		{
			"name":"Icosphere",
			"primitives":[
				{
					"attributes":{
						"POSITION":0,
						"NORMAL":1,
						"TEXCOORD_0":2
					},
					"indices":3,
					"material":0
				}
			]
		},
		{
			"name":"Cube",
			"primitives":[
				{
					"attributes":{
						"POSITION":4,
						"NORMAL":5,
						"TEXCOORD_0":6
					},
					"indices":7,
					"material":1
				}
			]
		},
		{
			"name":"Cube.001",
			"primitives":[
				{
					"attributes":{
						"POSITION":8,
						"NORMAL":9,
						"TEXCOORD_0":10
					},
					"indices":7,
					"material":2
				}
			]
		},
		{
			"name":"Cube.002",
			"primitives":[
				{
					"attributes":{
						"POSITION":11,
						"NORMAL":12,
						"TEXCOORD_0":13
					},
					"indices":14,
					"material":3
				}
			]
		},
		{
			"name":"Cube.003",
			"primitives":[
				{
					"attributes":{
						"POSITION":15,
						"NORMAL":16,
						"TEXCOORD_0":17
					},
					"indices":14,
					"material":4
				}
			]
		},
		{
			"name":"Cube.004",
			"primitives":[
				{
					"attributes":{
						"POSITION":18,
						"NORMAL":19,
						"TEXCOORD_0":20
					},
					"indices":14,
					"material":5
				}
			]
		}
	],
	"accessors":[
		{
			"bufferView":0,
			"componentType":5126,
			"count":22,
			"max":[
				0.9595453143119812,
				4.321788311004639,
				0.820172131061554
			],
			"min":[
				-0.9399018883705139,
				3.57612943649292,
				-0.8294109106063843
			],
			"type":"VEC3"
		},
		{
			"bufferView":1,
			"componentType":5126,
			"count":22,
			"type":"VEC3"
		},
		{
			"bufferView":2,
			"componentType":5126,
			"count":22,
			"type":"VEC2"
		},
		{
			"bufferView":3,
			"componentType":5123,
			"count":60,
			"type":"SCALAR"
		},
		{
			"bufferView":4,
			"componentType":5126,
			"count":82,
			"max":[
				2.9722495079040527,
				0.7839615941047668,
				2.3234260082244873
			],
			"min":[
				-2.9722495079040527,
				0,
				-2.3234260082244873
			],
			"type":"VEC3"
		},
		{
			"bufferView":5,
			"componentType":5126,
			"count":82,
			"type":"VEC3"
		},
		{
			"bufferView":6,
			"componentType":5126,
			"count":82,
			"type":"VEC2"
		},
		{
			"bufferView":7,
			"componentType":5123,
			"count":132,
			"type":"SCALAR"
		},
		{
			"bufferView":8,
			"componentType":5126,
			"count":82,
			"max":[
				2.391664505004883,
				1.4545100927352905,
				2.2614288330078125
			],
			"min":[
				-2.5302767753601074,
				0.7212446928024292,
				-2.1339077949523926
			],
			"type":"VEC3"
		},
		{
			"bufferView":9,
			"componentType":5126,
			"count":82,
			"type":"VEC3"
		},
		{
			"bufferView":10,
			"componentType":5126,
			"count":82,
			"type":"VEC2"
		},
		{
			"bufferView":11,
			"componentType":5126,
			"count":96,
			"max":[
				2.282233476638794,
				2.4025683403015137,
				1.85904860496521
			],
			"min":[
				-2.3094747066497803,
				1.3958488702774048,
				-1.992553949356079
			],
			"type":"VEC3"
		},
		{
			"bufferView":12,
			"componentType":5126,
			"count":96,
			"type":"VEC3"
		},
		{
			"bufferView":13,
			"componentType":5126,
			"count":96,
			"type":"VEC2"
		},
		{
			"bufferView":14,
			"componentType":5123,
			"count":132,
			"type":"SCALAR"
		},
		{
			"bufferView":15,
			"componentType":5126,
			"count":96,
			"max":[
				2.0351176261901855,
				3.0803122520446777,
				1.4871149063110352
			],
			"min":[
				-1.9950604438781738,
				2.322031021118164,
				-1.834517478942871
			],
			"type":"VEC3"
		},
		{
			"bufferView":16,
			"componentType":5126,
			"count":96,
			"type":"VEC3"
		},
		{
			"bufferView":17,
			"componentType":5126,
			"count":96,
			"type":"VEC2"
		},
		{
			"bufferView":18,
			"componentType":5126,
			"count":96,
			"max":[
				1.6645312309265137,
				3.931044578552246,
				1.5597410202026367
			],
			"min":[
				-1.4546377658843994,
				3.0196495056152344,
				-1.1781749725341797
			],
			"type":"VEC3"
		},
		{
			"bufferView":19,
			"componentType":5126,
			"count":96,
			"type":"VEC3"
		},
		{
			"bufferView":20,
			"componentType":5126,
			"count":96,
			"type":"VEC2"
		}
	],
	"bufferViews":[
		{
			"buffer":0,
			"byteLength":264,
			"byteOffset":0,
			"target":34962
		},
		{
			"buffer":0,
			"byteLength":264,
			"byteOffset":264,
			"target":34962
		},
		{
			"buffer":0,
			"byteLength":176,
			"byteOffset":528,
			"target":34962
		},
		{
			"buffer":0,
			"byteLength":120,
			"byteOffset":704,
			"target":34963
		},
		{
			"buffer":0,
			"byteLength":984,
			"byteOffset":824,
			"target":34962
		},
		{
			"buffer":0,
			"byteLength":984,
			"byteOffset":1808,
			"target":34962
		},
		{
			"buffer":0,
			"byteLength":656,
			"byteOffset":2792,
			"target":34962
		},
		{
			"buffer":0,
			"byteLength":264,
			"byteOffset":3448,
			"target":34963
		},
		{
			"buffer":0,
			"byteLength":984,
			"byteOffset":3712,
			"target":34962
		},
		{
			"buffer":0,
			"byteLength":984,
			"byteOffset":4696,
			"target":34962
		},
		{
			"buffer":0,
			"byteLength":656,
			"byteOffset":5680,
			"target":34962
		},
		{
			"buffer":0,
			"byteLength":1152,
			"byteOffset":6336,
			"target":34962
		},
		{
			"buffer":0,
			"byteLength":1152,
			"byteOffset":7488,
			"target":34962
		},
		{
			"buffer":0,
			"byteLength":768,
			"byteOffset":8640,
			"target":34962
		},
		{
			"buffer":0,
			"byteLength":264,
			"byteOffset":9408,
			"target":34963
		},
		{
			"buffer":0,
			"byteLength":1152,
			"byteOffset":9672,
			"target":34962
		},
		{
			"buffer":0,
			"byteLength":1152,
			"byteOffset":10824,
			"target":34962
		},
		{
			"buffer":0,
			"byteLength":768,
			"byteOffset":11976,
			"target":34962
		},
		{
			"buffer":0,
			"byteLength":1152,
			"byteOffset":12744,
			"target":34962
		},
		{
			"buffer":0,
			"byteLength":1152,
			"byteOffset":13896,
			"target":34962
		},
		{
			"buffer":0,
			"byteLength":768,
			"byteOffset":15048,
			"target":34962
		}
	],
	"buffers":[
		{
			"byteLength":15816,
			"uri":"hd_mesa_a.bin"
		}
	]
}
