{
	"asset":{
		"generator":"Khronos glTF Blender I/O v5.2.40",
		"version":"2.0"
	},
	"extensionsUsed":[
		"KHR_materials_emissive_strength"
	],
	"scene":0,
	"scenes":[
		{
			"name":"Scene",
			"nodes":[
				0,
				1,
				2,
				3,
				4,
				5,
				6,
				7,
				8,
				9,
				10,
				11,
				12,
				13,
				14
			]
		}
	],
	"nodes":[
		{
			"mesh":0,
			"name":"ArrowPlank"
		},
		{
			"mesh":1,
			"name":"ArrowTip"
		},
		{
			"mesh":2,
			"name":"Base1"
		},
		{
			"mesh":3,
			"name":"Base2"
		},
		{
			"mesh":4,
			"name":"Cap"
		},
		{
			"mesh":5,
			"name":"Chev1_0"
		},
		{
			"mesh":6,
			"name":"Chev1_1"
		},
		{
			"mesh":7,
			"name":"Chev-1_0"
		},
		{
			"mesh":8,
			"name":"Chev-1_1"
		},
		{
			"mesh":9,
			"name":"Lantern"
		},
		{
			"mesh":10,
			"name":"LanternArm"
		},
		{
			"mesh":11,
			"name":"LanternCap"
		},
		{
			"mesh":12,
			"name":"Post"
		},
		{
			"mesh":13,
			"name":"Rope0"
		},
		{
			"mesh":14,
			"name":"Rope1"
		}
	],
	"materials":[
		{
			"doubleSided":true,
			"name":"M_SignWood",
			"pbrMetallicRoughness":{
				"baseColorFactor":[
					0.5668097138404846,
					0.2590273320674896,
					0.06575387716293335,
					1
				],
				"metallicFactor":0,
				"roughnessFactor":0.800000011920929
			}
		},
		{
			"doubleSided":true,
			"name":"M_SignStone",
			"pbrMetallicRoughness":{
				"baseColorFactor":[
					0.23882798850536346,
					0.20109573006629944,
					0.16364067792892456,
					1
				],
				"metallicFactor":0,
				"roughnessFactor":0.8999999761581421
			}
		},
		{
			"doubleSided":true,
			"name":"M_SignDark",
			"pbrMetallicRoughness":{
				"baseColorFactor":[
					0.33922332525253296,
					0.14799802005290985,
					0.03561437129974365,
					1
				],
				"metallicFactor":0,
				"roughnessFactor":0.8500000238418579
			}
		},
		{
			"doubleSided":true,
			"name":"M_SignPaint",
			"pbrMetallicRoughness":{
				"baseColorFactor":[
					0.7817506790161133,
					0.09387587010860443,
					0.023103555664420128,
					1
				],
				"metallicFactor":0,
				"roughnessFactor":0.699999988079071
			}
		},
		{
			"doubleSided":true,
			"emissiveFactor":[
				1,
				0.6870307922363281,
				0.15728072822093964
			],
			"extensions":{
				"KHR_materials_emissive_strength":{
					"emissiveStrength":2
				}
			},
			"name":"M_SignGlow",
			"pbrMetallicRoughness":{
				"baseColorFactor":[
					1,
					0.6870307922363281,
					0.15728072822093964,
					1
				],
				"metallicFactor":0,
				"roughnessFactor":0.6000000238418579
			}
		},
		{
			"doubleSided":true,
			"name":"M_SignRope",
			"pbrMetallicRoughness":{
				"baseColorFactor":[
					0.2590273320674896,
					0.14799802005290985,
					0.05637409910559654,
					1
				],
				"metallicFactor":0,
				"roughnessFactor":0.8999999761581421
			}
		}
	],
	"meshes":[
		{
			"name":"Cube.003",
			"primitives":[
				{
					"attributes":{
						"POSITION":0,
						"NORMAL":1,
						"TEXCOORD_0":2
					},
					"indices":3,
					"material":0
				}
			]
		},
		{
			"name":"ArrowTip",
			"primitives":[
				{
					"attributes":{
						"POSITION":4,
						"NORMAL":5
					},
					"indices":6,
					"material":0
				}
			]
		},
		{
			"name":"Cube",
			"primitives":[
				{
					"attributes":{
						"POSITION":7,
						"NORMAL":8,
						"TEXCOORD_0":9
					},
					"indices":10,
					"material":1
				}
			]
		},
		{
			"name":"Cube.001",
			"primitives":[
				{
					"attributes":{
						"POSITION":11,
						"NORMAL":12,
						"TEXCOORD_0":13
					},
					"indices":14,
					"material":1
				}
			]
		},
		{
			"name":"Icosphere",
			"primitives":[
				{
					"attributes":{
						"POSITION":15,
						"NORMAL":16,
						"TEXCOORD_0":17
					},
					"indices":18,
					"material":2
				}
			]
		},
		{
			"name":"Cube.006",
			"primitives":[
				{
					"attributes":{
						"POSITION":19,
						"NORMAL":20,
						"TEXCOORD_0":21
					},
					"indices":22,
					"material":3
				}
			]
		},
		{
			"name":"Cube.007",
			"primitives":[
				{
					"attributes":{
						"POSITION":23,
						"NORMAL":24,
						"TEXCOORD_0":25
					},
					"indices":22,
					"material":3
				}
			]
		},
		{
			"name":"Cube.004",
			"primitives":[
				{
					"attributes":{
						"POSITION":26,
						"NORMAL":27,
						"TEXCOORD_0":28
					},
					"indices":22,
					"material":3
				}
			]
		},
		{
			"name":"Cube.005",
			"primitives":[
				{
					"attributes":{
						"POSITION":29,
						"NORMAL":30,
						"TEXCOORD_0":31
					},
					"indices":22,
					"material":3
				}
			]
		},
		{
			"name":"Cube.009",
			"primitives":[
				{
					"attributes":{
						"POSITION":32,
						"NORMAL":33,
						"TEXCOORD_0":34
					},
					"indices":3,
					"material":4
				}
			]
		},
		{
			"name":"Cube.008",
			"primitives":[
				{
					"attributes":{
						"POSITION":35,
						"NORMAL":36,
						"TEXCOORD_0":37
					},
					"indices":38,
					"material":2
				}
			]
		},
		{
			"name":"Cube.010",
			"primitives":[
				{
					"attributes":{
						"POSITION":39,
						"NORMAL":40,
						"TEXCOORD_0":41
					},
					"indices":38,
					"material":2
				}
			]
		},
		{
			"name":"Cube.002",
			"primitives":[
				{
					"attributes":{
						"POSITION":42,
						"NORMAL":43,
						"TEXCOORD_0":44
					},
					"indices":10,
					"material":0
				}
			]
		},
		{
			"name":"Torus",
			"primitives":[
				{
					"attributes":{
						"POSITION":45,
						"NORMAL":46,
						"TEXCOORD_0":47
					},
					"indices":48,
					"material":5
				}
			]
		},
		{
			"name":"Torus.001",
			"primitives":[
				{
					"attributes":{
						"POSITION":49,
						"NORMAL":50,
						"TEXCOORD_0":51
					},
					"indices":52,
					"material":5
				}
			]
		}
	],
	"accessors":[
		{
			"bufferView":0,
			"componentType":5126,
			"count":96,
			"max":[
				1.2300000190734863,
				1.9200000762939453,
				0.09000000357627869
			],
			"min":[
				-0.8699999451637268,
				1.3199999332427979,
				-0.09000000357627869
			],
			"type":"VEC3"
		},
		{
			"bufferView":1,
			"componentType":5126,
			"count":96,
			"type":"VEC3"
		},
		{
			"bufferView":2,
			"componentType":5126,
			"count":96,
			"type":"VEC2"
		},
		{
			"bufferView":3,
			"componentType":5123,
			"count":132,
			"type":"SCALAR"
		},
		{
			"bufferView":4,
			"componentType":5126,
			"count":18,
			"max":[
				1.0800000429153442,
				1.7699999809265137,
				0.054999999701976776
			],
			"min":[
				0.699999988079071,
				1.4700000286102295,
				-0.054999999701976776
			],
			"type":"VEC3"
		},
		{
			"bufferView":5,
			"componentType":5126,
			"count":18,
			"type":"VEC3"
		},
		{
			"bufferView":6,
			"componentType":5123,
			"count":24,
			"type":"SCALAR"
		},
		{
			"bufferView":7,
			"componentType":5126,
			"count":96,
			"max":[
				0.6512752771377563,
				0.30000001192092896,
				0.558494508266449
			],
			"min":[
				-0.6512752771377563,
				-0.10000000149011612,
				-0.558494508266449
			],
			"type":"VEC3"
		},
		{
			"bufferView":8,
			"componentType":5126,
			"count":96,
			"type":"VEC3"
		},
		{
			"bufferView":9,
			"componentType":5126,
			"count":96,
			"type":"VEC2"
		},
		{
			"bufferView":10,
			"componentType":5123,
			"count":132,
			"type":"SCALAR"
		},
		{
			"bufferView":11,
			"componentType":5126,
			"count":96,
			"max":[
				0.5723598003387451,
				0.46000000834465027,
				0.5162872076034546
			],
			"min":[
				-0.5176818370819092,
				0.09999999403953552,
				-0.4692732095718384
			],
			"type":"VEC3"
		},
		{
			"bufferView":12,
			"componentType":5126,
			"count":96,
			"type":"VEC3"
		},
		{
			"bufferView":13,
			"componentType":5126,
			"count":96,
			"type":"VEC2"
		},
		{
			"bufferView":14,
			"componentType":5123,
			"count":132,
			"type":"SCALAR"
		},
		{
			"bufferView":15,
			"componentType":5126,
			"count":60,
			"max":[
				0.11627524346113205,
				2.049999952316284,
				0.11058319360017776
			],
			"min":[
				-0.11627524346113205,
				1.7899999618530273,
				-0.11058319360017776
			],
			"type":"VEC3"
		},
		{
			"bufferView":16,
			"componentType":5126,
			"count":60,
			"type":"VEC3"
		},
		{
			"bufferView":17,
			"componentType":5126,
			"count":60,
			"type":"VEC2"
		},
		{
			"bufferView":18,
			"componentType":5123,
			"count":60,
			"type":"SCALAR"
		},
		{
			"bufferView":19,
			"componentType":5126,
			"count":24,
			"max":[
				-0.551080584526062,
				1.7003142833709717,
				-0.03999999910593033
			],
			"min":[
				-0.9962482452392578,
				1.1533454656600952,
				-0.06400000303983688
			],
			"type":"VEC3"
		},
		{
			"bufferView":20,
			"componentType":5126,
			"count":24,
			"type":"VEC3"
		},
		{
			"bufferView":21,
			"componentType":5126,
			"count":24,
			"type":"VEC2"
		},
		{
			"bufferView":22,
			"componentType":5123,
			"count":36,
			"type":"SCALAR"
		},
		{
			"bufferView":23,
			"componentType":5126,
			"count":24,
			"max":[
				-0.33058807253837585,
				1.8380932807922363,
				-0.03999999910593033
			],
			"min":[
				-0.7757557034492493,
				1.2911244630813599,
				-0.06400000303983688
			],
			"type":"VEC3"
		},
		{
			"bufferView":24,
			"componentType":5126,
			"count":24,
			"type":"VEC3"
		},
		{
			"bufferView":25,
			"componentType":5126,
			"count":24,
			"type":"VEC2"
		},
		{
			"bufferView":26,
			"componentType":5126,
			"count":24,
			"max":[
				-0.551080584526062,
				1.7003142833709717,
				0.06400000303983688
			],
			"min":[
				-0.9962482452392578,
				1.1533454656600952,
				0.03999999910593033
			],
			"type":"VEC3"
		},
		{
			"bufferView":27,
			"componentType":5126,
			"count":24,
			"type":"VEC3"
		},
		{
			"bufferView":28,
			"componentType":5126,
			"count":24,
			"type":"VEC2"
		},
		{
			"bufferView":29,
			"componentType":5126,
			"count":24,
			"max":[
				-0.33058807253837585,
				1.8380932807922363,
				0.06400000303983688
			],
			"min":[
				-0.7757557034492493,
				1.2911244630813599,
				0.03999999910593033
			],
			"type":"VEC3"
		},
		{
			"bufferView":30,
			"componentType":5126,
			"count":24,
			"type":"VEC3"
		},
		{
			"bufferView":31,
			"componentType":5126,
			"count":24,
			"type":"VEC2"
		},
		{
			"bufferView":32,
			"componentType":5126,
			"count":96,
			"max":[
				-0.30000001192092896,
				1.7000000476837158,
				0.14000000059604645
			],
			"min":[
				-0.5799999833106995,
				1.2999999523162842,
				-0.14000000059604645
			],
			"type":"VEC3"
		},
		{
			"bufferView":33,
			"componentType":5126,
			"count":96,
			"type":"VEC3"
		},
		{
			"bufferView":34,
			"componentType":5126,
			"count":96,
			"type":"VEC2"
		},
		{
			"bufferView":35,
			"componentType":5126,
			"count":24,
			"max":[
				-0.03999999165534973,
				1.75,
				0.05000000074505806
			],
			"min":[
				-0.6399999856948853,
				1.6500000953674316,
				-0.05000000074505806
			],
			"type":"VEC3"
		},
		{
			"bufferView":36,
			"componentType":5126,
			"count":24,
			"type":"VEC3"
		},
		{
			"bufferView":37,
			"componentType":5126,
			"count":24,
			"type":"VEC2"
		},
		{
			"bufferView":38,
			"componentType":5123,
			"count":36,
			"type":"SCALAR"
		},
		{
			"bufferView":39,
			"componentType":5126,
			"count":24,
			"max":[
				-0.25999999046325684,
				1.6799999475479126,
				0.18000000715255737
			],
			"min":[
				-0.6200000047683716,
				1.5800000429153442,
				-0.18000000715255737
			],
			"type":"VEC3"
		},
		{
			"bufferView":40,
			"componentType":5126,
			"count":24,
			"type":"VEC3"
		},
		{
			"bufferView":41,
			"componentType":5126,
			"count":24,
			"type":"VEC2"
		},
		{
			"bufferView":42,
			"componentType":5126,
			"count":96,
			"max":[
				0.17373740673065186,
				2.6500000953674316,
				0.17373740673065186
			],
			"min":[
				-0.17373740673065186,
				-0.5500000715255737,
				-0.17373740673065186
			],
			"type":"VEC3"
		},
		{
			"bufferView":43,
			"componentType":5126,
			"count":96,
			"type":"VEC3"
		},
		{
			"bufferView":44,
			"componentType":5126,
			"count":96,
			"type":"VEC2"
		},
		{
			"bufferView":45,
			"componentType":5126,
			"count":2304,
			"max":[
				0.1379999965429306,
				1.6380000114440918,
				0.028000008314847946
			],
			"min":[
				-0.1379999965429306,
				1.3619999885559082,
				-0.028000008314847946
			],
			"type":"VEC3"
		},
		{
			"bufferView":46,
			"componentType":5126,
			"count":2304,
			"type":"VEC3"
		},
		{
			"bufferView":47,
			"componentType":5126,
			"count":2304,
			"type":"VEC2"
		},
		{
			"bufferView":48,
			"componentType":5123,
			"count":3456,
			"type":"SCALAR"
		},
		{
			"bufferView":49,
			"componentType":5126,
			"count":2304,
			"max":[
				0.1379999965429306,
				1.878000020980835,
				0.028000008314847946
			],
			"min":[
				-0.1379999965429306,
				1.6019999980926514,
				-0.028000008314847946
			],
			"type":"VEC3"
		},
		{
			"bufferView":50,
			"componentType":5126,
			"count":2304,
			"type":"VEC3"
		},
		{
			"bufferView":51,
			"componentType":5126,
			"count":2304,
			"type":"VEC2"
		},
		{
			"bufferView":52,
			"componentType":5123,
			"count":3456,
			"type":"SCALAR"
		}
	],
	"bufferViews":[
		{
			"buffer":0,
			"byteLength":1152,
			"byteOffset":0,
			"target":34962
		},
		{
			"buffer":0,
			"byteLength":1152,
			"byteOffset":1152,
			"target":34962
		},
		{
			"buffer":0,
			"byteLength":768,
			"byteOffset":2304,
			"target":34962
		},
		{
			"buffer":0,
			"byteLength":264,
			"byteOffset":3072,
			"target":34963
		},
		{
			"buffer":0,
			"byteLength":216,
			"byteOffset":3336,
			"target":34962
		},
		{
			"buffer":0,
			"byteLength":216,
			"byteOffset":3552,
			"target":34962
		},
		{
			"buffer":0,
			"byteLength":48,
			"byteOffset":3768,
			"target":34963
		},
		{
			"buffer":0,
			"byteLength":1152,
			"byteOffset":3816,
			"target":34962
		},
		{
			"buffer":0,
			"byteLength":1152,
			"byteOffset":4968,
			"target":34962
		},
		{
			"buffer":0,
			"byteLength":768,
			"byteOffset":6120,
			"target":34962
		},
		{
			"buffer":0,
			"byteLength":264,
			"byteOffset":6888,
			"target":34963
		},
		{
			"buffer":0,
			"byteLength":1152,
			"byteOffset":7152,
			"target":34962
		},
		{
			"buffer":0,
			"byteLength":1152,
			"byteOffset":8304,
			"target":34962
		},
		{
			"buffer":0,
			"byteLength":768,
			"byteOffset":9456,
			"target":34962
		},
		{
			"buffer":0,
			"byteLength":264,
			"byteOffset":10224,
			"target":34963
		},
		{
			"buffer":0,
			"byteLength":720,
			"byteOffset":10488,
			"target":34962
		},
		{
			"buffer":0,
			"byteLength":720,
			"byteOffset":11208,
			"target":34962
		},
		{
			"buffer":0,
			"byteLength":480,
			"byteOffset":11928,
			"target":34962
		},
		{
			"buffer":0,
			"byteLength":120,
			"byteOffset":12408,
			"target":34963
		},
		{
			"buffer":0,
			"byteLength":288,
			"byteOffset":12528,
			"target":34962
		},
		{
			"buffer":0,
			"byteLength":288,
			"byteOffset":12816,
			"target":34962
		},
		{
			"buffer":0,
			"byteLength":192,
			"byteOffset":13104,
			"target":34962
		},
		{
			"buffer":0,
			"byteLength":72,
			"byteOffset":13296,
			"target":34963
		},
		{
			"buffer":0,
			"byteLength":288,
			"byteOffset":13368,
			"target":34962
		},
		{
			"buffer":0,
			"byteLength":288,
			"byteOffset":13656,
			"target":34962
		},
		{
			"buffer":0,
			"byteLength":192,
			"byteOffset":13944,
			"target":34962
		},
		{
			"buffer":0,
			"byteLength":288,
			"byteOffset":14136,
			"target":34962
		},
		{
			"buffer":0,
			"byteLength":288,
			"byteOffset":14424,
			"target":34962
		},
		{
			"buffer":0,
			"byteLength":192,
			"byteOffset":14712,
			"target":34962
		},
		{
			"buffer":0,
			"byteLength":288,
			"byteOffset":14904,
			"target":34962
		},
		{
			"buffer":0,
			"byteLength":288,
			"byteOffset":15192,
			"target":34962
		},
		{
			"buffer":0,
			"byteLength":192,
			"byteOffset":15480,
			"target":34962
		},
		{
			"buffer":0,
			"byteLength":1152,
			"byteOffset":15672,
			"target":34962
		},
		{
			"buffer":0,
			"byteLength":1152,
			"byteOffset":16824,
			"target":34962
		},
		{
			"buffer":0,
			"byteLength":768,
			"byteOffset":17976,
			"target":34962
		},
		{
			"buffer":0,
			"byteLength":288,
			"byteOffset":18744,
			"target":34962
		},
		{
			"buffer":0,
			"byteLength":288,
			"byteOffset":19032,
			"target":34962
		},
		{
			"buffer":0,
			"byteLength":192,
			"byteOffset":19320,
			"target":34962
		},
		{
			"buffer":0,
			"byteLength":72,
			"byteOffset":19512,
			"target":34963
		},
		{
			"buffer":0,
			"byteLength":288,
			"byteOffset":19584,
			"target":34962
		},
		{
			"buffer":0,
			"byteLength":288,
			"byteOffset":19872,
			"target":34962
		},
		{
			"buffer":0,
			"byteLength":192,
			"byteOffset":20160,
			"target":34962
		},
		{
			"buffer":0,
			"byteLength":1152,
			"byteOffset":20352,
			"target":34962
		},
		{
			"buffer":0,
			"byteLength":1152,
			"byteOffset":21504,
			"target":34962
		},
		{
			"buffer":0,
			"byteLength":768,
			"byteOffset":22656,
			"target":34962
		},
		{
			"buffer":0,
			"byteLength":27648,
			"byteOffset":23424,
			"target":34962
		},
		{
			"buffer":0,
			"byteLength":27648,
			"byteOffset":51072,
			"target":34962
		},
		{
			"buffer":0,
			"byteLength":18432,
			"byteOffset":78720,
			"target":34962
		},
		{
			"buffer":0,
			"byteLength":6912,
			"byteOffset":97152,
			"target":34963
		},
		{
			"buffer":0,
			"byteLength":27648,
			"byteOffset":104064,
			"target":34962
		},
		{
			"buffer":0,
			"byteLength":27648,
			"byteOffset":131712,
			"target":34962
		},
		{
			"buffer":0,
			"byteLength":18432,
			"byteOffset":159360,
			"target":34962
		},
		{
			"buffer":0,
			"byteLength":6912,
			"byteOffset":177792,
			"target":34963
		}
	],
	"buffers":[
		{
			"byteLength":184704,
			"uri":"bl_turnsign.bin"
		}
	]
}
