{
	"asset":{
		"generator":"Khronos glTF Blender I/O v5.2.40",
		"version":"2.0"
	},
	"scene":0,
	"scenes":[
		{
			"name":"Scene",
			"nodes":[
				0,
				1,
				2,
				3,
				4,
				5,
				6
			]
		}
	],
	"nodes":[
		{
			"mesh":0,
			"name":"cap"
		},
		{
			"mesh":1,
			"name":"strata0"
		},
		{
			"mesh":2,
			"name":"strata1"
		},
		{
			"mesh":3,
			"name":"strata2"
		},
		{
			"mesh":4,
			"name":"strata3"
		},
		{
			"mesh":5,
			"name":"strata4"
		},
		{
			"mesh":6,
			"name":"strata5"
		}
	],
	"materials":[
		{
			"doubleSided":true,
			"name":"M_mc",
			"pbrMetallicRoughness":{
				"baseColorFactor":[
					0.39929330348968506,
					0.10114516317844391,
					0.03561437129974365,
					1
				],
				"metallicFactor":0,
				"roughnessFactor":0.8500000238418579
			}
		},
		{
			"doubleSided":true,
			"name":"M_ms0",
			"pbrMetallicRoughness":{
				"baseColorFactor":[
					0.5924380421638489,
					0.2590273320674896,
					0.10114516317844391,
					1
				],
				"metallicFactor":0,
				"roughnessFactor":0.8500000238418579
			}
		},
		{
			"doubleSided":true,
			"name":"M_ms1",
			"pbrMetallicRoughness":{
				"baseColorFactor":[
					0.7518950700759888,
					0.47044023871421814,
					0.14497213065624237,
					1
				],
				"metallicFactor":0,
				"roughnessFactor":0.8500000238418579
			}
		},
		{
			"doubleSided":true,
			"name":"M_ms2",
			"pbrMetallicRoughness":{
				"baseColorFactor":[
					0.535641610622406,
					0.16364067792892456,
					0.06190747395157814,
					1
				],
				"metallicFactor":0,
				"roughnessFactor":0.8500000238418579
			}
		},
		{
			"doubleSided":true,
			"name":"M_ms3",
			"pbrMetallicRoughness":{
				"baseColorFactor":[
					0.7518950700759888,
					0.47044023871421814,
					0.14497213065624237,
					1
				],
				"metallicFactor":0,
				"roughnessFactor":0.8500000238418579
			}
		},
		{
			"doubleSided":true,
			"name":"M_ms4",
			"pbrMetallicRoughness":{
				"baseColorFactor":[
					0.39929330348968506,
					0.10114516317844391,
					0.03561437129974365,
					1
				],
				"metallicFactor":0,
				"roughnessFactor":0.8500000238418579
			}
		},
		{
			"doubleSided":true,
			"name":"M_ms5",
			"pbrMetallicRoughness":{
				"baseColorFactor":[
					0.5924380421638489,
					0.2590273320674896,
					0.10114516317844391,
					1
				],
				"metallicFactor":0,
				"roughnessFactor":0.8500000238418579
			}
		}
	],
	"meshes":[
		{
			"name":"Icosphere",
			"primitives":[
				{
					"attributes":{
						"POSITION":0,
						"NORMAL":1,
						"TEXCOORD_0":2
					},
					"indices":3,
					"material":0
				}
			]
		},
		{
			"name":"Cube",
			"primitives":[
				{
					"attributes":{
						"POSITION":4,
						"NORMAL":5,
						"TEXCOORD_0":6
					},
					"indices":7,
					"material":1
				}
			]
		},
		{
			"name":"Cube.001",
			"primitives":[
				{
					"attributes":{
						"POSITION":8,
						"NORMAL":9,
						"TEXCOORD_0":10
					},
					"indices":7,
					"material":2
				}
			]
		},
		{
			"name":"Cube.002",
			"primitives":[
				{
					"attributes":{
						"POSITION":11,
						"NORMAL":12,
						"TEXCOORD_0":13
					},
					"indices":7,
					"material":3
				}
			]
		},
		{
			"name":"Cube.003",
			"primitives":[
				{
					"attributes":{
						"POSITION":14,
						"NORMAL":15,
						"TEXCOORD_0":16
					},
					"indices":7,
					"material":4
				}
			]
		},
		{
			"name":"Cube.004",
			"primitives":[
				{
					"attributes":{
						"POSITION":17,
						"NORMAL":18,
						"TEXCOORD_0":19
					},
					"indices":7,
					"material":5
				}
			]
		},
		{
			"name":"Cube.005",
			"primitives":[
				{
					"attributes":{
						"POSITION":20,
						"NORMAL":21,
						"TEXCOORD_0":22
					},
					"indices":7,
					"material":6
				}
			]
		}
	],
	"accessors":[
		{
			"bufferView":0,
			"componentType":5126,
			"count":22,
			"max":[
				0.7209842801094055,
				6.103447437286377,
				0.6621086597442627
			],
			"min":[
				-0.6763638257980347,
				5.042740345001221,
				-0.6276202201843262
			],
			"type":"VEC3"
		},
		{
			"bufferView":1,
			"componentType":5126,
			"count":22,
			"type":"VEC3"
		},
		{
			"bufferView":2,
			"componentType":5126,
			"count":22,
			"type":"VEC2"
		},
		{
			"bufferView":3,
			"componentType":5123,
			"count":60,
			"type":"SCALAR"
		},
		{
			"bufferView":4,
			"componentType":5126,
			"count":96,
			"max":[
				2.22918701171875,
				0.9332876205444336,
				1.7425695657730103
			],
			"min":[
				-2.22918701171875,
				0,
				-1.7425695657730103
			],
			"type":"VEC3"
		},
		{
			"bufferView":5,
			"componentType":5126,
			"count":96,
			"type":"VEC3"
		},
		{
			"bufferView":6,
			"componentType":5126,
			"count":96,
			"type":"VEC2"
		},
		{
			"bufferView":7,
			"componentType":5123,
			"count":132,
			"type":"SCALAR"
		},
		{
			"bufferView":8,
			"componentType":5126,
			"count":96,
			"max":[
				1.8404322862625122,
				1.7315596342086792,
				1.722054362297058
			],
			"min":[
				-1.9270647764205933,
				0.8586245775222778,
				-1.6423536539077759
			],
			"type":"VEC3"
		},
		{
			"bufferView":9,
			"componentType":5126,
			"count":96,
			"type":"VEC3"
		},
		{
			"bufferView":10,
			"componentType":5126,
			"count":96,
			"type":"VEC2"
		},
		{
			"bufferView":11,
			"componentType":5126,
			"count":96,
			"max":[
				1.7943212985992432,
				2.8602006435394287,
				1.4705274105072021
			],
			"min":[
				-1.8113470077514648,
				1.6617248058319092,
				-1.5539681911468506
			],
			"type":"VEC3"
		},
		{
			"bufferView":12,
			"componentType":5126,
			"count":96,
			"type":"VEC3"
		},
		{
			"bufferView":13,
			"componentType":5126,
			"count":96,
			"type":"VEC2"
		},
		{
			"bufferView":14,
			"componentType":5126,
			"count":96,
			"max":[
				1.6478979587554932,
				3.6670382022857666,
				1.2393006086349487
			],
			"min":[
				-1.6228623390197754,
				2.764322519302368,
				-1.4564272165298462
			],
			"type":"VEC3"
		},
		{
			"bufferView":15,
			"componentType":5126,
			"count":96,
			"type":"VEC3"
		},
		{
			"bufferView":16,
			"componentType":5126,
			"count":96,
			"type":"VEC2"
		},
		{
			"bufferView":17,
			"componentType":5126,
			"count":96,
			"max":[
				1.388453483581543,
				4.679815292358398,
				1.2804092168807983
			],
			"min":[
				-1.257270097732544,
				3.5948212146759033,
				-1.0419303178787231
			],
			"type":"VEC3"
		},
		{
			"bufferView":18,
			"componentType":5126,
			"count":96,
			"type":"VEC3"
		},
		{
			"bufferView":19,
			"componentType":5126,
			"count":96,
			"type":"VEC2"
		},
		{
			"bufferView":20,
			"componentType":5126,
			"count":96,
			"max":[
				1.4553234577178955,
				5.453869819641113,
				0.6728113293647766
			],
			"min":[
				-1.0614404678344727,
				4.593015670776367,
				-1.2410304546356201
			],
			"type":"VEC3"
		},
		{
			"bufferView":21,
			"componentType":5126,
			"count":96,
			"type":"VEC3"
		},
		{
			"bufferView":22,
			"componentType":5126,
			"count":96,
			"type":"VEC2"
		}
	],
	"bufferViews":[
		{
			"buffer":0,
			"byteLength":264,
			"byteOffset":0,
			"target":34962
		},
		{
			"buffer":0,
			"byteLength":264,
			"byteOffset":264,
			"target":34962
		},
		{
			"buffer":0,
			"byteLength":176,
			"byteOffset":528,
			"target":34962
		},
		{
			"buffer":0,
			"byteLength":120,
			"byteOffset":704,
			"target":34963
		},
		{
			"buffer":0,
			"byteLength":1152,
			"byteOffset":824,
			"target":34962
		},
		{
			"buffer":0,
			"byteLength":1152,
			"byteOffset":1976,
			"target":34962
		},
		{
			"buffer":0,
			"byteLength":768,
			"byteOffset":3128,
			"target":34962
		},
		{
			"buffer":0,
			"byteLength":264,
			"byteOffset":3896,
			"target":34963
		},
		{
			"buffer":0,
			"byteLength":1152,
			"byteOffset":4160,
			"target":34962
		},
		{
			"buffer":0,
			"byteLength":1152,
			"byteOffset":5312,
			"target":34962
		},
		{
			"buffer":0,
			"byteLength":768,
			"byteOffset":6464,
			"target":34962
		},
		{
			"buffer":0,
			"byteLength":1152,
			"byteOffset":7232,
			"target":34962
		},
		{
			"buffer":0,
			"byteLength":1152,
			"byteOffset":8384,
			"target":34962
		},
		{
			"buffer":0,
			"byteLength":768,
			"byteOffset":9536,
			"target":34962
		},
		{
			"buffer":0,
			"byteLength":1152,
			"byteOffset":10304,
			"target":34962
		},
		{
			"buffer":0,
			"byteLength":1152,
			"byteOffset":11456,
			"target":34962
		},
		{
			"buffer":0,
			"byteLength":768,
			"byteOffset":12608,
			"target":34962
		},
		{
			"buffer":0,
			"byteLength":1152,
			"byteOffset":13376,
			"target":34962
		},
		{
			"buffer":0,
			"byteLength":1152,
			"byteOffset":14528,
			"target":34962
		},
		{
			"buffer":0,
			"byteLength":768,
			"byteOffset":15680,
			"target":34962
		},
		{
			"buffer":0,
			"byteLength":1152,
			"byteOffset":16448,
			"target":34962
		},
		{
			"buffer":0,
			"byteLength":1152,
			"byteOffset":17600,
			"target":34962
		},
		{
			"buffer":0,
			"byteLength":768,
			"byteOffset":18752,
			"target":34962
		}
	],
	"buffers":[
		{
			"byteLength":19520,
			"uri":"hd_mesa_b.bin"
		}
	]
}
