{
	"asset":{
		"generator":"Khronos glTF Blender I/O v5.2.40",
		"version":"2.0"
	},
	"scene":0,
	"scenes":[
		{
			"name":"Scene",
			"nodes":[
				0,
				1,
				2,
				3,
				4,
				5,
				6,
				7,
				8,
				9,
				10,
				11,
				12,
				13
			]
		}
	],
	"nodes":[
		{
			"mesh":0,
			"name":"band0"
		},
		{
			"mesh":1,
			"name":"band1"
		},
		{
			"mesh":2,
			"name":"band2"
		},
		{
			"mesh":3,
			"name":"band3"
		},
		{
			"mesh":4,
			"name":"band4"
		},
		{
			"mesh":5,
			"name":"body"
		},
		{
			"mesh":6,
			"name":"lit2_0"
		},
		{
			"mesh":7,
			"name":"lit3_2"
		},
		{
			"mesh":8,
			"name":"mul0"
		},
		{
			"mesh":9,
			"name":"mul1"
		},
		{
			"mesh":10,
			"name":"mul2"
		},
		{
			"mesh":11,
			"name":"mul3"
		},
		{
			"mesh":12,
			"name":"penthouse"
		},
		{
			"mesh":13,
			"name":"roof"
		}
	],
	"materials":[
		{
			"doubleSided":true,
			"name":"M_mbb0",
			"pbrMetallicRoughness":{
				"baseColorFactor":[
					0.03423020616173744,
					0.05112205073237419,
					0.07382776588201523,
					1
				],
				"metallicFactor":0,
				"roughnessFactor":0.8500000238418579
			}
		},
		{
			"doubleSided":true,
			"name":"M_mbb1",
			"pbrMetallicRoughness":{
				"baseColorFactor":[
					0.03423020616173744,
					0.05112205073237419,
					0.07382776588201523,
					1
				],
				"metallicFactor":0,
				"roughnessFactor":0.8500000238418579
			}
		},
		{
			"doubleSided":true,
			"name":"M_mbb2",
			"pbrMetallicRoughness":{
				"baseColorFactor":[
					0.03423020616173744,
					0.05112205073237419,
					0.07382776588201523,
					1
				],
				"metallicFactor":0,
				"roughnessFactor":0.8500000238418579
			}
		},
		{
			"doubleSided":true,
			"name":"M_mbb3",
			"pbrMetallicRoughness":{
				"baseColorFactor":[
					0.03423020616173744,
					0.05112205073237419,
					0.07382776588201523,
					1
				],
				"metallicFactor":0,
				"roughnessFactor":0.8500000238418579
			}
		},
		{
			"doubleSided":true,
			"name":"M_mbb4",
			"pbrMetallicRoughness":{
				"baseColorFactor":[
					0.03423020616173744,
					0.05112205073237419,
					0.07382776588201523,
					1
				],
				"metallicFactor":0,
				"roughnessFactor":0.8500000238418579
			}
		},
		{
			"doubleSided":true,
			"name":"M_mb",
			"pbrMetallicRoughness":{
				"baseColorFactor":[
					0.21576440334320068,
					0.45907989144325256,
					0.5924380421638489,
					1
				],
				"metallicFactor":0,
				"roughnessFactor":0.3499999940395355
			}
		},
		{
			"doubleSided":true,
			"emissiveFactor":[
				0.34143562927526006,
				0.5263265400899044,
				0.5903587956026826
			],
			"name":"M_ml2_0",
			"pbrMetallicRoughness":{
				"baseColorFactor":[
					0.48776519298553467,
					0.7518950700759888,
					0.843369722366333,
					1
				],
				"metallicFactor":0,
				"roughnessFactor":0.8500000238418579
			}
		},
		{
			"doubleSided":true,
			"emissiveFactor":[
				0.34143562927526006,
				0.5263265400899044,
				0.5903587956026826
			],
			"name":"M_ml3_2",
			"pbrMetallicRoughness":{
				"baseColorFactor":[
					0.48776519298553467,
					0.7518950700759888,
					0.843369722366333,
					1
				],
				"metallicFactor":0,
				"roughnessFactor":0.8500000238418579
			}
		},
		{
			"doubleSided":true,
			"name":"M_mm0",
			"pbrMetallicRoughness":{
				"baseColorFactor":[
					0.03423020616173744,
					0.05112205073237419,
					0.07382776588201523,
					1
				],
				"metallicFactor":0,
				"roughnessFactor":0.8500000238418579
			}
		},
		{
			"doubleSided":true,
			"name":"M_mm1",
			"pbrMetallicRoughness":{
				"baseColorFactor":[
					0.03423020616173744,
					0.05112205073237419,
					0.07382776588201523,
					1
				],
				"metallicFactor":0,
				"roughnessFactor":0.8500000238418579
			}
		},
		{
			"doubleSided":true,
			"name":"M_mm2",
			"pbrMetallicRoughness":{
				"baseColorFactor":[
					0.03423020616173744,
					0.05112205073237419,
					0.07382776588201523,
					1
				],
				"metallicFactor":0,
				"roughnessFactor":0.8500000238418579
			}
		},
		{
			"doubleSided":true,
			"name":"M_mm3",
			"pbrMetallicRoughness":{
				"baseColorFactor":[
					0.03423020616173744,
					0.05112205073237419,
					0.07382776588201523,
					1
				],
				"metallicFactor":0,
				"roughnessFactor":0.8500000238418579
			}
		},
		{
			"doubleSided":true,
			"name":"M_mp",
			"pbrMetallicRoughness":{
				"baseColorFactor":[
					0.5924380421638489,
					0.5604991316795349,
					0.5054324865341187,
					1
				],
				"metallicFactor":0,
				"roughnessFactor":0.8500000238418579
			}
		},
		{
			"doubleSided":true,
			"name":"M_mr",
			"pbrMetallicRoughness":{
				"baseColorFactor":[
					0.373615026473999,
					0.3488648235797882,
					0.302125483751297,
					1
				],
				"metallicFactor":0,
				"roughnessFactor":0.8500000238418579
			}
		}
	],
	"meshes":[
		{
			"name":"Cube.005",
			"primitives":[
				{
					"attributes":{
						"POSITION":0,
						"NORMAL":1,
						"TEXCOORD_0":2
					},
					"indices":3,
					"material":0
				}
			]
		},
		{
			"name":"Cube.006",
			"primitives":[
				{
					"attributes":{
						"POSITION":4,
						"NORMAL":5,
						"TEXCOORD_0":6
					},
					"indices":3,
					"material":1
				}
			]
		},
		{
			"name":"Cube.007",
			"primitives":[
				{
					"attributes":{
						"POSITION":7,
						"NORMAL":8,
						"TEXCOORD_0":9
					},
					"indices":3,
					"material":2
				}
			]
		},
		{
			"name":"Cube.008",
			"primitives":[
				{
					"attributes":{
						"POSITION":10,
						"NORMAL":11,
						"TEXCOORD_0":12
					},
					"indices":3,
					"material":3
				}
			]
		},
		{
			"name":"Cube.009",
			"primitives":[
				{
					"attributes":{
						"POSITION":13,
						"NORMAL":14,
						"TEXCOORD_0":15
					},
					"indices":3,
					"material":4
				}
			]
		},
		{
			"name":"Cube",
			"primitives":[
				{
					"attributes":{
						"POSITION":16,
						"NORMAL":17,
						"TEXCOORD_0":18
					},
					"indices":19,
					"material":5
				}
			]
		},
		{
			"name":"Cube.010",
			"primitives":[
				{
					"attributes":{
						"POSITION":20,
						"NORMAL":21,
						"TEXCOORD_0":22
					},
					"indices":3,
					"material":6
				}
			]
		},
		{
			"name":"Cube.011",
			"primitives":[
				{
					"attributes":{
						"POSITION":23,
						"NORMAL":24,
						"TEXCOORD_0":25
					},
					"indices":3,
					"material":7
				}
			]
		},
		{
			"name":"Cube.001",
			"primitives":[
				{
					"attributes":{
						"POSITION":26,
						"NORMAL":27,
						"TEXCOORD_0":28
					},
					"indices":3,
					"material":8
				}
			]
		},
		{
			"name":"Cube.002",
			"primitives":[
				{
					"attributes":{
						"POSITION":29,
						"NORMAL":30,
						"TEXCOORD_0":31
					},
					"indices":3,
					"material":9
				}
			]
		},
		{
			"name":"Cube.003",
			"primitives":[
				{
					"attributes":{
						"POSITION":32,
						"NORMAL":33,
						"TEXCOORD_0":34
					},
					"indices":3,
					"material":10
				}
			]
		},
		{
			"name":"Cube.004",
			"primitives":[
				{
					"attributes":{
						"POSITION":35,
						"NORMAL":36,
						"TEXCOORD_0":37
					},
					"indices":3,
					"material":11
				}
			]
		},
		{
			"name":"Cube.013",
			"primitives":[
				{
					"attributes":{
						"POSITION":38,
						"NORMAL":39,
						"TEXCOORD_0":40
					},
					"indices":3,
					"material":12
				}
			]
		},
		{
			"name":"Cube.012",
			"primitives":[
				{
					"attributes":{
						"POSITION":41,
						"NORMAL":42,
						"TEXCOORD_0":43
					},
					"indices":3,
					"material":13
				}
			]
		}
	],
	"accessors":[
		{
			"bufferView":0,
			"componentType":5126,
			"count":24,
			"max":[
				1.9500000476837158,
				1.6174999475479126,
				2.1700000762939453
			],
			"min":[
				-1.9500000476837158,
				1.5175000429153442,
				2.0900001525878906
			],
			"type":"VEC3"
		},
		{
			"bufferView":1,
			"componentType":5126,
			"count":24,
			"type":"VEC3"
		},
		{
			"bufferView":2,
			"componentType":5126,
			"count":24,
			"type":"VEC2"
		},
		{
			"bufferView":3,
			"componentType":5123,
			"count":36,
			"type":"SCALAR"
		},
		{
			"bufferView":4,
			"componentType":5126,
			"count":24,
			"max":[
				1.9500000476837158,
				3.232499837875366,
				2.1700000762939453
			],
			"min":[
				-1.9500000476837158,
				3.132499933242798,
				2.0900001525878906
			],
			"type":"VEC3"
		},
		{
			"bufferView":5,
			"componentType":5126,
			"count":24,
			"type":"VEC3"
		},
		{
			"bufferView":6,
			"componentType":5126,
			"count":24,
			"type":"VEC2"
		},
		{
			"bufferView":7,
			"componentType":5126,
			"count":24,
			"max":[
				1.9500000476837158,
				4.847500324249268,
				2.1700000762939453
			],
			"min":[
				-1.9500000476837158,
				4.747499942779541,
				2.0900001525878906
			],
			"type":"VEC3"
		},
		{
			"bufferView":8,
			"componentType":5126,
			"count":24,
			"type":"VEC3"
		},
		{
			"bufferView":9,
			"componentType":5126,
			"count":24,
			"type":"VEC2"
		},
		{
			"bufferView":10,
			"componentType":5126,
			"count":24,
			"max":[
				1.9500000476837158,
				6.462500095367432,
				2.1700000762939453
			],
			"min":[
				-1.9500000476837158,
				6.362499713897705,
				2.0900001525878906
			],
			"type":"VEC3"
		},
		{
			"bufferView":11,
			"componentType":5126,
			"count":24,
			"type":"VEC3"
		},
		{
			"bufferView":12,
			"componentType":5126,
			"count":24,
			"type":"VEC2"
		},
		{
			"bufferView":13,
			"componentType":5126,
			"count":24,
			"max":[
				1.9500000476837158,
				8.077500343322754,
				2.1700000762939453
			],
			"min":[
				-1.9500000476837158,
				7.977499961853027,
				2.0900001525878906
			],
			"type":"VEC3"
		},
		{
			"bufferView":14,
			"componentType":5126,
			"count":24,
			"type":"VEC3"
		},
		{
			"bufferView":15,
			"componentType":5126,
			"count":24,
			"type":"VEC2"
		},
		{
			"bufferView":16,
			"componentType":5126,
			"count":96,
			"max":[
				2.0999999046325684,
				9.5,
				2.0999999046325684
			],
			"min":[
				-2.0999999046325684,
				0,
				-2.0999999046325684
			],
			"type":"VEC3"
		},
		{
			"bufferView":17,
			"componentType":5126,
			"count":96,
			"type":"VEC3"
		},
		{
			"bufferView":18,
			"componentType":5126,
			"count":96,
			"type":"VEC2"
		},
		{
			"bufferView":19,
			"componentType":5123,
			"count":132,
			"type":"SCALAR"
		},
		{
			"bufferView":20,
			"componentType":5126,
			"count":24,
			"max":[
				-0.6664000153541565,
				6.572812557220459,
				2.1649999618530273
			],
			"min":[
				-1.293600082397461,
				5.504062175750732,
				2.125
			],
			"type":"VEC3"
		},
		{
			"bufferView":21,
			"componentType":5126,
			"count":24,
			"type":"VEC3"
		},
		{
			"bufferView":22,
			"componentType":5126,
			"count":24,
			"type":"VEC2"
		},
		{
			"bufferView":23,
			"componentType":5126,
			"count":24,
			"max":[
				1.293600082397461,
				8.3540620803833,
				2.1649999618530273
			],
			"min":[
				0.6664000153541565,
				7.285312175750732,
				2.125
			],
			"type":"VEC3"
		},
		{
			"bufferView":24,
			"componentType":5126,
			"count":24,
			"type":"VEC3"
		},
		{
			"bufferView":25,
			"componentType":5126,
			"count":24,
			"type":"VEC2"
		},
		{
			"bufferView":26,
			"componentType":5126,
			"count":24,
			"max":[
				-1.5250000953674316,
				9.100000381469727,
				2.1700000762939453
			],
			"min":[
				-1.625,
				0.40000009536743164,
				2.0900001525878906
			],
			"type":"VEC3"
		},
		{
			"bufferView":27,
			"componentType":5126,
			"count":24,
			"type":"VEC3"
		},
		{
			"bufferView":28,
			"componentType":5126,
			"count":24,
			"type":"VEC2"
		},
		{
			"bufferView":29,
			"componentType":5126,
			"count":24,
			"max":[
				-0.47499996423721313,
				9.100000381469727,
				2.1700000762939453
			],
			"min":[
				-0.574999988079071,
				0.40000009536743164,
				2.0900001525878906
			],
			"type":"VEC3"
		},
		{
			"bufferView":30,
			"componentType":5126,
			"count":24,
			"type":"VEC3"
		},
		{
			"bufferView":31,
			"componentType":5126,
			"count":24,
			"type":"VEC2"
		},
		{
			"bufferView":32,
			"componentType":5126,
			"count":24,
			"max":[
				0.574999988079071,
				9.100000381469727,
				2.1700000762939453
			],
			"min":[
				0.47499996423721313,
				0.40000009536743164,
				2.0900001525878906
			],
			"type":"VEC3"
		},
		{
			"bufferView":33,
			"componentType":5126,
			"count":24,
			"type":"VEC3"
		},
		{
			"bufferView":34,
			"componentType":5126,
			"count":24,
			"type":"VEC2"
		},
		{
			"bufferView":35,
			"componentType":5126,
			"count":24,
			"max":[
				1.625,
				9.100000381469727,
				2.1700000762939453
			],
			"min":[
				1.5250000953674316,
				0.40000009536743164,
				2.0900001525878906
			],
			"type":"VEC3"
		},
		{
			"bufferView":36,
			"componentType":5126,
			"count":24,
			"type":"VEC3"
		},
		{
			"bufferView":37,
			"componentType":5126,
			"count":24,
			"type":"VEC2"
		},
		{
			"bufferView":38,
			"componentType":5126,
			"count":24,
			"max":[
				1.2999999523162842,
				10.470000267028809,
				0.30000001192092896
			],
			"min":[
				-0.09999996423721313,
				9.630000114440918,
				-0.9000000357627869
			],
			"type":"VEC3"
		},
		{
			"bufferView":39,
			"componentType":5126,
			"count":24,
			"type":"VEC3"
		},
		{
			"bufferView":40,
			"componentType":5126,
			"count":24,
			"type":"VEC2"
		},
		{
			"bufferView":41,
			"componentType":5126,
			"count":24,
			"max":[
				2.1600000858306885,
				9.739999771118164,
				2.1600000858306885
			],
			"min":[
				-2.1600000858306885,
				9.5,
				-2.1600000858306885
			],
			"type":"VEC3"
		},
		{
			"bufferView":42,
			"componentType":5126,
			"count":24,
			"type":"VEC3"
		},
		{
			"bufferView":43,
			"componentType":5126,
			"count":24,
			"type":"VEC2"
		}
	],
	"bufferViews":[
		{
			"buffer":0,
			"byteLength":288,
			"byteOffset":0,
			"target":34962
		},
		{
			"buffer":0,
			"byteLength":288,
			"byteOffset":288,
			"target":34962
		},
		{
			"buffer":0,
			"byteLength":192,
			"byteOffset":576,
			"target":34962
		},
		{
			"buffer":0,
			"byteLength":72,
			"byteOffset":768,
			"target":34963
		},
		{
			"buffer":0,
			"byteLength":288,
			"byteOffset":840,
			"target":34962
		},
		{
			"buffer":0,
			"byteLength":288,
			"byteOffset":1128,
			"target":34962
		},
		{
			"buffer":0,
			"byteLength":192,
			"byteOffset":1416,
			"target":34962
		},
		{
			"buffer":0,
			"byteLength":288,
			"byteOffset":1608,
			"target":34962
		},
		{
			"buffer":0,
			"byteLength":288,
			"byteOffset":1896,
			"target":34962
		},
		{
			"buffer":0,
			"byteLength":192,
			"byteOffset":2184,
			"target":34962
		},
		{
			"buffer":0,
			"byteLength":288,
			"byteOffset":2376,
			"target":34962
		},
		{
			"buffer":0,
			"byteLength":288,
			"byteOffset":2664,
			"target":34962
		},
		{
			"buffer":0,
			"byteLength":192,
			"byteOffset":2952,
			"target":34962
		},
		{
			"buffer":0,
			"byteLength":288,
			"byteOffset":3144,
			"target":34962
		},
		{
			"buffer":0,
			"byteLength":288,
			"byteOffset":3432,
			"target":34962
		},
		{
			"buffer":0,
			"byteLength":192,
			"byteOffset":3720,
			"target":34962
		},
		{
			"buffer":0,
			"byteLength":1152,
			"byteOffset":3912,
			"target":34962
		},
		{
			"buffer":0,
			"byteLength":1152,
			"byteOffset":5064,
			"target":34962
		},
		{
			"buffer":0,
			"byteLength":768,
			"byteOffset":6216,
			"target":34962
		},
		{
			"buffer":0,
			"byteLength":264,
			"byteOffset":6984,
			"target":34963
		},
		{
			"buffer":0,
			"byteLength":288,
			"byteOffset":7248,
			"target":34962
		},
		{
			"buffer":0,
			"byteLength":288,
			"byteOffset":7536,
			"target":34962
		},
		{
			"buffer":0,
			"byteLength":192,
			"byteOffset":7824,
			"target":34962
		},
		{
			"buffer":0,
			"byteLength":288,
			"byteOffset":8016,
			"target":34962
		},
		{
			"buffer":0,
			"byteLength":288,
			"byteOffset":8304,
			"target":34962
		},
		{
			"buffer":0,
			"byteLength":192,
			"byteOffset":8592,
			"target":34962
		},
		{
			"buffer":0,
			"byteLength":288,
			"byteOffset":8784,
			"target":34962
		},
		{
			"buffer":0,
			"byteLength":288,
			"byteOffset":9072,
			"target":34962
		},
		{
			"buffer":0,
			"byteLength":192,
			"byteOffset":9360,
			"target":34962
		},
		{
			"buffer":0,
			"byteLength":288,
			"byteOffset":9552,
			"target":34962
		},
		{
			"buffer":0,
			"byteLength":288,
			"byteOffset":9840,
			"target":34962
		},
		{
			"buffer":0,
			"byteLength":192,
			"byteOffset":10128,
			"target":34962
		},
		{
			"buffer":0,
			"byteLength":288,
			"byteOffset":10320,
			"target":34962
		},
		{
			"buffer":0,
			"byteLength":288,
			"byteOffset":10608,
			"target":34962
		},
		{
			"buffer":0,
			"byteLength":192,
			"byteOffset":10896,
			"target":34962
		},
		{
			"buffer":0,
			"byteLength":288,
			"byteOffset":11088,
			"target":34962
		},
		{
			"buffer":0,
			"byteLength":288,
			"byteOffset":11376,
			"target":34962
		},
		{
			"buffer":0,
			"byteLength":192,
			"byteOffset":11664,
			"target":34962
		},
		{
			"buffer":0,
			"byteLength":288,
			"byteOffset":11856,
			"target":34962
		},
		{
			"buffer":0,
			"byteLength":288,
			"byteOffset":12144,
			"target":34962
		},
		{
			"buffer":0,
			"byteLength":192,
			"byteOffset":12432,
			"target":34962
		},
		{
			"buffer":0,
			"byteLength":288,
			"byteOffset":12624,
			"target":34962
		},
		{
			"buffer":0,
			"byteLength":288,
			"byteOffset":12912,
			"target":34962
		},
		{
			"buffer":0,
			"byteLength":192,
			"byteOffset":13200,
			"target":34962
		}
	],
	"buffers":[
		{
			"byteLength":13392,
			"uri":"hd_bldg_modern.bin"
		}
	]
}
