{
	"asset":{
		"generator":"Khronos glTF Blender I/O v5.2.40",
		"version":"2.0"
	},
	"scene":0,
	"scenes":[
		{
			"name":"Scene",
			"nodes":[
				0,
				1,
				2,
				3,
				4,
				5
			]
		}
	],
	"nodes":[
		{
			"mesh":0,
			"name":"body"
		},
		{
			"mesh":1,
			"name":"cabin"
		},
		{
			"mesh":2,
			"name":"wheelb"
		},
		{
			"mesh":3,
			"name":"wheelb.001"
		},
		{
			"mesh":4,
			"name":"wheelb.002"
		},
		{
			"mesh":5,
			"name":"wheelb.003"
		}
	],
	"materials":[
		{
			"doubleSided":true,
			"name":"M_tarp",
			"pbrMetallicRoughness":{
				"baseColorFactor":[
					0.11392093449831009,
					0.39929330348968506,
					0.6592239737510681,
					1
				],
				"metallicFactor":0,
				"roughnessFactor":0.8500000238418579
			}
		},
		{
			"doubleSided":true,
			"name":"M_tarp2",
			"pbrMetallicRoughness":{
				"baseColorFactor":[
					0.11392093449831009,
					0.39929330348968506,
					0.6592239737510681,
					1
				],
				"metallicFactor":0,
				"roughnessFactor":0.8500000238418579
			}
		},
		{
			"doubleSided":true,
			"name":"M_tw",
			"pbrMetallicRoughness":{
				"baseColorFactor":[
					0.11392093449831009,
					0.39929330348968506,
					0.6592239737510681,
					1
				],
				"metallicFactor":0,
				"roughnessFactor":0.8500000238418579
			}
		}
	],
	"meshes":[
		{
			"name":"Cube",
			"primitives":[
				{
					"attributes":{
						"POSITION":0,
						"NORMAL":1,
						"TEXCOORD_0":2
					},
					"indices":3,
					"material":0
				}
			]
		},
		{
			"name":"Cube.001",
			"primitives":[
				{
					"attributes":{
						"POSITION":4,
						"NORMAL":5,
						"TEXCOORD_0":6
					},
					"indices":3,
					"material":1
				}
			]
		},
		{
			"name":"Cylinder",
			"primitives":[
				{
					"attributes":{
						"POSITION":7,
						"NORMAL":8,
						"TEXCOORD_0":9
					},
					"indices":10,
					"material":2
				}
			]
		},
		{
			"name":"Cylinder.001",
			"primitives":[
				{
					"attributes":{
						"POSITION":11,
						"NORMAL":12,
						"TEXCOORD_0":13
					},
					"indices":10,
					"material":2
				}
			]
		},
		{
			"name":"Cylinder.002",
			"primitives":[
				{
					"attributes":{
						"POSITION":14,
						"NORMAL":15,
						"TEXCOORD_0":16
					},
					"indices":10,
					"material":2
				}
			]
		},
		{
			"name":"Cylinder.003",
			"primitives":[
				{
					"attributes":{
						"POSITION":17,
						"NORMAL":18,
						"TEXCOORD_0":19
					},
					"indices":10,
					"material":2
				}
			]
		}
	],
	"accessors":[
		{
			"bufferView":0,
			"componentType":5126,
			"count":72,
			"max":[
				0.834944486618042,
				1.2276685237884521,
				1.9511232376098633
			],
			"min":[
				-0.7393429279327393,
				0.04233342409133911,
				-1.9035005569458008
			],
			"type":"VEC3"
		},
		{
			"bufferView":1,
			"componentType":5126,
			"count":72,
			"type":"VEC3"
		},
		{
			"bufferView":2,
			"componentType":5126,
			"count":72,
			"type":"VEC2"
		},
		{
			"bufferView":3,
			"componentType":5123,
			"count":324,
			"type":"SCALAR"
		},
		{
			"bufferView":4,
			"componentType":5126,
			"count":72,
			"max":[
				0.4413726329803467,
				1.326446294784546,
				1.6883080005645752
			],
			"min":[
				-0.48888808488845825,
				0.7055565714836121,
				-1.6406853199005127
			],
			"type":"VEC3"
		},
		{
			"bufferView":5,
			"componentType":5126,
			"count":72,
			"type":"VEC3"
		},
		{
			"bufferView":6,
			"componentType":5126,
			"count":72,
			"type":"VEC2"
		},
		{
			"bufferView":7,
			"componentType":5126,
			"count":42,
			"max":[
				-0.22944281995296478,
				0.39511173963546753,
				1.8635181188583374
			],
			"min":[
				-0.6052163243293762,
				4.470348358154297e-08,
				1.1626774072647095
			],
			"type":"VEC3"
		},
		{
			"bufferView":8,
			"componentType":5126,
			"count":42,
			"type":"VEC3"
		},
		{
			"bufferView":9,
			"componentType":5126,
			"count":42,
			"type":"VEC2"
		},
		{
			"bufferView":10,
			"componentType":5123,
			"count":108,
			"type":"SCALAR"
		},
		{
			"bufferView":11,
			"componentType":5126,
			"count":42,
			"max":[
				-0.22944281995296478,
				0.39511173963546753,
				-1.115054726600647
			],
			"min":[
				-0.6052163243293762,
				4.470348358154297e-08,
				-1.815895438194275
			],
			"type":"VEC3"
		},
		{
			"bufferView":12,
			"componentType":5126,
			"count":42,
			"type":"VEC3"
		},
		{
			"bufferView":13,
			"componentType":5126,
			"count":42,
			"type":"VEC2"
		},
		{
			"bufferView":14,
			"componentType":5126,
			"count":42,
			"max":[
				0.7008179426193237,
				0.39511173963546753,
				1.8635181188583374
			],
			"min":[
				0.3250443935394287,
				4.470348358154297e-08,
				1.1626774072647095
			],
			"type":"VEC3"
		},
		{
			"bufferView":15,
			"componentType":5126,
			"count":42,
			"type":"VEC3"
		},
		{
			"bufferView":16,
			"componentType":5126,
			"count":42,
			"type":"VEC2"
		},
		{
			"bufferView":17,
			"componentType":5126,
			"count":42,
			"max":[
				0.7008179426193237,
				0.39511173963546753,
				-1.115054726600647
			],
			"min":[
				0.3250443935394287,
				4.470348358154297e-08,
				-1.815895438194275
			],
			"type":"VEC3"
		},
		{
			"bufferView":18,
			"componentType":5126,
			"count":42,
			"type":"VEC3"
		},
		{
			"bufferView":19,
			"componentType":5126,
			"count":42,
			"type":"VEC2"
		}
	],
	"bufferViews":[
		{
			"buffer":0,
			"byteLength":864,
			"byteOffset":0,
			"target":34962
		},
		{
			"buffer":0,
			"byteLength":864,
			"byteOffset":864,
			"target":34962
		},
		{
			"buffer":0,
			"byteLength":576,
			"byteOffset":1728,
			"target":34962
		},
		{
			"buffer":0,
			"byteLength":648,
			"byteOffset":2304,
			"target":34963
		},
		{
			"buffer":0,
			"byteLength":864,
			"byteOffset":2952,
			"target":34962
		},
		{
			"buffer":0,
			"byteLength":864,
			"byteOffset":3816,
			"target":34962
		},
		{
			"buffer":0,
			"byteLength":576,
			"byteOffset":4680,
			"target":34962
		},
		{
			"buffer":0,
			"byteLength":504,
			"byteOffset":5256,
			"target":34962
		},
		{
			"buffer":0,
			"byteLength":504,
			"byteOffset":5760,
			"target":34962
		},
		{
			"buffer":0,
			"byteLength":336,
			"byteOffset":6264,
			"target":34962
		},
		{
			"buffer":0,
			"byteLength":216,
			"byteOffset":6600,
			"target":34963
		},
		{
			"buffer":0,
			"byteLength":504,
			"byteOffset":6816,
			"target":34962
		},
		{
			"buffer":0,
			"byteLength":504,
			"byteOffset":7320,
			"target":34962
		},
		{
			"buffer":0,
			"byteLength":336,
			"byteOffset":7824,
			"target":34962
		},
		{
			"buffer":0,
			"byteLength":504,
			"byteOffset":8160,
			"target":34962
		},
		{
			"buffer":0,
			"byteLength":504,
			"byteOffset":8664,
			"target":34962
		},
		{
			"buffer":0,
			"byteLength":336,
			"byteOffset":9168,
			"target":34962
		},
		{
			"buffer":0,
			"byteLength":504,
			"byteOffset":9504,
			"target":34962
		},
		{
			"buffer":0,
			"byteLength":504,
			"byteOffset":10008,
			"target":34962
		},
		{
			"buffer":0,
			"byteLength":336,
			"byteOffset":10512,
			"target":34962
		}
	],
	"buffers":[
		{
			"byteLength":10848,
			"uri":"covered_car.bin"
		}
	]
}
