{
	"asset":{
		"generator":"Khronos glTF Blender I/O v5.2.40",
		"version":"2.0"
	},
	"scene":0,
	"scenes":[
		{
			"name":"Scene",
			"nodes":[
				0,
				1,
				2,
				3,
				4,
				5,
				6,
				7,
				8,
				9,
				10,
				11,
				12,
				13,
				14,
				15,
				16,
				17
			]
		}
	],
	"nodes":[
		{
			"mesh":0,
			"name":"lip0"
		},
		{
			"mesh":1,
			"name":"lip1"
		},
		{
			"mesh":2,
			"name":"lip2"
		},
		{
			"mesh":3,
			"name":"lip3"
		},
		{
			"mesh":4,
			"name":"lip4"
		},
		{
			"mesh":5,
			"name":"snow0"
		},
		{
			"mesh":6,
			"name":"snow1"
		},
		{
			"mesh":7,
			"name":"snow2"
		},
		{
			"mesh":8,
			"name":"snow3"
		},
		{
			"mesh":9,
			"name":"snow4"
		},
		{
			"mesh":10,
			"name":"snowTop"
		},
		{
			"mesh":11,
			"name":"tier0"
		},
		{
			"mesh":12,
			"name":"tier1"
		},
		{
			"mesh":13,
			"name":"tier2"
		},
		{
			"mesh":14,
			"name":"tier3"
		},
		{
			"mesh":15,
			"name":"tier4"
		},
		{
			"mesh":16,
			"name":"tip"
		},
		{
			"mesh":17,
			"name":"trunk"
		}
	],
	"materials":[
		{
			"doubleSided":true,
			"name":"M_tl0",
			"pbrMetallicRoughness":{
				"baseColorFactor":[
					0.023103555664420128,
					0.11129941791296005,
					0.041451890021562576,
					1
				],
				"metallicFactor":0,
				"roughnessFactor":0.8500000238418579
			}
		},
		{
			"doubleSided":true,
			"name":"M_tl1",
			"pbrMetallicRoughness":{
				"baseColorFactor":[
					0.023103555664420128,
					0.11129941791296005,
					0.041451890021562576,
					1
				],
				"metallicFactor":0,
				"roughnessFactor":0.8500000238418579
			}
		},
		{
			"doubleSided":true,
			"name":"M_tl2",
			"pbrMetallicRoughness":{
				"baseColorFactor":[
					0.023103555664420128,
					0.11129941791296005,
					0.041451890021562576,
					1
				],
				"metallicFactor":0,
				"roughnessFactor":0.8500000238418579
			}
		},
		{
			"doubleSided":true,
			"name":"M_tl3",
			"pbrMetallicRoughness":{
				"baseColorFactor":[
					0.023103555664420128,
					0.11129941791296005,
					0.041451890021562576,
					1
				],
				"metallicFactor":0,
				"roughnessFactor":0.8500000238418579
			}
		},
		{
			"doubleSided":true,
			"name":"M_tl4",
			"pbrMetallicRoughness":{
				"baseColorFactor":[
					0.023103555664420128,
					0.11129941791296005,
					0.041451890021562576,
					1
				],
				"metallicFactor":0,
				"roughnessFactor":0.8500000238418579
			}
		},
		{
			"doubleSided":true,
			"name":"M_sn0",
			"pbrMetallicRoughness":{
				"baseColorFactor":[
					0.8912620544433594,
					0.9406006932258606,
					0.97430020570755,
					1
				],
				"metallicFactor":0,
				"roughnessFactor":0.8500000238418579
			}
		},
		{
			"doubleSided":true,
			"name":"M_sn1",
			"pbrMetallicRoughness":{
				"baseColorFactor":[
					0.8912620544433594,
					0.9406006932258606,
					0.97430020570755,
					1
				],
				"metallicFactor":0,
				"roughnessFactor":0.8500000238418579
			}
		},
		{
			"doubleSided":true,
			"name":"M_sn2",
			"pbrMetallicRoughness":{
				"baseColorFactor":[
					0.8912620544433594,
					0.9406006932258606,
					0.97430020570755,
					1
				],
				"metallicFactor":0,
				"roughnessFactor":0.8500000238418579
			}
		},
		{
			"doubleSided":true,
			"name":"M_sn3",
			"pbrMetallicRoughness":{
				"baseColorFactor":[
					0.8912620544433594,
					0.9406006932258606,
					0.97430020570755,
					1
				],
				"metallicFactor":0,
				"roughnessFactor":0.8500000238418579
			}
		},
		{
			"doubleSided":true,
			"name":"M_sn4",
			"pbrMetallicRoughness":{
				"baseColorFactor":[
					0.8912620544433594,
					0.9406006932258606,
					0.97430020570755,
					1
				],
				"metallicFactor":0,
				"roughnessFactor":0.8500000238418579
			}
		},
		{
			"doubleSided":true,
			"name":"M_snTop",
			"pbrMetallicRoughness":{
				"baseColorFactor":[
					0.8912620544433594,
					0.9406006932258606,
					0.97430020570755,
					1
				],
				"metallicFactor":0,
				"roughnessFactor":0.8500000238418579
			}
		},
		{
			"doubleSided":true,
			"name":"M_tg0",
			"pbrMetallicRoughness":{
				"baseColorFactor":[
					0.044552627950906754,
					0.20835965871810913,
					0.07382776588201523,
					1
				],
				"metallicFactor":0,
				"roughnessFactor":0.8500000238418579
			}
		},
		{
			"doubleSided":true,
			"name":"M_tg1",
			"pbrMetallicRoughness":{
				"baseColorFactor":[
					0.023103555664420128,
					0.11129941791296005,
					0.041451890021562576,
					1
				],
				"metallicFactor":0,
				"roughnessFactor":0.8500000238418579
			}
		},
		{
			"doubleSided":true,
			"name":"M_tg2",
			"pbrMetallicRoughness":{
				"baseColorFactor":[
					0.044552627950906754,
					0.20835965871810913,
					0.07382776588201523,
					1
				],
				"metallicFactor":0,
				"roughnessFactor":0.8500000238418579
			}
		},
		{
			"doubleSided":true,
			"name":"M_tg3",
			"pbrMetallicRoughness":{
				"baseColorFactor":[
					0.023103555664420128,
					0.11129941791296005,
					0.041451890021562576,
					1
				],
				"metallicFactor":0,
				"roughnessFactor":0.8500000238418579
			}
		},
		{
			"doubleSided":true,
			"name":"M_tg4",
			"pbrMetallicRoughness":{
				"baseColorFactor":[
					0.044552627950906754,
					0.20835965871810913,
					0.07382776588201523,
					1
				],
				"metallicFactor":0,
				"roughnessFactor":0.8500000238418579
			}
		},
		{
			"doubleSided":true,
			"name":"M_tip",
			"pbrMetallicRoughness":{
				"baseColorFactor":[
					0.044552627950906754,
					0.20835965871810913,
					0.07382776588201523,
					1
				],
				"metallicFactor":0,
				"roughnessFactor":0.8500000238418579
			}
		},
		{
			"doubleSided":true,
			"name":"M_pt",
			"pbrMetallicRoughness":{
				"baseColorFactor":[
					0.11129941791296005,
					0.041451890021562576,
					0.011881334707140923,
					1
				],
				"metallicFactor":0,
				"roughnessFactor":0.8500000238418579
			}
		}
	],
	"meshes":[
		{
			"name":"Cone.002",
			"primitives":[
				{
					"attributes":{
						"POSITION":0,
						"NORMAL":1,
						"TEXCOORD_0":2
					},
					"indices":3,
					"material":0
				}
			]
		},
		{
			"name":"Cone.005",
			"primitives":[
				{
					"attributes":{
						"POSITION":4,
						"NORMAL":5,
						"TEXCOORD_0":6
					},
					"indices":3,
					"material":1
				}
			]
		},
		{
			"name":"Cone.008",
			"primitives":[
				{
					"attributes":{
						"POSITION":7,
						"NORMAL":8,
						"TEXCOORD_0":9
					},
					"indices":3,
					"material":2
				}
			]
		},
		{
			"name":"Cone.011",
			"primitives":[
				{
					"attributes":{
						"POSITION":10,
						"NORMAL":11,
						"TEXCOORD_0":12
					},
					"indices":3,
					"material":3
				}
			]
		},
		{
			"name":"Cone.014",
			"primitives":[
				{
					"attributes":{
						"POSITION":13,
						"NORMAL":14,
						"TEXCOORD_0":15
					},
					"indices":3,
					"material":4
				}
			]
		},
		{
			"name":"Cone.003",
			"primitives":[
				{
					"attributes":{
						"POSITION":16,
						"NORMAL":17,
						"TEXCOORD_0":18
					},
					"indices":19,
					"material":5
				}
			]
		},
		{
			"name":"Cone.006",
			"primitives":[
				{
					"attributes":{
						"POSITION":20,
						"NORMAL":21,
						"TEXCOORD_0":22
					},
					"indices":19,
					"material":6
				}
			]
		},
		{
			"name":"Cone.009",
			"primitives":[
				{
					"attributes":{
						"POSITION":23,
						"NORMAL":24,
						"TEXCOORD_0":25
					},
					"indices":19,
					"material":7
				}
			]
		},
		{
			"name":"Cone.012",
			"primitives":[
				{
					"attributes":{
						"POSITION":26,
						"NORMAL":27,
						"TEXCOORD_0":28
					},
					"indices":19,
					"material":8
				}
			]
		},
		{
			"name":"Cone.015",
			"primitives":[
				{
					"attributes":{
						"POSITION":29,
						"NORMAL":30,
						"TEXCOORD_0":31
					},
					"indices":19,
					"material":9
				}
			]
		},
		{
			"name":"Icosphere",
			"primitives":[
				{
					"attributes":{
						"POSITION":32,
						"NORMAL":33,
						"TEXCOORD_0":34
					},
					"indices":35,
					"material":10
				}
			]
		},
		{
			"name":"Cone.001",
			"primitives":[
				{
					"attributes":{
						"POSITION":36,
						"NORMAL":37,
						"TEXCOORD_0":38
					},
					"indices":39,
					"material":11
				}
			]
		},
		{
			"name":"Cone.004",
			"primitives":[
				{
					"attributes":{
						"POSITION":40,
						"NORMAL":41,
						"TEXCOORD_0":42
					},
					"indices":43,
					"material":12
				}
			]
		},
		{
			"name":"Cone.007",
			"primitives":[
				{
					"attributes":{
						"POSITION":44,
						"NORMAL":45,
						"TEXCOORD_0":46
					},
					"indices":47,
					"material":13
				}
			]
		},
		{
			"name":"Cone.010",
			"primitives":[
				{
					"attributes":{
						"POSITION":48,
						"NORMAL":49,
						"TEXCOORD_0":50
					},
					"indices":51,
					"material":14
				}
			]
		},
		{
			"name":"Cone.013",
			"primitives":[
				{
					"attributes":{
						"POSITION":52,
						"NORMAL":53,
						"TEXCOORD_0":54
					},
					"indices":43,
					"material":15
				}
			]
		},
		{
			"name":"Cone.016",
			"primitives":[
				{
					"attributes":{
						"POSITION":55,
						"NORMAL":56,
						"TEXCOORD_0":57
					},
					"indices":58,
					"material":16
				}
			]
		},
		{
			"name":"Cone",
			"primitives":[
				{
					"attributes":{
						"POSITION":59,
						"NORMAL":60,
						"TEXCOORD_0":61
					},
					"indices":62,
					"material":17
				}
			]
		}
	],
	"accessors":[
		{
			"bufferView":0,
			"componentType":5126,
			"count":54,
			"max":[
				0.9729900360107422,
				1.6040000915527344,
				0.9284163117408752
			],
			"min":[
				-0.9729900360107422,
				1.1335999965667725,
				-0.9879999756813049
			],
			"type":"VEC3"
		},
		{
			"bufferView":1,
			"componentType":5126,
			"count":54,
			"type":"VEC3"
		},
		{
			"bufferView":2,
			"componentType":5126,
			"count":54,
			"type":"VEC2"
		},
		{
			"bufferView":3,
			"componentType":5123,
			"count":96,
			"type":"SCALAR"
		},
		{
			"bufferView":4,
			"componentType":5126,
			"count":54,
			"max":[
				0.8328794240951538,
				2.2983999252319336,
				0.7947243452072144
			],
			"min":[
				-0.8328794240951538,
				1.8279999494552612,
				-0.8457279801368713
			],
			"type":"VEC3"
		},
		{
			"bufferView":5,
			"componentType":5126,
			"count":54,
			"type":"VEC3"
		},
		{
			"bufferView":6,
			"componentType":5126,
			"count":54,
			"type":"VEC2"
		},
		{
			"bufferView":7,
			"componentType":5126,
			"count":54,
			"max":[
				0.6927688717842102,
				2.992799997329712,
				0.6610323786735535
			],
			"min":[
				-0.6927688717842102,
				2.522400140762329,
				-0.7034559845924377
			],
			"type":"VEC3"
		},
		{
			"bufferView":8,
			"componentType":5126,
			"count":54,
			"type":"VEC3"
		},
		{
			"bufferView":9,
			"componentType":5126,
			"count":54,
			"type":"VEC2"
		},
		{
			"bufferView":10,
			"componentType":5126,
			"count":54,
			"max":[
				0.5526583194732666,
				3.687199831008911,
				0.5273404717445374
			],
			"min":[
				-0.5526583194732666,
				3.2167999744415283,
				-0.5611839890480042
			],
			"type":"VEC3"
		},
		{
			"bufferView":11,
			"componentType":5126,
			"count":54,
			"type":"VEC3"
		},
		{
			"bufferView":12,
			"componentType":5126,
			"count":54,
			"type":"VEC2"
		},
		{
			"bufferView":13,
			"componentType":5126,
			"count":54,
			"max":[
				0.412547767162323,
				4.3815999031066895,
				0.39364850521087646
			],
			"min":[
				-0.412547767162323,
				3.9112000465393066,
				-0.41891199350357056
			],
			"type":"VEC3"
		},
		{
			"bufferView":14,
			"componentType":5126,
			"count":54,
			"type":"VEC3"
		},
		{
			"bufferView":15,
			"componentType":5126,
			"count":54,
			"type":"VEC2"
		},
		{
			"bufferView":16,
			"componentType":5126,
			"count":38,
			"max":[
				0.6361858248710632,
				2.5616002082824707,
				0.6070414781570435
			],
			"min":[
				-0.6361858248710632,
				2.0576000213623047,
				-0.6460000276565552
			],
			"type":"VEC3"
		},
		{
			"bufferView":17,
			"componentType":5126,
			"count":38,
			"type":"VEC3"
		},
		{
			"bufferView":18,
			"componentType":5126,
			"count":38,
			"type":"VEC2"
		},
		{
			"bufferView":19,
			"componentType":5123,
			"count":96,
			"type":"SCALAR"
		},
		{
			"bufferView":20,
			"componentType":5126,
			"count":38,
			"max":[
				0.544575035572052,
				3.25600004196167,
				0.5196274518966675
			],
			"min":[
				-0.544575035572052,
				2.751999855041504,
				-0.5529760122299194
			],
			"type":"VEC3"
		},
		{
			"bufferView":21,
			"componentType":5126,
			"count":38,
			"type":"VEC3"
		},
		{
			"bufferView":22,
			"componentType":5126,
			"count":38,
			"type":"VEC2"
		},
		{
			"bufferView":23,
			"componentType":5126,
			"count":38,
			"max":[
				0.45296427607536316,
				3.9504001140594482,
				0.4322134852409363
			],
			"min":[
				-0.45296427607536316,
				3.4463999271392822,
				-0.4599519968032837
			],
			"type":"VEC3"
		},
		{
			"bufferView":24,
			"componentType":5126,
			"count":38,
			"type":"VEC3"
		},
		{
			"bufferView":25,
			"componentType":5126,
			"count":38,
			"type":"VEC2"
		},
		{
			"bufferView":26,
			"componentType":5126,
			"count":38,
			"max":[
				0.3613535463809967,
				4.644799709320068,
				0.34479954838752747
			],
			"min":[
				-0.3613535463809967,
				4.1407999992370605,
				-0.36692801117897034
			],
			"type":"VEC3"
		},
		{
			"bufferView":27,
			"componentType":5126,
			"count":38,
			"type":"VEC3"
		},
		{
			"bufferView":28,
			"componentType":5126,
			"count":38,
			"type":"VEC2"
		},
		{
			"bufferView":29,
			"componentType":5126,
			"count":38,
			"max":[
				0.26974278688430786,
				5.339200019836426,
				0.2573855519294739
			],
			"min":[
				-0.26974278688430786,
				4.835200309753418,
				-0.2739039957523346
			],
			"type":"VEC3"
		},
		{
			"bufferView":30,
			"componentType":5126,
			"count":38,
			"type":"VEC3"
		},
		{
			"bufferView":31,
			"componentType":5126,
			"count":38,
			"type":"VEC2"
		},
		{
			"bufferView":32,
			"componentType":5126,
			"count":22,
			"max":[
				0.23997795581817627,
				5.758221626281738,
				0.23434175550937653
			],
			"min":[
				-0.2510143220424652,
				5.454155445098877,
				-0.25812315940856934
			],
			"type":"VEC3"
		},
		{
			"bufferView":33,
			"componentType":5126,
			"count":22,
			"type":"VEC3"
		},
		{
			"bufferView":34,
			"componentType":5126,
			"count":22,
			"type":"VEC2"
		},
		{
			"bufferView":35,
			"componentType":5123,
			"count":60,
			"type":"SCALAR"
		},
		{
			"bufferView":36,
			"componentType":5126,
			"count":54,
			"max":[
				0.9224776029586792,
				2.808967113494873,
				0.9166659116744995
			],
			"min":[
				-0.9135111570358276,
				1.0856297016143799,
				-0.9654772281646729
			],
			"type":"VEC3"
		},
		{
			"bufferView":37,
			"componentType":5126,
			"count":54,
			"type":"VEC3"
		},
		{
			"bufferView":38,
			"componentType":5126,
			"count":54,
			"type":"VEC2"
		},
		{
			"bufferView":39,
			"componentType":5123,
			"count":96,
			"type":"SCALAR"
		},
		{
			"bufferView":40,
			"componentType":5126,
			"count":54,
			"max":[
				0.816582441329956,
				3.5011160373687744,
				0.7803060412406921
			],
			"min":[
				-0.8235922455787659,
				1.765926718711853,
				-0.8340460062026978
			],
			"type":"VEC3"
		},
		{
			"bufferView":41,
			"componentType":5126,
			"count":54,
			"type":"VEC3"
		},
		{
			"bufferView":42,
			"componentType":5126,
			"count":54,
			"type":"VEC2"
		},
		{
			"bufferView":43,
			"componentType":5123,
			"count":96,
			"type":"SCALAR"
		},
		{
			"bufferView":44,
			"componentType":5126,
			"count":54,
			"max":[
				0.6619641184806824,
				4.188691139221191,
				0.657406210899353
			],
			"min":[
				-0.6748967170715332,
				2.4609556198120117,
				-0.7032696604728699
			],
			"type":"VEC3"
		},
		{
			"bufferView":45,
			"componentType":5126,
			"count":54,
			"type":"VEC3"
		},
		{
			"bufferView":46,
			"componentType":5126,
			"count":54,
			"type":"VEC2"
		},
		{
			"bufferView":47,
			"componentType":5123,
			"count":96,
			"type":"SCALAR"
		},
		{
			"bufferView":48,
			"componentType":5126,
			"count":54,
			"max":[
				0.5515899658203125,
				4.892659664154053,
				0.5351974368095398
			],
			"min":[
				-0.5238034129142761,
				3.16135835647583,
				-0.5422537922859192
			],
			"type":"VEC3"
		},
		{
			"bufferView":49,
			"componentType":5126,
			"count":54,
			"type":"VEC3"
		},
		{
			"bufferView":50,
			"componentType":5126,
			"count":54,
			"type":"VEC2"
		},
		{
			"bufferView":51,
			"componentType":5123,
			"count":96,
			"type":"SCALAR"
		},
		{
			"bufferView":52,
			"componentType":5126,
			"count":54,
			"max":[
				0.37704041600227356,
				5.578878879547119,
				0.4033050835132599
			],
			"min":[
				-0.39074578881263733,
				3.8572793006896973,
				-0.37898996472358704
			],
			"type":"VEC3"
		},
		{
			"bufferView":53,
			"componentType":5126,
			"count":54,
			"type":"VEC3"
		},
		{
			"bufferView":54,
			"componentType":5126,
			"count":54,
			"type":"VEC2"
		},
		{
			"bufferView":55,
			"componentType":5126,
			"count":48,
			"max":[
				0.24699999392032623,
				5.824000358581543,
				0.24699999392032623
			],
			"min":[
				-0.24699999392032623,
				4.5920000076293945,
				-0.24699999392032623
			],
			"type":"VEC3"
		},
		{
			"bufferView":56,
			"componentType":5126,
			"count":48,
			"type":"VEC3"
		},
		{
			"bufferView":57,
			"componentType":5126,
			"count":48,
			"type":"VEC2"
		},
		{
			"bufferView":58,
			"componentType":5123,
			"count":84,
			"type":"SCALAR"
		},
		{
			"bufferView":59,
			"componentType":5126,
			"count":34,
			"max":[
				0.1599999964237213,
				1.6500000953674316,
				0.1599999964237213
			],
			"min":[
				-0.1599999964237213,
				-0.050000011920928955,
				-0.1599999964237213
			],
			"type":"VEC3"
		},
		{
			"bufferView":60,
			"componentType":5126,
			"count":34,
			"type":"VEC3"
		},
		{
			"bufferView":61,
			"componentType":5126,
			"count":34,
			"type":"VEC2"
		},
		{
			"bufferView":62,
			"componentType":5123,
			"count":84,
			"type":"SCALAR"
		}
	],
	"bufferViews":[
		{
			"buffer":0,
			"byteLength":648,
			"byteOffset":0,
			"target":34962
		},
		{
			"buffer":0,
			"byteLength":648,
			"byteOffset":648,
			"target":34962
		},
		{
			"buffer":0,
			"byteLength":432,
			"byteOffset":1296,
			"target":34962
		},
		{
			"buffer":0,
			"byteLength":192,
			"byteOffset":1728,
			"target":34963
		},
		{
			"buffer":0,
			"byteLength":648,
			"byteOffset":1920,
			"target":34962
		},
		{
			"buffer":0,
			"byteLength":648,
			"byteOffset":2568,
			"target":34962
		},
		{
			"buffer":0,
			"byteLength":432,
			"byteOffset":3216,
			"target":34962
		},
		{
			"buffer":0,
			"byteLength":648,
			"byteOffset":3648,
			"target":34962
		},
		{
			"buffer":0,
			"byteLength":648,
			"byteOffset":4296,
			"target":34962
		},
		{
			"buffer":0,
			"byteLength":432,
			"byteOffset":4944,
			"target":34962
		},
		{
			"buffer":0,
			"byteLength":648,
			"byteOffset":5376,
			"target":34962
		},
		{
			"buffer":0,
			"byteLength":648,
			"byteOffset":6024,
			"target":34962
		},
		{
			"buffer":0,
			"byteLength":432,
			"byteOffset":6672,
			"target":34962
		},
		{
			"buffer":0,
			"byteLength":648,
			"byteOffset":7104,
			"target":34962
		},
		{
			"buffer":0,
			"byteLength":648,
			"byteOffset":7752,
			"target":34962
		},
		{
			"buffer":0,
			"byteLength":432,
			"byteOffset":8400,
			"target":34962
		},
		{
			"buffer":0,
			"byteLength":456,
			"byteOffset":8832,
			"target":34962
		},
		{
			"buffer":0,
			"byteLength":456,
			"byteOffset":9288,
			"target":34962
		},
		{
			"buffer":0,
			"byteLength":304,
			"byteOffset":9744,
			"target":34962
		},
		{
			"buffer":0,
			"byteLength":192,
			"byteOffset":10048,
			"target":34963
		},
		{
			"buffer":0,
			"byteLength":456,
			"byteOffset":10240,
			"target":34962
		},
		{
			"buffer":0,
			"byteLength":456,
			"byteOffset":10696,
			"target":34962
		},
		{
			"buffer":0,
			"byteLength":304,
			"byteOffset":11152,
			"target":34962
		},
		{
			"buffer":0,
			"byteLength":456,
			"byteOffset":11456,
			"target":34962
		},
		{
			"buffer":0,
			"byteLength":456,
			"byteOffset":11912,
			"target":34962
		},
		{
			"buffer":0,
			"byteLength":304,
			"byteOffset":12368,
			"target":34962
		},
		{
			"buffer":0,
			"byteLength":456,
			"byteOffset":12672,
			"target":34962
		},
		{
			"buffer":0,
			"byteLength":456,
			"byteOffset":13128,
			"target":34962
		},
		{
			"buffer":0,
			"byteLength":304,
			"byteOffset":13584,
			"target":34962
		},
		{
			"buffer":0,
			"byteLength":456,
			"byteOffset":13888,
			"target":34962
		},
		{
			"buffer":0,
			"byteLength":456,
			"byteOffset":14344,
			"target":34962
		},
		{
			"buffer":0,
			"byteLength":304,
			"byteOffset":14800,
			"target":34962
		},
		{
			"buffer":0,
			"byteLength":264,
			"byteOffset":15104,
			"target":34962
		},
		{
			"buffer":0,
			"byteLength":264,
			"byteOffset":15368,
			"target":34962
		},
		{
			"buffer":0,
			"byteLength":176,
			"byteOffset":15632,
			"target":34962
		},
		{
			"buffer":0,
			"byteLength":120,
			"byteOffset":15808,
			"target":34963
		},
		{
			"buffer":0,
			"byteLength":648,
			"byteOffset":15928,
			"target":34962
		},
		{
			"buffer":0,
			"byteLength":648,
			"byteOffset":16576,
			"target":34962
		},
		{
			"buffer":0,
			"byteLength":432,
			"byteOffset":17224,
			"target":34962
		},
		{
			"buffer":0,
			"byteLength":192,
			"byteOffset":17656,
			"target":34963
		},
		{
			"buffer":0,
			"byteLength":648,
			"byteOffset":17848,
			"target":34962
		},
		{
			"buffer":0,
			"byteLength":648,
			"byteOffset":18496,
			"target":34962
		},
		{
			"buffer":0,
			"byteLength":432,
			"byteOffset":19144,
			"target":34962
		},
		{
			"buffer":0,
			"byteLength":192,
			"byteOffset":19576,
			"target":34963
		},
		{
			"buffer":0,
			"byteLength":648,
			"byteOffset":19768,
			"target":34962
		},
		{
			"buffer":0,
			"byteLength":648,
			"byteOffset":20416,
			"target":34962
		},
		{
			"buffer":0,
			"byteLength":432,
			"byteOffset":21064,
			"target":34962
		},
		{
			"buffer":0,
			"byteLength":192,
			"byteOffset":21496,
			"target":34963
		},
		{
			"buffer":0,
			"byteLength":648,
			"byteOffset":21688,
			"target":34962
		},
		{
			"buffer":0,
			"byteLength":648,
			"byteOffset":22336,
			"target":34962
		},
		{
			"buffer":0,
			"byteLength":432,
			"byteOffset":22984,
			"target":34962
		},
		{
			"buffer":0,
			"byteLength":192,
			"byteOffset":23416,
			"target":34963
		},
		{
			"buffer":0,
			"byteLength":648,
			"byteOffset":23608,
			"target":34962
		},
		{
			"buffer":0,
			"byteLength":648,
			"byteOffset":24256,
			"target":34962
		},
		{
			"buffer":0,
			"byteLength":432,
			"byteOffset":24904,
			"target":34962
		},
		{
			"buffer":0,
			"byteLength":576,
			"byteOffset":25336,
			"target":34962
		},
		{
			"buffer":0,
			"byteLength":576,
			"byteOffset":25912,
			"target":34962
		},
		{
			"buffer":0,
			"byteLength":384,
			"byteOffset":26488,
			"target":34962
		},
		{
			"buffer":0,
			"byteLength":168,
			"byteOffset":26872,
			"target":34963
		},
		{
			"buffer":0,
			"byteLength":408,
			"byteOffset":27040,
			"target":34962
		},
		{
			"buffer":0,
			"byteLength":408,
			"byteOffset":27448,
			"target":34962
		},
		{
			"buffer":0,
			"byteLength":272,
			"byteOffset":27856,
			"target":34962
		},
		{
			"buffer":0,
			"byteLength":168,
			"byteOffset":28128,
			"target":34963
		}
	],
	"buffers":[
		{
			"byteLength":28296,
			"uri":"hd_pine_snow_b.bin"
		}
	]
}
