{
	"asset":{
		"generator":"Khronos glTF Blender I/O v5.2.40",
		"version":"2.0"
	},
	"scene":0,
	"scenes":[
		{
			"name":"Scene",
			"nodes":[
				0,
				1,
				2,
				3,
				4,
				5
			]
		}
	],
	"nodes":[
		{
			"mesh":0,
			"name":"can"
		},
		{
			"mesh":1,
			"name":"knob"
		},
		{
			"mesh":2,
			"name":"lid"
		},
		{
			"mesh":3,
			"name":"rib"
		},
		{
			"mesh":4,
			"name":"rib.001"
		},
		{
			"mesh":5,
			"name":"rib.002"
		}
	],
	"materials":[
		{
			"doubleSided":true,
			"name":"M_tc",
			"pbrMetallicRoughness":{
				"baseColorFactor":[
					0.03423020616173744,
					0.05112205073237419,
					0.07382776588201523,
					1
				],
				"metallicFactor":0,
				"roughnessFactor":0.8500000238418579
			}
		},
		{
			"doubleSided":true,
			"name":"M_tk",
			"pbrMetallicRoughness":{
				"baseColorFactor":[
					0.023103555664420128,
					0.037028513848781586,
					0.04943345859646797,
					1
				],
				"metallicFactor":0,
				"roughnessFactor":0.8500000238418579
			}
		},
		{
			"doubleSided":true,
			"name":"M_tld",
			"pbrMetallicRoughness":{
				"baseColorFactor":[
					0.023103555664420128,
					0.037028513848781586,
					0.04943345859646797,
					1
				],
				"metallicFactor":0,
				"roughnessFactor":0.8500000238418579
			}
		},
		{
			"doubleSided":true,
			"name":"M_tr2",
			"pbrMetallicRoughness":{
				"baseColorFactor":[
					0.023103555664420128,
					0.037028513848781586,
					0.04943345859646797,
					1
				],
				"metallicFactor":0,
				"roughnessFactor":0.8500000238418579
			}
		}
	],
	"meshes":[
		{
			"name":"Cylinder",
			"primitives":[
				{
					"attributes":{
						"POSITION":0,
						"NORMAL":1,
						"TEXCOORD_0":2
					},
					"indices":3,
					"material":0
				}
			]
		},
		{
			"name":"Cylinder.002",
			"primitives":[
				{
					"attributes":{
						"POSITION":4,
						"NORMAL":5,
						"TEXCOORD_0":6
					},
					"indices":7,
					"material":1
				}
			]
		},
		{
			"name":"Cylinder.001",
			"primitives":[
				{
					"attributes":{
						"POSITION":8,
						"NORMAL":9,
						"TEXCOORD_0":10
					},
					"indices":11,
					"material":2
				}
			]
		},
		{
			"name":"Torus",
			"primitives":[
				{
					"attributes":{
						"POSITION":12,
						"NORMAL":13,
						"TEXCOORD_0":14
					},
					"indices":15,
					"material":3
				}
			]
		},
		{
			"name":"Torus.001",
			"primitives":[
				{
					"attributes":{
						"POSITION":16,
						"NORMAL":17,
						"TEXCOORD_0":18
					},
					"indices":15,
					"material":3
				}
			]
		},
		{
			"name":"Torus.002",
			"primitives":[
				{
					"attributes":{
						"POSITION":19,
						"NORMAL":20,
						"TEXCOORD_0":21
					},
					"indices":15,
					"material":3
				}
			]
		}
	],
	"accessors":[
		{
			"bufferView":0,
			"componentType":5126,
			"count":50,
			"max":[
				0.25999999046325684,
				0.875,
				0.25999999046325684
			],
			"min":[
				-0.25999999046325684,
				0.02499997615814209,
				-0.25999999046325684
			],
			"type":"VEC3"
		},
		{
			"bufferView":1,
			"componentType":5126,
			"count":50,
			"type":"VEC3"
		},
		{
			"bufferView":2,
			"componentType":5126,
			"count":50,
			"type":"VEC2"
		},
		{
			"bufferView":3,
			"componentType":5123,
			"count":132,
			"type":"SCALAR"
		},
		{
			"bufferView":4,
			"componentType":5126,
			"count":36,
			"max":[
				0.04330126941204071,
				1.0199999809265137,
				0.05000000074505806
			],
			"min":[
				-0.04330126941204071,
				0.9600000381469727,
				-0.05000000074505806
			],
			"type":"VEC3"
		},
		{
			"bufferView":5,
			"componentType":5126,
			"count":36,
			"type":"VEC3"
		},
		{
			"bufferView":6,
			"componentType":5126,
			"count":36,
			"type":"VEC2"
		},
		{
			"bufferView":7,
			"componentType":5123,
			"count":60,
			"type":"SCALAR"
		},
		{
			"bufferView":8,
			"componentType":5126,
			"count":72,
			"max":[
				0.2800000011920929,
				0.9650000333786011,
				0.2800000011920929
			],
			"min":[
				-0.2800000011920929,
				0.875,
				-0.2800000011920929
			],
			"type":"VEC3"
		},
		{
			"bufferView":9,
			"componentType":5126,
			"count":72,
			"type":"VEC3"
		},
		{
			"bufferView":10,
			"componentType":5126,
			"count":72,
			"type":"VEC2"
		},
		{
			"bufferView":11,
			"componentType":5123,
			"count":132,
			"type":"SCALAR"
		},
		{
			"bufferView":12,
			"componentType":5126,
			"count":192,
			"max":[
				0.2849999964237213,
				0.2199999988079071,
				0.2849999964237213
			],
			"min":[
				-0.2849999964237213,
				0.18000000715255737,
				-0.2849999964237213
			],
			"type":"VEC3"
		},
		{
			"bufferView":13,
			"componentType":5126,
			"count":192,
			"type":"VEC3"
		},
		{
			"bufferView":14,
			"componentType":5126,
			"count":192,
			"type":"VEC2"
		},
		{
			"bufferView":15,
			"componentType":5123,
			"count":288,
			"type":"SCALAR"
		},
		{
			"bufferView":16,
			"componentType":5126,
			"count":192,
			"max":[
				0.2849999964237213,
				0.4699999988079071,
				0.2849999964237213
			],
			"min":[
				-0.2849999964237213,
				0.429999977350235,
				-0.2849999964237213
			],
			"type":"VEC3"
		},
		{
			"bufferView":17,
			"componentType":5126,
			"count":192,
			"type":"VEC3"
		},
		{
			"bufferView":18,
			"componentType":5126,
			"count":192,
			"type":"VEC2"
		},
		{
			"bufferView":19,
			"componentType":5126,
			"count":192,
			"max":[
				0.2849999964237213,
				0.7199999690055847,
				0.2849999964237213
			],
			"min":[
				-0.2849999964237213,
				0.6800000071525574,
				-0.2849999964237213
			],
			"type":"VEC3"
		},
		{
			"bufferView":20,
			"componentType":5126,
			"count":192,
			"type":"VEC3"
		},
		{
			"bufferView":21,
			"componentType":5126,
			"count":192,
			"type":"VEC2"
		}
	],
	"bufferViews":[
		{
			"buffer":0,
			"byteLength":600,
			"byteOffset":0,
			"target":34962
		},
		{
			"buffer":0,
			"byteLength":600,
			"byteOffset":600,
			"target":34962
		},
		{
			"buffer":0,
			"byteLength":400,
			"byteOffset":1200,
			"target":34962
		},
		{
			"buffer":0,
			"byteLength":264,
			"byteOffset":1600,
			"target":34963
		},
		{
			"buffer":0,
			"byteLength":432,
			"byteOffset":1864,
			"target":34962
		},
		{
			"buffer":0,
			"byteLength":432,
			"byteOffset":2296,
			"target":34962
		},
		{
			"buffer":0,
			"byteLength":288,
			"byteOffset":2728,
			"target":34962
		},
		{
			"buffer":0,
			"byteLength":120,
			"byteOffset":3016,
			"target":34963
		},
		{
			"buffer":0,
			"byteLength":864,
			"byteOffset":3136,
			"target":34962
		},
		{
			"buffer":0,
			"byteLength":864,
			"byteOffset":4000,
			"target":34962
		},
		{
			"buffer":0,
			"byteLength":576,
			"byteOffset":4864,
			"target":34962
		},
		{
			"buffer":0,
			"byteLength":264,
			"byteOffset":5440,
			"target":34963
		},
		{
			"buffer":0,
			"byteLength":2304,
			"byteOffset":5704,
			"target":34962
		},
		{
			"buffer":0,
			"byteLength":2304,
			"byteOffset":8008,
			"target":34962
		},
		{
			"buffer":0,
			"byteLength":1536,
			"byteOffset":10312,
			"target":34962
		},
		{
			"buffer":0,
			"byteLength":576,
			"byteOffset":11848,
			"target":34963
		},
		{
			"buffer":0,
			"byteLength":2304,
			"byteOffset":12424,
			"target":34962
		},
		{
			"buffer":0,
			"byteLength":2304,
			"byteOffset":14728,
			"target":34962
		},
		{
			"buffer":0,
			"byteLength":1536,
			"byteOffset":17032,
			"target":34962
		},
		{
			"buffer":0,
			"byteLength":2304,
			"byteOffset":18568,
			"target":34962
		},
		{
			"buffer":0,
			"byteLength":2304,
			"byteOffset":20872,
			"target":34962
		},
		{
			"buffer":0,
			"byteLength":1536,
			"byteOffset":23176,
			"target":34962
		}
	],
	"buffers":[
		{
			"byteLength":24712,
			"uri":"hd_trashcan.bin"
		}
	]
}
