{
	"asset":{
		"generator":"Khronos glTF Blender I/O v5.2.40",
		"version":"2.0"
	},
	"scene":0,
	"scenes":[
		{
			"name":"Scene",
			"nodes":[
				0,
				1,
				2,
				3,
				4,
				5,
				6,
				7,
				8,
				9,
				10,
				11,
				12,
				13,
				14,
				15,
				16,
				17
			]
		}
	],
	"nodes":[
		{
			"mesh":0,
			"name":"blade0"
		},
		{
			"mesh":1,
			"name":"blade1"
		},
		{
			"mesh":2,
			"name":"blade2"
		},
		{
			"mesh":3,
			"name":"blade3"
		},
		{
			"mesh":4,
			"name":"blade4"
		},
		{
			"mesh":5,
			"name":"blade5"
		},
		{
			"mesh":6,
			"name":"blade6"
		},
		{
			"mesh":7,
			"name":"blade7"
		},
		{
			"mesh":8,
			"name":"head0"
		},
		{
			"mesh":9,
			"name":"head1"
		},
		{
			"mesh":10,
			"name":"head2"
		},
		{
			"mesh":11,
			"name":"head3"
		},
		{
			"mesh":12,
			"name":"head4"
		},
		{
			"mesh":13,
			"name":"stem0"
		},
		{
			"mesh":14,
			"name":"stem1"
		},
		{
			"mesh":15,
			"name":"stem2"
		},
		{
			"mesh":16,
			"name":"stem3"
		},
		{
			"mesh":17,
			"name":"stem4"
		}
	],
	"materials":[
		{
			"doubleSided":true,
			"name":"M_bl0",
			"pbrMetallicRoughness":{
				"baseColorFactor":[
					0.09387587010860443,
					0.48776519298553467,
					0.05637409910559654,
					1
				],
				"metallicFactor":0,
				"roughnessFactor":0.8500000238418579
			}
		},
		{
			"doubleSided":true,
			"name":"M_bl1",
			"pbrMetallicRoughness":{
				"baseColorFactor":[
					0.1939721703529358,
					0.6592239737510681,
					0.0915183499455452,
					1
				],
				"metallicFactor":0,
				"roughnessFactor":0.8500000238418579
			}
		},
		{
			"doubleSided":true,
			"name":"M_bl2",
			"pbrMetallicRoughness":{
				"baseColorFactor":[
					0.5113978385925293,
					0.6940805315971375,
					0.07382776588201523,
					1
				],
				"metallicFactor":0,
				"roughnessFactor":0.8500000238418579
			}
		},
		{
			"doubleSided":true,
			"name":"M_bl3",
			"pbrMetallicRoughness":{
				"baseColorFactor":[
					0.09387587010860443,
					0.48776519298553467,
					0.05637409910559654,
					1
				],
				"metallicFactor":0,
				"roughnessFactor":0.8500000238418579
			}
		},
		{
			"doubleSided":true,
			"name":"M_bl4",
			"pbrMetallicRoughness":{
				"baseColorFactor":[
					0.1939721703529358,
					0.6592239737510681,
					0.0915183499455452,
					1
				],
				"metallicFactor":0,
				"roughnessFactor":0.8500000238418579
			}
		},
		{
			"doubleSided":true,
			"name":"M_bl5",
			"pbrMetallicRoughness":{
				"baseColorFactor":[
					0.5113978385925293,
					0.6940805315971375,
					0.07382776588201523,
					1
				],
				"metallicFactor":0,
				"roughnessFactor":0.8500000238418579
			}
		},
		{
			"doubleSided":true,
			"name":"M_bl6",
			"pbrMetallicRoughness":{
				"baseColorFactor":[
					0.09387587010860443,
					0.48776519298553467,
					0.05637409910559654,
					1
				],
				"metallicFactor":0,
				"roughnessFactor":0.8500000238418579
			}
		},
		{
			"doubleSided":true,
			"name":"M_bl7",
			"pbrMetallicRoughness":{
				"baseColorFactor":[
					0.1939721703529358,
					0.6592239737510681,
					0.0915183499455452,
					1
				],
				"metallicFactor":0,
				"roughnessFactor":0.8500000238418579
			}
		},
		{
			"doubleSided":true,
			"name":"M_hd0",
			"pbrMetallicRoughness":{
				"baseColorFactor":[
					0.8912620544433594,
					0.11657577753067017,
					0.19751642644405365,
					1
				],
				"metallicFactor":0,
				"roughnessFactor":0.8500000238418579
			}
		},
		{
			"doubleSided":true,
			"name":"M_hd1",
			"pbrMetallicRoughness":{
				"baseColorFactor":[
					1,
					0.5924380421638489,
					0.041451890021562576,
					1
				],
				"metallicFactor":0,
				"roughnessFactor":0.8500000238418579
			}
		},
		{
			"doubleSided":true,
			"name":"M_hd2",
			"pbrMetallicRoughness":{
				"baseColorFactor":[
					0.46474114060401917,
					0.20471012592315674,
					1,
					1
				],
				"metallicFactor":0,
				"roughnessFactor":0.8500000238418579
			}
		},
		{
			"doubleSided":true,
			"name":"M_hd3",
			"pbrMetallicRoughness":{
				"baseColorFactor":[
					1,
					0.9075471758842468,
					0.7518950700759888,
					1
				],
				"metallicFactor":0,
				"roughnessFactor":0.8500000238418579
			}
		},
		{
			"doubleSided":true,
			"name":"M_hd4",
			"pbrMetallicRoughness":{
				"baseColorFactor":[
					0.8912620544433594,
					0.11657577753067017,
					0.19751642644405365,
					1
				],
				"metallicFactor":0,
				"roughnessFactor":0.8500000238418579
			}
		},
		{
			"doubleSided":true,
			"name":"M_st0",
			"pbrMetallicRoughness":{
				"baseColorFactor":[
					0.044552627950906754,
					0.25491586327552795,
					0.06190747395157814,
					1
				],
				"metallicFactor":0,
				"roughnessFactor":0.8500000238418579
			}
		},
		{
			"doubleSided":true,
			"name":"M_st1",
			"pbrMetallicRoughness":{
				"baseColorFactor":[
					0.044552627950906754,
					0.25491586327552795,
					0.06190747395157814,
					1
				],
				"metallicFactor":0,
				"roughnessFactor":0.8500000238418579
			}
		},
		{
			"doubleSided":true,
			"name":"M_st2",
			"pbrMetallicRoughness":{
				"baseColorFactor":[
					0.044552627950906754,
					0.25491586327552795,
					0.06190747395157814,
					1
				],
				"metallicFactor":0,
				"roughnessFactor":0.8500000238418579
			}
		},
		{
			"doubleSided":true,
			"name":"M_st3",
			"pbrMetallicRoughness":{
				"baseColorFactor":[
					0.044552627950906754,
					0.25491586327552795,
					0.06190747395157814,
					1
				],
				"metallicFactor":0,
				"roughnessFactor":0.8500000238418579
			}
		},
		{
			"doubleSided":true,
			"name":"M_st4",
			"pbrMetallicRoughness":{
				"baseColorFactor":[
					0.044552627950906754,
					0.25491586327552795,
					0.06190747395157814,
					1
				],
				"metallicFactor":0,
				"roughnessFactor":0.8500000238418579
			}
		}
	],
	"meshes":[
		{
			"name":"Cone",
			"primitives":[
				{
					"attributes":{
						"POSITION":0,
						"NORMAL":1,
						"TEXCOORD_0":2
					},
					"indices":3,
					"material":0
				}
			]
		},
		{
			"name":"Cone.001",
			"primitives":[
				{
					"attributes":{
						"POSITION":4,
						"NORMAL":5,
						"TEXCOORD_0":6
					},
					"indices":7,
					"material":1
				}
			]
		},
		{
			"name":"Cone.002",
			"primitives":[
				{
					"attributes":{
						"POSITION":8,
						"NORMAL":9,
						"TEXCOORD_0":10
					},
					"indices":11,
					"material":2
				}
			]
		},
		{
			"name":"Cone.003",
			"primitives":[
				{
					"attributes":{
						"POSITION":12,
						"NORMAL":13,
						"TEXCOORD_0":14
					},
					"indices":15,
					"material":3
				}
			]
		},
		{
			"name":"Cone.004",
			"primitives":[
				{
					"attributes":{
						"POSITION":16,
						"NORMAL":17,
						"TEXCOORD_0":18
					},
					"indices":19,
					"material":4
				}
			]
		},
		{
			"name":"Cone.005",
			"primitives":[
				{
					"attributes":{
						"POSITION":20,
						"NORMAL":21,
						"TEXCOORD_0":22
					},
					"indices":23,
					"material":5
				}
			]
		},
		{
			"name":"Cone.006",
			"primitives":[
				{
					"attributes":{
						"POSITION":24,
						"NORMAL":25,
						"TEXCOORD_0":26
					},
					"indices":11,
					"material":6
				}
			]
		},
		{
			"name":"Cone.007",
			"primitives":[
				{
					"attributes":{
						"POSITION":27,
						"NORMAL":28,
						"TEXCOORD_0":29
					},
					"indices":30,
					"material":7
				}
			]
		},
		{
			"name":"Icosphere",
			"primitives":[
				{
					"attributes":{
						"POSITION":31,
						"NORMAL":32,
						"TEXCOORD_0":33
					},
					"indices":34,
					"material":8
				}
			]
		},
		{
			"name":"Icosphere.001",
			"primitives":[
				{
					"attributes":{
						"POSITION":35,
						"NORMAL":36,
						"TEXCOORD_0":37
					},
					"indices":34,
					"material":9
				}
			]
		},
		{
			"name":"Icosphere.002",
			"primitives":[
				{
					"attributes":{
						"POSITION":38,
						"NORMAL":39,
						"TEXCOORD_0":40
					},
					"indices":34,
					"material":10
				}
			]
		},
		{
			"name":"Icosphere.003",
			"primitives":[
				{
					"attributes":{
						"POSITION":41,
						"NORMAL":42,
						"TEXCOORD_0":43
					},
					"indices":34,
					"material":11
				}
			]
		},
		{
			"name":"Icosphere.004",
			"primitives":[
				{
					"attributes":{
						"POSITION":44,
						"NORMAL":45,
						"TEXCOORD_0":46
					},
					"indices":34,
					"material":12
				}
			]
		},
		{
			"name":"Cylinder",
			"primitives":[
				{
					"attributes":{
						"POSITION":47,
						"NORMAL":48,
						"TEXCOORD_0":49
					},
					"indices":11,
					"material":13
				}
			]
		},
		{
			"name":"Cylinder.001",
			"primitives":[
				{
					"attributes":{
						"POSITION":50,
						"NORMAL":51,
						"TEXCOORD_0":52
					},
					"indices":11,
					"material":14
				}
			]
		},
		{
			"name":"Cylinder.002",
			"primitives":[
				{
					"attributes":{
						"POSITION":53,
						"NORMAL":54,
						"TEXCOORD_0":55
					},
					"indices":11,
					"material":15
				}
			]
		},
		{
			"name":"Cylinder.003",
			"primitives":[
				{
					"attributes":{
						"POSITION":56,
						"NORMAL":57,
						"TEXCOORD_0":58
					},
					"indices":11,
					"material":16
				}
			]
		},
		{
			"name":"Cylinder.004",
			"primitives":[
				{
					"attributes":{
						"POSITION":59,
						"NORMAL":60,
						"TEXCOORD_0":61
					},
					"indices":11,
					"material":17
				}
			]
		}
	],
	"accessors":[
		{
			"bufferView":0,
			"componentType":5126,
			"count":24,
			"max":[
				0.3613003194332123,
				0.3640154004096985,
				0.029999999329447746
			],
			"min":[
				0.2623350918292999,
				-0.002431139349937439,
				-0.029999999329447746
			],
			"type":"VEC3"
		},
		{
			"bufferView":1,
			"componentType":5126,
			"count":24,
			"type":"VEC3"
		},
		{
			"bufferView":2,
			"componentType":5126,
			"count":24,
			"type":"VEC2"
		},
		{
			"bufferView":3,
			"componentType":5123,
			"count":36,
			"type":"SCALAR"
		},
		{
			"bufferView":4,
			"componentType":5126,
			"count":24,
			"max":[
				0.2628750205039978,
				0.3414652347564697,
				-0.1850457787513733
			],
			"min":[
				0.18520650267601013,
				-0.0010916739702224731,
				-0.26303577423095703
			],
			"type":"VEC3"
		},
		{
			"bufferView":5,
			"componentType":5126,
			"count":24,
			"type":"VEC3"
		},
		{
			"bufferView":6,
			"componentType":5126,
			"count":24,
			"type":"VEC2"
		},
		{
			"bufferView":7,
			"componentType":5123,
			"count":36,
			"type":"SCALAR"
		},
		{
			"bufferView":8,
			"componentType":5126,
			"count":24,
			"max":[
				0.029999999329447746,
				0.2835146188735962,
				-0.26937800645828247
			],
			"min":[
				-0.029999999329447746,
				-0.0030473172664642334,
				-0.35425740480422974
			],
			"type":"VEC3"
		},
		{
			"bufferView":9,
			"componentType":5126,
			"count":24,
			"type":"VEC3"
		},
		{
			"bufferView":10,
			"componentType":5126,
			"count":24,
			"type":"VEC2"
		},
		{
			"bufferView":11,
			"componentType":5123,
			"count":36,
			"type":"SCALAR"
		},
		{
			"bufferView":12,
			"componentType":5126,
			"count":24,
			"max":[
				-0.1776743233203888,
				0.4638434052467346,
				-0.177455872297287
			],
			"min":[
				-0.27040719985961914,
				-0.0001573413610458374,
				-0.27062568068504333
			],
			"type":"VEC3"
		},
		{
			"bufferView":13,
			"componentType":5126,
			"count":24,
			"type":"VEC3"
		},
		{
			"bufferView":14,
			"componentType":5126,
			"count":24,
			"type":"VEC2"
		},
		{
			"bufferView":15,
			"componentType":5123,
			"count":36,
			"type":"SCALAR"
		},
		{
			"bufferView":16,
			"componentType":5126,
			"count":24,
			"max":[
				-0.27224546670913696,
				0.2507393956184387,
				0.029999999329447746
			],
			"min":[
				-0.35138994455337524,
				-0.0032981932163238525,
				-0.029999999329447746
			],
			"type":"VEC3"
		},
		{
			"bufferView":17,
			"componentType":5126,
			"count":24,
			"type":"VEC3"
		},
		{
			"bufferView":18,
			"componentType":5126,
			"count":24,
			"type":"VEC2"
		},
		{
			"bufferView":19,
			"componentType":5123,
			"count":36,
			"type":"SCALAR"
		},
		{
			"bufferView":20,
			"componentType":5126,
			"count":24,
			"max":[
				-0.18322941660881042,
				0.37358754873275757,
				0.2650279998779297
			],
			"min":[
				-0.2648521065711975,
				-0.0008464306592941284,
				0.18305353820323944
			],
			"type":"VEC3"
		},
		{
			"bufferView":21,
			"componentType":5126,
			"count":24,
			"type":"VEC3"
		},
		{
			"bufferView":22,
			"componentType":5126,
			"count":24,
			"type":"VEC2"
		},
		{
			"bufferView":23,
			"componentType":5123,
			"count":36,
			"type":"SCALAR"
		},
		{
			"bufferView":24,
			"componentType":5126,
			"count":24,
			"max":[
				0.029999999329447746,
				0.4720114469528198,
				0.37074875831604004
			],
			"min":[
				-0.029999999329447746,
				-0.001604512333869934,
				0.25288665294647217
			],
			"type":"VEC3"
		},
		{
			"bufferView":25,
			"componentType":5126,
			"count":24,
			"type":"VEC3"
		},
		{
			"bufferView":26,
			"componentType":5126,
			"count":24,
			"type":"VEC2"
		},
		{
			"bufferView":27,
			"componentType":5126,
			"count":24,
			"max":[
				0.25840845704078674,
				0.2688949704170227,
				0.2585349380970001
			],
			"min":[
				0.18967308104038239,
				-0.0016457140445709229,
				0.1895465850830078
			],
			"type":"VEC3"
		},
		{
			"bufferView":28,
			"componentType":5126,
			"count":24,
			"type":"VEC3"
		},
		{
			"bufferView":29,
			"componentType":5126,
			"count":24,
			"type":"VEC2"
		},
		{
			"bufferView":30,
			"componentType":5123,
			"count":36,
			"type":"SCALAR"
		},
		{
			"bufferView":31,
			"componentType":5126,
			"count":60,
			"max":[
				-0.11739033460617065,
				0.4002239406108856,
				0.12341832369565964
			],
			"min":[
				-0.24260982871055603,
				0.3002239167690277,
				0.004328720271587372
			],
			"type":"VEC3"
		},
		{
			"bufferView":32,
			"componentType":5126,
			"count":60,
			"type":"VEC3"
		},
		{
			"bufferView":33,
			"componentType":5126,
			"count":60,
			"type":"VEC2"
		},
		{
			"bufferView":34,
			"componentType":5123,
			"count":60,
			"type":"SCALAR"
		},
		{
			"bufferView":35,
			"componentType":5126,
			"count":60,
			"max":[
				-0.08714030683040619,
				0.5030052065849304,
				-0.0828259140253067
			],
			"min":[
				-0.21235980093479156,
				0.4030052125453949,
				-0.20191551744937897
			],
			"type":"VEC3"
		},
		{
			"bufferView":36,
			"componentType":5126,
			"count":60,
			"type":"VEC3"
		},
		{
			"bufferView":37,
			"componentType":5126,
			"count":60,
			"type":"VEC2"
		},
		{
			"bufferView":38,
			"componentType":5126,
			"count":60,
			"max":[
				0.04571365565061569,
				0.4495030641555786,
				0.166506826877594
			],
			"min":[
				-0.07950583845376968,
				0.3495030403137207,
				0.047417230904102325
			],
			"type":"VEC3"
		},
		{
			"bufferView":39,
			"componentType":5126,
			"count":60,
			"type":"VEC3"
		},
		{
			"bufferView":40,
			"componentType":5126,
			"count":60,
			"type":"VEC2"
		},
		{
			"bufferView":41,
			"componentType":5126,
			"count":60,
			"max":[
				0.1938147246837616,
				0.6209574341773987,
				-0.05031963437795639
			],
			"min":[
				0.06859523057937622,
				0.5209574103355408,
				-0.16940924525260925
			],
			"type":"VEC3"
		},
		{
			"bufferView":42,
			"componentType":5126,
			"count":60,
			"type":"VEC3"
		},
		{
			"bufferView":43,
			"componentType":5126,
			"count":60,
			"type":"VEC2"
		},
		{
			"bufferView":44,
			"componentType":5126,
			"count":60,
			"max":[
				-0.12228299677371979,
				0.48591622710227966,
				0.17758071422576904
			],
			"min":[
				-0.24750249087810516,
				0.38591620326042175,
				0.05849110335111618
			],
			"type":"VEC3"
		},
		{
			"bufferView":45,
			"componentType":5126,
			"count":60,
			"type":"VEC3"
		},
		{
			"bufferView":46,
			"componentType":5126,
			"count":60,
			"type":"VEC2"
		},
		{
			"bufferView":47,
			"componentType":5126,
			"count":24,
			"max":[
				-0.16800008714199066,
				0.31022393703460693,
				0.07587352395057678
			],
			"min":[
				-0.19200007617473602,
				0,
				0.05187352001667023
			],
			"type":"VEC3"
		},
		{
			"bufferView":48,
			"componentType":5126,
			"count":24,
			"type":"VEC3"
		},
		{
			"bufferView":49,
			"componentType":5126,
			"count":24,
			"type":"VEC2"
		},
		{
			"bufferView":50,
			"componentType":5126,
			"count":24,
			"max":[
				-0.1377500593662262,
				0.4130052328109741,
				-0.13037072122097015
			],
			"min":[
				-0.16175004839897156,
				0,
				-0.15437071025371552
			],
			"type":"VEC3"
		},
		{
			"bufferView":51,
			"componentType":5126,
			"count":24,
			"type":"VEC3"
		},
		{
			"bufferView":52,
			"componentType":5126,
			"count":24,
			"type":"VEC2"
		},
		{
			"bufferView":53,
			"componentType":5126,
			"count":24,
			"max":[
				-0.004896089434623718,
				0.3595030605792999,
				0.11896203458309174
			],
			"min":[
				-0.028896089643239975,
				0,
				0.09496203064918518
			],
			"type":"VEC3"
		},
		{
			"bufferView":54,
			"componentType":5126,
			"count":24,
			"type":"VEC3"
		},
		{
			"bufferView":55,
			"componentType":5126,
			"count":24,
			"type":"VEC2"
		},
		{
			"bufferView":56,
			"componentType":5126,
			"count":24,
			"max":[
				0.1432049721479416,
				0.5309574604034424,
				-0.09786443412303925
			],
			"min":[
				0.11920497566461563,
				0,
				-0.1218644380569458
			],
			"type":"VEC3"
		},
		{
			"bufferView":57,
			"componentType":5126,
			"count":24,
			"type":"VEC3"
		},
		{
			"bufferView":58,
			"componentType":5126,
			"count":24,
			"type":"VEC2"
		},
		{
			"bufferView":59,
			"componentType":5126,
			"count":24,
			"max":[
				-0.1728927493095398,
				0.395916223526001,
				0.1300359070301056
			],
			"min":[
				-0.19689273834228516,
				0,
				0.10603590309619904
			],
			"type":"VEC3"
		},
		{
			"bufferView":60,
			"componentType":5126,
			"count":24,
			"type":"VEC3"
		},
		{
			"bufferView":61,
			"componentType":5126,
			"count":24,
			"type":"VEC2"
		}
	],
	"bufferViews":[
		{
			"buffer":0,
			"byteLength":288,
			"byteOffset":0,
			"target":34962
		},
		{
			"buffer":0,
			"byteLength":288,
			"byteOffset":288,
			"target":34962
		},
		{
			"buffer":0,
			"byteLength":192,
			"byteOffset":576,
			"target":34962
		},
		{
			"buffer":0,
			"byteLength":72,
			"byteOffset":768,
			"target":34963
		},
		{
			"buffer":0,
			"byteLength":288,
			"byteOffset":840,
			"target":34962
		},
		{
			"buffer":0,
			"byteLength":288,
			"byteOffset":1128,
			"target":34962
		},
		{
			"buffer":0,
			"byteLength":192,
			"byteOffset":1416,
			"target":34962
		},
		{
			"buffer":0,
			"byteLength":72,
			"byteOffset":1608,
			"target":34963
		},
		{
			"buffer":0,
			"byteLength":288,
			"byteOffset":1680,
			"target":34962
		},
		{
			"buffer":0,
			"byteLength":288,
			"byteOffset":1968,
			"target":34962
		},
		{
			"buffer":0,
			"byteLength":192,
			"byteOffset":2256,
			"target":34962
		},
		{
			"buffer":0,
			"byteLength":72,
			"byteOffset":2448,
			"target":34963
		},
		{
			"buffer":0,
			"byteLength":288,
			"byteOffset":2520,
			"target":34962
		},
		{
			"buffer":0,
			"byteLength":288,
			"byteOffset":2808,
			"target":34962
		},
		{
			"buffer":0,
			"byteLength":192,
			"byteOffset":3096,
			"target":34962
		},
		{
			"buffer":0,
			"byteLength":72,
			"byteOffset":3288,
			"target":34963
		},
		{
			"buffer":0,
			"byteLength":288,
			"byteOffset":3360,
			"target":34962
		},
		{
			"buffer":0,
			"byteLength":288,
			"byteOffset":3648,
			"target":34962
		},
		{
			"buffer":0,
			"byteLength":192,
			"byteOffset":3936,
			"target":34962
		},
		{
			"buffer":0,
			"byteLength":72,
			"byteOffset":4128,
			"target":34963
		},
		{
			"buffer":0,
			"byteLength":288,
			"byteOffset":4200,
			"target":34962
		},
		{
			"buffer":0,
			"byteLength":288,
			"byteOffset":4488,
			"target":34962
		},
		{
			"buffer":0,
			"byteLength":192,
			"byteOffset":4776,
			"target":34962
		},
		{
			"buffer":0,
			"byteLength":72,
			"byteOffset":4968,
			"target":34963
		},
		{
			"buffer":0,
			"byteLength":288,
			"byteOffset":5040,
			"target":34962
		},
		{
			"buffer":0,
			"byteLength":288,
			"byteOffset":5328,
			"target":34962
		},
		{
			"buffer":0,
			"byteLength":192,
			"byteOffset":5616,
			"target":34962
		},
		{
			"buffer":0,
			"byteLength":288,
			"byteOffset":5808,
			"target":34962
		},
		{
			"buffer":0,
			"byteLength":288,
			"byteOffset":6096,
			"target":34962
		},
		{
			"buffer":0,
			"byteLength":192,
			"byteOffset":6384,
			"target":34962
		},
		{
			"buffer":0,
			"byteLength":72,
			"byteOffset":6576,
			"target":34963
		},
		{
			"buffer":0,
			"byteLength":720,
			"byteOffset":6648,
			"target":34962
		},
		{
			"buffer":0,
			"byteLength":720,
			"byteOffset":7368,
			"target":34962
		},
		{
			"buffer":0,
			"byteLength":480,
			"byteOffset":8088,
			"target":34962
		},
		{
			"buffer":0,
			"byteLength":120,
			"byteOffset":8568,
			"target":34963
		},
		{
			"buffer":0,
			"byteLength":720,
			"byteOffset":8688,
			"target":34962
		},
		{
			"buffer":0,
			"byteLength":720,
			"byteOffset":9408,
			"target":34962
		},
		{
			"buffer":0,
			"byteLength":480,
			"byteOffset":10128,
			"target":34962
		},
		{
			"buffer":0,
			"byteLength":720,
			"byteOffset":10608,
			"target":34962
		},
		{
			"buffer":0,
			"byteLength":720,
			"byteOffset":11328,
			"target":34962
		},
		{
			"buffer":0,
			"byteLength":480,
			"byteOffset":12048,
			"target":34962
		},
		{
			"buffer":0,
			"byteLength":720,
			"byteOffset":12528,
			"target":34962
		},
		{
			"buffer":0,
			"byteLength":720,
			"byteOffset":13248,
			"target":34962
		},
		{
			"buffer":0,
			"byteLength":480,
			"byteOffset":13968,
			"target":34962
		},
		{
			"buffer":0,
			"byteLength":720,
			"byteOffset":14448,
			"target":34962
		},
		{
			"buffer":0,
			"byteLength":720,
			"byteOffset":15168,
			"target":34962
		},
		{
			"buffer":0,
			"byteLength":480,
			"byteOffset":15888,
			"target":34962
		},
		{
			"buffer":0,
			"byteLength":288,
			"byteOffset":16368,
			"target":34962
		},
		{
			"buffer":0,
			"byteLength":288,
			"byteOffset":16656,
			"target":34962
		},
		{
			"buffer":0,
			"byteLength":192,
			"byteOffset":16944,
			"target":34962
		},
		{
			"buffer":0,
			"byteLength":288,
			"byteOffset":17136,
			"target":34962
		},
		{
			"buffer":0,
			"byteLength":288,
			"byteOffset":17424,
			"target":34962
		},
		{
			"buffer":0,
			"byteLength":192,
			"byteOffset":17712,
			"target":34962
		},
		{
			"buffer":0,
			"byteLength":288,
			"byteOffset":17904,
			"target":34962
		},
		{
			"buffer":0,
			"byteLength":288,
			"byteOffset":18192,
			"target":34962
		},
		{
			"buffer":0,
			"byteLength":192,
			"byteOffset":18480,
			"target":34962
		},
		{
			"buffer":0,
			"byteLength":288,
			"byteOffset":18672,
			"target":34962
		},
		{
			"buffer":0,
			"byteLength":288,
			"byteOffset":18960,
			"target":34962
		},
		{
			"buffer":0,
			"byteLength":192,
			"byteOffset":19248,
			"target":34962
		},
		{
			"buffer":0,
			"byteLength":288,
			"byteOffset":19440,
			"target":34962
		},
		{
			"buffer":0,
			"byteLength":288,
			"byteOffset":19728,
			"target":34962
		},
		{
			"buffer":0,
			"byteLength":192,
			"byteOffset":20016,
			"target":34962
		}
	],
	"buffers":[
		{
			"byteLength":20208,
			"uri":"hd_flowers.bin"
		}
	]
}
