{
	"asset":{
		"generator":"Khronos glTF Blender I/O v5.2.40",
		"version":"2.0"
	},
	"scene":0,
	"scenes":[
		{
			"name":"Scene",
			"nodes":[
				0,
				1,
				2,
				3,
				4,
				5,
				6,
				7
			]
		}
	],
	"nodes":[
		{
			"mesh":0,
			"name":"br0",
			"rotation":[
				-0.007142718881368637,
				6.404232408385724e-05,
				-0.0089655090123415,
				0.9999343156814575
			]
		},
		{
			"mesh":1,
			"name":"br1",
			"rotation":[
				0.06358781456947327,
				0.00032763840863481164,
				0.005142039619386196,
				0.9979629516601562
			]
		},
		{
			"mesh":2,
			"name":"br2",
			"rotation":[
				0.001176089746877551,
				-1.5416742826346308e-05,
				-0.013107344508171082,
				0.9999135136604309
			]
		},
		{
			"mesh":3,
			"name":"br3",
			"rotation":[
				-0.04728325083851814,
				8.446195715805516e-05,
				-0.0017842974048107862,
				0.9988800287246704
			]
		},
		{
			"mesh":4,
			"name":"tip0"
		},
		{
			"mesh":5,
			"name":"tip1"
		},
		{
			"mesh":6,
			"name":"tip2"
		},
		{
			"mesh":7,
			"name":"tip3"
		}
	],
	"materials":[
		{
			"doubleSided":true,
			"name":"M_co0",
			"pbrMetallicRoughness":{
				"baseColorFactor":[
					0.7372047901153564,
					0.15728072822093964,
					0.19751642644405365,
					1
				],
				"metallicFactor":0,
				"roughnessFactor":0.8500000238418579
			}
		},
		{
			"doubleSided":true,
			"name":"M_co1",
			"pbrMetallicRoughness":{
				"baseColorFactor":[
					0.8751375675201416,
					0.26735806465148926,
					0.26735806465148926,
					1
				],
				"metallicFactor":0,
				"roughnessFactor":0.8500000238418579
			}
		},
		{
			"doubleSided":true,
			"name":"M_co2",
			"pbrMetallicRoughness":{
				"baseColorFactor":[
					0.7372047901153564,
					0.15728072822093964,
					0.19751642644405365,
					1
				],
				"metallicFactor":0,
				"roughnessFactor":0.8500000238418579
			}
		},
		{
			"doubleSided":true,
			"name":"M_co3",
			"pbrMetallicRoughness":{
				"baseColorFactor":[
					0.8751375675201416,
					0.26735806465148926,
					0.26735806465148926,
					1
				],
				"metallicFactor":0,
				"roughnessFactor":0.8500000238418579
			}
		},
		{
			"doubleSided":true,
			"name":"M_ct0",
			"pbrMetallicRoughness":{
				"baseColorFactor":[
					0.8751375675201416,
					0.26735806465148926,
					0.26735806465148926,
					1
				],
				"metallicFactor":0,
				"roughnessFactor":0.8500000238418579
			}
		},
		{
			"doubleSided":true,
			"name":"M_ct1",
			"pbrMetallicRoughness":{
				"baseColorFactor":[
					0.8751375675201416,
					0.26735806465148926,
					0.26735806465148926,
					1
				],
				"metallicFactor":0,
				"roughnessFactor":0.8500000238418579
			}
		},
		{
			"doubleSided":true,
			"name":"M_ct2",
			"pbrMetallicRoughness":{
				"baseColorFactor":[
					0.8751375675201416,
					0.26735806465148926,
					0.26735806465148926,
					1
				],
				"metallicFactor":0,
				"roughnessFactor":0.8500000238418579
			}
		},
		{
			"doubleSided":true,
			"name":"M_ct3",
			"pbrMetallicRoughness":{
				"baseColorFactor":[
					0.8751375675201416,
					0.26735806465148926,
					0.26735806465148926,
					1
				],
				"metallicFactor":0,
				"roughnessFactor":0.8500000238418579
			}
		}
	],
	"meshes":[
		{
			"name":"Cylinder",
			"primitives":[
				{
					"attributes":{
						"POSITION":0,
						"NORMAL":1,
						"TEXCOORD_0":2
					},
					"indices":3,
					"material":0
				}
			]
		},
		{
			"name":"Cylinder.001",
			"primitives":[
				{
					"attributes":{
						"POSITION":4,
						"NORMAL":5,
						"TEXCOORD_0":6
					},
					"indices":3,
					"material":1
				}
			]
		},
		{
			"name":"Cylinder.002",
			"primitives":[
				{
					"attributes":{
						"POSITION":7,
						"NORMAL":8,
						"TEXCOORD_0":9
					},
					"indices":3,
					"material":2
				}
			]
		},
		{
			"name":"Cylinder.003",
			"primitives":[
				{
					"attributes":{
						"POSITION":10,
						"NORMAL":11,
						"TEXCOORD_0":12
					},
					"indices":3,
					"material":3
				}
			]
		},
		{
			"name":"Icosphere",
			"primitives":[
				{
					"attributes":{
						"POSITION":13,
						"NORMAL":14,
						"TEXCOORD_0":15
					},
					"indices":16,
					"material":4
				}
			]
		},
		{
			"name":"Icosphere.001",
			"primitives":[
				{
					"attributes":{
						"POSITION":17,
						"NORMAL":18,
						"TEXCOORD_0":19
					},
					"indices":16,
					"material":5
				}
			]
		},
		{
			"name":"Icosphere.002",
			"primitives":[
				{
					"attributes":{
						"POSITION":20,
						"NORMAL":21,
						"TEXCOORD_0":22
					},
					"indices":16,
					"material":6
				}
			]
		},
		{
			"name":"Icosphere.003",
			"primitives":[
				{
					"attributes":{
						"POSITION":23,
						"NORMAL":24,
						"TEXCOORD_0":25
					},
					"indices":16,
					"material":7
				}
			]
		}
	],
	"accessors":[
		{
			"bufferView":0,
			"componentType":5126,
			"count":26,
			"max":[
				0.060621775686740875,
				0.8999999761581421,
				0.07000000029802322
			],
			"min":[
				-0.060621775686740875,
				0,
				-0.07000000029802322
			],
			"type":"VEC3"
		},
		{
			"bufferView":1,
			"componentType":5126,
			"count":26,
			"type":"VEC3"
		},
		{
			"bufferView":2,
			"componentType":5126,
			"count":26,
			"type":"VEC2"
		},
		{
			"bufferView":3,
			"componentType":5123,
			"count":60,
			"type":"SCALAR"
		},
		{
			"bufferView":4,
			"componentType":5126,
			"count":26,
			"max":[
				0.24062177538871765,
				0.699999988079071,
				-0.030000001192092896
			],
			"min":[
				0.1193782314658165,
				0,
				-0.17000000178813934
			],
			"type":"VEC3"
		},
		{
			"bufferView":5,
			"componentType":5126,
			"count":26,
			"type":"VEC3"
		},
		{
			"bufferView":6,
			"componentType":5126,
			"count":26,
			"type":"VEC2"
		},
		{
			"bufferView":7,
			"componentType":5126,
			"count":26,
			"max":[
				-0.09937822073698044,
				0.6000000238418579,
				0.12000000476837158
			],
			"min":[
				-0.2206217646598816,
				0,
				-0.019999999552965164
			],
			"type":"VEC3"
		},
		{
			"bufferView":8,
			"componentType":5126,
			"count":26,
			"type":"VEC3"
		},
		{
			"bufferView":9,
			"componentType":5126,
			"count":26,
			"type":"VEC2"
		},
		{
			"bufferView":10,
			"componentType":5126,
			"count":26,
			"max":[
				0.11062178015708923,
				0.5,
				0.25
			],
			"min":[
				-0.010621774941682816,
				0,
				0.11000000685453415
			],
			"type":"VEC3"
		},
		{
			"bufferView":11,
			"componentType":5126,
			"count":26,
			"type":"VEC3"
		},
		{
			"bufferView":12,
			"componentType":5126,
			"count":26,
			"type":"VEC2"
		},
		{
			"bufferView":13,
			"componentType":5126,
			"count":22,
			"max":[
				0.10493294149637222,
				1.0537341833114624,
				0.1134815365076065
			],
			"min":[
				-0.07448495924472809,
				0.7870153784751892,
				-0.09919775277376175
			],
			"type":"VEC3"
		},
		{
			"bufferView":14,
			"componentType":5126,
			"count":22,
			"type":"VEC3"
		},
		{
			"bufferView":15,
			"componentType":5126,
			"count":22,
			"type":"VEC2"
		},
		{
			"bufferView":16,
			"componentType":5123,
			"count":60,
			"type":"SCALAR"
		},
		{
			"bufferView":17,
			"componentType":5126,
			"count":22,
			"max":[
				0.2725563943386078,
				0.8051874041557312,
				-0.012142899446189404
			],
			"min":[
				0.08034500479698181,
				0.6064329147338867,
				-0.2141852229833603
			],
			"type":"VEC3"
		},
		{
			"bufferView":18,
			"componentType":5126,
			"count":22,
			"type":"VEC3"
		},
		{
			"bufferView":19,
			"componentType":5126,
			"count":22,
			"type":"VEC2"
		},
		{
			"bufferView":20,
			"componentType":5126,
			"count":22,
			"max":[
				-0.06348912417888641,
				0.7707304358482361,
				0.12239804863929749
			],
			"min":[
				-0.24115853011608124,
				0.5214808583259583,
				-0.07749226689338684
			],
			"type":"VEC3"
		},
		{
			"bufferView":21,
			"componentType":5126,
			"count":22,
			"type":"VEC3"
		},
		{
			"bufferView":22,
			"componentType":5126,
			"count":22,
			"type":"VEC2"
		},
		{
			"bufferView":23,
			"componentType":5126,
			"count":22,
			"max":[
				0.1544150710105896,
				0.6069514751434326,
				0.29033753275871277
			],
			"min":[
				-0.08099167048931122,
				0.38567015528678894,
				0.10487104952335358
			],
			"type":"VEC3"
		},
		{
			"bufferView":24,
			"componentType":5126,
			"count":22,
			"type":"VEC3"
		},
		{
			"bufferView":25,
			"componentType":5126,
			"count":22,
			"type":"VEC2"
		}
	],
	"bufferViews":[
		{
			"buffer":0,
			"byteLength":312,
			"byteOffset":0,
			"target":34962
		},
		{
			"buffer":0,
			"byteLength":312,
			"byteOffset":312,
			"target":34962
		},
		{
			"buffer":0,
			"byteLength":208,
			"byteOffset":624,
			"target":34962
		},
		{
			"buffer":0,
			"byteLength":120,
			"byteOffset":832,
			"target":34963
		},
		{
			"buffer":0,
			"byteLength":312,
			"byteOffset":952,
			"target":34962
		},
		{
			"buffer":0,
			"byteLength":312,
			"byteOffset":1264,
			"target":34962
		},
		{
			"buffer":0,
			"byteLength":208,
			"byteOffset":1576,
			"target":34962
		},
		{
			"buffer":0,
			"byteLength":312,
			"byteOffset":1784,
			"target":34962
		},
		{
			"buffer":0,
			"byteLength":312,
			"byteOffset":2096,
			"target":34962
		},
		{
			"buffer":0,
			"byteLength":208,
			"byteOffset":2408,
			"target":34962
		},
		{
			"buffer":0,
			"byteLength":312,
			"byteOffset":2616,
			"target":34962
		},
		{
			"buffer":0,
			"byteLength":312,
			"byteOffset":2928,
			"target":34962
		},
		{
			"buffer":0,
			"byteLength":208,
			"byteOffset":3240,
			"target":34962
		},
		{
			"buffer":0,
			"byteLength":264,
			"byteOffset":3448,
			"target":34962
		},
		{
			"buffer":0,
			"byteLength":264,
			"byteOffset":3712,
			"target":34962
		},
		{
			"buffer":0,
			"byteLength":176,
			"byteOffset":3976,
			"target":34962
		},
		{
			"buffer":0,
			"byteLength":120,
			"byteOffset":4152,
			"target":34963
		},
		{
			"buffer":0,
			"byteLength":264,
			"byteOffset":4272,
			"target":34962
		},
		{
			"buffer":0,
			"byteLength":264,
			"byteOffset":4536,
			"target":34962
		},
		{
			"buffer":0,
			"byteLength":176,
			"byteOffset":4800,
			"target":34962
		},
		{
			"buffer":0,
			"byteLength":264,
			"byteOffset":4976,
			"target":34962
		},
		{
			"buffer":0,
			"byteLength":264,
			"byteOffset":5240,
			"target":34962
		},
		{
			"buffer":0,
			"byteLength":176,
			"byteOffset":5504,
			"target":34962
		},
		{
			"buffer":0,
			"byteLength":264,
			"byteOffset":5680,
			"target":34962
		},
		{
			"buffer":0,
			"byteLength":264,
			"byteOffset":5944,
			"target":34962
		},
		{
			"buffer":0,
			"byteLength":176,
			"byteOffset":6208,
			"target":34962
		}
	],
	"buffers":[
		{
			"byteLength":6384,
			"uri":"hd_coral.bin"
		}
	]
}
