{
	"asset":{
		"generator":"Khronos glTF Blender I/O v5.2.40",
		"version":"2.0"
	},
	"scene":0,
	"scenes":[
		{
			"name":"Scene",
			"nodes":[
				0,
				1,
				2,
				3,
				4,
				5,
				6,
				7,
				8,
				9
			]
		}
	],
	"nodes":[
		{
			"mesh":0,
			"name":"fire_hydrant",
			"translation":[
				-0.30000001192092896,
				0,
				0
			]
		},
		{
			"mesh":1,
			"name":"fire_hydrant_aged",
			"translation":[
				0.30000001192092896,
				0,
				0
			]
		},
		{
			"mesh":2,
			"name":"fire_hydrant_cap_01",
			"translation":[
				-0.30000001192092896,
				0,
				0
			]
		},
		{
			"mesh":3,
			"name":"fire_hydrant_cap_01_aged",
			"translation":[
				0.30000001192092896,
				0,
				0
			]
		},
		{
			"mesh":4,
			"name":"fire_hydrant_cap_02",
			"translation":[
				-0.30000001192092896,
				0,
				0
			]
		},
		{
			"mesh":5,
			"name":"fire_hydrant_cap_02_aged",
			"translation":[
				0.30000001192092896,
				0,
				0
			]
		},
		{
			"mesh":6,
			"name":"fire_hydrant_cap_03",
			"translation":[
				-0.30000001192092896,
				0,
				0
			]
		},
		{
			"mesh":7,
			"name":"fire_hydrant_cap_03_aged",
			"translation":[
				0.30000001192092896,
				0,
				0
			]
		},
		{
			"mesh":8,
			"name":"fire_hydrant_chain",
			"translation":[
				-0.30000001192092896,
				0,
				0
			]
		},
		{
			"mesh":9,
			"name":"fire_hydrant_chain_aged",
			"translation":[
				0.30000001192092896,
				0,
				0
			]
		}
	],
	"materials":[
		{
			"doubleSided":true,
			"name":"fire_hydrant",
			"normalTexture":{
				"index":0
			},
			"pbrMetallicRoughness":{
				"baseColorTexture":{
					"index":1
				},
				"metallicRoughnessTexture":{
					"index":2
				}
			}
		},
		{
			"doubleSided":true,
			"name":"fire_hydrant_aged",
			"normalTexture":{
				"index":3
			},
			"pbrMetallicRoughness":{
				"baseColorTexture":{
					"index":4
				},
				"metallicRoughnessTexture":{
					"index":5
				}
			}
		}
	],
	"meshes":[
		{
			"name":"Cylinder.001",
			"primitives":[
				{
					"attributes":{
						"POSITION":0,
						"NORMAL":1,
						"TEXCOORD_0":2
					},
					"indices":3,
					"material":0
				}
			]
		},
		{
			"name":"Cylinder.006",
			"primitives":[
				{
					"attributes":{
						"POSITION":4,
						"NORMAL":5,
						"TEXCOORD_0":6
					},
					"indices":3,
					"material":1
				}
			]
		},
		{
			"name":"Cylinder.024",
			"primitives":[
				{
					"attributes":{
						"POSITION":7,
						"NORMAL":8,
						"TEXCOORD_0":9
					},
					"indices":10,
					"material":0
				}
			]
		},
		{
			"name":"Cylinder.007",
			"primitives":[
				{
					"attributes":{
						"POSITION":11,
						"NORMAL":12,
						"TEXCOORD_0":13
					},
					"indices":10,
					"material":1
				}
			]
		},
		{
			"name":"Cylinder.026",
			"primitives":[
				{
					"attributes":{
						"POSITION":14,
						"NORMAL":15,
						"TEXCOORD_0":16
					},
					"indices":17,
					"material":0
				}
			]
		},
		{
			"name":"Cylinder.009",
			"primitives":[
				{
					"attributes":{
						"POSITION":18,
						"NORMAL":19,
						"TEXCOORD_0":20
					},
					"indices":17,
					"material":1
				}
			]
		},
		{
			"name":"Cylinder.025",
			"primitives":[
				{
					"attributes":{
						"POSITION":21,
						"NORMAL":22,
						"TEXCOORD_0":23
					},
					"indices":24,
					"material":0
				}
			]
		},
		{
			"name":"Cylinder.008",
			"primitives":[
				{
					"attributes":{
						"POSITION":25,
						"NORMAL":26,
						"TEXCOORD_0":27
					},
					"indices":24,
					"material":1
				}
			]
		},
		{
			"name":"BezierCurve.040",
			"primitives":[
				{
					"attributes":{
						"POSITION":28,
						"NORMAL":29,
						"TEXCOORD_0":30
					},
					"indices":31,
					"material":0
				}
			]
		},
		{
			"name":"BezierCurve.002",
			"primitives":[
				{
					"attributes":{
						"POSITION":32,
						"NORMAL":33,
						"TEXCOORD_0":34
					},
					"indices":31,
					"material":1
				}
			]
		}
	],
	"textures":[
		{
			"sampler":0,
			"source":0
		},
		{
			"sampler":0,
			"source":1
		},
		{
			"sampler":0,
			"source":2
		},
		{
			"sampler":0,
			"source":3
		},
		{
			"sampler":0,
			"source":4
		},
		{
			"sampler":0,
			"source":5
		}
	],
	"images":[
		{
			"mimeType":"image/jpeg",
			"name":"fire_hydrant_nor_gl",
			"uri":"textures/fire_hydrant_nor_gl_2k.jpg"
		},
		{
			"mimeType":"image/jpeg",
			"name":"fire_hydrant_diff",
			"uri":"textures/fire_hydrant_diff_2k.jpg"
		},
		{
			"mimeType":"image/jpeg",
			"name":"fire_hydrant_metal-fire_hydrant_rough",
			"uri":"textures/fire_hydrant_arm_2k.jpg"
		},
		{
			"mimeType":"image/jpeg",
			"name":"fire_hydrant_aged_nor_gl",
			"uri":"textures/fire_hydrant_aged_nor_gl_2k.jpg"
		},
		{
			"mimeType":"image/jpeg",
			"name":"fire_hydrant_aged_diff",
			"uri":"textures/fire_hydrant_aged_diff_2k.jpg"
		},
		{
			"mimeType":"image/jpeg",
			"name":"fire_hydrant_aged_metal-fire_hydrant_aged_rough",
			"uri":"textures/fire_hydrant_aged_arm_2k.jpg"
		}
	],
	"accessors":[
		{
			"bufferView":0,
			"componentType":5126,
			"count":3970,
			"max":[
				0.1265747845172882,
				0.8000933527946472,
				0.1572907418012619
			],
			"min":[
				-0.12779033184051514,
				-0.00017513685452286154,
				-0.1262764036655426
			],
			"type":"VEC3"
		},
		{
			"bufferView":1,
			"componentType":5126,
			"count":3970,
			"type":"VEC3"
		},
		{
			"bufferView":2,
			"componentType":5126,
			"count":3970,
			"type":"VEC2"
		},
		{
			"bufferView":3,
			"componentType":5123,
			"count":13728,
			"type":"SCALAR"
		},
		{
			"bufferView":4,
			"componentType":5126,
			"count":3970,
			"max":[
				0.1265747845172882,
				0.8000933527946472,
				0.1572907418012619
			],
			"min":[
				-0.12779033184051514,
				-0.00017513685452286154,
				-0.1262764036655426
			],
			"type":"VEC3"
		},
		{
			"bufferView":5,
			"componentType":5126,
			"count":3970,
			"type":"VEC3"
		},
		{
			"bufferView":6,
			"componentType":5126,
			"count":3970,
			"type":"VEC2"
		},
		{
			"bufferView":7,
			"componentType":5126,
			"count":315,
			"max":[
				0.12543854117393494,
				0.5534616112709045,
				0.19132713973522186
			],
			"min":[
				-0.12642306089401245,
				0.3061371445655823,
				0.10604456812143326
			],
			"type":"VEC3"
		},
		{
			"bufferView":8,
			"componentType":5126,
			"count":315,
			"type":"VEC3"
		},
		{
			"bufferView":9,
			"componentType":5126,
			"count":315,
			"type":"VEC2"
		},
		{
			"bufferView":10,
			"componentType":5123,
			"count":1320,
			"type":"SCALAR"
		},
		{
			"bufferView":11,
			"componentType":5126,
			"count":315,
			"max":[
				0.12543854117393494,
				0.5534616112709045,
				0.19132713973522186
			],
			"min":[
				-0.12642306089401245,
				0.3061371445655823,
				0.10604456812143326
			],
			"type":"VEC3"
		},
		{
			"bufferView":12,
			"componentType":5126,
			"count":315,
			"type":"VEC3"
		},
		{
			"bufferView":13,
			"componentType":5126,
			"count":315,
			"type":"VEC2"
		},
		{
			"bufferView":14,
			"componentType":5126,
			"count":317,
			"max":[
				0.13283169269561768,
				0.5971740484237671,
				0.09487536549568176
			],
			"min":[
				0.07562972605228424,
				0.5226651430130005,
				0.022987330332398415
			],
			"type":"VEC3"
		},
		{
			"bufferView":15,
			"componentType":5126,
			"count":317,
			"type":"VEC3"
		},
		{
			"bufferView":16,
			"componentType":5126,
			"count":317,
			"type":"VEC2"
		},
		{
			"bufferView":17,
			"componentType":5123,
			"count":1092,
			"type":"SCALAR"
		},
		{
			"bufferView":18,
			"componentType":5126,
			"count":317,
			"max":[
				0.13283169269561768,
				0.5971740484237671,
				0.09487536549568176
			],
			"min":[
				0.07562972605228424,
				0.5226651430130005,
				0.022987330332398415
			],
			"type":"VEC3"
		},
		{
			"bufferView":19,
			"componentType":5126,
			"count":317,
			"type":"VEC3"
		},
		{
			"bufferView":20,
			"componentType":5126,
			"count":317,
			"type":"VEC2"
		},
		{
			"bufferView":21,
			"componentType":5126,
			"count":301,
			"max":[
				-0.07479961961507797,
				0.6080257892608643,
				0.11041529476642609
			],
			"min":[
				-0.14161953330039978,
				0.5074694752693176,
				0.015932630747556686
			],
			"type":"VEC3"
		},
		{
			"bufferView":22,
			"componentType":5126,
			"count":301,
			"type":"VEC3"
		},
		{
			"bufferView":23,
			"componentType":5126,
			"count":301,
			"type":"VEC2"
		},
		{
			"bufferView":24,
			"componentType":5123,
			"count":1092,
			"type":"SCALAR"
		},
		{
			"bufferView":25,
			"componentType":5126,
			"count":301,
			"max":[
				-0.07479961961507797,
				0.6080257892608643,
				0.11041529476642609
			],
			"min":[
				-0.14161953330039978,
				0.5074694752693176,
				0.015932630747556686
			],
			"type":"VEC3"
		},
		{
			"bufferView":26,
			"componentType":5126,
			"count":301,
			"type":"VEC3"
		},
		{
			"bufferView":27,
			"componentType":5126,
			"count":301,
			"type":"VEC2"
		},
		{
			"bufferView":28,
			"componentType":5126,
			"count":2338,
			"max":[
				0.12332010269165039,
				0.5799026489257812,
				0.16840696334838867
			],
			"min":[
				-0.13135285675525665,
				0.19516409933567047,
				0.045899804681539536
			],
			"type":"VEC3"
		},
		{
			"bufferView":29,
			"componentType":5126,
			"count":2338,
			"type":"VEC3"
		},
		{
			"bufferView":30,
			"componentType":5126,
			"count":2338,
			"type":"VEC2"
		},
		{
			"bufferView":31,
			"componentType":5123,
			"count":8655,
			"type":"SCALAR"
		},
		{
			"bufferView":32,
			"componentType":5126,
			"count":2338,
			"max":[
				0.12332010269165039,
				0.5799026489257812,
				0.16840696334838867
			],
			"min":[
				-0.13135285675525665,
				0.19516409933567047,
				0.045899804681539536
			],
			"type":"VEC3"
		},
		{
			"bufferView":33,
			"componentType":5126,
			"count":2338,
			"type":"VEC3"
		},
		{
			"bufferView":34,
			"componentType":5126,
			"count":2338,
			"type":"VEC2"
		}
	],
	"bufferViews":[
		{
			"buffer":0,
			"byteLength":47640,
			"byteOffset":0,
			"target":34962
		},
		{
			"buffer":0,
			"byteLength":47640,
			"byteOffset":47640,
			"target":34962
		},
		{
			"buffer":0,
			"byteLength":31760,
			"byteOffset":95280,
			"target":34962
		},
		{
			"buffer":0,
			"byteLength":27456,
			"byteOffset":127040,
			"target":34963
		},
		{
			"buffer":0,
			"byteLength":47640,
			"byteOffset":154496,
			"target":34962
		},
		{
			"buffer":0,
			"byteLength":47640,
			"byteOffset":202136,
			"target":34962
		},
		{
			"buffer":0,
			"byteLength":31760,
			"byteOffset":249776,
			"target":34962
		},
		{
			"buffer":0,
			"byteLength":3780,
			"byteOffset":281536,
			"target":34962
		},
		{
			"buffer":0,
			"byteLength":3780,
			"byteOffset":285316,
			"target":34962
		},
		{
			"buffer":0,
			"byteLength":2520,
			"byteOffset":289096,
			"target":34962
		},
		{
			"buffer":0,
			"byteLength":2640,
			"byteOffset":291616,
			"target":34963
		},
		{
			"buffer":0,
			"byteLength":3780,
			"byteOffset":294256,
			"target":34962
		},
		{
			"buffer":0,
			"byteLength":3780,
			"byteOffset":298036,
			"target":34962
		},
		{
			"buffer":0,
			"byteLength":2520,
			"byteOffset":301816,
			"target":34962
		},
		{
			"buffer":0,
			"byteLength":3804,
			"byteOffset":304336,
			"target":34962
		},
		{
			"buffer":0,
			"byteLength":3804,
			"byteOffset":308140,
			"target":34962
		},
		{
			"buffer":0,
			"byteLength":2536,
			"byteOffset":311944,
			"target":34962
		},
		{
			"buffer":0,
			"byteLength":2184,
			"byteOffset":314480,
			"target":34963
		},
		{
			"buffer":0,
			"byteLength":3804,
			"byteOffset":316664,
			"target":34962
		},
		{
			"buffer":0,
			"byteLength":3804,
			"byteOffset":320468,
			"target":34962
		},
		{
			"buffer":0,
			"byteLength":2536,
			"byteOffset":324272,
			"target":34962
		},
		{
			"buffer":0,
			"byteLength":3612,
			"byteOffset":326808,
			"target":34962
		},
		{
			"buffer":0,
			"byteLength":3612,
			"byteOffset":330420,
			"target":34962
		},
		{
			"buffer":0,
			"byteLength":2408,
			"byteOffset":334032,
			"target":34962
		},
		{
			"buffer":0,
			"byteLength":2184,
			"byteOffset":336440,
			"target":34963
		},
		{
			"buffer":0,
			"byteLength":3612,
			"byteOffset":338624,
			"target":34962
		},
		{
			"buffer":0,
			"byteLength":3612,
			"byteOffset":342236,
			"target":34962
		},
		{
			"buffer":0,
			"byteLength":2408,
			"byteOffset":345848,
			"target":34962
		},
		{
			"buffer":0,
			"byteLength":28056,
			"byteOffset":348256,
			"target":34962
		},
		{
			"buffer":0,
			"byteLength":28056,
			"byteOffset":376312,
			"target":34962
		},
		{
			"buffer":0,
			"byteLength":18704,
			"byteOffset":404368,
			"target":34962
		},
		{
			"buffer":0,
			"byteLength":17310,
			"byteOffset":423072,
			"target":34963
		},
		{
			"buffer":0,
			"byteLength":28056,
			"byteOffset":440384,
			"target":34962
		},
		{
			"buffer":0,
			"byteLength":28056,
			"byteOffset":468440,
			"target":34962
		},
		{
			"buffer":0,
			"byteLength":18704,
			"byteOffset":496496,
			"target":34962
		}
	],
	"samplers":[
		{
			"magFilter":9729,
			"minFilter":9987
		}
	],
	"buffers":[
		{
			"byteLength":515200,
			"uri":"fire_hydrant.bin"
		}
	]
}
