{
	"asset":{
		"generator":"Khronos glTF Blender I/O v5.2.40",
		"version":"2.0"
	},
	"scene":0,
	"scenes":[
		{
			"name":"Scene",
			"nodes":[
				0,
				1,
				2,
				3,
				4,
				5,
				6,
				7,
				8
			]
		}
	],
	"nodes":[
		{
			"mesh":0,
			"name":"body"
		},
		{
			"mesh":1,
			"name":"lid",
			"rotation":[
				0.03489949554204941,
				0,
				0,
				0.9993908405303955
			]
		},
		{
			"mesh":2,
			"name":"rib0"
		},
		{
			"mesh":3,
			"name":"rib0.5"
		},
		{
			"mesh":4,
			"name":"rib-0.5"
		},
		{
			"mesh":5,
			"name":"wheel0.7_0.35"
		},
		{
			"mesh":6,
			"name":"wheel0.7_-0.35"
		},
		{
			"mesh":7,
			"name":"wheel-0.7_0.35"
		},
		{
			"mesh":8,
			"name":"wheel-0.7_-0.35"
		}
	],
	"materials":[
		{
			"doubleSided":true,
			"name":"M_db",
			"pbrMetallicRoughness":{
				"baseColorFactor":[
					0.044552627950906754,
					0.2758328318595886,
					0.15728072822093964,
					1
				],
				"metallicFactor":0,
				"roughnessFactor":0.8500000238418579
			}
		},
		{
			"doubleSided":true,
			"name":"M_dl",
			"pbrMetallicRoughness":{
				"baseColorFactor":[
					0.02422294206917286,
					0.16364067792892456,
					0.09387587010860443,
					1
				],
				"metallicFactor":0,
				"roughnessFactor":0.8500000238418579
			}
		},
		{
			"doubleSided":true,
			"name":"M_dr0",
			"pbrMetallicRoughness":{
				"baseColorFactor":[
					0.02422294206917286,
					0.16364067792892456,
					0.09387587010860443,
					1
				],
				"metallicFactor":0,
				"roughnessFactor":0.8500000238418579
			}
		},
		{
			"doubleSided":true,
			"name":"M_dr0.5",
			"pbrMetallicRoughness":{
				"baseColorFactor":[
					0.02422294206917286,
					0.16364067792892456,
					0.09387587010860443,
					1
				],
				"metallicFactor":0,
				"roughnessFactor":0.8500000238418579
			}
		},
		{
			"doubleSided":true,
			"name":"M_dr-0.5",
			"pbrMetallicRoughness":{
				"baseColorFactor":[
					0.02422294206917286,
					0.16364067792892456,
					0.09387587010860443,
					1
				],
				"metallicFactor":0,
				"roughnessFactor":0.8500000238418579
			}
		},
		{
			"doubleSided":true,
			"name":"M_dw",
			"pbrMetallicRoughness":{
				"baseColorFactor":[
					0.012663720175623894,
					0.01606770046055317,
					0.023103555664420128,
					1
				],
				"metallicFactor":0,
				"roughnessFactor":0.8500000238418579
			}
		}
	],
	"meshes":[
		{
			"name":"Cube",
			"primitives":[
				{
					"attributes":{
						"POSITION":0,
						"NORMAL":1,
						"TEXCOORD_0":2
					},
					"indices":3,
					"material":0
				}
			]
		},
		{
			"name":"Cube.001",
			"primitives":[
				{
					"attributes":{
						"POSITION":4,
						"NORMAL":5,
						"TEXCOORD_0":6
					},
					"indices":3,
					"material":1
				}
			]
		},
		{
			"name":"Cube.003",
			"primitives":[
				{
					"attributes":{
						"POSITION":7,
						"NORMAL":8,
						"TEXCOORD_0":9
					},
					"indices":10,
					"material":2
				}
			]
		},
		{
			"name":"Cube.004",
			"primitives":[
				{
					"attributes":{
						"POSITION":11,
						"NORMAL":12,
						"TEXCOORD_0":13
					},
					"indices":10,
					"material":3
				}
			]
		},
		{
			"name":"Cube.002",
			"primitives":[
				{
					"attributes":{
						"POSITION":14,
						"NORMAL":15,
						"TEXCOORD_0":16
					},
					"indices":10,
					"material":4
				}
			]
		},
		{
			"name":"Cylinder.003",
			"primitives":[
				{
					"attributes":{
						"POSITION":17,
						"NORMAL":18,
						"TEXCOORD_0":19
					},
					"indices":20,
					"material":5
				}
			]
		},
		{
			"name":"Cylinder.002",
			"primitives":[
				{
					"attributes":{
						"POSITION":21,
						"NORMAL":22,
						"TEXCOORD_0":23
					},
					"indices":20,
					"material":5
				}
			]
		},
		{
			"name":"Cylinder.001",
			"primitives":[
				{
					"attributes":{
						"POSITION":24,
						"NORMAL":25,
						"TEXCOORD_0":26
					},
					"indices":20,
					"material":5
				}
			]
		},
		{
			"name":"Cylinder",
			"primitives":[
				{
					"attributes":{
						"POSITION":27,
						"NORMAL":28,
						"TEXCOORD_0":29
					},
					"indices":20,
					"material":5
				}
			]
		}
	],
	"accessors":[
		{
			"bufferView":0,
			"componentType":5126,
			"count":96,
			"max":[
				0.949999988079071,
				1.1700000762939453,
				0.550000011920929
			],
			"min":[
				-0.949999988079071,
				0.06999999284744263,
				-0.550000011920929
			],
			"type":"VEC3"
		},
		{
			"bufferView":1,
			"componentType":5126,
			"count":96,
			"type":"VEC3"
		},
		{
			"bufferView":2,
			"componentType":5126,
			"count":96,
			"type":"VEC2"
		},
		{
			"bufferView":3,
			"componentType":5123,
			"count":132,
			"type":"SCALAR"
		},
		{
			"bufferView":4,
			"componentType":5126,
			"count":96,
			"max":[
				0.9800000190734863,
				1.2599999904632568,
				0.5400000214576721
			],
			"min":[
				-0.9800000190734863,
				1.1400001049041748,
				-0.5799999833106995
			],
			"type":"VEC3"
		},
		{
			"bufferView":5,
			"componentType":5126,
			"count":96,
			"type":"VEC3"
		},
		{
			"bufferView":6,
			"componentType":5126,
			"count":96,
			"type":"VEC2"
		},
		{
			"bufferView":7,
			"componentType":5126,
			"count":24,
			"max":[
				0.03999999910593033,
				1.0499999523162842,
				0.5899999737739563
			],
			"min":[
				-0.03999999910593033,
				0.15000003576278687,
				0.5300000309944153
			],
			"type":"VEC3"
		},
		{
			"bufferView":8,
			"componentType":5126,
			"count":24,
			"type":"VEC3"
		},
		{
			"bufferView":9,
			"componentType":5126,
			"count":24,
			"type":"VEC2"
		},
		{
			"bufferView":10,
			"componentType":5123,
			"count":36,
			"type":"SCALAR"
		},
		{
			"bufferView":11,
			"componentType":5126,
			"count":24,
			"max":[
				0.5400000214576721,
				1.0499999523162842,
				0.5899999737739563
			],
			"min":[
				0.46000000834465027,
				0.15000003576278687,
				0.5300000309944153
			],
			"type":"VEC3"
		},
		{
			"bufferView":12,
			"componentType":5126,
			"count":24,
			"type":"VEC3"
		},
		{
			"bufferView":13,
			"componentType":5126,
			"count":24,
			"type":"VEC2"
		},
		{
			"bufferView":14,
			"componentType":5126,
			"count":24,
			"max":[
				-0.46000000834465027,
				1.0499999523162842,
				0.5899999737739563
			],
			"min":[
				-0.5400000214576721,
				0.15000003576278687,
				0.5300000309944153
			],
			"type":"VEC3"
		},
		{
			"bufferView":15,
			"componentType":5126,
			"count":24,
			"type":"VEC3"
		},
		{
			"bufferView":16,
			"componentType":5126,
			"count":24,
			"type":"VEC2"
		},
		{
			"bufferView":17,
			"componentType":5126,
			"count":48,
			"max":[
				0.7899999618530273,
				0.18000000715255737,
				-0.32499998807907104
			],
			"min":[
				0.6100000143051147,
				0,
				-0.375
			],
			"type":"VEC3"
		},
		{
			"bufferView":18,
			"componentType":5126,
			"count":48,
			"type":"VEC3"
		},
		{
			"bufferView":19,
			"componentType":5126,
			"count":48,
			"type":"VEC2"
		},
		{
			"bufferView":20,
			"componentType":5123,
			"count":84,
			"type":"SCALAR"
		},
		{
			"bufferView":21,
			"componentType":5126,
			"count":48,
			"max":[
				0.7899999618530273,
				0.18000000715255737,
				0.375
			],
			"min":[
				0.6100000143051147,
				0,
				0.32499998807907104
			],
			"type":"VEC3"
		},
		{
			"bufferView":22,
			"componentType":5126,
			"count":48,
			"type":"VEC3"
		},
		{
			"bufferView":23,
			"componentType":5126,
			"count":48,
			"type":"VEC2"
		},
		{
			"bufferView":24,
			"componentType":5126,
			"count":48,
			"max":[
				-0.6100000143051147,
				0.18000000715255737,
				-0.32499998807907104
			],
			"min":[
				-0.7899999618530273,
				0,
				-0.375
			],
			"type":"VEC3"
		},
		{
			"bufferView":25,
			"componentType":5126,
			"count":48,
			"type":"VEC3"
		},
		{
			"bufferView":26,
			"componentType":5126,
			"count":48,
			"type":"VEC2"
		},
		{
			"bufferView":27,
			"componentType":5126,
			"count":48,
			"max":[
				-0.6100000143051147,
				0.18000000715255737,
				0.375
			],
			"min":[
				-0.7899999618530273,
				0,
				0.32499998807907104
			],
			"type":"VEC3"
		},
		{
			"bufferView":28,
			"componentType":5126,
			"count":48,
			"type":"VEC3"
		},
		{
			"bufferView":29,
			"componentType":5126,
			"count":48,
			"type":"VEC2"
		}
	],
	"bufferViews":[
		{
			"buffer":0,
			"byteLength":1152,
			"byteOffset":0,
			"target":34962
		},
		{
			"buffer":0,
			"byteLength":1152,
			"byteOffset":1152,
			"target":34962
		},
		{
			"buffer":0,
			"byteLength":768,
			"byteOffset":2304,
			"target":34962
		},
		{
			"buffer":0,
			"byteLength":264,
			"byteOffset":3072,
			"target":34963
		},
		{
			"buffer":0,
			"byteLength":1152,
			"byteOffset":3336,
			"target":34962
		},
		{
			"buffer":0,
			"byteLength":1152,
			"byteOffset":4488,
			"target":34962
		},
		{
			"buffer":0,
			"byteLength":768,
			"byteOffset":5640,
			"target":34962
		},
		{
			"buffer":0,
			"byteLength":288,
			"byteOffset":6408,
			"target":34962
		},
		{
			"buffer":0,
			"byteLength":288,
			"byteOffset":6696,
			"target":34962
		},
		{
			"buffer":0,
			"byteLength":192,
			"byteOffset":6984,
			"target":34962
		},
		{
			"buffer":0,
			"byteLength":72,
			"byteOffset":7176,
			"target":34963
		},
		{
			"buffer":0,
			"byteLength":288,
			"byteOffset":7248,
			"target":34962
		},
		{
			"buffer":0,
			"byteLength":288,
			"byteOffset":7536,
			"target":34962
		},
		{
			"buffer":0,
			"byteLength":192,
			"byteOffset":7824,
			"target":34962
		},
		{
			"buffer":0,
			"byteLength":288,
			"byteOffset":8016,
			"target":34962
		},
		{
			"buffer":0,
			"byteLength":288,
			"byteOffset":8304,
			"target":34962
		},
		{
			"buffer":0,
			"byteLength":192,
			"byteOffset":8592,
			"target":34962
		},
		{
			"buffer":0,
			"byteLength":576,
			"byteOffset":8784,
			"target":34962
		},
		{
			"buffer":0,
			"byteLength":576,
			"byteOffset":9360,
			"target":34962
		},
		{
			"buffer":0,
			"byteLength":384,
			"byteOffset":9936,
			"target":34962
		},
		{
			"buffer":0,
			"byteLength":168,
			"byteOffset":10320,
			"target":34963
		},
		{
			"buffer":0,
			"byteLength":576,
			"byteOffset":10488,
			"target":34962
		},
		{
			"buffer":0,
			"byteLength":576,
			"byteOffset":11064,
			"target":34962
		},
		{
			"buffer":0,
			"byteLength":384,
			"byteOffset":11640,
			"target":34962
		},
		{
			"buffer":0,
			"byteLength":576,
			"byteOffset":12024,
			"target":34962
		},
		{
			"buffer":0,
			"byteLength":576,
			"byteOffset":12600,
			"target":34962
		},
		{
			"buffer":0,
			"byteLength":384,
			"byteOffset":13176,
			"target":34962
		},
		{
			"buffer":0,
			"byteLength":576,
			"byteOffset":13560,
			"target":34962
		},
		{
			"buffer":0,
			"byteLength":576,
			"byteOffset":14136,
			"target":34962
		},
		{
			"buffer":0,
			"byteLength":384,
			"byteOffset":14712,
			"target":34962
		}
	],
	"buffers":[
		{
			"byteLength":15096,
			"uri":"hd_dumpster.bin"
		}
	]
}
