{
	"asset":{
		"generator":"Khronos glTF Blender I/O v5.2.40",
		"version":"2.0"
	},
	"extensionsUsed":[
		"KHR_materials_emissive_strength"
	],
	"scene":0,
	"scenes":[
		{
			"name":"Scene",
			"nodes":[
				0,
				1,
				2,
				3,
				4,
				5
			]
		}
	],
	"nodes":[
		{
			"mesh":0,
			"name":"ember0"
		},
		{
			"mesh":1,
			"name":"ember1"
		},
		{
			"mesh":2,
			"name":"ember2"
		},
		{
			"mesh":3,
			"name":"stub0"
		},
		{
			"mesh":4,
			"name":"stub1"
		},
		{
			"mesh":5,
			"name":"trunk"
		}
	],
	"materials":[
		{
			"doubleSided":true,
			"emissiveFactor":[
				1,
				0.5479934811592102,
				0.038472745567560196
			],
			"extensions":{
				"KHR_materials_emissive_strength":{
					"emissiveStrength":2
				}
			},
			"name":"M_ce0",
			"pbrMetallicRoughness":{
				"baseColorFactor":[
					1,
					0.5479934811592102,
					0.038472745567560196,
					1
				],
				"metallicFactor":0,
				"roughnessFactor":0.8500000238418579
			}
		},
		{
			"doubleSided":true,
			"emissiveFactor":[
				1,
				0.19751642644405365,
				0.015175238251686096
			],
			"extensions":{
				"KHR_materials_emissive_strength":{
					"emissiveStrength":2
				}
			},
			"name":"M_ce1",
			"pbrMetallicRoughness":{
				"baseColorFactor":[
					1,
					0.19751642644405365,
					0.015175238251686096,
					1
				],
				"metallicFactor":0,
				"roughnessFactor":0.8500000238418579
			}
		},
		{
			"doubleSided":true,
			"emissiveFactor":[
				1,
				0.5479934811592102,
				0.038472745567560196
			],
			"extensions":{
				"KHR_materials_emissive_strength":{
					"emissiveStrength":2
				}
			},
			"name":"M_ce2",
			"pbrMetallicRoughness":{
				"baseColorFactor":[
					1,
					0.5479934811592102,
					0.038472745567560196,
					1
				],
				"metallicFactor":0,
				"roughnessFactor":0.8500000238418579
			}
		},
		{
			"doubleSided":true,
			"name":"M_cs0",
			"pbrMetallicRoughness":{
				"baseColorFactor":[
					0.013473397120833397,
					0.00902149174362421,
					0.00902149174362421,
					1
				],
				"metallicFactor":0,
				"roughnessFactor":0.8500000238418579
			}
		},
		{
			"doubleSided":true,
			"name":"M_cs1",
			"pbrMetallicRoughness":{
				"baseColorFactor":[
					0.013473397120833397,
					0.00902149174362421,
					0.00902149174362421,
					1
				],
				"metallicFactor":0,
				"roughnessFactor":0.8500000238418579
			}
		},
		{
			"doubleSided":true,
			"name":"M_ct",
			"pbrMetallicRoughness":{
				"baseColorFactor":[
					0.013473397120833397,
					0.00902149174362421,
					0.00902149174362421,
					1
				],
				"metallicFactor":0,
				"roughnessFactor":0.8500000238418579
			}
		}
	],
	"meshes":[
		{
			"name":"Cube",
			"primitives":[
				{
					"attributes":{
						"POSITION":0,
						"NORMAL":1,
						"TEXCOORD_0":2
					},
					"indices":3,
					"material":0
				}
			]
		},
		{
			"name":"Cube.001",
			"primitives":[
				{
					"attributes":{
						"POSITION":4,
						"NORMAL":5,
						"TEXCOORD_0":6
					},
					"indices":7,
					"material":1
				}
			]
		},
		{
			"name":"Cube.002",
			"primitives":[
				{
					"attributes":{
						"POSITION":8,
						"NORMAL":9,
						"TEXCOORD_0":10
					},
					"indices":11,
					"material":2
				}
			]
		},
		{
			"name":"Cone.001",
			"primitives":[
				{
					"attributes":{
						"POSITION":12,
						"NORMAL":13,
						"TEXCOORD_0":14
					},
					"indices":15,
					"material":3
				}
			]
		},
		{
			"name":"Cone.002",
			"primitives":[
				{
					"attributes":{
						"POSITION":16,
						"NORMAL":17,
						"TEXCOORD_0":18
					},
					"indices":15,
					"material":4
				}
			]
		},
		{
			"name":"Cone",
			"primitives":[
				{
					"attributes":{
						"POSITION":19,
						"NORMAL":20,
						"TEXCOORD_0":21
					},
					"indices":22,
					"material":5
				}
			]
		}
	],
	"accessors":[
		{
			"bufferView":0,
			"componentType":5126,
			"count":24,
			"max":[
				0.2028709203004837,
				0.8600000143051147,
				-0.07973513752222061
			],
			"min":[
				0.07581175863742828,
				0.5399999618530273,
				-0.20720729231834412
			],
			"type":"VEC3"
		},
		{
			"bufferView":1,
			"componentType":5126,
			"count":24,
			"type":"VEC3"
		},
		{
			"bufferView":2,
			"componentType":5126,
			"count":24,
			"type":"VEC2"
		},
		{
			"bufferView":3,
			"componentType":5123,
			"count":36,
			"type":"SCALAR"
		},
		{
			"bufferView":4,
			"componentType":5126,
			"count":24,
			"max":[
				-0.10791325569152832,
				1.459999918937683,
				-0.043049655854701996
			],
			"min":[
				-0.2348422408103943,
				1.1399999856948853,
				-0.16315090656280518
			],
			"type":"VEC3"
		},
		{
			"bufferView":5,
			"componentType":5126,
			"count":24,
			"type":"VEC3"
		},
		{
			"bufferView":6,
			"componentType":5126,
			"count":24,
			"type":"VEC2"
		},
		{
			"bufferView":7,
			"componentType":5123,
			"count":36,
			"type":"SCALAR"
		},
		{
			"bufferView":8,
			"componentType":5126,
			"count":24,
			"max":[
				-0.008035849779844284,
				2.059999942779541,
				0.25019383430480957
			],
			"min":[
				-0.11489729583263397,
				1.7400000095367432,
				0.13044700026512146
			],
			"type":"VEC3"
		},
		{
			"bufferView":9,
			"componentType":5126,
			"count":24,
			"type":"VEC3"
		},
		{
			"bufferView":10,
			"componentType":5126,
			"count":24,
			"type":"VEC2"
		},
		{
			"bufferView":11,
			"componentType":5123,
			"count":36,
			"type":"SCALAR"
		},
		{
			"bufferView":12,
			"componentType":5126,
			"count":30,
			"max":[
				0.3151729702949524,
				1.8500949144363403,
				0.06649859249591827
			],
			"min":[
				-0.027428582310676575,
				1.3090122938156128,
				-0.4256751835346222
			],
			"type":"VEC3"
		},
		{
			"bufferView":13,
			"componentType":5126,
			"count":30,
			"type":"VEC3"
		},
		{
			"bufferView":14,
			"componentType":5126,
			"count":30,
			"type":"VEC2"
		},
		{
			"bufferView":15,
			"componentType":5123,
			"count":48,
			"type":"SCALAR"
		},
		{
			"bufferView":16,
			"componentType":5126,
			"count":30,
			"max":[
				0.08806388080120087,
				2.3352372646331787,
				0.3172041177749634
			],
			"min":[
				-0.36617404222488403,
				1.8264347314834595,
				-0.1216309443116188
			],
			"type":"VEC3"
		},
		{
			"bufferView":17,
			"componentType":5126,
			"count":30,
			"type":"VEC3"
		},
		{
			"bufferView":18,
			"componentType":5126,
			"count":30,
			"type":"VEC2"
		},
		{
			"bufferView":19,
			"componentType":5126,
			"count":48,
			"max":[
				0.25999999046325684,
				2.7962582111358643,
				0.25999999046325684
			],
			"min":[
				-0.25999999046325684,
				0,
				-0.25999999046325684
			],
			"type":"VEC3"
		},
		{
			"bufferView":20,
			"componentType":5126,
			"count":48,
			"type":"VEC3"
		},
		{
			"bufferView":21,
			"componentType":5126,
			"count":48,
			"type":"VEC2"
		},
		{
			"bufferView":22,
			"componentType":5123,
			"count":84,
			"type":"SCALAR"
		}
	],
	"bufferViews":[
		{
			"buffer":0,
			"byteLength":288,
			"byteOffset":0,
			"target":34962
		},
		{
			"buffer":0,
			"byteLength":288,
			"byteOffset":288,
			"target":34962
		},
		{
			"buffer":0,
			"byteLength":192,
			"byteOffset":576,
			"target":34962
		},
		{
			"buffer":0,
			"byteLength":72,
			"byteOffset":768,
			"target":34963
		},
		{
			"buffer":0,
			"byteLength":288,
			"byteOffset":840,
			"target":34962
		},
		{
			"buffer":0,
			"byteLength":288,
			"byteOffset":1128,
			"target":34962
		},
		{
			"buffer":0,
			"byteLength":192,
			"byteOffset":1416,
			"target":34962
		},
		{
			"buffer":0,
			"byteLength":72,
			"byteOffset":1608,
			"target":34963
		},
		{
			"buffer":0,
			"byteLength":288,
			"byteOffset":1680,
			"target":34962
		},
		{
			"buffer":0,
			"byteLength":288,
			"byteOffset":1968,
			"target":34962
		},
		{
			"buffer":0,
			"byteLength":192,
			"byteOffset":2256,
			"target":34962
		},
		{
			"buffer":0,
			"byteLength":72,
			"byteOffset":2448,
			"target":34963
		},
		{
			"buffer":0,
			"byteLength":360,
			"byteOffset":2520,
			"target":34962
		},
		{
			"buffer":0,
			"byteLength":360,
			"byteOffset":2880,
			"target":34962
		},
		{
			"buffer":0,
			"byteLength":240,
			"byteOffset":3240,
			"target":34962
		},
		{
			"buffer":0,
			"byteLength":96,
			"byteOffset":3480,
			"target":34963
		},
		{
			"buffer":0,
			"byteLength":360,
			"byteOffset":3576,
			"target":34962
		},
		{
			"buffer":0,
			"byteLength":360,
			"byteOffset":3936,
			"target":34962
		},
		{
			"buffer":0,
			"byteLength":240,
			"byteOffset":4296,
			"target":34962
		},
		{
			"buffer":0,
			"byteLength":576,
			"byteOffset":4536,
			"target":34962
		},
		{
			"buffer":0,
			"byteLength":576,
			"byteOffset":5112,
			"target":34962
		},
		{
			"buffer":0,
			"byteLength":384,
			"byteOffset":5688,
			"target":34962
		},
		{
			"buffer":0,
			"byteLength":168,
			"byteOffset":6072,
			"target":34963
		}
	],
	"buffers":[
		{
			"byteLength":6240,
			"uri":"hd_charred.bin"
		}
	]
}
