{
	"asset":{
		"generator":"Khronos glTF Blender I/O v5.2.40",
		"version":"2.0"
	},
	"scene":0,
	"scenes":[
		{
			"name":"Scene",
			"nodes":[
				0,
				1,
				2,
				3,
				4,
				5
			]
		}
	],
	"nodes":[
		{
			"mesh":0,
			"name":"cranium"
		},
		{
			"mesh":1,
			"name":"eye0.09"
		},
		{
			"mesh":2,
			"name":"eye-0.09"
		},
		{
			"mesh":3,
			"name":"horn1"
		},
		{
			"mesh":4,
			"name":"horn-1"
		},
		{
			"mesh":5,
			"name":"snout"
		}
	],
	"materials":[
		{
			"doubleSided":true,
			"name":"M_kc",
			"pbrMetallicRoughness":{
				"baseColorFactor":[
					0.8671355247497559,
					0.7969165444374084,
					0.6387794613838196,
					1
				],
				"metallicFactor":0,
				"roughnessFactor":0.8500000238418579
			}
		},
		{
			"doubleSided":true,
			"name":"M_ke0.09",
			"pbrMetallicRoughness":{
				"baseColorFactor":[
					0.023103555664420128,
					0.037028513848781586,
					0.04943345859646797,
					1
				],
				"metallicFactor":0,
				"roughnessFactor":0.8500000238418579
			}
		},
		{
			"doubleSided":true,
			"name":"M_ke-0.09",
			"pbrMetallicRoughness":{
				"baseColorFactor":[
					0.023103555664420128,
					0.037028513848781586,
					0.04943345859646797,
					1
				],
				"metallicFactor":0,
				"roughnessFactor":0.8500000238418579
			}
		},
		{
			"doubleSided":true,
			"name":"M_kh1",
			"pbrMetallicRoughness":{
				"baseColorFactor":[
					0.8671355247497559,
					0.7969165444374084,
					0.6387794613838196,
					1
				],
				"metallicFactor":0,
				"roughnessFactor":0.8500000238418579
			}
		},
		{
			"doubleSided":true,
			"name":"M_kh-1",
			"pbrMetallicRoughness":{
				"baseColorFactor":[
					0.8671355247497559,
					0.7969165444374084,
					0.6387794613838196,
					1
				],
				"metallicFactor":0,
				"roughnessFactor":0.8500000238418579
			}
		},
		{
			"doubleSided":true,
			"name":"M_ks",
			"pbrMetallicRoughness":{
				"baseColorFactor":[
					0.8671355247497559,
					0.7969165444374084,
					0.6387794613838196,
					1
				],
				"metallicFactor":0,
				"roughnessFactor":0.8500000238418579
			}
		}
	],
	"meshes":[
		{
			"name":"Cube",
			"primitives":[
				{
					"attributes":{
						"POSITION":0,
						"NORMAL":1,
						"TEXCOORD_0":2
					},
					"indices":3,
					"material":0
				}
			]
		},
		{
			"name":"Cube.003",
			"primitives":[
				{
					"attributes":{
						"POSITION":4,
						"NORMAL":5,
						"TEXCOORD_0":6
					},
					"indices":7,
					"material":1
				}
			]
		},
		{
			"name":"Cube.002",
			"primitives":[
				{
					"attributes":{
						"POSITION":8,
						"NORMAL":9,
						"TEXCOORD_0":10
					},
					"indices":7,
					"material":2
				}
			]
		},
		{
			"name":"Cone.001",
			"primitives":[
				{
					"attributes":{
						"POSITION":11,
						"NORMAL":12,
						"TEXCOORD_0":13
					},
					"indices":14,
					"material":3
				}
			]
		},
		{
			"name":"Cone",
			"primitives":[
				{
					"attributes":{
						"POSITION":15,
						"NORMAL":16,
						"TEXCOORD_0":17
					},
					"indices":14,
					"material":4
				}
			]
		},
		{
			"name":"Cube.001",
			"primitives":[
				{
					"attributes":{
						"POSITION":18,
						"NORMAL":19,
						"TEXCOORD_0":20
					},
					"indices":21,
					"material":5
				}
			]
		}
	],
	"accessors":[
		{
			"bufferView":0,
			"componentType":5126,
			"count":216,
			"max":[
				0.30000001192092896,
				0.6599999666213989,
				0.18000000715255737
			],
			"min":[
				-0.30000001192092896,
				0.17999999225139618,
				-0.3799999952316284
			],
			"type":"VEC3"
		},
		{
			"bufferView":1,
			"componentType":5126,
			"count":216,
			"type":"VEC3"
		},
		{
			"bufferView":2,
			"componentType":5126,
			"count":216,
			"type":"VEC2"
		},
		{
			"bufferView":3,
			"componentType":5123,
			"count":324,
			"type":"SCALAR"
		},
		{
			"bufferView":4,
			"componentType":5126,
			"count":24,
			"max":[
				0.1599999964237213,
				0.550000011920929,
				0.19999998807907104
			],
			"min":[
				0.020000003278255463,
				0.3700000047683716,
				0.11999999731779099
			],
			"type":"VEC3"
		},
		{
			"bufferView":5,
			"componentType":5126,
			"count":24,
			"type":"VEC3"
		},
		{
			"bufferView":6,
			"componentType":5126,
			"count":24,
			"type":"VEC2"
		},
		{
			"bufferView":7,
			"componentType":5123,
			"count":36,
			"type":"SCALAR"
		},
		{
			"bufferView":8,
			"componentType":5126,
			"count":24,
			"max":[
				-0.020000003278255463,
				0.550000011920929,
				0.19999998807907104
			],
			"min":[
				-0.1599999964237213,
				0.3700000047683716,
				0.11999999731779099
			],
			"type":"VEC3"
		},
		{
			"bufferView":9,
			"componentType":5126,
			"count":24,
			"type":"VEC3"
		},
		{
			"bufferView":10,
			"componentType":5126,
			"count":24,
			"type":"VEC2"
		},
		{
			"bufferView":11,
			"componentType":5126,
			"count":30,
			"max":[
				0.665809154510498,
				0.616496205329895,
				-0.035500988364219666
			],
			"min":[
				0.07451269030570984,
				0.43069738149642944,
				-0.2978706359863281
			],
			"type":"VEC3"
		},
		{
			"bufferView":12,
			"componentType":5126,
			"count":30,
			"type":"VEC3"
		},
		{
			"bufferView":13,
			"componentType":5126,
			"count":30,
			"type":"VEC2"
		},
		{
			"bufferView":14,
			"componentType":5123,
			"count":72,
			"type":"SCALAR"
		},
		{
			"bufferView":15,
			"componentType":5126,
			"count":30,
			"max":[
				-0.07649245858192444,
				0.616496205329895,
				0.012907519936561584
			],
			"min":[
				-0.6662334203720093,
				0.43069738149642944,
				-0.24556253850460052
			],
			"type":"VEC3"
		},
		{
			"bufferView":16,
			"componentType":5126,
			"count":30,
			"type":"VEC3"
		},
		{
			"bufferView":17,
			"componentType":5126,
			"count":30,
			"type":"VEC2"
		},
		{
			"bufferView":18,
			"componentType":5126,
			"count":96,
			"max":[
				0.1599999964237213,
				0.4399999976158142,
				0.42000001668930054
			],
			"min":[
				-0.1599999964237213,
				0.1600000113248825,
				0.019999995827674866
			],
			"type":"VEC3"
		},
		{
			"bufferView":19,
			"componentType":5126,
			"count":96,
			"type":"VEC3"
		},
		{
			"bufferView":20,
			"componentType":5126,
			"count":96,
			"type":"VEC2"
		},
		{
			"bufferView":21,
			"componentType":5123,
			"count":132,
			"type":"SCALAR"
		}
	],
	"bufferViews":[
		{
			"buffer":0,
			"byteLength":2592,
			"byteOffset":0,
			"target":34962
		},
		{
			"buffer":0,
			"byteLength":2592,
			"byteOffset":2592,
			"target":34962
		},
		{
			"buffer":0,
			"byteLength":1728,
			"byteOffset":5184,
			"target":34962
		},
		{
			"buffer":0,
			"byteLength":648,
			"byteOffset":6912,
			"target":34963
		},
		{
			"buffer":0,
			"byteLength":288,
			"byteOffset":7560,
			"target":34962
		},
		{
			"buffer":0,
			"byteLength":288,
			"byteOffset":7848,
			"target":34962
		},
		{
			"buffer":0,
			"byteLength":192,
			"byteOffset":8136,
			"target":34962
		},
		{
			"buffer":0,
			"byteLength":72,
			"byteOffset":8328,
			"target":34963
		},
		{
			"buffer":0,
			"byteLength":288,
			"byteOffset":8400,
			"target":34962
		},
		{
			"buffer":0,
			"byteLength":288,
			"byteOffset":8688,
			"target":34962
		},
		{
			"buffer":0,
			"byteLength":192,
			"byteOffset":8976,
			"target":34962
		},
		{
			"buffer":0,
			"byteLength":360,
			"byteOffset":9168,
			"target":34962
		},
		{
			"buffer":0,
			"byteLength":360,
			"byteOffset":9528,
			"target":34962
		},
		{
			"buffer":0,
			"byteLength":240,
			"byteOffset":9888,
			"target":34962
		},
		{
			"buffer":0,
			"byteLength":144,
			"byteOffset":10128,
			"target":34963
		},
		{
			"buffer":0,
			"byteLength":360,
			"byteOffset":10272,
			"target":34962
		},
		{
			"buffer":0,
			"byteLength":360,
			"byteOffset":10632,
			"target":34962
		},
		{
			"buffer":0,
			"byteLength":240,
			"byteOffset":10992,
			"target":34962
		},
		{
			"buffer":0,
			"byteLength":1152,
			"byteOffset":11232,
			"target":34962
		},
		{
			"buffer":0,
			"byteLength":1152,
			"byteOffset":12384,
			"target":34962
		},
		{
			"buffer":0,
			"byteLength":768,
			"byteOffset":13536,
			"target":34962
		},
		{
			"buffer":0,
			"byteLength":264,
			"byteOffset":14304,
			"target":34963
		}
	],
	"buffers":[
		{
			"byteLength":14568,
			"uri":"hd_skull.bin"
		}
	]
}
