{
	"asset":{
		"generator":"Khronos glTF Blender I/O v5.2.40",
		"version":"2.0"
	},
	"scene":0,
	"scenes":[
		{
			"name":"Scene",
			"nodes":[
				0,
				1,
				2,
				3,
				4,
				5,
				6,
				7,
				8,
				9,
				10,
				11,
				12,
				13,
				14
			]
		}
	],
	"nodes":[
		{
			"mesh":0,
			"name":"berm0"
		},
		{
			"mesh":1,
			"name":"berm1"
		},
		{
			"mesh":2,
			"name":"chute"
		},
		{
			"mesh":3,
			"name":"foam0"
		},
		{
			"mesh":4,
			"name":"foam1"
		},
		{
			"mesh":5,
			"name":"foam2"
		},
		{
			"mesh":6,
			"name":"foam3"
		},
		{
			"mesh":7,
			"name":"foam4"
		},
		{
			"mesh":8,
			"name":"foam5"
		},
		{
			"mesh":9,
			"name":"foam6"
		},
		{
			"mesh":10,
			"name":"foam7"
		},
		{
			"mesh":11,
			"name":"foam8"
		},
		{
			"mesh":12,
			"name":"runnel0"
		},
		{
			"mesh":13,
			"name":"runnel1"
		},
		{
			"mesh":14,
			"name":"runnel2"
		}
	],
	"materials":[
		{
			"doubleSided":true,
			"name":"M_bm0",
			"pbrMetallicRoughness":{
				"baseColorFactor":[
					0.3537409007549286,
					0.7226724624633789,
					0.843369722366333,
					1
				],
				"metallicFactor":0,
				"roughnessFactor":0.30000001192092896
			}
		},
		{
			"doubleSided":true,
			"name":"M_bm1",
			"pbrMetallicRoughness":{
				"baseColorFactor":[
					0.3537409007549286,
					0.7226724624633789,
					0.843369722366333,
					1
				],
				"metallicFactor":0,
				"roughnessFactor":0.30000001192092896
			}
		},
		{
			"doubleSided":true,
			"name":"M_chute",
			"pbrMetallicRoughness":{
				"baseColorFactor":[
					0.3537409007549286,
					0.7226724624633789,
					0.843369722366333,
					1
				],
				"metallicFactor":0,
				"roughnessFactor":0.25
			}
		},
		{
			"doubleSided":true,
			"name":"M_fm0",
			"pbrMetallicRoughness":{
				"baseColorFactor":[
					0.8912620544433594,
					0.9658146500587463,
					1,
					1
				],
				"metallicFactor":0,
				"roughnessFactor":0.4000000059604645
			}
		},
		{
			"doubleSided":true,
			"name":"M_fm1",
			"pbrMetallicRoughness":{
				"baseColorFactor":[
					0.8912620544433594,
					0.9658146500587463,
					1,
					1
				],
				"metallicFactor":0,
				"roughnessFactor":0.4000000059604645
			}
		},
		{
			"doubleSided":true,
			"name":"M_fm2",
			"pbrMetallicRoughness":{
				"baseColorFactor":[
					0.8912620544433594,
					0.9658146500587463,
					1,
					1
				],
				"metallicFactor":0,
				"roughnessFactor":0.4000000059604645
			}
		},
		{
			"doubleSided":true,
			"name":"M_fm3",
			"pbrMetallicRoughness":{
				"baseColorFactor":[
					0.8912620544433594,
					0.9658146500587463,
					1,
					1
				],
				"metallicFactor":0,
				"roughnessFactor":0.4000000059604645
			}
		},
		{
			"doubleSided":true,
			"name":"M_fm4",
			"pbrMetallicRoughness":{
				"baseColorFactor":[
					0.8912620544433594,
					0.9658146500587463,
					1,
					1
				],
				"metallicFactor":0,
				"roughnessFactor":0.4000000059604645
			}
		},
		{
			"doubleSided":true,
			"name":"M_fm5",
			"pbrMetallicRoughness":{
				"baseColorFactor":[
					0.8912620544433594,
					0.9658146500587463,
					1,
					1
				],
				"metallicFactor":0,
				"roughnessFactor":0.4000000059604645
			}
		},
		{
			"doubleSided":true,
			"name":"M_fm6",
			"pbrMetallicRoughness":{
				"baseColorFactor":[
					0.8912620544433594,
					0.9658146500587463,
					1,
					1
				],
				"metallicFactor":0,
				"roughnessFactor":0.4000000059604645
			}
		},
		{
			"doubleSided":true,
			"name":"M_fm7",
			"pbrMetallicRoughness":{
				"baseColorFactor":[
					0.8912620544433594,
					0.9658146500587463,
					1,
					1
				],
				"metallicFactor":0,
				"roughnessFactor":0.4000000059604645
			}
		},
		{
			"doubleSided":true,
			"name":"M_fm8",
			"pbrMetallicRoughness":{
				"baseColorFactor":[
					0.8912620544433594,
					0.9658146500587463,
					1,
					1
				],
				"metallicFactor":0,
				"roughnessFactor":0.4000000059604645
			}
		},
		{
			"doubleSided":true,
			"name":"M_rn0",
			"pbrMetallicRoughness":{
				"baseColorFactor":[
					0.160443514585495,
					0.5604991316795349,
					0.7372047901153564,
					1
				],
				"metallicFactor":0,
				"roughnessFactor":0.15000000596046448
			}
		},
		{
			"doubleSided":true,
			"name":"M_rn1",
			"pbrMetallicRoughness":{
				"baseColorFactor":[
					0.160443514585495,
					0.5604991316795349,
					0.7372047901153564,
					1
				],
				"metallicFactor":0,
				"roughnessFactor":0.15000000596046448
			}
		},
		{
			"doubleSided":true,
			"name":"M_rn2",
			"pbrMetallicRoughness":{
				"baseColorFactor":[
					0.160443514585495,
					0.5604991316795349,
					0.7372047901153564,
					1
				],
				"metallicFactor":0,
				"roughnessFactor":0.15000000596046448
			}
		}
	],
	"meshes":[
		{
			"name":"Cube.004",
			"primitives":[
				{
					"attributes":{
						"POSITION":0,
						"NORMAL":1,
						"TEXCOORD_0":2
					},
					"indices":3,
					"material":0
				}
			]
		},
		{
			"name":"Cube.005",
			"primitives":[
				{
					"attributes":{
						"POSITION":4,
						"NORMAL":5,
						"TEXCOORD_0":6
					},
					"indices":3,
					"material":1
				}
			]
		},
		{
			"name":"Cube",
			"primitives":[
				{
					"attributes":{
						"POSITION":7,
						"NORMAL":8,
						"TEXCOORD_0":9
					},
					"indices":10,
					"material":2
				}
			]
		},
		{
			"name":"Cube.006",
			"primitives":[
				{
					"attributes":{
						"POSITION":11,
						"NORMAL":12,
						"TEXCOORD_0":13
					},
					"indices":14,
					"material":3
				}
			]
		},
		{
			"name":"Cube.007",
			"primitives":[
				{
					"attributes":{
						"POSITION":15,
						"NORMAL":16,
						"TEXCOORD_0":17
					},
					"indices":14,
					"material":4
				}
			]
		},
		{
			"name":"Cube.008",
			"primitives":[
				{
					"attributes":{
						"POSITION":18,
						"NORMAL":19,
						"TEXCOORD_0":20
					},
					"indices":21,
					"material":5
				}
			]
		},
		{
			"name":"Cube.009",
			"primitives":[
				{
					"attributes":{
						"POSITION":22,
						"NORMAL":23,
						"TEXCOORD_0":24
					},
					"indices":21,
					"material":6
				}
			]
		},
		{
			"name":"Cube.010",
			"primitives":[
				{
					"attributes":{
						"POSITION":25,
						"NORMAL":26,
						"TEXCOORD_0":27
					},
					"indices":14,
					"material":7
				}
			]
		},
		{
			"name":"Cube.011",
			"primitives":[
				{
					"attributes":{
						"POSITION":28,
						"NORMAL":29,
						"TEXCOORD_0":30
					},
					"indices":21,
					"material":8
				}
			]
		},
		{
			"name":"Cube.012",
			"primitives":[
				{
					"attributes":{
						"POSITION":31,
						"NORMAL":32,
						"TEXCOORD_0":33
					},
					"indices":21,
					"material":9
				}
			]
		},
		{
			"name":"Cube.013",
			"primitives":[
				{
					"attributes":{
						"POSITION":34,
						"NORMAL":35,
						"TEXCOORD_0":36
					},
					"indices":14,
					"material":10
				}
			]
		},
		{
			"name":"Cube.014",
			"primitives":[
				{
					"attributes":{
						"POSITION":37,
						"NORMAL":38,
						"TEXCOORD_0":39
					},
					"indices":21,
					"material":11
				}
			]
		},
		{
			"name":"Cube.001",
			"primitives":[
				{
					"attributes":{
						"POSITION":40,
						"NORMAL":41,
						"TEXCOORD_0":42
					},
					"indices":43,
					"material":12
				}
			]
		},
		{
			"name":"Cube.002",
			"primitives":[
				{
					"attributes":{
						"POSITION":44,
						"NORMAL":45,
						"TEXCOORD_0":46
					},
					"indices":43,
					"material":13
				}
			]
		},
		{
			"name":"Cube.003",
			"primitives":[
				{
					"attributes":{
						"POSITION":47,
						"NORMAL":48,
						"TEXCOORD_0":49
					},
					"indices":43,
					"material":14
				}
			]
		}
	],
	"accessors":[
		{
			"bufferView":0,
			"componentType":5126,
			"count":216,
			"max":[
				-4,
				0.3999999761581421,
				12
			],
			"min":[
				-4.699999809265137,
				-0.23999999463558197,
				-12
			],
			"type":"VEC3"
		},
		{
			"bufferView":1,
			"componentType":5126,
			"count":216,
			"type":"VEC3"
		},
		{
			"bufferView":2,
			"componentType":5126,
			"count":216,
			"type":"VEC2"
		},
		{
			"bufferView":3,
			"componentType":5123,
			"count":324,
			"type":"SCALAR"
		},
		{
			"bufferView":4,
			"componentType":5126,
			"count":216,
			"max":[
				4.699999809265137,
				0.3999999761581421,
				12
			],
			"min":[
				4,
				-0.23999999463558197,
				-12
			],
			"type":"VEC3"
		},
		{
			"bufferView":5,
			"componentType":5126,
			"count":216,
			"type":"VEC3"
		},
		{
			"bufferView":6,
			"componentType":5126,
			"count":216,
			"type":"VEC2"
		},
		{
			"bufferView":7,
			"componentType":5126,
			"count":96,
			"max":[
				4.699999809265137,
				0,
				12
			],
			"min":[
				-4.699999809265137,
				-0.23999999463558197,
				-12
			],
			"type":"VEC3"
		},
		{
			"bufferView":8,
			"componentType":5126,
			"count":96,
			"type":"VEC3"
		},
		{
			"bufferView":9,
			"componentType":5126,
			"count":96,
			"type":"VEC2"
		},
		{
			"bufferView":10,
			"componentType":5123,
			"count":132,
			"type":"SCALAR"
		},
		{
			"bufferView":11,
			"componentType":5126,
			"count":24,
			"max":[
				1.7184456586837769,
				0.017999999225139618,
				-4.106245994567871
			],
			"min":[
				0.30111658573150635,
				0.0019999993965029716,
				-4.754014015197754
			],
			"type":"VEC3"
		},
		{
			"bufferView":12,
			"componentType":5126,
			"count":24,
			"type":"VEC3"
		},
		{
			"bufferView":13,
			"componentType":5126,
			"count":24,
			"type":"VEC2"
		},
		{
			"bufferView":14,
			"componentType":5123,
			"count":36,
			"type":"SCALAR"
		},
		{
			"bufferView":15,
			"componentType":5126,
			"count":24,
			"max":[
				2.7001349925994873,
				0.017999999225139618,
				4.120548248291016
			],
			"min":[
				1.7097662687301636,
				0.0019999993965029716,
				3.2245192527770996
			],
			"type":"VEC3"
		},
		{
			"bufferView":16,
			"componentType":5126,
			"count":24,
			"type":"VEC3"
		},
		{
			"bufferView":17,
			"componentType":5126,
			"count":24,
			"type":"VEC2"
		},
		{
			"bufferView":18,
			"componentType":5126,
			"count":24,
			"max":[
				3.1266465187072754,
				0.017999999225139618,
				0.6290251016616821
			],
			"min":[
				2.445021152496338,
				0.0019999993965029716,
				-0.24048292636871338
			],
			"type":"VEC3"
		},
		{
			"bufferView":19,
			"componentType":5126,
			"count":24,
			"type":"VEC3"
		},
		{
			"bufferView":20,
			"componentType":5126,
			"count":24,
			"type":"VEC2"
		},
		{
			"bufferView":21,
			"componentType":5123,
			"count":36,
			"type":"SCALAR"
		},
		{
			"bufferView":22,
			"componentType":5126,
			"count":24,
			"max":[
				-2.232478141784668,
				0.017999999225139618,
				-7.039028167724609
			],
			"min":[
				-3.49676513671875,
				0.0019999993965029716,
				-7.858467102050781
			],
			"type":"VEC3"
		},
		{
			"bufferView":23,
			"componentType":5126,
			"count":24,
			"type":"VEC3"
		},
		{
			"bufferView":24,
			"componentType":5126,
			"count":24,
			"type":"VEC2"
		},
		{
			"bufferView":25,
			"componentType":5126,
			"count":24,
			"max":[
				4.070626735687256,
				0.017999999225139618,
				11.142929077148438
			],
			"min":[
				2.63016414642334,
				0.0019999993965029716,
				10.324514389038086
			],
			"type":"VEC3"
		},
		{
			"bufferView":26,
			"componentType":5126,
			"count":24,
			"type":"VEC3"
		},
		{
			"bufferView":27,
			"componentType":5126,
			"count":24,
			"type":"VEC2"
		},
		{
			"bufferView":28,
			"componentType":5126,
			"count":24,
			"max":[
				1.3282204866409302,
				0.017999999225139618,
				3.9343762397766113
			],
			"min":[
				0.20101773738861084,
				0.0019999993965029716,
				3.201003074645996
			],
			"type":"VEC3"
		},
		{
			"bufferView":29,
			"componentType":5126,
			"count":24,
			"type":"VEC3"
		},
		{
			"bufferView":30,
			"componentType":5126,
			"count":24,
			"type":"VEC2"
		},
		{
			"bufferView":31,
			"componentType":5126,
			"count":24,
			"max":[
				-2.24967622756958,
				0.017999999225139618,
				2.818788766860962
			],
			"min":[
				-3.20748233795166,
				0.0019999993965029716,
				1.93581223487854
			],
			"type":"VEC3"
		},
		{
			"bufferView":32,
			"componentType":5126,
			"count":24,
			"type":"VEC3"
		},
		{
			"bufferView":33,
			"componentType":5126,
			"count":24,
			"type":"VEC2"
		},
		{
			"bufferView":34,
			"componentType":5126,
			"count":24,
			"max":[
				2.2748851776123047,
				0.017999999225139618,
				-0.27544668316841125
			],
			"min":[
				1.4739993810653687,
				0.0019999993965029716,
				-1.0658522844314575
			],
			"type":"VEC3"
		},
		{
			"bufferView":35,
			"componentType":5126,
			"count":24,
			"type":"VEC3"
		},
		{
			"bufferView":36,
			"componentType":5126,
			"count":24,
			"type":"VEC2"
		},
		{
			"bufferView":37,
			"componentType":5126,
			"count":24,
			"max":[
				4.081863880157471,
				0.017999999225139618,
				7.426280498504639
			],
			"min":[
				2.6813645362854004,
				0.0019999993965029716,
				6.965709209442139
			],
			"type":"VEC3"
		},
		{
			"bufferView":38,
			"componentType":5126,
			"count":24,
			"type":"VEC3"
		},
		{
			"bufferView":39,
			"componentType":5126,
			"count":24,
			"type":"VEC2"
		},
		{
			"bufferView":40,
			"componentType":5126,
			"count":24,
			"max":[
				-1.850000023841858,
				0.019999999552965164,
				12
			],
			"min":[
				-2.549999952316284,
				-0.00800000037997961,
				-12
			],
			"type":"VEC3"
		},
		{
			"bufferView":41,
			"componentType":5126,
			"count":24,
			"type":"VEC3"
		},
		{
			"bufferView":42,
			"componentType":5126,
			"count":24,
			"type":"VEC2"
		},
		{
			"bufferView":43,
			"componentType":5123,
			"count":36,
			"type":"SCALAR"
		},
		{
			"bufferView":44,
			"componentType":5126,
			"count":24,
			"max":[
				0.3499999940395355,
				0.019999999552965164,
				12
			],
			"min":[
				-0.3499999940395355,
				-0.00800000037997961,
				-12
			],
			"type":"VEC3"
		},
		{
			"bufferView":45,
			"componentType":5126,
			"count":24,
			"type":"VEC3"
		},
		{
			"bufferView":46,
			"componentType":5126,
			"count":24,
			"type":"VEC2"
		},
		{
			"bufferView":47,
			"componentType":5126,
			"count":24,
			"max":[
				2.549999952316284,
				0.019999999552965164,
				12
			],
			"min":[
				1.850000023841858,
				-0.00800000037997961,
				-12
			],
			"type":"VEC3"
		},
		{
			"bufferView":48,
			"componentType":5126,
			"count":24,
			"type":"VEC3"
		},
		{
			"bufferView":49,
			"componentType":5126,
			"count":24,
			"type":"VEC2"
		}
	],
	"bufferViews":[
		{
			"buffer":0,
			"byteLength":2592,
			"byteOffset":0,
			"target":34962
		},
		{
			"buffer":0,
			"byteLength":2592,
			"byteOffset":2592,
			"target":34962
		},
		{
			"buffer":0,
			"byteLength":1728,
			"byteOffset":5184,
			"target":34962
		},
		{
			"buffer":0,
			"byteLength":648,
			"byteOffset":6912,
			"target":34963
		},
		{
			"buffer":0,
			"byteLength":2592,
			"byteOffset":7560,
			"target":34962
		},
		{
			"buffer":0,
			"byteLength":2592,
			"byteOffset":10152,
			"target":34962
		},
		{
			"buffer":0,
			"byteLength":1728,
			"byteOffset":12744,
			"target":34962
		},
		{
			"buffer":0,
			"byteLength":1152,
			"byteOffset":14472,
			"target":34962
		},
		{
			"buffer":0,
			"byteLength":1152,
			"byteOffset":15624,
			"target":34962
		},
		{
			"buffer":0,
			"byteLength":768,
			"byteOffset":16776,
			"target":34962
		},
		{
			"buffer":0,
			"byteLength":264,
			"byteOffset":17544,
			"target":34963
		},
		{
			"buffer":0,
			"byteLength":288,
			"byteOffset":17808,
			"target":34962
		},
		{
			"buffer":0,
			"byteLength":288,
			"byteOffset":18096,
			"target":34962
		},
		{
			"buffer":0,
			"byteLength":192,
			"byteOffset":18384,
			"target":34962
		},
		{
			"buffer":0,
			"byteLength":72,
			"byteOffset":18576,
			"target":34963
		},
		{
			"buffer":0,
			"byteLength":288,
			"byteOffset":18648,
			"target":34962
		},
		{
			"buffer":0,
			"byteLength":288,
			"byteOffset":18936,
			"target":34962
		},
		{
			"buffer":0,
			"byteLength":192,
			"byteOffset":19224,
			"target":34962
		},
		{
			"buffer":0,
			"byteLength":288,
			"byteOffset":19416,
			"target":34962
		},
		{
			"buffer":0,
			"byteLength":288,
			"byteOffset":19704,
			"target":34962
		},
		{
			"buffer":0,
			"byteLength":192,
			"byteOffset":19992,
			"target":34962
		},
		{
			"buffer":0,
			"byteLength":72,
			"byteOffset":20184,
			"target":34963
		},
		{
			"buffer":0,
			"byteLength":288,
			"byteOffset":20256,
			"target":34962
		},
		{
			"buffer":0,
			"byteLength":288,
			"byteOffset":20544,
			"target":34962
		},
		{
			"buffer":0,
			"byteLength":192,
			"byteOffset":20832,
			"target":34962
		},
		{
			"buffer":0,
			"byteLength":288,
			"byteOffset":21024,
			"target":34962
		},
		{
			"buffer":0,
			"byteLength":288,
			"byteOffset":21312,
			"target":34962
		},
		{
			"buffer":0,
			"byteLength":192,
			"byteOffset":21600,
			"target":34962
		},
		{
			"buffer":0,
			"byteLength":288,
			"byteOffset":21792,
			"target":34962
		},
		{
			"buffer":0,
			"byteLength":288,
			"byteOffset":22080,
			"target":34962
		},
		{
			"buffer":0,
			"byteLength":192,
			"byteOffset":22368,
			"target":34962
		},
		{
			"buffer":0,
			"byteLength":288,
			"byteOffset":22560,
			"target":34962
		},
		{
			"buffer":0,
			"byteLength":288,
			"byteOffset":22848,
			"target":34962
		},
		{
			"buffer":0,
			"byteLength":192,
			"byteOffset":23136,
			"target":34962
		},
		{
			"buffer":0,
			"byteLength":288,
			"byteOffset":23328,
			"target":34962
		},
		{
			"buffer":0,
			"byteLength":288,
			"byteOffset":23616,
			"target":34962
		},
		{
			"buffer":0,
			"byteLength":192,
			"byteOffset":23904,
			"target":34962
		},
		{
			"buffer":0,
			"byteLength":288,
			"byteOffset":24096,
			"target":34962
		},
		{
			"buffer":0,
			"byteLength":288,
			"byteOffset":24384,
			"target":34962
		},
		{
			"buffer":0,
			"byteLength":192,
			"byteOffset":24672,
			"target":34962
		},
		{
			"buffer":0,
			"byteLength":288,
			"byteOffset":24864,
			"target":34962
		},
		{
			"buffer":0,
			"byteLength":288,
			"byteOffset":25152,
			"target":34962
		},
		{
			"buffer":0,
			"byteLength":192,
			"byteOffset":25440,
			"target":34962
		},
		{
			"buffer":0,
			"byteLength":72,
			"byteOffset":25632,
			"target":34963
		},
		{
			"buffer":0,
			"byteLength":288,
			"byteOffset":25704,
			"target":34962
		},
		{
			"buffer":0,
			"byteLength":288,
			"byteOffset":25992,
			"target":34962
		},
		{
			"buffer":0,
			"byteLength":192,
			"byteOffset":26280,
			"target":34962
		},
		{
			"buffer":0,
			"byteLength":288,
			"byteOffset":26472,
			"target":34962
		},
		{
			"buffer":0,
			"byteLength":288,
			"byteOffset":26760,
			"target":34962
		},
		{
			"buffer":0,
			"byteLength":192,
			"byteOffset":27048,
			"target":34962
		}
	],
	"buffers":[
		{
			"byteLength":27240,
			"uri":"hd_rd_slide.bin"
		}
	]
}
