{
	"asset":{
		"generator":"Khronos glTF Blender I/O v5.2.40",
		"version":"2.0"
	},
	"scene":0,
	"scenes":[
		{
			"name":"Scene",
			"nodes":[
				0,
				1,
				2,
				3,
				4,
				5,
				6,
				7,
				8,
				9,
				10,
				11,
				12,
				13,
				14
			]
		}
	],
	"nodes":[
		{
			"mesh":0,
			"name":"f0_0"
		},
		{
			"mesh":1,
			"name":"f0_1"
		},
		{
			"mesh":2,
			"name":"f0_2"
		},
		{
			"mesh":3,
			"name":"f0_3"
		},
		{
			"mesh":4,
			"name":"f0_4"
		},
		{
			"mesh":5,
			"name":"f0_5"
		},
		{
			"mesh":6,
			"name":"f0_6"
		},
		{
			"mesh":7,
			"name":"f0_7"
		},
		{
			"mesh":8,
			"name":"f0_8"
		},
		{
			"mesh":9,
			"name":"f1_0"
		},
		{
			"mesh":10,
			"name":"f1_1"
		},
		{
			"mesh":11,
			"name":"f1_2"
		},
		{
			"mesh":12,
			"name":"f1_3"
		},
		{
			"mesh":13,
			"name":"f1_4"
		},
		{
			"mesh":14,
			"name":"f1_5"
		}
	],
	"materials":[
		{
			"doubleSided":true,
			"name":"M_fm0_0",
			"pbrMetallicRoughness":{
				"baseColorFactor":[
					0.044552627950906754,
					0.25491586327552795,
					0.06190747395157814,
					1
				],
				"metallicFactor":0,
				"roughnessFactor":0.8500000238418579
			}
		},
		{
			"doubleSided":true,
			"name":"M_fm0_1",
			"pbrMetallicRoughness":{
				"baseColorFactor":[
					0.09387587010860443,
					0.48776519298553467,
					0.05637409910559654,
					1
				],
				"metallicFactor":0,
				"roughnessFactor":0.8500000238418579
			}
		},
		{
			"doubleSided":true,
			"name":"M_fm0_2",
			"pbrMetallicRoughness":{
				"baseColorFactor":[
					0.044552627950906754,
					0.25491586327552795,
					0.06190747395157814,
					1
				],
				"metallicFactor":0,
				"roughnessFactor":0.8500000238418579
			}
		},
		{
			"doubleSided":true,
			"name":"M_fm0_3",
			"pbrMetallicRoughness":{
				"baseColorFactor":[
					0.09387587010860443,
					0.48776519298553467,
					0.05637409910559654,
					1
				],
				"metallicFactor":0,
				"roughnessFactor":0.8500000238418579
			}
		},
		{
			"doubleSided":true,
			"name":"M_fm0_4",
			"pbrMetallicRoughness":{
				"baseColorFactor":[
					0.044552627950906754,
					0.25491586327552795,
					0.06190747395157814,
					1
				],
				"metallicFactor":0,
				"roughnessFactor":0.8500000238418579
			}
		},
		{
			"doubleSided":true,
			"name":"M_fm0_5",
			"pbrMetallicRoughness":{
				"baseColorFactor":[
					0.09387587010860443,
					0.48776519298553467,
					0.05637409910559654,
					1
				],
				"metallicFactor":0,
				"roughnessFactor":0.8500000238418579
			}
		},
		{
			"doubleSided":true,
			"name":"M_fm0_6",
			"pbrMetallicRoughness":{
				"baseColorFactor":[
					0.044552627950906754,
					0.25491586327552795,
					0.06190747395157814,
					1
				],
				"metallicFactor":0,
				"roughnessFactor":0.8500000238418579
			}
		},
		{
			"doubleSided":true,
			"name":"M_fm0_7",
			"pbrMetallicRoughness":{
				"baseColorFactor":[
					0.09387587010860443,
					0.48776519298553467,
					0.05637409910559654,
					1
				],
				"metallicFactor":0,
				"roughnessFactor":0.8500000238418579
			}
		},
		{
			"doubleSided":true,
			"name":"M_fm0_8",
			"pbrMetallicRoughness":{
				"baseColorFactor":[
					0.044552627950906754,
					0.25491586327552795,
					0.06190747395157814,
					1
				],
				"metallicFactor":0,
				"roughnessFactor":0.8500000238418579
			}
		},
		{
			"doubleSided":true,
			"name":"M_fm1_0",
			"pbrMetallicRoughness":{
				"baseColorFactor":[
					0.044552627950906754,
					0.25491586327552795,
					0.06190747395157814,
					1
				],
				"metallicFactor":0,
				"roughnessFactor":0.8500000238418579
			}
		},
		{
			"doubleSided":true,
			"name":"M_fm1_1",
			"pbrMetallicRoughness":{
				"baseColorFactor":[
					0.09387587010860443,
					0.48776519298553467,
					0.05637409910559654,
					1
				],
				"metallicFactor":0,
				"roughnessFactor":0.8500000238418579
			}
		},
		{
			"doubleSided":true,
			"name":"M_fm1_2",
			"pbrMetallicRoughness":{
				"baseColorFactor":[
					0.044552627950906754,
					0.25491586327552795,
					0.06190747395157814,
					1
				],
				"metallicFactor":0,
				"roughnessFactor":0.8500000238418579
			}
		},
		{
			"doubleSided":true,
			"name":"M_fm1_3",
			"pbrMetallicRoughness":{
				"baseColorFactor":[
					0.09387587010860443,
					0.48776519298553467,
					0.05637409910559654,
					1
				],
				"metallicFactor":0,
				"roughnessFactor":0.8500000238418579
			}
		},
		{
			"doubleSided":true,
			"name":"M_fm1_4",
			"pbrMetallicRoughness":{
				"baseColorFactor":[
					0.044552627950906754,
					0.25491586327552795,
					0.06190747395157814,
					1
				],
				"metallicFactor":0,
				"roughnessFactor":0.8500000238418579
			}
		},
		{
			"doubleSided":true,
			"name":"M_fm1_5",
			"pbrMetallicRoughness":{
				"baseColorFactor":[
					0.09387587010860443,
					0.48776519298553467,
					0.05637409910559654,
					1
				],
				"metallicFactor":0,
				"roughnessFactor":0.8500000238418579
			}
		}
	],
	"meshes":[
		{
			"name":"Cone",
			"primitives":[
				{
					"attributes":{
						"POSITION":0,
						"NORMAL":1,
						"TEXCOORD_0":2
					},
					"indices":3,
					"material":0
				}
			]
		},
		{
			"name":"Cone.001",
			"primitives":[
				{
					"attributes":{
						"POSITION":4,
						"NORMAL":5,
						"TEXCOORD_0":6
					},
					"indices":3,
					"material":1
				}
			]
		},
		{
			"name":"Cone.002",
			"primitives":[
				{
					"attributes":{
						"POSITION":7,
						"NORMAL":8,
						"TEXCOORD_0":9
					},
					"indices":3,
					"material":2
				}
			]
		},
		{
			"name":"Cone.003",
			"primitives":[
				{
					"attributes":{
						"POSITION":10,
						"NORMAL":11,
						"TEXCOORD_0":12
					},
					"indices":3,
					"material":3
				}
			]
		},
		{
			"name":"Cone.004",
			"primitives":[
				{
					"attributes":{
						"POSITION":13,
						"NORMAL":14,
						"TEXCOORD_0":15
					},
					"indices":3,
					"material":4
				}
			]
		},
		{
			"name":"Cone.005",
			"primitives":[
				{
					"attributes":{
						"POSITION":16,
						"NORMAL":17,
						"TEXCOORD_0":18
					},
					"indices":3,
					"material":5
				}
			]
		},
		{
			"name":"Cone.006",
			"primitives":[
				{
					"attributes":{
						"POSITION":19,
						"NORMAL":20,
						"TEXCOORD_0":21
					},
					"indices":3,
					"material":6
				}
			]
		},
		{
			"name":"Cone.007",
			"primitives":[
				{
					"attributes":{
						"POSITION":22,
						"NORMAL":23,
						"TEXCOORD_0":24
					},
					"indices":3,
					"material":7
				}
			]
		},
		{
			"name":"Cone.008",
			"primitives":[
				{
					"attributes":{
						"POSITION":25,
						"NORMAL":26,
						"TEXCOORD_0":27
					},
					"indices":3,
					"material":8
				}
			]
		},
		{
			"name":"Cone.009",
			"primitives":[
				{
					"attributes":{
						"POSITION":28,
						"NORMAL":29,
						"TEXCOORD_0":30
					},
					"indices":3,
					"material":9
				}
			]
		},
		{
			"name":"Cone.010",
			"primitives":[
				{
					"attributes":{
						"POSITION":31,
						"NORMAL":32,
						"TEXCOORD_0":33
					},
					"indices":3,
					"material":10
				}
			]
		},
		{
			"name":"Cone.011",
			"primitives":[
				{
					"attributes":{
						"POSITION":34,
						"NORMAL":35,
						"TEXCOORD_0":36
					},
					"indices":3,
					"material":11
				}
			]
		},
		{
			"name":"Cone.012",
			"primitives":[
				{
					"attributes":{
						"POSITION":37,
						"NORMAL":38,
						"TEXCOORD_0":39
					},
					"indices":3,
					"material":12
				}
			]
		},
		{
			"name":"Cone.013",
			"primitives":[
				{
					"attributes":{
						"POSITION":40,
						"NORMAL":41,
						"TEXCOORD_0":42
					},
					"indices":3,
					"material":13
				}
			]
		},
		{
			"name":"Cone.014",
			"primitives":[
				{
					"attributes":{
						"POSITION":43,
						"NORMAL":44,
						"TEXCOORD_0":45
					},
					"indices":3,
					"material":14
				}
			]
		}
	],
	"accessors":[
		{
			"bufferView":0,
			"componentType":5126,
			"count":22,
			"max":[
				0.4647183120250702,
				0.6545062065124512,
				0.0728115364909172
			],
			"min":[
				-0.20676296949386597,
				-0.07668948173522949,
				-0.09000000357627869
			],
			"type":"VEC3"
		},
		{
			"bufferView":1,
			"componentType":5126,
			"count":22,
			"type":"VEC3"
		},
		{
			"bufferView":2,
			"componentType":5126,
			"count":22,
			"type":"VEC2"
		},
		{
			"bufferView":3,
			"componentType":5123,
			"count":48,
			"type":"SCALAR"
		},
		{
			"bufferView":4,
			"componentType":5126,
			"count":22,
			"max":[
				0.3558416962623596,
				0.6593912243843079,
				0.14576339721679688
			],
			"min":[
				-0.14394228160381317,
				-0.08053576946258545,
				-0.34874671697616577
			],
			"type":"VEC3"
		},
		{
			"bufferView":5,
			"componentType":5126,
			"count":22,
			"type":"VEC3"
		},
		{
			"bufferView":6,
			"componentType":5126,
			"count":22,
			"type":"VEC2"
		},
		{
			"bufferView":7,
			"componentType":5126,
			"count":22,
			"max":[
				0.14281047880649567,
				0.65525883436203,
				0.2037428468465805
			],
			"min":[
				-0.0332656092941761,
				-0.07445624470710754,
				-0.46339625120162964
			],
			"type":"VEC3"
		},
		{
			"bufferView":8,
			"componentType":5126,
			"count":22,
			"type":"VEC3"
		},
		{
			"bufferView":9,
			"componentType":5126,
			"count":22,
			"type":"VEC2"
		},
		{
			"bufferView":10,
			"componentType":5126,
			"count":22,
			"max":[
				0.08747513592243195,
				0.657691240310669,
				0.1854768693447113
			],
			"min":[
				-0.25384584069252014,
				-0.08253210783004761,
				-0.4259363114833832
			],
			"type":"VEC3"
		},
		{
			"bufferView":11,
			"componentType":5126,
			"count":22,
			"type":"VEC3"
		},
		{
			"bufferView":12,
			"componentType":5126,
			"count":22,
			"type":"VEC2"
		},
		{
			"bufferView":13,
			"componentType":5126,
			"count":22,
			"max":[
				0.18938717246055603,
				0.6568439602851868,
				0.08371077477931976
			],
			"min":[
				-0.43275490403175354,
				-0.07061484456062317,
				-0.23303121328353882
			],
			"type":"VEC3"
		},
		{
			"bufferView":14,
			"componentType":5126,
			"count":22,
			"type":"VEC3"
		},
		{
			"bufferView":15,
			"componentType":5126,
			"count":22,
			"type":"VEC2"
		},
		{
			"bufferView":16,
			"componentType":5126,
			"count":22,
			"max":[
				0.18860748410224915,
				0.6558970212936401,
				0.21638013422489166
			],
			"min":[
				-0.4415265619754791,
				-0.08126819133758545,
				-0.08519087731838226
			],
			"type":"VEC3"
		},
		{
			"bufferView":17,
			"componentType":5126,
			"count":22,
			"type":"VEC3"
		},
		{
			"bufferView":18,
			"componentType":5126,
			"count":22,
			"type":"VEC2"
		},
		{
			"bufferView":19,
			"componentType":5126,
			"count":22,
			"max":[
				0.0864243358373642,
				0.6585304737091064,
				0.41209661960601807
			],
			"min":[
				-0.26566722989082336,
				-0.07309061288833618,
				-0.1867070496082306
			],
			"type":"VEC3"
		},
		{
			"bufferView":20,
			"componentType":5126,
			"count":22,
			"type":"VEC3"
		},
		{
			"bufferView":21,
			"componentType":5126,
			"count":22,
			"type":"VEC2"
		},
		{
			"bufferView":22,
			"componentType":5126,
			"count":22,
			"max":[
				0.14747661352157593,
				0.6548542976379395,
				0.45049548149108887
			],
			"min":[
				-0.03285084292292595,
				-0.0790071189403534,
				-0.20488958060741425
			],
			"type":"VEC3"
		},
		{
			"bufferView":23,
			"componentType":5126,
			"count":22,
			"type":"VEC3"
		},
		{
			"bufferView":24,
			"componentType":5126,
			"count":22,
			"type":"VEC2"
		},
		{
			"bufferView":25,
			"componentType":5126,
			"count":22,
			"max":[
				0.3692869544029236,
				0.6593806743621826,
				0.33343127369880676
			],
			"min":[
				-0.14274714887142181,
				-0.08065465092658997,
				-0.1471247673034668
			],
			"type":"VEC3"
		},
		{
			"bufferView":26,
			"componentType":5126,
			"count":22,
			"type":"VEC3"
		},
		{
			"bufferView":27,
			"componentType":5126,
			"count":22,
			"type":"VEC2"
		},
		{
			"bufferView":28,
			"componentType":5126,
			"count":22,
			"max":[
				0.2541406750679016,
				0.5391084551811218,
				0.007233660668134689
			],
			"min":[
				-0.007090605795383453,
				-0.1068783849477768,
				-0.18973316252231598
			],
			"type":"VEC3"
		},
		{
			"bufferView":29,
			"componentType":5126,
			"count":22,
			"type":"VEC3"
		},
		{
			"bufferView":30,
			"componentType":5126,
			"count":22,
			"type":"VEC2"
		},
		{
			"bufferView":31,
			"componentType":5126,
			"count":22,
			"max":[
				0.08559509366750717,
				0.5390654802322388,
				0.006585888564586639
			],
			"min":[
				-0.08559509366750717,
				-0.10409335792064667,
				-0.28602561354637146
			],
			"type":"VEC3"
		},
		{
			"bufferView":32,
			"componentType":5126,
			"count":22,
			"type":"VEC3"
		},
		{
			"bufferView":33,
			"componentType":5126,
			"count":22,
			"type":"VEC2"
		},
		{
			"bufferView":34,
			"componentType":5126,
			"count":22,
			"max":[
				0.007090605795383453,
				0.5391084551811218,
				0.007233660668134689
			],
			"min":[
				-0.2541406750679016,
				-0.1068783849477768,
				-0.18973316252231598
			],
			"type":"VEC3"
		},
		{
			"bufferView":35,
			"componentType":5126,
			"count":22,
			"type":"VEC3"
		},
		{
			"bufferView":36,
			"componentType":5126,
			"count":22,
			"type":"VEC2"
		},
		{
			"bufferView":37,
			"componentType":5126,
			"count":22,
			"max":[
				0.006882756948471069,
				0.5389301776885986,
				0.17275631427764893
			],
			"min":[
				-0.2564789354801178,
				-0.10888360440731049,
				-0.008742716163396835
			],
			"type":"VEC3"
		},
		{
			"bufferView":38,
			"componentType":5126,
			"count":22,
			"type":"VEC3"
		},
		{
			"bufferView":39,
			"componentType":5126,
			"count":22,
			"type":"VEC2"
		},
		{
			"bufferView":40,
			"componentType":5126,
			"count":22,
			"max":[
				0.08559509366750717,
				0.5385933518409729,
				0.26967841386795044
			],
			"min":[
				-0.08559509366750717,
				-0.10940487682819366,
				-0.008038975298404694
			],
			"type":"VEC3"
		},
		{
			"bufferView":41,
			"componentType":5126,
			"count":22,
			"type":"VEC3"
		},
		{
			"bufferView":42,
			"componentType":5126,
			"count":22,
			"type":"VEC2"
		},
		{
			"bufferView":43,
			"componentType":5126,
			"count":22,
			"max":[
				0.2564789354801178,
				0.5389301776885986,
				0.17275631427764893
			],
			"min":[
				-0.006882756948471069,
				-0.10888360440731049,
				-0.008742716163396835
			],
			"type":"VEC3"
		},
		{
			"bufferView":44,
			"componentType":5126,
			"count":22,
			"type":"VEC3"
		},
		{
			"bufferView":45,
			"componentType":5126,
			"count":22,
			"type":"VEC2"
		}
	],
	"bufferViews":[
		{
			"buffer":0,
			"byteLength":264,
			"byteOffset":0,
			"target":34962
		},
		{
			"buffer":0,
			"byteLength":264,
			"byteOffset":264,
			"target":34962
		},
		{
			"buffer":0,
			"byteLength":176,
			"byteOffset":528,
			"target":34962
		},
		{
			"buffer":0,
			"byteLength":96,
			"byteOffset":704,
			"target":34963
		},
		{
			"buffer":0,
			"byteLength":264,
			"byteOffset":800,
			"target":34962
		},
		{
			"buffer":0,
			"byteLength":264,
			"byteOffset":1064,
			"target":34962
		},
		{
			"buffer":0,
			"byteLength":176,
			"byteOffset":1328,
			"target":34962
		},
		{
			"buffer":0,
			"byteLength":264,
			"byteOffset":1504,
			"target":34962
		},
		{
			"buffer":0,
			"byteLength":264,
			"byteOffset":1768,
			"target":34962
		},
		{
			"buffer":0,
			"byteLength":176,
			"byteOffset":2032,
			"target":34962
		},
		{
			"buffer":0,
			"byteLength":264,
			"byteOffset":2208,
			"target":34962
		},
		{
			"buffer":0,
			"byteLength":264,
			"byteOffset":2472,
			"target":34962
		},
		{
			"buffer":0,
			"byteLength":176,
			"byteOffset":2736,
			"target":34962
		},
		{
			"buffer":0,
			"byteLength":264,
			"byteOffset":2912,
			"target":34962
		},
		{
			"buffer":0,
			"byteLength":264,
			"byteOffset":3176,
			"target":34962
		},
		{
			"buffer":0,
			"byteLength":176,
			"byteOffset":3440,
			"target":34962
		},
		{
			"buffer":0,
			"byteLength":264,
			"byteOffset":3616,
			"target":34962
		},
		{
			"buffer":0,
			"byteLength":264,
			"byteOffset":3880,
			"target":34962
		},
		{
			"buffer":0,
			"byteLength":176,
			"byteOffset":4144,
			"target":34962
		},
		{
			"buffer":0,
			"byteLength":264,
			"byteOffset":4320,
			"target":34962
		},
		{
			"buffer":0,
			"byteLength":264,
			"byteOffset":4584,
			"target":34962
		},
		{
			"buffer":0,
			"byteLength":176,
			"byteOffset":4848,
			"target":34962
		},
		{
			"buffer":0,
			"byteLength":264,
			"byteOffset":5024,
			"target":34962
		},
		{
			"buffer":0,
			"byteLength":264,
			"byteOffset":5288,
			"target":34962
		},
		{
			"buffer":0,
			"byteLength":176,
			"byteOffset":5552,
			"target":34962
		},
		{
			"buffer":0,
			"byteLength":264,
			"byteOffset":5728,
			"target":34962
		},
		{
			"buffer":0,
			"byteLength":264,
			"byteOffset":5992,
			"target":34962
		},
		{
			"buffer":0,
			"byteLength":176,
			"byteOffset":6256,
			"target":34962
		},
		{
			"buffer":0,
			"byteLength":264,
			"byteOffset":6432,
			"target":34962
		},
		{
			"buffer":0,
			"byteLength":264,
			"byteOffset":6696,
			"target":34962
		},
		{
			"buffer":0,
			"byteLength":176,
			"byteOffset":6960,
			"target":34962
		},
		{
			"buffer":0,
			"byteLength":264,
			"byteOffset":7136,
			"target":34962
		},
		{
			"buffer":0,
			"byteLength":264,
			"byteOffset":7400,
			"target":34962
		},
		{
			"buffer":0,
			"byteLength":176,
			"byteOffset":7664,
			"target":34962
		},
		{
			"buffer":0,
			"byteLength":264,
			"byteOffset":7840,
			"target":34962
		},
		{
			"buffer":0,
			"byteLength":264,
			"byteOffset":8104,
			"target":34962
		},
		{
			"buffer":0,
			"byteLength":176,
			"byteOffset":8368,
			"target":34962
		},
		{
			"buffer":0,
			"byteLength":264,
			"byteOffset":8544,
			"target":34962
		},
		{
			"buffer":0,
			"byteLength":264,
			"byteOffset":8808,
			"target":34962
		},
		{
			"buffer":0,
			"byteLength":176,
			"byteOffset":9072,
			"target":34962
		},
		{
			"buffer":0,
			"byteLength":264,
			"byteOffset":9248,
			"target":34962
		},
		{
			"buffer":0,
			"byteLength":264,
			"byteOffset":9512,
			"target":34962
		},
		{
			"buffer":0,
			"byteLength":176,
			"byteOffset":9776,
			"target":34962
		},
		{
			"buffer":0,
			"byteLength":264,
			"byteOffset":9952,
			"target":34962
		},
		{
			"buffer":0,
			"byteLength":264,
			"byteOffset":10216,
			"target":34962
		},
		{
			"buffer":0,
			"byteLength":176,
			"byteOffset":10480,
			"target":34962
		}
	],
	"buffers":[
		{
			"byteLength":10656,
			"uri":"hd_fern.bin"
		}
	]
}
