{
	"asset":{
		"generator":"Khronos glTF Blender I/O v5.2.40",
		"version":"2.0"
	},
	"scene":0,
	"scenes":[
		{
			"name":"Scene",
			"nodes":[
				0,
				1,
				2,
				3,
				4,
				5,
				6,
				7,
				8,
				9
			]
		}
	],
	"nodes":[
		{
			"mesh":0,
			"name":"bleg0.9"
		},
		{
			"mesh":1,
			"name":"bleg-0.9"
		},
		{
			"mesh":2,
			"name":"glass"
		},
		{
			"mesh":3,
			"name":"post1.4"
		},
		{
			"mesh":4,
			"name":"post-1.4"
		},
		{
			"mesh":5,
			"name":"roof"
		},
		{
			"mesh":6,
			"name":"seat"
		},
		{
			"mesh":7,
			"name":"sign"
		},
		{
			"mesh":8,
			"name":"signface"
		},
		{
			"mesh":9,
			"name":"signpole"
		}
	],
	"materials":[
		{
			"doubleSided":true,
			"name":"M_bl0.9",
			"pbrMetallicRoughness":{
				"baseColorFactor":[
					0.03423020616173744,
					0.05112205073237419,
					0.07382776588201523,
					1
				],
				"metallicFactor":0,
				"roughnessFactor":0.8500000238418579
			}
		},
		{
			"doubleSided":true,
			"name":"M_bl-0.9",
			"pbrMetallicRoughness":{
				"baseColorFactor":[
					0.03423020616173744,
					0.05112205073237419,
					0.07382776588201523,
					1
				],
				"metallicFactor":0,
				"roughnessFactor":0.8500000238418579
			}
		},
		{
			"doubleSided":true,
			"emissiveFactor":[
				0.032364661787536164,
				0.06886198645281727,
				0.08886570985578324
			],
			"name":"M_bg",
			"pbrMetallicRoughness":{
				"baseColorFactor":[
					0.21576440334320068,
					0.45907989144325256,
					0.5924380421638489,
					1
				],
				"metallicFactor":0,
				"roughnessFactor":0.8500000238418579
			}
		},
		{
			"doubleSided":true,
			"name":"M_bp1.4",
			"pbrMetallicRoughness":{
				"baseColorFactor":[
					0.03423020616173744,
					0.05112205073237419,
					0.07382776588201523,
					1
				],
				"metallicFactor":0,
				"roughnessFactor":0.8500000238418579
			}
		},
		{
			"doubleSided":true,
			"name":"M_bp-1.4",
			"pbrMetallicRoughness":{
				"baseColorFactor":[
					0.03423020616173744,
					0.05112205073237419,
					0.07382776588201523,
					1
				],
				"metallicFactor":0,
				"roughnessFactor":0.8500000238418579
			}
		},
		{
			"doubleSided":true,
			"name":"M_br5",
			"pbrMetallicRoughness":{
				"baseColorFactor":[
					0.32972902059555054,
					0.06575387716293335,
					0.03561437129974365,
					1
				],
				"metallicFactor":0,
				"roughnessFactor":0.8500000238418579
			}
		},
		{
			"doubleSided":true,
			"name":"M_bs",
			"pbrMetallicRoughness":{
				"baseColorFactor":[
					0.701169490814209,
					0.2590273320674896,
					0.041451890021562576,
					1
				],
				"metallicFactor":0,
				"roughnessFactor":0.8500000238418579
			}
		},
		{
			"doubleSided":true,
			"name":"M_bsn",
			"pbrMetallicRoughness":{
				"baseColorFactor":[
					0.023103555664420128,
					0.037028513848781586,
					0.04943345859646797,
					1
				],
				"metallicFactor":0,
				"roughnessFactor":0.8500000238418579
			}
		},
		{
			"doubleSided":true,
			"emissiveFactor":[
				0.800000011920929,
				0.6559709646697485,
				0.31943464755169515
			],
			"name":"M_bsf",
			"pbrMetallicRoughness":{
				"baseColorFactor":[
					1,
					0.8199636936187744,
					0.39929330348968506,
					1
				],
				"metallicFactor":0,
				"roughnessFactor":0.8500000238418579
			}
		},
		{
			"doubleSided":true,
			"name":"M_bsp",
			"pbrMetallicRoughness":{
				"baseColorFactor":[
					0.03423020616173744,
					0.05112205073237419,
					0.07382776588201523,
					1
				],
				"metallicFactor":0,
				"roughnessFactor":0.8500000238418579
			}
		}
	],
	"meshes":[
		{
			"name":"Cube.003",
			"primitives":[
				{
					"attributes":{
						"POSITION":0,
						"NORMAL":1,
						"TEXCOORD_0":2
					},
					"indices":3,
					"material":0
				}
			]
		},
		{
			"name":"Cube.002",
			"primitives":[
				{
					"attributes":{
						"POSITION":4,
						"NORMAL":5,
						"TEXCOORD_0":6
					},
					"indices":3,
					"material":1
				}
			]
		},
		{
			"name":"Cube.001",
			"primitives":[
				{
					"attributes":{
						"POSITION":7,
						"NORMAL":8,
						"TEXCOORD_0":9
					},
					"indices":3,
					"material":2
				}
			]
		},
		{
			"name":"Cylinder.001",
			"primitives":[
				{
					"attributes":{
						"POSITION":10,
						"NORMAL":11,
						"TEXCOORD_0":12
					},
					"indices":13,
					"material":3
				}
			]
		},
		{
			"name":"Cylinder",
			"primitives":[
				{
					"attributes":{
						"POSITION":14,
						"NORMAL":15,
						"TEXCOORD_0":16
					},
					"indices":13,
					"material":4
				}
			]
		},
		{
			"name":"Cube",
			"primitives":[
				{
					"attributes":{
						"POSITION":17,
						"NORMAL":18,
						"TEXCOORD_0":19
					},
					"indices":20,
					"material":5
				}
			]
		},
		{
			"name":"Cube.004",
			"primitives":[
				{
					"attributes":{
						"POSITION":21,
						"NORMAL":22,
						"TEXCOORD_0":23
					},
					"indices":3,
					"material":6
				}
			]
		},
		{
			"name":"Cube.005",
			"primitives":[
				{
					"attributes":{
						"POSITION":24,
						"NORMAL":25,
						"TEXCOORD_0":26
					},
					"indices":3,
					"material":7
				}
			]
		},
		{
			"name":"Cube.006",
			"primitives":[
				{
					"attributes":{
						"POSITION":27,
						"NORMAL":28,
						"TEXCOORD_0":29
					},
					"indices":3,
					"material":8
				}
			]
		},
		{
			"name":"Cylinder.002",
			"primitives":[
				{
					"attributes":{
						"POSITION":30,
						"NORMAL":31,
						"TEXCOORD_0":32
					},
					"indices":33,
					"material":9
				}
			]
		}
	],
	"accessors":[
		{
			"bufferView":0,
			"componentType":5126,
			"count":24,
			"max":[
				0.9799999594688416,
				0.5600000023841858,
				0.3799999952316284
			],
			"min":[
				0.8199999928474426,
				0,
				-0.18000000715255737
			],
			"type":"VEC3"
		},
		{
			"bufferView":1,
			"componentType":5126,
			"count":24,
			"type":"VEC3"
		},
		{
			"bufferView":2,
			"componentType":5126,
			"count":24,
			"type":"VEC2"
		},
		{
			"bufferView":3,
			"componentType":5123,
			"count":36,
			"type":"SCALAR"
		},
		{
			"bufferView":4,
			"componentType":5126,
			"count":24,
			"max":[
				-0.8199999928474426,
				0.5600000023841858,
				0.3799999952316284
			],
			"min":[
				-0.9799999594688416,
				0,
				-0.18000000715255737
			],
			"type":"VEC3"
		},
		{
			"bufferView":5,
			"componentType":5126,
			"count":24,
			"type":"VEC3"
		},
		{
			"bufferView":6,
			"componentType":5126,
			"count":24,
			"type":"VEC2"
		},
		{
			"bufferView":7,
			"componentType":5126,
			"count":24,
			"max":[
				1.5,
				2.0999999046325684,
				-0.25
			],
			"min":[
				-1.5,
				0.3999999761581421,
				-0.3100000023841858
			],
			"type":"VEC3"
		},
		{
			"bufferView":8,
			"componentType":5126,
			"count":24,
			"type":"VEC3"
		},
		{
			"bufferView":9,
			"componentType":5126,
			"count":24,
			"type":"VEC2"
		},
		{
			"bufferView":10,
			"componentType":5126,
			"count":48,
			"max":[
				1.4499999284744263,
				2.299999952316284,
				0.05000000074505806
			],
			"min":[
				1.350000023841858,
				0,
				-0.05000000074505806
			],
			"type":"VEC3"
		},
		{
			"bufferView":11,
			"componentType":5126,
			"count":48,
			"type":"VEC3"
		},
		{
			"bufferView":12,
			"componentType":5126,
			"count":48,
			"type":"VEC2"
		},
		{
			"bufferView":13,
			"componentType":5123,
			"count":84,
			"type":"SCALAR"
		},
		{
			"bufferView":14,
			"componentType":5126,
			"count":48,
			"max":[
				-1.350000023841858,
				2.299999952316284,
				0.05000000074505806
			],
			"min":[
				-1.4499999284744263,
				0,
				-0.05000000074505806
			],
			"type":"VEC3"
		},
		{
			"bufferView":15,
			"componentType":5126,
			"count":48,
			"type":"VEC3"
		},
		{
			"bufferView":16,
			"componentType":5126,
			"count":48,
			"type":"VEC2"
		},
		{
			"bufferView":17,
			"componentType":5126,
			"count":96,
			"max":[
				1.7000000476837158,
				2.429999828338623,
				0.75
			],
			"min":[
				-1.7000000476837158,
				2.2699999809265137,
				-0.6499999761581421
			],
			"type":"VEC3"
		},
		{
			"bufferView":18,
			"componentType":5126,
			"count":96,
			"type":"VEC3"
		},
		{
			"bufferView":19,
			"componentType":5126,
			"count":96,
			"type":"VEC2"
		},
		{
			"bufferView":20,
			"componentType":5123,
			"count":132,
			"type":"SCALAR"
		},
		{
			"bufferView":21,
			"componentType":5126,
			"count":24,
			"max":[
				1.2999999523162842,
				0.6399999856948853,
				0.4000000059604645
			],
			"min":[
				-1.2999999523162842,
				0.5199999809265137,
				-0.20000001788139343
			],
			"type":"VEC3"
		},
		{
			"bufferView":22,
			"componentType":5126,
			"count":24,
			"type":"VEC3"
		},
		{
			"bufferView":23,
			"componentType":5126,
			"count":24,
			"type":"VEC2"
		},
		{
			"bufferView":24,
			"componentType":5126,
			"count":24,
			"max":[
				2,
				3.4000000953674316,
				0.05999999865889549
			],
			"min":[
				1.4000000953674316,
				2.5999999046325684,
				-0.05999999865889549
			],
			"type":"VEC3"
		},
		{
			"bufferView":25,
			"componentType":5126,
			"count":24,
			"type":"VEC3"
		},
		{
			"bufferView":26,
			"componentType":5126,
			"count":24,
			"type":"VEC2"
		},
		{
			"bufferView":27,
			"componentType":5126,
			"count":24,
			"max":[
				1.940000057220459,
				3.319999933242798,
				0.05999999865889549
			],
			"min":[
				1.4600000381469727,
				2.680000066757202,
				0.019999999552965164
			],
			"type":"VEC3"
		},
		{
			"bufferView":28,
			"componentType":5126,
			"count":24,
			"type":"VEC3"
		},
		{
			"bufferView":29,
			"componentType":5126,
			"count":24,
			"type":"VEC2"
		},
		{
			"bufferView":30,
			"componentType":5126,
			"count":36,
			"max":[
				1.7303109169006348,
				3.200000047683716,
				0.03500000014901161
			],
			"min":[
				1.6696891784667969,
				0,
				-0.03500000014901161
			],
			"type":"VEC3"
		},
		{
			"bufferView":31,
			"componentType":5126,
			"count":36,
			"type":"VEC3"
		},
		{
			"bufferView":32,
			"componentType":5126,
			"count":36,
			"type":"VEC2"
		},
		{
			"bufferView":33,
			"componentType":5123,
			"count":60,
			"type":"SCALAR"
		}
	],
	"bufferViews":[
		{
			"buffer":0,
			"byteLength":288,
			"byteOffset":0,
			"target":34962
		},
		{
			"buffer":0,
			"byteLength":288,
			"byteOffset":288,
			"target":34962
		},
		{
			"buffer":0,
			"byteLength":192,
			"byteOffset":576,
			"target":34962
		},
		{
			"buffer":0,
			"byteLength":72,
			"byteOffset":768,
			"target":34963
		},
		{
			"buffer":0,
			"byteLength":288,
			"byteOffset":840,
			"target":34962
		},
		{
			"buffer":0,
			"byteLength":288,
			"byteOffset":1128,
			"target":34962
		},
		{
			"buffer":0,
			"byteLength":192,
			"byteOffset":1416,
			"target":34962
		},
		{
			"buffer":0,
			"byteLength":288,
			"byteOffset":1608,
			"target":34962
		},
		{
			"buffer":0,
			"byteLength":288,
			"byteOffset":1896,
			"target":34962
		},
		{
			"buffer":0,
			"byteLength":192,
			"byteOffset":2184,
			"target":34962
		},
		{
			"buffer":0,
			"byteLength":576,
			"byteOffset":2376,
			"target":34962
		},
		{
			"buffer":0,
			"byteLength":576,
			"byteOffset":2952,
			"target":34962
		},
		{
			"buffer":0,
			"byteLength":384,
			"byteOffset":3528,
			"target":34962
		},
		{
			"buffer":0,
			"byteLength":168,
			"byteOffset":3912,
			"target":34963
		},
		{
			"buffer":0,
			"byteLength":576,
			"byteOffset":4080,
			"target":34962
		},
		{
			"buffer":0,
			"byteLength":576,
			"byteOffset":4656,
			"target":34962
		},
		{
			"buffer":0,
			"byteLength":384,
			"byteOffset":5232,
			"target":34962
		},
		{
			"buffer":0,
			"byteLength":1152,
			"byteOffset":5616,
			"target":34962
		},
		{
			"buffer":0,
			"byteLength":1152,
			"byteOffset":6768,
			"target":34962
		},
		{
			"buffer":0,
			"byteLength":768,
			"byteOffset":7920,
			"target":34962
		},
		{
			"buffer":0,
			"byteLength":264,
			"byteOffset":8688,
			"target":34963
		},
		{
			"buffer":0,
			"byteLength":288,
			"byteOffset":8952,
			"target":34962
		},
		{
			"buffer":0,
			"byteLength":288,
			"byteOffset":9240,
			"target":34962
		},
		{
			"buffer":0,
			"byteLength":192,
			"byteOffset":9528,
			"target":34962
		},
		{
			"buffer":0,
			"byteLength":288,
			"byteOffset":9720,
			"target":34962
		},
		{
			"buffer":0,
			"byteLength":288,
			"byteOffset":10008,
			"target":34962
		},
		{
			"buffer":0,
			"byteLength":192,
			"byteOffset":10296,
			"target":34962
		},
		{
			"buffer":0,
			"byteLength":288,
			"byteOffset":10488,
			"target":34962
		},
		{
			"buffer":0,
			"byteLength":288,
			"byteOffset":10776,
			"target":34962
		},
		{
			"buffer":0,
			"byteLength":192,
			"byteOffset":11064,
			"target":34962
		},
		{
			"buffer":0,
			"byteLength":432,
			"byteOffset":11256,
			"target":34962
		},
		{
			"buffer":0,
			"byteLength":432,
			"byteOffset":11688,
			"target":34962
		},
		{
			"buffer":0,
			"byteLength":288,
			"byteOffset":12120,
			"target":34962
		},
		{
			"buffer":0,
			"byteLength":120,
			"byteOffset":12408,
			"target":34963
		}
	],
	"buffers":[
		{
			"byteLength":12528,
			"uri":"hd_busstop.bin"
		}
	]
}
