{
	"asset":{
		"generator":"Khronos glTF Blender I/O v5.2.40",
		"version":"2.0"
	},
	"extensionsUsed":[
		"KHR_materials_emissive_strength"
	],
	"scene":0,
	"scenes":[
		{
			"name":"Scene",
			"nodes":[
				0,
				1,
				2,
				3,
				4,
				5
			]
		}
	],
	"nodes":[
		{
			"mesh":0,
			"name":"arm0",
			"rotation":[
				0.36487728357315063,
				0.5589852333068848,
				-0.29912784695625305,
				0.6818523406982422
			]
		},
		{
			"mesh":1,
			"name":"arm1",
			"rotation":[
				0.5336110591888428,
				0.46629729866981506,
				-0.4920963644981384,
				0.5056354403495789
			]
		},
		{
			"mesh":2,
			"name":"baseRing"
		},
		{
			"mesh":3,
			"name":"bulb"
		},
		{
			"mesh":4,
			"name":"head"
		},
		{
			"mesh":5,
			"name":"pole"
		}
	],
	"materials":[
		{
			"doubleSided":true,
			"name":"M_la0",
			"pbrMetallicRoughness":{
				"baseColorFactor":[
					0.03423020616173744,
					0.05112205073237419,
					0.07382776588201523,
					1
				],
				"metallicFactor":0,
				"roughnessFactor":0.8500000238418579
			}
		},
		{
			"doubleSided":true,
			"name":"M_la1",
			"pbrMetallicRoughness":{
				"baseColorFactor":[
					0.03423020616173744,
					0.05112205073237419,
					0.07382776588201523,
					1
				],
				"metallicFactor":0,
				"roughnessFactor":0.8500000238418579
			}
		},
		{
			"doubleSided":true,
			"name":"M_lb",
			"pbrMetallicRoughness":{
				"baseColorFactor":[
					0.023103555664420128,
					0.037028513848781586,
					0.04943345859646797,
					1
				],
				"metallicFactor":0,
				"roughnessFactor":0.8500000238418579
			}
		},
		{
			"doubleSided":true,
			"emissiveFactor":[
				1,
				0.8199636936187744,
				0.39929330348968506
			],
			"extensions":{
				"KHR_materials_emissive_strength":{
					"emissiveStrength":1.5
				}
			},
			"name":"M_lbu",
			"pbrMetallicRoughness":{
				"baseColorFactor":[
					1,
					0.8199636936187744,
					0.39929330348968506,
					1
				],
				"metallicFactor":0,
				"roughnessFactor":0.8500000238418579
			}
		},
		{
			"doubleSided":true,
			"name":"M_lh",
			"pbrMetallicRoughness":{
				"baseColorFactor":[
					0.023103555664420128,
					0.037028513848781586,
					0.04943345859646797,
					1
				],
				"metallicFactor":0,
				"roughnessFactor":0.8500000238418579
			}
		},
		{
			"doubleSided":true,
			"name":"M_lp",
			"pbrMetallicRoughness":{
				"baseColorFactor":[
					0.03423020616173744,
					0.05112205073237419,
					0.07382776588201523,
					1
				],
				"metallicFactor":0,
				"roughnessFactor":0.8500000238418579
			}
		}
	],
	"meshes":[
		{
			"name":"Cylinder.002",
			"primitives":[
				{
					"attributes":{
						"POSITION":0,
						"NORMAL":1,
						"TEXCOORD_0":2
					},
					"indices":3,
					"material":0
				}
			]
		},
		{
			"name":"Cylinder.003",
			"primitives":[
				{
					"attributes":{
						"POSITION":4,
						"NORMAL":5,
						"TEXCOORD_0":6
					},
					"indices":3,
					"material":1
				}
			]
		},
		{
			"name":"Cylinder.001",
			"primitives":[
				{
					"attributes":{
						"POSITION":7,
						"NORMAL":8,
						"TEXCOORD_0":9
					},
					"indices":10,
					"material":2
				}
			]
		},
		{
			"name":"Cube.001",
			"primitives":[
				{
					"attributes":{
						"POSITION":11,
						"NORMAL":12,
						"TEXCOORD_0":13
					},
					"indices":14,
					"material":3
				}
			]
		},
		{
			"name":"Cube",
			"primitives":[
				{
					"attributes":{
						"POSITION":15,
						"NORMAL":16,
						"TEXCOORD_0":17
					},
					"indices":18,
					"material":4
				}
			]
		},
		{
			"name":"Cylinder",
			"primitives":[
				{
					"attributes":{
						"POSITION":19,
						"NORMAL":20,
						"TEXCOORD_0":21
					},
					"indices":10,
					"material":5
				}
			]
		}
	],
	"accessors":[
		{
			"bufferView":0,
			"componentType":5126,
			"count":36,
			"max":[
				0.16397114098072052,
				4.003537178039551,
				0.07000000029802322
			],
			"min":[
				0.08602885901927948,
				3.6664628982543945,
				-0.020000001415610313
			],
			"type":"VEC3"
		},
		{
			"bufferView":1,
			"componentType":5126,
			"count":36,
			"type":"VEC3"
		},
		{
			"bufferView":2,
			"componentType":5126,
			"count":36,
			"type":"VEC2"
		},
		{
			"bufferView":3,
			"componentType":5123,
			"count":60,
			"type":"SCALAR"
		},
		{
			"bufferView":4,
			"componentType":5126,
			"count":36,
			"max":[
				0.4739711582660675,
				4.114463806152344,
				0.10999999940395355
			],
			"min":[
				0.3960288465023041,
				3.705536127090454,
				0.019999995827674866
			],
			"type":"VEC3"
		},
		{
			"bufferView":5,
			"componentType":5126,
			"count":36,
			"type":"VEC3"
		},
		{
			"bufferView":6,
			"componentType":5126,
			"count":36,
			"type":"VEC2"
		},
		{
			"bufferView":7,
			"componentType":5126,
			"count":48,
			"max":[
				0.12999999523162842,
				0.3199999928474426,
				0.12999999523162842
			],
			"min":[
				-0.12999999523162842,
				0,
				-0.12999999523162842
			],
			"type":"VEC3"
		},
		{
			"bufferView":8,
			"componentType":5126,
			"count":48,
			"type":"VEC3"
		},
		{
			"bufferView":9,
			"componentType":5126,
			"count":48,
			"type":"VEC2"
		},
		{
			"bufferView":10,
			"componentType":5123,
			"count":84,
			"type":"SCALAR"
		},
		{
			"bufferView":11,
			"componentType":5126,
			"count":24,
			"max":[
				0.9299999475479126,
				3.799999952316284,
				0.17000000178813934
			],
			"min":[
				0.6299999952316284,
				3.740000009536743,
				-0.01000000536441803
			],
			"type":"VEC3"
		},
		{
			"bufferView":12,
			"componentType":5126,
			"count":24,
			"type":"VEC3"
		},
		{
			"bufferView":13,
			"componentType":5126,
			"count":24,
			"type":"VEC2"
		},
		{
			"bufferView":14,
			"componentType":5123,
			"count":36,
			"type":"SCALAR"
		},
		{
			"bufferView":15,
			"componentType":5126,
			"count":96,
			"max":[
				1,
				3.9099998474121094,
				0.20999999344348907
			],
			"min":[
				0.559999942779541,
				3.7699999809265137,
				-0.04999999701976776
			],
			"type":"VEC3"
		},
		{
			"bufferView":16,
			"componentType":5126,
			"count":96,
			"type":"VEC3"
		},
		{
			"bufferView":17,
			"componentType":5126,
			"count":96,
			"type":"VEC2"
		},
		{
			"bufferView":18,
			"componentType":5123,
			"count":132,
			"type":"SCALAR"
		},
		{
			"bufferView":19,
			"componentType":5126,
			"count":48,
			"max":[
				0.07000000029802322,
				3.799999952316284,
				0.07000000029802322
			],
			"min":[
				-0.07000000029802322,
				0,
				-0.07000000029802322
			],
			"type":"VEC3"
		},
		{
			"bufferView":20,
			"componentType":5126,
			"count":48,
			"type":"VEC3"
		},
		{
			"bufferView":21,
			"componentType":5126,
			"count":48,
			"type":"VEC2"
		}
	],
	"bufferViews":[
		{
			"buffer":0,
			"byteLength":432,
			"byteOffset":0,
			"target":34962
		},
		{
			"buffer":0,
			"byteLength":432,
			"byteOffset":432,
			"target":34962
		},
		{
			"buffer":0,
			"byteLength":288,
			"byteOffset":864,
			"target":34962
		},
		{
			"buffer":0,
			"byteLength":120,
			"byteOffset":1152,
			"target":34963
		},
		{
			"buffer":0,
			"byteLength":432,
			"byteOffset":1272,
			"target":34962
		},
		{
			"buffer":0,
			"byteLength":432,
			"byteOffset":1704,
			"target":34962
		},
		{
			"buffer":0,
			"byteLength":288,
			"byteOffset":2136,
			"target":34962
		},
		{
			"buffer":0,
			"byteLength":576,
			"byteOffset":2424,
			"target":34962
		},
		{
			"buffer":0,
			"byteLength":576,
			"byteOffset":3000,
			"target":34962
		},
		{
			"buffer":0,
			"byteLength":384,
			"byteOffset":3576,
			"target":34962
		},
		{
			"buffer":0,
			"byteLength":168,
			"byteOffset":3960,
			"target":34963
		},
		{
			"buffer":0,
			"byteLength":288,
			"byteOffset":4128,
			"target":34962
		},
		{
			"buffer":0,
			"byteLength":288,
			"byteOffset":4416,
			"target":34962
		},
		{
			"buffer":0,
			"byteLength":192,
			"byteOffset":4704,
			"target":34962
		},
		{
			"buffer":0,
			"byteLength":72,
			"byteOffset":4896,
			"target":34963
		},
		{
			"buffer":0,
			"byteLength":1152,
			"byteOffset":4968,
			"target":34962
		},
		{
			"buffer":0,
			"byteLength":1152,
			"byteOffset":6120,
			"target":34962
		},
		{
			"buffer":0,
			"byteLength":768,
			"byteOffset":7272,
			"target":34962
		},
		{
			"buffer":0,
			"byteLength":264,
			"byteOffset":8040,
			"target":34963
		},
		{
			"buffer":0,
			"byteLength":576,
			"byteOffset":8304,
			"target":34962
		},
		{
			"buffer":0,
			"byteLength":576,
			"byteOffset":8880,
			"target":34962
		},
		{
			"buffer":0,
			"byteLength":384,
			"byteOffset":9456,
			"target":34962
		}
	],
	"buffers":[
		{
			"byteLength":9840,
			"uri":"hd_streetlamp.bin"
		}
	]
}
