{
	"asset":{
		"generator":"Khronos glTF Blender I/O v5.2.40",
		"version":"2.0"
	},
	"scene":0,
	"scenes":[
		{
			"name":"Scene",
			"nodes":[
				0,
				1,
				2,
				3,
				4,
				5,
				6,
				7,
				8,
				9
			]
		}
	],
	"nodes":[
		{
			"mesh":0,
			"name":"bloom"
		},
		{
			"mesh":1,
			"name":"body"
		},
		{
			"mesh":2,
			"name":"rib0"
		},
		{
			"mesh":3,
			"name":"rib1"
		},
		{
			"mesh":4,
			"name":"rib2"
		},
		{
			"mesh":5,
			"name":"rib3"
		},
		{
			"mesh":6,
			"name":"rib4"
		},
		{
			"mesh":7,
			"name":"rib5"
		},
		{
			"mesh":8,
			"name":"rib6"
		},
		{
			"mesh":9,
			"name":"rib7"
		}
	],
	"materials":[
		{
			"doubleSided":true,
			"name":"M_bb",
			"pbrMetallicRoughness":{
				"baseColorFactor":[
					1,
					0.5924380421638489,
					0.041451890021562576,
					1
				],
				"metallicFactor":0,
				"roughnessFactor":0.8500000238418579
			}
		},
		{
			"doubleSided":true,
			"name":"M_bc",
			"pbrMetallicRoughness":{
				"baseColorFactor":[
					0.07382776588201523,
					0.3488648235797882,
					0.10363409668207169,
					1
				],
				"metallicFactor":0,
				"roughnessFactor":0.8500000238418579
			}
		},
		{
			"doubleSided":true,
			"name":"M_br0",
			"pbrMetallicRoughness":{
				"baseColorFactor":[
					0.041451890021562576,
					0.21204440295696259,
					0.06575387716293335,
					1
				],
				"metallicFactor":0,
				"roughnessFactor":0.8500000238418579
			}
		},
		{
			"doubleSided":true,
			"name":"M_br1",
			"pbrMetallicRoughness":{
				"baseColorFactor":[
					0.041451890021562576,
					0.21204440295696259,
					0.06575387716293335,
					1
				],
				"metallicFactor":0,
				"roughnessFactor":0.8500000238418579
			}
		},
		{
			"doubleSided":true,
			"name":"M_br2",
			"pbrMetallicRoughness":{
				"baseColorFactor":[
					0.041451890021562576,
					0.21204440295696259,
					0.06575387716293335,
					1
				],
				"metallicFactor":0,
				"roughnessFactor":0.8500000238418579
			}
		},
		{
			"doubleSided":true,
			"name":"M_br3",
			"pbrMetallicRoughness":{
				"baseColorFactor":[
					0.041451890021562576,
					0.21204440295696259,
					0.06575387716293335,
					1
				],
				"metallicFactor":0,
				"roughnessFactor":0.8500000238418579
			}
		},
		{
			"doubleSided":true,
			"name":"M_br4",
			"pbrMetallicRoughness":{
				"baseColorFactor":[
					0.041451890021562576,
					0.21204440295696259,
					0.06575387716293335,
					1
				],
				"metallicFactor":0,
				"roughnessFactor":0.8500000238418579
			}
		},
		{
			"doubleSided":true,
			"name":"M_br5",
			"pbrMetallicRoughness":{
				"baseColorFactor":[
					0.041451890021562576,
					0.21204440295696259,
					0.06575387716293335,
					1
				],
				"metallicFactor":0,
				"roughnessFactor":0.8500000238418579
			}
		},
		{
			"doubleSided":true,
			"name":"M_br6",
			"pbrMetallicRoughness":{
				"baseColorFactor":[
					0.041451890021562576,
					0.21204440295696259,
					0.06575387716293335,
					1
				],
				"metallicFactor":0,
				"roughnessFactor":0.8500000238418579
			}
		},
		{
			"doubleSided":true,
			"name":"M_br7",
			"pbrMetallicRoughness":{
				"baseColorFactor":[
					0.041451890021562576,
					0.21204440295696259,
					0.06575387716293335,
					1
				],
				"metallicFactor":0,
				"roughnessFactor":0.8500000238418579
			}
		}
	],
	"meshes":[
		{
			"name":"Icosphere",
			"primitives":[
				{
					"attributes":{
						"POSITION":0,
						"NORMAL":1,
						"TEXCOORD_0":2
					},
					"indices":3,
					"material":0
				}
			]
		},
		{
			"name":"Sphere",
			"primitives":[
				{
					"attributes":{
						"POSITION":4,
						"NORMAL":5,
						"TEXCOORD_0":6
					},
					"indices":7,
					"material":1
				}
			]
		},
		{
			"name":"Cube",
			"primitives":[
				{
					"attributes":{
						"POSITION":8,
						"NORMAL":9,
						"TEXCOORD_0":10
					},
					"indices":11,
					"material":2
				}
			]
		},
		{
			"name":"Cube.001",
			"primitives":[
				{
					"attributes":{
						"POSITION":12,
						"NORMAL":13,
						"TEXCOORD_0":14
					},
					"indices":15,
					"material":3
				}
			]
		},
		{
			"name":"Cube.002",
			"primitives":[
				{
					"attributes":{
						"POSITION":16,
						"NORMAL":17,
						"TEXCOORD_0":18
					},
					"indices":19,
					"material":4
				}
			]
		},
		{
			"name":"Cube.003",
			"primitives":[
				{
					"attributes":{
						"POSITION":20,
						"NORMAL":21,
						"TEXCOORD_0":22
					},
					"indices":23,
					"material":5
				}
			]
		},
		{
			"name":"Cube.004",
			"primitives":[
				{
					"attributes":{
						"POSITION":24,
						"NORMAL":25,
						"TEXCOORD_0":26
					},
					"indices":11,
					"material":6
				}
			]
		},
		{
			"name":"Cube.005",
			"primitives":[
				{
					"attributes":{
						"POSITION":27,
						"NORMAL":28,
						"TEXCOORD_0":29
					},
					"indices":30,
					"material":7
				}
			]
		},
		{
			"name":"Cube.006",
			"primitives":[
				{
					"attributes":{
						"POSITION":31,
						"NORMAL":32,
						"TEXCOORD_0":33
					},
					"indices":19,
					"material":8
				}
			]
		},
		{
			"name":"Cube.007",
			"primitives":[
				{
					"attributes":{
						"POSITION":34,
						"NORMAL":35,
						"TEXCOORD_0":36
					},
					"indices":37,
					"material":9
				}
			]
		}
	],
	"accessors":[
		{
			"bufferView":0,
			"componentType":5126,
			"count":60,
			"max":[
				0.10733099281787872,
				1.0600000619888306,
				0.10207679867744446
			],
			"min":[
				-0.10733099281787872,
				0.9000000357627869,
				-0.10207679867744446
			],
			"type":"VEC3"
		},
		{
			"bufferView":1,
			"componentType":5126,
			"count":60,
			"type":"VEC3"
		},
		{
			"bufferView":2,
			"componentType":5126,
			"count":60,
			"type":"VEC2"
		},
		{
			"bufferView":3,
			"componentType":5123,
			"count":60,
			"type":"SCALAR"
		},
		{
			"bufferView":4,
			"componentType":5126,
			"count":115,
			"max":[
				0.5,
				0.925000011920929,
				0.5
			],
			"min":[
				-0.5,
				0.07499998807907104,
				-0.5
			],
			"type":"VEC3"
		},
		{
			"bufferView":5,
			"componentType":5126,
			"count":115,
			"type":"VEC3"
		},
		{
			"bufferView":6,
			"componentType":5126,
			"count":115,
			"type":"VEC2"
		},
		{
			"bufferView":7,
			"componentType":5123,
			"count":504,
			"type":"SCALAR"
		},
		{
			"bufferView":8,
			"componentType":5126,
			"count":24,
			"max":[
				0.5,
				0.8600000143051147,
				0.019999999552965164
			],
			"min":[
				0.4599999785423279,
				0.13999998569488525,
				-0.019999999552965164
			],
			"type":"VEC3"
		},
		{
			"bufferView":9,
			"componentType":5126,
			"count":24,
			"type":"VEC3"
		},
		{
			"bufferView":10,
			"componentType":5126,
			"count":24,
			"type":"VEC2"
		},
		{
			"bufferView":11,
			"componentType":5123,
			"count":36,
			"type":"SCALAR"
		},
		{
			"bufferView":12,
			"componentType":5126,
			"count":24,
			"max":[
				0.36769554018974304,
				0.8600000143051147,
				-0.3111269772052765
			],
			"min":[
				0.3111269772052765,
				0.13999998569488525,
				-0.36769554018974304
			],
			"type":"VEC3"
		},
		{
			"bufferView":13,
			"componentType":5126,
			"count":24,
			"type":"VEC3"
		},
		{
			"bufferView":14,
			"componentType":5126,
			"count":24,
			"type":"VEC2"
		},
		{
			"bufferView":15,
			"componentType":5123,
			"count":36,
			"type":"SCALAR"
		},
		{
			"bufferView":16,
			"componentType":5126,
			"count":24,
			"max":[
				0.019999999552965164,
				0.8600000143051147,
				-0.4599999785423279
			],
			"min":[
				-0.019999999552965164,
				0.13999998569488525,
				-0.5
			],
			"type":"VEC3"
		},
		{
			"bufferView":17,
			"componentType":5126,
			"count":24,
			"type":"VEC3"
		},
		{
			"bufferView":18,
			"componentType":5126,
			"count":24,
			"type":"VEC2"
		},
		{
			"bufferView":19,
			"componentType":5123,
			"count":36,
			"type":"SCALAR"
		},
		{
			"bufferView":20,
			"componentType":5126,
			"count":24,
			"max":[
				-0.3111269772052765,
				0.8600000143051147,
				-0.3111269772052765
			],
			"min":[
				-0.36769554018974304,
				0.13999998569488525,
				-0.36769554018974304
			],
			"type":"VEC3"
		},
		{
			"bufferView":21,
			"componentType":5126,
			"count":24,
			"type":"VEC3"
		},
		{
			"bufferView":22,
			"componentType":5126,
			"count":24,
			"type":"VEC2"
		},
		{
			"bufferView":23,
			"componentType":5123,
			"count":36,
			"type":"SCALAR"
		},
		{
			"bufferView":24,
			"componentType":5126,
			"count":24,
			"max":[
				-0.4599999785423279,
				0.8600000143051147,
				0.020000001415610313
			],
			"min":[
				-0.5,
				0.13999998569488525,
				-0.020000001415610313
			],
			"type":"VEC3"
		},
		{
			"bufferView":25,
			"componentType":5126,
			"count":24,
			"type":"VEC3"
		},
		{
			"bufferView":26,
			"componentType":5126,
			"count":24,
			"type":"VEC2"
		},
		{
			"bufferView":27,
			"componentType":5126,
			"count":24,
			"max":[
				-0.3111269772052765,
				0.8600000143051147,
				0.36769554018974304
			],
			"min":[
				-0.36769554018974304,
				0.13999998569488525,
				0.3111269772052765
			],
			"type":"VEC3"
		},
		{
			"bufferView":28,
			"componentType":5126,
			"count":24,
			"type":"VEC3"
		},
		{
			"bufferView":29,
			"componentType":5126,
			"count":24,
			"type":"VEC2"
		},
		{
			"bufferView":30,
			"componentType":5123,
			"count":36,
			"type":"SCALAR"
		},
		{
			"bufferView":31,
			"componentType":5126,
			"count":24,
			"max":[
				0.019999999552965164,
				0.8600000143051147,
				0.5
			],
			"min":[
				-0.019999999552965164,
				0.13999998569488525,
				0.4599999785423279
			],
			"type":"VEC3"
		},
		{
			"bufferView":32,
			"componentType":5126,
			"count":24,
			"type":"VEC3"
		},
		{
			"bufferView":33,
			"componentType":5126,
			"count":24,
			"type":"VEC2"
		},
		{
			"bufferView":34,
			"componentType":5126,
			"count":24,
			"max":[
				0.36769554018974304,
				0.8600000143051147,
				0.36769554018974304
			],
			"min":[
				0.3111269772052765,
				0.13999998569488525,
				0.3111269772052765
			],
			"type":"VEC3"
		},
		{
			"bufferView":35,
			"componentType":5126,
			"count":24,
			"type":"VEC3"
		},
		{
			"bufferView":36,
			"componentType":5126,
			"count":24,
			"type":"VEC2"
		},
		{
			"bufferView":37,
			"componentType":5123,
			"count":36,
			"type":"SCALAR"
		}
	],
	"bufferViews":[
		{
			"buffer":0,
			"byteLength":720,
			"byteOffset":0,
			"target":34962
		},
		{
			"buffer":0,
			"byteLength":720,
			"byteOffset":720,
			"target":34962
		},
		{
			"buffer":0,
			"byteLength":480,
			"byteOffset":1440,
			"target":34962
		},
		{
			"buffer":0,
			"byteLength":120,
			"byteOffset":1920,
			"target":34963
		},
		{
			"buffer":0,
			"byteLength":1380,
			"byteOffset":2040,
			"target":34962
		},
		{
			"buffer":0,
			"byteLength":1380,
			"byteOffset":3420,
			"target":34962
		},
		{
			"buffer":0,
			"byteLength":920,
			"byteOffset":4800,
			"target":34962
		},
		{
			"buffer":0,
			"byteLength":1008,
			"byteOffset":5720,
			"target":34963
		},
		{
			"buffer":0,
			"byteLength":288,
			"byteOffset":6728,
			"target":34962
		},
		{
			"buffer":0,
			"byteLength":288,
			"byteOffset":7016,
			"target":34962
		},
		{
			"buffer":0,
			"byteLength":192,
			"byteOffset":7304,
			"target":34962
		},
		{
			"buffer":0,
			"byteLength":72,
			"byteOffset":7496,
			"target":34963
		},
		{
			"buffer":0,
			"byteLength":288,
			"byteOffset":7568,
			"target":34962
		},
		{
			"buffer":0,
			"byteLength":288,
			"byteOffset":7856,
			"target":34962
		},
		{
			"buffer":0,
			"byteLength":192,
			"byteOffset":8144,
			"target":34962
		},
		{
			"buffer":0,
			"byteLength":72,
			"byteOffset":8336,
			"target":34963
		},
		{
			"buffer":0,
			"byteLength":288,
			"byteOffset":8408,
			"target":34962
		},
		{
			"buffer":0,
			"byteLength":288,
			"byteOffset":8696,
			"target":34962
		},
		{
			"buffer":0,
			"byteLength":192,
			"byteOffset":8984,
			"target":34962
		},
		{
			"buffer":0,
			"byteLength":72,
			"byteOffset":9176,
			"target":34963
		},
		{
			"buffer":0,
			"byteLength":288,
			"byteOffset":9248,
			"target":34962
		},
		{
			"buffer":0,
			"byteLength":288,
			"byteOffset":9536,
			"target":34962
		},
		{
			"buffer":0,
			"byteLength":192,
			"byteOffset":9824,
			"target":34962
		},
		{
			"buffer":0,
			"byteLength":72,
			"byteOffset":10016,
			"target":34963
		},
		{
			"buffer":0,
			"byteLength":288,
			"byteOffset":10088,
			"target":34962
		},
		{
			"buffer":0,
			"byteLength":288,
			"byteOffset":10376,
			"target":34962
		},
		{
			"buffer":0,
			"byteLength":192,
			"byteOffset":10664,
			"target":34962
		},
		{
			"buffer":0,
			"byteLength":288,
			"byteOffset":10856,
			"target":34962
		},
		{
			"buffer":0,
			"byteLength":288,
			"byteOffset":11144,
			"target":34962
		},
		{
			"buffer":0,
			"byteLength":192,
			"byteOffset":11432,
			"target":34962
		},
		{
			"buffer":0,
			"byteLength":72,
			"byteOffset":11624,
			"target":34963
		},
		{
			"buffer":0,
			"byteLength":288,
			"byteOffset":11696,
			"target":34962
		},
		{
			"buffer":0,
			"byteLength":288,
			"byteOffset":11984,
			"target":34962
		},
		{
			"buffer":0,
			"byteLength":192,
			"byteOffset":12272,
			"target":34962
		},
		{
			"buffer":0,
			"byteLength":288,
			"byteOffset":12464,
			"target":34962
		},
		{
			"buffer":0,
			"byteLength":288,
			"byteOffset":12752,
			"target":34962
		},
		{
			"buffer":0,
			"byteLength":192,
			"byteOffset":13040,
			"target":34962
		},
		{
			"buffer":0,
			"byteLength":72,
			"byteOffset":13232,
			"target":34963
		}
	],
	"buffers":[
		{
			"byteLength":13304,
			"uri":"hd_barrelcactus.bin"
		}
	]
}
