{
	"asset":{
		"generator":"Khronos glTF Blender I/O v5.2.40",
		"version":"2.0"
	},
	"extensionsUsed":[
		"KHR_materials_specular",
		"KHR_materials_ior",
		"KHR_texture_transform"
	],
	"extensionsRequired":[
		"KHR_texture_transform"
	],
	"scene":0,
	"scenes":[
		{
			"name":"Scene",
			"nodes":[
				0
			]
		}
	],
	"nodes":[
		{
			"mesh":0,
			"name":"island_tree_02_LOD0"
		}
	],
	"materials":[
		{
			"doubleSided":true,
			"name":"island_tree_02",
			"normalTexture":{
				"index":0
			},
			"pbrMetallicRoughness":{
				"baseColorTexture":{
					"index":1
				},
				"metallicFactor":0,
				"metallicRoughnessTexture":{
					"index":2
				}
			}
		},
		{
			"alphaMode":"BLEND",
			"doubleSided":true,
			"name":"island_tree_02_leaves",
			"normalTexture":{
				"index":3
			},
			"pbrMetallicRoughness":{
				"baseColorTexture":{
					"index":4
				},
				"metallicFactor":0,
				"metallicRoughnessTexture":{
					"index":5
				}
			}
		},
		{
			"doubleSided":true,
			"extensions":{
				"KHR_materials_specular":{
					"specularFactor":0.4100000262260437
				},
				"KHR_materials_ior":{
					"ior":1.4500000476837158
				}
			},
			"name":"island_tree_02_branches",
			"normalTexture":{
				"extensions":{
					"KHR_texture_transform":{
						"offset":[
							0,
							-2.4000000953674316
						],
						"scale":[
							15,
							3.4000000953674316
						]
					}
				},
				"index":6,
				"scale":0.5
			},
			"pbrMetallicRoughness":{
				"baseColorTexture":{
					"extensions":{
						"KHR_texture_transform":{
							"offset":[
								0,
								-2.4000000953674316
							],
							"scale":[
								15,
								3.4000000953674316
							]
						}
					},
					"index":7
				},
				"metallicFactor":0,
				"metallicRoughnessTexture":{
					"extensions":{
						"KHR_texture_transform":{
							"offset":[
								0,
								-2.4000000953674316
							],
							"scale":[
								15,
								3.4000000953674316
							]
						}
					},
					"index":8
				}
			}
		}
	],
	"meshes":[
		{
			"name":"mesh.001",
			"primitives":[
				{
					"attributes":{
						"POSITION":0,
						"NORMAL":1,
						"TEXCOORD_0":2
					},
					"indices":3,
					"material":0
				},
				{
					"attributes":{
						"POSITION":4,
						"NORMAL":5,
						"TEXCOORD_0":6
					},
					"indices":7,
					"material":1
				},
				{
					"attributes":{
						"POSITION":8,
						"NORMAL":9,
						"TEXCOORD_0":10
					},
					"indices":11,
					"material":2
				}
			]
		}
	],
	"textures":[
		{
			"sampler":0,
			"source":0
		},
		{
			"sampler":0,
			"source":1
		},
		{
			"sampler":0,
			"source":2
		},
		{
			"sampler":0,
			"source":3
		},
		{
			"sampler":0,
			"source":4
		},
		{
			"sampler":0,
			"source":5
		},
		{
			"sampler":0,
			"source":6
		},
		{
			"sampler":0,
			"source":7
		},
		{
			"sampler":0,
			"source":8
		}
	],
	"images":[
		{
			"mimeType":"image/jpeg",
			"name":"island_tree_02_nor_gl",
			"uri":"textures/island_tree_02_nor_gl_2k.jpg"
		},
		{
			"mimeType":"image/jpeg",
			"name":"island_tree_02_diff",
			"uri":"textures/island_tree_02_diff_2k.jpg"
		},
		{
			"mimeType":"image/jpeg",
			"name":"island_tree_02_rough",
			"uri":"textures/island_tree_02_arm_2k.jpg"
		},
		{
			"mimeType":"image/jpeg",
			"name":"island_tree_02_leaves_nor_gl",
			"uri":"textures/island_tree_02_leaves_nor_gl_2k.jpg"
		},
		{
			"mimeType":"image/png",
			"name":"island_tree_02_leaves_diff-island_tree_02_leaves_alpha",
			"uri":"textures/island_tree_02_leaves_diff_2k.jpg"
		},
		{
			"mimeType":"image/jpeg",
			"name":"island_tree_02_leaves_rough",
			"uri":"textures/island_tree_02_leaves_arm_2k.jpg"
		},
		{
			"mimeType":"image/jpeg",
			"name":"island_tree_02_branches_nor_gl",
			"uri":"textures/island_tree_02_branches_nor_gl_2k.jpg"
		},
		{
			"mimeType":"image/jpeg",
			"name":"island_tree_02_branches_diff",
			"uri":"textures/island_tree_02_branches_diff_2k.jpg"
		},
		{
			"mimeType":"image/jpeg",
			"name":"island_tree_02_branches_rough",
			"uri":"textures/island_tree_02_branches_arm_2k.jpg"
		}
	],
	"accessors":[
		{
			"bufferView":0,
			"componentType":5126,
			"count":946,
			"max":[
				1.2478114366531372,
				2.5992634296417236,
				2.2615914344787598
			],
			"min":[
				-1.1086070537567139,
				-0.01316129695624113,
				-0.4552251994609833
			],
			"type":"VEC3"
		},
		{
			"bufferView":1,
			"componentType":5126,
			"count":946,
			"type":"VEC3"
		},
		{
			"bufferView":2,
			"componentType":5126,
			"count":946,
			"type":"VEC2"
		},
		{
			"bufferView":3,
			"componentType":5123,
			"count":3444,
			"type":"SCALAR"
		},
		{
			"bufferView":4,
			"componentType":5126,
			"count":73751,
			"max":[
				2.008307933807373,
				3.385828733444214,
				2.956875801086426
			],
			"min":[
				-1.8560973405838013,
				1.2525100708007812,
				-1.110792875289917
			],
			"type":"VEC3"
		},
		{
			"bufferView":5,
			"componentType":5126,
			"count":73751,
			"type":"VEC3"
		},
		{
			"bufferView":6,
			"componentType":5126,
			"count":73751,
			"type":"VEC2"
		},
		{
			"bufferView":7,
			"componentType":5125,
			"count":81567,
			"type":"SCALAR"
		},
		{
			"bufferView":8,
			"componentType":5126,
			"count":8809,
			"max":[
				1.941558599472046,
				3.3116939067840576,
				2.856416702270508
			],
			"min":[
				-1.7813775539398193,
				1.272133231163025,
				-0.9871800541877747
			],
			"type":"VEC3"
		},
		{
			"bufferView":9,
			"componentType":5126,
			"count":8809,
			"type":"VEC3"
		},
		{
			"bufferView":10,
			"componentType":5126,
			"count":8809,
			"type":"VEC2"
		},
		{
			"bufferView":11,
			"componentType":5123,
			"count":11487,
			"type":"SCALAR"
		}
	],
	"bufferViews":[
		{
			"buffer":0,
			"byteLength":11352,
			"byteOffset":0,
			"target":34962
		},
		{
			"buffer":0,
			"byteLength":11352,
			"byteOffset":11352,
			"target":34962
		},
		{
			"buffer":0,
			"byteLength":7568,
			"byteOffset":22704,
			"target":34962
		},
		{
			"buffer":0,
			"byteLength":6888,
			"byteOffset":30272,
			"target":34963
		},
		{
			"buffer":0,
			"byteLength":885012,
			"byteOffset":37160,
			"target":34962
		},
		{
			"buffer":0,
			"byteLength":885012,
			"byteOffset":922172,
			"target":34962
		},
		{
			"buffer":0,
			"byteLength":590008,
			"byteOffset":1807184,
			"target":34962
		},
		{
			"buffer":0,
			"byteLength":326268,
			"byteOffset":2397192,
			"target":34963
		},
		{
			"buffer":0,
			"byteLength":105708,
			"byteOffset":2723460,
			"target":34962
		},
		{
			"buffer":0,
			"byteLength":105708,
			"byteOffset":2829168,
			"target":34962
		},
		{
			"buffer":0,
			"byteLength":70472,
			"byteOffset":2934876,
			"target":34962
		},
		{
			"buffer":0,
			"byteLength":22974,
			"byteOffset":3005348,
			"target":34963
		}
	],
	"samplers":[
		{
			"magFilter":9729,
			"minFilter":9987
		}
	],
	"buffers":[
		{
			"byteLength":3028324,
			"uri":"island_tree_02.bin"
		}
	]
}
