{
	"asset":{
		"generator":"Khronos glTF Blender I/O v5.2.40",
		"version":"2.0"
	},
	"scene":0,
	"scenes":[
		{
			"name":"Scene",
			"nodes":[
				0,
				1,
				2,
				3,
				4
			]
		}
	],
	"nodes":[
		{
			"mesh":0,
			"name":"r0"
		},
		{
			"mesh":1,
			"name":"r1"
		},
		{
			"mesh":2,
			"name":"r2"
		},
		{
			"mesh":3,
			"name":"r3"
		},
		{
			"mesh":4,
			"name":"r4"
		}
	],
	"materials":[
		{
			"doubleSided":true,
			"name":"M_rc0",
			"pbrMetallicRoughness":{
				"baseColorFactor":[
					0.4045408368110657,
					0.3488648235797882,
					0.29321613907814026,
					1
				],
				"metallicFactor":0,
				"roughnessFactor":0.8500000238418579
			}
		},
		{
			"doubleSided":true,
			"name":"M_rc1",
			"pbrMetallicRoughness":{
				"baseColorFactor":[
					0.23882798850536346,
					0.20109573006629944,
					0.16364067792892456,
					1
				],
				"metallicFactor":0,
				"roughnessFactor":0.8500000238418579
			}
		},
		{
			"doubleSided":true,
			"name":"M_rc2",
			"pbrMetallicRoughness":{
				"baseColorFactor":[
					0.4045408368110657,
					0.3488648235797882,
					0.29321613907814026,
					1
				],
				"metallicFactor":0,
				"roughnessFactor":0.8500000238418579
			}
		},
		{
			"doubleSided":true,
			"name":"M_rc3",
			"pbrMetallicRoughness":{
				"baseColorFactor":[
					0.23882798850536346,
					0.20109573006629944,
					0.16364067792892456,
					1
				],
				"metallicFactor":0,
				"roughnessFactor":0.8500000238418579
			}
		},
		{
			"doubleSided":true,
			"name":"M_rc4",
			"pbrMetallicRoughness":{
				"baseColorFactor":[
					0.4045408368110657,
					0.3488648235797882,
					0.29321613907814026,
					1
				],
				"metallicFactor":0,
				"roughnessFactor":0.8500000238418579
			}
		}
	],
	"meshes":[
		{
			"name":"Icosphere",
			"primitives":[
				{
					"attributes":{
						"POSITION":0,
						"NORMAL":1,
						"TEXCOORD_0":2
					},
					"indices":3,
					"material":0
				}
			]
		},
		{
			"name":"Icosphere.001",
			"primitives":[
				{
					"attributes":{
						"POSITION":4,
						"NORMAL":5,
						"TEXCOORD_0":6
					},
					"indices":7,
					"material":1
				}
			]
		},
		{
			"name":"Icosphere.002",
			"primitives":[
				{
					"attributes":{
						"POSITION":8,
						"NORMAL":9,
						"TEXCOORD_0":10
					},
					"indices":11,
					"material":2
				}
			]
		},
		{
			"name":"Icosphere.003",
			"primitives":[
				{
					"attributes":{
						"POSITION":12,
						"NORMAL":13,
						"TEXCOORD_0":14
					},
					"indices":15,
					"material":3
				}
			]
		},
		{
			"name":"Icosphere.004",
			"primitives":[
				{
					"attributes":{
						"POSITION":16,
						"NORMAL":17,
						"TEXCOORD_0":18
					},
					"indices":19,
					"material":4
				}
			]
		}
	],
	"accessors":[
		{
			"bufferView":0,
			"componentType":5126,
			"count":60,
			"max":[
				0.12281692028045654,
				0.08540671318769455,
				0.06901100277900696
			],
			"min":[
				-0.7572099566459656,
				-0.07014259696006775,
				-0.069828100502491
			],
			"type":"VEC3"
		},
		{
			"bufferView":1,
			"componentType":5126,
			"count":60,
			"type":"VEC3"
		},
		{
			"bufferView":2,
			"componentType":5126,
			"count":60,
			"type":"VEC2"
		},
		{
			"bufferView":3,
			"componentType":5123,
			"count":60,
			"type":"SCALAR"
		},
		{
			"bufferView":4,
			"componentType":5126,
			"count":60,
			"max":[
				-0.03234188258647919,
				0.04823306202888489,
				0.03187058866024017
			],
			"min":[
				-0.5596210956573486,
				-0.047603633254766464,
				-0.04752675071358681
			],
			"type":"VEC3"
		},
		{
			"bufferView":5,
			"componentType":5126,
			"count":60,
			"type":"VEC3"
		},
		{
			"bufferView":6,
			"componentType":5126,
			"count":60,
			"type":"VEC2"
		},
		{
			"bufferView":7,
			"componentType":5123,
			"count":60,
			"type":"SCALAR"
		},
		{
			"bufferView":8,
			"componentType":5126,
			"count":60,
			"max":[
				0.17476671934127808,
				0.03408476337790489,
				0.030498651787638664
			],
			"min":[
				-0.30897313356399536,
				-0.05029845982789993,
				-0.04094074293971062
			],
			"type":"VEC3"
		},
		{
			"bufferView":9,
			"componentType":5126,
			"count":60,
			"type":"VEC3"
		},
		{
			"bufferView":10,
			"componentType":5126,
			"count":60,
			"type":"VEC2"
		},
		{
			"bufferView":11,
			"componentType":5123,
			"count":60,
			"type":"SCALAR"
		},
		{
			"bufferView":12,
			"componentType":5126,
			"count":60,
			"max":[
				0.09057152271270752,
				0.02539086528122425,
				0.02648324705660343
			],
			"min":[
				-0.31546226143836975,
				-0.028500709682703018,
				-0.03163748234510422
			],
			"type":"VEC3"
		},
		{
			"bufferView":13,
			"componentType":5126,
			"count":60,
			"type":"VEC3"
		},
		{
			"bufferView":14,
			"componentType":5126,
			"count":60,
			"type":"VEC2"
		},
		{
			"bufferView":15,
			"componentType":5123,
			"count":60,
			"type":"SCALAR"
		},
		{
			"bufferView":16,
			"componentType":5126,
			"count":60,
			"max":[
				0.02036610245704651,
				0.03287317976355553,
				0.028781570494174957
			],
			"min":[
				-0.34163564443588257,
				-0.022672854363918304,
				-0.02201986312866211
			],
			"type":"VEC3"
		},
		{
			"bufferView":17,
			"componentType":5126,
			"count":60,
			"type":"VEC3"
		},
		{
			"bufferView":18,
			"componentType":5126,
			"count":60,
			"type":"VEC2"
		},
		{
			"bufferView":19,
			"componentType":5123,
			"count":60,
			"type":"SCALAR"
		}
	],
	"bufferViews":[
		{
			"buffer":0,
			"byteLength":720,
			"byteOffset":0,
			"target":34962
		},
		{
			"buffer":0,
			"byteLength":720,
			"byteOffset":720,
			"target":34962
		},
		{
			"buffer":0,
			"byteLength":480,
			"byteOffset":1440,
			"target":34962
		},
		{
			"buffer":0,
			"byteLength":120,
			"byteOffset":1920,
			"target":34963
		},
		{
			"buffer":0,
			"byteLength":720,
			"byteOffset":2040,
			"target":34962
		},
		{
			"buffer":0,
			"byteLength":720,
			"byteOffset":2760,
			"target":34962
		},
		{
			"buffer":0,
			"byteLength":480,
			"byteOffset":3480,
			"target":34962
		},
		{
			"buffer":0,
			"byteLength":120,
			"byteOffset":3960,
			"target":34963
		},
		{
			"buffer":0,
			"byteLength":720,
			"byteOffset":4080,
			"target":34962
		},
		{
			"buffer":0,
			"byteLength":720,
			"byteOffset":4800,
			"target":34962
		},
		{
			"buffer":0,
			"byteLength":480,
			"byteOffset":5520,
			"target":34962
		},
		{
			"buffer":0,
			"byteLength":120,
			"byteOffset":6000,
			"target":34963
		},
		{
			"buffer":0,
			"byteLength":720,
			"byteOffset":6120,
			"target":34962
		},
		{
			"buffer":0,
			"byteLength":720,
			"byteOffset":6840,
			"target":34962
		},
		{
			"buffer":0,
			"byteLength":480,
			"byteOffset":7560,
			"target":34962
		},
		{
			"buffer":0,
			"byteLength":120,
			"byteOffset":8040,
			"target":34963
		},
		{
			"buffer":0,
			"byteLength":720,
			"byteOffset":8160,
			"target":34962
		},
		{
			"buffer":0,
			"byteLength":720,
			"byteOffset":8880,
			"target":34962
		},
		{
			"buffer":0,
			"byteLength":480,
			"byteOffset":9600,
			"target":34962
		},
		{
			"buffer":0,
			"byteLength":120,
			"byteOffset":10080,
			"target":34963
		}
	],
	"buffers":[
		{
			"byteLength":10200,
			"uri":"namaqualand_rocks_01.bin"
		}
	]
}
