{
	"asset":{
		"generator":"Khronos glTF Blender I/O v5.2.40",
		"version":"2.0"
	},
	"scene":0,
	"scenes":[
		{
			"name":"Scene",
			"nodes":[
				0,
				1,
				2,
				3,
				4,
				5,
				6,
				7
			]
		}
	],
	"nodes":[
		{
			"mesh":0,
			"name":"sarm0"
		},
		{
			"mesh":1,
			"name":"sarm1"
		},
		{
			"mesh":2,
			"name":"sarm2"
		},
		{
			"mesh":3,
			"name":"sarm3"
		},
		{
			"mesh":4,
			"name":"sarm4"
		},
		{
			"mesh":5,
			"name":"shell0"
		},
		{
			"mesh":6,
			"name":"shell1"
		},
		{
			"mesh":7,
			"name":"star"
		}
	],
	"materials":[
		{
			"doubleSided":true,
			"name":"M_sa0",
			"pbrMetallicRoughness":{
				"baseColorFactor":[
					0.8751375675201416,
					0.2590273320674896,
					0.06772459298372269,
					1
				],
				"metallicFactor":0,
				"roughnessFactor":0.8500000238418579
			}
		},
		{
			"doubleSided":true,
			"name":"M_sa1",
			"pbrMetallicRoughness":{
				"baseColorFactor":[
					0.8751375675201416,
					0.2590273320674896,
					0.06772459298372269,
					1
				],
				"metallicFactor":0,
				"roughnessFactor":0.8500000238418579
			}
		},
		{
			"doubleSided":true,
			"name":"M_sa2",
			"pbrMetallicRoughness":{
				"baseColorFactor":[
					0.8751375675201416,
					0.2590273320674896,
					0.06772459298372269,
					1
				],
				"metallicFactor":0,
				"roughnessFactor":0.8500000238418579
			}
		},
		{
			"doubleSided":true,
			"name":"M_sa3",
			"pbrMetallicRoughness":{
				"baseColorFactor":[
					0.8751375675201416,
					0.2590273320674896,
					0.06772459298372269,
					1
				],
				"metallicFactor":0,
				"roughnessFactor":0.8500000238418579
			}
		},
		{
			"doubleSided":true,
			"name":"M_sa4",
			"pbrMetallicRoughness":{
				"baseColorFactor":[
					0.8751375675201416,
					0.2590273320674896,
					0.06772459298372269,
					1
				],
				"metallicFactor":0,
				"roughnessFactor":0.8500000238418579
			}
		},
		{
			"doubleSided":true,
			"name":"M_sh0",
			"pbrMetallicRoughness":{
				"baseColorFactor":[
					0.9157501459121704,
					0.7518950700759888,
					0.5859729647636414,
					1
				],
				"metallicFactor":0,
				"roughnessFactor":0.8500000238418579
			}
		},
		{
			"doubleSided":true,
			"name":"M_sh1",
			"pbrMetallicRoughness":{
				"baseColorFactor":[
					0.9157501459121704,
					0.7518950700759888,
					0.5859729647636414,
					1
				],
				"metallicFactor":0,
				"roughnessFactor":0.8500000238418579
			}
		},
		{
			"doubleSided":true,
			"name":"M_st",
			"pbrMetallicRoughness":{
				"baseColorFactor":[
					0.8751375675201416,
					0.2590273320674896,
					0.06772459298372269,
					1
				],
				"metallicFactor":0,
				"roughnessFactor":0.8500000238418579
			}
		}
	],
	"meshes":[
		{
			"name":"Cone.002",
			"primitives":[
				{
					"attributes":{
						"POSITION":0,
						"NORMAL":1,
						"TEXCOORD_0":2
					},
					"indices":3,
					"material":0
				}
			]
		},
		{
			"name":"Cone.003",
			"primitives":[
				{
					"attributes":{
						"POSITION":4,
						"NORMAL":5,
						"TEXCOORD_0":6
					},
					"indices":7,
					"material":1
				}
			]
		},
		{
			"name":"Cone.004",
			"primitives":[
				{
					"attributes":{
						"POSITION":8,
						"NORMAL":9,
						"TEXCOORD_0":10
					},
					"indices":11,
					"material":2
				}
			]
		},
		{
			"name":"Cone.005",
			"primitives":[
				{
					"attributes":{
						"POSITION":12,
						"NORMAL":13,
						"TEXCOORD_0":14
					},
					"indices":15,
					"material":3
				}
			]
		},
		{
			"name":"Cone.006",
			"primitives":[
				{
					"attributes":{
						"POSITION":16,
						"NORMAL":17,
						"TEXCOORD_0":18
					},
					"indices":19,
					"material":4
				}
			]
		},
		{
			"name":"Cone",
			"primitives":[
				{
					"attributes":{
						"POSITION":20,
						"NORMAL":21,
						"TEXCOORD_0":22
					},
					"indices":23,
					"material":5
				}
			]
		},
		{
			"name":"Cone.001",
			"primitives":[
				{
					"attributes":{
						"POSITION":24,
						"NORMAL":25,
						"TEXCOORD_0":26
					},
					"indices":27,
					"material":6
				}
			]
		},
		{
			"name":"Icosphere",
			"primitives":[
				{
					"attributes":{
						"POSITION":28,
						"NORMAL":29,
						"TEXCOORD_0":30
					},
					"indices":31,
					"material":7
				}
			]
		}
	],
	"accessors":[
		{
			"bufferView":0,
			"componentType":5126,
			"count":24,
			"max":[
				0.4050000011920929,
				0.10000000894069672,
				-0.15000000596046448
			],
			"min":[
				0.29499998688697815,
				3.725290298461914e-09,
				-0.25
			],
			"type":"VEC3"
		},
		{
			"bufferView":1,
			"componentType":5126,
			"count":24,
			"type":"VEC3"
		},
		{
			"bufferView":2,
			"componentType":5126,
			"count":24,
			"type":"VEC2"
		},
		{
			"bufferView":3,
			"componentType":5123,
			"count":36,
			"type":"SCALAR"
		},
		{
			"bufferView":4,
			"componentType":5126,
			"count":24,
			"max":[
				0.32709693908691406,
				0.09035742282867432,
				-0.23965367674827576
			],
			"min":[
				0.23864823579788208,
				0.0021699778735637665,
				-0.35378342866897583
			],
			"type":"VEC3"
		},
		{
			"bufferView":5,
			"componentType":5126,
			"count":24,
			"type":"VEC3"
		},
		{
			"bufferView":6,
			"componentType":5126,
			"count":24,
			"type":"VEC2"
		},
		{
			"bufferView":7,
			"componentType":5123,
			"count":36,
			"type":"SCALAR"
		},
		{
			"bufferView":8,
			"componentType":5126,
			"count":24,
			"max":[
				0.20688827335834503,
				0.08796288073062897,
				-0.2100854218006134
			],
			"min":[
				0.09930562973022461,
				-0.007570907473564148,
				-0.33280593156814575
			],
			"type":"VEC3"
		},
		{
			"bufferView":9,
			"componentType":5126,
			"count":24,
			"type":"VEC3"
		},
		{
			"bufferView":10,
			"componentType":5126,
			"count":24,
			"type":"VEC2"
		},
		{
			"bufferView":11,
			"componentType":5123,
			"count":36,
			"type":"SCALAR"
		},
		{
			"bufferView":12,
			"componentType":5126,
			"count":24,
			"max":[
				0.20688827335834503,
				0.08796288073062897,
				-0.06719404458999634
			],
			"min":[
				0.09930562973022461,
				-0.007570907473564148,
				-0.18991456925868988
			],
			"type":"VEC3"
		},
		{
			"bufferView":13,
			"componentType":5126,
			"count":24,
			"type":"VEC3"
		},
		{
			"bufferView":14,
			"componentType":5126,
			"count":24,
			"type":"VEC2"
		},
		{
			"bufferView":15,
			"componentType":5123,
			"count":36,
			"type":"SCALAR"
		},
		{
			"bufferView":16,
			"componentType":5126,
			"count":24,
			"max":[
				0.32709693908691406,
				0.09035742282867432,
				-0.04621656984090805
			],
			"min":[
				0.23864823579788208,
				0.0021699778735637665,
				-0.16034632921218872
			],
			"type":"VEC3"
		},
		{
			"bufferView":17,
			"componentType":5126,
			"count":24,
			"type":"VEC3"
		},
		{
			"bufferView":18,
			"componentType":5126,
			"count":24,
			"type":"VEC2"
		},
		{
			"bufferView":19,
			"componentType":5123,
			"count":36,
			"type":"SCALAR"
		},
		{
			"bufferView":20,
			"componentType":5126,
			"count":42,
			"max":[
				-0.18300867080688477,
				0.1691790372133255,
				-0.008216284215450287
			],
			"min":[
				-0.41699135303497314,
				-0.05416595935821533,
				-0.21253229677677155
			],
			"type":"VEC3"
		},
		{
			"bufferView":21,
			"componentType":5126,
			"count":42,
			"type":"VEC3"
		},
		{
			"bufferView":22,
			"componentType":5126,
			"count":42,
			"type":"VEC2"
		},
		{
			"bufferView":23,
			"componentType":5123,
			"count":72,
			"type":"SCALAR"
		},
		{
			"bufferView":24,
			"componentType":5126,
			"count":42,
			"max":[
				0.2400384098291397,
				0.1691790223121643,
				0.27907904982566833
			],
			"min":[
				0.019686847925186157,
				-0.05416593700647354,
				0.060998037457466125
			],
			"type":"VEC3"
		},
		{
			"bufferView":25,
			"componentType":5126,
			"count":42,
			"type":"VEC3"
		},
		{
			"bufferView":26,
			"componentType":5126,
			"count":42,
			"type":"VEC2"
		},
		{
			"bufferView":27,
			"componentType":5123,
			"count":72,
			"type":"SCALAR"
		},
		{
			"bufferView":28,
			"componentType":5126,
			"count":22,
			"max":[
				0.358232319355011,
				0.09675686806440353,
				-0.12254928052425385
			],
			"min":[
				0.17990034818649292,
				-0.018331874161958694,
				-0.29649093747138977
			],
			"type":"VEC3"
		},
		{
			"bufferView":29,
			"componentType":5126,
			"count":22,
			"type":"VEC3"
		},
		{
			"bufferView":30,
			"componentType":5126,
			"count":22,
			"type":"VEC2"
		},
		{
			"bufferView":31,
			"componentType":5123,
			"count":60,
			"type":"SCALAR"
		}
	],
	"bufferViews":[
		{
			"buffer":0,
			"byteLength":288,
			"byteOffset":0,
			"target":34962
		},
		{
			"buffer":0,
			"byteLength":288,
			"byteOffset":288,
			"target":34962
		},
		{
			"buffer":0,
			"byteLength":192,
			"byteOffset":576,
			"target":34962
		},
		{
			"buffer":0,
			"byteLength":72,
			"byteOffset":768,
			"target":34963
		},
		{
			"buffer":0,
			"byteLength":288,
			"byteOffset":840,
			"target":34962
		},
		{
			"buffer":0,
			"byteLength":288,
			"byteOffset":1128,
			"target":34962
		},
		{
			"buffer":0,
			"byteLength":192,
			"byteOffset":1416,
			"target":34962
		},
		{
			"buffer":0,
			"byteLength":72,
			"byteOffset":1608,
			"target":34963
		},
		{
			"buffer":0,
			"byteLength":288,
			"byteOffset":1680,
			"target":34962
		},
		{
			"buffer":0,
			"byteLength":288,
			"byteOffset":1968,
			"target":34962
		},
		{
			"buffer":0,
			"byteLength":192,
			"byteOffset":2256,
			"target":34962
		},
		{
			"buffer":0,
			"byteLength":72,
			"byteOffset":2448,
			"target":34963
		},
		{
			"buffer":0,
			"byteLength":288,
			"byteOffset":2520,
			"target":34962
		},
		{
			"buffer":0,
			"byteLength":288,
			"byteOffset":2808,
			"target":34962
		},
		{
			"buffer":0,
			"byteLength":192,
			"byteOffset":3096,
			"target":34962
		},
		{
			"buffer":0,
			"byteLength":72,
			"byteOffset":3288,
			"target":34963
		},
		{
			"buffer":0,
			"byteLength":288,
			"byteOffset":3360,
			"target":34962
		},
		{
			"buffer":0,
			"byteLength":288,
			"byteOffset":3648,
			"target":34962
		},
		{
			"buffer":0,
			"byteLength":192,
			"byteOffset":3936,
			"target":34962
		},
		{
			"buffer":0,
			"byteLength":72,
			"byteOffset":4128,
			"target":34963
		},
		{
			"buffer":0,
			"byteLength":504,
			"byteOffset":4200,
			"target":34962
		},
		{
			"buffer":0,
			"byteLength":504,
			"byteOffset":4704,
			"target":34962
		},
		{
			"buffer":0,
			"byteLength":336,
			"byteOffset":5208,
			"target":34962
		},
		{
			"buffer":0,
			"byteLength":144,
			"byteOffset":5544,
			"target":34963
		},
		{
			"buffer":0,
			"byteLength":504,
			"byteOffset":5688,
			"target":34962
		},
		{
			"buffer":0,
			"byteLength":504,
			"byteOffset":6192,
			"target":34962
		},
		{
			"buffer":0,
			"byteLength":336,
			"byteOffset":6696,
			"target":34962
		},
		{
			"buffer":0,
			"byteLength":144,
			"byteOffset":7032,
			"target":34963
		},
		{
			"buffer":0,
			"byteLength":264,
			"byteOffset":7176,
			"target":34962
		},
		{
			"buffer":0,
			"byteLength":264,
			"byteOffset":7440,
			"target":34962
		},
		{
			"buffer":0,
			"byteLength":176,
			"byteOffset":7704,
			"target":34962
		},
		{
			"buffer":0,
			"byteLength":120,
			"byteOffset":7880,
			"target":34963
		}
	],
	"buffers":[
		{
			"byteLength":8000,
			"uri":"hd_shells.bin"
		}
	]
}
