{
	"asset":{
		"generator":"Khronos glTF Blender I/O v5.2.40",
		"version":"2.0"
	},
	"scene":0,
	"scenes":[
		{
			"name":"Scene",
			"nodes":[
				0,
				1,
				2,
				3,
				4,
				5,
				6,
				7,
				8,
				9,
				10,
				11
			]
		}
	],
	"nodes":[
		{
			"mesh":0,
			"name":"lip0"
		},
		{
			"mesh":1,
			"name":"lip1"
		},
		{
			"mesh":2,
			"name":"lip2"
		},
		{
			"mesh":3,
			"name":"lip3"
		},
		{
			"mesh":4,
			"name":"lip4"
		},
		{
			"mesh":5,
			"name":"tier0"
		},
		{
			"mesh":6,
			"name":"tier1"
		},
		{
			"mesh":7,
			"name":"tier2"
		},
		{
			"mesh":8,
			"name":"tier3"
		},
		{
			"mesh":9,
			"name":"tier4"
		},
		{
			"mesh":10,
			"name":"tip"
		},
		{
			"mesh":11,
			"name":"trunk"
		}
	],
	"materials":[
		{
			"doubleSided":true,
			"name":"M_tl0",
			"pbrMetallicRoughness":{
				"baseColorFactor":[
					0.023103555664420128,
					0.14799802005290985,
					0.030256519094109535,
					1
				],
				"metallicFactor":0,
				"roughnessFactor":0.8500000238418579
			}
		},
		{
			"doubleSided":true,
			"name":"M_tl1",
			"pbrMetallicRoughness":{
				"baseColorFactor":[
					0.023103555664420128,
					0.14799802005290985,
					0.030256519094109535,
					1
				],
				"metallicFactor":0,
				"roughnessFactor":0.8500000238418579
			}
		},
		{
			"doubleSided":true,
			"name":"M_tl2",
			"pbrMetallicRoughness":{
				"baseColorFactor":[
					0.023103555664420128,
					0.14799802005290985,
					0.030256519094109535,
					1
				],
				"metallicFactor":0,
				"roughnessFactor":0.8500000238418579
			}
		},
		{
			"doubleSided":true,
			"name":"M_tl3",
			"pbrMetallicRoughness":{
				"baseColorFactor":[
					0.023103555664420128,
					0.14799802005290985,
					0.030256519094109535,
					1
				],
				"metallicFactor":0,
				"roughnessFactor":0.8500000238418579
			}
		},
		{
			"doubleSided":true,
			"name":"M_tl4",
			"pbrMetallicRoughness":{
				"baseColorFactor":[
					0.023103555664420128,
					0.14799802005290985,
					0.030256519094109535,
					1
				],
				"metallicFactor":0,
				"roughnessFactor":0.8500000238418579
			}
		},
		{
			"doubleSided":true,
			"name":"M_tg0",
			"pbrMetallicRoughness":{
				"baseColorFactor":[
					0.09387587010860443,
					0.48776519298553467,
					0.05637409910559654,
					1
				],
				"metallicFactor":0,
				"roughnessFactor":0.8500000238418579
			}
		},
		{
			"doubleSided":true,
			"name":"M_tg1",
			"pbrMetallicRoughness":{
				"baseColorFactor":[
					0.023103555664420128,
					0.14799802005290985,
					0.030256519094109535,
					1
				],
				"metallicFactor":0,
				"roughnessFactor":0.8500000238418579
			}
		},
		{
			"doubleSided":true,
			"name":"M_tg2",
			"pbrMetallicRoughness":{
				"baseColorFactor":[
					0.09387587010860443,
					0.48776519298553467,
					0.05637409910559654,
					1
				],
				"metallicFactor":0,
				"roughnessFactor":0.8500000238418579
			}
		},
		{
			"doubleSided":true,
			"name":"M_tg3",
			"pbrMetallicRoughness":{
				"baseColorFactor":[
					0.023103555664420128,
					0.14799802005290985,
					0.030256519094109535,
					1
				],
				"metallicFactor":0,
				"roughnessFactor":0.8500000238418579
			}
		},
		{
			"doubleSided":true,
			"name":"M_tg4",
			"pbrMetallicRoughness":{
				"baseColorFactor":[
					0.09387587010860443,
					0.48776519298553467,
					0.05637409910559654,
					1
				],
				"metallicFactor":0,
				"roughnessFactor":0.8500000238418579
			}
		},
		{
			"doubleSided":true,
			"name":"M_tip",
			"pbrMetallicRoughness":{
				"baseColorFactor":[
					0.09387587010860443,
					0.48776519298553467,
					0.05637409910559654,
					1
				],
				"metallicFactor":0,
				"roughnessFactor":0.8500000238418579
			}
		},
		{
			"doubleSided":true,
			"name":"M_pt",
			"pbrMetallicRoughness":{
				"baseColorFactor":[
					0.11129941791296005,
					0.041451890021562576,
					0.011881334707140923,
					1
				],
				"metallicFactor":0,
				"roughnessFactor":0.8500000238418579
			}
		}
	],
	"meshes":[
		{
			"name":"Cone.002",
			"primitives":[
				{
					"attributes":{
						"POSITION":0,
						"NORMAL":1,
						"TEXCOORD_0":2
					},
					"indices":3,
					"material":0
				}
			]
		},
		{
			"name":"Cone.004",
			"primitives":[
				{
					"attributes":{
						"POSITION":4,
						"NORMAL":5,
						"TEXCOORD_0":6
					},
					"indices":3,
					"material":1
				}
			]
		},
		{
			"name":"Cone.006",
			"primitives":[
				{
					"attributes":{
						"POSITION":7,
						"NORMAL":8,
						"TEXCOORD_0":9
					},
					"indices":3,
					"material":2
				}
			]
		},
		{
			"name":"Cone.008",
			"primitives":[
				{
					"attributes":{
						"POSITION":10,
						"NORMAL":11,
						"TEXCOORD_0":12
					},
					"indices":3,
					"material":3
				}
			]
		},
		{
			"name":"Cone.010",
			"primitives":[
				{
					"attributes":{
						"POSITION":13,
						"NORMAL":14,
						"TEXCOORD_0":15
					},
					"indices":3,
					"material":4
				}
			]
		},
		{
			"name":"Cone.001",
			"primitives":[
				{
					"attributes":{
						"POSITION":16,
						"NORMAL":17,
						"TEXCOORD_0":18
					},
					"indices":19,
					"material":5
				}
			]
		},
		{
			"name":"Cone.003",
			"primitives":[
				{
					"attributes":{
						"POSITION":20,
						"NORMAL":21,
						"TEXCOORD_0":22
					},
					"indices":23,
					"material":6
				}
			]
		},
		{
			"name":"Cone.005",
			"primitives":[
				{
					"attributes":{
						"POSITION":24,
						"NORMAL":25,
						"TEXCOORD_0":26
					},
					"indices":27,
					"material":7
				}
			]
		},
		{
			"name":"Cone.007",
			"primitives":[
				{
					"attributes":{
						"POSITION":28,
						"NORMAL":29,
						"TEXCOORD_0":30
					},
					"indices":31,
					"material":8
				}
			]
		},
		{
			"name":"Cone.009",
			"primitives":[
				{
					"attributes":{
						"POSITION":32,
						"NORMAL":33,
						"TEXCOORD_0":34
					},
					"indices":23,
					"material":9
				}
			]
		},
		{
			"name":"Cone.011",
			"primitives":[
				{
					"attributes":{
						"POSITION":35,
						"NORMAL":36,
						"TEXCOORD_0":37
					},
					"indices":38,
					"material":10
				}
			]
		},
		{
			"name":"Cone",
			"primitives":[
				{
					"attributes":{
						"POSITION":39,
						"NORMAL":40,
						"TEXCOORD_0":41
					},
					"indices":42,
					"material":11
				}
			]
		}
	],
	"accessors":[
		{
			"bufferView":0,
			"componentType":5126,
			"count":54,
			"max":[
				0.9217800498008728,
				1.5859999656677246,
				0.8795523047447205
			],
			"min":[
				-0.9217800498008728,
				1.1324000358581543,
				-0.9359999895095825
			],
			"type":"VEC3"
		},
		{
			"bufferView":1,
			"componentType":5126,
			"count":54,
			"type":"VEC3"
		},
		{
			"bufferView":2,
			"componentType":5126,
			"count":54,
			"type":"VEC2"
		},
		{
			"bufferView":3,
			"componentType":5123,
			"count":96,
			"type":"SCALAR"
		},
		{
			"bufferView":4,
			"componentType":5126,
			"count":54,
			"max":[
				0.7890437245368958,
				2.2555999755859375,
				0.752896785736084
			],
			"min":[
				-0.7890437245368958,
				1.8020000457763672,
				-0.8012160062789917
			],
			"type":"VEC3"
		},
		{
			"bufferView":5,
			"componentType":5126,
			"count":54,
			"type":"VEC3"
		},
		{
			"bufferView":6,
			"componentType":5126,
			"count":54,
			"type":"VEC2"
		},
		{
			"bufferView":7,
			"componentType":5126,
			"count":54,
			"max":[
				0.6563073992729187,
				2.9251999855041504,
				0.6262412667274475
			],
			"min":[
				-0.6563073992729187,
				2.47160005569458,
				-0.6664320230484009
			],
			"type":"VEC3"
		},
		{
			"bufferView":8,
			"componentType":5126,
			"count":54,
			"type":"VEC3"
		},
		{
			"bufferView":9,
			"componentType":5126,
			"count":54,
			"type":"VEC2"
		},
		{
			"bufferView":10,
			"componentType":5126,
			"count":54,
			"max":[
				0.5235710144042969,
				3.5947999954223633,
				0.49958568811416626
			],
			"min":[
				-0.5235710144042969,
				3.141200065612793,
				-0.5316479802131653
			],
			"type":"VEC3"
		},
		{
			"bufferView":11,
			"componentType":5126,
			"count":54,
			"type":"VEC3"
		},
		{
			"bufferView":12,
			"componentType":5126,
			"count":54,
			"type":"VEC2"
		},
		{
			"bufferView":13,
			"componentType":5126,
			"count":54,
			"max":[
				0.3908347189426422,
				4.264400005340576,
				0.3729301691055298
			],
			"min":[
				-0.3908347189426422,
				3.810800075531006,
				-0.39686399698257446
			],
			"type":"VEC3"
		},
		{
			"bufferView":14,
			"componentType":5126,
			"count":54,
			"type":"VEC3"
		},
		{
			"bufferView":15,
			"componentType":5126,
			"count":54,
			"type":"VEC2"
		},
		{
			"bufferView":16,
			"componentType":5126,
			"count":54,
			"max":[
				0.8732371926307678,
				2.748967170715332,
				0.8696812391281128
			],
			"min":[
				-0.8642707467079163,
				1.0856294631958008,
				-0.9154772162437439
			],
			"type":"VEC3"
		},
		{
			"bufferView":17,
			"componentType":5126,
			"count":54,
			"type":"VEC3"
		},
		{
			"bufferView":18,
			"componentType":5126,
			"count":54,
			"type":"VEC2"
		},
		{
			"bufferView":19,
			"componentType":5123,
			"count":96,
			"type":"SCALAR"
		},
		{
			"bufferView":20,
			"componentType":5126,
			"count":54,
			"max":[
				0.7744326591491699,
				3.416316270828247,
				0.7400872111320496
			],
			"min":[
				-0.7814424633979797,
				1.7411268949508667,
				-0.7912459969520569
			],
			"type":"VEC3"
		},
		{
			"bufferView":21,
			"componentType":5126,
			"count":54,
			"type":"VEC3"
		},
		{
			"bufferView":22,
			"componentType":5126,
			"count":54,
			"type":"VEC2"
		},
		{
			"bufferView":23,
			"componentType":5123,
			"count":96,
			"type":"SCALAR"
		},
		{
			"bufferView":24,
			"componentType":5126,
			"count":54,
			"max":[
				0.6269049644470215,
				4.079091548919678,
				0.6239531636238098
			],
			"min":[
				-0.6398375630378723,
				2.41135573387146,
				-0.6676696538925171
			],
			"type":"VEC3"
		},
		{
			"bufferView":25,
			"componentType":5126,
			"count":54,
			"type":"VEC3"
		},
		{
			"bufferView":26,
			"componentType":5126,
			"count":54,
			"type":"VEC2"
		},
		{
			"bufferView":27,
			"componentType":5123,
			"count":96,
			"type":"SCALAR"
		},
		{
			"bufferView":28,
			"componentType":5126,
			"count":54,
			"max":[
				0.5236213803291321,
				4.7582597732543945,
				0.508510172367096
			],
			"min":[
				-0.4958347976207733,
				3.086958408355713,
				-0.5138537883758545
			],
			"type":"VEC3"
		},
		{
			"bufferView":29,
			"componentType":5126,
			"count":54,
			"type":"VEC3"
		},
		{
			"bufferView":30,
			"componentType":5126,
			"count":54,
			"type":"VEC2"
		},
		{
			"bufferView":31,
			"componentType":5123,
			"count":96,
			"type":"SCALAR"
		},
		{
			"bufferView":32,
			"componentType":5126,
			"count":54,
			"max":[
				0.35616251826286316,
				5.419678688049316,
				0.3833836019039154
			],
			"min":[
				-0.36986789107322693,
				3.7580792903900146,
				-0.3577899634838104
			],
			"type":"VEC3"
		},
		{
			"bufferView":33,
			"componentType":5126,
			"count":54,
			"type":"VEC3"
		},
		{
			"bufferView":34,
			"componentType":5126,
			"count":54,
			"type":"VEC2"
		},
		{
			"bufferView":35,
			"componentType":5126,
			"count":48,
			"max":[
				0.23399999737739563,
				5.615999698638916,
				0.23399999737739563
			],
			"min":[
				-0.23399999737739563,
				4.427999973297119,
				-0.23399999737739563
			],
			"type":"VEC3"
		},
		{
			"bufferView":36,
			"componentType":5126,
			"count":48,
			"type":"VEC3"
		},
		{
			"bufferView":37,
			"componentType":5126,
			"count":48,
			"type":"VEC2"
		},
		{
			"bufferView":38,
			"componentType":5123,
			"count":84,
			"type":"SCALAR"
		},
		{
			"bufferView":39,
			"componentType":5126,
			"count":34,
			"max":[
				0.1599999964237213,
				1.6500000953674316,
				0.1599999964237213
			],
			"min":[
				-0.1599999964237213,
				-0.050000011920928955,
				-0.1599999964237213
			],
			"type":"VEC3"
		},
		{
			"bufferView":40,
			"componentType":5126,
			"count":34,
			"type":"VEC3"
		},
		{
			"bufferView":41,
			"componentType":5126,
			"count":34,
			"type":"VEC2"
		},
		{
			"bufferView":42,
			"componentType":5123,
			"count":84,
			"type":"SCALAR"
		}
	],
	"bufferViews":[
		{
			"buffer":0,
			"byteLength":648,
			"byteOffset":0,
			"target":34962
		},
		{
			"buffer":0,
			"byteLength":648,
			"byteOffset":648,
			"target":34962
		},
		{
			"buffer":0,
			"byteLength":432,
			"byteOffset":1296,
			"target":34962
		},
		{
			"buffer":0,
			"byteLength":192,
			"byteOffset":1728,
			"target":34963
		},
		{
			"buffer":0,
			"byteLength":648,
			"byteOffset":1920,
			"target":34962
		},
		{
			"buffer":0,
			"byteLength":648,
			"byteOffset":2568,
			"target":34962
		},
		{
			"buffer":0,
			"byteLength":432,
			"byteOffset":3216,
			"target":34962
		},
		{
			"buffer":0,
			"byteLength":648,
			"byteOffset":3648,
			"target":34962
		},
		{
			"buffer":0,
			"byteLength":648,
			"byteOffset":4296,
			"target":34962
		},
		{
			"buffer":0,
			"byteLength":432,
			"byteOffset":4944,
			"target":34962
		},
		{
			"buffer":0,
			"byteLength":648,
			"byteOffset":5376,
			"target":34962
		},
		{
			"buffer":0,
			"byteLength":648,
			"byteOffset":6024,
			"target":34962
		},
		{
			"buffer":0,
			"byteLength":432,
			"byteOffset":6672,
			"target":34962
		},
		{
			"buffer":0,
			"byteLength":648,
			"byteOffset":7104,
			"target":34962
		},
		{
			"buffer":0,
			"byteLength":648,
			"byteOffset":7752,
			"target":34962
		},
		{
			"buffer":0,
			"byteLength":432,
			"byteOffset":8400,
			"target":34962
		},
		{
			"buffer":0,
			"byteLength":648,
			"byteOffset":8832,
			"target":34962
		},
		{
			"buffer":0,
			"byteLength":648,
			"byteOffset":9480,
			"target":34962
		},
		{
			"buffer":0,
			"byteLength":432,
			"byteOffset":10128,
			"target":34962
		},
		{
			"buffer":0,
			"byteLength":192,
			"byteOffset":10560,
			"target":34963
		},
		{
			"buffer":0,
			"byteLength":648,
			"byteOffset":10752,
			"target":34962
		},
		{
			"buffer":0,
			"byteLength":648,
			"byteOffset":11400,
			"target":34962
		},
		{
			"buffer":0,
			"byteLength":432,
			"byteOffset":12048,
			"target":34962
		},
		{
			"buffer":0,
			"byteLength":192,
			"byteOffset":12480,
			"target":34963
		},
		{
			"buffer":0,
			"byteLength":648,
			"byteOffset":12672,
			"target":34962
		},
		{
			"buffer":0,
			"byteLength":648,
			"byteOffset":13320,
			"target":34962
		},
		{
			"buffer":0,
			"byteLength":432,
			"byteOffset":13968,
			"target":34962
		},
		{
			"buffer":0,
			"byteLength":192,
			"byteOffset":14400,
			"target":34963
		},
		{
			"buffer":0,
			"byteLength":648,
			"byteOffset":14592,
			"target":34962
		},
		{
			"buffer":0,
			"byteLength":648,
			"byteOffset":15240,
			"target":34962
		},
		{
			"buffer":0,
			"byteLength":432,
			"byteOffset":15888,
			"target":34962
		},
		{
			"buffer":0,
			"byteLength":192,
			"byteOffset":16320,
			"target":34963
		},
		{
			"buffer":0,
			"byteLength":648,
			"byteOffset":16512,
			"target":34962
		},
		{
			"buffer":0,
			"byteLength":648,
			"byteOffset":17160,
			"target":34962
		},
		{
			"buffer":0,
			"byteLength":432,
			"byteOffset":17808,
			"target":34962
		},
		{
			"buffer":0,
			"byteLength":576,
			"byteOffset":18240,
			"target":34962
		},
		{
			"buffer":0,
			"byteLength":576,
			"byteOffset":18816,
			"target":34962
		},
		{
			"buffer":0,
			"byteLength":384,
			"byteOffset":19392,
			"target":34962
		},
		{
			"buffer":0,
			"byteLength":168,
			"byteOffset":19776,
			"target":34963
		},
		{
			"buffer":0,
			"byteLength":408,
			"byteOffset":19944,
			"target":34962
		},
		{
			"buffer":0,
			"byteLength":408,
			"byteOffset":20352,
			"target":34962
		},
		{
			"buffer":0,
			"byteLength":272,
			"byteOffset":20760,
			"target":34962
		},
		{
			"buffer":0,
			"byteLength":168,
			"byteOffset":21032,
			"target":34963
		}
	],
	"buffers":[
		{
			"byteLength":21200,
			"uri":"hd_pine_b.bin"
		}
	]
}
