{
	"asset":{
		"generator":"Khronos glTF Blender I/O v5.2.40",
		"version":"2.0"
	},
	"scene":0,
	"scenes":[
		{
			"name":"Scene",
			"nodes":[
				0,
				1,
				2,
				3,
				4,
				5,
				6,
				7
			]
		}
	],
	"nodes":[
		{
			"mesh":0,
			"name":"body"
		},
		{
			"mesh":1,
			"name":"head0.45"
		},
		{
			"mesh":2,
			"name":"head-0.45"
		},
		{
			"mesh":3,
			"name":"wh0.66_0.62"
		},
		{
			"mesh":4,
			"name":"wh0.66_-0.62"
		},
		{
			"mesh":5,
			"name":"wh-0.66_0.62"
		},
		{
			"mesh":6,
			"name":"wh-0.66_-0.62"
		},
		{
			"mesh":7,
			"name":"windshield"
		}
	],
	"materials":[
		{
			"doubleSided":true,
			"name":"M_vb",
			"pbrMetallicRoughness":{
				"baseColorFactor":[
					0.8122414946556091,
					0.7817506790161133,
					0.7226724624633789,
					1
				],
				"metallicFactor":0,
				"roughnessFactor":0.8500000238418579
			}
		},
		{
			"doubleSided":true,
			"emissiveFactor":[
				0.8999999761581421,
				0.8021358277496802,
				0.5273756543165931
			],
			"name":"M_vh",
			"pbrMetallicRoughness":{
				"baseColorFactor":[
					1,
					0.8912620544433594,
					0.5859729647636414,
					1
				],
				"metallicFactor":0,
				"roughnessFactor":0.8500000238418579
			}
		},
		{
			"doubleSided":true,
			"name":"M_vt",
			"pbrMetallicRoughness":{
				"baseColorFactor":[
					0.012663720175623894,
					0.01606770046055317,
					0.023103555664420128,
					1
				],
				"metallicFactor":0,
				"roughnessFactor":0.8500000238418579
			}
		},
		{
			"doubleSided":true,
			"name":"M_vw",
			"pbrMetallicRoughness":{
				"baseColorFactor":[
					0.01606770046055317,
					0.04943345859646797,
					0.0915183499455452,
					1
				],
				"metallicFactor":0,
				"roughnessFactor":0.8500000238418579
			}
		}
	],
	"meshes":[
		{
			"name":"Cube",
			"primitives":[
				{
					"attributes":{
						"POSITION":0,
						"NORMAL":1,
						"TEXCOORD_0":2
					},
					"indices":3,
					"material":0
				}
			]
		},
		{
			"name":"Cube.003",
			"primitives":[
				{
					"attributes":{
						"POSITION":4,
						"NORMAL":5,
						"TEXCOORD_0":6
					},
					"indices":7,
					"material":1
				}
			]
		},
		{
			"name":"Cube.002",
			"primitives":[
				{
					"attributes":{
						"POSITION":8,
						"NORMAL":9,
						"TEXCOORD_0":10
					},
					"indices":7,
					"material":1
				}
			]
		},
		{
			"name":"Cylinder.003",
			"primitives":[
				{
					"attributes":{
						"POSITION":11,
						"NORMAL":12,
						"TEXCOORD_0":13
					},
					"indices":14,
					"material":2
				}
			]
		},
		{
			"name":"Cylinder.002",
			"primitives":[
				{
					"attributes":{
						"POSITION":15,
						"NORMAL":16,
						"TEXCOORD_0":17
					},
					"indices":14,
					"material":2
				}
			]
		},
		{
			"name":"Cylinder.001",
			"primitives":[
				{
					"attributes":{
						"POSITION":18,
						"NORMAL":19,
						"TEXCOORD_0":20
					},
					"indices":14,
					"material":2
				}
			]
		},
		{
			"name":"Cylinder",
			"primitives":[
				{
					"attributes":{
						"POSITION":21,
						"NORMAL":22,
						"TEXCOORD_0":23
					},
					"indices":14,
					"material":2
				}
			]
		},
		{
			"name":"Cube.001",
			"primitives":[
				{
					"attributes":{
						"POSITION":24,
						"NORMAL":25,
						"TEXCOORD_0":26
					},
					"indices":7,
					"material":3
				}
			]
		}
	],
	"accessors":[
		{
			"bufferView":0,
			"componentType":5126,
			"count":216,
			"max":[
				0.800000011920929,
				1.100000023841858,
				1.100000023841858
			],
			"min":[
				-0.800000011920929,
				0.10000002384185791,
				-1.100000023841858
			],
			"type":"VEC3"
		},
		{
			"bufferView":1,
			"componentType":5126,
			"count":216,
			"type":"VEC3"
		},
		{
			"bufferView":2,
			"componentType":5126,
			"count":216,
			"type":"VEC2"
		},
		{
			"bufferView":3,
			"componentType":5123,
			"count":324,
			"type":"SCALAR"
		},
		{
			"bufferView":4,
			"componentType":5126,
			"count":24,
			"max":[
				0.5399999618530273,
				0.5199999809265137,
				1.149999976158142
			],
			"min":[
				0.35999998450279236,
				0.3799999952316284,
				1.090000033378601
			],
			"type":"VEC3"
		},
		{
			"bufferView":5,
			"componentType":5126,
			"count":24,
			"type":"VEC3"
		},
		{
			"bufferView":6,
			"componentType":5126,
			"count":24,
			"type":"VEC2"
		},
		{
			"bufferView":7,
			"componentType":5123,
			"count":36,
			"type":"SCALAR"
		},
		{
			"bufferView":8,
			"componentType":5126,
			"count":24,
			"max":[
				-0.35999998450279236,
				0.5199999809265137,
				1.149999976158142
			],
			"min":[
				-0.5399999618530273,
				0.3799999952316284,
				1.090000033378601
			],
			"type":"VEC3"
		},
		{
			"bufferView":9,
			"componentType":5126,
			"count":24,
			"type":"VEC3"
		},
		{
			"bufferView":10,
			"componentType":5126,
			"count":24,
			"type":"VEC2"
		},
		{
			"bufferView":11,
			"componentType":5126,
			"count":42,
			"max":[
				0.7100000381469727,
				0.4787430167198181,
				-0.38999998569488525
			],
			"min":[
				0.6100000143051147,
				0.04125697910785675,
				-0.8500000238418579
			],
			"type":"VEC3"
		},
		{
			"bufferView":12,
			"componentType":5126,
			"count":42,
			"type":"VEC3"
		},
		{
			"bufferView":13,
			"componentType":5126,
			"count":42,
			"type":"VEC2"
		},
		{
			"bufferView":14,
			"componentType":5123,
			"count":108,
			"type":"SCALAR"
		},
		{
			"bufferView":15,
			"componentType":5126,
			"count":42,
			"max":[
				0.7100000381469727,
				0.4787430167198181,
				0.8500000238418579
			],
			"min":[
				0.6100000143051147,
				0.04125697910785675,
				0.38999998569488525
			],
			"type":"VEC3"
		},
		{
			"bufferView":16,
			"componentType":5126,
			"count":42,
			"type":"VEC3"
		},
		{
			"bufferView":17,
			"componentType":5126,
			"count":42,
			"type":"VEC2"
		},
		{
			"bufferView":18,
			"componentType":5126,
			"count":42,
			"max":[
				-0.6100000143051147,
				0.4787430167198181,
				-0.38999998569488525
			],
			"min":[
				-0.7100000381469727,
				0.04125697910785675,
				-0.8500000238418579
			],
			"type":"VEC3"
		},
		{
			"bufferView":19,
			"componentType":5126,
			"count":42,
			"type":"VEC3"
		},
		{
			"bufferView":20,
			"componentType":5126,
			"count":42,
			"type":"VEC2"
		},
		{
			"bufferView":21,
			"componentType":5126,
			"count":42,
			"max":[
				-0.6100000143051147,
				0.4787430167198181,
				0.8500000238418579
			],
			"min":[
				-0.7100000381469727,
				0.04125697910785675,
				0.38999998569488525
			],
			"type":"VEC3"
		},
		{
			"bufferView":22,
			"componentType":5126,
			"count":42,
			"type":"VEC3"
		},
		{
			"bufferView":23,
			"componentType":5126,
			"count":42,
			"type":"VEC2"
		},
		{
			"bufferView":24,
			"componentType":5126,
			"count":24,
			"max":[
				0.6800000071525574,
				0.9900000095367432,
				0.9700000286102295
			],
			"min":[
				-0.6800000071525574,
				0.5099999904632568,
				0.8700000047683716
			],
			"type":"VEC3"
		},
		{
			"bufferView":25,
			"componentType":5126,
			"count":24,
			"type":"VEC3"
		},
		{
			"bufferView":26,
			"componentType":5126,
			"count":24,
			"type":"VEC2"
		}
	],
	"bufferViews":[
		{
			"buffer":0,
			"byteLength":2592,
			"byteOffset":0,
			"target":34962
		},
		{
			"buffer":0,
			"byteLength":2592,
			"byteOffset":2592,
			"target":34962
		},
		{
			"buffer":0,
			"byteLength":1728,
			"byteOffset":5184,
			"target":34962
		},
		{
			"buffer":0,
			"byteLength":648,
			"byteOffset":6912,
			"target":34963
		},
		{
			"buffer":0,
			"byteLength":288,
			"byteOffset":7560,
			"target":34962
		},
		{
			"buffer":0,
			"byteLength":288,
			"byteOffset":7848,
			"target":34962
		},
		{
			"buffer":0,
			"byteLength":192,
			"byteOffset":8136,
			"target":34962
		},
		{
			"buffer":0,
			"byteLength":72,
			"byteOffset":8328,
			"target":34963
		},
		{
			"buffer":0,
			"byteLength":288,
			"byteOffset":8400,
			"target":34962
		},
		{
			"buffer":0,
			"byteLength":288,
			"byteOffset":8688,
			"target":34962
		},
		{
			"buffer":0,
			"byteLength":192,
			"byteOffset":8976,
			"target":34962
		},
		{
			"buffer":0,
			"byteLength":504,
			"byteOffset":9168,
			"target":34962
		},
		{
			"buffer":0,
			"byteLength":504,
			"byteOffset":9672,
			"target":34962
		},
		{
			"buffer":0,
			"byteLength":336,
			"byteOffset":10176,
			"target":34962
		},
		{
			"buffer":0,
			"byteLength":216,
			"byteOffset":10512,
			"target":34963
		},
		{
			"buffer":0,
			"byteLength":504,
			"byteOffset":10728,
			"target":34962
		},
		{
			"buffer":0,
			"byteLength":504,
			"byteOffset":11232,
			"target":34962
		},
		{
			"buffer":0,
			"byteLength":336,
			"byteOffset":11736,
			"target":34962
		},
		{
			"buffer":0,
			"byteLength":504,
			"byteOffset":12072,
			"target":34962
		},
		{
			"buffer":0,
			"byteLength":504,
			"byteOffset":12576,
			"target":34962
		},
		{
			"buffer":0,
			"byteLength":336,
			"byteOffset":13080,
			"target":34962
		},
		{
			"buffer":0,
			"byteLength":504,
			"byteOffset":13416,
			"target":34962
		},
		{
			"buffer":0,
			"byteLength":504,
			"byteOffset":13920,
			"target":34962
		},
		{
			"buffer":0,
			"byteLength":336,
			"byteOffset":14424,
			"target":34962
		},
		{
			"buffer":0,
			"byteLength":288,
			"byteOffset":14760,
			"target":34962
		},
		{
			"buffer":0,
			"byteLength":288,
			"byteOffset":15048,
			"target":34962
		},
		{
			"buffer":0,
			"byteLength":192,
			"byteOffset":15336,
			"target":34962
		}
	],
	"buffers":[
		{
			"byteLength":15528,
			"uri":"hd_van.bin"
		}
	]
}
