{
	"asset":{
		"generator":"Khronos glTF Blender I/O v5.2.40",
		"version":"2.0"
	},
	"scene":0,
	"scenes":[
		{
			"name":"Scene",
			"nodes":[
				0,
				1,
				2,
				3,
				4,
				5,
				6,
				7,
				8,
				9,
				10,
				11,
				12,
				13,
				14,
				15,
				16,
				17,
				18,
				19,
				20,
				21,
				22,
				23,
				24,
				25,
				26,
				27,
				28,
				29,
				30,
				31,
				32,
				33,
				34,
				35,
				36
			]
		}
	],
	"nodes":[
		{
			"mesh":0,
			"name":"pbed"
		},
		{
			"mesh":1,
			"name":"pf00",
			"rotation":[
				0,
				0.0033237054012715816,
				0,
				0.9999945163726807
			]
		},
		{
			"mesh":2,
			"name":"pf01",
			"rotation":[
				0,
				-0.009400381706655025,
				0,
				0.9999558329582214
			]
		},
		{
			"mesh":3,
			"name":"pf02",
			"rotation":[
				0,
				0.007425628136843443,
				0,
				0.9999725222587585
			]
		},
		{
			"mesh":4,
			"name":"pf03",
			"rotation":[
				0,
				-0.002885253168642521,
				0,
				0.9999958276748657
			]
		},
		{
			"mesh":5,
			"name":"pf04",
			"rotation":[
				0,
				0.0027728897985070944,
				0,
				0.9999962449073792
			]
		},
		{
			"mesh":6,
			"name":"pf05",
			"rotation":[
				0,
				0.001084527000784874,
				0,
				1
			]
		},
		{
			"mesh":7,
			"name":"pf10",
			"rotation":[
				0,
				-0.006411717738956213,
				0,
				0.9999794363975525
			]
		},
		{
			"mesh":8,
			"name":"pf11",
			"rotation":[
				0,
				0.0010005295043811202,
				0,
				1
			]
		},
		{
			"mesh":9,
			"name":"pf12",
			"rotation":[
				0,
				-0.0022062230855226517,
				0,
				0.9999975562095642
			]
		},
		{
			"mesh":10,
			"name":"pf13",
			"rotation":[
				0,
				0.0027811070904135704,
				0,
				0.9999961256980896
			]
		},
		{
			"mesh":11,
			"name":"pf14",
			"rotation":[
				0,
				0.0041078547947108746,
				0,
				0.9999916553497314
			]
		},
		{
			"mesh":12,
			"name":"pf15",
			"rotation":[
				0,
				0.0044542718678712845,
				0,
				0.9999901056289673
			]
		},
		{
			"mesh":13,
			"name":"pf20",
			"rotation":[
				0,
				-0.006356936879456043,
				0,
				0.9999797940254211
			]
		},
		{
			"mesh":14,
			"name":"pf21",
			"rotation":[
				0,
				0.0028705322183668613,
				0,
				0.9999958872795105
			]
		},
		{
			"mesh":15,
			"name":"pf22",
			"rotation":[
				0,
				0.0005317134782671928,
				0,
				1
			]
		},
		{
			"mesh":16,
			"name":"pf23",
			"rotation":[
				0,
				0.008767953142523766,
				0,
				0.9999615550041199
			]
		},
		{
			"mesh":17,
			"name":"pf24",
			"rotation":[
				0,
				-0.005538912955671549,
				0,
				0.9999846816062927
			]
		},
		{
			"mesh":18,
			"name":"pf25",
			"rotation":[
				0,
				-0.004833683371543884,
				0,
				0.999988317489624
			]
		},
		{
			"mesh":19,
			"name":"pf30",
			"rotation":[
				0,
				0.0018418094841763377,
				0,
				1
			]
		},
		{
			"mesh":20,
			"name":"pf31",
			"rotation":[
				0,
				0.005162904970347881,
				0,
				0.9999867677688599
			]
		},
		{
			"mesh":21,
			"name":"pf32",
			"rotation":[
				0,
				-0.0033426694571971893,
				0,
				0.9999945163726807
			]
		},
		{
			"mesh":22,
			"name":"pf33",
			"rotation":[
				0,
				-0.00563447130843997,
				0,
				0.9999841451644897
			]
		},
		{
			"mesh":23,
			"name":"pf34",
			"rotation":[
				0,
				0.0017047374276444316,
				0,
				1
			]
		},
		{
			"mesh":24,
			"name":"pf35",
			"rotation":[
				0,
				-0.003545712912455201,
				0,
				0.9999938011169434
			]
		},
		{
			"mesh":25,
			"name":"pf40",
			"rotation":[
				0,
				-0.008206228725612164,
				0,
				0.9999663233757019
			]
		},
		{
			"mesh":26,
			"name":"pf41",
			"rotation":[
				0,
				0.0033317438792437315,
				0,
				0.9999944567680359
			]
		},
		{
			"mesh":27,
			"name":"pf42",
			"rotation":[
				0,
				0.006793060339987278,
				0,
				0.9999769330024719
			]
		},
		{
			"mesh":28,
			"name":"pf43",
			"rotation":[
				0,
				-0.004009730648249388,
				0,
				0.9999919533729553
			]
		},
		{
			"mesh":29,
			"name":"pf44",
			"rotation":[
				0,
				-0.007856831885874271,
				0,
				0.9999691247940063
			]
		},
		{
			"mesh":30,
			"name":"pf45",
			"rotation":[
				0,
				0.008366740308701992,
				0,
				0.9999650120735168
			]
		},
		{
			"mesh":31,
			"name":"pf50",
			"rotation":[
				0,
				0.005696505773812532,
				0,
				0.9999837875366211
			]
		},
		{
			"mesh":32,
			"name":"pf51",
			"rotation":[
				0,
				0.009079569019377232,
				0,
				0.999958872795105
			]
		},
		{
			"mesh":33,
			"name":"pf52",
			"rotation":[
				0,
				-0.004770916420966387,
				0,
				0.9999886155128479
			]
		},
		{
			"mesh":34,
			"name":"pf53",
			"rotation":[
				0,
				0.0066279214806854725,
				0,
				0.9999781250953674
			]
		},
		{
			"mesh":35,
			"name":"pf54",
			"rotation":[
				0,
				0.001777400728315115,
				0,
				1
			]
		},
		{
			"mesh":36,
			"name":"pf55",
			"rotation":[
				0,
				0.004108061548322439,
				0,
				0.9999916553497314
			]
		}
	],
	"materials":[
		{
			"doubleSided":true,
			"name":"M_pbed",
			"pbrMetallicRoughness":{
				"baseColorFactor":[
					0.28012436628341675,
					0.20109573006629944,
					0.11129941791296005,
					1
				],
				"metallicFactor":0,
				"roughnessFactor":0.949999988079071
			}
		},
		{
			"doubleSided":true,
			"name":"M_pf00",
			"pbrMetallicRoughness":{
				"baseColorFactor":[
					0.4819522500038147,
					0.3586539030075073,
					0.18698850274085999,
					1
				],
				"metallicFactor":0,
				"roughnessFactor":0.8500000238418579
			}
		},
		{
			"doubleSided":true,
			"name":"M_pf01",
			"pbrMetallicRoughness":{
				"baseColorFactor":[
					0.8751375675201416,
					0.6186857223510742,
					0.2590273320674896,
					1
				],
				"metallicFactor":0,
				"roughnessFactor":0.8500000238418579
			}
		},
		{
			"doubleSided":true,
			"name":"M_pf02",
			"pbrMetallicRoughness":{
				"baseColorFactor":[
					0.7226724624633789,
					0.5924380421638489,
					0.39929330348968506,
					1
				],
				"metallicFactor":0,
				"roughnessFactor":0.8500000238418579
			}
		},
		{
			"doubleSided":true,
			"name":"M_pf03",
			"pbrMetallicRoughness":{
				"baseColorFactor":[
					0.8751375675201416,
					0.6186857223510742,
					0.2590273320674896,
					1
				],
				"metallicFactor":0,
				"roughnessFactor":0.8500000238418579
			}
		},
		{
			"doubleSided":true,
			"name":"M_pf04",
			"pbrMetallicRoughness":{
				"baseColorFactor":[
					0.7226724624633789,
					0.5924380421638489,
					0.39929330348968506,
					1
				],
				"metallicFactor":0,
				"roughnessFactor":0.8500000238418579
			}
		},
		{
			"doubleSided":true,
			"name":"M_pf05",
			"pbrMetallicRoughness":{
				"baseColorFactor":[
					0.7226724624633789,
					0.5924380421638489,
					0.39929330348968506,
					1
				],
				"metallicFactor":0,
				"roughnessFactor":0.8500000238418579
			}
		},
		{
			"doubleSided":true,
			"name":"M_pf10",
			"pbrMetallicRoughness":{
				"baseColorFactor":[
					0.4819522500038147,
					0.3586539030075073,
					0.18698850274085999,
					1
				],
				"metallicFactor":0,
				"roughnessFactor":0.8500000238418579
			}
		},
		{
			"doubleSided":true,
			"name":"M_pf11",
			"pbrMetallicRoughness":{
				"baseColorFactor":[
					0.7226724624633789,
					0.5924380421638489,
					0.39929330348968506,
					1
				],
				"metallicFactor":0,
				"roughnessFactor":0.8500000238418579
			}
		},
		{
			"doubleSided":true,
			"name":"M_pf12",
			"pbrMetallicRoughness":{
				"baseColorFactor":[
					0.7226724624633789,
					0.5924380421638489,
					0.39929330348968506,
					1
				],
				"metallicFactor":0,
				"roughnessFactor":0.8500000238418579
			}
		},
		{
			"doubleSided":true,
			"name":"M_pf13",
			"pbrMetallicRoughness":{
				"baseColorFactor":[
					0.7226724624633789,
					0.5924380421638489,
					0.39929330348968506,
					1
				],
				"metallicFactor":0,
				"roughnessFactor":0.8500000238418579
			}
		},
		{
			"doubleSided":true,
			"name":"M_pf14",
			"pbrMetallicRoughness":{
				"baseColorFactor":[
					0.4819522500038147,
					0.3586539030075073,
					0.18698850274085999,
					1
				],
				"metallicFactor":0,
				"roughnessFactor":0.8500000238418579
			}
		},
		{
			"doubleSided":true,
			"name":"M_pf15",
			"pbrMetallicRoughness":{
				"baseColorFactor":[
					0.4819522500038147,
					0.3586539030075073,
					0.18698850274085999,
					1
				],
				"metallicFactor":0,
				"roughnessFactor":0.8500000238418579
			}
		},
		{
			"doubleSided":true,
			"name":"M_pf20",
			"pbrMetallicRoughness":{
				"baseColorFactor":[
					0.8751375675201416,
					0.6186857223510742,
					0.2590273320674896,
					1
				],
				"metallicFactor":0,
				"roughnessFactor":0.8500000238418579
			}
		},
		{
			"doubleSided":true,
			"name":"M_pf21",
			"pbrMetallicRoughness":{
				"baseColorFactor":[
					0.7226724624633789,
					0.5924380421638489,
					0.39929330348968506,
					1
				],
				"metallicFactor":0,
				"roughnessFactor":0.8500000238418579
			}
		},
		{
			"doubleSided":true,
			"name":"M_pf22",
			"pbrMetallicRoughness":{
				"baseColorFactor":[
					0.7226724624633789,
					0.5924380421638489,
					0.39929330348968506,
					1
				],
				"metallicFactor":0,
				"roughnessFactor":0.8500000238418579
			}
		},
		{
			"doubleSided":true,
			"name":"M_pf23",
			"pbrMetallicRoughness":{
				"baseColorFactor":[
					0.7226724624633789,
					0.5924380421638489,
					0.39929330348968506,
					1
				],
				"metallicFactor":0,
				"roughnessFactor":0.8500000238418579
			}
		},
		{
			"doubleSided":true,
			"name":"M_pf24",
			"pbrMetallicRoughness":{
				"baseColorFactor":[
					0.7226724624633789,
					0.5924380421638489,
					0.39929330348968506,
					1
				],
				"metallicFactor":0,
				"roughnessFactor":0.8500000238418579
			}
		},
		{
			"doubleSided":true,
			"name":"M_pf25",
			"pbrMetallicRoughness":{
				"baseColorFactor":[
					0.4819522500038147,
					0.3586539030075073,
					0.18698850274085999,
					1
				],
				"metallicFactor":0,
				"roughnessFactor":0.8500000238418579
			}
		},
		{
			"doubleSided":true,
			"name":"M_pf30",
			"pbrMetallicRoughness":{
				"baseColorFactor":[
					0.4819522500038147,
					0.3586539030075073,
					0.18698850274085999,
					1
				],
				"metallicFactor":0,
				"roughnessFactor":0.8500000238418579
			}
		},
		{
			"doubleSided":true,
			"name":"M_pf31",
			"pbrMetallicRoughness":{
				"baseColorFactor":[
					0.7226724624633789,
					0.5924380421638489,
					0.39929330348968506,
					1
				],
				"metallicFactor":0,
				"roughnessFactor":0.8500000238418579
			}
		},
		{
			"doubleSided":true,
			"name":"M_pf32",
			"pbrMetallicRoughness":{
				"baseColorFactor":[
					0.7226724624633789,
					0.5924380421638489,
					0.39929330348968506,
					1
				],
				"metallicFactor":0,
				"roughnessFactor":0.8500000238418579
			}
		},
		{
			"doubleSided":true,
			"name":"M_pf33",
			"pbrMetallicRoughness":{
				"baseColorFactor":[
					0.4819522500038147,
					0.3586539030075073,
					0.18698850274085999,
					1
				],
				"metallicFactor":0,
				"roughnessFactor":0.8500000238418579
			}
		},
		{
			"doubleSided":true,
			"name":"M_pf34",
			"pbrMetallicRoughness":{
				"baseColorFactor":[
					0.7226724624633789,
					0.5924380421638489,
					0.39929330348968506,
					1
				],
				"metallicFactor":0,
				"roughnessFactor":0.8500000238418579
			}
		},
		{
			"doubleSided":true,
			"name":"M_pf35",
			"pbrMetallicRoughness":{
				"baseColorFactor":[
					0.7226724624633789,
					0.5924380421638489,
					0.39929330348968506,
					1
				],
				"metallicFactor":0,
				"roughnessFactor":0.8500000238418579
			}
		},
		{
			"doubleSided":true,
			"name":"M_pf40",
			"pbrMetallicRoughness":{
				"baseColorFactor":[
					0.4819522500038147,
					0.3586539030075073,
					0.18698850274085999,
					1
				],
				"metallicFactor":0,
				"roughnessFactor":0.8500000238418579
			}
		},
		{
			"doubleSided":true,
			"name":"M_pf41",
			"pbrMetallicRoughness":{
				"baseColorFactor":[
					0.4819522500038147,
					0.3586539030075073,
					0.18698850274085999,
					1
				],
				"metallicFactor":0,
				"roughnessFactor":0.8500000238418579
			}
		},
		{
			"doubleSided":true,
			"name":"M_pf42",
			"pbrMetallicRoughness":{
				"baseColorFactor":[
					0.7226724624633789,
					0.5924380421638489,
					0.39929330348968506,
					1
				],
				"metallicFactor":0,
				"roughnessFactor":0.8500000238418579
			}
		},
		{
			"doubleSided":true,
			"name":"M_pf43",
			"pbrMetallicRoughness":{
				"baseColorFactor":[
					0.7226724624633789,
					0.5924380421638489,
					0.39929330348968506,
					1
				],
				"metallicFactor":0,
				"roughnessFactor":0.8500000238418579
			}
		},
		{
			"doubleSided":true,
			"name":"M_pf44",
			"pbrMetallicRoughness":{
				"baseColorFactor":[
					0.7226724624633789,
					0.5924380421638489,
					0.39929330348968506,
					1
				],
				"metallicFactor":0,
				"roughnessFactor":0.8500000238418579
			}
		},
		{
			"doubleSided":true,
			"name":"M_pf45",
			"pbrMetallicRoughness":{
				"baseColorFactor":[
					0.8751375675201416,
					0.6186857223510742,
					0.2590273320674896,
					1
				],
				"metallicFactor":0,
				"roughnessFactor":0.8500000238418579
			}
		},
		{
			"doubleSided":true,
			"name":"M_pf50",
			"pbrMetallicRoughness":{
				"baseColorFactor":[
					0.4819522500038147,
					0.3586539030075073,
					0.18698850274085999,
					1
				],
				"metallicFactor":0,
				"roughnessFactor":0.8500000238418579
			}
		},
		{
			"doubleSided":true,
			"name":"M_pf51",
			"pbrMetallicRoughness":{
				"baseColorFactor":[
					0.4819522500038147,
					0.3586539030075073,
					0.18698850274085999,
					1
				],
				"metallicFactor":0,
				"roughnessFactor":0.8500000238418579
			}
		},
		{
			"doubleSided":true,
			"name":"M_pf52",
			"pbrMetallicRoughness":{
				"baseColorFactor":[
					0.7226724624633789,
					0.5924380421638489,
					0.39929330348968506,
					1
				],
				"metallicFactor":0,
				"roughnessFactor":0.8500000238418579
			}
		},
		{
			"doubleSided":true,
			"name":"M_pf53",
			"pbrMetallicRoughness":{
				"baseColorFactor":[
					0.7226724624633789,
					0.5924380421638489,
					0.39929330348968506,
					1
				],
				"metallicFactor":0,
				"roughnessFactor":0.8500000238418579
			}
		},
		{
			"doubleSided":true,
			"name":"M_pf54",
			"pbrMetallicRoughness":{
				"baseColorFactor":[
					0.7226724624633789,
					0.5924380421638489,
					0.39929330348968506,
					1
				],
				"metallicFactor":0,
				"roughnessFactor":0.8500000238418579
			}
		},
		{
			"doubleSided":true,
			"name":"M_pf55",
			"pbrMetallicRoughness":{
				"baseColorFactor":[
					0.4819522500038147,
					0.3586539030075073,
					0.18698850274085999,
					1
				],
				"metallicFactor":0,
				"roughnessFactor":0.8500000238418579
			}
		}
	],
	"meshes":[
		{
			"name":"Cube",
			"primitives":[
				{
					"attributes":{
						"POSITION":0,
						"NORMAL":1,
						"TEXCOORD_0":2
					},
					"indices":3,
					"material":0
				}
			]
		},
		{
			"name":"Cube.001",
			"primitives":[
				{
					"attributes":{
						"POSITION":4,
						"NORMAL":5,
						"TEXCOORD_0":6
					},
					"indices":7,
					"material":1
				}
			]
		},
		{
			"name":"Cube.002",
			"primitives":[
				{
					"attributes":{
						"POSITION":8,
						"NORMAL":9,
						"TEXCOORD_0":10
					},
					"indices":7,
					"material":2
				}
			]
		},
		{
			"name":"Cube.003",
			"primitives":[
				{
					"attributes":{
						"POSITION":11,
						"NORMAL":12,
						"TEXCOORD_0":13
					},
					"indices":7,
					"material":3
				}
			]
		},
		{
			"name":"Cube.004",
			"primitives":[
				{
					"attributes":{
						"POSITION":14,
						"NORMAL":15,
						"TEXCOORD_0":16
					},
					"indices":3,
					"material":4
				}
			]
		},
		{
			"name":"Cube.005",
			"primitives":[
				{
					"attributes":{
						"POSITION":17,
						"NORMAL":18,
						"TEXCOORD_0":19
					},
					"indices":3,
					"material":5
				}
			]
		},
		{
			"name":"Cube.006",
			"primitives":[
				{
					"attributes":{
						"POSITION":20,
						"NORMAL":21,
						"TEXCOORD_0":22
					},
					"indices":3,
					"material":6
				}
			]
		},
		{
			"name":"Cube.007",
			"primitives":[
				{
					"attributes":{
						"POSITION":23,
						"NORMAL":24,
						"TEXCOORD_0":25
					},
					"indices":7,
					"material":7
				}
			]
		},
		{
			"name":"Cube.008",
			"primitives":[
				{
					"attributes":{
						"POSITION":26,
						"NORMAL":27,
						"TEXCOORD_0":28
					},
					"indices":3,
					"material":8
				}
			]
		},
		{
			"name":"Cube.009",
			"primitives":[
				{
					"attributes":{
						"POSITION":29,
						"NORMAL":30,
						"TEXCOORD_0":31
					},
					"indices":3,
					"material":9
				}
			]
		},
		{
			"name":"Cube.010",
			"primitives":[
				{
					"attributes":{
						"POSITION":32,
						"NORMAL":33,
						"TEXCOORD_0":34
					},
					"indices":3,
					"material":10
				}
			]
		},
		{
			"name":"Cube.011",
			"primitives":[
				{
					"attributes":{
						"POSITION":35,
						"NORMAL":36,
						"TEXCOORD_0":37
					},
					"indices":7,
					"material":11
				}
			]
		},
		{
			"name":"Cube.012",
			"primitives":[
				{
					"attributes":{
						"POSITION":38,
						"NORMAL":39,
						"TEXCOORD_0":40
					},
					"indices":7,
					"material":12
				}
			]
		},
		{
			"name":"Cube.013",
			"primitives":[
				{
					"attributes":{
						"POSITION":41,
						"NORMAL":42,
						"TEXCOORD_0":43
					},
					"indices":7,
					"material":13
				}
			]
		},
		{
			"name":"Cube.014",
			"primitives":[
				{
					"attributes":{
						"POSITION":44,
						"NORMAL":45,
						"TEXCOORD_0":46
					},
					"indices":47,
					"material":14
				}
			]
		},
		{
			"name":"Cube.015",
			"primitives":[
				{
					"attributes":{
						"POSITION":48,
						"NORMAL":49,
						"TEXCOORD_0":50
					},
					"indices":7,
					"material":15
				}
			]
		},
		{
			"name":"Cube.016",
			"primitives":[
				{
					"attributes":{
						"POSITION":51,
						"NORMAL":52,
						"TEXCOORD_0":53
					},
					"indices":54,
					"material":16
				}
			]
		},
		{
			"name":"Cube.017",
			"primitives":[
				{
					"attributes":{
						"POSITION":55,
						"NORMAL":56,
						"TEXCOORD_0":57
					},
					"indices":58,
					"material":17
				}
			]
		},
		{
			"name":"Cube.018",
			"primitives":[
				{
					"attributes":{
						"POSITION":59,
						"NORMAL":60,
						"TEXCOORD_0":61
					},
					"indices":7,
					"material":18
				}
			]
		},
		{
			"name":"Cube.019",
			"primitives":[
				{
					"attributes":{
						"POSITION":62,
						"NORMAL":63,
						"TEXCOORD_0":64
					},
					"indices":7,
					"material":19
				}
			]
		},
		{
			"name":"Cube.020",
			"primitives":[
				{
					"attributes":{
						"POSITION":65,
						"NORMAL":66,
						"TEXCOORD_0":67
					},
					"indices":7,
					"material":20
				}
			]
		},
		{
			"name":"Cube.021",
			"primitives":[
				{
					"attributes":{
						"POSITION":68,
						"NORMAL":69,
						"TEXCOORD_0":70
					},
					"indices":7,
					"material":21
				}
			]
		},
		{
			"name":"Cube.022",
			"primitives":[
				{
					"attributes":{
						"POSITION":71,
						"NORMAL":72,
						"TEXCOORD_0":73
					},
					"indices":7,
					"material":22
				}
			]
		},
		{
			"name":"Cube.023",
			"primitives":[
				{
					"attributes":{
						"POSITION":74,
						"NORMAL":75,
						"TEXCOORD_0":76
					},
					"indices":7,
					"material":23
				}
			]
		},
		{
			"name":"Cube.024",
			"primitives":[
				{
					"attributes":{
						"POSITION":77,
						"NORMAL":78,
						"TEXCOORD_0":79
					},
					"indices":3,
					"material":24
				}
			]
		},
		{
			"name":"Cube.025",
			"primitives":[
				{
					"attributes":{
						"POSITION":80,
						"NORMAL":81,
						"TEXCOORD_0":82
					},
					"indices":7,
					"material":25
				}
			]
		},
		{
			"name":"Cube.026",
			"primitives":[
				{
					"attributes":{
						"POSITION":83,
						"NORMAL":84,
						"TEXCOORD_0":85
					},
					"indices":7,
					"material":26
				}
			]
		},
		{
			"name":"Cube.027",
			"primitives":[
				{
					"attributes":{
						"POSITION":86,
						"NORMAL":87,
						"TEXCOORD_0":88
					},
					"indices":89,
					"material":27
				}
			]
		},
		{
			"name":"Cube.028",
			"primitives":[
				{
					"attributes":{
						"POSITION":90,
						"NORMAL":91,
						"TEXCOORD_0":92
					},
					"indices":3,
					"material":28
				}
			]
		},
		{
			"name":"Cube.029",
			"primitives":[
				{
					"attributes":{
						"POSITION":93,
						"NORMAL":94,
						"TEXCOORD_0":95
					},
					"indices":7,
					"material":29
				}
			]
		},
		{
			"name":"Cube.030",
			"primitives":[
				{
					"attributes":{
						"POSITION":96,
						"NORMAL":97,
						"TEXCOORD_0":98
					},
					"indices":7,
					"material":30
				}
			]
		},
		{
			"name":"Cube.031",
			"primitives":[
				{
					"attributes":{
						"POSITION":99,
						"NORMAL":100,
						"TEXCOORD_0":101
					},
					"indices":89,
					"material":31
				}
			]
		},
		{
			"name":"Cube.032",
			"primitives":[
				{
					"attributes":{
						"POSITION":102,
						"NORMAL":103,
						"TEXCOORD_0":104
					},
					"indices":7,
					"material":32
				}
			]
		},
		{
			"name":"Cube.033",
			"primitives":[
				{
					"attributes":{
						"POSITION":105,
						"NORMAL":106,
						"TEXCOORD_0":107
					},
					"indices":108,
					"material":33
				}
			]
		},
		{
			"name":"Cube.034",
			"primitives":[
				{
					"attributes":{
						"POSITION":109,
						"NORMAL":110,
						"TEXCOORD_0":111
					},
					"indices":3,
					"material":34
				}
			]
		},
		{
			"name":"Cube.035",
			"primitives":[
				{
					"attributes":{
						"POSITION":112,
						"NORMAL":113,
						"TEXCOORD_0":114
					},
					"indices":3,
					"material":35
				}
			]
		},
		{
			"name":"Cube.036",
			"primitives":[
				{
					"attributes":{
						"POSITION":115,
						"NORMAL":116,
						"TEXCOORD_0":117
					},
					"indices":7,
					"material":36
				}
			]
		}
	],
	"accessors":[
		{
			"bufferView":0,
			"componentType":5126,
			"count":96,
			"max":[
				12,
				-0.009999997913837433,
				12
			],
			"min":[
				-12,
				-0.21000000834465027,
				-12
			],
			"type":"VEC3"
		},
		{
			"bufferView":1,
			"componentType":5126,
			"count":96,
			"type":"VEC3"
		},
		{
			"bufferView":2,
			"componentType":5126,
			"count":96,
			"type":"VEC2"
		},
		{
			"bufferView":3,
			"componentType":5123,
			"count":132,
			"type":"SCALAR"
		},
		{
			"bufferView":4,
			"componentType":5126,
			"count":96,
			"max":[
				-8.103625297546387,
				0.05657714605331421,
				11.8389310836792
			],
			"min":[
				-11.973492622375488,
				-0.013422852382063866,
				8.101786613464355
			],
			"type":"VEC3"
		},
		{
			"bufferView":5,
			"componentType":5126,
			"count":96,
			"type":"VEC3"
		},
		{
			"bufferView":6,
			"componentType":5126,
			"count":96,
			"type":"VEC2"
		},
		{
			"bufferView":7,
			"componentType":5123,
			"count":132,
			"type":"SCALAR"
		},
		{
			"bufferView":8,
			"componentType":5126,
			"count":96,
			"max":[
				-4.083840370178223,
				0.049623239785432816,
				11.912025451660156
			],
			"min":[
				-7.798006057739258,
				-0.02037676051259041,
				8.042867660522461
			],
			"type":"VEC3"
		},
		{
			"bufferView":9,
			"componentType":5126,
			"count":96,
			"type":"VEC3"
		},
		{
			"bufferView":10,
			"componentType":5126,
			"count":96,
			"type":"VEC2"
		},
		{
			"bufferView":11,
			"componentType":5126,
			"count":96,
			"max":[
				-0.11049497127532959,
				0.06097209453582764,
				11.903972625732422
			],
			"min":[
				-4.009089946746826,
				-0.009027905762195587,
				8.03709602355957
			],
			"type":"VEC3"
		},
		{
			"bufferView":12,
			"componentType":5126,
			"count":96,
			"type":"VEC3"
		},
		{
			"bufferView":13,
			"componentType":5126,
			"count":96,
			"type":"VEC2"
		},
		{
			"bufferView":14,
			"componentType":5126,
			"count":96,
			"max":[
				3.9740333557128906,
				0.05856911465525627,
				11.895964622497559
			],
			"min":[
				0.125083327293396,
				-0.011430885642766953,
				8.00610065460205
			],
			"type":"VEC3"
		},
		{
			"bufferView":15,
			"componentType":5126,
			"count":96,
			"type":"VEC3"
		},
		{
			"bufferView":16,
			"componentType":5126,
			"count":96,
			"type":"VEC2"
		},
		{
			"bufferView":17,
			"componentType":5126,
			"count":96,
			"max":[
				7.9055867195129395,
				0.05469583719968796,
				11.853354454040527
			],
			"min":[
				4.009302616119385,
				-0.015304163098335266,
				8.019207954406738
			],
			"type":"VEC3"
		},
		{
			"bufferView":18,
			"componentType":5126,
			"count":96,
			"type":"VEC3"
		},
		{
			"bufferView":19,
			"componentType":5126,
			"count":96,
			"type":"VEC2"
		},
		{
			"bufferView":20,
			"componentType":5126,
			"count":96,
			"max":[
				11.93821907043457,
				0.055325452238321304,
				11.900932312011719
			],
			"min":[
				8.111461639404297,
				-0.01467454805970192,
				8.148353576660156
			],
			"type":"VEC3"
		},
		{
			"bufferView":21,
			"componentType":5126,
			"count":96,
			"type":"VEC3"
		},
		{
			"bufferView":22,
			"componentType":5126,
			"count":96,
			"type":"VEC2"
		},
		{
			"bufferView":23,
			"componentType":5126,
			"count":96,
			"max":[
				-8.065914154052734,
				0.056475501507520676,
				7.926086902618408
			],
			"min":[
				-11.854593276977539,
				-0.013524498790502548,
				4.190760135650635
			],
			"type":"VEC3"
		},
		{
			"bufferView":24,
			"componentType":5126,
			"count":96,
			"type":"VEC3"
		},
		{
			"bufferView":25,
			"componentType":5126,
			"count":96,
			"type":"VEC2"
		},
		{
			"bufferView":26,
			"componentType":5126,
			"count":96,
			"max":[
				-4.144986629486084,
				0.05066467076539993,
				7.959548473358154
			],
			"min":[
				-7.9010138511657715,
				-0.019335327669978142,
				4.081695079803467
			],
			"type":"VEC3"
		},
		{
			"bufferView":27,
			"componentType":5126,
			"count":96,
			"type":"VEC3"
		},
		{
			"bufferView":28,
			"componentType":5126,
			"count":96,
			"type":"VEC2"
		},
		{
			"bufferView":29,
			"componentType":5126,
			"count":96,
			"max":[
				-0.12643277645111084,
				0.05682165175676346,
				7.831178665161133
			],
			"min":[
				-3.8526530265808105,
				-0.013178350403904915,
				4.045102119445801
			],
			"type":"VEC3"
		},
		{
			"bufferView":30,
			"componentType":5126,
			"count":96,
			"type":"VEC3"
		},
		{
			"bufferView":31,
			"componentType":5126,
			"count":96,
			"type":"VEC2"
		},
		{
			"bufferView":32,
			"componentType":5126,
			"count":96,
			"max":[
				3.899195671081543,
				0.047604918479919434,
				7.86133337020874
			],
			"min":[
				0.17084646224975586,
				-0.02239508181810379,
				4.0001139640808105
			],
			"type":"VEC3"
		},
		{
			"bufferView":33,
			"componentType":5126,
			"count":96,
			"type":"VEC3"
		},
		{
			"bufferView":34,
			"componentType":5126,
			"count":96,
			"type":"VEC2"
		},
		{
			"bufferView":35,
			"componentType":5126,
			"count":96,
			"max":[
				7.884180068969727,
				0.059155382215976715,
				7.944158554077148
			],
			"min":[
				4.006941795349121,
				-0.010844618082046509,
				4.083524703979492
			],
			"type":"VEC3"
		},
		{
			"bufferView":36,
			"componentType":5126,
			"count":96,
			"type":"VEC3"
		},
		{
			"bufferView":37,
			"componentType":5126,
			"count":96,
			"type":"VEC2"
		},
		{
			"bufferView":38,
			"componentType":5126,
			"count":96,
			"max":[
				11.961023330688477,
				0.05619603395462036,
				7.917133808135986
			],
			"min":[
				8.08073616027832,
				-0.013803964480757713,
				4.076353549957275
			],
			"type":"VEC3"
		},
		{
			"bufferView":39,
			"componentType":5126,
			"count":96,
			"type":"VEC3"
		},
		{
			"bufferView":40,
			"componentType":5126,
			"count":96,
			"type":"VEC2"
		},
		{
			"bufferView":41,
			"componentType":5126,
			"count":96,
			"max":[
				-8.137002944946289,
				0.055132243782281876,
				3.8671765327453613
			],
			"min":[
				-11.95524787902832,
				-0.014867756515741348,
				0.095306396484375
			],
			"type":"VEC3"
		},
		{
			"bufferView":42,
			"componentType":5126,
			"count":96,
			"type":"VEC3"
		},
		{
			"bufferView":43,
			"componentType":5126,
			"count":96,
			"type":"VEC2"
		},
		{
			"bufferView":44,
			"componentType":5126,
			"count":96,
			"max":[
				-4.109078407287598,
				0.054774098098278046,
				3.8207485675811768
			],
			"min":[
				-7.989201545715332,
				-0.015225900337100029,
				0.08728289604187012
			],
			"type":"VEC3"
		},
		{
			"bufferView":45,
			"componentType":5126,
			"count":96,
			"type":"VEC3"
		},
		{
			"bufferView":46,
			"componentType":5126,
			"count":96,
			"type":"VEC2"
		},
		{
			"bufferView":47,
			"componentType":5123,
			"count":132,
			"type":"SCALAR"
		},
		{
			"bufferView":48,
			"componentType":5126,
			"count":96,
			"max":[
				-0.09705650806427002,
				0.04754358530044556,
				3.877375602722168
			],
			"min":[
				-3.884974479675293,
				-0.022456414997577667,
				0.10876357555389404
			],
			"type":"VEC3"
		},
		{
			"bufferView":49,
			"componentType":5126,
			"count":96,
			"type":"VEC3"
		},
		{
			"bufferView":50,
			"componentType":5126,
			"count":96,
			"type":"VEC2"
		},
		{
			"bufferView":51,
			"componentType":5126,
			"count":96,
			"max":[
				3.880911111831665,
				0.05271261930465698,
				3.936810255050659
			],
			"min":[
				-0.0004360675811767578,
				-0.01728738285601139,
				0.12380194664001465
			],
			"type":"VEC3"
		},
		{
			"bufferView":52,
			"componentType":5126,
			"count":96,
			"type":"VEC3"
		},
		{
			"bufferView":53,
			"componentType":5126,
			"count":96,
			"type":"VEC2"
		},
		{
			"bufferView":54,
			"componentType":5123,
			"count":132,
			"type":"SCALAR"
		},
		{
			"bufferView":55,
			"componentType":5126,
			"count":96,
			"max":[
				7.885491371154785,
				0.04750099033117294,
				3.8092451095581055
			],
			"min":[
				4.121554374694824,
				-0.02249900810420513,
				0.07823264598846436
			],
			"type":"VEC3"
		},
		{
			"bufferView":56,
			"componentType":5126,
			"count":96,
			"type":"VEC3"
		},
		{
			"bufferView":57,
			"componentType":5126,
			"count":96,
			"type":"VEC2"
		},
		{
			"bufferView":58,
			"componentType":5123,
			"count":132,
			"type":"SCALAR"
		},
		{
			"bufferView":59,
			"componentType":5126,
			"count":96,
			"max":[
				11.874578475952148,
				0.05226634815335274,
				3.8178982734680176
			],
			"min":[
				8.031734466552734,
				-0.017733652144670486,
				0.08648288249969482
			],
			"type":"VEC3"
		},
		{
			"bufferView":60,
			"componentType":5126,
			"count":96,
			"type":"VEC3"
		},
		{
			"bufferView":61,
			"componentType":5126,
			"count":96,
			"type":"VEC2"
		},
		{
			"bufferView":62,
			"componentType":5126,
			"count":96,
			"max":[
				-8.061751365661621,
				0.050619665533304214,
				-0.1703026294708252
			],
			"min":[
				-11.879353523254395,
				-0.01938033476471901,
				-3.941415548324585
			],
			"type":"VEC3"
		},
		{
			"bufferView":63,
			"componentType":5126,
			"count":96,
			"type":"VEC3"
		},
		{
			"bufferView":64,
			"componentType":5126,
			"count":96,
			"type":"VEC2"
		},
		{
			"bufferView":65,
			"componentType":5126,
			"count":96,
			"max":[
				-4.129844665527344,
				0.05295588821172714,
				-0.12644553184509277
			],
			"min":[
				-7.893231391906738,
				-0.01704411394894123,
				-3.9185798168182373
			],
			"type":"VEC3"
		},
		{
			"bufferView":66,
			"componentType":5126,
			"count":96,
			"type":"VEC3"
		},
		{
			"bufferView":67,
			"componentType":5126,
			"count":96,
			"type":"VEC2"
		},
		{
			"bufferView":68,
			"componentType":5126,
			"count":96,
			"max":[
				-0.11498773097991943,
				0.05783391743898392,
				-0.022581934928894043
			],
			"min":[
				-3.8530735969543457,
				-0.012166080996394157,
				-3.8187289237976074
			],
			"type":"VEC3"
		},
		{
			"bufferView":69,
			"componentType":5126,
			"count":96,
			"type":"VEC3"
		},
		{
			"bufferView":70,
			"componentType":5126,
			"count":96,
			"type":"VEC2"
		},
		{
			"bufferView":71,
			"componentType":5126,
			"count":96,
			"max":[
				3.9026660919189453,
				0.04891783744096756,
				-0.12840032577514648
			],
			"min":[
				0.02995312213897705,
				-0.021082162857055664,
				-3.8507871627807617
			],
			"type":"VEC3"
		},
		{
			"bufferView":72,
			"componentType":5126,
			"count":96,
			"type":"VEC3"
		},
		{
			"bufferView":73,
			"componentType":5126,
			"count":96,
			"type":"VEC2"
		},
		{
			"bufferView":74,
			"componentType":5126,
			"count":96,
			"max":[
				7.831363677978516,
				0.047467246651649475,
				-0.09603238105773926
			],
			"min":[
				4.105709075927734,
				-0.02253275364637375,
				-3.8682374954223633
			],
			"type":"VEC3"
		},
		{
			"bufferView":75,
			"componentType":5126,
			"count":96,
			"type":"VEC3"
		},
		{
			"bufferView":76,
			"componentType":5126,
			"count":96,
			"type":"VEC2"
		},
		{
			"bufferView":77,
			"componentType":5126,
			"count":96,
			"max":[
				11.892873764038086,
				0.05191458761692047,
				-0.04272258281707764
			],
			"min":[
				8.133777618408203,
				-0.018085412681102753,
				-3.93624210357666
			],
			"type":"VEC3"
		},
		{
			"bufferView":78,
			"componentType":5126,
			"count":96,
			"type":"VEC3"
		},
		{
			"bufferView":79,
			"componentType":5126,
			"count":96,
			"type":"VEC2"
		},
		{
			"bufferView":80,
			"componentType":5126,
			"count":96,
			"max":[
				-8.08664321899414,
				0.04875890165567398,
				-4.132452487945557
			],
			"min":[
				-11.787630081176758,
				-0.021241098642349243,
				-7.882076740264893
			],
			"type":"VEC3"
		},
		{
			"bufferView":81,
			"componentType":5126,
			"count":96,
			"type":"VEC3"
		},
		{
			"bufferView":82,
			"componentType":5126,
			"count":96,
			"type":"VEC2"
		},
		{
			"bufferView":83,
			"componentType":5126,
			"count":96,
			"max":[
				-3.9987478256225586,
				0.05069694668054581,
				-4.076563835144043
			],
			"min":[
				-7.863051414489746,
				-0.019303055480122566,
				-7.785953521728516
			],
			"type":"VEC3"
		},
		{
			"bufferView":84,
			"componentType":5126,
			"count":96,
			"type":"VEC3"
		},
		{
			"bufferView":85,
			"componentType":5126,
			"count":96,
			"type":"VEC2"
		},
		{
			"bufferView":86,
			"componentType":5126,
			"count":96,
			"max":[
				-0.03629136085510254,
				0.05988623946905136,
				-4.095855712890625
			],
			"min":[
				-3.8243980407714844,
				-0.010113758966326714,
				-7.910511016845703
			],
			"type":"VEC3"
		},
		{
			"bufferView":87,
			"componentType":5126,
			"count":96,
			"type":"VEC3"
		},
		{
			"bufferView":88,
			"componentType":5126,
			"count":96,
			"type":"VEC2"
		},
		{
			"bufferView":89,
			"componentType":5123,
			"count":132,
			"type":"SCALAR"
		},
		{
			"bufferView":90,
			"componentType":5126,
			"count":96,
			"max":[
				3.9669971466064453,
				0.04892026260495186,
				-4.007216453552246
			],
			"min":[
				0.16022717952728271,
				-0.021079737693071365,
				-7.869701385498047
			],
			"type":"VEC3"
		},
		{
			"bufferView":91,
			"componentType":5126,
			"count":96,
			"type":"VEC3"
		},
		{
			"bufferView":92,
			"componentType":5126,
			"count":96,
			"type":"VEC2"
		},
		{
			"bufferView":93,
			"componentType":5126,
			"count":96,
			"max":[
				7.929105758666992,
				0.048216383904218674,
				-4.114615440368652
			],
			"min":[
				4.21868896484375,
				-0.02178361639380455,
				-7.820696830749512
			],
			"type":"VEC3"
		},
		{
			"bufferView":94,
			"componentType":5126,
			"count":96,
			"type":"VEC3"
		},
		{
			"bufferView":95,
			"componentType":5126,
			"count":96,
			"type":"VEC2"
		},
		{
			"bufferView":96,
			"componentType":5126,
			"count":96,
			"max":[
				11.96548843383789,
				0.06099478900432587,
				-4.166179656982422
			],
			"min":[
				8.103675842285156,
				-0.009005213156342506,
				-7.9510498046875
			],
			"type":"VEC3"
		},
		{
			"bufferView":97,
			"componentType":5126,
			"count":96,
			"type":"VEC3"
		},
		{
			"bufferView":98,
			"componentType":5126,
			"count":96,
			"type":"VEC2"
		},
		{
			"bufferView":99,
			"componentType":5126,
			"count":96,
			"max":[
				-8.184704780578613,
				0.052680619060993195,
				-8.046137809753418
			],
			"min":[
				-11.96224308013916,
				-0.01731938123703003,
				-11.824156761169434
			],
			"type":"VEC3"
		},
		{
			"bufferView":100,
			"componentType":5126,
			"count":96,
			"type":"VEC3"
		},
		{
			"bufferView":101,
			"componentType":5126,
			"count":96,
			"type":"VEC2"
		},
		{
			"bufferView":102,
			"componentType":5126,
			"count":96,
			"max":[
				-4.132067680358887,
				0.04740970581769943,
				-8.037392616271973
			],
			"min":[
				-7.883872985839844,
				-0.02259029448032379,
				-11.80378246307373
			],
			"type":"VEC3"
		},
		{
			"bufferView":103,
			"componentType":5126,
			"count":96,
			"type":"VEC3"
		},
		{
			"bufferView":104,
			"componentType":5126,
			"count":96,
			"type":"VEC2"
		},
		{
			"bufferView":105,
			"componentType":5126,
			"count":96,
			"max":[
				0.005984306335449219,
				0.04919212684035301,
				-8.049903869628906
			],
			"min":[
				-3.8612136840820312,
				-0.020807873457670212,
				-11.910091400146484
			],
			"type":"VEC3"
		},
		{
			"bufferView":106,
			"componentType":5126,
			"count":96,
			"type":"VEC3"
		},
		{
			"bufferView":107,
			"componentType":5126,
			"count":96,
			"type":"VEC2"
		},
		{
			"bufferView":108,
			"componentType":5123,
			"count":132,
			"type":"SCALAR"
		},
		{
			"bufferView":109,
			"componentType":5126,
			"count":96,
			"max":[
				3.8631625175476074,
				0.054513633251190186,
				-8.17677116394043
			],
			"min":[
				0.1243811845779419,
				-0.015486365184187889,
				-11.951885223388672
			],
			"type":"VEC3"
		},
		{
			"bufferView":110,
			"componentType":5126,
			"count":96,
			"type":"VEC3"
		},
		{
			"bufferView":111,
			"componentType":5126,
			"count":96,
			"type":"VEC2"
		},
		{
			"bufferView":112,
			"componentType":5126,
			"count":96,
			"max":[
				7.824728012084961,
				0.05374707281589508,
				-8.202386856079102
			],
			"min":[
				4.024570465087891,
				-0.016252925619482994,
				-11.92744255065918
			],
			"type":"VEC3"
		},
		{
			"bufferView":113,
			"componentType":5126,
			"count":96,
			"type":"VEC3"
		},
		{
			"bufferView":114,
			"componentType":5126,
			"count":96,
			"type":"VEC2"
		},
		{
			"bufferView":115,
			"componentType":5126,
			"count":96,
			"max":[
				11.871302604675293,
				0.05395707115530968,
				-8.128175735473633
			],
			"min":[
				8.067025184631348,
				-0.016042929142713547,
				-11.995080947875977
			],
			"type":"VEC3"
		},
		{
			"bufferView":116,
			"componentType":5126,
			"count":96,
			"type":"VEC3"
		},
		{
			"bufferView":117,
			"componentType":5126,
			"count":96,
			"type":"VEC2"
		}
	],
	"bufferViews":[
		{
			"buffer":0,
			"byteLength":1152,
			"byteOffset":0,
			"target":34962
		},
		{
			"buffer":0,
			"byteLength":1152,
			"byteOffset":1152,
			"target":34962
		},
		{
			"buffer":0,
			"byteLength":768,
			"byteOffset":2304,
			"target":34962
		},
		{
			"buffer":0,
			"byteLength":264,
			"byteOffset":3072,
			"target":34963
		},
		{
			"buffer":0,
			"byteLength":1152,
			"byteOffset":3336,
			"target":34962
		},
		{
			"buffer":0,
			"byteLength":1152,
			"byteOffset":4488,
			"target":34962
		},
		{
			"buffer":0,
			"byteLength":768,
			"byteOffset":5640,
			"target":34962
		},
		{
			"buffer":0,
			"byteLength":264,
			"byteOffset":6408,
			"target":34963
		},
		{
			"buffer":0,
			"byteLength":1152,
			"byteOffset":6672,
			"target":34962
		},
		{
			"buffer":0,
			"byteLength":1152,
			"byteOffset":7824,
			"target":34962
		},
		{
			"buffer":0,
			"byteLength":768,
			"byteOffset":8976,
			"target":34962
		},
		{
			"buffer":0,
			"byteLength":1152,
			"byteOffset":9744,
			"target":34962
		},
		{
			"buffer":0,
			"byteLength":1152,
			"byteOffset":10896,
			"target":34962
		},
		{
			"buffer":0,
			"byteLength":768,
			"byteOffset":12048,
			"target":34962
		},
		{
			"buffer":0,
			"byteLength":1152,
			"byteOffset":12816,
			"target":34962
		},
		{
			"buffer":0,
			"byteLength":1152,
			"byteOffset":13968,
			"target":34962
		},
		{
			"buffer":0,
			"byteLength":768,
			"byteOffset":15120,
			"target":34962
		},
		{
			"buffer":0,
			"byteLength":1152,
			"byteOffset":15888,
			"target":34962
		},
		{
			"buffer":0,
			"byteLength":1152,
			"byteOffset":17040,
			"target":34962
		},
		{
			"buffer":0,
			"byteLength":768,
			"byteOffset":18192,
			"target":34962
		},
		{
			"buffer":0,
			"byteLength":1152,
			"byteOffset":18960,
			"target":34962
		},
		{
			"buffer":0,
			"byteLength":1152,
			"byteOffset":20112,
			"target":34962
		},
		{
			"buffer":0,
			"byteLength":768,
			"byteOffset":21264,
			"target":34962
		},
		{
			"buffer":0,
			"byteLength":1152,
			"byteOffset":22032,
			"target":34962
		},
		{
			"buffer":0,
			"byteLength":1152,
			"byteOffset":23184,
			"target":34962
		},
		{
			"buffer":0,
			"byteLength":768,
			"byteOffset":24336,
			"target":34962
		},
		{
			"buffer":0,
			"byteLength":1152,
			"byteOffset":25104,
			"target":34962
		},
		{
			"buffer":0,
			"byteLength":1152,
			"byteOffset":26256,
			"target":34962
		},
		{
			"buffer":0,
			"byteLength":768,
			"byteOffset":27408,
			"target":34962
		},
		{
			"buffer":0,
			"byteLength":1152,
			"byteOffset":28176,
			"target":34962
		},
		{
			"buffer":0,
			"byteLength":1152,
			"byteOffset":29328,
			"target":34962
		},
		{
			"buffer":0,
			"byteLength":768,
			"byteOffset":30480,
			"target":34962
		},
		{
			"buffer":0,
			"byteLength":1152,
			"byteOffset":31248,
			"target":34962
		},
		{
			"buffer":0,
			"byteLength":1152,
			"byteOffset":32400,
			"target":34962
		},
		{
			"buffer":0,
			"byteLength":768,
			"byteOffset":33552,
			"target":34962
		},
		{
			"buffer":0,
			"byteLength":1152,
			"byteOffset":34320,
			"target":34962
		},
		{
			"buffer":0,
			"byteLength":1152,
			"byteOffset":35472,
			"target":34962
		},
		{
			"buffer":0,
			"byteLength":768,
			"byteOffset":36624,
			"target":34962
		},
		{
			"buffer":0,
			"byteLength":1152,
			"byteOffset":37392,
			"target":34962
		},
		{
			"buffer":0,
			"byteLength":1152,
			"byteOffset":38544,
			"target":34962
		},
		{
			"buffer":0,
			"byteLength":768,
			"byteOffset":39696,
			"target":34962
		},
		{
			"buffer":0,
			"byteLength":1152,
			"byteOffset":40464,
			"target":34962
		},
		{
			"buffer":0,
			"byteLength":1152,
			"byteOffset":41616,
			"target":34962
		},
		{
			"buffer":0,
			"byteLength":768,
			"byteOffset":42768,
			"target":34962
		},
		{
			"buffer":0,
			"byteLength":1152,
			"byteOffset":43536,
			"target":34962
		},
		{
			"buffer":0,
			"byteLength":1152,
			"byteOffset":44688,
			"target":34962
		},
		{
			"buffer":0,
			"byteLength":768,
			"byteOffset":45840,
			"target":34962
		},
		{
			"buffer":0,
			"byteLength":264,
			"byteOffset":46608,
			"target":34963
		},
		{
			"buffer":0,
			"byteLength":1152,
			"byteOffset":46872,
			"target":34962
		},
		{
			"buffer":0,
			"byteLength":1152,
			"byteOffset":48024,
			"target":34962
		},
		{
			"buffer":0,
			"byteLength":768,
			"byteOffset":49176,
			"target":34962
		},
		{
			"buffer":0,
			"byteLength":1152,
			"byteOffset":49944,
			"target":34962
		},
		{
			"buffer":0,
			"byteLength":1152,
			"byteOffset":51096,
			"target":34962
		},
		{
			"buffer":0,
			"byteLength":768,
			"byteOffset":52248,
			"target":34962
		},
		{
			"buffer":0,
			"byteLength":264,
			"byteOffset":53016,
			"target":34963
		},
		{
			"buffer":0,
			"byteLength":1152,
			"byteOffset":53280,
			"target":34962
		},
		{
			"buffer":0,
			"byteLength":1152,
			"byteOffset":54432,
			"target":34962
		},
		{
			"buffer":0,
			"byteLength":768,
			"byteOffset":55584,
			"target":34962
		},
		{
			"buffer":0,
			"byteLength":264,
			"byteOffset":56352,
			"target":34963
		},
		{
			"buffer":0,
			"byteLength":1152,
			"byteOffset":56616,
			"target":34962
		},
		{
			"buffer":0,
			"byteLength":1152,
			"byteOffset":57768,
			"target":34962
		},
		{
			"buffer":0,
			"byteLength":768,
			"byteOffset":58920,
			"target":34962
		},
		{
			"buffer":0,
			"byteLength":1152,
			"byteOffset":59688,
			"target":34962
		},
		{
			"buffer":0,
			"byteLength":1152,
			"byteOffset":60840,
			"target":34962
		},
		{
			"buffer":0,
			"byteLength":768,
			"byteOffset":61992,
			"target":34962
		},
		{
			"buffer":0,
			"byteLength":1152,
			"byteOffset":62760,
			"target":34962
		},
		{
			"buffer":0,
			"byteLength":1152,
			"byteOffset":63912,
			"target":34962
		},
		{
			"buffer":0,
			"byteLength":768,
			"byteOffset":65064,
			"target":34962
		},
		{
			"buffer":0,
			"byteLength":1152,
			"byteOffset":65832,
			"target":34962
		},
		{
			"buffer":0,
			"byteLength":1152,
			"byteOffset":66984,
			"target":34962
		},
		{
			"buffer":0,
			"byteLength":768,
			"byteOffset":68136,
			"target":34962
		},
		{
			"buffer":0,
			"byteLength":1152,
			"byteOffset":68904,
			"target":34962
		},
		{
			"buffer":0,
			"byteLength":1152,
			"byteOffset":70056,
			"target":34962
		},
		{
			"buffer":0,
			"byteLength":768,
			"byteOffset":71208,
			"target":34962
		},
		{
			"buffer":0,
			"byteLength":1152,
			"byteOffset":71976,
			"target":34962
		},
		{
			"buffer":0,
			"byteLength":1152,
			"byteOffset":73128,
			"target":34962
		},
		{
			"buffer":0,
			"byteLength":768,
			"byteOffset":74280,
			"target":34962
		},
		{
			"buffer":0,
			"byteLength":1152,
			"byteOffset":75048,
			"target":34962
		},
		{
			"buffer":0,
			"byteLength":1152,
			"byteOffset":76200,
			"target":34962
		},
		{
			"buffer":0,
			"byteLength":768,
			"byteOffset":77352,
			"target":34962
		},
		{
			"buffer":0,
			"byteLength":1152,
			"byteOffset":78120,
			"target":34962
		},
		{
			"buffer":0,
			"byteLength":1152,
			"byteOffset":79272,
			"target":34962
		},
		{
			"buffer":0,
			"byteLength":768,
			"byteOffset":80424,
			"target":34962
		},
		{
			"buffer":0,
			"byteLength":1152,
			"byteOffset":81192,
			"target":34962
		},
		{
			"buffer":0,
			"byteLength":1152,
			"byteOffset":82344,
			"target":34962
		},
		{
			"buffer":0,
			"byteLength":768,
			"byteOffset":83496,
			"target":34962
		},
		{
			"buffer":0,
			"byteLength":1152,
			"byteOffset":84264,
			"target":34962
		},
		{
			"buffer":0,
			"byteLength":1152,
			"byteOffset":85416,
			"target":34962
		},
		{
			"buffer":0,
			"byteLength":768,
			"byteOffset":86568,
			"target":34962
		},
		{
			"buffer":0,
			"byteLength":264,
			"byteOffset":87336,
			"target":34963
		},
		{
			"buffer":0,
			"byteLength":1152,
			"byteOffset":87600,
			"target":34962
		},
		{
			"buffer":0,
			"byteLength":1152,
			"byteOffset":88752,
			"target":34962
		},
		{
			"buffer":0,
			"byteLength":768,
			"byteOffset":89904,
			"target":34962
		},
		{
			"buffer":0,
			"byteLength":1152,
			"byteOffset":90672,
			"target":34962
		},
		{
			"buffer":0,
			"byteLength":1152,
			"byteOffset":91824,
			"target":34962
		},
		{
			"buffer":0,
			"byteLength":768,
			"byteOffset":92976,
			"target":34962
		},
		{
			"buffer":0,
			"byteLength":1152,
			"byteOffset":93744,
			"target":34962
		},
		{
			"buffer":0,
			"byteLength":1152,
			"byteOffset":94896,
			"target":34962
		},
		{
			"buffer":0,
			"byteLength":768,
			"byteOffset":96048,
			"target":34962
		},
		{
			"buffer":0,
			"byteLength":1152,
			"byteOffset":96816,
			"target":34962
		},
		{
			"buffer":0,
			"byteLength":1152,
			"byteOffset":97968,
			"target":34962
		},
		{
			"buffer":0,
			"byteLength":768,
			"byteOffset":99120,
			"target":34962
		},
		{
			"buffer":0,
			"byteLength":1152,
			"byteOffset":99888,
			"target":34962
		},
		{
			"buffer":0,
			"byteLength":1152,
			"byteOffset":101040,
			"target":34962
		},
		{
			"buffer":0,
			"byteLength":768,
			"byteOffset":102192,
			"target":34962
		},
		{
			"buffer":0,
			"byteLength":1152,
			"byteOffset":102960,
			"target":34962
		},
		{
			"buffer":0,
			"byteLength":1152,
			"byteOffset":104112,
			"target":34962
		},
		{
			"buffer":0,
			"byteLength":768,
			"byteOffset":105264,
			"target":34962
		},
		{
			"buffer":0,
			"byteLength":264,
			"byteOffset":106032,
			"target":34963
		},
		{
			"buffer":0,
			"byteLength":1152,
			"byteOffset":106296,
			"target":34962
		},
		{
			"buffer":0,
			"byteLength":1152,
			"byteOffset":107448,
			"target":34962
		},
		{
			"buffer":0,
			"byteLength":768,
			"byteOffset":108600,
			"target":34962
		},
		{
			"buffer":0,
			"byteLength":1152,
			"byteOffset":109368,
			"target":34962
		},
		{
			"buffer":0,
			"byteLength":1152,
			"byteOffset":110520,
			"target":34962
		},
		{
			"buffer":0,
			"byteLength":768,
			"byteOffset":111672,
			"target":34962
		},
		{
			"buffer":0,
			"byteLength":1152,
			"byteOffset":112440,
			"target":34962
		},
		{
			"buffer":0,
			"byteLength":1152,
			"byteOffset":113592,
			"target":34962
		},
		{
			"buffer":0,
			"byteLength":768,
			"byteOffset":114744,
			"target":34962
		}
	],
	"buffers":[
		{
			"byteLength":115512,
			"uri":"hd_rd_plaza.bin"
		}
	]
}
