{
	"asset":{
		"generator":"Khronos glTF Blender I/O v5.2.40",
		"version":"2.0"
	},
	"extensionsUsed":[
		"KHR_materials_emissive_strength"
	],
	"scene":0,
	"scenes":[
		{
			"name":"Scene",
			"nodes":[
				0,
				1,
				2,
				3,
				4,
				5,
				6
			]
		}
	],
	"nodes":[
		{
			"mesh":0,
			"name":"base"
		},
		{
			"mesh":1,
			"name":"face"
		},
		{
			"mesh":2,
			"name":"frame"
		},
		{
			"mesh":3,
			"name":"glyph0"
		},
		{
			"mesh":4,
			"name":"glyph1"
		},
		{
			"mesh":5,
			"name":"glyphDot"
		},
		{
			"mesh":6,
			"name":"strut"
		}
	],
	"materials":[
		{
			"doubleSided":true,
			"name":"M_nb",
			"pbrMetallicRoughness":{
				"baseColorFactor":[
					0.014310519210994244,
					0.016988052055239677,
					0.06003160774707794,
					1
				],
				"metallicFactor":0,
				"roughnessFactor":0.8500000238418579
			}
		},
		{
			"doubleSided":true,
			"emissiveFactor":[
				0.23312459268504782,
				0.09554045692310176,
				0.8999999761581421
			],
			"name":"M_nfa",
			"pbrMetallicRoughness":{
				"baseColorFactor":[
					0.2590273320674896,
					0.10615606606006622,
					1,
					1
				],
				"metallicFactor":0,
				"roughnessFactor":0.8500000238418579
			}
		},
		{
			"doubleSided":true,
			"name":"M_nf",
			"pbrMetallicRoughness":{
				"baseColorFactor":[
					0.014310519210994244,
					0.016988052055239677,
					0.06003160774707794,
					1
				],
				"metallicFactor":0,
				"roughnessFactor":0.3499999940395355
			}
		},
		{
			"doubleSided":true,
			"emissiveFactor":[
				0.02982234006579952,
				1,
				0.9076177404946932
			],
			"extensions":{
				"KHR_materials_emissive_strength":{
					"emissiveStrength":1.9493796646348471
				}
			},
			"name":"M_ng0",
			"pbrMetallicRoughness":{
				"baseColorFactor":[
					0.02422294206917286,
					0.8122414946556091,
					0.7372047901153564,
					1
				],
				"metallicFactor":0,
				"roughnessFactor":0.8500000238418579
			}
		},
		{
			"doubleSided":true,
			"emissiveFactor":[
				1,
				0.07592611759901047,
				0.4423229396343231
			],
			"extensions":{
				"KHR_materials_emissive_strength":{
					"emissiveStrength":2.4000000953674316
				}
			},
			"name":"M_ng1",
			"pbrMetallicRoughness":{
				"baseColorFactor":[
					1,
					0.07592611759901047,
					0.4423229396343231,
					1
				],
				"metallicFactor":0,
				"roughnessFactor":0.8500000238418579
			}
		},
		{
			"doubleSided":true,
			"emissiveFactor":[
				1,
				0.8199636936187744,
				0.39929330348968506
			],
			"extensions":{
				"KHR_materials_emissive_strength":{
					"emissiveStrength":2.4000000953674316
				}
			},
			"name":"M_ngd",
			"pbrMetallicRoughness":{
				"baseColorFactor":[
					1,
					0.8199636936187744,
					0.39929330348968506,
					1
				],
				"metallicFactor":0,
				"roughnessFactor":0.8500000238418579
			}
		},
		{
			"doubleSided":true,
			"name":"M_ns",
			"pbrMetallicRoughness":{
				"baseColorFactor":[
					0.014310519210994244,
					0.016988052055239677,
					0.06003160774707794,
					1
				],
				"metallicFactor":0,
				"roughnessFactor":0.8500000238418579
			}
		}
	],
	"meshes":[
		{
			"name":"Cube.005",
			"primitives":[
				{
					"attributes":{
						"POSITION":0,
						"NORMAL":1,
						"TEXCOORD_0":2
					},
					"indices":3,
					"material":0
				}
			]
		},
		{
			"name":"Cube.001",
			"primitives":[
				{
					"attributes":{
						"POSITION":4,
						"NORMAL":5,
						"TEXCOORD_0":6
					},
					"indices":3,
					"material":1
				}
			]
		},
		{
			"name":"Cube",
			"primitives":[
				{
					"attributes":{
						"POSITION":7,
						"NORMAL":8,
						"TEXCOORD_0":9
					},
					"indices":10,
					"material":2
				}
			]
		},
		{
			"name":"Cube.002",
			"primitives":[
				{
					"attributes":{
						"POSITION":11,
						"NORMAL":12,
						"TEXCOORD_0":13
					},
					"indices":3,
					"material":3
				}
			]
		},
		{
			"name":"Cube.003",
			"primitives":[
				{
					"attributes":{
						"POSITION":14,
						"NORMAL":15,
						"TEXCOORD_0":16
					},
					"indices":3,
					"material":4
				}
			]
		},
		{
			"name":"Cube.004",
			"primitives":[
				{
					"attributes":{
						"POSITION":17,
						"NORMAL":18,
						"TEXCOORD_0":19
					},
					"indices":3,
					"material":5
				}
			]
		},
		{
			"name":"Cylinder",
			"primitives":[
				{
					"attributes":{
						"POSITION":20,
						"NORMAL":21,
						"TEXCOORD_0":22
					},
					"indices":23,
					"material":6
				}
			]
		}
	],
	"accessors":[
		{
			"bufferView":0,
			"componentType":5126,
			"count":24,
			"max":[
				0.30000001192092896,
				0.4000000059604645,
				0.30000001192092896
			],
			"min":[
				-0.30000001192092896,
				0,
				-0.30000001192092896
			],
			"type":"VEC3"
		},
		{
			"bufferView":1,
			"componentType":5126,
			"count":24,
			"type":"VEC3"
		},
		{
			"bufferView":2,
			"componentType":5126,
			"count":24,
			"type":"VEC2"
		},
		{
			"bufferView":3,
			"componentType":5123,
			"count":36,
			"type":"SCALAR"
		},
		{
			"bufferView":4,
			"componentType":5126,
			"count":24,
			"max":[
				0.75,
				2.049999952316284,
				0.10500000417232513
			],
			"min":[
				-0.75,
				1.1500000953674316,
				0.06499999761581421
			],
			"type":"VEC3"
		},
		{
			"bufferView":5,
			"componentType":5126,
			"count":24,
			"type":"VEC3"
		},
		{
			"bufferView":6,
			"componentType":5126,
			"count":24,
			"type":"VEC2"
		},
		{
			"bufferView":7,
			"componentType":5126,
			"count":96,
			"max":[
				0.8500000238418579,
				2.1500000953674316,
				0.07999999821186066
			],
			"min":[
				-0.8500000238418579,
				1.0499999523162842,
				-0.07999999821186066
			],
			"type":"VEC3"
		},
		{
			"bufferView":8,
			"componentType":5126,
			"count":96,
			"type":"VEC3"
		},
		{
			"bufferView":9,
			"componentType":5126,
			"count":96,
			"type":"VEC2"
		},
		{
			"bufferView":10,
			"componentType":5123,
			"count":132,
			"type":"SCALAR"
		},
		{
			"bufferView":11,
			"componentType":5126,
			"count":24,
			"max":[
				-0.04999999701976776,
				1.649999976158142,
				0.12999999523162842
			],
			"min":[
				-0.3500000238418579,
				1.5500000715255737,
				0.09000000357627869
			],
			"type":"VEC3"
		},
		{
			"bufferView":12,
			"componentType":5126,
			"count":24,
			"type":"VEC3"
		},
		{
			"bufferView":13,
			"componentType":5126,
			"count":24,
			"type":"VEC2"
		},
		{
			"bufferView":14,
			"componentType":5126,
			"count":24,
			"max":[
				0.2900000214576721,
				1.7299998998641968,
				0.12999999523162842
			],
			"min":[
				0.07000000774860382,
				1.6299999952316284,
				0.09000000357627869
			],
			"type":"VEC3"
		},
		{
			"bufferView":15,
			"componentType":5126,
			"count":24,
			"type":"VEC3"
		},
		{
			"bufferView":16,
			"componentType":5126,
			"count":24,
			"type":"VEC2"
		},
		{
			"bufferView":17,
			"componentType":5126,
			"count":24,
			"max":[
				0.3700000047683716,
				1.5299999713897705,
				0.12999999523162842
			],
			"min":[
				0.26999998092651367,
				1.4300000667572021,
				0.09000000357627869
			],
			"type":"VEC3"
		},
		{
			"bufferView":18,
			"componentType":5126,
			"count":24,
			"type":"VEC3"
		},
		{
			"bufferView":19,
			"componentType":5126,
			"count":24,
			"type":"VEC2"
		},
		{
			"bufferView":20,
			"componentType":5126,
			"count":36,
			"max":[
				0.04330126941204071,
				1.399999976158142,
				0.05000000074505806
			],
			"min":[
				-0.04330126941204071,
				0.3999999761581421,
				-0.05000000074505806
			],
			"type":"VEC3"
		},
		{
			"bufferView":21,
			"componentType":5126,
			"count":36,
			"type":"VEC3"
		},
		{
			"bufferView":22,
			"componentType":5126,
			"count":36,
			"type":"VEC2"
		},
		{
			"bufferView":23,
			"componentType":5123,
			"count":60,
			"type":"SCALAR"
		}
	],
	"bufferViews":[
		{
			"buffer":0,
			"byteLength":288,
			"byteOffset":0,
			"target":34962
		},
		{
			"buffer":0,
			"byteLength":288,
			"byteOffset":288,
			"target":34962
		},
		{
			"buffer":0,
			"byteLength":192,
			"byteOffset":576,
			"target":34962
		},
		{
			"buffer":0,
			"byteLength":72,
			"byteOffset":768,
			"target":34963
		},
		{
			"buffer":0,
			"byteLength":288,
			"byteOffset":840,
			"target":34962
		},
		{
			"buffer":0,
			"byteLength":288,
			"byteOffset":1128,
			"target":34962
		},
		{
			"buffer":0,
			"byteLength":192,
			"byteOffset":1416,
			"target":34962
		},
		{
			"buffer":0,
			"byteLength":1152,
			"byteOffset":1608,
			"target":34962
		},
		{
			"buffer":0,
			"byteLength":1152,
			"byteOffset":2760,
			"target":34962
		},
		{
			"buffer":0,
			"byteLength":768,
			"byteOffset":3912,
			"target":34962
		},
		{
			"buffer":0,
			"byteLength":264,
			"byteOffset":4680,
			"target":34963
		},
		{
			"buffer":0,
			"byteLength":288,
			"byteOffset":4944,
			"target":34962
		},
		{
			"buffer":0,
			"byteLength":288,
			"byteOffset":5232,
			"target":34962
		},
		{
			"buffer":0,
			"byteLength":192,
			"byteOffset":5520,
			"target":34962
		},
		{
			"buffer":0,
			"byteLength":288,
			"byteOffset":5712,
			"target":34962
		},
		{
			"buffer":0,
			"byteLength":288,
			"byteOffset":6000,
			"target":34962
		},
		{
			"buffer":0,
			"byteLength":192,
			"byteOffset":6288,
			"target":34962
		},
		{
			"buffer":0,
			"byteLength":288,
			"byteOffset":6480,
			"target":34962
		},
		{
			"buffer":0,
			"byteLength":288,
			"byteOffset":6768,
			"target":34962
		},
		{
			"buffer":0,
			"byteLength":192,
			"byteOffset":7056,
			"target":34962
		},
		{
			"buffer":0,
			"byteLength":432,
			"byteOffset":7248,
			"target":34962
		},
		{
			"buffer":0,
			"byteLength":432,
			"byteOffset":7680,
			"target":34962
		},
		{
			"buffer":0,
			"byteLength":288,
			"byteOffset":8112,
			"target":34962
		},
		{
			"buffer":0,
			"byteLength":120,
			"byteOffset":8400,
			"target":34963
		}
	],
	"buffers":[
		{
			"byteLength":8520,
			"uri":"hd_neon_sign.bin"
		}
	]
}
