{
	"asset":{
		"generator":"Khronos glTF Blender I/O v5.2.40",
		"version":"2.0"
	},
	"extensionsUsed":[
		"KHR_materials_emissive_strength"
	],
	"scene":0,
	"scenes":[
		{
			"name":"Scene",
			"nodes":[
				0,
				1,
				2,
				3,
				4
			]
		}
	],
	"nodes":[
		{
			"mesh":0,
			"name":"post"
		},
		{
			"mesh":1,
			"name":"ring0"
		},
		{
			"mesh":2,
			"name":"ring1"
		},
		{
			"mesh":3,
			"name":"ring2"
		},
		{
			"mesh":4,
			"name":"tip"
		}
	],
	"materials":[
		{
			"doubleSided":true,
			"name":"M_np",
			"pbrMetallicRoughness":{
				"baseColorFactor":[
					0.014310519210994244,
					0.016988052055239677,
					0.06003160774707794,
					1
				],
				"metallicFactor":0,
				"roughnessFactor":0.4000000059604645
			}
		},
		{
			"doubleSided":true,
			"emissiveFactor":[
				0.02982234006579952,
				1,
				0.9076177404946932
			],
			"extensions":{
				"KHR_materials_emissive_strength":{
					"emissiveStrength":1.6244829893112183
				}
			},
			"name":"M_nr0",
			"pbrMetallicRoughness":{
				"baseColorFactor":[
					0.02422294206917286,
					0.8122414946556091,
					0.7372047901153564,
					1
				],
				"metallicFactor":0,
				"roughnessFactor":0.8500000238418579
			}
		},
		{
			"doubleSided":true,
			"emissiveFactor":[
				1,
				0.07592611759901047,
				0.4423229396343231
			],
			"extensions":{
				"KHR_materials_emissive_strength":{
					"emissiveStrength":2
				}
			},
			"name":"M_nr1",
			"pbrMetallicRoughness":{
				"baseColorFactor":[
					1,
					0.07592611759901047,
					0.4423229396343231,
					1
				],
				"metallicFactor":0,
				"roughnessFactor":0.8500000238418579
			}
		},
		{
			"doubleSided":true,
			"emissiveFactor":[
				0.2590273320674896,
				0.10615606606006622,
				1
			],
			"extensions":{
				"KHR_materials_emissive_strength":{
					"emissiveStrength":2
				}
			},
			"name":"M_nr2",
			"pbrMetallicRoughness":{
				"baseColorFactor":[
					0.2590273320674896,
					0.10615606606006622,
					1,
					1
				],
				"metallicFactor":0,
				"roughnessFactor":0.8500000238418579
			}
		},
		{
			"doubleSided":true,
			"emissiveFactor":[
				0.12474094331264496,
				0.6940805315971375,
				1
			],
			"extensions":{
				"KHR_materials_emissive_strength":{
					"emissiveStrength":1.600000023841858
				}
			},
			"name":"M_nt",
			"pbrMetallicRoughness":{
				"baseColorFactor":[
					0.12474094331264496,
					0.6940805315971375,
					1,
					1
				],
				"metallicFactor":0,
				"roughnessFactor":0.8500000238418579
			}
		}
	],
	"meshes":[
		{
			"name":"Cube",
			"primitives":[
				{
					"attributes":{
						"POSITION":0,
						"NORMAL":1,
						"TEXCOORD_0":2
					},
					"indices":3,
					"material":0
				}
			]
		},
		{
			"name":"Cylinder",
			"primitives":[
				{
					"attributes":{
						"POSITION":4,
						"NORMAL":5,
						"TEXCOORD_0":6
					},
					"indices":7,
					"material":1
				}
			]
		},
		{
			"name":"Cylinder.001",
			"primitives":[
				{
					"attributes":{
						"POSITION":8,
						"NORMAL":9,
						"TEXCOORD_0":10
					},
					"indices":7,
					"material":2
				}
			]
		},
		{
			"name":"Cylinder.002",
			"primitives":[
				{
					"attributes":{
						"POSITION":11,
						"NORMAL":12,
						"TEXCOORD_0":13
					},
					"indices":7,
					"material":3
				}
			]
		},
		{
			"name":"Cube.001",
			"primitives":[
				{
					"attributes":{
						"POSITION":14,
						"NORMAL":15,
						"TEXCOORD_0":16
					},
					"indices":17,
					"material":4
				}
			]
		}
	],
	"accessors":[
		{
			"bufferView":0,
			"componentType":5126,
			"count":96,
			"max":[
				0.4000000059604645,
				3,
				0.4000000059604645
			],
			"min":[
				-0.4000000059604645,
				0,
				-0.4000000059604645
			],
			"type":"VEC3"
		},
		{
			"bufferView":1,
			"componentType":5126,
			"count":96,
			"type":"VEC3"
		},
		{
			"bufferView":2,
			"componentType":5126,
			"count":96,
			"type":"VEC2"
		},
		{
			"bufferView":3,
			"componentType":5123,
			"count":132,
			"type":"SCALAR"
		},
		{
			"bufferView":4,
			"componentType":5126,
			"count":72,
			"max":[
				0.550000011920929,
				0.7350000143051147,
				0.550000011920929
			],
			"min":[
				-0.550000011920929,
				0.6649999618530273,
				-0.550000011920929
			],
			"type":"VEC3"
		},
		{
			"bufferView":5,
			"componentType":5126,
			"count":72,
			"type":"VEC3"
		},
		{
			"bufferView":6,
			"componentType":5126,
			"count":72,
			"type":"VEC2"
		},
		{
			"bufferView":7,
			"componentType":5123,
			"count":132,
			"type":"SCALAR"
		},
		{
			"bufferView":8,
			"componentType":5126,
			"count":72,
			"max":[
				0.550000011920929,
				1.534999966621399,
				0.550000011920929
			],
			"min":[
				-0.550000011920929,
				1.465000033378601,
				-0.550000011920929
			],
			"type":"VEC3"
		},
		{
			"bufferView":9,
			"componentType":5126,
			"count":72,
			"type":"VEC3"
		},
		{
			"bufferView":10,
			"componentType":5126,
			"count":72,
			"type":"VEC2"
		},
		{
			"bufferView":11,
			"componentType":5126,
			"count":72,
			"max":[
				0.550000011920929,
				2.3350000381469727,
				0.550000011920929
			],
			"min":[
				-0.550000011920929,
				2.2649998664855957,
				-0.550000011920929
			],
			"type":"VEC3"
		},
		{
			"bufferView":12,
			"componentType":5126,
			"count":72,
			"type":"VEC3"
		},
		{
			"bufferView":13,
			"componentType":5126,
			"count":72,
			"type":"VEC2"
		},
		{
			"bufferView":14,
			"componentType":5126,
			"count":24,
			"max":[
				0.46000000834465027,
				3.129999876022339,
				0.46000000834465027
			],
			"min":[
				-0.46000000834465027,
				2.9700000286102295,
				-0.46000000834465027
			],
			"type":"VEC3"
		},
		{
			"bufferView":15,
			"componentType":5126,
			"count":24,
			"type":"VEC3"
		},
		{
			"bufferView":16,
			"componentType":5126,
			"count":24,
			"type":"VEC2"
		},
		{
			"bufferView":17,
			"componentType":5123,
			"count":36,
			"type":"SCALAR"
		}
	],
	"bufferViews":[
		{
			"buffer":0,
			"byteLength":1152,
			"byteOffset":0,
			"target":34962
		},
		{
			"buffer":0,
			"byteLength":1152,
			"byteOffset":1152,
			"target":34962
		},
		{
			"buffer":0,
			"byteLength":768,
			"byteOffset":2304,
			"target":34962
		},
		{
			"buffer":0,
			"byteLength":264,
			"byteOffset":3072,
			"target":34963
		},
		{
			"buffer":0,
			"byteLength":864,
			"byteOffset":3336,
			"target":34962
		},
		{
			"buffer":0,
			"byteLength":864,
			"byteOffset":4200,
			"target":34962
		},
		{
			"buffer":0,
			"byteLength":576,
			"byteOffset":5064,
			"target":34962
		},
		{
			"buffer":0,
			"byteLength":264,
			"byteOffset":5640,
			"target":34963
		},
		{
			"buffer":0,
			"byteLength":864,
			"byteOffset":5904,
			"target":34962
		},
		{
			"buffer":0,
			"byteLength":864,
			"byteOffset":6768,
			"target":34962
		},
		{
			"buffer":0,
			"byteLength":576,
			"byteOffset":7632,
			"target":34962
		},
		{
			"buffer":0,
			"byteLength":864,
			"byteOffset":8208,
			"target":34962
		},
		{
			"buffer":0,
			"byteLength":864,
			"byteOffset":9072,
			"target":34962
		},
		{
			"buffer":0,
			"byteLength":576,
			"byteOffset":9936,
			"target":34962
		},
		{
			"buffer":0,
			"byteLength":288,
			"byteOffset":10512,
			"target":34962
		},
		{
			"buffer":0,
			"byteLength":288,
			"byteOffset":10800,
			"target":34962
		},
		{
			"buffer":0,
			"byteLength":192,
			"byteOffset":11088,
			"target":34962
		},
		{
			"buffer":0,
			"byteLength":72,
			"byteOffset":11280,
			"target":34963
		}
	],
	"buffers":[
		{
			"byteLength":11352,
			"uri":"hd_neon_pylon.bin"
		}
	]
}
