{
	"asset":{
		"generator":"Khronos glTF Blender I/O v5.2.40",
		"version":"2.0"
	},
	"scene":0,
	"scenes":[
		{
			"name":"Scene",
			"nodes":[
				0,
				1,
				2,
				3,
				4,
				5
			]
		}
	],
	"nodes":[
		{
			"mesh":0,
			"name":"cap"
		},
		{
			"mesh":1,
			"name":"seg0"
		},
		{
			"mesh":2,
			"name":"seg1"
		},
		{
			"mesh":3,
			"name":"seg2"
		},
		{
			"mesh":4,
			"name":"seg3"
		},
		{
			"mesh":5,
			"name":"seg4"
		}
	],
	"materials":[
		{
			"doubleSided":true,
			"name":"M_rc",
			"pbrMetallicRoughness":{
				"baseColorFactor":[
					0.39929330348968506,
					0.10114516317844391,
					0.03561437129974365,
					1
				],
				"metallicFactor":0,
				"roughnessFactor":0.8500000238418579
			}
		},
		{
			"doubleSided":true,
			"name":"M_rs0",
			"pbrMetallicRoughness":{
				"baseColorFactor":[
					0.535641610622406,
					0.16364067792892456,
					0.06190747395157814,
					1
				],
				"metallicFactor":0,
				"roughnessFactor":0.8500000238418579
			}
		},
		{
			"doubleSided":true,
			"name":"M_rs1",
			"pbrMetallicRoughness":{
				"baseColorFactor":[
					0.5924380421638489,
					0.2590273320674896,
					0.10114516317844391,
					1
				],
				"metallicFactor":0,
				"roughnessFactor":0.8500000238418579
			}
		},
		{
			"doubleSided":true,
			"name":"M_rs2",
			"pbrMetallicRoughness":{
				"baseColorFactor":[
					0.7518950700759888,
					0.47044023871421814,
					0.14497213065624237,
					1
				],
				"metallicFactor":0,
				"roughnessFactor":0.8500000238418579
			}
		},
		{
			"doubleSided":true,
			"name":"M_rs3",
			"pbrMetallicRoughness":{
				"baseColorFactor":[
					0.535641610622406,
					0.16364067792892456,
					0.06190747395157814,
					1
				],
				"metallicFactor":0,
				"roughnessFactor":0.8500000238418579
			}
		},
		{
			"doubleSided":true,
			"name":"M_rs4",
			"pbrMetallicRoughness":{
				"baseColorFactor":[
					0.5924380421638489,
					0.2590273320674896,
					0.10114516317844391,
					1
				],
				"metallicFactor":0,
				"roughnessFactor":0.8500000238418579
			}
		}
	],
	"meshes":[
		{
			"name":"Icosphere",
			"primitives":[
				{
					"attributes":{
						"POSITION":0,
						"NORMAL":1,
						"TEXCOORD_0":2
					},
					"indices":3,
					"material":0
				}
			]
		},
		{
			"name":"Cylinder",
			"primitives":[
				{
					"attributes":{
						"POSITION":4,
						"NORMAL":5,
						"TEXCOORD_0":6
					},
					"indices":7,
					"material":1
				}
			]
		},
		{
			"name":"Cylinder.001",
			"primitives":[
				{
					"attributes":{
						"POSITION":8,
						"NORMAL":9,
						"TEXCOORD_0":10
					},
					"indices":11,
					"material":2
				}
			]
		},
		{
			"name":"Cylinder.002",
			"primitives":[
				{
					"attributes":{
						"POSITION":12,
						"NORMAL":13,
						"TEXCOORD_0":14
					},
					"indices":15,
					"material":3
				}
			]
		},
		{
			"name":"Cylinder.003",
			"primitives":[
				{
					"attributes":{
						"POSITION":16,
						"NORMAL":17,
						"TEXCOORD_0":18
					},
					"indices":19,
					"material":4
				}
			]
		},
		{
			"name":"Cylinder.004",
			"primitives":[
				{
					"attributes":{
						"POSITION":20,
						"NORMAL":21,
						"TEXCOORD_0":22
					},
					"indices":23,
					"material":5
				}
			]
		}
	],
	"accessors":[
		{
			"bufferView":0,
			"componentType":5126,
			"count":60,
			"max":[
				0.742347776889801,
				5.099254131317139,
				0.6488116383552551
			],
			"min":[
				-0.7225214838981628,
				4.4145708084106445,
				-0.663654088973999
			],
			"type":"VEC3"
		},
		{
			"bufferView":1,
			"componentType":5126,
			"count":60,
			"type":"VEC3"
		},
		{
			"bufferView":2,
			"componentType":5126,
			"count":60,
			"type":"VEC2"
		},
		{
			"bufferView":3,
			"componentType":5123,
			"count":60,
			"type":"SCALAR"
		},
		{
			"bufferView":4,
			"componentType":5126,
			"count":54,
			"max":[
				0.7008827328681946,
				0.9238258004188538,
				0.7945470809936523
			],
			"min":[
				-0.7294676899909973,
				-0.019160615280270576,
				-0.7128027081489563
			],
			"type":"VEC3"
		},
		{
			"bufferView":5,
			"componentType":5126,
			"count":54,
			"type":"VEC3"
		},
		{
			"bufferView":6,
			"componentType":5126,
			"count":54,
			"type":"VEC2"
		},
		{
			"bufferView":7,
			"componentType":5123,
			"count":96,
			"type":"SCALAR"
		},
		{
			"bufferView":8,
			"componentType":5126,
			"count":54,
			"max":[
				0.6067572236061096,
				1.8789291381835938,
				0.6553781032562256
			],
			"min":[
				-0.774044394493103,
				0.7587183117866516,
				-0.7032398581504822
			],
			"type":"VEC3"
		},
		{
			"bufferView":9,
			"componentType":5126,
			"count":54,
			"type":"VEC3"
		},
		{
			"bufferView":10,
			"componentType":5126,
			"count":54,
			"type":"VEC2"
		},
		{
			"bufferView":11,
			"componentType":5123,
			"count":96,
			"type":"SCALAR"
		},
		{
			"bufferView":12,
			"componentType":5126,
			"count":54,
			"max":[
				0.5634006261825562,
				2.824486017227173,
				0.5841965675354004
			],
			"min":[
				-0.6850595474243164,
				1.7015190124511719,
				-0.644509494304657
			],
			"type":"VEC3"
		},
		{
			"bufferView":13,
			"componentType":5126,
			"count":54,
			"type":"VEC3"
		},
		{
			"bufferView":14,
			"componentType":5126,
			"count":54,
			"type":"VEC2"
		},
		{
			"bufferView":15,
			"componentType":5123,
			"count":96,
			"type":"SCALAR"
		},
		{
			"bufferView":16,
			"componentType":5126,
			"count":54,
			"max":[
				0.47048428654670715,
				3.677971363067627,
				0.5502145290374756
			],
			"min":[
				-0.5996114015579224,
				2.662909507751465,
				-0.5157007575035095
			],
			"type":"VEC3"
		},
		{
			"bufferView":17,
			"componentType":5126,
			"count":54,
			"type":"VEC3"
		},
		{
			"bufferView":18,
			"componentType":5126,
			"count":54,
			"type":"VEC2"
		},
		{
			"bufferView":19,
			"componentType":5123,
			"count":96,
			"type":"SCALAR"
		},
		{
			"bufferView":20,
			"componentType":5126,
			"count":54,
			"max":[
				0.4696848392486572,
				4.553790092468262,
				0.41991373896598816
			],
			"min":[
				-0.466431200504303,
				3.5169320106506348,
				-0.45426371693611145
			],
			"type":"VEC3"
		},
		{
			"bufferView":21,
			"componentType":5126,
			"count":54,
			"type":"VEC3"
		},
		{
			"bufferView":22,
			"componentType":5126,
			"count":54,
			"type":"VEC2"
		},
		{
			"bufferView":23,
			"componentType":5123,
			"count":96,
			"type":"SCALAR"
		}
	],
	"bufferViews":[
		{
			"buffer":0,
			"byteLength":720,
			"byteOffset":0,
			"target":34962
		},
		{
			"buffer":0,
			"byteLength":720,
			"byteOffset":720,
			"target":34962
		},
		{
			"buffer":0,
			"byteLength":480,
			"byteOffset":1440,
			"target":34962
		},
		{
			"buffer":0,
			"byteLength":120,
			"byteOffset":1920,
			"target":34963
		},
		{
			"buffer":0,
			"byteLength":648,
			"byteOffset":2040,
			"target":34962
		},
		{
			"buffer":0,
			"byteLength":648,
			"byteOffset":2688,
			"target":34962
		},
		{
			"buffer":0,
			"byteLength":432,
			"byteOffset":3336,
			"target":34962
		},
		{
			"buffer":0,
			"byteLength":192,
			"byteOffset":3768,
			"target":34963
		},
		{
			"buffer":0,
			"byteLength":648,
			"byteOffset":3960,
			"target":34962
		},
		{
			"buffer":0,
			"byteLength":648,
			"byteOffset":4608,
			"target":34962
		},
		{
			"buffer":0,
			"byteLength":432,
			"byteOffset":5256,
			"target":34962
		},
		{
			"buffer":0,
			"byteLength":192,
			"byteOffset":5688,
			"target":34963
		},
		{
			"buffer":0,
			"byteLength":648,
			"byteOffset":5880,
			"target":34962
		},
		{
			"buffer":0,
			"byteLength":648,
			"byteOffset":6528,
			"target":34962
		},
		{
			"buffer":0,
			"byteLength":432,
			"byteOffset":7176,
			"target":34962
		},
		{
			"buffer":0,
			"byteLength":192,
			"byteOffset":7608,
			"target":34963
		},
		{
			"buffer":0,
			"byteLength":648,
			"byteOffset":7800,
			"target":34962
		},
		{
			"buffer":0,
			"byteLength":648,
			"byteOffset":8448,
			"target":34962
		},
		{
			"buffer":0,
			"byteLength":432,
			"byteOffset":9096,
			"target":34962
		},
		{
			"buffer":0,
			"byteLength":192,
			"byteOffset":9528,
			"target":34963
		},
		{
			"buffer":0,
			"byteLength":648,
			"byteOffset":9720,
			"target":34962
		},
		{
			"buffer":0,
			"byteLength":648,
			"byteOffset":10368,
			"target":34962
		},
		{
			"buffer":0,
			"byteLength":432,
			"byteOffset":11016,
			"target":34962
		},
		{
			"buffer":0,
			"byteLength":192,
			"byteOffset":11448,
			"target":34963
		}
	],
	"buffers":[
		{
			"byteLength":11640,
			"uri":"hd_rockspire.bin"
		}
	]
}
