{
	"asset":{
		"generator":"Khronos glTF Blender I/O v5.2.40",
		"version":"2.0"
	},
	"scene":0,
	"scenes":[
		{
			"name":"Scene",
			"nodes":[
				0,
				1,
				2,
				3,
				4,
				5,
				6,
				7,
				8,
				9,
				10,
				11,
				12,
				13,
				14,
				15,
				16,
				17,
				18,
				19,
				20,
				21,
				22,
				23,
				24,
				25,
				26,
				27,
				28,
				29,
				30
			]
		}
	],
	"nodes":[
		{
			"mesh":0,
			"name":"path"
		},
		{
			"mesh":1,
			"name":"peb1"
		},
		{
			"mesh":2,
			"name":"peb2"
		},
		{
			"mesh":3,
			"name":"peb4"
		},
		{
			"mesh":4,
			"name":"peb5"
		},
		{
			"mesh":5,
			"name":"peb7"
		},
		{
			"mesh":6,
			"name":"peb8"
		},
		{
			"mesh":7,
			"name":"peb10"
		},
		{
			"mesh":8,
			"name":"peb11"
		},
		{
			"mesh":9,
			"name":"peb13"
		},
		{
			"mesh":10,
			"name":"peb14"
		},
		{
			"mesh":11,
			"name":"peb16"
		},
		{
			"mesh":12,
			"name":"peb17"
		},
		{
			"mesh":13,
			"name":"peb19"
		},
		{
			"mesh":14,
			"name":"peb20"
		},
		{
			"mesh":15,
			"name":"peb22"
		},
		{
			"mesh":16,
			"name":"peb23"
		},
		{
			"mesh":17,
			"name":"peb25"
		},
		{
			"mesh":18,
			"name":"rut0"
		},
		{
			"mesh":19,
			"name":"rut1"
		},
		{
			"mesh":20,
			"name":"tuft0"
		},
		{
			"mesh":21,
			"name":"tuft3"
		},
		{
			"mesh":22,
			"name":"tuft6"
		},
		{
			"mesh":23,
			"name":"tuft9"
		},
		{
			"mesh":24,
			"name":"tuft12"
		},
		{
			"mesh":25,
			"name":"tuft15"
		},
		{
			"mesh":26,
			"name":"tuft18"
		},
		{
			"mesh":27,
			"name":"tuft21"
		},
		{
			"mesh":28,
			"name":"tuft24"
		},
		{
			"mesh":29,
			"name":"verge0"
		},
		{
			"mesh":30,
			"name":"verge1"
		}
	],
	"materials":[
		{
			"doubleSided":true,
			"name":"M_path",
			"pbrMetallicRoughness":{
				"baseColorFactor":[
					0.4936161935329437,
					0.2590273320674896,
					0.10114516317844391,
					1
				],
				"metallicFactor":0,
				"roughnessFactor":0.949999988079071
			}
		},
		{
			"doubleSided":true,
			"name":"M_pb1",
			"pbrMetallicRoughness":{
				"baseColorFactor":[
					0.7226724624633789,
					0.5924380421638489,
					0.39929330348968506,
					1
				],
				"metallicFactor":0,
				"roughnessFactor":0.8500000238418579
			}
		},
		{
			"doubleSided":true,
			"name":"M_pb2",
			"pbrMetallicRoughness":{
				"baseColorFactor":[
					0.7226724624633789,
					0.5924380421638489,
					0.39929330348968506,
					1
				],
				"metallicFactor":0,
				"roughnessFactor":0.8500000238418579
			}
		},
		{
			"doubleSided":true,
			"name":"M_pb4",
			"pbrMetallicRoughness":{
				"baseColorFactor":[
					0.7226724624633789,
					0.5924380421638489,
					0.39929330348968506,
					1
				],
				"metallicFactor":0,
				"roughnessFactor":0.8500000238418579
			}
		},
		{
			"doubleSided":true,
			"name":"M_pb5",
			"pbrMetallicRoughness":{
				"baseColorFactor":[
					0.7226724624633789,
					0.5924380421638489,
					0.39929330348968506,
					1
				],
				"metallicFactor":0,
				"roughnessFactor":0.8500000238418579
			}
		},
		{
			"doubleSided":true,
			"name":"M_pb7",
			"pbrMetallicRoughness":{
				"baseColorFactor":[
					0.7226724624633789,
					0.5924380421638489,
					0.39929330348968506,
					1
				],
				"metallicFactor":0,
				"roughnessFactor":0.8500000238418579
			}
		},
		{
			"doubleSided":true,
			"name":"M_pb8",
			"pbrMetallicRoughness":{
				"baseColorFactor":[
					0.7226724624633789,
					0.5924380421638489,
					0.39929330348968506,
					1
				],
				"metallicFactor":0,
				"roughnessFactor":0.8500000238418579
			}
		},
		{
			"doubleSided":true,
			"name":"M_pb10",
			"pbrMetallicRoughness":{
				"baseColorFactor":[
					0.7226724624633789,
					0.5924380421638489,
					0.39929330348968506,
					1
				],
				"metallicFactor":0,
				"roughnessFactor":0.8500000238418579
			}
		},
		{
			"doubleSided":true,
			"name":"M_pb11",
			"pbrMetallicRoughness":{
				"baseColorFactor":[
					0.7226724624633789,
					0.5924380421638489,
					0.39929330348968506,
					1
				],
				"metallicFactor":0,
				"roughnessFactor":0.8500000238418579
			}
		},
		{
			"doubleSided":true,
			"name":"M_pb13",
			"pbrMetallicRoughness":{
				"baseColorFactor":[
					0.7226724624633789,
					0.5924380421638489,
					0.39929330348968506,
					1
				],
				"metallicFactor":0,
				"roughnessFactor":0.8500000238418579
			}
		},
		{
			"doubleSided":true,
			"name":"M_pb14",
			"pbrMetallicRoughness":{
				"baseColorFactor":[
					0.7226724624633789,
					0.5924380421638489,
					0.39929330348968506,
					1
				],
				"metallicFactor":0,
				"roughnessFactor":0.8500000238418579
			}
		},
		{
			"doubleSided":true,
			"name":"M_pb16",
			"pbrMetallicRoughness":{
				"baseColorFactor":[
					0.7226724624633789,
					0.5924380421638489,
					0.39929330348968506,
					1
				],
				"metallicFactor":0,
				"roughnessFactor":0.8500000238418579
			}
		},
		{
			"doubleSided":true,
			"name":"M_pb17",
			"pbrMetallicRoughness":{
				"baseColorFactor":[
					0.7226724624633789,
					0.5924380421638489,
					0.39929330348968506,
					1
				],
				"metallicFactor":0,
				"roughnessFactor":0.8500000238418579
			}
		},
		{
			"doubleSided":true,
			"name":"M_pb19",
			"pbrMetallicRoughness":{
				"baseColorFactor":[
					0.7226724624633789,
					0.5924380421638489,
					0.39929330348968506,
					1
				],
				"metallicFactor":0,
				"roughnessFactor":0.8500000238418579
			}
		},
		{
			"doubleSided":true,
			"name":"M_pb20",
			"pbrMetallicRoughness":{
				"baseColorFactor":[
					0.7226724624633789,
					0.5924380421638489,
					0.39929330348968506,
					1
				],
				"metallicFactor":0,
				"roughnessFactor":0.8500000238418579
			}
		},
		{
			"doubleSided":true,
			"name":"M_pb22",
			"pbrMetallicRoughness":{
				"baseColorFactor":[
					0.7226724624633789,
					0.5924380421638489,
					0.39929330348968506,
					1
				],
				"metallicFactor":0,
				"roughnessFactor":0.8500000238418579
			}
		},
		{
			"doubleSided":true,
			"name":"M_pb23",
			"pbrMetallicRoughness":{
				"baseColorFactor":[
					0.7226724624633789,
					0.5924380421638489,
					0.39929330348968506,
					1
				],
				"metallicFactor":0,
				"roughnessFactor":0.8500000238418579
			}
		},
		{
			"doubleSided":true,
			"name":"M_pb25",
			"pbrMetallicRoughness":{
				"baseColorFactor":[
					0.7226724624633789,
					0.5924380421638489,
					0.39929330348968506,
					1
				],
				"metallicFactor":0,
				"roughnessFactor":0.8500000238418579
			}
		},
		{
			"doubleSided":true,
			"name":"M_rut0",
			"pbrMetallicRoughness":{
				"baseColorFactor":[
					0.33922332525253296,
					0.1668722778558731,
					0.06190747395157814,
					1
				],
				"metallicFactor":0,
				"roughnessFactor":0.9800000190734863
			}
		},
		{
			"doubleSided":true,
			"name":"M_rut1",
			"pbrMetallicRoughness":{
				"baseColorFactor":[
					0.33922332525253296,
					0.1668722778558731,
					0.06190747395157814,
					1
				],
				"metallicFactor":0,
				"roughnessFactor":0.9800000190734863
			}
		},
		{
			"doubleSided":true,
			"name":"M_tf0",
			"pbrMetallicRoughness":{
				"baseColorFactor":[
					0.1939721703529358,
					0.6592239737510681,
					0.0915183499455452,
					1
				],
				"metallicFactor":0,
				"roughnessFactor":0.949999988079071
			}
		},
		{
			"doubleSided":true,
			"name":"M_tf3",
			"pbrMetallicRoughness":{
				"baseColorFactor":[
					0.1939721703529358,
					0.6592239737510681,
					0.0915183499455452,
					1
				],
				"metallicFactor":0,
				"roughnessFactor":0.949999988079071
			}
		},
		{
			"doubleSided":true,
			"name":"M_tf6",
			"pbrMetallicRoughness":{
				"baseColorFactor":[
					0.1939721703529358,
					0.6592239737510681,
					0.0915183499455452,
					1
				],
				"metallicFactor":0,
				"roughnessFactor":0.949999988079071
			}
		},
		{
			"doubleSided":true,
			"name":"M_tf9",
			"pbrMetallicRoughness":{
				"baseColorFactor":[
					0.1939721703529358,
					0.6592239737510681,
					0.0915183499455452,
					1
				],
				"metallicFactor":0,
				"roughnessFactor":0.949999988079071
			}
		},
		{
			"doubleSided":true,
			"name":"M_tf12",
			"pbrMetallicRoughness":{
				"baseColorFactor":[
					0.1939721703529358,
					0.6592239737510681,
					0.0915183499455452,
					1
				],
				"metallicFactor":0,
				"roughnessFactor":0.949999988079071
			}
		},
		{
			"doubleSided":true,
			"name":"M_tf15",
			"pbrMetallicRoughness":{
				"baseColorFactor":[
					0.1939721703529358,
					0.6592239737510681,
					0.0915183499455452,
					1
				],
				"metallicFactor":0,
				"roughnessFactor":0.949999988079071
			}
		},
		{
			"doubleSided":true,
			"name":"M_tf18",
			"pbrMetallicRoughness":{
				"baseColorFactor":[
					0.1939721703529358,
					0.6592239737510681,
					0.0915183499455452,
					1
				],
				"metallicFactor":0,
				"roughnessFactor":0.949999988079071
			}
		},
		{
			"doubleSided":true,
			"name":"M_tf21",
			"pbrMetallicRoughness":{
				"baseColorFactor":[
					0.1939721703529358,
					0.6592239737510681,
					0.0915183499455452,
					1
				],
				"metallicFactor":0,
				"roughnessFactor":0.949999988079071
			}
		},
		{
			"doubleSided":true,
			"name":"M_tf24",
			"pbrMetallicRoughness":{
				"baseColorFactor":[
					0.1939721703529358,
					0.6592239737510681,
					0.0915183499455452,
					1
				],
				"metallicFactor":0,
				"roughnessFactor":0.949999988079071
			}
		},
		{
			"doubleSided":true,
			"name":"M_v0",
			"pbrMetallicRoughness":{
				"baseColorFactor":[
					0.09387587010860443,
					0.39929330348968506,
					0.044552627950906754,
					1
				],
				"metallicFactor":0,
				"roughnessFactor":0.8500000238418579
			}
		},
		{
			"doubleSided":true,
			"name":"M_v1",
			"pbrMetallicRoughness":{
				"baseColorFactor":[
					0.09387587010860443,
					0.39929330348968506,
					0.044552627950906754,
					1
				],
				"metallicFactor":0,
				"roughnessFactor":0.8500000238418579
			}
		}
	],
	"meshes":[
		{
			"name":"Cube",
			"primitives":[
				{
					"attributes":{
						"POSITION":0,
						"NORMAL":1,
						"TEXCOORD_0":2
					},
					"indices":3,
					"material":0
				}
			]
		},
		{
			"name":"Icosphere.001",
			"primitives":[
				{
					"attributes":{
						"POSITION":4,
						"NORMAL":5,
						"TEXCOORD_0":6
					},
					"indices":7,
					"material":1
				}
			]
		},
		{
			"name":"Icosphere.002",
			"primitives":[
				{
					"attributes":{
						"POSITION":8,
						"NORMAL":9,
						"TEXCOORD_0":10
					},
					"indices":7,
					"material":2
				}
			]
		},
		{
			"name":"Icosphere.004",
			"primitives":[
				{
					"attributes":{
						"POSITION":11,
						"NORMAL":12,
						"TEXCOORD_0":13
					},
					"indices":7,
					"material":3
				}
			]
		},
		{
			"name":"Icosphere.005",
			"primitives":[
				{
					"attributes":{
						"POSITION":14,
						"NORMAL":15,
						"TEXCOORD_0":16
					},
					"indices":7,
					"material":4
				}
			]
		},
		{
			"name":"Icosphere.007",
			"primitives":[
				{
					"attributes":{
						"POSITION":17,
						"NORMAL":18,
						"TEXCOORD_0":19
					},
					"indices":7,
					"material":5
				}
			]
		},
		{
			"name":"Icosphere.008",
			"primitives":[
				{
					"attributes":{
						"POSITION":20,
						"NORMAL":21,
						"TEXCOORD_0":22
					},
					"indices":7,
					"material":6
				}
			]
		},
		{
			"name":"Icosphere.010",
			"primitives":[
				{
					"attributes":{
						"POSITION":23,
						"NORMAL":24,
						"TEXCOORD_0":25
					},
					"indices":7,
					"material":7
				}
			]
		},
		{
			"name":"Icosphere.011",
			"primitives":[
				{
					"attributes":{
						"POSITION":26,
						"NORMAL":27,
						"TEXCOORD_0":28
					},
					"indices":7,
					"material":8
				}
			]
		},
		{
			"name":"Icosphere.013",
			"primitives":[
				{
					"attributes":{
						"POSITION":29,
						"NORMAL":30,
						"TEXCOORD_0":31
					},
					"indices":7,
					"material":9
				}
			]
		},
		{
			"name":"Icosphere.014",
			"primitives":[
				{
					"attributes":{
						"POSITION":32,
						"NORMAL":33,
						"TEXCOORD_0":34
					},
					"indices":7,
					"material":10
				}
			]
		},
		{
			"name":"Icosphere.016",
			"primitives":[
				{
					"attributes":{
						"POSITION":35,
						"NORMAL":36,
						"TEXCOORD_0":37
					},
					"indices":7,
					"material":11
				}
			]
		},
		{
			"name":"Icosphere.017",
			"primitives":[
				{
					"attributes":{
						"POSITION":38,
						"NORMAL":39,
						"TEXCOORD_0":40
					},
					"indices":7,
					"material":12
				}
			]
		},
		{
			"name":"Icosphere.019",
			"primitives":[
				{
					"attributes":{
						"POSITION":41,
						"NORMAL":42,
						"TEXCOORD_0":43
					},
					"indices":7,
					"material":13
				}
			]
		},
		{
			"name":"Icosphere.020",
			"primitives":[
				{
					"attributes":{
						"POSITION":44,
						"NORMAL":45,
						"TEXCOORD_0":46
					},
					"indices":7,
					"material":14
				}
			]
		},
		{
			"name":"Icosphere.022",
			"primitives":[
				{
					"attributes":{
						"POSITION":47,
						"NORMAL":48,
						"TEXCOORD_0":49
					},
					"indices":7,
					"material":15
				}
			]
		},
		{
			"name":"Icosphere.023",
			"primitives":[
				{
					"attributes":{
						"POSITION":50,
						"NORMAL":51,
						"TEXCOORD_0":52
					},
					"indices":7,
					"material":16
				}
			]
		},
		{
			"name":"Icosphere.025",
			"primitives":[
				{
					"attributes":{
						"POSITION":53,
						"NORMAL":54,
						"TEXCOORD_0":55
					},
					"indices":7,
					"material":17
				}
			]
		},
		{
			"name":"Cube.001",
			"primitives":[
				{
					"attributes":{
						"POSITION":56,
						"NORMAL":57,
						"TEXCOORD_0":58
					},
					"indices":59,
					"material":18
				}
			]
		},
		{
			"name":"Cube.002",
			"primitives":[
				{
					"attributes":{
						"POSITION":60,
						"NORMAL":61,
						"TEXCOORD_0":62
					},
					"indices":59,
					"material":19
				}
			]
		},
		{
			"name":"Icosphere",
			"primitives":[
				{
					"attributes":{
						"POSITION":63,
						"NORMAL":64,
						"TEXCOORD_0":65
					},
					"indices":7,
					"material":20
				}
			]
		},
		{
			"name":"Icosphere.003",
			"primitives":[
				{
					"attributes":{
						"POSITION":66,
						"NORMAL":67,
						"TEXCOORD_0":68
					},
					"indices":7,
					"material":21
				}
			]
		},
		{
			"name":"Icosphere.006",
			"primitives":[
				{
					"attributes":{
						"POSITION":69,
						"NORMAL":70,
						"TEXCOORD_0":71
					},
					"indices":7,
					"material":22
				}
			]
		},
		{
			"name":"Icosphere.009",
			"primitives":[
				{
					"attributes":{
						"POSITION":72,
						"NORMAL":73,
						"TEXCOORD_0":74
					},
					"indices":7,
					"material":23
				}
			]
		},
		{
			"name":"Icosphere.012",
			"primitives":[
				{
					"attributes":{
						"POSITION":75,
						"NORMAL":76,
						"TEXCOORD_0":77
					},
					"indices":7,
					"material":24
				}
			]
		},
		{
			"name":"Icosphere.015",
			"primitives":[
				{
					"attributes":{
						"POSITION":78,
						"NORMAL":79,
						"TEXCOORD_0":80
					},
					"indices":7,
					"material":25
				}
			]
		},
		{
			"name":"Icosphere.018",
			"primitives":[
				{
					"attributes":{
						"POSITION":81,
						"NORMAL":82,
						"TEXCOORD_0":83
					},
					"indices":7,
					"material":26
				}
			]
		},
		{
			"name":"Icosphere.021",
			"primitives":[
				{
					"attributes":{
						"POSITION":84,
						"NORMAL":85,
						"TEXCOORD_0":86
					},
					"indices":7,
					"material":27
				}
			]
		},
		{
			"name":"Icosphere.024",
			"primitives":[
				{
					"attributes":{
						"POSITION":87,
						"NORMAL":88,
						"TEXCOORD_0":89
					},
					"indices":7,
					"material":28
				}
			]
		},
		{
			"name":"Cube.003",
			"primitives":[
				{
					"attributes":{
						"POSITION":90,
						"NORMAL":91,
						"TEXCOORD_0":92
					},
					"indices":3,
					"material":29
				}
			]
		},
		{
			"name":"Cube.004",
			"primitives":[
				{
					"attributes":{
						"POSITION":93,
						"NORMAL":94,
						"TEXCOORD_0":95
					},
					"indices":3,
					"material":30
				}
			]
		}
	],
	"accessors":[
		{
			"bufferView":0,
			"componentType":5126,
			"count":96,
			"max":[
				4.699999809265137,
				0,
				12
			],
			"min":[
				-4.699999809265137,
				-0.2199999988079071,
				-12
			],
			"type":"VEC3"
		},
		{
			"bufferView":1,
			"componentType":5126,
			"count":96,
			"type":"VEC3"
		},
		{
			"bufferView":2,
			"componentType":5126,
			"count":96,
			"type":"VEC2"
		},
		{
			"bufferView":3,
			"componentType":5123,
			"count":132,
			"type":"SCALAR"
		},
		{
			"bufferView":4,
			"componentType":5126,
			"count":22,
			"max":[
				-0.7716487646102905,
				0.024873411282896996,
				-4.087383270263672
			],
			"min":[
				-0.9750427603721619,
				-0.039493098855018616,
				-4.2649359703063965
			],
			"type":"VEC3"
		},
		{
			"bufferView":5,
			"componentType":5126,
			"count":22,
			"type":"VEC3"
		},
		{
			"bufferView":6,
			"componentType":5126,
			"count":22,
			"type":"VEC2"
		},
		{
			"bufferView":7,
			"componentType":5123,
			"count":60,
			"type":"SCALAR"
		},
		{
			"bufferView":8,
			"componentType":5126,
			"count":22,
			"max":[
				-2.788423538208008,
				0.030910611152648926,
				8.926749229431152
			],
			"min":[
				-2.9911859035491943,
				-0.06660692393779755,
				8.762007713317871
			],
			"type":"VEC3"
		},
		{
			"bufferView":9,
			"componentType":5126,
			"count":22,
			"type":"VEC3"
		},
		{
			"bufferView":10,
			"componentType":5126,
			"count":22,
			"type":"VEC2"
		},
		{
			"bufferView":11,
			"componentType":5126,
			"count":22,
			"max":[
				-2.7227816581726074,
				0.051199980080127716,
				-5.391986846923828
			],
			"min":[
				-2.92691707611084,
				-0.04623650759458542,
				-5.5638532638549805
			],
			"type":"VEC3"
		},
		{
			"bufferView":12,
			"componentType":5126,
			"count":22,
			"type":"VEC3"
		},
		{
			"bufferView":13,
			"componentType":5126,
			"count":22,
			"type":"VEC2"
		},
		{
			"bufferView":14,
			"componentType":5126,
			"count":22,
			"max":[
				1.4157209396362305,
				0.060669828206300735,
				8.364629745483398
			],
			"min":[
				1.2045494318008423,
				-0.038332317024469376,
				8.224658012390137
			],
			"type":"VEC3"
		},
		{
			"bufferView":15,
			"componentType":5126,
			"count":22,
			"type":"VEC3"
		},
		{
			"bufferView":16,
			"componentType":5126,
			"count":22,
			"type":"VEC2"
		},
		{
			"bufferView":17,
			"componentType":5126,
			"count":22,
			"max":[
				-0.6016620397567749,
				0.05369998514652252,
				-11.233880043029785
			],
			"min":[
				-0.7990043759346008,
				-0.042874936014413834,
				-11.41280460357666
			],
			"type":"VEC3"
		},
		{
			"bufferView":18,
			"componentType":5126,
			"count":22,
			"type":"VEC3"
		},
		{
			"bufferView":19,
			"componentType":5126,
			"count":22,
			"type":"VEC2"
		},
		{
			"bufferView":20,
			"componentType":5126,
			"count":22,
			"max":[
				-3.165811538696289,
				0.05462082102894783,
				11.029638290405273
			],
			"min":[
				-3.3536834716796875,
				-0.06242014840245247,
				10.839256286621094
			],
			"type":"VEC3"
		},
		{
			"bufferView":21,
			"componentType":5126,
			"count":22,
			"type":"VEC3"
		},
		{
			"bufferView":22,
			"componentType":5126,
			"count":22,
			"type":"VEC2"
		},
		{
			"bufferView":23,
			"componentType":5126,
			"count":22,
			"max":[
				-2.296116352081299,
				0.052938930690288544,
				3.9658892154693604
			],
			"min":[
				-2.5117950439453125,
				-0.03531452268362045,
				3.7934672832489014
			],
			"type":"VEC3"
		},
		{
			"bufferView":24,
			"componentType":5126,
			"count":22,
			"type":"VEC3"
		},
		{
			"bufferView":25,
			"componentType":5126,
			"count":22,
			"type":"VEC2"
		},
		{
			"bufferView":26,
			"componentType":5126,
			"count":22,
			"max":[
				-0.9902523159980774,
				0.04567030444741249,
				-10.300729751586914
			],
			"min":[
				-1.1823022365570068,
				-0.02692059986293316,
				-10.471708297729492
			],
			"type":"VEC3"
		},
		{
			"bufferView":27,
			"componentType":5126,
			"count":22,
			"type":"VEC3"
		},
		{
			"bufferView":28,
			"componentType":5126,
			"count":22,
			"type":"VEC2"
		},
		{
			"bufferView":29,
			"componentType":5126,
			"count":22,
			"max":[
				0.7725276947021484,
				0.043709054589271545,
				-0.987249493598938
			],
			"min":[
				0.5675778388977051,
				-0.032290223985910416,
				-1.156062126159668
			],
			"type":"VEC3"
		},
		{
			"bufferView":30,
			"componentType":5126,
			"count":22,
			"type":"VEC3"
		},
		{
			"bufferView":31,
			"componentType":5126,
			"count":22,
			"type":"VEC2"
		},
		{
			"bufferView":32,
			"componentType":5126,
			"count":22,
			"max":[
				3.7488129138946533,
				0.03422657400369644,
				-7.624393939971924
			],
			"min":[
				3.534965991973877,
				-0.030877482146024704,
				-7.827206611633301
			],
			"type":"VEC3"
		},
		{
			"bufferView":33,
			"componentType":5126,
			"count":22,
			"type":"VEC3"
		},
		{
			"bufferView":34,
			"componentType":5126,
			"count":22,
			"type":"VEC2"
		},
		{
			"bufferView":35,
			"componentType":5126,
			"count":22,
			"max":[
				2.7910406589508057,
				0.06995423138141632,
				-11.08023738861084
			],
			"min":[
				2.5899884700775146,
				-0.044982846826314926,
				-11.216118812561035
			],
			"type":"VEC3"
		},
		{
			"bufferView":36,
			"componentType":5126,
			"count":22,
			"type":"VEC3"
		},
		{
			"bufferView":37,
			"componentType":5126,
			"count":22,
			"type":"VEC2"
		},
		{
			"bufferView":38,
			"componentType":5126,
			"count":22,
			"max":[
				-3.657970428466797,
				0.06873225420713425,
				-5.259096145629883
			],
			"min":[
				-3.8534343242645264,
				-0.04350847005844116,
				-5.443928241729736
			],
			"type":"VEC3"
		},
		{
			"bufferView":39,
			"componentType":5126,
			"count":22,
			"type":"VEC3"
		},
		{
			"bufferView":40,
			"componentType":5126,
			"count":22,
			"type":"VEC2"
		},
		{
			"bufferView":41,
			"componentType":5126,
			"count":22,
			"max":[
				-2.138791561126709,
				0.05271511524915695,
				-6.664687633514404
			],
			"min":[
				-2.3569438457489014,
				-0.040877413004636765,
				-6.848404407501221
			],
			"type":"VEC3"
		},
		{
			"bufferView":42,
			"componentType":5126,
			"count":22,
			"type":"VEC3"
		},
		{
			"bufferView":43,
			"componentType":5126,
			"count":22,
			"type":"VEC2"
		},
		{
			"bufferView":44,
			"componentType":5126,
			"count":22,
			"max":[
				1.935183048248291,
				0.06234702467918396,
				7.067512512207031
			],
			"min":[
				1.7292662858963013,
				-0.026110436767339706,
				6.915383338928223
			],
			"type":"VEC3"
		},
		{
			"bufferView":45,
			"componentType":5126,
			"count":22,
			"type":"VEC3"
		},
		{
			"bufferView":46,
			"componentType":5126,
			"count":22,
			"type":"VEC2"
		},
		{
			"bufferView":47,
			"componentType":5126,
			"count":22,
			"max":[
				-3.5664145946502686,
				0.059052564203739166,
				3.8247900009155273
			],
			"min":[
				-3.774230480194092,
				-0.06858303397893906,
				3.636488199234009
			],
			"type":"VEC3"
		},
		{
			"bufferView":48,
			"componentType":5126,
			"count":22,
			"type":"VEC3"
		},
		{
			"bufferView":49,
			"componentType":5126,
			"count":22,
			"type":"VEC2"
		},
		{
			"bufferView":50,
			"componentType":5126,
			"count":22,
			"max":[
				-1.2469518184661865,
				0.04684709385037422,
				2.4705185890197754
			],
			"min":[
				-1.4180258512496948,
				-0.03360484540462494,
				2.286533832550049
			],
			"type":"VEC3"
		},
		{
			"bufferView":51,
			"componentType":5126,
			"count":22,
			"type":"VEC3"
		},
		{
			"bufferView":52,
			"componentType":5126,
			"count":22,
			"type":"VEC2"
		},
		{
			"bufferView":53,
			"componentType":5126,
			"count":22,
			"max":[
				3.777675151824951,
				0.07250966876745224,
				-10.76692008972168
			],
			"min":[
				3.5894994735717773,
				-0.02978365495800972,
				-10.950379371643066
			],
			"type":"VEC3"
		},
		{
			"bufferView":54,
			"componentType":5126,
			"count":22,
			"type":"VEC3"
		},
		{
			"bufferView":55,
			"componentType":5126,
			"count":22,
			"type":"VEC2"
		},
		{
			"bufferView":56,
			"componentType":5126,
			"count":24,
			"max":[
				-1.0499999523162842,
				0.017999999225139618,
				12
			],
			"min":[
				-2.1500000953674316,
				-0.006000000052154064,
				-12
			],
			"type":"VEC3"
		},
		{
			"bufferView":57,
			"componentType":5126,
			"count":24,
			"type":"VEC3"
		},
		{
			"bufferView":58,
			"componentType":5126,
			"count":24,
			"type":"VEC2"
		},
		{
			"bufferView":59,
			"componentType":5123,
			"count":36,
			"type":"SCALAR"
		},
		{
			"bufferView":60,
			"componentType":5126,
			"count":24,
			"max":[
				2.1500000953674316,
				0.017999999225139618,
				12
			],
			"min":[
				1.0499999523162842,
				-0.006000000052154064,
				-12
			],
			"type":"VEC3"
		},
		{
			"bufferView":61,
			"componentType":5126,
			"count":24,
			"type":"VEC3"
		},
		{
			"bufferView":62,
			"componentType":5126,
			"count":24,
			"type":"VEC2"
		},
		{
			"bufferView":63,
			"componentType":5126,
			"count":22,
			"max":[
				-3.7600455284118652,
				0.09271787852048874,
				8.968196868896484
			],
			"min":[
				-4.039878845214844,
				-0.08476570248603821,
				8.693435668945312
			],
			"type":"VEC3"
		},
		{
			"bufferView":64,
			"componentType":5126,
			"count":22,
			"type":"VEC3"
		},
		{
			"bufferView":65,
			"componentType":5126,
			"count":22,
			"type":"VEC2"
		},
		{
			"bufferView":66,
			"componentType":5126,
			"count":22,
			"max":[
				-1.9896255731582642,
				0.14613521099090576,
				-5.768494606018066
			],
			"min":[
				-2.304629325866699,
				-0.08780268579721451,
				-6.0053277015686035
			],
			"type":"VEC3"
		},
		{
			"bufferView":67,
			"componentType":5126,
			"count":22,
			"type":"VEC3"
		},
		{
			"bufferView":68,
			"componentType":5126,
			"count":22,
			"type":"VEC2"
		},
		{
			"bufferView":69,
			"componentType":5126,
			"count":22,
			"max":[
				0.4364970922470093,
				0.12932424247264862,
				1.324437141418457
			],
			"min":[
				0.14510604739189148,
				-0.08089791983366013,
				1.0773488283157349
			],
			"type":"VEC3"
		},
		{
			"bufferView":70,
			"componentType":5126,
			"count":22,
			"type":"VEC3"
		},
		{
			"bufferView":71,
			"componentType":5126,
			"count":22,
			"type":"VEC2"
		},
		{
			"bufferView":72,
			"componentType":5126,
			"count":22,
			"max":[
				3.6561849117279053,
				0.14318399131298065,
				2.3570761680603027
			],
			"min":[
				3.378739356994629,
				-0.10168763250112534,
				2.0966246128082275
			],
			"type":"VEC3"
		},
		{
			"bufferView":73,
			"componentType":5126,
			"count":22,
			"type":"VEC3"
		},
		{
			"bufferView":74,
			"componentType":5126,
			"count":22,
			"type":"VEC2"
		},
		{
			"bufferView":75,
			"componentType":5126,
			"count":22,
			"max":[
				-2.1772074699401855,
				0.09981144964694977,
				6.561959266662598
			],
			"min":[
				-2.459470748901367,
				-0.07001537084579468,
				6.3057684898376465
			],
			"type":"VEC3"
		},
		{
			"bufferView":76,
			"componentType":5126,
			"count":22,
			"type":"VEC3"
		},
		{
			"bufferView":77,
			"componentType":5126,
			"count":22,
			"type":"VEC2"
		},
		{
			"bufferView":78,
			"componentType":5126,
			"count":22,
			"max":[
				-1.0041248798370361,
				0.14670149981975555,
				6.887727737426758
			],
			"min":[
				-1.276550531387329,
				-0.06584049761295319,
				6.628775119781494
			],
			"type":"VEC3"
		},
		{
			"bufferView":79,
			"componentType":5126,
			"count":22,
			"type":"VEC3"
		},
		{
			"bufferView":80,
			"componentType":5126,
			"count":22,
			"type":"VEC2"
		},
		{
			"bufferView":81,
			"componentType":5126,
			"count":22,
			"max":[
				3.09222674369812,
				0.10819133371114731,
				-3.32464599609375
			],
			"min":[
				2.7889652252197266,
				-0.08992641419172287,
				-3.5825557708740234
			],
			"type":"VEC3"
		},
		{
			"bufferView":82,
			"componentType":5126,
			"count":22,
			"type":"VEC3"
		},
		{
			"bufferView":83,
			"componentType":5126,
			"count":22,
			"type":"VEC2"
		},
		{
			"bufferView":84,
			"componentType":5126,
			"count":22,
			"max":[
				1.2476836442947388,
				0.11908221989870071,
				6.520964622497559
			],
			"min":[
				0.9681384563446045,
				-0.07190000265836716,
				6.304244041442871
			],
			"type":"VEC3"
		},
		{
			"bufferView":85,
			"componentType":5126,
			"count":22,
			"type":"VEC3"
		},
		{
			"bufferView":86,
			"componentType":5126,
			"count":22,
			"type":"VEC2"
		},
		{
			"bufferView":87,
			"componentType":5126,
			"count":22,
			"max":[
				1.3408384323120117,
				0.0958143025636673,
				-7.542312145233154
			],
			"min":[
				1.0433948040008545,
				-0.09904448688030243,
				-7.805785179138184
			],
			"type":"VEC3"
		},
		{
			"bufferView":88,
			"componentType":5126,
			"count":22,
			"type":"VEC3"
		},
		{
			"bufferView":89,
			"componentType":5126,
			"count":22,
			"type":"VEC2"
		},
		{
			"bufferView":90,
			"componentType":5126,
			"count":96,
			"max":[
				-4.230000019073486,
				0.06499999761581421,
				12
			],
			"min":[
				-4.87000036239624,
				-0.03500000014901161,
				-12
			],
			"type":"VEC3"
		},
		{
			"bufferView":91,
			"componentType":5126,
			"count":96,
			"type":"VEC3"
		},
		{
			"bufferView":92,
			"componentType":5126,
			"count":96,
			"type":"VEC2"
		},
		{
			"bufferView":93,
			"componentType":5126,
			"count":96,
			"max":[
				4.87000036239624,
				0.06499999761581421,
				12
			],
			"min":[
				4.230000019073486,
				-0.03500000014901161,
				-12
			],
			"type":"VEC3"
		},
		{
			"bufferView":94,
			"componentType":5126,
			"count":96,
			"type":"VEC3"
		},
		{
			"bufferView":95,
			"componentType":5126,
			"count":96,
			"type":"VEC2"
		}
	],
	"bufferViews":[
		{
			"buffer":0,
			"byteLength":1152,
			"byteOffset":0,
			"target":34962
		},
		{
			"buffer":0,
			"byteLength":1152,
			"byteOffset":1152,
			"target":34962
		},
		{
			"buffer":0,
			"byteLength":768,
			"byteOffset":2304,
			"target":34962
		},
		{
			"buffer":0,
			"byteLength":264,
			"byteOffset":3072,
			"target":34963
		},
		{
			"buffer":0,
			"byteLength":264,
			"byteOffset":3336,
			"target":34962
		},
		{
			"buffer":0,
			"byteLength":264,
			"byteOffset":3600,
			"target":34962
		},
		{
			"buffer":0,
			"byteLength":176,
			"byteOffset":3864,
			"target":34962
		},
		{
			"buffer":0,
			"byteLength":120,
			"byteOffset":4040,
			"target":34963
		},
		{
			"buffer":0,
			"byteLength":264,
			"byteOffset":4160,
			"target":34962
		},
		{
			"buffer":0,
			"byteLength":264,
			"byteOffset":4424,
			"target":34962
		},
		{
			"buffer":0,
			"byteLength":176,
			"byteOffset":4688,
			"target":34962
		},
		{
			"buffer":0,
			"byteLength":264,
			"byteOffset":4864,
			"target":34962
		},
		{
			"buffer":0,
			"byteLength":264,
			"byteOffset":5128,
			"target":34962
		},
		{
			"buffer":0,
			"byteLength":176,
			"byteOffset":5392,
			"target":34962
		},
		{
			"buffer":0,
			"byteLength":264,
			"byteOffset":5568,
			"target":34962
		},
		{
			"buffer":0,
			"byteLength":264,
			"byteOffset":5832,
			"target":34962
		},
		{
			"buffer":0,
			"byteLength":176,
			"byteOffset":6096,
			"target":34962
		},
		{
			"buffer":0,
			"byteLength":264,
			"byteOffset":6272,
			"target":34962
		},
		{
			"buffer":0,
			"byteLength":264,
			"byteOffset":6536,
			"target":34962
		},
		{
			"buffer":0,
			"byteLength":176,
			"byteOffset":6800,
			"target":34962
		},
		{
			"buffer":0,
			"byteLength":264,
			"byteOffset":6976,
			"target":34962
		},
		{
			"buffer":0,
			"byteLength":264,
			"byteOffset":7240,
			"target":34962
		},
		{
			"buffer":0,
			"byteLength":176,
			"byteOffset":7504,
			"target":34962
		},
		{
			"buffer":0,
			"byteLength":264,
			"byteOffset":7680,
			"target":34962
		},
		{
			"buffer":0,
			"byteLength":264,
			"byteOffset":7944,
			"target":34962
		},
		{
			"buffer":0,
			"byteLength":176,
			"byteOffset":8208,
			"target":34962
		},
		{
			"buffer":0,
			"byteLength":264,
			"byteOffset":8384,
			"target":34962
		},
		{
			"buffer":0,
			"byteLength":264,
			"byteOffset":8648,
			"target":34962
		},
		{
			"buffer":0,
			"byteLength":176,
			"byteOffset":8912,
			"target":34962
		},
		{
			"buffer":0,
			"byteLength":264,
			"byteOffset":9088,
			"target":34962
		},
		{
			"buffer":0,
			"byteLength":264,
			"byteOffset":9352,
			"target":34962
		},
		{
			"buffer":0,
			"byteLength":176,
			"byteOffset":9616,
			"target":34962
		},
		{
			"buffer":0,
			"byteLength":264,
			"byteOffset":9792,
			"target":34962
		},
		{
			"buffer":0,
			"byteLength":264,
			"byteOffset":10056,
			"target":34962
		},
		{
			"buffer":0,
			"byteLength":176,
			"byteOffset":10320,
			"target":34962
		},
		{
			"buffer":0,
			"byteLength":264,
			"byteOffset":10496,
			"target":34962
		},
		{
			"buffer":0,
			"byteLength":264,
			"byteOffset":10760,
			"target":34962
		},
		{
			"buffer":0,
			"byteLength":176,
			"byteOffset":11024,
			"target":34962
		},
		{
			"buffer":0,
			"byteLength":264,
			"byteOffset":11200,
			"target":34962
		},
		{
			"buffer":0,
			"byteLength":264,
			"byteOffset":11464,
			"target":34962
		},
		{
			"buffer":0,
			"byteLength":176,
			"byteOffset":11728,
			"target":34962
		},
		{
			"buffer":0,
			"byteLength":264,
			"byteOffset":11904,
			"target":34962
		},
		{
			"buffer":0,
			"byteLength":264,
			"byteOffset":12168,
			"target":34962
		},
		{
			"buffer":0,
			"byteLength":176,
			"byteOffset":12432,
			"target":34962
		},
		{
			"buffer":0,
			"byteLength":264,
			"byteOffset":12608,
			"target":34962
		},
		{
			"buffer":0,
			"byteLength":264,
			"byteOffset":12872,
			"target":34962
		},
		{
			"buffer":0,
			"byteLength":176,
			"byteOffset":13136,
			"target":34962
		},
		{
			"buffer":0,
			"byteLength":264,
			"byteOffset":13312,
			"target":34962
		},
		{
			"buffer":0,
			"byteLength":264,
			"byteOffset":13576,
			"target":34962
		},
		{
			"buffer":0,
			"byteLength":176,
			"byteOffset":13840,
			"target":34962
		},
		{
			"buffer":0,
			"byteLength":264,
			"byteOffset":14016,
			"target":34962
		},
		{
			"buffer":0,
			"byteLength":264,
			"byteOffset":14280,
			"target":34962
		},
		{
			"buffer":0,
			"byteLength":176,
			"byteOffset":14544,
			"target":34962
		},
		{
			"buffer":0,
			"byteLength":264,
			"byteOffset":14720,
			"target":34962
		},
		{
			"buffer":0,
			"byteLength":264,
			"byteOffset":14984,
			"target":34962
		},
		{
			"buffer":0,
			"byteLength":176,
			"byteOffset":15248,
			"target":34962
		},
		{
			"buffer":0,
			"byteLength":288,
			"byteOffset":15424,
			"target":34962
		},
		{
			"buffer":0,
			"byteLength":288,
			"byteOffset":15712,
			"target":34962
		},
		{
			"buffer":0,
			"byteLength":192,
			"byteOffset":16000,
			"target":34962
		},
		{
			"buffer":0,
			"byteLength":72,
			"byteOffset":16192,
			"target":34963
		},
		{
			"buffer":0,
			"byteLength":288,
			"byteOffset":16264,
			"target":34962
		},
		{
			"buffer":0,
			"byteLength":288,
			"byteOffset":16552,
			"target":34962
		},
		{
			"buffer":0,
			"byteLength":192,
			"byteOffset":16840,
			"target":34962
		},
		{
			"buffer":0,
			"byteLength":264,
			"byteOffset":17032,
			"target":34962
		},
		{
			"buffer":0,
			"byteLength":264,
			"byteOffset":17296,
			"target":34962
		},
		{
			"buffer":0,
			"byteLength":176,
			"byteOffset":17560,
			"target":34962
		},
		{
			"buffer":0,
			"byteLength":264,
			"byteOffset":17736,
			"target":34962
		},
		{
			"buffer":0,
			"byteLength":264,
			"byteOffset":18000,
			"target":34962
		},
		{
			"buffer":0,
			"byteLength":176,
			"byteOffset":18264,
			"target":34962
		},
		{
			"buffer":0,
			"byteLength":264,
			"byteOffset":18440,
			"target":34962
		},
		{
			"buffer":0,
			"byteLength":264,
			"byteOffset":18704,
			"target":34962
		},
		{
			"buffer":0,
			"byteLength":176,
			"byteOffset":18968,
			"target":34962
		},
		{
			"buffer":0,
			"byteLength":264,
			"byteOffset":19144,
			"target":34962
		},
		{
			"buffer":0,
			"byteLength":264,
			"byteOffset":19408,
			"target":34962
		},
		{
			"buffer":0,
			"byteLength":176,
			"byteOffset":19672,
			"target":34962
		},
		{
			"buffer":0,
			"byteLength":264,
			"byteOffset":19848,
			"target":34962
		},
		{
			"buffer":0,
			"byteLength":264,
			"byteOffset":20112,
			"target":34962
		},
		{
			"buffer":0,
			"byteLength":176,
			"byteOffset":20376,
			"target":34962
		},
		{
			"buffer":0,
			"byteLength":264,
			"byteOffset":20552,
			"target":34962
		},
		{
			"buffer":0,
			"byteLength":264,
			"byteOffset":20816,
			"target":34962
		},
		{
			"buffer":0,
			"byteLength":176,
			"byteOffset":21080,
			"target":34962
		},
		{
			"buffer":0,
			"byteLength":264,
			"byteOffset":21256,
			"target":34962
		},
		{
			"buffer":0,
			"byteLength":264,
			"byteOffset":21520,
			"target":34962
		},
		{
			"buffer":0,
			"byteLength":176,
			"byteOffset":21784,
			"target":34962
		},
		{
			"buffer":0,
			"byteLength":264,
			"byteOffset":21960,
			"target":34962
		},
		{
			"buffer":0,
			"byteLength":264,
			"byteOffset":22224,
			"target":34962
		},
		{
			"buffer":0,
			"byteLength":176,
			"byteOffset":22488,
			"target":34962
		},
		{
			"buffer":0,
			"byteLength":264,
			"byteOffset":22664,
			"target":34962
		},
		{
			"buffer":0,
			"byteLength":264,
			"byteOffset":22928,
			"target":34962
		},
		{
			"buffer":0,
			"byteLength":176,
			"byteOffset":23192,
			"target":34962
		},
		{
			"buffer":0,
			"byteLength":1152,
			"byteOffset":23368,
			"target":34962
		},
		{
			"buffer":0,
			"byteLength":1152,
			"byteOffset":24520,
			"target":34962
		},
		{
			"buffer":0,
			"byteLength":768,
			"byteOffset":25672,
			"target":34962
		},
		{
			"buffer":0,
			"byteLength":1152,
			"byteOffset":26440,
			"target":34962
		},
		{
			"buffer":0,
			"byteLength":1152,
			"byteOffset":27592,
			"target":34962
		},
		{
			"buffer":0,
			"byteLength":768,
			"byteOffset":28744,
			"target":34962
		}
	],
	"buffers":[
		{
			"byteLength":29512,
			"uri":"hd_rd_dirt.bin"
		}
	]
}
