{
	"asset":{
		"generator":"Khronos glTF Blender I/O v5.2.40",
		"version":"2.0"
	},
	"scene":0,
	"scenes":[
		{
			"name":"Scene",
			"nodes":[
				0,
				1,
				2,
				3,
				4,
				5,
				6,
				7,
				8,
				9
			]
		}
	],
	"nodes":[
		{
			"mesh":0,
			"name":"berry0"
		},
		{
			"mesh":1,
			"name":"berry1"
		},
		{
			"mesh":2,
			"name":"berry2"
		},
		{
			"mesh":3,
			"name":"berry3"
		},
		{
			"mesh":4,
			"name":"berry4"
		},
		{
			"mesh":5,
			"name":"berry5"
		},
		{
			"mesh":6,
			"name":"berry6"
		},
		{
			"mesh":7,
			"name":"s0"
		},
		{
			"mesh":8,
			"name":"s1"
		},
		{
			"mesh":9,
			"name":"s2"
		}
	],
	"materials":[
		{
			"doubleSided":true,
			"name":"M_bry0",
			"pbrMetallicRoughness":{
				"baseColorFactor":[
					1,
					0.5924380421638489,
					0.041451890021562576,
					1
				],
				"metallicFactor":0,
				"roughnessFactor":0.8500000238418579
			}
		},
		{
			"doubleSided":true,
			"name":"M_bry1",
			"pbrMetallicRoughness":{
				"baseColorFactor":[
					0.8912620544433594,
					0.11657577753067017,
					0.19751642644405365,
					1
				],
				"metallicFactor":0,
				"roughnessFactor":0.8500000238418579
			}
		},
		{
			"doubleSided":true,
			"name":"M_bry2",
			"pbrMetallicRoughness":{
				"baseColorFactor":[
					0.8912620544433594,
					0.11657577753067017,
					0.19751642644405365,
					1
				],
				"metallicFactor":0,
				"roughnessFactor":0.8500000238418579
			}
		},
		{
			"doubleSided":true,
			"name":"M_bry3",
			"pbrMetallicRoughness":{
				"baseColorFactor":[
					1,
					0.5924380421638489,
					0.041451890021562576,
					1
				],
				"metallicFactor":0,
				"roughnessFactor":0.8500000238418579
			}
		},
		{
			"doubleSided":true,
			"name":"M_bry4",
			"pbrMetallicRoughness":{
				"baseColorFactor":[
					0.8912620544433594,
					0.11657577753067017,
					0.19751642644405365,
					1
				],
				"metallicFactor":0,
				"roughnessFactor":0.8500000238418579
			}
		},
		{
			"doubleSided":true,
			"name":"M_bry5",
			"pbrMetallicRoughness":{
				"baseColorFactor":[
					0.8912620544433594,
					0.11657577753067017,
					0.19751642644405365,
					1
				],
				"metallicFactor":0,
				"roughnessFactor":0.8500000238418579
			}
		},
		{
			"doubleSided":true,
			"name":"M_bry6",
			"pbrMetallicRoughness":{
				"baseColorFactor":[
					1,
					0.5924380421638489,
					0.041451890021562576,
					1
				],
				"metallicFactor":0,
				"roughnessFactor":0.8500000238418579
			}
		},
		{
			"doubleSided":true,
			"name":"M_sh0",
			"pbrMetallicRoughness":{
				"baseColorFactor":[
					0.044552627950906754,
					0.25491586327552795,
					0.06190747395157814,
					1
				],
				"metallicFactor":0,
				"roughnessFactor":0.8500000238418579
			}
		},
		{
			"doubleSided":true,
			"name":"M_sh1",
			"pbrMetallicRoughness":{
				"baseColorFactor":[
					0.09387587010860443,
					0.48776519298553467,
					0.05637409910559654,
					1
				],
				"metallicFactor":0,
				"roughnessFactor":0.8500000238418579
			}
		},
		{
			"doubleSided":true,
			"name":"M_sh2",
			"pbrMetallicRoughness":{
				"baseColorFactor":[
					0.1939721703529358,
					0.6592239737510681,
					0.0915183499455452,
					1
				],
				"metallicFactor":0,
				"roughnessFactor":0.8500000238418579
			}
		}
	],
	"meshes":[
		{
			"name":"Icosphere.003",
			"primitives":[
				{
					"attributes":{
						"POSITION":0,
						"NORMAL":1,
						"TEXCOORD_0":2
					},
					"indices":3,
					"material":0
				}
			]
		},
		{
			"name":"Icosphere.004",
			"primitives":[
				{
					"attributes":{
						"POSITION":4,
						"NORMAL":5,
						"TEXCOORD_0":6
					},
					"indices":3,
					"material":1
				}
			]
		},
		{
			"name":"Icosphere.005",
			"primitives":[
				{
					"attributes":{
						"POSITION":7,
						"NORMAL":8,
						"TEXCOORD_0":9
					},
					"indices":3,
					"material":2
				}
			]
		},
		{
			"name":"Icosphere.006",
			"primitives":[
				{
					"attributes":{
						"POSITION":10,
						"NORMAL":11,
						"TEXCOORD_0":12
					},
					"indices":3,
					"material":3
				}
			]
		},
		{
			"name":"Icosphere.007",
			"primitives":[
				{
					"attributes":{
						"POSITION":13,
						"NORMAL":14,
						"TEXCOORD_0":15
					},
					"indices":3,
					"material":4
				}
			]
		},
		{
			"name":"Icosphere.008",
			"primitives":[
				{
					"attributes":{
						"POSITION":16,
						"NORMAL":17,
						"TEXCOORD_0":18
					},
					"indices":3,
					"material":5
				}
			]
		},
		{
			"name":"Icosphere.009",
			"primitives":[
				{
					"attributes":{
						"POSITION":19,
						"NORMAL":20,
						"TEXCOORD_0":21
					},
					"indices":3,
					"material":6
				}
			]
		},
		{
			"name":"Icosphere",
			"primitives":[
				{
					"attributes":{
						"POSITION":22,
						"NORMAL":23,
						"TEXCOORD_0":24
					},
					"indices":25,
					"material":7
				}
			]
		},
		{
			"name":"Icosphere.001",
			"primitives":[
				{
					"attributes":{
						"POSITION":26,
						"NORMAL":27,
						"TEXCOORD_0":28
					},
					"indices":25,
					"material":8
				}
			]
		},
		{
			"name":"Icosphere.002",
			"primitives":[
				{
					"attributes":{
						"POSITION":29,
						"NORMAL":30,
						"TEXCOORD_0":31
					},
					"indices":25,
					"material":9
				}
			]
		}
	],
	"accessors":[
		{
			"bufferView":0,
			"componentType":5126,
			"count":60,
			"max":[
				0.08660893887281418,
				0.5764798521995544,
				-0.38377273082733154
			],
			"min":[
				-0.020722053945064545,
				0.45647984743118286,
				-0.4858494997024536
			],
			"type":"VEC3"
		},
		{
			"bufferView":1,
			"componentType":5126,
			"count":60,
			"type":"VEC3"
		},
		{
			"bufferView":2,
			"componentType":5126,
			"count":60,
			"type":"VEC2"
		},
		{
			"bufferView":3,
			"componentType":5123,
			"count":60,
			"type":"SCALAR"
		},
		{
			"bufferView":4,
			"componentType":5126,
			"count":60,
			"max":[
				-0.3088749647140503,
				0.4394879937171936,
				0.3283339738845825
			],
			"min":[
				-0.4162059426307678,
				0.319487988948822,
				0.22625716030597687
			],
			"type":"VEC3"
		},
		{
			"bufferView":5,
			"componentType":5126,
			"count":60,
			"type":"VEC3"
		},
		{
			"bufferView":6,
			"componentType":5126,
			"count":60,
			"type":"VEC2"
		},
		{
			"bufferView":7,
			"componentType":5126,
			"count":60,
			"max":[
				0.5612903833389282,
				0.5267093181610107,
				0.008942980319261551
			],
			"min":[
				0.4539593756198883,
				0.40670931339263916,
				-0.0931338220834732
			],
			"type":"VEC3"
		},
		{
			"bufferView":8,
			"componentType":5126,
			"count":60,
			"type":"VEC3"
		},
		{
			"bufferView":9,
			"componentType":5126,
			"count":60,
			"type":"VEC2"
		},
		{
			"bufferView":10,
			"componentType":5126,
			"count":60,
			"max":[
				0.10761936008930206,
				0.6216185688972473,
				-0.4952147603034973
			],
			"min":[
				0.0002883635461330414,
				0.5016185641288757,
				-0.5972915291786194
			],
			"type":"VEC3"
		},
		{
			"bufferView":11,
			"componentType":5126,
			"count":60,
			"type":"VEC3"
		},
		{
			"bufferView":12,
			"componentType":5126,
			"count":60,
			"type":"VEC2"
		},
		{
			"bufferView":13,
			"componentType":5126,
			"count":60,
			"max":[
				0.2703021466732025,
				0.6975806951522827,
				0.40979117155075073
			],
			"min":[
				0.16297116875648499,
				0.5775806903839111,
				0.30771440267562866
			],
			"type":"VEC3"
		},
		{
			"bufferView":14,
			"componentType":5126,
			"count":60,
			"type":"VEC3"
		},
		{
			"bufferView":15,
			"componentType":5126,
			"count":60,
			"type":"VEC2"
		},
		{
			"bufferView":16,
			"componentType":5126,
			"count":60,
			"max":[
				0.3218521475791931,
				0.8006203770637512,
				-0.32111144065856934
			],
			"min":[
				0.21452116966247559,
				0.6806203722953796,
				-0.4231882691383362
			],
			"type":"VEC3"
		},
		{
			"bufferView":17,
			"componentType":5126,
			"count":60,
			"type":"VEC3"
		},
		{
			"bufferView":18,
			"componentType":5126,
			"count":60,
			"type":"VEC2"
		},
		{
			"bufferView":19,
			"componentType":5126,
			"count":60,
			"max":[
				-0.42650875449180603,
				0.7121351957321167,
				0.1214754581451416
			],
			"min":[
				-0.533839762210846,
				0.5921351909637451,
				0.019398659467697144
			],
			"type":"VEC3"
		},
		{
			"bufferView":20,
			"componentType":5126,
			"count":60,
			"type":"VEC3"
		},
		{
			"bufferView":21,
			"componentType":5126,
			"count":60,
			"type":"VEC2"
		},
		{
			"bufferView":22,
			"componentType":5126,
			"count":63,
			"max":[
				0.5992845892906189,
				1.0514042377471924,
				0.6043339967727661
			],
			"min":[
				-0.5547072887420654,
				-0.007942842319607735,
				-0.6696257591247559
			],
			"type":"VEC3"
		},
		{
			"bufferView":23,
			"componentType":5126,
			"count":63,
			"type":"VEC3"
		},
		{
			"bufferView":24,
			"componentType":5126,
			"count":63,
			"type":"VEC2"
		},
		{
			"bufferView":25,
			"componentType":5123,
			"count":240,
			"type":"SCALAR"
		},
		{
			"bufferView":26,
			"componentType":5126,
			"count":63,
			"max":[
				0.1418086439371109,
				0.8042445778846741,
				0.285574734210968
			],
			"min":[
				-0.6842553615570068,
				0.10237743705511093,
				-0.5802179574966431
			],
			"type":"VEC3"
		},
		{
			"bufferView":27,
			"componentType":5126,
			"count":63,
			"type":"VEC3"
		},
		{
			"bufferView":28,
			"componentType":5126,
			"count":63,
			"type":"VEC2"
		},
		{
			"bufferView":29,
			"componentType":5126,
			"count":63,
			"max":[
				0.6863806843757629,
				0.8190723657608032,
				0.48262518644332886
			],
			"min":[
				-0.12971074879169464,
				0.09465513378381729,
				-0.31979429721832275
			],
			"type":"VEC3"
		},
		{
			"bufferView":30,
			"componentType":5126,
			"count":63,
			"type":"VEC3"
		},
		{
			"bufferView":31,
			"componentType":5126,
			"count":63,
			"type":"VEC2"
		}
	],
	"bufferViews":[
		{
			"buffer":0,
			"byteLength":720,
			"byteOffset":0,
			"target":34962
		},
		{
			"buffer":0,
			"byteLength":720,
			"byteOffset":720,
			"target":34962
		},
		{
			"buffer":0,
			"byteLength":480,
			"byteOffset":1440,
			"target":34962
		},
		{
			"buffer":0,
			"byteLength":120,
			"byteOffset":1920,
			"target":34963
		},
		{
			"buffer":0,
			"byteLength":720,
			"byteOffset":2040,
			"target":34962
		},
		{
			"buffer":0,
			"byteLength":720,
			"byteOffset":2760,
			"target":34962
		},
		{
			"buffer":0,
			"byteLength":480,
			"byteOffset":3480,
			"target":34962
		},
		{
			"buffer":0,
			"byteLength":720,
			"byteOffset":3960,
			"target":34962
		},
		{
			"buffer":0,
			"byteLength":720,
			"byteOffset":4680,
			"target":34962
		},
		{
			"buffer":0,
			"byteLength":480,
			"byteOffset":5400,
			"target":34962
		},
		{
			"buffer":0,
			"byteLength":720,
			"byteOffset":5880,
			"target":34962
		},
		{
			"buffer":0,
			"byteLength":720,
			"byteOffset":6600,
			"target":34962
		},
		{
			"buffer":0,
			"byteLength":480,
			"byteOffset":7320,
			"target":34962
		},
		{
			"buffer":0,
			"byteLength":720,
			"byteOffset":7800,
			"target":34962
		},
		{
			"buffer":0,
			"byteLength":720,
			"byteOffset":8520,
			"target":34962
		},
		{
			"buffer":0,
			"byteLength":480,
			"byteOffset":9240,
			"target":34962
		},
		{
			"buffer":0,
			"byteLength":720,
			"byteOffset":9720,
			"target":34962
		},
		{
			"buffer":0,
			"byteLength":720,
			"byteOffset":10440,
			"target":34962
		},
		{
			"buffer":0,
			"byteLength":480,
			"byteOffset":11160,
			"target":34962
		},
		{
			"buffer":0,
			"byteLength":720,
			"byteOffset":11640,
			"target":34962
		},
		{
			"buffer":0,
			"byteLength":720,
			"byteOffset":12360,
			"target":34962
		},
		{
			"buffer":0,
			"byteLength":480,
			"byteOffset":13080,
			"target":34962
		},
		{
			"buffer":0,
			"byteLength":756,
			"byteOffset":13560,
			"target":34962
		},
		{
			"buffer":0,
			"byteLength":756,
			"byteOffset":14316,
			"target":34962
		},
		{
			"buffer":0,
			"byteLength":504,
			"byteOffset":15072,
			"target":34962
		},
		{
			"buffer":0,
			"byteLength":480,
			"byteOffset":15576,
			"target":34963
		},
		{
			"buffer":0,
			"byteLength":756,
			"byteOffset":16056,
			"target":34962
		},
		{
			"buffer":0,
			"byteLength":756,
			"byteOffset":16812,
			"target":34962
		},
		{
			"buffer":0,
			"byteLength":504,
			"byteOffset":17568,
			"target":34962
		},
		{
			"buffer":0,
			"byteLength":756,
			"byteOffset":18072,
			"target":34962
		},
		{
			"buffer":0,
			"byteLength":756,
			"byteOffset":18828,
			"target":34962
		},
		{
			"buffer":0,
			"byteLength":504,
			"byteOffset":19584,
			"target":34962
		}
	],
	"buffers":[
		{
			"byteLength":20088,
			"uri":"hd_bush.bin"
		}
	]
}
