{
	"asset":{
		"generator":"Khronos glTF Blender I/O v5.2.40",
		"version":"2.0"
	},
	"extensionsUsed":[
		"KHR_materials_emissive_strength"
	],
	"scene":0,
	"scenes":[
		{
			"name":"Scene",
			"nodes":[
				0,
				1,
				2,
				3,
				4,
				5,
				6,
				7,
				8,
				9,
				10,
				11,
				12,
				13,
				14,
				15,
				16,
				25,
				26,
				27,
				28,
				29,
				30,
				31,
				33,
				34,
				35,
				36,
				37,
				38,
				39,
				40,
				41,
				42,
				43,
				44,
				45,
				46,
				47,
				48,
				49,
				50,
				51,
				52,
				53
			]
		}
	],
	"nodes":[
		{
			"mesh":0,
			"name":"archA"
		},
		{
			"mesh":1,
			"name":"archB"
		},
		{
			"mesh":2,
			"name":"archGold"
		},
		{
			"mesh":3,
			"name":"band1_0"
		},
		{
			"mesh":4,
			"name":"band1_1"
		},
		{
			"mesh":5,
			"name":"band1_2"
		},
		{
			"mesh":6,
			"name":"band-1_0"
		},
		{
			"mesh":7,
			"name":"band-1_1"
		},
		{
			"mesh":8,
			"name":"band-1_2"
		},
		{
			"mesh":9,
			"name":"bowl1"
		},
		{
			"mesh":10,
			"name":"bowl-1"
		},
		{
			"mesh":11,
			"name":"capA1"
		},
		{
			"mesh":12,
			"name":"capA-1"
		},
		{
			"mesh":13,
			"name":"capGold1"
		},
		{
			"mesh":14,
			"name":"capGold-1"
		},
		{
			"mesh":15,
			"name":"ember1"
		},
		{
			"mesh":16,
			"name":"ember-1"
		},
		{
			"mesh":17,
			"name":"glyph0"
		},
		{
			"mesh":18,
			"name":"glyph1"
		},
		{
			"mesh":19,
			"name":"glyph2"
		},
		{
			"mesh":20,
			"name":"glyph3"
		},
		{
			"mesh":21,
			"name":"glyph4"
		},
		{
			"mesh":22,
			"name":"glyph5"
		},
		{
			"mesh":23,
			"name":"glyph6"
		},
		{
			"mesh":24,
			"name":"glyph7"
		},
		{
			"children":[
				17,
				18,
				19,
				20,
				21,
				22,
				23,
				24
			],
			"mesh":25,
			"name":"GateRing"
		},
		{
			"mesh":26,
			"name":"keyGold"
		},
		{
			"mesh":27,
			"name":"keystone"
		},
		{
			"mesh":28,
			"name":"plinthA1"
		},
		{
			"mesh":29,
			"name":"plinthA-1"
		},
		{
			"mesh":30,
			"name":"plinthB1"
		},
		{
			"mesh":31,
			"name":"plinthB-1"
		},
		{
			"mesh":32,
			"name":"PortalInner"
		},
		{
			"children":[
				32
			],
			"mesh":33,
			"name":"PortalCore"
		},
		{
			"mesh":34,
			"name":"ray0"
		},
		{
			"mesh":35,
			"name":"ray1"
		},
		{
			"mesh":36,
			"name":"ray2"
		},
		{
			"mesh":37,
			"name":"ray3"
		},
		{
			"mesh":38,
			"name":"ray4"
		},
		{
			"mesh":39,
			"name":"ray5"
		},
		{
			"mesh":40,
			"name":"ray6"
		},
		{
			"mesh":41,
			"name":"rubble0"
		},
		{
			"mesh":42,
			"name":"rubble1"
		},
		{
			"mesh":43,
			"name":"rubble2"
		},
		{
			"mesh":44,
			"name":"rubble3"
		},
		{
			"mesh":45,
			"name":"rubble4"
		},
		{
			"mesh":46,
			"name":"rubble5"
		},
		{
			"mesh":47,
			"name":"rubble6"
		},
		{
			"mesh":48,
			"name":"shaft1"
		},
		{
			"mesh":49,
			"name":"shaft-1"
		},
		{
			"mesh":50,
			"name":"step0"
		},
		{
			"mesh":51,
			"name":"step1"
		},
		{
			"mesh":52,
			"name":"step2"
		},
		{
			"mesh":53,
			"name":"sundisc"
		}
	],
	"materials":[
		{
			"doubleSided":true,
			"name":"M_gate_sand",
			"pbrMetallicRoughness":{
				"baseColorFactor":[
					0.7226724624633789,
					0.5924380421638489,
					0.39929330348968506,
					1
				],
				"metallicFactor":0,
				"roughnessFactor":0.8999999761581421
			}
		},
		{
			"doubleSided":true,
			"name":"M_gate_shade",
			"pbrMetallicRoughness":{
				"baseColorFactor":[
					0.4819522500038147,
					0.3586539030075073,
					0.18698850274085999,
					1
				],
				"metallicFactor":0,
				"roughnessFactor":0.9200000166893005
			}
		},
		{
			"doubleSided":true,
			"emissiveFactor":[
				0.5250825613769905,
				0.2961697278884934,
				0.026731577832761477
			],
			"name":"M_gate_gold",
			"pbrMetallicRoughness":{
				"baseColorFactor":[
					0.8751375675201416,
					0.4936161935329437,
					0.044552627950906754,
					1
				],
				"metallicFactor":0.6499999761581421,
				"roughnessFactor":0.3499999940395355
			}
		},
		{
			"doubleSided":true,
			"name":"M_gate_deep",
			"pbrMetallicRoughness":{
				"baseColorFactor":[
					0.28012436628341675,
					0.19751642644405365,
					0.10615606606006622,
					1
				],
				"metallicFactor":0,
				"roughnessFactor":0.949999988079071
			}
		},
		{
			"doubleSided":true,
			"emissiveFactor":[
				1,
				0.32972902059555054,
				0.041451890021562576
			],
			"extensions":{
				"KHR_materials_emissive_strength":{
					"emissiveStrength":2.4000000953674316
				}
			},
			"name":"M_gate_glow",
			"pbrMetallicRoughness":{
				"baseColorFactor":[
					1,
					0.32972902059555054,
					0.041451890021562576,
					1
				],
				"metallicFactor":0,
				"roughnessFactor":0.4000000059604645
			}
		},
		{
			"doubleSided":true,
			"emissiveFactor":[
				0.03155139088630676,
				0.6870307922363281,
				1
			],
			"extensions":{
				"KHR_materials_emissive_strength":{
					"emissiveStrength":2.200000047683716
				}
			},
			"name":"M_gate_glyph",
			"pbrMetallicRoughness":{
				"baseColorFactor":[
					0.03155139088630676,
					0.6870307922363281,
					1,
					1
				],
				"metallicFactor":0,
				"roughnessFactor":0.30000001192092896
			}
		},
		{
			"doubleSided":true,
			"emissiveFactor":[
				1,
				0.5640441135805577,
				0.05090928512777091
			],
			"extensions":{
				"KHR_materials_emissive_strength":{
					"emissiveStrength":1.4877339065140518
				}
			},
			"name":"M_gate_ring",
			"pbrMetallicRoughness":{
				"baseColorFactor":[
					0.8751375675201416,
					0.4936161935329437,
					0.044552627950906754,
					1
				],
				"metallicFactor":0.4000000059604645,
				"roughnessFactor":0.30000001192092896
			}
		},
		{
			"doubleSided":true,
			"name":"M_gate_marble",
			"pbrMetallicRoughness":{
				"baseColorFactor":[
					0.8122414946556091,
					0.7518950700759888,
					0.6120656132698059,
					1
				],
				"metallicFactor":0,
				"roughnessFactor":0.550000011920929
			}
		},
		{
			"doubleSided":true,
			"emissiveFactor":[
				0.03155139088630676,
				0.6870307922363281,
				1
			],
			"extensions":{
				"KHR_materials_emissive_strength":{
					"emissiveStrength":3.4000000953674316
				}
			},
			"name":"M_gate_inner",
			"pbrMetallicRoughness":{
				"baseColorFactor":[
					0.03155139088630676,
					0.6870307922363281,
					1,
					1
				],
				"metallicFactor":0,
				"roughnessFactor":0.20000000298023224
			}
		},
		{
			"doubleSided":true,
			"emissiveFactor":[
				0.20471012592315674,
				0.07176145166158676,
				1
			],
			"extensions":{
				"KHR_materials_emissive_strength":{
					"emissiveStrength":2.799999952316284
				}
			},
			"name":"M_gate_core",
			"pbrMetallicRoughness":{
				"baseColorFactor":[
					0.20471012592315674,
					0.07176145166158676,
					1,
					1
				],
				"metallicFactor":0,
				"roughnessFactor":0.25
			}
		}
	],
	"meshes":[
		{
			"name":"Cube.011",
			"primitives":[
				{
					"attributes":{
						"POSITION":0,
						"NORMAL":1,
						"TEXCOORD_0":2
					},
					"indices":3,
					"material":0
				}
			]
		},
		{
			"name":"Cube.013",
			"primitives":[
				{
					"attributes":{
						"POSITION":4,
						"NORMAL":5,
						"TEXCOORD_0":6
					},
					"indices":3,
					"material":1
				}
			]
		},
		{
			"name":"Cube.012",
			"primitives":[
				{
					"attributes":{
						"POSITION":7,
						"NORMAL":8,
						"TEXCOORD_0":9
					},
					"indices":10,
					"material":2
				}
			]
		},
		{
			"name":"Cylinder.006",
			"primitives":[
				{
					"attributes":{
						"POSITION":11,
						"NORMAL":12,
						"TEXCOORD_0":13
					},
					"indices":14,
					"material":1
				}
			]
		},
		{
			"name":"Cylinder.007",
			"primitives":[
				{
					"attributes":{
						"POSITION":15,
						"NORMAL":16,
						"TEXCOORD_0":17
					},
					"indices":14,
					"material":1
				}
			]
		},
		{
			"name":"Cylinder.008",
			"primitives":[
				{
					"attributes":{
						"POSITION":18,
						"NORMAL":19,
						"TEXCOORD_0":20
					},
					"indices":21,
					"material":1
				}
			]
		},
		{
			"name":"Cylinder.001",
			"primitives":[
				{
					"attributes":{
						"POSITION":22,
						"NORMAL":23,
						"TEXCOORD_0":24
					},
					"indices":14,
					"material":1
				}
			]
		},
		{
			"name":"Cylinder.002",
			"primitives":[
				{
					"attributes":{
						"POSITION":25,
						"NORMAL":26,
						"TEXCOORD_0":27
					},
					"indices":14,
					"material":1
				}
			]
		},
		{
			"name":"Cylinder.003",
			"primitives":[
				{
					"attributes":{
						"POSITION":28,
						"NORMAL":29,
						"TEXCOORD_0":30
					},
					"indices":21,
					"material":1
				}
			]
		},
		{
			"name":"Cylinder.009",
			"primitives":[
				{
					"attributes":{
						"POSITION":31,
						"NORMAL":32,
						"TEXCOORD_0":33
					},
					"indices":34,
					"material":3
				}
			]
		},
		{
			"name":"Cylinder.004",
			"primitives":[
				{
					"attributes":{
						"POSITION":35,
						"NORMAL":36,
						"TEXCOORD_0":37
					},
					"indices":34,
					"material":3
				}
			]
		},
		{
			"name":"Cube.009",
			"primitives":[
				{
					"attributes":{
						"POSITION":38,
						"NORMAL":39,
						"TEXCOORD_0":40
					},
					"indices":3,
					"material":1
				}
			]
		},
		{
			"name":"Cube.005",
			"primitives":[
				{
					"attributes":{
						"POSITION":41,
						"NORMAL":42,
						"TEXCOORD_0":43
					},
					"indices":3,
					"material":1
				}
			]
		},
		{
			"name":"Cube.010",
			"primitives":[
				{
					"attributes":{
						"POSITION":44,
						"NORMAL":45,
						"TEXCOORD_0":46
					},
					"indices":47,
					"material":2
				}
			]
		},
		{
			"name":"Cube.006",
			"primitives":[
				{
					"attributes":{
						"POSITION":48,
						"NORMAL":49,
						"TEXCOORD_0":50
					},
					"indices":51,
					"material":2
				}
			]
		},
		{
			"name":"Sphere.001",
			"primitives":[
				{
					"attributes":{
						"POSITION":52,
						"NORMAL":53,
						"TEXCOORD_0":54
					},
					"indices":55,
					"material":4
				}
			]
		},
		{
			"name":"Sphere",
			"primitives":[
				{
					"attributes":{
						"POSITION":56,
						"NORMAL":57,
						"TEXCOORD_0":58
					},
					"indices":55,
					"material":4
				}
			]
		},
		{
			"name":"Cube.023",
			"primitives":[
				{
					"attributes":{
						"POSITION":59,
						"NORMAL":60,
						"TEXCOORD_0":61
					},
					"indices":62,
					"material":5
				}
			]
		},
		{
			"name":"Cube.024",
			"primitives":[
				{
					"attributes":{
						"POSITION":63,
						"NORMAL":64,
						"TEXCOORD_0":65
					},
					"indices":66,
					"material":5
				}
			]
		},
		{
			"name":"Cube.025",
			"primitives":[
				{
					"attributes":{
						"POSITION":67,
						"NORMAL":68,
						"TEXCOORD_0":69
					},
					"indices":70,
					"material":5
				}
			]
		},
		{
			"name":"Cube.026",
			"primitives":[
				{
					"attributes":{
						"POSITION":71,
						"NORMAL":72,
						"TEXCOORD_0":73
					},
					"indices":74,
					"material":5
				}
			]
		},
		{
			"name":"Cube.027",
			"primitives":[
				{
					"attributes":{
						"POSITION":75,
						"NORMAL":76,
						"TEXCOORD_0":77
					},
					"indices":62,
					"material":5
				}
			]
		},
		{
			"name":"Cube.028",
			"primitives":[
				{
					"attributes":{
						"POSITION":78,
						"NORMAL":79,
						"TEXCOORD_0":80
					},
					"indices":81,
					"material":5
				}
			]
		},
		{
			"name":"Cube.029",
			"primitives":[
				{
					"attributes":{
						"POSITION":82,
						"NORMAL":83,
						"TEXCOORD_0":84
					},
					"indices":70,
					"material":5
				}
			]
		},
		{
			"name":"Cube.030",
			"primitives":[
				{
					"attributes":{
						"POSITION":85,
						"NORMAL":86,
						"TEXCOORD_0":87
					},
					"indices":88,
					"material":5
				}
			]
		},
		{
			"name":"Torus",
			"primitives":[
				{
					"attributes":{
						"POSITION":89,
						"NORMAL":90,
						"TEXCOORD_0":91
					},
					"indices":92,
					"material":6
				}
			]
		},
		{
			"name":"Cube.015",
			"primitives":[
				{
					"attributes":{
						"POSITION":93,
						"NORMAL":94,
						"TEXCOORD_0":95
					},
					"indices":3,
					"material":2
				}
			]
		},
		{
			"name":"Cube.014",
			"primitives":[
				{
					"attributes":{
						"POSITION":96,
						"NORMAL":97,
						"TEXCOORD_0":98
					},
					"indices":3,
					"material":7
				}
			]
		},
		{
			"name":"Cube.007",
			"primitives":[
				{
					"attributes":{
						"POSITION":99,
						"NORMAL":100,
						"TEXCOORD_0":101
					},
					"indices":3,
					"material":1
				}
			]
		},
		{
			"name":"Cube.003",
			"primitives":[
				{
					"attributes":{
						"POSITION":102,
						"NORMAL":103,
						"TEXCOORD_0":104
					},
					"indices":3,
					"material":1
				}
			]
		},
		{
			"name":"Cube.008",
			"primitives":[
				{
					"attributes":{
						"POSITION":105,
						"NORMAL":106,
						"TEXCOORD_0":107
					},
					"indices":3,
					"material":0
				}
			]
		},
		{
			"name":"Cube.004",
			"primitives":[
				{
					"attributes":{
						"POSITION":108,
						"NORMAL":109,
						"TEXCOORD_0":110
					},
					"indices":3,
					"material":0
				}
			]
		},
		{
			"name":"Cylinder.012",
			"primitives":[
				{
					"attributes":{
						"POSITION":111,
						"NORMAL":112,
						"TEXCOORD_0":113
					},
					"indices":114,
					"material":8
				}
			]
		},
		{
			"name":"Cylinder.011",
			"primitives":[
				{
					"attributes":{
						"POSITION":115,
						"NORMAL":116,
						"TEXCOORD_0":117
					},
					"indices":118,
					"material":9
				}
			]
		},
		{
			"name":"Cube.016",
			"primitives":[
				{
					"attributes":{
						"POSITION":119,
						"NORMAL":120,
						"TEXCOORD_0":121
					},
					"indices":122,
					"material":2
				}
			]
		},
		{
			"name":"Cube.017",
			"primitives":[
				{
					"attributes":{
						"POSITION":123,
						"NORMAL":124,
						"TEXCOORD_0":125
					},
					"indices":126,
					"material":2
				}
			]
		},
		{
			"name":"Cube.018",
			"primitives":[
				{
					"attributes":{
						"POSITION":127,
						"NORMAL":128,
						"TEXCOORD_0":129
					},
					"indices":130,
					"material":2
				}
			]
		},
		{
			"name":"Cube.019",
			"primitives":[
				{
					"attributes":{
						"POSITION":131,
						"NORMAL":132,
						"TEXCOORD_0":133
					},
					"indices":134,
					"material":2
				}
			]
		},
		{
			"name":"Cube.020",
			"primitives":[
				{
					"attributes":{
						"POSITION":135,
						"NORMAL":136,
						"TEXCOORD_0":137
					},
					"indices":138,
					"material":2
				}
			]
		},
		{
			"name":"Cube.021",
			"primitives":[
				{
					"attributes":{
						"POSITION":139,
						"NORMAL":140,
						"TEXCOORD_0":141
					},
					"indices":142,
					"material":2
				}
			]
		},
		{
			"name":"Cube.022",
			"primitives":[
				{
					"attributes":{
						"POSITION":143,
						"NORMAL":144,
						"TEXCOORD_0":145
					},
					"indices":146,
					"material":2
				}
			]
		},
		{
			"name":"Cube.031",
			"primitives":[
				{
					"attributes":{
						"POSITION":147,
						"NORMAL":148,
						"TEXCOORD_0":149
					},
					"indices":150,
					"material":3
				}
			]
		},
		{
			"name":"Cube.032",
			"primitives":[
				{
					"attributes":{
						"POSITION":151,
						"NORMAL":152,
						"TEXCOORD_0":153
					},
					"indices":154,
					"material":1
				}
			]
		},
		{
			"name":"Cube.033",
			"primitives":[
				{
					"attributes":{
						"POSITION":155,
						"NORMAL":156,
						"TEXCOORD_0":157
					},
					"indices":158,
					"material":3
				}
			]
		},
		{
			"name":"Cube.034",
			"primitives":[
				{
					"attributes":{
						"POSITION":159,
						"NORMAL":160,
						"TEXCOORD_0":161
					},
					"indices":162,
					"material":1
				}
			]
		},
		{
			"name":"Cube.035",
			"primitives":[
				{
					"attributes":{
						"POSITION":163,
						"NORMAL":164,
						"TEXCOORD_0":165
					},
					"indices":166,
					"material":3
				}
			]
		},
		{
			"name":"Cube.036",
			"primitives":[
				{
					"attributes":{
						"POSITION":167,
						"NORMAL":168,
						"TEXCOORD_0":169
					},
					"indices":170,
					"material":1
				}
			]
		},
		{
			"name":"Cube.037",
			"primitives":[
				{
					"attributes":{
						"POSITION":171,
						"NORMAL":172,
						"TEXCOORD_0":173
					},
					"indices":174,
					"material":3
				}
			]
		},
		{
			"name":"Cylinder.005",
			"primitives":[
				{
					"attributes":{
						"POSITION":175,
						"NORMAL":176,
						"TEXCOORD_0":177
					},
					"indices":14,
					"material":0
				}
			]
		},
		{
			"name":"Cylinder",
			"primitives":[
				{
					"attributes":{
						"POSITION":178,
						"NORMAL":179,
						"TEXCOORD_0":180
					},
					"indices":14,
					"material":0
				}
			]
		},
		{
			"name":"Cube",
			"primitives":[
				{
					"attributes":{
						"POSITION":181,
						"NORMAL":182,
						"TEXCOORD_0":183
					},
					"indices":3,
					"material":0
				}
			]
		},
		{
			"name":"Cube.001",
			"primitives":[
				{
					"attributes":{
						"POSITION":184,
						"NORMAL":185,
						"TEXCOORD_0":186
					},
					"indices":3,
					"material":0
				}
			]
		},
		{
			"name":"Cube.002",
			"primitives":[
				{
					"attributes":{
						"POSITION":187,
						"NORMAL":188,
						"TEXCOORD_0":189
					},
					"indices":3,
					"material":7
				}
			]
		},
		{
			"name":"Cylinder.010",
			"primitives":[
				{
					"attributes":{
						"POSITION":190,
						"NORMAL":191,
						"TEXCOORD_0":192
					},
					"indices":193,
					"material":2
				}
			]
		}
	],
	"accessors":[
		{
			"bufferView":0,
			"componentType":5126,
			"count":216,
			"max":[
				7.849999904632568,
				6.679999828338623,
				1.3700000047683716
			],
			"min":[
				-7.849999904632568,
				5.679999828338623,
				-1.3700000047683716
			],
			"type":"VEC3"
		},
		{
			"bufferView":1,
			"componentType":5126,
			"count":216,
			"type":"VEC3"
		},
		{
			"bufferView":2,
			"componentType":5126,
			"count":216,
			"type":"VEC2"
		},
		{
			"bufferView":3,
			"componentType":5123,
			"count":324,
			"type":"SCALAR"
		},
		{
			"bufferView":4,
			"componentType":5126,
			"count":216,
			"max":[
				7.150000095367432,
				7.349999904632568,
				1
			],
			"min":[
				-7.150000095367432,
				6.349999904632568,
				-1
			],
			"type":"VEC3"
		},
		{
			"bufferView":5,
			"componentType":5126,
			"count":216,
			"type":"VEC3"
		},
		{
			"bufferView":6,
			"componentType":5126,
			"count":216,
			"type":"VEC2"
		},
		{
			"bufferView":7,
			"componentType":5126,
			"count":216,
			"max":[
				7.550000190734863,
				6.699999809265137,
				1.149999976158142
			],
			"min":[
				-7.550000190734863,
				6.340000152587891,
				-1.149999976158142
			],
			"type":"VEC3"
		},
		{
			"bufferView":8,
			"componentType":5126,
			"count":216,
			"type":"VEC3"
		},
		{
			"bufferView":9,
			"componentType":5126,
			"count":216,
			"type":"VEC2"
		},
		{
			"bufferView":10,
			"componentType":5123,
			"count":324,
			"type":"SCALAR"
		},
		{
			"bufferView":11,
			"componentType":5126,
			"count":432,
			"max":[
				3.55057954788208,
				2.3299999237060547,
				0.599266529083252
			],
			"min":[
				2.3494203090667725,
				2.1700000762939453,
				-0.599266529083252
			],
			"type":"VEC3"
		},
		{
			"bufferView":12,
			"componentType":5126,
			"count":432,
			"type":"VEC3"
		},
		{
			"bufferView":13,
			"componentType":5126,
			"count":432,
			"type":"VEC2"
		},
		{
			"bufferView":14,
			"componentType":5123,
			"count":660,
			"type":"SCALAR"
		},
		{
			"bufferView":15,
			"componentType":5126,
			"count":432,
			"max":[
				3.55057954788208,
				3.5799999237060547,
				0.599266529083252
			],
			"min":[
				2.3494203090667725,
				3.4200000762939453,
				-0.599266529083252
			],
			"type":"VEC3"
		},
		{
			"bufferView":16,
			"componentType":5126,
			"count":432,
			"type":"VEC3"
		},
		{
			"bufferView":17,
			"componentType":5126,
			"count":432,
			"type":"VEC2"
		},
		{
			"bufferView":18,
			"componentType":5126,
			"count":432,
			"max":[
				3.55057954788208,
				4.829999923706055,
				0.6005797386169434
			],
			"min":[
				2.3494203090667725,
				4.670000076293945,
				-0.6005797386169434
			],
			"type":"VEC3"
		},
		{
			"bufferView":19,
			"componentType":5126,
			"count":432,
			"type":"VEC3"
		},
		{
			"bufferView":20,
			"componentType":5126,
			"count":432,
			"type":"VEC2"
		},
		{
			"bufferView":21,
			"componentType":5123,
			"count":660,
			"type":"SCALAR"
		},
		{
			"bufferView":22,
			"componentType":5126,
			"count":432,
			"max":[
				-2.3494203090667725,
				2.3299999237060547,
				0.599266529083252
			],
			"min":[
				-3.55057954788208,
				2.1700000762939453,
				-0.599266529083252
			],
			"type":"VEC3"
		},
		{
			"bufferView":23,
			"componentType":5126,
			"count":432,
			"type":"VEC3"
		},
		{
			"bufferView":24,
			"componentType":5126,
			"count":432,
			"type":"VEC2"
		},
		{
			"bufferView":25,
			"componentType":5126,
			"count":432,
			"max":[
				-2.3494203090667725,
				3.5799999237060547,
				0.599266529083252
			],
			"min":[
				-3.55057954788208,
				3.4200000762939453,
				-0.599266529083252
			],
			"type":"VEC3"
		},
		{
			"bufferView":26,
			"componentType":5126,
			"count":432,
			"type":"VEC3"
		},
		{
			"bufferView":27,
			"componentType":5126,
			"count":432,
			"type":"VEC2"
		},
		{
			"bufferView":28,
			"componentType":5126,
			"count":432,
			"max":[
				-2.3494203090667725,
				4.829999923706055,
				0.6005797386169434
			],
			"min":[
				-3.55057954788208,
				4.670000076293945,
				-0.6005797386169434
			],
			"type":"VEC3"
		},
		{
			"bufferView":29,
			"componentType":5126,
			"count":432,
			"type":"VEC3"
		},
		{
			"bufferView":30,
			"componentType":5126,
			"count":432,
			"type":"VEC2"
		},
		{
			"bufferView":31,
			"componentType":5126,
			"count":540,
			"max":[
				3.3494439125061035,
				6.099999904632568,
				0.4145694673061371
			],
			"min":[
				2.550556182861328,
				5.799999713897705,
				-0.4145694673061371
			],
			"type":"VEC3"
		},
		{
			"bufferView":32,
			"componentType":5126,
			"count":540,
			"type":"VEC3"
		},
		{
			"bufferView":33,
			"componentType":5126,
			"count":540,
			"type":"VEC2"
		},
		{
			"bufferView":34,
			"componentType":5123,
			"count":828,
			"type":"SCALAR"
		},
		{
			"bufferView":35,
			"componentType":5126,
			"count":540,
			"max":[
				-2.550556182861328,
				6.099999904632568,
				0.4145694673061371
			],
			"min":[
				-3.3494439125061035,
				5.799999713897705,
				-0.4145694673061371
			],
			"type":"VEC3"
		},
		{
			"bufferView":36,
			"componentType":5126,
			"count":540,
			"type":"VEC3"
		},
		{
			"bufferView":37,
			"componentType":5126,
			"count":540,
			"type":"VEC2"
		},
		{
			"bufferView":38,
			"componentType":5126,
			"count":216,
			"max":[
				4.340000152587891,
				5.680000305175781,
				1.3899999856948853
			],
			"min":[
				1.5600000619888306,
				5,
				-1.3899999856948853
			],
			"type":"VEC3"
		},
		{
			"bufferView":39,
			"componentType":5126,
			"count":216,
			"type":"VEC3"
		},
		{
			"bufferView":40,
			"componentType":5126,
			"count":216,
			"type":"VEC2"
		},
		{
			"bufferView":41,
			"componentType":5126,
			"count":216,
			"max":[
				-1.5600000619888306,
				5.680000305175781,
				1.3899999856948853
			],
			"min":[
				-4.340000152587891,
				5,
				-1.3899999856948853
			],
			"type":"VEC3"
		},
		{
			"bufferView":42,
			"componentType":5126,
			"count":216,
			"type":"VEC3"
		},
		{
			"bufferView":43,
			"componentType":5126,
			"count":216,
			"type":"VEC2"
		},
		{
			"bufferView":44,
			"componentType":5126,
			"count":216,
			"max":[
				4.180000305175781,
				5.699999809265137,
				1.2300000190734863
			],
			"min":[
				1.7200000286102295,
				5.420000076293945,
				-1.2300000190734863
			],
			"type":"VEC3"
		},
		{
			"bufferView":45,
			"componentType":5126,
			"count":216,
			"type":"VEC3"
		},
		{
			"bufferView":46,
			"componentType":5126,
			"count":216,
			"type":"VEC2"
		},
		{
			"bufferView":47,
			"componentType":5123,
			"count":324,
			"type":"SCALAR"
		},
		{
			"bufferView":48,
			"componentType":5126,
			"count":216,
			"max":[
				-1.7200000286102295,
				5.699999809265137,
				1.2300000190734863
			],
			"min":[
				-4.180000305175781,
				5.420000076293945,
				-1.2300000190734863
			],
			"type":"VEC3"
		},
		{
			"bufferView":49,
			"componentType":5126,
			"count":216,
			"type":"VEC3"
		},
		{
			"bufferView":50,
			"componentType":5126,
			"count":216,
			"type":"VEC2"
		},
		{
			"bufferView":51,
			"componentType":5123,
			"count":324,
			"type":"SCALAR"
		},
		{
			"bufferView":52,
			"componentType":5126,
			"count":264,
			"max":[
				3.25,
				6.279999732971191,
				0.30000001192092896
			],
			"min":[
				2.6500000953674316,
				5.960000038146973,
				-0.30000001192092896
			],
			"type":"VEC3"
		},
		{
			"bufferView":53,
			"componentType":5126,
			"count":264,
			"type":"VEC3"
		},
		{
			"bufferView":54,
			"componentType":5126,
			"count":264,
			"type":"VEC2"
		},
		{
			"bufferView":55,
			"componentType":5123,
			"count":360,
			"type":"SCALAR"
		},
		{
			"bufferView":56,
			"componentType":5126,
			"count":264,
			"max":[
				-2.6500000953674316,
				6.279999732971191,
				0.30000001192092896
			],
			"min":[
				-3.25,
				5.960000038146973,
				-0.30000001192092896
			],
			"type":"VEC3"
		},
		{
			"bufferView":57,
			"componentType":5126,
			"count":264,
			"type":"VEC3"
		},
		{
			"bufferView":58,
			"componentType":5126,
			"count":264,
			"type":"VEC2"
		},
		{
			"bufferView":59,
			"componentType":5126,
			"count":24,
			"max":[
				2.3499999046325684,
				4.019999980926514,
				0.10000000149011612
			],
			"min":[
				1.75,
				3.179999828338623,
				-0.10000000149011612
			],
			"type":"VEC3"
		},
		{
			"bufferView":60,
			"componentType":5126,
			"count":24,
			"type":"VEC3"
		},
		{
			"bufferView":61,
			"componentType":5126,
			"count":24,
			"type":"VEC2"
		},
		{
			"bufferView":62,
			"componentType":5123,
			"count":36,
			"type":"SCALAR"
		},
		{
			"bufferView":63,
			"componentType":5126,
			"count":24,
			"max":[
				1.9586857557296753,
				5.558686256408691,
				0.10000000149011612
			],
			"min":[
				0.940451979637146,
				4.540452003479004,
				-0.10000000149011612
			],
			"type":"VEC3"
		},
		{
			"bufferView":64,
			"componentType":5126,
			"count":24,
			"type":"VEC3"
		},
		{
			"bufferView":65,
			"componentType":5126,
			"count":24,
			"type":"VEC2"
		},
		{
			"bufferView":66,
			"componentType":5123,
			"count":36,
			"type":"SCALAR"
		},
		{
			"bufferView":67,
			"componentType":5126,
			"count":24,
			"max":[
				0.41999998688697815,
				5.950000286102295,
				0.10000000149011612
			],
			"min":[
				-0.41999998688697815,
				5.349999904632568,
				-0.10000000149011612
			],
			"type":"VEC3"
		},
		{
			"bufferView":68,
			"componentType":5126,
			"count":24,
			"type":"VEC3"
		},
		{
			"bufferView":69,
			"componentType":5126,
			"count":24,
			"type":"VEC2"
		},
		{
			"bufferView":70,
			"componentType":5123,
			"count":36,
			"type":"SCALAR"
		},
		{
			"bufferView":71,
			"componentType":5126,
			"count":24,
			"max":[
				-0.940451979637146,
				5.558686256408691,
				0.10000000149011612
			],
			"min":[
				-1.9586857557296753,
				4.540452003479004,
				-0.10000000149011612
			],
			"type":"VEC3"
		},
		{
			"bufferView":72,
			"componentType":5126,
			"count":24,
			"type":"VEC3"
		},
		{
			"bufferView":73,
			"componentType":5126,
			"count":24,
			"type":"VEC2"
		},
		{
			"bufferView":74,
			"componentType":5123,
			"count":36,
			"type":"SCALAR"
		},
		{
			"bufferView":75,
			"componentType":5126,
			"count":24,
			"max":[
				-1.7499998807907104,
				4.019999980926514,
				0.10000000149011612
			],
			"min":[
				-2.3499999046325684,
				3.179999828338623,
				-0.10000000149011612
			],
			"type":"VEC3"
		},
		{
			"bufferView":76,
			"componentType":5126,
			"count":24,
			"type":"VEC3"
		},
		{
			"bufferView":77,
			"componentType":5126,
			"count":24,
			"type":"VEC2"
		},
		{
			"bufferView":78,
			"componentType":5126,
			"count":24,
			"max":[
				-0.940451979637146,
				2.659548044204712,
				0.10000000149011612
			],
			"min":[
				-1.9586857557296753,
				1.6413142681121826,
				-0.10000000149011612
			],
			"type":"VEC3"
		},
		{
			"bufferView":79,
			"componentType":5126,
			"count":24,
			"type":"VEC3"
		},
		{
			"bufferView":80,
			"componentType":5126,
			"count":24,
			"type":"VEC2"
		},
		{
			"bufferView":81,
			"componentType":5123,
			"count":36,
			"type":"SCALAR"
		},
		{
			"bufferView":82,
			"componentType":5126,
			"count":24,
			"max":[
				0.41999998688697815,
				1.8499999046325684,
				0.10000000149011612
			],
			"min":[
				-0.41999998688697815,
				1.25,
				-0.10000000149011612
			],
			"type":"VEC3"
		},
		{
			"bufferView":83,
			"componentType":5126,
			"count":24,
			"type":"VEC3"
		},
		{
			"bufferView":84,
			"componentType":5126,
			"count":24,
			"type":"VEC2"
		},
		{
			"bufferView":85,
			"componentType":5126,
			"count":24,
			"max":[
				1.9586857557296753,
				2.659548044204712,
				0.10000000149011612
			],
			"min":[
				0.940451979637146,
				1.6413142681121826,
				-0.10000000149011612
			],
			"type":"VEC3"
		},
		{
			"bufferView":86,
			"componentType":5126,
			"count":24,
			"type":"VEC3"
		},
		{
			"bufferView":87,
			"componentType":5126,
			"count":24,
			"type":"VEC2"
		},
		{
			"bufferView":88,
			"componentType":5123,
			"count":36,
			"type":"SCALAR"
		},
		{
			"bufferView":89,
			"componentType":5126,
			"count":784,
			"max":[
				2.190000057220459,
				5.789999961853027,
				0.13649006187915802
			],
			"min":[
				-2.190000057220459,
				1.4099998474121094,
				-0.13649006187915802
			],
			"type":"VEC3"
		},
		{
			"bufferView":90,
			"componentType":5126,
			"count":784,
			"type":"VEC3"
		},
		{
			"bufferView":91,
			"componentType":5126,
			"count":784,
			"type":"VEC2"
		},
		{
			"bufferView":92,
			"componentType":5123,
			"count":1176,
			"type":"SCALAR"
		},
		{
			"bufferView":93,
			"componentType":5126,
			"count":216,
			"max":[
				0.4000000059604645,
				7.300000190734863,
				0.4399999976158142
			],
			"min":[
				-0.4000000059604645,
				5.699999809265137,
				0.19999998807907104
			],
			"type":"VEC3"
		},
		{
			"bufferView":94,
			"componentType":5126,
			"count":216,
			"type":"VEC3"
		},
		{
			"bufferView":95,
			"componentType":5126,
			"count":216,
			"type":"VEC2"
		},
		{
			"bufferView":96,
			"componentType":5126,
			"count":216,
			"max":[
				0.8500000238418579,
				7.800000190734863,
				1.7200000286102295
			],
			"min":[
				-0.8500000238418579,
				5.199999809265137,
				-1.4800000190734863
			],
			"type":"VEC3"
		},
		{
			"bufferView":97,
			"componentType":5126,
			"count":216,
			"type":"VEC3"
		},
		{
			"bufferView":98,
			"componentType":5126,
			"count":216,
			"type":"VEC2"
		},
		{
			"bufferView":99,
			"componentType":5126,
			"count":216,
			"max":[
				4.550000190734863,
				1.649999976158142,
				1.600000023841858
			],
			"min":[
				1.350000023841858,
				0.6499999761581421,
				-1.600000023841858
			],
			"type":"VEC3"
		},
		{
			"bufferView":100,
			"componentType":5126,
			"count":216,
			"type":"VEC3"
		},
		{
			"bufferView":101,
			"componentType":5126,
			"count":216,
			"type":"VEC2"
		},
		{
			"bufferView":102,
			"componentType":5126,
			"count":216,
			"max":[
				-1.350000023841858,
				1.649999976158142,
				1.600000023841858
			],
			"min":[
				-4.550000190734863,
				0.6499999761581421,
				-1.600000023841858
			],
			"type":"VEC3"
		},
		{
			"bufferView":103,
			"componentType":5126,
			"count":216,
			"type":"VEC3"
		},
		{
			"bufferView":104,
			"componentType":5126,
			"count":216,
			"type":"VEC2"
		},
		{
			"bufferView":105,
			"componentType":5126,
			"count":216,
			"max":[
				4.300000190734863,
				2.069999933242798,
				1.350000023841858
			],
			"min":[
				1.600000023841858,
				1.1700000762939453,
				-1.350000023841858
			],
			"type":"VEC3"
		},
		{
			"bufferView":106,
			"componentType":5126,
			"count":216,
			"type":"VEC3"
		},
		{
			"bufferView":107,
			"componentType":5126,
			"count":216,
			"type":"VEC2"
		},
		{
			"bufferView":108,
			"componentType":5126,
			"count":216,
			"max":[
				-1.600000023841858,
				2.069999933242798,
				1.350000023841858
			],
			"min":[
				-4.300000190734863,
				1.1700000762939453,
				-1.350000023841858
			],
			"type":"VEC3"
		},
		{
			"bufferView":109,
			"componentType":5126,
			"count":216,
			"type":"VEC3"
		},
		{
			"bufferView":110,
			"componentType":5126,
			"count":216,
			"type":"VEC2"
		},
		{
			"bufferView":111,
			"componentType":5126,
			"count":144,
			"max":[
				1.25,
				4.849999904632568,
				0.07500005513429642
			],
			"min":[
				-1.25,
				2.3499999046325684,
				0.024999946355819702
			],
			"type":"VEC3"
		},
		{
			"bufferView":112,
			"componentType":5126,
			"count":144,
			"type":"VEC3"
		},
		{
			"bufferView":113,
			"componentType":5126,
			"count":144,
			"type":"VEC2"
		},
		{
			"bufferView":114,
			"componentType":5123,
			"count":276,
			"type":"SCALAR"
		},
		{
			"bufferView":115,
			"componentType":5126,
			"count":168,
			"max":[
				1.8600000143051147,
				5.460000038146973,
				0.03500008210539818
			],
			"min":[
				-1.8600000143051147,
				1.7399998903274536,
				-0.03500008210539818
			],
			"type":"VEC3"
		},
		{
			"bufferView":116,
			"componentType":5126,
			"count":168,
			"type":"VEC3"
		},
		{
			"bufferView":117,
			"componentType":5126,
			"count":168,
			"type":"VEC2"
		},
		{
			"bufferView":118,
			"componentType":5123,
			"count":324,
			"type":"SCALAR"
		},
		{
			"bufferView":119,
			"componentType":5126,
			"count":216,
			"max":[
				-0.09135164320468903,
				8.268562316894531,
				0.20000000298023224
			],
			"min":[
				-1.0933711528778076,
				7.515439033508301,
				-0.20000000298023224
			],
			"type":"VEC3"
		},
		{
			"bufferView":120,
			"componentType":5126,
			"count":216,
			"type":"VEC3"
		},
		{
			"bufferView":121,
			"componentType":5126,
			"count":216,
			"type":"VEC2"
		},
		{
			"bufferView":122,
			"componentType":5123,
			"count":324,
			"type":"SCALAR"
		},
		{
			"bufferView":123,
			"componentType":5126,
			"count":216,
			"max":[
				-0.008084956556558609,
				8.547464370727539,
				0.20000000298023224
			],
			"min":[
				-0.8712484836578369,
				7.6004862785339355,
				-0.20000000298023224
			],
			"type":"VEC3"
		},
		{
			"bufferView":124,
			"componentType":5126,
			"count":216,
			"type":"VEC3"
		},
		{
			"bufferView":125,
			"componentType":5126,
			"count":216,
			"type":"VEC2"
		},
		{
			"bufferView":126,
			"componentType":5123,
			"count":324,
			"type":"SCALAR"
		},
		{
			"bufferView":127,
			"componentType":5126,
			"count":216,
			"max":[
				0.07715849578380585,
				8.707058906555176,
				0.20000000298023224
			],
			"min":[
				-0.545042097568512,
				7.678441047668457,
				-0.20000000298023224
			],
			"type":"VEC3"
		},
		{
			"bufferView":128,
			"componentType":5126,
			"count":216,
			"type":"VEC3"
		},
		{
			"bufferView":129,
			"componentType":5126,
			"count":216,
			"type":"VEC2"
		},
		{
			"bufferView":130,
			"componentType":5123,
			"count":324,
			"type":"SCALAR"
		},
		{
			"bufferView":131,
			"componentType":5126,
			"count":216,
			"max":[
				0.1599999964237213,
				8.734000205993652,
				0.20000000298023224
			],
			"min":[
				-0.1599999964237213,
				7.734000205993652,
				-0.20000000298023224
			],
			"type":"VEC3"
		},
		{
			"bufferView":132,
			"componentType":5126,
			"count":216,
			"type":"VEC3"
		},
		{
			"bufferView":133,
			"componentType":5126,
			"count":216,
			"type":"VEC2"
		},
		{
			"bufferView":134,
			"componentType":5123,
			"count":324,
			"type":"SCALAR"
		},
		{
			"bufferView":135,
			"componentType":5126,
			"count":216,
			"max":[
				0.545042097568512,
				8.707058906555176,
				0.20000000298023224
			],
			"min":[
				-0.07715849578380585,
				7.678441047668457,
				-0.20000000298023224
			],
			"type":"VEC3"
		},
		{
			"bufferView":136,
			"componentType":5126,
			"count":216,
			"type":"VEC3"
		},
		{
			"bufferView":137,
			"componentType":5126,
			"count":216,
			"type":"VEC2"
		},
		{
			"bufferView":138,
			"componentType":5123,
			"count":324,
			"type":"SCALAR"
		},
		{
			"bufferView":139,
			"componentType":5126,
			"count":216,
			"max":[
				0.8712484836578369,
				8.547464370727539,
				0.20000000298023224
			],
			"min":[
				0.008084956556558609,
				7.6004862785339355,
				-0.20000000298023224
			],
			"type":"VEC3"
		},
		{
			"bufferView":140,
			"componentType":5126,
			"count":216,
			"type":"VEC3"
		},
		{
			"bufferView":141,
			"componentType":5126,
			"count":216,
			"type":"VEC2"
		},
		{
			"bufferView":142,
			"componentType":5123,
			"count":324,
			"type":"SCALAR"
		},
		{
			"bufferView":143,
			"componentType":5126,
			"count":216,
			"max":[
				1.0933711528778076,
				8.268562316894531,
				0.20000000298023224
			],
			"min":[
				0.09135164320468903,
				7.515439033508301,
				-0.20000000298023224
			],
			"type":"VEC3"
		},
		{
			"bufferView":144,
			"componentType":5126,
			"count":216,
			"type":"VEC3"
		},
		{
			"bufferView":145,
			"componentType":5126,
			"count":216,
			"type":"VEC2"
		},
		{
			"bufferView":146,
			"componentType":5123,
			"count":324,
			"type":"SCALAR"
		},
		{
			"bufferView":147,
			"componentType":5126,
			"count":216,
			"max":[
				0.03870951011776924,
				0.5629317760467529,
				-0.987808346748352
			],
			"min":[
				-1.0695313215255737,
				-0.3125497102737427,
				-2.060612678527832
			],
			"type":"VEC3"
		},
		{
			"bufferView":148,
			"componentType":5126,
			"count":216,
			"type":"VEC3"
		},
		{
			"bufferView":149,
			"componentType":5126,
			"count":216,
			"type":"VEC2"
		},
		{
			"bufferView":150,
			"componentType":5123,
			"count":324,
			"type":"SCALAR"
		},
		{
			"bufferView":151,
			"componentType":5126,
			"count":216,
			"max":[
				-1.2575417757034302,
				0.4124978482723236,
				-0.373288631439209
			],
			"min":[
				-1.8007904291152954,
				-0.2075454592704773,
				-1.0149582624435425
			],
			"type":"VEC3"
		},
		{
			"bufferView":152,
			"componentType":5126,
			"count":216,
			"type":"VEC3"
		},
		{
			"bufferView":153,
			"componentType":5126,
			"count":216,
			"type":"VEC2"
		},
		{
			"bufferView":154,
			"componentType":5123,
			"count":324,
			"type":"SCALAR"
		},
		{
			"bufferView":155,
			"componentType":5126,
			"count":216,
			"max":[
				5.160085678100586,
				0.43103134632110596,
				-1.0240527391433716
			],
			"min":[
				4.600465774536133,
				-0.1386738419532776,
				-1.4837924242019653
			],
			"type":"VEC3"
		},
		{
			"bufferView":156,
			"componentType":5126,
			"count":216,
			"type":"VEC3"
		},
		{
			"bufferView":157,
			"componentType":5126,
			"count":216,
			"type":"VEC2"
		},
		{
			"bufferView":158,
			"componentType":5123,
			"count":324,
			"type":"SCALAR"
		},
		{
			"bufferView":159,
			"componentType":5126,
			"count":216,
			"max":[
				3.134209632873535,
				0.7606175541877747,
				-0.017152242362499237
			],
			"min":[
				2.1235508918762207,
				-0.5107159614562988,
				-1.2430131435394287
			],
			"type":"VEC3"
		},
		{
			"bufferView":160,
			"componentType":5126,
			"count":216,
			"type":"VEC3"
		},
		{
			"bufferView":161,
			"componentType":5126,
			"count":216,
			"type":"VEC2"
		},
		{
			"bufferView":162,
			"componentType":5123,
			"count":324,
			"type":"SCALAR"
		},
		{
			"bufferView":163,
			"componentType":5126,
			"count":216,
			"max":[
				0.67014479637146,
				0.6558710336685181,
				-0.441576212644577
			],
			"min":[
				-0.6752895712852478,
				-0.45798546075820923,
				-1.6730836629867554
			],
			"type":"VEC3"
		},
		{
			"bufferView":164,
			"componentType":5126,
			"count":216,
			"type":"VEC3"
		},
		{
			"bufferView":165,
			"componentType":5126,
			"count":216,
			"type":"VEC2"
		},
		{
			"bufferView":166,
			"componentType":5123,
			"count":324,
			"type":"SCALAR"
		},
		{
			"bufferView":167,
			"componentType":5126,
			"count":216,
			"max":[
				2.1098084449768066,
				0.5279719829559326,
				-0.43934863805770874
			],
			"min":[
				1.2011443376541138,
				-0.38830941915512085,
				-1.3387311697006226
			],
			"type":"VEC3"
		},
		{
			"bufferView":168,
			"componentType":5126,
			"count":216,
			"type":"VEC3"
		},
		{
			"bufferView":169,
			"componentType":5126,
			"count":216,
			"type":"VEC2"
		},
		{
			"bufferView":170,
			"componentType":5123,
			"count":324,
			"type":"SCALAR"
		},
		{
			"bufferView":171,
			"componentType":5126,
			"count":216,
			"max":[
				4.970694541931152,
				0.485015332698822,
				-0.1990208774805069
			],
			"min":[
				4.1068010330200195,
				-0.3062944710254669,
				-1.0020689964294434
			],
			"type":"VEC3"
		},
		{
			"bufferView":172,
			"componentType":5126,
			"count":216,
			"type":"VEC3"
		},
		{
			"bufferView":173,
			"componentType":5126,
			"count":216,
			"type":"VEC2"
		},
		{
			"bufferView":174,
			"componentType":5123,
			"count":324,
			"type":"SCALAR"
		},
		{
			"bufferView":175,
			"componentType":5126,
			"count":432,
			"max":[
				3.4888672828674316,
				5.199999809265137,
				0.5359123349189758
			],
			"min":[
				2.4111328125,
				1.7999999523162842,
				-0.5359123349189758
			],
			"type":"VEC3"
		},
		{
			"bufferView":176,
			"componentType":5126,
			"count":432,
			"type":"VEC3"
		},
		{
			"bufferView":177,
			"componentType":5126,
			"count":432,
			"type":"VEC2"
		},
		{
			"bufferView":178,
			"componentType":5126,
			"count":432,
			"max":[
				-2.4111328125,
				5.199999809265137,
				0.5359123349189758
			],
			"min":[
				-3.4888672828674316,
				1.7999999523162842,
				-0.5359123349189758
			],
			"type":"VEC3"
		},
		{
			"bufferView":179,
			"componentType":5126,
			"count":432,
			"type":"VEC3"
		},
		{
			"bufferView":180,
			"componentType":5126,
			"count":432,
			"type":"VEC2"
		},
		{
			"bufferView":181,
			"componentType":5126,
			"count":216,
			"max":[
				11.399999618530273,
				0.36000001430511475,
				4.599999904632568
			],
			"min":[
				-11.399999618530273,
				-0.3199999928474426,
				-4.599999904632568
			],
			"type":"VEC3"
		},
		{
			"bufferView":182,
			"componentType":5126,
			"count":216,
			"type":"VEC3"
		},
		{
			"bufferView":183,
			"componentType":5126,
			"count":216,
			"type":"VEC2"
		},
		{
			"bufferView":184,
			"componentType":5126,
			"count":216,
			"max":[
				9.800000190734863,
				0.6599999666213989,
				3.700000047683716
			],
			"min":[
				-9.800000190734863,
				-0.02000001072883606,
				-3.700000047683716
			],
			"type":"VEC3"
		},
		{
			"bufferView":185,
			"componentType":5126,
			"count":216,
			"type":"VEC3"
		},
		{
			"bufferView":186,
			"componentType":5126,
			"count":216,
			"type":"VEC2"
		},
		{
			"bufferView":187,
			"componentType":5126,
			"count":216,
			"max":[
				8.399999618530273,
				0.9600000381469727,
				2.9000000953674316
			],
			"min":[
				-8.399999618530273,
				0.2800000011920929,
				-2.9000000953674316
			],
			"type":"VEC3"
		},
		{
			"bufferView":188,
			"componentType":5126,
			"count":216,
			"type":"VEC3"
		},
		{
			"bufferView":189,
			"componentType":5126,
			"count":216,
			"type":"VEC2"
		},
		{
			"bufferView":190,
			"componentType":5126,
			"count":440,
			"max":[
				0.6200000047683716,
				8.170000076293945,
				0.15000003576278687
			],
			"min":[
				-0.6200000047683716,
				6.930000305175781,
				-0.15000003576278687
			],
			"type":"VEC3"
		},
		{
			"bufferView":191,
			"componentType":5126,
			"count":440,
			"type":"VEC3"
		},
		{
			"bufferView":192,
			"componentType":5126,
			"count":440,
			"type":"VEC2"
		},
		{
			"bufferView":193,
			"componentType":5123,
			"count":708,
			"type":"SCALAR"
		}
	],
	"bufferViews":[
		{
			"buffer":0,
			"byteLength":2592,
			"byteOffset":0,
			"target":34962
		},
		{
			"buffer":0,
			"byteLength":2592,
			"byteOffset":2592,
			"target":34962
		},
		{
			"buffer":0,
			"byteLength":1728,
			"byteOffset":5184,
			"target":34962
		},
		{
			"buffer":0,
			"byteLength":648,
			"byteOffset":6912,
			"target":34963
		},
		{
			"buffer":0,
			"byteLength":2592,
			"byteOffset":7560,
			"target":34962
		},
		{
			"buffer":0,
			"byteLength":2592,
			"byteOffset":10152,
			"target":34962
		},
		{
			"buffer":0,
			"byteLength":1728,
			"byteOffset":12744,
			"target":34962
		},
		{
			"buffer":0,
			"byteLength":2592,
			"byteOffset":14472,
			"target":34962
		},
		{
			"buffer":0,
			"byteLength":2592,
			"byteOffset":17064,
			"target":34962
		},
		{
			"buffer":0,
			"byteLength":1728,
			"byteOffset":19656,
			"target":34962
		},
		{
			"buffer":0,
			"byteLength":648,
			"byteOffset":21384,
			"target":34963
		},
		{
			"buffer":0,
			"byteLength":5184,
			"byteOffset":22032,
			"target":34962
		},
		{
			"buffer":0,
			"byteLength":5184,
			"byteOffset":27216,
			"target":34962
		},
		{
			"buffer":0,
			"byteLength":3456,
			"byteOffset":32400,
			"target":34962
		},
		{
			"buffer":0,
			"byteLength":1320,
			"byteOffset":35856,
			"target":34963
		},
		{
			"buffer":0,
			"byteLength":5184,
			"byteOffset":37176,
			"target":34962
		},
		{
			"buffer":0,
			"byteLength":5184,
			"byteOffset":42360,
			"target":34962
		},
		{
			"buffer":0,
			"byteLength":3456,
			"byteOffset":47544,
			"target":34962
		},
		{
			"buffer":0,
			"byteLength":5184,
			"byteOffset":51000,
			"target":34962
		},
		{
			"buffer":0,
			"byteLength":5184,
			"byteOffset":56184,
			"target":34962
		},
		{
			"buffer":0,
			"byteLength":3456,
			"byteOffset":61368,
			"target":34962
		},
		{
			"buffer":0,
			"byteLength":1320,
			"byteOffset":64824,
			"target":34963
		},
		{
			"buffer":0,
			"byteLength":5184,
			"byteOffset":66144,
			"target":34962
		},
		{
			"buffer":0,
			"byteLength":5184,
			"byteOffset":71328,
			"target":34962
		},
		{
			"buffer":0,
			"byteLength":3456,
			"byteOffset":76512,
			"target":34962
		},
		{
			"buffer":0,
			"byteLength":5184,
			"byteOffset":79968,
			"target":34962
		},
		{
			"buffer":0,
			"byteLength":5184,
			"byteOffset":85152,
			"target":34962
		},
		{
			"buffer":0,
			"byteLength":3456,
			"byteOffset":90336,
			"target":34962
		},
		{
			"buffer":0,
			"byteLength":5184,
			"byteOffset":93792,
			"target":34962
		},
		{
			"buffer":0,
			"byteLength":5184,
			"byteOffset":98976,
			"target":34962
		},
		{
			"buffer":0,
			"byteLength":3456,
			"byteOffset":104160,
			"target":34962
		},
		{
			"buffer":0,
			"byteLength":6480,
			"byteOffset":107616,
			"target":34962
		},
		{
			"buffer":0,
			"byteLength":6480,
			"byteOffset":114096,
			"target":34962
		},
		{
			"buffer":0,
			"byteLength":4320,
			"byteOffset":120576,
			"target":34962
		},
		{
			"buffer":0,
			"byteLength":1656,
			"byteOffset":124896,
			"target":34963
		},
		{
			"buffer":0,
			"byteLength":6480,
			"byteOffset":126552,
			"target":34962
		},
		{
			"buffer":0,
			"byteLength":6480,
			"byteOffset":133032,
			"target":34962
		},
		{
			"buffer":0,
			"byteLength":4320,
			"byteOffset":139512,
			"target":34962
		},
		{
			"buffer":0,
			"byteLength":2592,
			"byteOffset":143832,
			"target":34962
		},
		{
			"buffer":0,
			"byteLength":2592,
			"byteOffset":146424,
			"target":34962
		},
		{
			"buffer":0,
			"byteLength":1728,
			"byteOffset":149016,
			"target":34962
		},
		{
			"buffer":0,
			"byteLength":2592,
			"byteOffset":150744,
			"target":34962
		},
		{
			"buffer":0,
			"byteLength":2592,
			"byteOffset":153336,
			"target":34962
		},
		{
			"buffer":0,
			"byteLength":1728,
			"byteOffset":155928,
			"target":34962
		},
		{
			"buffer":0,
			"byteLength":2592,
			"byteOffset":157656,
			"target":34962
		},
		{
			"buffer":0,
			"byteLength":2592,
			"byteOffset":160248,
			"target":34962
		},
		{
			"buffer":0,
			"byteLength":1728,
			"byteOffset":162840,
			"target":34962
		},
		{
			"buffer":0,
			"byteLength":648,
			"byteOffset":164568,
			"target":34963
		},
		{
			"buffer":0,
			"byteLength":2592,
			"byteOffset":165216,
			"target":34962
		},
		{
			"buffer":0,
			"byteLength":2592,
			"byteOffset":167808,
			"target":34962
		},
		{
			"buffer":0,
			"byteLength":1728,
			"byteOffset":170400,
			"target":34962
		},
		{
			"buffer":0,
			"byteLength":648,
			"byteOffset":172128,
			"target":34963
		},
		{
			"buffer":0,
			"byteLength":3168,
			"byteOffset":172776,
			"target":34962
		},
		{
			"buffer":0,
			"byteLength":3168,
			"byteOffset":175944,
			"target":34962
		},
		{
			"buffer":0,
			"byteLength":2112,
			"byteOffset":179112,
			"target":34962
		},
		{
			"buffer":0,
			"byteLength":720,
			"byteOffset":181224,
			"target":34963
		},
		{
			"buffer":0,
			"byteLength":3168,
			"byteOffset":181944,
			"target":34962
		},
		{
			"buffer":0,
			"byteLength":3168,
			"byteOffset":185112,
			"target":34962
		},
		{
			"buffer":0,
			"byteLength":2112,
			"byteOffset":188280,
			"target":34962
		},
		{
			"buffer":0,
			"byteLength":288,
			"byteOffset":190392,
			"target":34962
		},
		{
			"buffer":0,
			"byteLength":288,
			"byteOffset":190680,
			"target":34962
		},
		{
			"buffer":0,
			"byteLength":192,
			"byteOffset":190968,
			"target":34962
		},
		{
			"buffer":0,
			"byteLength":72,
			"byteOffset":191160,
			"target":34963
		},
		{
			"buffer":0,
			"byteLength":288,
			"byteOffset":191232,
			"target":34962
		},
		{
			"buffer":0,
			"byteLength":288,
			"byteOffset":191520,
			"target":34962
		},
		{
			"buffer":0,
			"byteLength":192,
			"byteOffset":191808,
			"target":34962
		},
		{
			"buffer":0,
			"byteLength":72,
			"byteOffset":192000,
			"target":34963
		},
		{
			"buffer":0,
			"byteLength":288,
			"byteOffset":192072,
			"target":34962
		},
		{
			"buffer":0,
			"byteLength":288,
			"byteOffset":192360,
			"target":34962
		},
		{
			"buffer":0,
			"byteLength":192,
			"byteOffset":192648,
			"target":34962
		},
		{
			"buffer":0,
			"byteLength":72,
			"byteOffset":192840,
			"target":34963
		},
		{
			"buffer":0,
			"byteLength":288,
			"byteOffset":192912,
			"target":34962
		},
		{
			"buffer":0,
			"byteLength":288,
			"byteOffset":193200,
			"target":34962
		},
		{
			"buffer":0,
			"byteLength":192,
			"byteOffset":193488,
			"target":34962
		},
		{
			"buffer":0,
			"byteLength":72,
			"byteOffset":193680,
			"target":34963
		},
		{
			"buffer":0,
			"byteLength":288,
			"byteOffset":193752,
			"target":34962
		},
		{
			"buffer":0,
			"byteLength":288,
			"byteOffset":194040,
			"target":34962
		},
		{
			"buffer":0,
			"byteLength":192,
			"byteOffset":194328,
			"target":34962
		},
		{
			"buffer":0,
			"byteLength":288,
			"byteOffset":194520,
			"target":34962
		},
		{
			"buffer":0,
			"byteLength":288,
			"byteOffset":194808,
			"target":34962
		},
		{
			"buffer":0,
			"byteLength":192,
			"byteOffset":195096,
			"target":34962
		},
		{
			"buffer":0,
			"byteLength":72,
			"byteOffset":195288,
			"target":34963
		},
		{
			"buffer":0,
			"byteLength":288,
			"byteOffset":195360,
			"target":34962
		},
		{
			"buffer":0,
			"byteLength":288,
			"byteOffset":195648,
			"target":34962
		},
		{
			"buffer":0,
			"byteLength":192,
			"byteOffset":195936,
			"target":34962
		},
		{
			"buffer":0,
			"byteLength":288,
			"byteOffset":196128,
			"target":34962
		},
		{
			"buffer":0,
			"byteLength":288,
			"byteOffset":196416,
			"target":34962
		},
		{
			"buffer":0,
			"byteLength":192,
			"byteOffset":196704,
			"target":34962
		},
		{
			"buffer":0,
			"byteLength":72,
			"byteOffset":196896,
			"target":34963
		},
		{
			"buffer":0,
			"byteLength":9408,
			"byteOffset":196968,
			"target":34962
		},
		{
			"buffer":0,
			"byteLength":9408,
			"byteOffset":206376,
			"target":34962
		},
		{
			"buffer":0,
			"byteLength":6272,
			"byteOffset":215784,
			"target":34962
		},
		{
			"buffer":0,
			"byteLength":2352,
			"byteOffset":222056,
			"target":34963
		},
		{
			"buffer":0,
			"byteLength":2592,
			"byteOffset":224408,
			"target":34962
		},
		{
			"buffer":0,
			"byteLength":2592,
			"byteOffset":227000,
			"target":34962
		},
		{
			"buffer":0,
			"byteLength":1728,
			"byteOffset":229592,
			"target":34962
		},
		{
			"buffer":0,
			"byteLength":2592,
			"byteOffset":231320,
			"target":34962
		},
		{
			"buffer":0,
			"byteLength":2592,
			"byteOffset":233912,
			"target":34962
		},
		{
			"buffer":0,
			"byteLength":1728,
			"byteOffset":236504,
			"target":34962
		},
		{
			"buffer":0,
			"byteLength":2592,
			"byteOffset":238232,
			"target":34962
		},
		{
			"buffer":0,
			"byteLength":2592,
			"byteOffset":240824,
			"target":34962
		},
		{
			"buffer":0,
			"byteLength":1728,
			"byteOffset":243416,
			"target":34962
		},
		{
			"buffer":0,
			"byteLength":2592,
			"byteOffset":245144,
			"target":34962
		},
		{
			"buffer":0,
			"byteLength":2592,
			"byteOffset":247736,
			"target":34962
		},
		{
			"buffer":0,
			"byteLength":1728,
			"byteOffset":250328,
			"target":34962
		},
		{
			"buffer":0,
			"byteLength":2592,
			"byteOffset":252056,
			"target":34962
		},
		{
			"buffer":0,
			"byteLength":2592,
			"byteOffset":254648,
			"target":34962
		},
		{
			"buffer":0,
			"byteLength":1728,
			"byteOffset":257240,
			"target":34962
		},
		{
			"buffer":0,
			"byteLength":2592,
			"byteOffset":258968,
			"target":34962
		},
		{
			"buffer":0,
			"byteLength":2592,
			"byteOffset":261560,
			"target":34962
		},
		{
			"buffer":0,
			"byteLength":1728,
			"byteOffset":264152,
			"target":34962
		},
		{
			"buffer":0,
			"byteLength":1728,
			"byteOffset":265880,
			"target":34962
		},
		{
			"buffer":0,
			"byteLength":1728,
			"byteOffset":267608,
			"target":34962
		},
		{
			"buffer":0,
			"byteLength":1152,
			"byteOffset":269336,
			"target":34962
		},
		{
			"buffer":0,
			"byteLength":552,
			"byteOffset":270488,
			"target":34963
		},
		{
			"buffer":0,
			"byteLength":2016,
			"byteOffset":271040,
			"target":34962
		},
		{
			"buffer":0,
			"byteLength":2016,
			"byteOffset":273056,
			"target":34962
		},
		{
			"buffer":0,
			"byteLength":1344,
			"byteOffset":275072,
			"target":34962
		},
		{
			"buffer":0,
			"byteLength":648,
			"byteOffset":276416,
			"target":34963
		},
		{
			"buffer":0,
			"byteLength":2592,
			"byteOffset":277064,
			"target":34962
		},
		{
			"buffer":0,
			"byteLength":2592,
			"byteOffset":279656,
			"target":34962
		},
		{
			"buffer":0,
			"byteLength":1728,
			"byteOffset":282248,
			"target":34962
		},
		{
			"buffer":0,
			"byteLength":648,
			"byteOffset":283976,
			"target":34963
		},
		{
			"buffer":0,
			"byteLength":2592,
			"byteOffset":284624,
			"target":34962
		},
		{
			"buffer":0,
			"byteLength":2592,
			"byteOffset":287216,
			"target":34962
		},
		{
			"buffer":0,
			"byteLength":1728,
			"byteOffset":289808,
			"target":34962
		},
		{
			"buffer":0,
			"byteLength":648,
			"byteOffset":291536,
			"target":34963
		},
		{
			"buffer":0,
			"byteLength":2592,
			"byteOffset":292184,
			"target":34962
		},
		{
			"buffer":0,
			"byteLength":2592,
			"byteOffset":294776,
			"target":34962
		},
		{
			"buffer":0,
			"byteLength":1728,
			"byteOffset":297368,
			"target":34962
		},
		{
			"buffer":0,
			"byteLength":648,
			"byteOffset":299096,
			"target":34963
		},
		{
			"buffer":0,
			"byteLength":2592,
			"byteOffset":299744,
			"target":34962
		},
		{
			"buffer":0,
			"byteLength":2592,
			"byteOffset":302336,
			"target":34962
		},
		{
			"buffer":0,
			"byteLength":1728,
			"byteOffset":304928,
			"target":34962
		},
		{
			"buffer":0,
			"byteLength":648,
			"byteOffset":306656,
			"target":34963
		},
		{
			"buffer":0,
			"byteLength":2592,
			"byteOffset":307304,
			"target":34962
		},
		{
			"buffer":0,
			"byteLength":2592,
			"byteOffset":309896,
			"target":34962
		},
		{
			"buffer":0,
			"byteLength":1728,
			"byteOffset":312488,
			"target":34962
		},
		{
			"buffer":0,
			"byteLength":648,
			"byteOffset":314216,
			"target":34963
		},
		{
			"buffer":0,
			"byteLength":2592,
			"byteOffset":314864,
			"target":34962
		},
		{
			"buffer":0,
			"byteLength":2592,
			"byteOffset":317456,
			"target":34962
		},
		{
			"buffer":0,
			"byteLength":1728,
			"byteOffset":320048,
			"target":34962
		},
		{
			"buffer":0,
			"byteLength":648,
			"byteOffset":321776,
			"target":34963
		},
		{
			"buffer":0,
			"byteLength":2592,
			"byteOffset":322424,
			"target":34962
		},
		{
			"buffer":0,
			"byteLength":2592,
			"byteOffset":325016,
			"target":34962
		},
		{
			"buffer":0,
			"byteLength":1728,
			"byteOffset":327608,
			"target":34962
		},
		{
			"buffer":0,
			"byteLength":648,
			"byteOffset":329336,
			"target":34963
		},
		{
			"buffer":0,
			"byteLength":2592,
			"byteOffset":329984,
			"target":34962
		},
		{
			"buffer":0,
			"byteLength":2592,
			"byteOffset":332576,
			"target":34962
		},
		{
			"buffer":0,
			"byteLength":1728,
			"byteOffset":335168,
			"target":34962
		},
		{
			"buffer":0,
			"byteLength":648,
			"byteOffset":336896,
			"target":34963
		},
		{
			"buffer":0,
			"byteLength":2592,
			"byteOffset":337544,
			"target":34962
		},
		{
			"buffer":0,
			"byteLength":2592,
			"byteOffset":340136,
			"target":34962
		},
		{
			"buffer":0,
			"byteLength":1728,
			"byteOffset":342728,
			"target":34962
		},
		{
			"buffer":0,
			"byteLength":648,
			"byteOffset":344456,
			"target":34963
		},
		{
			"buffer":0,
			"byteLength":2592,
			"byteOffset":345104,
			"target":34962
		},
		{
			"buffer":0,
			"byteLength":2592,
			"byteOffset":347696,
			"target":34962
		},
		{
			"buffer":0,
			"byteLength":1728,
			"byteOffset":350288,
			"target":34962
		},
		{
			"buffer":0,
			"byteLength":648,
			"byteOffset":352016,
			"target":34963
		},
		{
			"buffer":0,
			"byteLength":2592,
			"byteOffset":352664,
			"target":34962
		},
		{
			"buffer":0,
			"byteLength":2592,
			"byteOffset":355256,
			"target":34962
		},
		{
			"buffer":0,
			"byteLength":1728,
			"byteOffset":357848,
			"target":34962
		},
		{
			"buffer":0,
			"byteLength":648,
			"byteOffset":359576,
			"target":34963
		},
		{
			"buffer":0,
			"byteLength":2592,
			"byteOffset":360224,
			"target":34962
		},
		{
			"buffer":0,
			"byteLength":2592,
			"byteOffset":362816,
			"target":34962
		},
		{
			"buffer":0,
			"byteLength":1728,
			"byteOffset":365408,
			"target":34962
		},
		{
			"buffer":0,
			"byteLength":648,
			"byteOffset":367136,
			"target":34963
		},
		{
			"buffer":0,
			"byteLength":2592,
			"byteOffset":367784,
			"target":34962
		},
		{
			"buffer":0,
			"byteLength":2592,
			"byteOffset":370376,
			"target":34962
		},
		{
			"buffer":0,
			"byteLength":1728,
			"byteOffset":372968,
			"target":34962
		},
		{
			"buffer":0,
			"byteLength":648,
			"byteOffset":374696,
			"target":34963
		},
		{
			"buffer":0,
			"byteLength":2592,
			"byteOffset":375344,
			"target":34962
		},
		{
			"buffer":0,
			"byteLength":2592,
			"byteOffset":377936,
			"target":34962
		},
		{
			"buffer":0,
			"byteLength":1728,
			"byteOffset":380528,
			"target":34962
		},
		{
			"buffer":0,
			"byteLength":648,
			"byteOffset":382256,
			"target":34963
		},
		{
			"buffer":0,
			"byteLength":5184,
			"byteOffset":382904,
			"target":34962
		},
		{
			"buffer":0,
			"byteLength":5184,
			"byteOffset":388088,
			"target":34962
		},
		{
			"buffer":0,
			"byteLength":3456,
			"byteOffset":393272,
			"target":34962
		},
		{
			"buffer":0,
			"byteLength":5184,
			"byteOffset":396728,
			"target":34962
		},
		{
			"buffer":0,
			"byteLength":5184,
			"byteOffset":401912,
			"target":34962
		},
		{
			"buffer":0,
			"byteLength":3456,
			"byteOffset":407096,
			"target":34962
		},
		{
			"buffer":0,
			"byteLength":2592,
			"byteOffset":410552,
			"target":34962
		},
		{
			"buffer":0,
			"byteLength":2592,
			"byteOffset":413144,
			"target":34962
		},
		{
			"buffer":0,
			"byteLength":1728,
			"byteOffset":415736,
			"target":34962
		},
		{
			"buffer":0,
			"byteLength":2592,
			"byteOffset":417464,
			"target":34962
		},
		{
			"buffer":0,
			"byteLength":2592,
			"byteOffset":420056,
			"target":34962
		},
		{
			"buffer":0,
			"byteLength":1728,
			"byteOffset":422648,
			"target":34962
		},
		{
			"buffer":0,
			"byteLength":2592,
			"byteOffset":424376,
			"target":34962
		},
		{
			"buffer":0,
			"byteLength":2592,
			"byteOffset":426968,
			"target":34962
		},
		{
			"buffer":0,
			"byteLength":1728,
			"byteOffset":429560,
			"target":34962
		},
		{
			"buffer":0,
			"byteLength":5280,
			"byteOffset":431288,
			"target":34962
		},
		{
			"buffer":0,
			"byteLength":5280,
			"byteOffset":436568,
			"target":34962
		},
		{
			"buffer":0,
			"byteLength":3520,
			"byteOffset":441848,
			"target":34962
		},
		{
			"buffer":0,
			"byteLength":1416,
			"byteOffset":445368,
			"target":34963
		}
	],
	"buffers":[
		{
			"byteLength":446784,
			"uri":"bl_gate.bin"
		}
	]
}
