{
	"asset":{
		"generator":"Khronos glTF Blender I/O v5.2.40",
		"version":"2.0"
	},
	"scene":0,
	"scenes":[
		{
			"name":"Scene",
			"nodes":[
				0,
				1,
				2,
				3,
				4
			]
		}
	],
	"nodes":[
		{
			"mesh":0,
			"name":"r0"
		},
		{
			"mesh":1,
			"name":"r1"
		},
		{
			"mesh":2,
			"name":"r2"
		},
		{
			"mesh":3,
			"name":"r3"
		},
		{
			"mesh":4,
			"name":"r4"
		}
	],
	"materials":[
		{
			"doubleSided":true,
			"name":"M_rp0",
			"pbrMetallicRoughness":{
				"baseColorFactor":[
					0.39929330348968506,
					0.3488648235797882,
					0.29321613907814026,
					1
				],
				"metallicFactor":0,
				"roughnessFactor":0.8500000238418579
			}
		},
		{
			"doubleSided":true,
			"name":"M_rp1",
			"pbrMetallicRoughness":{
				"baseColorFactor":[
					0.234895259141922,
					0.20109573006629944,
					0.16364067792892456,
					1
				],
				"metallicFactor":0,
				"roughnessFactor":0.8500000238418579
			}
		},
		{
			"doubleSided":true,
			"name":"M_rp2",
			"pbrMetallicRoughness":{
				"baseColorFactor":[
					0.5859729647636414,
					0.517401397228241,
					0.43134021759033203,
					1
				],
				"metallicFactor":0,
				"roughnessFactor":0.8500000238418579
			}
		},
		{
			"doubleSided":true,
			"name":"M_rp3",
			"pbrMetallicRoughness":{
				"baseColorFactor":[
					0.39929330348968506,
					0.3488648235797882,
					0.29321613907814026,
					1
				],
				"metallicFactor":0,
				"roughnessFactor":0.8500000238418579
			}
		},
		{
			"doubleSided":true,
			"name":"M_rp4",
			"pbrMetallicRoughness":{
				"baseColorFactor":[
					0.234895259141922,
					0.20109573006629944,
					0.16364067792892456,
					1
				],
				"metallicFactor":0,
				"roughnessFactor":0.8500000238418579
			}
		}
	],
	"meshes":[
		{
			"name":"Icosphere",
			"primitives":[
				{
					"attributes":{
						"POSITION":0,
						"NORMAL":1,
						"TEXCOORD_0":2
					},
					"indices":3,
					"material":0
				}
			]
		},
		{
			"name":"Icosphere.001",
			"primitives":[
				{
					"attributes":{
						"POSITION":4,
						"NORMAL":5,
						"TEXCOORD_0":6
					},
					"indices":7,
					"material":1
				}
			]
		},
		{
			"name":"Icosphere.002",
			"primitives":[
				{
					"attributes":{
						"POSITION":8,
						"NORMAL":9,
						"TEXCOORD_0":10
					},
					"indices":11,
					"material":2
				}
			]
		},
		{
			"name":"Icosphere.003",
			"primitives":[
				{
					"attributes":{
						"POSITION":12,
						"NORMAL":13,
						"TEXCOORD_0":14
					},
					"indices":15,
					"material":3
				}
			]
		},
		{
			"name":"Icosphere.004",
			"primitives":[
				{
					"attributes":{
						"POSITION":16,
						"NORMAL":17,
						"TEXCOORD_0":18
					},
					"indices":19,
					"material":4
				}
			]
		}
	],
	"accessors":[
		{
			"bufferView":0,
			"componentType":5126,
			"count":60,
			"max":[
				0.144913449883461,
				0.5514041781425476,
				0.2961907386779785
			],
			"min":[
				-0.7388743162155151,
				-0.20794284343719482,
				-0.48782309889793396
			],
			"type":"VEC3"
		},
		{
			"bufferView":1,
			"componentType":5126,
			"count":60,
			"type":"VEC3"
		},
		{
			"bufferView":2,
			"componentType":5126,
			"count":60,
			"type":"VEC2"
		},
		{
			"bufferView":3,
			"componentType":5123,
			"count":60,
			"type":"SCALAR"
		},
		{
			"bufferView":4,
			"componentType":5126,
			"count":60,
			"max":[
				0.648966908454895,
				0.45614898204803467,
				0.4356195032596588
			],
			"min":[
				-0.12282372266054153,
				-0.14162254333496094,
				-0.2124672681093216
			],
			"type":"VEC3"
		},
		{
			"bufferView":5,
			"componentType":5126,
			"count":60,
			"type":"VEC3"
		},
		{
			"bufferView":6,
			"componentType":5126,
			"count":60,
			"type":"VEC2"
		},
		{
			"bufferView":7,
			"componentType":5123,
			"count":60,
			"type":"SCALAR"
		},
		{
			"bufferView":8,
			"componentType":5126,
			"count":60,
			"max":[
				0.3099779784679413,
				0.40018436312675476,
				-0.014028210192918777
			],
			"min":[
				-0.31131282448768616,
				-0.18834486603736877,
				-0.5471490621566772
			],
			"type":"VEC3"
		},
		{
			"bufferView":9,
			"componentType":5126,
			"count":60,
			"type":"VEC3"
		},
		{
			"bufferView":10,
			"componentType":5126,
			"count":60,
			"type":"VEC2"
		},
		{
			"bufferView":11,
			"componentType":5123,
			"count":60,
			"type":"SCALAR"
		},
		{
			"bufferView":12,
			"componentType":5126,
			"count":60,
			"max":[
				0.23974046111106873,
				0.4035586714744568,
				0.4647879898548126
			],
			"min":[
				-0.3448944091796875,
				-0.13300448656082153,
				0.03320439159870148
			],
			"type":"VEC3"
		},
		{
			"bufferView":13,
			"componentType":5126,
			"count":60,
			"type":"VEC3"
		},
		{
			"bufferView":14,
			"componentType":5126,
			"count":60,
			"type":"VEC2"
		},
		{
			"bufferView":15,
			"componentType":5123,
			"count":60,
			"type":"SCALAR"
		},
		{
			"bufferView":16,
			"componentType":5126,
			"count":60,
			"max":[
				0.6719022989273071,
				0.7240245938301086,
				0.4364437460899353
			],
			"min":[
				-0.46235066652297974,
				-0.25839418172836304,
				-0.49138274788856506
			],
			"type":"VEC3"
		},
		{
			"bufferView":17,
			"componentType":5126,
			"count":60,
			"type":"VEC3"
		},
		{
			"bufferView":18,
			"componentType":5126,
			"count":60,
			"type":"VEC2"
		},
		{
			"bufferView":19,
			"componentType":5123,
			"count":60,
			"type":"SCALAR"
		}
	],
	"bufferViews":[
		{
			"buffer":0,
			"byteLength":720,
			"byteOffset":0,
			"target":34962
		},
		{
			"buffer":0,
			"byteLength":720,
			"byteOffset":720,
			"target":34962
		},
		{
			"buffer":0,
			"byteLength":480,
			"byteOffset":1440,
			"target":34962
		},
		{
			"buffer":0,
			"byteLength":120,
			"byteOffset":1920,
			"target":34963
		},
		{
			"buffer":0,
			"byteLength":720,
			"byteOffset":2040,
			"target":34962
		},
		{
			"buffer":0,
			"byteLength":720,
			"byteOffset":2760,
			"target":34962
		},
		{
			"buffer":0,
			"byteLength":480,
			"byteOffset":3480,
			"target":34962
		},
		{
			"buffer":0,
			"byteLength":120,
			"byteOffset":3960,
			"target":34963
		},
		{
			"buffer":0,
			"byteLength":720,
			"byteOffset":4080,
			"target":34962
		},
		{
			"buffer":0,
			"byteLength":720,
			"byteOffset":4800,
			"target":34962
		},
		{
			"buffer":0,
			"byteLength":480,
			"byteOffset":5520,
			"target":34962
		},
		{
			"buffer":0,
			"byteLength":120,
			"byteOffset":6000,
			"target":34963
		},
		{
			"buffer":0,
			"byteLength":720,
			"byteOffset":6120,
			"target":34962
		},
		{
			"buffer":0,
			"byteLength":720,
			"byteOffset":6840,
			"target":34962
		},
		{
			"buffer":0,
			"byteLength":480,
			"byteOffset":7560,
			"target":34962
		},
		{
			"buffer":0,
			"byteLength":120,
			"byteOffset":8040,
			"target":34963
		},
		{
			"buffer":0,
			"byteLength":720,
			"byteOffset":8160,
			"target":34962
		},
		{
			"buffer":0,
			"byteLength":720,
			"byteOffset":8880,
			"target":34962
		},
		{
			"buffer":0,
			"byteLength":480,
			"byteOffset":9600,
			"target":34962
		},
		{
			"buffer":0,
			"byteLength":120,
			"byteOffset":10080,
			"target":34963
		}
	],
	"buffers":[
		{
			"byteLength":10200,
			"uri":"hd_rockpile.bin"
		}
	]
}
