{
	"asset":{
		"generator":"Khronos glTF Blender I/O v5.2.40",
		"version":"2.0"
	},
	"scene":0,
	"scenes":[
		{
			"name":"Scene",
			"nodes":[
				0,
				1,
				2,
				3,
				4,
				5
			]
		}
	],
	"nodes":[
		{
			"mesh":0,
			"name":"rock_moss_set_01_rock01",
			"translation":[
				-2.799999952316284,
				0,
				-2.122781276702881
			]
		},
		{
			"mesh":1,
			"name":"rock_moss_set_01_rock02",
			"translation":[
				0,
				0,
				-2.122781276702881
			]
		},
		{
			"mesh":2,
			"name":"rock_moss_set_01_rock03",
			"translation":[
				3,
				0,
				-2.122781276702881
			]
		},
		{
			"mesh":3,
			"name":"rock_moss_set_01_rock04",
			"translation":[
				-2.700000047683716,
				0,
				1.5772186517715454
			]
		},
		{
			"mesh":4,
			"name":"rock_moss_set_01_rock05",
			"translation":[
				0.15000000596046448,
				0,
				1.4772186279296875
			]
		},
		{
			"mesh":5,
			"name":"rock_moss_set_01_rock06",
			"translation":[
				2.799999952316284,
				0,
				1.5772186517715454
			]
		}
	],
	"materials":[
		{
			"doubleSided":true,
			"name":"rock_moss_set_01",
			"normalTexture":{
				"index":0
			},
			"pbrMetallicRoughness":{
				"baseColorTexture":{
					"index":1
				},
				"metallicFactor":0,
				"metallicRoughnessTexture":{
					"index":2
				}
			}
		}
	],
	"meshes":[
		{
			"name":"modelShape.005",
			"primitives":[
				{
					"attributes":{
						"POSITION":0,
						"NORMAL":1,
						"TEXCOORD_0":2
					},
					"indices":3,
					"material":0
				}
			]
		},
		{
			"name":"modelShape.002",
			"primitives":[
				{
					"attributes":{
						"POSITION":4,
						"NORMAL":5,
						"TEXCOORD_0":6
					},
					"indices":7,
					"material":0
				}
			]
		},
		{
			"name":"modelShape",
			"primitives":[
				{
					"attributes":{
						"POSITION":8,
						"NORMAL":9,
						"TEXCOORD_0":10
					},
					"indices":11,
					"material":0
				}
			]
		},
		{
			"name":"medium.001",
			"primitives":[
				{
					"attributes":{
						"POSITION":12,
						"NORMAL":13,
						"TEXCOORD_0":14
					},
					"indices":15,
					"material":0
				}
			]
		},
		{
			"name":"modelShape.003",
			"primitives":[
				{
					"attributes":{
						"POSITION":16,
						"NORMAL":17,
						"TEXCOORD_0":18
					},
					"indices":19,
					"material":0
				}
			]
		},
		{
			"name":"mesh1-geometry.003",
			"primitives":[
				{
					"attributes":{
						"POSITION":20,
						"NORMAL":21,
						"TEXCOORD_0":22
					},
					"indices":23,
					"material":0
				}
			]
		}
	],
	"textures":[
		{
			"sampler":0,
			"source":0
		},
		{
			"sampler":0,
			"source":1
		},
		{
			"sampler":0,
			"source":2
		}
	],
	"images":[
		{
			"mimeType":"image/jpeg",
			"name":"rock_moss_set_01_nor_gl",
			"uri":"textures/rock_moss_set_01_nor_gl_2k.jpg"
		},
		{
			"mimeType":"image/jpeg",
			"name":"rock_moss_set_01_diff",
			"uri":"textures/rock_moss_set_01_diff_2k.jpg"
		},
		{
			"mimeType":"image/jpeg",
			"name":"rock_moss_set_01_rough",
			"uri":"textures/rock_moss_set_01_rough_2k.jpg"
		}
	],
	"accessors":[
		{
			"bufferView":0,
			"componentType":5126,
			"count":2151,
			"max":[
				1.1249125003814697,
				0.8161294460296631,
				1.6818434000015259
			],
			"min":[
				-1.1105329990386963,
				-0.6526284217834473,
				-1.6977250576019287
			],
			"type":"VEC3"
		},
		{
			"bufferView":1,
			"componentType":5126,
			"count":2151,
			"type":"VEC3"
		},
		{
			"bufferView":2,
			"componentType":5126,
			"count":2151,
			"type":"VEC2"
		},
		{
			"bufferView":3,
			"componentType":5123,
			"count":9897,
			"type":"SCALAR"
		},
		{
			"bufferView":4,
			"componentType":5126,
			"count":2279,
			"max":[
				1.3823258876800537,
				0.7949475646018982,
				1.61910080909729
			],
			"min":[
				-1.2716031074523926,
				-0.4673749804496765,
				-1.6460788249969482
			],
			"type":"VEC3"
		},
		{
			"bufferView":5,
			"componentType":5126,
			"count":2279,
			"type":"VEC3"
		},
		{
			"bufferView":6,
			"componentType":5126,
			"count":2279,
			"type":"VEC2"
		},
		{
			"bufferView":7,
			"componentType":5123,
			"count":9891,
			"type":"SCALAR"
		},
		{
			"bufferView":8,
			"componentType":5126,
			"count":968,
			"max":[
				1.0891562700271606,
				0.6900411248207092,
				1.0556399822235107
			],
			"min":[
				-1.0175503492355347,
				-0.41005390882492065,
				-1.0240718126296997
			],
			"type":"VEC3"
		},
		{
			"bufferView":9,
			"componentType":5126,
			"count":968,
			"type":"VEC3"
		},
		{
			"bufferView":10,
			"componentType":5126,
			"count":968,
			"type":"VEC2"
		},
		{
			"bufferView":11,
			"componentType":5123,
			"count":4500,
			"type":"SCALAR"
		},
		{
			"bufferView":12,
			"componentType":5126,
			"count":1955,
			"max":[
				1.178173303604126,
				1.108271837234497,
				1.0764607191085815
			],
			"min":[
				-0.9493160843849182,
				-0.6620653867721558,
				-0.8880701661109924
			],
			"type":"VEC3"
		},
		{
			"bufferView":13,
			"componentType":5126,
			"count":1955,
			"type":"VEC3"
		},
		{
			"bufferView":14,
			"componentType":5126,
			"count":1955,
			"type":"VEC2"
		},
		{
			"bufferView":15,
			"componentType":5123,
			"count":9528,
			"type":"SCALAR"
		},
		{
			"bufferView":16,
			"componentType":5126,
			"count":2736,
			"max":[
				0.9563775062561035,
				0.6344780325889587,
				1.6477245092391968
			],
			"min":[
				-0.86163330078125,
				-0.5729519128799438,
				-1.349913239479065
			],
			"type":"VEC3"
		},
		{
			"bufferView":17,
			"componentType":5126,
			"count":2736,
			"type":"VEC3"
		},
		{
			"bufferView":18,
			"componentType":5126,
			"count":2736,
			"type":"VEC2"
		},
		{
			"bufferView":19,
			"componentType":5123,
			"count":14889,
			"type":"SCALAR"
		},
		{
			"bufferView":20,
			"componentType":5126,
			"count":1584,
			"max":[
				0.9240868091583252,
				0.731933057308197,
				1.277156949043274
			],
			"min":[
				-1.2048503160476685,
				-0.5253563523292542,
				-1.4813958406448364
			],
			"type":"VEC3"
		},
		{
			"bufferView":21,
			"componentType":5126,
			"count":1584,
			"type":"VEC3"
		},
		{
			"bufferView":22,
			"componentType":5126,
			"count":1584,
			"type":"VEC2"
		},
		{
			"bufferView":23,
			"componentType":5123,
			"count":8091,
			"type":"SCALAR"
		}
	],
	"bufferViews":[
		{
			"buffer":0,
			"byteLength":25812,
			"byteOffset":0,
			"target":34962
		},
		{
			"buffer":0,
			"byteLength":25812,
			"byteOffset":25812,
			"target":34962
		},
		{
			"buffer":0,
			"byteLength":17208,
			"byteOffset":51624,
			"target":34962
		},
		{
			"buffer":0,
			"byteLength":19794,
			"byteOffset":68832,
			"target":34963
		},
		{
			"buffer":0,
			"byteLength":27348,
			"byteOffset":88628,
			"target":34962
		},
		{
			"buffer":0,
			"byteLength":27348,
			"byteOffset":115976,
			"target":34962
		},
		{
			"buffer":0,
			"byteLength":18232,
			"byteOffset":143324,
			"target":34962
		},
		{
			"buffer":0,
			"byteLength":19782,
			"byteOffset":161556,
			"target":34963
		},
		{
			"buffer":0,
			"byteLength":11616,
			"byteOffset":181340,
			"target":34962
		},
		{
			"buffer":0,
			"byteLength":11616,
			"byteOffset":192956,
			"target":34962
		},
		{
			"buffer":0,
			"byteLength":7744,
			"byteOffset":204572,
			"target":34962
		},
		{
			"buffer":0,
			"byteLength":9000,
			"byteOffset":212316,
			"target":34963
		},
		{
			"buffer":0,
			"byteLength":23460,
			"byteOffset":221316,
			"target":34962
		},
		{
			"buffer":0,
			"byteLength":23460,
			"byteOffset":244776,
			"target":34962
		},
		{
			"buffer":0,
			"byteLength":15640,
			"byteOffset":268236,
			"target":34962
		},
		{
			"buffer":0,
			"byteLength":19056,
			"byteOffset":283876,
			"target":34963
		},
		{
			"buffer":0,
			"byteLength":32832,
			"byteOffset":302932,
			"target":34962
		},
		{
			"buffer":0,
			"byteLength":32832,
			"byteOffset":335764,
			"target":34962
		},
		{
			"buffer":0,
			"byteLength":21888,
			"byteOffset":368596,
			"target":34962
		},
		{
			"buffer":0,
			"byteLength":29778,
			"byteOffset":390484,
			"target":34963
		},
		{
			"buffer":0,
			"byteLength":19008,
			"byteOffset":420264,
			"target":34962
		},
		{
			"buffer":0,
			"byteLength":19008,
			"byteOffset":439272,
			"target":34962
		},
		{
			"buffer":0,
			"byteLength":12672,
			"byteOffset":458280,
			"target":34962
		},
		{
			"buffer":0,
			"byteLength":16182,
			"byteOffset":470952,
			"target":34963
		}
	],
	"samplers":[
		{
			"magFilter":9729,
			"minFilter":9987
		}
	],
	"buffers":[
		{
			"byteLength":487136,
			"uri":"rock_moss_set_01.bin"
		}
	]
}
