{
	"asset":{
		"generator":"Khronos glTF Blender I/O v5.2.40",
		"version":"2.0"
	},
	"scene":0,
	"scenes":[
		{
			"name":"Scene",
			"nodes":[
				0,
				1
			]
		}
	],
	"nodes":[
		{
			"mesh":0,
			"name":"mosscap"
		},
		{
			"mesh":1,
			"name":"rock"
		}
	],
	"materials":[
		{
			"doubleSided":true,
			"name":"M_bmc",
			"pbrMetallicRoughness":{
				"baseColorFactor":[
					0.20109573006629944,
					0.3586539030075073,
					0.10363409668207169,
					1
				],
				"metallicFactor":0,
				"roughnessFactor":0.8500000238418579
			}
		},
		{
			"doubleSided":true,
			"name":"M_br",
			"pbrMetallicRoughness":{
				"baseColorFactor":[
					0.39929330348968506,
					0.3488648235797882,
					0.29321613907814026,
					1
				],
				"metallicFactor":0,
				"roughnessFactor":0.8500000238418579
			}
		}
	],
	"meshes":[
		{
			"name":"Icosphere.001",
			"primitives":[
				{
					"attributes":{
						"POSITION":0,
						"NORMAL":1,
						"TEXCOORD_0":2
					},
					"indices":3,
					"material":0
				}
			]
		},
		{
			"name":"Icosphere",
			"primitives":[
				{
					"attributes":{
						"POSITION":4,
						"NORMAL":5,
						"TEXCOORD_0":6
					},
					"indices":7,
					"material":1
				}
			]
		}
	],
	"accessors":[
		{
			"bufferView":0,
			"componentType":5126,
			"count":22,
			"max":[
				0.5021466612815857,
				1.0276083946228027,
				0.39539074897766113
			],
			"min":[
				-0.38749879598617554,
				0.7718987464904785,
				-0.3566979169845581
			],
			"type":"VEC3"
		},
		{
			"bufferView":1,
			"componentType":5126,
			"count":22,
			"type":"VEC3"
		},
		{
			"bufferView":2,
			"componentType":5126,
			"count":22,
			"type":"VEC2"
		},
		{
			"bufferView":3,
			"componentType":5123,
			"count":60,
			"type":"SCALAR"
		},
		{
			"bufferView":4,
			"componentType":5126,
			"count":240,
			"max":[
				0.9230908751487732,
				0.915165901184082,
				0.9005423188209534
			],
			"min":[
				-0.9994987845420837,
				-0.3078344166278839,
				-0.924656867980957
			],
			"type":"VEC3"
		},
		{
			"bufferView":5,
			"componentType":5126,
			"count":240,
			"type":"VEC3"
		},
		{
			"bufferView":6,
			"componentType":5126,
			"count":240,
			"type":"VEC2"
		},
		{
			"bufferView":7,
			"componentType":5123,
			"count":240,
			"type":"SCALAR"
		}
	],
	"bufferViews":[
		{
			"buffer":0,
			"byteLength":264,
			"byteOffset":0,
			"target":34962
		},
		{
			"buffer":0,
			"byteLength":264,
			"byteOffset":264,
			"target":34962
		},
		{
			"buffer":0,
			"byteLength":176,
			"byteOffset":528,
			"target":34962
		},
		{
			"buffer":0,
			"byteLength":120,
			"byteOffset":704,
			"target":34963
		},
		{
			"buffer":0,
			"byteLength":2880,
			"byteOffset":824,
			"target":34962
		},
		{
			"buffer":0,
			"byteLength":2880,
			"byteOffset":3704,
			"target":34962
		},
		{
			"buffer":0,
			"byteLength":1920,
			"byteOffset":6584,
			"target":34962
		},
		{
			"buffer":0,
			"byteLength":480,
			"byteOffset":8504,
			"target":34963
		}
	],
	"buffers":[
		{
			"byteLength":8984,
			"uri":"hd_boulder.bin"
		}
	]
}
