{
	"asset":{
		"generator":"Khronos glTF Blender I/O v5.2.40",
		"version":"2.0"
	},
	"extensionsUsed":[
		"KHR_materials_emissive_strength"
	],
	"scene":0,
	"scenes":[
		{
			"name":"Scene",
			"nodes":[
				0,
				1,
				2,
				3,
				4,
				5,
				6
			]
		}
	],
	"nodes":[
		{
			"mesh":0,
			"name":"bowl",
			"translation":[
				0,
				0.800000011920929,
				0
			]
		},
		{
			"mesh":1,
			"name":"coals"
		},
		{
			"mesh":2,
			"name":"flame"
		},
		{
			"mesh":3,
			"name":"flameIn"
		},
		{
			"mesh":4,
			"name":"leg0"
		},
		{
			"mesh":5,
			"name":"leg1"
		},
		{
			"mesh":6,
			"name":"leg2"
		}
	],
	"materials":[
		{
			"doubleSided":true,
			"name":"M_bb2",
			"pbrMetallicRoughness":{
				"baseColorFactor":[
					0.2590273320674896,
					0.14799802005290985,
					0.05637409910559654,
					1
				],
				"metallicFactor":0,
				"roughnessFactor":0.8500000238418579
			}
		},
		{
			"doubleSided":true,
			"name":"M_bcl",
			"pbrMetallicRoughness":{
				"baseColorFactor":[
					0.013473397120833397,
					0.00902149174362421,
					0.00902149174362421,
					1
				],
				"metallicFactor":0,
				"roughnessFactor":0.8500000238418579
			}
		},
		{
			"doubleSided":true,
			"emissiveFactor":[
				1,
				0.19751642644405365,
				0.015175238251686096
			],
			"extensions":{
				"KHR_materials_emissive_strength":{
					"emissiveStrength":2.200000047683716
				}
			},
			"name":"M_bf",
			"pbrMetallicRoughness":{
				"baseColorFactor":[
					1,
					0.19751642644405365,
					0.015175238251686096,
					1
				],
				"metallicFactor":0,
				"roughnessFactor":0.8500000238418579
			}
		},
		{
			"doubleSided":true,
			"emissiveFactor":[
				1,
				0.5479934811592102,
				0.038472745567560196
			],
			"extensions":{
				"KHR_materials_emissive_strength":{
					"emissiveStrength":2.799999952316284
				}
			},
			"name":"M_bfi",
			"pbrMetallicRoughness":{
				"baseColorFactor":[
					1,
					0.5479934811592102,
					0.038472745567560196,
					1
				],
				"metallicFactor":0,
				"roughnessFactor":0.8500000238418579
			}
		},
		{
			"doubleSided":true,
			"name":"M_bz0",
			"pbrMetallicRoughness":{
				"baseColorFactor":[
					0.2590273320674896,
					0.14799802005290985,
					0.05637409910559654,
					1
				],
				"metallicFactor":0,
				"roughnessFactor":0.8500000238418579
			}
		},
		{
			"doubleSided":true,
			"name":"M_bz1",
			"pbrMetallicRoughness":{
				"baseColorFactor":[
					0.2590273320674896,
					0.14799802005290985,
					0.05637409910559654,
					1
				],
				"metallicFactor":0,
				"roughnessFactor":0.8500000238418579
			}
		},
		{
			"doubleSided":true,
			"name":"M_bz2",
			"pbrMetallicRoughness":{
				"baseColorFactor":[
					0.2590273320674896,
					0.14799802005290985,
					0.05637409910559654,
					1
				],
				"metallicFactor":0,
				"roughnessFactor":0.8500000238418579
			}
		}
	],
	"meshes":[
		{
			"name":"bowl",
			"primitives":[
				{
					"attributes":{
						"POSITION":0,
						"NORMAL":1
					},
					"indices":2,
					"material":0
				}
			]
		},
		{
			"name":"Icosphere",
			"primitives":[
				{
					"attributes":{
						"POSITION":3,
						"NORMAL":4,
						"TEXCOORD_0":5
					},
					"indices":6,
					"material":1
				}
			]
		},
		{
			"name":"Cone",
			"primitives":[
				{
					"attributes":{
						"POSITION":7,
						"NORMAL":8,
						"TEXCOORD_0":9
					},
					"indices":10,
					"material":2
				}
			]
		},
		{
			"name":"Cone.001",
			"primitives":[
				{
					"attributes":{
						"POSITION":11,
						"NORMAL":12,
						"TEXCOORD_0":13
					},
					"indices":14,
					"material":3
				}
			]
		},
		{
			"name":"Cylinder",
			"primitives":[
				{
					"attributes":{
						"POSITION":15,
						"NORMAL":16,
						"TEXCOORD_0":17
					},
					"indices":18,
					"material":4
				}
			]
		},
		{
			"name":"Cylinder.001",
			"primitives":[
				{
					"attributes":{
						"POSITION":19,
						"NORMAL":20,
						"TEXCOORD_0":21
					},
					"indices":22,
					"material":5
				}
			]
		},
		{
			"name":"Cylinder.002",
			"primitives":[
				{
					"attributes":{
						"POSITION":23,
						"NORMAL":24,
						"TEXCOORD_0":25
					},
					"indices":22,
					"material":6
				}
			]
		}
	],
	"accessors":[
		{
			"bufferView":0,
			"componentType":5126,
			"count":168,
			"max":[
				0.41999998688697815,
				0.2800000011920929,
				0.41999998688697815
			],
			"min":[
				-0.41999998688697815,
				0,
				-0.41999998688697815
			],
			"type":"VEC3"
		},
		{
			"bufferView":1,
			"componentType":5126,
			"count":168,
			"type":"VEC3"
		},
		{
			"bufferView":2,
			"componentType":5123,
			"count":288,
			"type":"SCALAR"
		},
		{
			"bufferView":3,
			"componentType":5126,
			"count":22,
			"max":[
				0.2751914858818054,
				0.9791259169578552,
				0.19965560734272003
			],
			"min":[
				-0.3155248165130615,
				0.7578012943267822,
				-0.26465076208114624
			],
			"type":"VEC3"
		},
		{
			"bufferView":4,
			"componentType":5126,
			"count":22,
			"type":"VEC3"
		},
		{
			"bufferView":5,
			"componentType":5126,
			"count":22,
			"type":"VEC2"
		},
		{
			"bufferView":6,
			"componentType":5123,
			"count":60,
			"type":"SCALAR"
		},
		{
			"bufferView":7,
			"componentType":5126,
			"count":42,
			"max":[
				0.15598845481872559,
				1.399999976158142,
				0.14415501058101654
			],
			"min":[
				-0.15598845481872559,
				0.8999999761581421,
				-0.1599999964237213
			],
			"type":"VEC3"
		},
		{
			"bufferView":8,
			"componentType":5126,
			"count":42,
			"type":"VEC3"
		},
		{
			"bufferView":9,
			"componentType":5126,
			"count":42,
			"type":"VEC2"
		},
		{
			"bufferView":10,
			"componentType":5123,
			"count":72,
			"type":"SCALAR"
		},
		{
			"bufferView":11,
			"componentType":5126,
			"count":36,
			"max":[
				0.07794228941202164,
				1.2699999809265137,
				0.09000000357627869
			],
			"min":[
				-0.07794228941202164,
				0.9300000071525574,
				-0.09000000357627869
			],
			"type":"VEC3"
		},
		{
			"bufferView":12,
			"componentType":5126,
			"count":36,
			"type":"VEC3"
		},
		{
			"bufferView":13,
			"componentType":5126,
			"count":36,
			"type":"VEC2"
		},
		{
			"bufferView":14,
			"componentType":5123,
			"count":60,
			"type":"SCALAR"
		},
		{
			"bufferView":15,
			"componentType":5126,
			"count":36,
			"max":[
				0.31604140996932983,
				0.8122275471687317,
				0.029999999329447746
			],
			"min":[
				0.003958582878112793,
				-0.012227535247802734,
				-0.029999999329447746
			],
			"type":"VEC3"
		},
		{
			"bufferView":16,
			"componentType":5126,
			"count":36,
			"type":"VEC3"
		},
		{
			"bufferView":17,
			"componentType":5126,
			"count":36,
			"type":"VEC2"
		},
		{
			"bufferView":18,
			"componentType":5123,
			"count":60,
			"type":"SCALAR"
		},
		{
			"bufferView":19,
			"componentType":5126,
			"count":36,
			"max":[
				0.010330602526664734,
				0.8123727440834045,
				0.0045409053564071655
			],
			"min":[
				-0.17033059895038605,
				-0.012372732162475586,
				-0.281669020652771
			],
			"type":"VEC3"
		},
		{
			"bufferView":20,
			"componentType":5126,
			"count":36,
			"type":"VEC3"
		},
		{
			"bufferView":21,
			"componentType":5126,
			"count":36,
			"type":"VEC2"
		},
		{
			"bufferView":22,
			"componentType":5123,
			"count":60,
			"type":"SCALAR"
		},
		{
			"bufferView":23,
			"componentType":5126,
			"count":36,
			"max":[
				0.010330602526664734,
				0.8123727440834045,
				0.281669020652771
			],
			"min":[
				-0.17033059895038605,
				-0.012372732162475586,
				-0.0045409053564071655
			],
			"type":"VEC3"
		},
		{
			"bufferView":24,
			"componentType":5126,
			"count":36,
			"type":"VEC3"
		},
		{
			"bufferView":25,
			"componentType":5126,
			"count":36,
			"type":"VEC2"
		}
	],
	"bufferViews":[
		{
			"buffer":0,
			"byteLength":2016,
			"byteOffset":0,
			"target":34962
		},
		{
			"buffer":0,
			"byteLength":2016,
			"byteOffset":2016,
			"target":34962
		},
		{
			"buffer":0,
			"byteLength":576,
			"byteOffset":4032,
			"target":34963
		},
		{
			"buffer":0,
			"byteLength":264,
			"byteOffset":4608,
			"target":34962
		},
		{
			"buffer":0,
			"byteLength":264,
			"byteOffset":4872,
			"target":34962
		},
		{
			"buffer":0,
			"byteLength":176,
			"byteOffset":5136,
			"target":34962
		},
		{
			"buffer":0,
			"byteLength":120,
			"byteOffset":5312,
			"target":34963
		},
		{
			"buffer":0,
			"byteLength":504,
			"byteOffset":5432,
			"target":34962
		},
		{
			"buffer":0,
			"byteLength":504,
			"byteOffset":5936,
			"target":34962
		},
		{
			"buffer":0,
			"byteLength":336,
			"byteOffset":6440,
			"target":34962
		},
		{
			"buffer":0,
			"byteLength":144,
			"byteOffset":6776,
			"target":34963
		},
		{
			"buffer":0,
			"byteLength":432,
			"byteOffset":6920,
			"target":34962
		},
		{
			"buffer":0,
			"byteLength":432,
			"byteOffset":7352,
			"target":34962
		},
		{
			"buffer":0,
			"byteLength":288,
			"byteOffset":7784,
			"target":34962
		},
		{
			"buffer":0,
			"byteLength":120,
			"byteOffset":8072,
			"target":34963
		},
		{
			"buffer":0,
			"byteLength":432,
			"byteOffset":8192,
			"target":34962
		},
		{
			"buffer":0,
			"byteLength":432,
			"byteOffset":8624,
			"target":34962
		},
		{
			"buffer":0,
			"byteLength":288,
			"byteOffset":9056,
			"target":34962
		},
		{
			"buffer":0,
			"byteLength":120,
			"byteOffset":9344,
			"target":34963
		},
		{
			"buffer":0,
			"byteLength":432,
			"byteOffset":9464,
			"target":34962
		},
		{
			"buffer":0,
			"byteLength":432,
			"byteOffset":9896,
			"target":34962
		},
		{
			"buffer":0,
			"byteLength":288,
			"byteOffset":10328,
			"target":34962
		},
		{
			"buffer":0,
			"byteLength":120,
			"byteOffset":10616,
			"target":34963
		},
		{
			"buffer":0,
			"byteLength":432,
			"byteOffset":10736,
			"target":34962
		},
		{
			"buffer":0,
			"byteLength":432,
			"byteOffset":11168,
			"target":34962
		},
		{
			"buffer":0,
			"byteLength":288,
			"byteOffset":11600,
			"target":34962
		}
	],
	"buffers":[
		{
			"byteLength":11888,
			"uri":"hd_brazier.bin"
		}
	]
}
