{
	"asset":{
		"generator":"Khronos glTF Blender I/O v5.2.40",
		"version":"2.0"
	},
	"scene":0,
	"scenes":[
		{
			"name":"Scene",
			"nodes":[
				0,
				1,
				2,
				3,
				4,
				5,
				6,
				7,
				8,
				9,
				10
			]
		}
	],
	"nodes":[
		{
			"mesh":0,
			"name":"band0"
		},
		{
			"mesh":1,
			"name":"band1"
		},
		{
			"mesh":2,
			"name":"band2"
		},
		{
			"mesh":3,
			"name":"cap"
		},
		{
			"mesh":4,
			"name":"frame"
		},
		{
			"mesh":5,
			"name":"ladder"
		},
		{
			"mesh":6,
			"name":"leg0",
			"rotation":[
				-0.036619096994400024,
				0.00134276133030653,
				-0.03661910071969032,
				0.9986572265625
			]
		},
		{
			"mesh":7,
			"name":"leg1",
			"rotation":[
				-0.036619096994400024,
				-0.00134276133030653,
				0.03661910071969032,
				0.9986572265625
			]
		},
		{
			"mesh":8,
			"name":"leg2",
			"rotation":[
				0.036619096994400024,
				-0.00134276133030653,
				-0.03661910071969032,
				0.9986572265625
			]
		},
		{
			"mesh":9,
			"name":"leg3",
			"rotation":[
				0.036619096994400024,
				0.00134276133030653,
				0.03661910071969032,
				0.9986572265625
			]
		},
		{
			"mesh":10,
			"name":"tank"
		}
	],
	"materials":[
		{
			"doubleSided":true,
			"name":"M_tb0",
			"pbrMetallicRoughness":{
				"baseColorFactor":[
					0.03423020616173744,
					0.05112205073237419,
					0.07382776588201523,
					1
				],
				"metallicFactor":0,
				"roughnessFactor":0.8500000238418579
			}
		},
		{
			"doubleSided":true,
			"name":"M_tb1",
			"pbrMetallicRoughness":{
				"baseColorFactor":[
					0.03423020616173744,
					0.05112205073237419,
					0.07382776588201523,
					1
				],
				"metallicFactor":0,
				"roughnessFactor":0.8500000238418579
			}
		},
		{
			"doubleSided":true,
			"name":"M_tb2",
			"pbrMetallicRoughness":{
				"baseColorFactor":[
					0.03423020616173744,
					0.05112205073237419,
					0.07382776588201523,
					1
				],
				"metallicFactor":0,
				"roughnessFactor":0.8500000238418579
			}
		},
		{
			"doubleSided":true,
			"name":"M_tc2",
			"pbrMetallicRoughness":{
				"baseColorFactor":[
					0.11129941791296005,
					0.041451890021562576,
					0.011881334707140923,
					1
				],
				"metallicFactor":0,
				"roughnessFactor":0.8500000238418579
			}
		},
		{
			"doubleSided":true,
			"name":"M_wf",
			"pbrMetallicRoughness":{
				"baseColorFactor":[
					0.03423020616173744,
					0.05112205073237419,
					0.07382776588201523,
					1
				],
				"metallicFactor":0,
				"roughnessFactor":0.8500000238418579
			}
		},
		{
			"doubleSided":true,
			"name":"M_ld",
			"pbrMetallicRoughness":{
				"baseColorFactor":[
					0.03423020616173744,
					0.05112205073237419,
					0.07382776588201523,
					1
				],
				"metallicFactor":0,
				"roughnessFactor":0.8500000238418579
			}
		},
		{
			"doubleSided":true,
			"name":"M_lg0",
			"pbrMetallicRoughness":{
				"baseColorFactor":[
					0.03423020616173744,
					0.05112205073237419,
					0.07382776588201523,
					1
				],
				"metallicFactor":0,
				"roughnessFactor":0.8500000238418579
			}
		},
		{
			"doubleSided":true,
			"name":"M_lg1",
			"pbrMetallicRoughness":{
				"baseColorFactor":[
					0.03423020616173744,
					0.05112205073237419,
					0.07382776588201523,
					1
				],
				"metallicFactor":0,
				"roughnessFactor":0.8500000238418579
			}
		},
		{
			"doubleSided":true,
			"name":"M_lg2",
			"pbrMetallicRoughness":{
				"baseColorFactor":[
					0.03423020616173744,
					0.05112205073237419,
					0.07382776588201523,
					1
				],
				"metallicFactor":0,
				"roughnessFactor":0.8500000238418579
			}
		},
		{
			"doubleSided":true,
			"name":"M_lg3",
			"pbrMetallicRoughness":{
				"baseColorFactor":[
					0.03423020616173744,
					0.05112205073237419,
					0.07382776588201523,
					1
				],
				"metallicFactor":0,
				"roughnessFactor":0.8500000238418579
			}
		},
		{
			"doubleSided":true,
			"name":"M_tw",
			"pbrMetallicRoughness":{
				"baseColorFactor":[
					0.2590273320674896,
					0.10114516317844391,
					0.02775527909398079,
					1
				],
				"metallicFactor":0,
				"roughnessFactor":0.8500000238418579
			}
		}
	],
	"meshes":[
		{
			"name":"Torus",
			"primitives":[
				{
					"attributes":{
						"POSITION":0,
						"NORMAL":1,
						"TEXCOORD_0":2
					},
					"indices":3,
					"material":0
				}
			]
		},
		{
			"name":"Torus.001",
			"primitives":[
				{
					"attributes":{
						"POSITION":4,
						"NORMAL":5,
						"TEXCOORD_0":6
					},
					"indices":3,
					"material":1
				}
			]
		},
		{
			"name":"Torus.002",
			"primitives":[
				{
					"attributes":{
						"POSITION":7,
						"NORMAL":8,
						"TEXCOORD_0":9
					},
					"indices":10,
					"material":2
				}
			]
		},
		{
			"name":"Cone",
			"primitives":[
				{
					"attributes":{
						"POSITION":11,
						"NORMAL":12,
						"TEXCOORD_0":13
					},
					"indices":14,
					"material":3
				}
			]
		},
		{
			"name":"Cube.004",
			"primitives":[
				{
					"attributes":{
						"POSITION":15,
						"NORMAL":16,
						"TEXCOORD_0":17
					},
					"indices":18,
					"material":4
				}
			]
		},
		{
			"name":"Cube.005",
			"primitives":[
				{
					"attributes":{
						"POSITION":19,
						"NORMAL":20,
						"TEXCOORD_0":21
					},
					"indices":18,
					"material":5
				}
			]
		},
		{
			"name":"Cube",
			"primitives":[
				{
					"attributes":{
						"POSITION":22,
						"NORMAL":23,
						"TEXCOORD_0":24
					},
					"indices":18,
					"material":6
				}
			]
		},
		{
			"name":"Cube.001",
			"primitives":[
				{
					"attributes":{
						"POSITION":25,
						"NORMAL":26,
						"TEXCOORD_0":27
					},
					"indices":18,
					"material":7
				}
			]
		},
		{
			"name":"Cube.002",
			"primitives":[
				{
					"attributes":{
						"POSITION":28,
						"NORMAL":29,
						"TEXCOORD_0":30
					},
					"indices":18,
					"material":8
				}
			]
		},
		{
			"name":"Cube.003",
			"primitives":[
				{
					"attributes":{
						"POSITION":31,
						"NORMAL":32,
						"TEXCOORD_0":33
					},
					"indices":18,
					"material":9
				}
			]
		},
		{
			"name":"Cylinder",
			"primitives":[
				{
					"attributes":{
						"POSITION":34,
						"NORMAL":35,
						"TEXCOORD_0":36
					},
					"indices":37,
					"material":10
				}
			]
		}
	],
	"accessors":[
		{
			"bufferView":0,
			"componentType":5126,
			"count":192,
			"max":[
				0.9050000309944153,
				1.934999942779541,
				0.9050000309944153
			],
			"min":[
				-0.9050000309944153,
				1.8650000095367432,
				-0.9050000309944153
			],
			"type":"VEC3"
		},
		{
			"bufferView":1,
			"componentType":5126,
			"count":192,
			"type":"VEC3"
		},
		{
			"bufferView":2,
			"componentType":5126,
			"count":192,
			"type":"VEC2"
		},
		{
			"bufferView":3,
			"componentType":5123,
			"count":288,
			"type":"SCALAR"
		},
		{
			"bufferView":4,
			"componentType":5126,
			"count":192,
			"max":[
				0.9050000309944153,
				2.5350000858306885,
				0.9050000309944153
			],
			"min":[
				-0.9050000309944153,
				2.4649999141693115,
				-0.9050000309944153
			],
			"type":"VEC3"
		},
		{
			"bufferView":5,
			"componentType":5126,
			"count":192,
			"type":"VEC3"
		},
		{
			"bufferView":6,
			"componentType":5126,
			"count":192,
			"type":"VEC2"
		},
		{
			"bufferView":7,
			"componentType":5126,
			"count":192,
			"max":[
				0.9050000309944153,
				3.134999990463257,
				0.9050000309944153
			],
			"min":[
				-0.9050000309944153,
				3.06499981880188,
				-0.9050000309944153
			],
			"type":"VEC3"
		},
		{
			"bufferView":8,
			"componentType":5126,
			"count":192,
			"type":"VEC3"
		},
		{
			"bufferView":9,
			"componentType":5126,
			"count":192,
			"type":"VEC2"
		},
		{
			"bufferView":10,
			"componentType":5123,
			"count":288,
			"type":"SCALAR"
		},
		{
			"bufferView":11,
			"componentType":5126,
			"count":72,
			"max":[
				0.9200000166893005,
				3.8499999046325684,
				0.9200000166893005
			],
			"min":[
				-0.9200000166893005,
				3.1500000953674316,
				-0.9200000166893005
			],
			"type":"VEC3"
		},
		{
			"bufferView":12,
			"componentType":5126,
			"count":72,
			"type":"VEC3"
		},
		{
			"bufferView":13,
			"componentType":5126,
			"count":72,
			"type":"VEC2"
		},
		{
			"bufferView":14,
			"componentType":5123,
			"count":132,
			"type":"SCALAR"
		},
		{
			"bufferView":15,
			"componentType":5126,
			"count":24,
			"max":[
				0.949999988079071,
				1.5800000429153442,
				0.949999988079071
			],
			"min":[
				-0.949999988079071,
				1.4199999570846558,
				-0.949999988079071
			],
			"type":"VEC3"
		},
		{
			"bufferView":16,
			"componentType":5126,
			"count":24,
			"type":"VEC3"
		},
		{
			"bufferView":17,
			"componentType":5126,
			"count":24,
			"type":"VEC2"
		},
		{
			"bufferView":18,
			"componentType":5123,
			"count":36,
			"type":"SCALAR"
		},
		{
			"bufferView":19,
			"componentType":5126,
			"count":24,
			"max":[
				0.949999988079071,
				3.5,
				0.3799999952316284
			],
			"min":[
				0.8499999642372131,
				0.2999999523162842,
				-0.18000000715255737
			],
			"type":"VEC3"
		},
		{
			"bufferView":20,
			"componentType":5126,
			"count":24,
			"type":"VEC3"
		},
		{
			"bufferView":21,
			"componentType":5126,
			"count":24,
			"type":"VEC2"
		},
		{
			"bufferView":22,
			"componentType":5126,
			"count":24,
			"max":[
				-0.6100000143051147,
				3,
				0.7899999618530273
			],
			"min":[
				-0.7899999618530273,
				0,
				0.6100000143051147
			],
			"type":"VEC3"
		},
		{
			"bufferView":23,
			"componentType":5126,
			"count":24,
			"type":"VEC3"
		},
		{
			"bufferView":24,
			"componentType":5126,
			"count":24,
			"type":"VEC2"
		},
		{
			"bufferView":25,
			"componentType":5126,
			"count":24,
			"max":[
				0.7899999618530273,
				3,
				0.7899999618530273
			],
			"min":[
				0.6100000143051147,
				0,
				0.6100000143051147
			],
			"type":"VEC3"
		},
		{
			"bufferView":26,
			"componentType":5126,
			"count":24,
			"type":"VEC3"
		},
		{
			"bufferView":27,
			"componentType":5126,
			"count":24,
			"type":"VEC2"
		},
		{
			"bufferView":28,
			"componentType":5126,
			"count":24,
			"max":[
				-0.6100000143051147,
				3,
				-0.6100000143051147
			],
			"min":[
				-0.7899999618530273,
				0,
				-0.7899999618530273
			],
			"type":"VEC3"
		},
		{
			"bufferView":29,
			"componentType":5126,
			"count":24,
			"type":"VEC3"
		},
		{
			"bufferView":30,
			"componentType":5126,
			"count":24,
			"type":"VEC2"
		},
		{
			"bufferView":31,
			"componentType":5126,
			"count":24,
			"max":[
				0.7899999618530273,
				3,
				-0.6100000143051147
			],
			"min":[
				0.6100000143051147,
				0,
				-0.7899999618530273
			],
			"type":"VEC3"
		},
		{
			"bufferView":32,
			"componentType":5126,
			"count":24,
			"type":"VEC3"
		},
		{
			"bufferView":33,
			"componentType":5126,
			"count":24,
			"type":"VEC2"
		},
		{
			"bufferView":34,
			"componentType":5126,
			"count":50,
			"max":[
				0.8500000238418579,
				3.25,
				0.8500000238418579
			],
			"min":[
				-0.8500000238418579,
				1.75,
				-0.8500000238418579
			],
			"type":"VEC3"
		},
		{
			"bufferView":35,
			"componentType":5126,
			"count":50,
			"type":"VEC3"
		},
		{
			"bufferView":36,
			"componentType":5126,
			"count":50,
			"type":"VEC2"
		},
		{
			"bufferView":37,
			"componentType":5123,
			"count":132,
			"type":"SCALAR"
		}
	],
	"bufferViews":[
		{
			"buffer":0,
			"byteLength":2304,
			"byteOffset":0,
			"target":34962
		},
		{
			"buffer":0,
			"byteLength":2304,
			"byteOffset":2304,
			"target":34962
		},
		{
			"buffer":0,
			"byteLength":1536,
			"byteOffset":4608,
			"target":34962
		},
		{
			"buffer":0,
			"byteLength":576,
			"byteOffset":6144,
			"target":34963
		},
		{
			"buffer":0,
			"byteLength":2304,
			"byteOffset":6720,
			"target":34962
		},
		{
			"buffer":0,
			"byteLength":2304,
			"byteOffset":9024,
			"target":34962
		},
		{
			"buffer":0,
			"byteLength":1536,
			"byteOffset":11328,
			"target":34962
		},
		{
			"buffer":0,
			"byteLength":2304,
			"byteOffset":12864,
			"target":34962
		},
		{
			"buffer":0,
			"byteLength":2304,
			"byteOffset":15168,
			"target":34962
		},
		{
			"buffer":0,
			"byteLength":1536,
			"byteOffset":17472,
			"target":34962
		},
		{
			"buffer":0,
			"byteLength":576,
			"byteOffset":19008,
			"target":34963
		},
		{
			"buffer":0,
			"byteLength":864,
			"byteOffset":19584,
			"target":34962
		},
		{
			"buffer":0,
			"byteLength":864,
			"byteOffset":20448,
			"target":34962
		},
		{
			"buffer":0,
			"byteLength":576,
			"byteOffset":21312,
			"target":34962
		},
		{
			"buffer":0,
			"byteLength":264,
			"byteOffset":21888,
			"target":34963
		},
		{
			"buffer":0,
			"byteLength":288,
			"byteOffset":22152,
			"target":34962
		},
		{
			"buffer":0,
			"byteLength":288,
			"byteOffset":22440,
			"target":34962
		},
		{
			"buffer":0,
			"byteLength":192,
			"byteOffset":22728,
			"target":34962
		},
		{
			"buffer":0,
			"byteLength":72,
			"byteOffset":22920,
			"target":34963
		},
		{
			"buffer":0,
			"byteLength":288,
			"byteOffset":22992,
			"target":34962
		},
		{
			"buffer":0,
			"byteLength":288,
			"byteOffset":23280,
			"target":34962
		},
		{
			"buffer":0,
			"byteLength":192,
			"byteOffset":23568,
			"target":34962
		},
		{
			"buffer":0,
			"byteLength":288,
			"byteOffset":23760,
			"target":34962
		},
		{
			"buffer":0,
			"byteLength":288,
			"byteOffset":24048,
			"target":34962
		},
		{
			"buffer":0,
			"byteLength":192,
			"byteOffset":24336,
			"target":34962
		},
		{
			"buffer":0,
			"byteLength":288,
			"byteOffset":24528,
			"target":34962
		},
		{
			"buffer":0,
			"byteLength":288,
			"byteOffset":24816,
			"target":34962
		},
		{
			"buffer":0,
			"byteLength":192,
			"byteOffset":25104,
			"target":34962
		},
		{
			"buffer":0,
			"byteLength":288,
			"byteOffset":25296,
			"target":34962
		},
		{
			"buffer":0,
			"byteLength":288,
			"byteOffset":25584,
			"target":34962
		},
		{
			"buffer":0,
			"byteLength":192,
			"byteOffset":25872,
			"target":34962
		},
		{
			"buffer":0,
			"byteLength":288,
			"byteOffset":26064,
			"target":34962
		},
		{
			"buffer":0,
			"byteLength":288,
			"byteOffset":26352,
			"target":34962
		},
		{
			"buffer":0,
			"byteLength":192,
			"byteOffset":26640,
			"target":34962
		},
		{
			"buffer":0,
			"byteLength":600,
			"byteOffset":26832,
			"target":34962
		},
		{
			"buffer":0,
			"byteLength":600,
			"byteOffset":27432,
			"target":34962
		},
		{
			"buffer":0,
			"byteLength":400,
			"byteOffset":28032,
			"target":34962
		},
		{
			"buffer":0,
			"byteLength":264,
			"byteOffset":28432,
			"target":34963
		}
	],
	"buffers":[
		{
			"byteLength":28696,
			"uri":"hd_watertower.bin"
		}
	]
}
