{
	"asset":{
		"generator":"Khronos glTF Blender I/O v5.2.40",
		"version":"2.0"
	},
	"scene":0,
	"scenes":[
		{
			"name":"Scene",
			"nodes":[
				0,
				1,
				2,
				3,
				4,
				5,
				6,
				7,
				8,
				9,
				10,
				11,
				12,
				13,
				14,
				15,
				16,
				17,
				18,
				19,
				20,
				21,
				22,
				23,
				24,
				25
			]
		}
	],
	"nodes":[
		{
			"mesh":0,
			"name":"coco0"
		},
		{
			"mesh":1,
			"name":"coco1"
		},
		{
			"mesh":2,
			"name":"coco2"
		},
		{
			"mesh":3,
			"name":"crownBase"
		},
		{
			"mesh":4,
			"name":"fr0a"
		},
		{
			"mesh":5,
			"name":"fr0b"
		},
		{
			"mesh":6,
			"name":"fr1a"
		},
		{
			"mesh":7,
			"name":"fr1b"
		},
		{
			"mesh":8,
			"name":"fr2a"
		},
		{
			"mesh":9,
			"name":"fr2b"
		},
		{
			"mesh":10,
			"name":"fr3a"
		},
		{
			"mesh":11,
			"name":"fr3b"
		},
		{
			"mesh":12,
			"name":"fr4a"
		},
		{
			"mesh":13,
			"name":"fr4b"
		},
		{
			"mesh":14,
			"name":"fr5a"
		},
		{
			"mesh":15,
			"name":"fr5b"
		},
		{
			"mesh":16,
			"name":"fr6a"
		},
		{
			"mesh":17,
			"name":"fr6b"
		},
		{
			"mesh":18,
			"name":"pring0"
		},
		{
			"mesh":19,
			"name":"pring1"
		},
		{
			"mesh":20,
			"name":"pring2"
		},
		{
			"mesh":21,
			"name":"trunk0",
			"rotation":[
				0.027283718809485435,
				0.7688066363334656,
				-0.03287460654973984,
				0.6380527019500732
			]
		},
		{
			"mesh":22,
			"name":"trunk1",
			"rotation":[
				0.08012475073337555,
				0.7634289264678955,
				-0.09654451906681061,
				0.633589506149292
			]
		},
		{
			"mesh":23,
			"name":"trunk2",
			"rotation":[
				0.12835989892482758,
				0.7538058757781982,
				-0.15466426312923431,
				0.6256032586097717
			]
		},
		{
			"mesh":24,
			"name":"trunk3",
			"rotation":[
				0.17041589319705963,
				0.741606593132019,
				-0.20533862709999084,
				0.6154788136482239
			]
		},
		{
			"mesh":25,
			"name":"trunk4",
			"rotation":[
				0.20599977672100067,
				0.7283775210380554,
				-0.24821452796459198,
				0.6044996380805969
			]
		}
	],
	"materials":[
		{
			"doubleSided":true,
			"name":"M_cc0",
			"pbrMetallicRoughness":{
				"baseColorFactor":[
					0.15728072822093964,
					0.06575387716293335,
					0.023103555664420128,
					1
				],
				"metallicFactor":0,
				"roughnessFactor":0.8500000238418579
			}
		},
		{
			"doubleSided":true,
			"name":"M_cc1",
			"pbrMetallicRoughness":{
				"baseColorFactor":[
					0.15728072822093964,
					0.06575387716293335,
					0.023103555664420128,
					1
				],
				"metallicFactor":0,
				"roughnessFactor":0.8500000238418579
			}
		},
		{
			"doubleSided":true,
			"name":"M_cc2",
			"pbrMetallicRoughness":{
				"baseColorFactor":[
					0.15728072822093964,
					0.06575387716293335,
					0.023103555664420128,
					1
				],
				"metallicFactor":0,
				"roughnessFactor":0.8500000238418579
			}
		},
		{
			"doubleSided":true,
			"name":"M_pcb",
			"pbrMetallicRoughness":{
				"baseColorFactor":[
					0.023103555664420128,
					0.20835965871810913,
					0.0697270855307579,
					1
				],
				"metallicFactor":0,
				"roughnessFactor":0.8500000238418579
			}
		},
		{
			"doubleSided":true,
			"name":"M_fa0",
			"pbrMetallicRoughness":{
				"baseColorFactor":[
					0.023103555664420128,
					0.20835965871810913,
					0.0697270855307579,
					1
				],
				"metallicFactor":0,
				"roughnessFactor":0.8500000238418579
			}
		},
		{
			"doubleSided":true,
			"name":"M_fb0",
			"pbrMetallicRoughness":{
				"baseColorFactor":[
					0.04614884406328201,
					0.3586539030075073,
					0.11657577753067017,
					1
				],
				"metallicFactor":0,
				"roughnessFactor":0.8500000238418579
			}
		},
		{
			"doubleSided":true,
			"name":"M_fa1",
			"pbrMetallicRoughness":{
				"baseColorFactor":[
					0.04614884406328201,
					0.3586539030075073,
					0.11657577753067017,
					1
				],
				"metallicFactor":0,
				"roughnessFactor":0.8500000238418579
			}
		},
		{
			"doubleSided":true,
			"name":"M_fb1",
			"pbrMetallicRoughness":{
				"baseColorFactor":[
					0.11392093449831009,
					0.5479934811592102,
					0.1904628723859787,
					1
				],
				"metallicFactor":0,
				"roughnessFactor":0.8500000238418579
			}
		},
		{
			"doubleSided":true,
			"name":"M_fa2",
			"pbrMetallicRoughness":{
				"baseColorFactor":[
					0.023103555664420128,
					0.20835965871810913,
					0.0697270855307579,
					1
				],
				"metallicFactor":0,
				"roughnessFactor":0.8500000238418579
			}
		},
		{
			"doubleSided":true,
			"name":"M_fb2",
			"pbrMetallicRoughness":{
				"baseColorFactor":[
					0.11392093449831009,
					0.5479934811592102,
					0.1904628723859787,
					1
				],
				"metallicFactor":0,
				"roughnessFactor":0.8500000238418579
			}
		},
		{
			"doubleSided":true,
			"name":"M_fa3",
			"pbrMetallicRoughness":{
				"baseColorFactor":[
					0.04614884406328201,
					0.3586539030075073,
					0.11657577753067017,
					1
				],
				"metallicFactor":0,
				"roughnessFactor":0.8500000238418579
			}
		},
		{
			"doubleSided":true,
			"name":"M_fb3",
			"pbrMetallicRoughness":{
				"baseColorFactor":[
					0.04614884406328201,
					0.3586539030075073,
					0.11657577753067017,
					1
				],
				"metallicFactor":0,
				"roughnessFactor":0.8500000238418579
			}
		},
		{
			"doubleSided":true,
			"name":"M_fa4",
			"pbrMetallicRoughness":{
				"baseColorFactor":[
					0.023103555664420128,
					0.20835965871810913,
					0.0697270855307579,
					1
				],
				"metallicFactor":0,
				"roughnessFactor":0.8500000238418579
			}
		},
		{
			"doubleSided":true,
			"name":"M_fb4",
			"pbrMetallicRoughness":{
				"baseColorFactor":[
					0.11392093449831009,
					0.5479934811592102,
					0.1904628723859787,
					1
				],
				"metallicFactor":0,
				"roughnessFactor":0.8500000238418579
			}
		},
		{
			"doubleSided":true,
			"name":"M_fa5",
			"pbrMetallicRoughness":{
				"baseColorFactor":[
					0.04614884406328201,
					0.3586539030075073,
					0.11657577753067017,
					1
				],
				"metallicFactor":0,
				"roughnessFactor":0.8500000238418579
			}
		},
		{
			"doubleSided":true,
			"name":"M_fb5",
			"pbrMetallicRoughness":{
				"baseColorFactor":[
					0.11392093449831009,
					0.5479934811592102,
					0.1904628723859787,
					1
				],
				"metallicFactor":0,
				"roughnessFactor":0.8500000238418579
			}
		},
		{
			"doubleSided":true,
			"name":"M_fa6",
			"pbrMetallicRoughness":{
				"baseColorFactor":[
					0.023103555664420128,
					0.20835965871810913,
					0.0697270855307579,
					1
				],
				"metallicFactor":0,
				"roughnessFactor":0.8500000238418579
			}
		},
		{
			"doubleSided":true,
			"name":"M_fb6",
			"pbrMetallicRoughness":{
				"baseColorFactor":[
					0.04614884406328201,
					0.3586539030075073,
					0.11657577753067017,
					1
				],
				"metallicFactor":0,
				"roughnessFactor":0.8500000238418579
			}
		},
		{
			"doubleSided":true,
			"name":"M_pr0",
			"pbrMetallicRoughness":{
				"baseColorFactor":[
					0.2590273320674896,
					0.10114516317844391,
					0.02775527909398079,
					1
				],
				"metallicFactor":0,
				"roughnessFactor":0.8500000238418579
			}
		},
		{
			"doubleSided":true,
			"name":"M_pr1",
			"pbrMetallicRoughness":{
				"baseColorFactor":[
					0.2590273320674896,
					0.10114516317844391,
					0.02775527909398079,
					1
				],
				"metallicFactor":0,
				"roughnessFactor":0.8500000238418579
			}
		},
		{
			"doubleSided":true,
			"name":"M_pr2",
			"pbrMetallicRoughness":{
				"baseColorFactor":[
					0.2590273320674896,
					0.10114516317844391,
					0.02775527909398079,
					1
				],
				"metallicFactor":0,
				"roughnessFactor":0.8500000238418579
			}
		},
		{
			"doubleSided":true,
			"name":"M_ptr",
			"pbrMetallicRoughness":{
				"baseColorFactor":[
					0.4045408368110657,
					0.17677432298660278,
					0.04614884406328201,
					1
				],
				"metallicFactor":0,
				"roughnessFactor":0.8500000238418579
			}
		}
	],
	"meshes":[
		{
			"name":"Icosphere.001",
			"primitives":[
				{
					"attributes":{
						"POSITION":0,
						"NORMAL":1,
						"TEXCOORD_0":2
					},
					"indices":3,
					"material":0
				}
			]
		},
		{
			"name":"Icosphere.002",
			"primitives":[
				{
					"attributes":{
						"POSITION":4,
						"NORMAL":5,
						"TEXCOORD_0":6
					},
					"indices":3,
					"material":1
				}
			]
		},
		{
			"name":"Icosphere.003",
			"primitives":[
				{
					"attributes":{
						"POSITION":7,
						"NORMAL":8,
						"TEXCOORD_0":9
					},
					"indices":3,
					"material":2
				}
			]
		},
		{
			"name":"Icosphere",
			"primitives":[
				{
					"attributes":{
						"POSITION":10,
						"NORMAL":11,
						"TEXCOORD_0":12
					},
					"indices":13,
					"material":3
				}
			]
		},
		{
			"name":"Cone",
			"primitives":[
				{
					"attributes":{
						"POSITION":14,
						"NORMAL":15,
						"TEXCOORD_0":16
					},
					"indices":17,
					"material":4
				}
			]
		},
		{
			"name":"Cone.001",
			"primitives":[
				{
					"attributes":{
						"POSITION":18,
						"NORMAL":19,
						"TEXCOORD_0":20
					},
					"indices":21,
					"material":5
				}
			]
		},
		{
			"name":"Cone.002",
			"primitives":[
				{
					"attributes":{
						"POSITION":22,
						"NORMAL":23,
						"TEXCOORD_0":24
					},
					"indices":25,
					"material":6
				}
			]
		},
		{
			"name":"Cone.003",
			"primitives":[
				{
					"attributes":{
						"POSITION":26,
						"NORMAL":27,
						"TEXCOORD_0":28
					},
					"indices":29,
					"material":7
				}
			]
		},
		{
			"name":"Cone.004",
			"primitives":[
				{
					"attributes":{
						"POSITION":30,
						"NORMAL":31,
						"TEXCOORD_0":32
					},
					"indices":33,
					"material":8
				}
			]
		},
		{
			"name":"Cone.005",
			"primitives":[
				{
					"attributes":{
						"POSITION":34,
						"NORMAL":35,
						"TEXCOORD_0":36
					},
					"indices":37,
					"material":9
				}
			]
		},
		{
			"name":"Cone.006",
			"primitives":[
				{
					"attributes":{
						"POSITION":38,
						"NORMAL":39,
						"TEXCOORD_0":40
					},
					"indices":41,
					"material":10
				}
			]
		},
		{
			"name":"Cone.007",
			"primitives":[
				{
					"attributes":{
						"POSITION":42,
						"NORMAL":43,
						"TEXCOORD_0":44
					},
					"indices":45,
					"material":11
				}
			]
		},
		{
			"name":"Cone.008",
			"primitives":[
				{
					"attributes":{
						"POSITION":46,
						"NORMAL":47,
						"TEXCOORD_0":48
					},
					"indices":49,
					"material":12
				}
			]
		},
		{
			"name":"Cone.009",
			"primitives":[
				{
					"attributes":{
						"POSITION":50,
						"NORMAL":51,
						"TEXCOORD_0":52
					},
					"indices":53,
					"material":13
				}
			]
		},
		{
			"name":"Cone.010",
			"primitives":[
				{
					"attributes":{
						"POSITION":54,
						"NORMAL":55,
						"TEXCOORD_0":56
					},
					"indices":57,
					"material":14
				}
			]
		},
		{
			"name":"Cone.011",
			"primitives":[
				{
					"attributes":{
						"POSITION":58,
						"NORMAL":59,
						"TEXCOORD_0":60
					},
					"indices":61,
					"material":15
				}
			]
		},
		{
			"name":"Cone.012",
			"primitives":[
				{
					"attributes":{
						"POSITION":62,
						"NORMAL":63,
						"TEXCOORD_0":64
					},
					"indices":65,
					"material":16
				}
			]
		},
		{
			"name":"Cone.013",
			"primitives":[
				{
					"attributes":{
						"POSITION":66,
						"NORMAL":67,
						"TEXCOORD_0":68
					},
					"indices":69,
					"material":17
				}
			]
		},
		{
			"name":"Torus",
			"primitives":[
				{
					"attributes":{
						"POSITION":70,
						"NORMAL":71,
						"TEXCOORD_0":72
					},
					"indices":73,
					"material":18
				}
			]
		},
		{
			"name":"Torus.001",
			"primitives":[
				{
					"attributes":{
						"POSITION":74,
						"NORMAL":75,
						"TEXCOORD_0":76
					},
					"indices":73,
					"material":19
				}
			]
		},
		{
			"name":"Torus.002",
			"primitives":[
				{
					"attributes":{
						"POSITION":77,
						"NORMAL":78,
						"TEXCOORD_0":79
					},
					"indices":73,
					"material":20
				}
			]
		},
		{
			"name":"Cylinder",
			"primitives":[
				{
					"attributes":{
						"POSITION":80,
						"NORMAL":81,
						"TEXCOORD_0":82
					},
					"indices":83,
					"material":21
				}
			]
		},
		{
			"name":"Cylinder.001",
			"primitives":[
				{
					"attributes":{
						"POSITION":84,
						"NORMAL":85,
						"TEXCOORD_0":86
					},
					"indices":83,
					"material":21
				}
			]
		},
		{
			"name":"Cylinder.002",
			"primitives":[
				{
					"attributes":{
						"POSITION":87,
						"NORMAL":88,
						"TEXCOORD_0":89
					},
					"indices":83,
					"material":21
				}
			]
		},
		{
			"name":"Cylinder.003",
			"primitives":[
				{
					"attributes":{
						"POSITION":90,
						"NORMAL":91,
						"TEXCOORD_0":92
					},
					"indices":83,
					"material":21
				}
			]
		},
		{
			"name":"Cylinder.004",
			"primitives":[
				{
					"attributes":{
						"POSITION":93,
						"NORMAL":94,
						"TEXCOORD_0":95
					},
					"indices":83,
					"material":21
				}
			]
		}
	],
	"accessors":[
		{
			"bufferView":0,
			"componentType":5126,
			"count":60,
			"max":[
				1.8634538650512695,
				3.799999952316284,
				-0.31935811042785645
			],
			"min":[
				1.6666803359985352,
				3.56000018119812,
				-0.5064988732337952
			],
			"type":"VEC3"
		},
		{
			"bufferView":1,
			"componentType":5126,
			"count":60,
			"type":"VEC3"
		},
		{
			"bufferView":2,
			"componentType":5126,
			"count":60,
			"type":"VEC2"
		},
		{
			"bufferView":3,
			"componentType":5123,
			"count":60,
			"type":"SCALAR"
		},
		{
			"bufferView":4,
			"componentType":5126,
			"count":60,
			"max":[
				1.5806865692138672,
				3.799999952316284,
				-0.3681288957595825
			],
			"min":[
				1.3839130401611328,
				3.56000018119812,
				-0.555269718170166
			],
			"type":"VEC3"
		},
		{
			"bufferView":5,
			"componentType":5126,
			"count":60,
			"type":"VEC3"
		},
		{
			"bufferView":6,
			"componentType":5126,
			"count":60,
			"type":"VEC2"
		},
		{
			"bufferView":7,
			"componentType":5126,
			"count":60,
			"max":[
				1.6369202136993408,
				3.799999952316284,
				-0.016109198331832886
			],
			"min":[
				1.4401466846466064,
				3.56000018119812,
				-0.203249990940094
			],
			"type":"VEC3"
		},
		{
			"bufferView":8,
			"componentType":5126,
			"count":60,
			"type":"VEC3"
		},
		{
			"bufferView":9,
			"componentType":5126,
			"count":60,
			"type":"VEC2"
		},
		{
			"bufferView":10,
			"componentType":5126,
			"count":22,
			"max":[
				1.9036619663238525,
				4.0919060707092285,
				-0.042516231536865234
			],
			"min":[
				1.3044734001159668,
				3.688697576522827,
				-0.6055793762207031
			],
			"type":"VEC3"
		},
		{
			"bufferView":11,
			"componentType":5126,
			"count":22,
			"type":"VEC3"
		},
		{
			"bufferView":12,
			"componentType":5126,
			"count":22,
			"type":"VEC2"
		},
		{
			"bufferView":13,
			"componentType":5123,
			"count":60,
			"type":"SCALAR"
		},
		{
			"bufferView":14,
			"componentType":5126,
			"count":30,
			"max":[
				2.4272196292877197,
				4.231400489807129,
				0.004190713167190552
			],
			"min":[
				1.9353190660476685,
				3.5989279747009277,
				-0.6101679801940918
			],
			"type":"VEC3"
		},
		{
			"bufferView":15,
			"componentType":5126,
			"count":30,
			"type":"VEC3"
		},
		{
			"bufferView":16,
			"componentType":5126,
			"count":30,
			"type":"VEC2"
		},
		{
			"bufferView":17,
			"componentType":5123,
			"count":48,
			"type":"SCALAR"
		},
		{
			"bufferView":18,
			"componentType":5126,
			"count":30,
			"max":[
				3.1964900493621826,
				3.898209810256958,
				-0.06356772780418396
			],
			"min":[
				2.8344292640686035,
				3.5608692169189453,
				-0.45986026525497437
			],
			"type":"VEC3"
		},
		{
			"bufferView":19,
			"componentType":5126,
			"count":30,
			"type":"VEC3"
		},
		{
			"bufferView":20,
			"componentType":5126,
			"count":30,
			"type":"VEC2"
		},
		{
			"bufferView":21,
			"componentType":5123,
			"count":48,
			"type":"SCALAR"
		},
		{
			"bufferView":22,
			"componentType":5126,
			"count":30,
			"max":[
				2.3151447772979736,
				4.192800045013428,
				-0.5352935791015625
			],
			"min":[
				1.7112833261489868,
				3.5808053016662598,
				-1.0837032794952393
			],
			"type":"VEC3"
		},
		{
			"bufferView":23,
			"componentType":5126,
			"count":30,
			"type":"VEC3"
		},
		{
			"bufferView":24,
			"componentType":5126,
			"count":30,
			"type":"VEC2"
		},
		{
			"bufferView":25,
			"componentType":5123,
			"count":48,
			"type":"SCALAR"
		},
		{
			"bufferView":26,
			"componentType":5126,
			"count":30,
			"max":[
				2.5003397464752197,
				3.9057226181030273,
				-1.260879635810852
			],
			"min":[
				2.155696392059326,
				3.487257957458496,
				-1.5790103673934937
			],
			"type":"VEC3"
		},
		{
			"bufferView":27,
			"componentType":5126,
			"count":30,
			"type":"VEC3"
		},
		{
			"bufferView":28,
			"componentType":5126,
			"count":30,
			"type":"VEC2"
		},
		{
			"bufferView":29,
			"componentType":5123,
			"count":48,
			"type":"SCALAR"
		},
		{
			"bufferView":30,
			"componentType":5126,
			"count":30,
			"max":[
				1.7970913648605347,
				4.225193977355957,
				-0.6217869520187378
			],
			"min":[
				1.1816842555999756,
				3.5960655212402344,
				-1.1217336654663086
			],
			"type":"VEC3"
		},
		{
			"bufferView":31,
			"componentType":5126,
			"count":30,
			"type":"VEC3"
		},
		{
			"bufferView":32,
			"componentType":5126,
			"count":30,
			"type":"VEC2"
		},
		{
			"bufferView":33,
			"componentType":5123,
			"count":48,
			"type":"SCALAR"
		},
		{
			"bufferView":34,
			"componentType":5126,
			"count":30,
			"max":[
				1.5435268878936768,
				3.8671939373016357,
				-1.5023289918899536
			],
			"min":[
				1.1865092515945435,
				3.5304322242736816,
				-1.832256555557251
			],
			"type":"VEC3"
		},
		{
			"bufferView":35,
			"componentType":5126,
			"count":30,
			"type":"VEC3"
		},
		{
			"bufferView":36,
			"componentType":5126,
			"count":30,
			"type":"VEC2"
		},
		{
			"bufferView":37,
			"componentType":5123,
			"count":48,
			"type":"SCALAR"
		},
		{
			"bufferView":38,
			"componentType":5126,
			"count":30,
			"max":[
				1.305284857749939,
				4.221109867095947,
				-0.415679931640625
			],
			"min":[
				0.7386650443077087,
				3.6257436275482178,
				-0.976978063583374
			],
			"type":"VEC3"
		},
		{
			"bufferView":39,
			"componentType":5126,
			"count":30,
			"type":"VEC3"
		},
		{
			"bufferView":40,
			"componentType":5126,
			"count":30,
			"type":"VEC2"
		},
		{
			"bufferView":41,
			"componentType":5123,
			"count":48,
			"type":"SCALAR"
		},
		{
			"bufferView":42,
			"componentType":5126,
			"count":30,
			"max":[
				0.6004289388656616,
				3.8270580768585205,
				-0.8639944791793823
			],
			"min":[
				0.20155665278434753,
				3.413222074508667,
				-1.1643627882003784
			],
			"type":"VEC3"
		},
		{
			"bufferView":43,
			"componentType":5126,
			"count":30,
			"type":"VEC3"
		},
		{
			"bufferView":44,
			"componentType":5126,
			"count":30,
			"type":"VEC2"
		},
		{
			"bufferView":45,
			"componentType":5123,
			"count":48,
			"type":"SCALAR"
		},
		{
			"bufferView":46,
			"componentType":5126,
			"count":30,
			"max":[
				1.2894829511642456,
				4.201143264770508,
				0.23248997330665588
			],
			"min":[
				0.7571042776107788,
				3.582350730895996,
				-0.3145254850387573
			],
			"type":"VEC3"
		},
		{
			"bufferView":47,
			"componentType":5126,
			"count":30,
			"type":"VEC3"
		},
		{
			"bufferView":48,
			"componentType":5126,
			"count":30,
			"type":"VEC2"
		},
		{
			"bufferView":49,
			"componentType":5123,
			"count":48,
			"type":"SCALAR"
		},
		{
			"bufferView":50,
			"componentType":5126,
			"count":30,
			"max":[
				0.47503286600112915,
				3.8500661849975586,
				0.3797979950904846
			],
			"min":[
				0.08988770842552185,
				3.4847025871276855,
				0.05854678153991699
			],
			"type":"VEC3"
		},
		{
			"bufferView":51,
			"componentType":5126,
			"count":30,
			"type":"VEC3"
		},
		{
			"bufferView":52,
			"componentType":5126,
			"count":30,
			"type":"VEC2"
		},
		{
			"bufferView":53,
			"componentType":5123,
			"count":48,
			"type":"SCALAR"
		},
		{
			"bufferView":54,
			"componentType":5126,
			"count":30,
			"max":[
				1.6987690925598145,
				4.230859279632568,
				0.5004119873046875
			],
			"min":[
				1.072342872619629,
				3.608548164367676,
				0.008020490407943726
			],
			"type":"VEC3"
		},
		{
			"bufferView":55,
			"componentType":5126,
			"count":30,
			"type":"VEC3"
		},
		{
			"bufferView":56,
			"componentType":5126,
			"count":30,
			"type":"VEC2"
		},
		{
			"bufferView":57,
			"componentType":5123,
			"count":48,
			"type":"SCALAR"
		},
		{
			"bufferView":58,
			"componentType":5126,
			"count":30,
			"max":[
				1.427148461341858,
				3.930222749710083,
				1.2372092008590698
			],
			"min":[
				1.0846366882324219,
				3.583866834640503,
				0.896152138710022
			],
			"type":"VEC3"
		},
		{
			"bufferView":59,
			"componentType":5126,
			"count":30,
			"type":"VEC3"
		},
		{
			"bufferView":60,
			"componentType":5126,
			"count":30,
			"type":"VEC2"
		},
		{
			"bufferView":61,
			"componentType":5123,
			"count":48,
			"type":"SCALAR"
		},
		{
			"bufferView":62,
			"componentType":5126,
			"count":30,
			"max":[
				2.2960431575775146,
				4.203845500946045,
				0.45041555166244507
			],
			"min":[
				1.6963601112365723,
				3.591578245162964,
				-0.07347950339317322
			],
			"type":"VEC3"
		},
		{
			"bufferView":63,
			"componentType":5126,
			"count":30,
			"type":"VEC3"
		},
		{
			"bufferView":64,
			"componentType":5126,
			"count":30,
			"type":"VEC2"
		},
		{
			"bufferView":65,
			"componentType":5123,
			"count":48,
			"type":"SCALAR"
		},
		{
			"bufferView":66,
			"componentType":5126,
			"count":30,
			"max":[
				2.5579464435577393,
				3.737422466278076,
				0.98460453748703
			],
			"min":[
				2.204996347427368,
				3.3191511631011963,
				0.649307370185852
			],
			"type":"VEC3"
		},
		{
			"bufferView":67,
			"componentType":5126,
			"count":30,
			"type":"VEC3"
		},
		{
			"bufferView":68,
			"componentType":5126,
			"count":30,
			"type":"VEC2"
		},
		{
			"bufferView":69,
			"componentType":5123,
			"count":48,
			"type":"SCALAR"
		},
		{
			"bufferView":70,
			"componentType":5126,
			"count":128,
			"max":[
				0.2574999928474426,
				0.9699999690055847,
				0.13875000178813934
			],
			"min":[
				-0.057499997317790985,
				0.9300000071525574,
				-0.17624999582767487
			],
			"type":"VEC3"
		},
		{
			"bufferView":71,
			"componentType":5126,
			"count":128,
			"type":"VEC3"
		},
		{
			"bufferView":72,
			"componentType":5126,
			"count":128,
			"type":"VEC2"
		},
		{
			"bufferView":73,
			"componentType":5123,
			"count":192,
			"type":"SCALAR"
		},
		{
			"bufferView":74,
			"componentType":5126,
			"count":128,
			"max":[
				0.5450000166893005,
				1.9199999570846558,
				0.06999999284744263
			],
			"min":[
				0.2549999952316284,
				1.8799999952316284,
				-0.2199999988079071
			],
			"type":"VEC3"
		},
		{
			"bufferView":75,
			"componentType":5126,
			"count":128,
			"type":"VEC3"
		},
		{
			"bufferView":76,
			"componentType":5126,
			"count":128,
			"type":"VEC2"
		},
		{
			"bufferView":77,
			"componentType":5126,
			"count":128,
			"max":[
				1.0325000286102295,
				2.869999885559082,
				-0.03625001013278961
			],
			"min":[
				0.7674999833106995,
				2.8299999237060547,
				-0.30124998092651367
			],
			"type":"VEC3"
		},
		{
			"bufferView":78,
			"componentType":5126,
			"count":128,
			"type":"VEC3"
		},
		{
			"bufferView":79,
			"componentType":5126,
			"count":128,
			"type":"VEC2"
		},
		{
			"bufferView":80,
			"componentType":5126,
			"count":38,
			"max":[
				0.1994173228740692,
				0.791903555393219,
				0.15374775230884552
			],
			"min":[
				-0.13541731238365173,
				-0.03190356492996216,
				-0.17599999904632568
			],
			"type":"VEC3"
		},
		{
			"bufferView":81,
			"componentType":5126,
			"count":38,
			"type":"VEC3"
		},
		{
			"bufferView":82,
			"componentType":5126,
			"count":38,
			"type":"VEC2"
		},
		{
			"bufferView":83,
			"componentType":5123,
			"count":96,
			"type":"SCALAR"
		},
		{
			"bufferView":84,
			"componentType":5126,
			"count":38,
			"max":[
				0.31363001465797424,
				1.5637400150299072,
				0.11659204959869385
			],
			"min":[
				0.0063700079917907715,
				0.7162599563598633,
				-0.1860000044107437
			],
			"type":"VEC3"
		},
		{
			"bufferView":85,
			"componentType":5126,
			"count":38,
			"type":"VEC3"
		},
		{
			"bufferView":86,
			"componentType":5126,
			"count":38,
			"type":"VEC2"
		},
		{
			"bufferView":87,
			"componentType":5126,
			"count":38,
			"max":[
				0.5558426976203918,
				2.3464725017547607,
				0.05543635040521622
			],
			"min":[
				0.27615731954574585,
				1.4535274505615234,
				-0.2199999988079071
			],
			"type":"VEC3"
		},
		{
			"bufferView":88,
			"componentType":5126,
			"count":38,
			"type":"VEC3"
		},
		{
			"bufferView":89,
			"componentType":5126,
			"count":38,
			"type":"VEC2"
		},
		{
			"bufferView":90,
			"componentType":5126,
			"count":38,
			"max":[
				0.9260554313659668,
				3.1385507583618164,
				-0.029719345271587372
			],
			"min":[
				0.6739445924758911,
				2.1814489364624023,
				-0.27799999713897705
			],
			"type":"VEC3"
		},
		{
			"bufferView":91,
			"componentType":5126,
			"count":38,
			"type":"VEC3"
		},
		{
			"bufferView":92,
			"componentType":5126,
			"count":38,
			"type":"VEC2"
		},
		{
			"bufferView":93,
			"componentType":5126,
			"count":38,
			"max":[
				1.424268126487732,
				3.9382424354553223,
				-0.13887503743171692
			],
			"min":[
				1.1997319459915161,
				2.9017577171325684,
				-0.36000001430511475
			],
			"type":"VEC3"
		},
		{
			"bufferView":94,
			"componentType":5126,
			"count":38,
			"type":"VEC3"
		},
		{
			"bufferView":95,
			"componentType":5126,
			"count":38,
			"type":"VEC2"
		}
	],
	"bufferViews":[
		{
			"buffer":0,
			"byteLength":720,
			"byteOffset":0,
			"target":34962
		},
		{
			"buffer":0,
			"byteLength":720,
			"byteOffset":720,
			"target":34962
		},
		{
			"buffer":0,
			"byteLength":480,
			"byteOffset":1440,
			"target":34962
		},
		{
			"buffer":0,
			"byteLength":120,
			"byteOffset":1920,
			"target":34963
		},
		{
			"buffer":0,
			"byteLength":720,
			"byteOffset":2040,
			"target":34962
		},
		{
			"buffer":0,
			"byteLength":720,
			"byteOffset":2760,
			"target":34962
		},
		{
			"buffer":0,
			"byteLength":480,
			"byteOffset":3480,
			"target":34962
		},
		{
			"buffer":0,
			"byteLength":720,
			"byteOffset":3960,
			"target":34962
		},
		{
			"buffer":0,
			"byteLength":720,
			"byteOffset":4680,
			"target":34962
		},
		{
			"buffer":0,
			"byteLength":480,
			"byteOffset":5400,
			"target":34962
		},
		{
			"buffer":0,
			"byteLength":264,
			"byteOffset":5880,
			"target":34962
		},
		{
			"buffer":0,
			"byteLength":264,
			"byteOffset":6144,
			"target":34962
		},
		{
			"buffer":0,
			"byteLength":176,
			"byteOffset":6408,
			"target":34962
		},
		{
			"buffer":0,
			"byteLength":120,
			"byteOffset":6584,
			"target":34963
		},
		{
			"buffer":0,
			"byteLength":360,
			"byteOffset":6704,
			"target":34962
		},
		{
			"buffer":0,
			"byteLength":360,
			"byteOffset":7064,
			"target":34962
		},
		{
			"buffer":0,
			"byteLength":240,
			"byteOffset":7424,
			"target":34962
		},
		{
			"buffer":0,
			"byteLength":96,
			"byteOffset":7664,
			"target":34963
		},
		{
			"buffer":0,
			"byteLength":360,
			"byteOffset":7760,
			"target":34962
		},
		{
			"buffer":0,
			"byteLength":360,
			"byteOffset":8120,
			"target":34962
		},
		{
			"buffer":0,
			"byteLength":240,
			"byteOffset":8480,
			"target":34962
		},
		{
			"buffer":0,
			"byteLength":96,
			"byteOffset":8720,
			"target":34963
		},
		{
			"buffer":0,
			"byteLength":360,
			"byteOffset":8816,
			"target":34962
		},
		{
			"buffer":0,
			"byteLength":360,
			"byteOffset":9176,
			"target":34962
		},
		{
			"buffer":0,
			"byteLength":240,
			"byteOffset":9536,
			"target":34962
		},
		{
			"buffer":0,
			"byteLength":96,
			"byteOffset":9776,
			"target":34963
		},
		{
			"buffer":0,
			"byteLength":360,
			"byteOffset":9872,
			"target":34962
		},
		{
			"buffer":0,
			"byteLength":360,
			"byteOffset":10232,
			"target":34962
		},
		{
			"buffer":0,
			"byteLength":240,
			"byteOffset":10592,
			"target":34962
		},
		{
			"buffer":0,
			"byteLength":96,
			"byteOffset":10832,
			"target":34963
		},
		{
			"buffer":0,
			"byteLength":360,
			"byteOffset":10928,
			"target":34962
		},
		{
			"buffer":0,
			"byteLength":360,
			"byteOffset":11288,
			"target":34962
		},
		{
			"buffer":0,
			"byteLength":240,
			"byteOffset":11648,
			"target":34962
		},
		{
			"buffer":0,
			"byteLength":96,
			"byteOffset":11888,
			"target":34963
		},
		{
			"buffer":0,
			"byteLength":360,
			"byteOffset":11984,
			"target":34962
		},
		{
			"buffer":0,
			"byteLength":360,
			"byteOffset":12344,
			"target":34962
		},
		{
			"buffer":0,
			"byteLength":240,
			"byteOffset":12704,
			"target":34962
		},
		{
			"buffer":0,
			"byteLength":96,
			"byteOffset":12944,
			"target":34963
		},
		{
			"buffer":0,
			"byteLength":360,
			"byteOffset":13040,
			"target":34962
		},
		{
			"buffer":0,
			"byteLength":360,
			"byteOffset":13400,
			"target":34962
		},
		{
			"buffer":0,
			"byteLength":240,
			"byteOffset":13760,
			"target":34962
		},
		{
			"buffer":0,
			"byteLength":96,
			"byteOffset":14000,
			"target":34963
		},
		{
			"buffer":0,
			"byteLength":360,
			"byteOffset":14096,
			"target":34962
		},
		{
			"buffer":0,
			"byteLength":360,
			"byteOffset":14456,
			"target":34962
		},
		{
			"buffer":0,
			"byteLength":240,
			"byteOffset":14816,
			"target":34962
		},
		{
			"buffer":0,
			"byteLength":96,
			"byteOffset":15056,
			"target":34963
		},
		{
			"buffer":0,
			"byteLength":360,
			"byteOffset":15152,
			"target":34962
		},
		{
			"buffer":0,
			"byteLength":360,
			"byteOffset":15512,
			"target":34962
		},
		{
			"buffer":0,
			"byteLength":240,
			"byteOffset":15872,
			"target":34962
		},
		{
			"buffer":0,
			"byteLength":96,
			"byteOffset":16112,
			"target":34963
		},
		{
			"buffer":0,
			"byteLength":360,
			"byteOffset":16208,
			"target":34962
		},
		{
			"buffer":0,
			"byteLength":360,
			"byteOffset":16568,
			"target":34962
		},
		{
			"buffer":0,
			"byteLength":240,
			"byteOffset":16928,
			"target":34962
		},
		{
			"buffer":0,
			"byteLength":96,
			"byteOffset":17168,
			"target":34963
		},
		{
			"buffer":0,
			"byteLength":360,
			"byteOffset":17264,
			"target":34962
		},
		{
			"buffer":0,
			"byteLength":360,
			"byteOffset":17624,
			"target":34962
		},
		{
			"buffer":0,
			"byteLength":240,
			"byteOffset":17984,
			"target":34962
		},
		{
			"buffer":0,
			"byteLength":96,
			"byteOffset":18224,
			"target":34963
		},
		{
			"buffer":0,
			"byteLength":360,
			"byteOffset":18320,
			"target":34962
		},
		{
			"buffer":0,
			"byteLength":360,
			"byteOffset":18680,
			"target":34962
		},
		{
			"buffer":0,
			"byteLength":240,
			"byteOffset":19040,
			"target":34962
		},
		{
			"buffer":0,
			"byteLength":96,
			"byteOffset":19280,
			"target":34963
		},
		{
			"buffer":0,
			"byteLength":360,
			"byteOffset":19376,
			"target":34962
		},
		{
			"buffer":0,
			"byteLength":360,
			"byteOffset":19736,
			"target":34962
		},
		{
			"buffer":0,
			"byteLength":240,
			"byteOffset":20096,
			"target":34962
		},
		{
			"buffer":0,
			"byteLength":96,
			"byteOffset":20336,
			"target":34963
		},
		{
			"buffer":0,
			"byteLength":360,
			"byteOffset":20432,
			"target":34962
		},
		{
			"buffer":0,
			"byteLength":360,
			"byteOffset":20792,
			"target":34962
		},
		{
			"buffer":0,
			"byteLength":240,
			"byteOffset":21152,
			"target":34962
		},
		{
			"buffer":0,
			"byteLength":96,
			"byteOffset":21392,
			"target":34963
		},
		{
			"buffer":0,
			"byteLength":1536,
			"byteOffset":21488,
			"target":34962
		},
		{
			"buffer":0,
			"byteLength":1536,
			"byteOffset":23024,
			"target":34962
		},
		{
			"buffer":0,
			"byteLength":1024,
			"byteOffset":24560,
			"target":34962
		},
		{
			"buffer":0,
			"byteLength":384,
			"byteOffset":25584,
			"target":34963
		},
		{
			"buffer":0,
			"byteLength":1536,
			"byteOffset":25968,
			"target":34962
		},
		{
			"buffer":0,
			"byteLength":1536,
			"byteOffset":27504,
			"target":34962
		},
		{
			"buffer":0,
			"byteLength":1024,
			"byteOffset":29040,
			"target":34962
		},
		{
			"buffer":0,
			"byteLength":1536,
			"byteOffset":30064,
			"target":34962
		},
		{
			"buffer":0,
			"byteLength":1536,
			"byteOffset":31600,
			"target":34962
		},
		{
			"buffer":0,
			"byteLength":1024,
			"byteOffset":33136,
			"target":34962
		},
		{
			"buffer":0,
			"byteLength":456,
			"byteOffset":34160,
			"target":34962
		},
		{
			"buffer":0,
			"byteLength":456,
			"byteOffset":34616,
			"target":34962
		},
		{
			"buffer":0,
			"byteLength":304,
			"byteOffset":35072,
			"target":34962
		},
		{
			"buffer":0,
			"byteLength":192,
			"byteOffset":35376,
			"target":34963
		},
		{
			"buffer":0,
			"byteLength":456,
			"byteOffset":35568,
			"target":34962
		},
		{
			"buffer":0,
			"byteLength":456,
			"byteOffset":36024,
			"target":34962
		},
		{
			"buffer":0,
			"byteLength":304,
			"byteOffset":36480,
			"target":34962
		},
		{
			"buffer":0,
			"byteLength":456,
			"byteOffset":36784,
			"target":34962
		},
		{
			"buffer":0,
			"byteLength":456,
			"byteOffset":37240,
			"target":34962
		},
		{
			"buffer":0,
			"byteLength":304,
			"byteOffset":37696,
			"target":34962
		},
		{
			"buffer":0,
			"byteLength":456,
			"byteOffset":38000,
			"target":34962
		},
		{
			"buffer":0,
			"byteLength":456,
			"byteOffset":38456,
			"target":34962
		},
		{
			"buffer":0,
			"byteLength":304,
			"byteOffset":38912,
			"target":34962
		},
		{
			"buffer":0,
			"byteLength":456,
			"byteOffset":39216,
			"target":34962
		},
		{
			"buffer":0,
			"byteLength":456,
			"byteOffset":39672,
			"target":34962
		},
		{
			"buffer":0,
			"byteLength":304,
			"byteOffset":40128,
			"target":34962
		}
	],
	"buffers":[
		{
			"byteLength":40432,
			"uri":"hd_palm_b.bin"
		}
	]
}
