{
	"asset":{
		"generator":"Khronos glTF Blender I/O v5.2.40",
		"version":"2.0"
	},
	"scene":0,
	"scenes":[
		{
			"name":"Scene",
			"nodes":[
				0,
				1,
				2,
				3,
				4,
				5,
				6,
				7,
				8,
				9,
				10,
				11,
				12,
				13
			]
		}
	],
	"nodes":[
		{
			"mesh":0,
			"name":"board"
		},
		{
			"mesh":1,
			"name":"foot"
		},
		{
			"mesh":2,
			"name":"foot.001"
		},
		{
			"mesh":3,
			"name":"joint"
		},
		{
			"mesh":4,
			"name":"joint.001"
		},
		{
			"mesh":5,
			"name":"joint.002"
		},
		{
			"mesh":6,
			"name":"joint.003"
		},
		{
			"mesh":7,
			"name":"rail"
		},
		{
			"mesh":8,
			"name":"rail.001"
		},
		{
			"mesh":9,
			"name":"stripe0"
		},
		{
			"mesh":10,
			"name":"stripe1"
		},
		{
			"mesh":11,
			"name":"stripe2"
		},
		{
			"mesh":12,
			"name":"upright"
		},
		{
			"mesh":13,
			"name":"upright.001"
		}
	],
	"materials":[
		{
			"doubleSided":true,
			"name":"board_white",
			"pbrMetallicRoughness":{
				"baseColorFactor":[
					0.9200000166893005,
					0.9200000166893005,
					0.8999999761581421,
					1
				],
				"metallicFactor":0,
				"roughnessFactor":0.5
			}
		},
		{
			"doubleSided":true,
			"name":"galvanized_steel",
			"pbrMetallicRoughness":{
				"baseColorFactor":[
					0.5799999833106995,
					0.6000000238418579,
					0.6200000047683716,
					1
				],
				"metallicFactor":0.8500000238418579,
				"roughnessFactor":0.3799999952316284
			}
		},
		{
			"doubleSided":true,
			"name":"board_orange",
			"pbrMetallicRoughness":{
				"baseColorFactor":[
					0.8500000238418579,
					0.2800000011920929,
					0.03999999910593033,
					1
				],
				"metallicFactor":0,
				"roughnessFactor":0.44999998807907104
			}
		}
	],
	"meshes":[
		{
			"name":"Cube",
			"primitives":[
				{
					"attributes":{
						"POSITION":0,
						"NORMAL":1,
						"TEXCOORD_0":2
					},
					"indices":3,
					"material":0
				}
			]
		},
		{
			"name":"Cube.004",
			"primitives":[
				{
					"attributes":{
						"POSITION":4,
						"NORMAL":5,
						"TEXCOORD_0":6
					},
					"indices":3,
					"material":1
				}
			]
		},
		{
			"name":"Cube.005",
			"primitives":[
				{
					"attributes":{
						"POSITION":7,
						"NORMAL":8,
						"TEXCOORD_0":9
					},
					"indices":3,
					"material":1
				}
			]
		},
		{
			"name":"Sphere",
			"primitives":[
				{
					"attributes":{
						"POSITION":10,
						"NORMAL":11,
						"TEXCOORD_0":12
					},
					"indices":13,
					"material":1
				}
			]
		},
		{
			"name":"Sphere.001",
			"primitives":[
				{
					"attributes":{
						"POSITION":14,
						"NORMAL":15,
						"TEXCOORD_0":16
					},
					"indices":13,
					"material":1
				}
			]
		},
		{
			"name":"Sphere.002",
			"primitives":[
				{
					"attributes":{
						"POSITION":17,
						"NORMAL":18,
						"TEXCOORD_0":19
					},
					"indices":13,
					"material":1
				}
			]
		},
		{
			"name":"Sphere.003",
			"primitives":[
				{
					"attributes":{
						"POSITION":20,
						"NORMAL":21,
						"TEXCOORD_0":22
					},
					"indices":13,
					"material":1
				}
			]
		},
		{
			"name":"Cylinder.002",
			"primitives":[
				{
					"attributes":{
						"POSITION":23,
						"NORMAL":24,
						"TEXCOORD_0":25
					},
					"indices":26,
					"material":1
				}
			]
		},
		{
			"name":"Cylinder.003",
			"primitives":[
				{
					"attributes":{
						"POSITION":27,
						"NORMAL":28,
						"TEXCOORD_0":29
					},
					"indices":26,
					"material":1
				}
			]
		},
		{
			"name":"Cube.001",
			"primitives":[
				{
					"attributes":{
						"POSITION":30,
						"NORMAL":31,
						"TEXCOORD_0":32
					},
					"indices":33,
					"material":2
				}
			]
		},
		{
			"name":"Cube.002",
			"primitives":[
				{
					"attributes":{
						"POSITION":34,
						"NORMAL":35,
						"TEXCOORD_0":36
					},
					"indices":33,
					"material":2
				}
			]
		},
		{
			"name":"Cube.003",
			"primitives":[
				{
					"attributes":{
						"POSITION":37,
						"NORMAL":38,
						"TEXCOORD_0":39
					},
					"indices":33,
					"material":2
				}
			]
		},
		{
			"name":"Cylinder",
			"primitives":[
				{
					"attributes":{
						"POSITION":40,
						"NORMAL":41,
						"TEXCOORD_0":42
					},
					"indices":26,
					"material":1
				}
			]
		},
		{
			"name":"Cylinder.001",
			"primitives":[
				{
					"attributes":{
						"POSITION":43,
						"NORMAL":44,
						"TEXCOORD_0":45
					},
					"indices":26,
					"material":1
				}
			]
		}
	],
	"accessors":[
		{
			"bufferView":0,
			"componentType":5126,
			"count":216,
			"max":[
				1.899999976158142,
				1.1200000047683716,
				0.06499999761581421
			],
			"min":[
				-1.899999976158142,
				0.5199999809265137,
				-0.03500000014901161
			],
			"type":"VEC3"
		},
		{
			"bufferView":1,
			"componentType":5126,
			"count":216,
			"type":"VEC3"
		},
		{
			"bufferView":2,
			"componentType":5126,
			"count":216,
			"type":"VEC2"
		},
		{
			"bufferView":3,
			"componentType":5123,
			"count":324,
			"type":"SCALAR"
		},
		{
			"bufferView":4,
			"componentType":5126,
			"count":216,
			"max":[
				-0.9499999284744263,
				0.08999999612569809,
				0.550000011920929
			],
			"min":[
				-1.1299999952316284,
				-0.029999999329447746,
				-0.550000011920929
			],
			"type":"VEC3"
		},
		{
			"bufferView":5,
			"componentType":5126,
			"count":216,
			"type":"VEC3"
		},
		{
			"bufferView":6,
			"componentType":5126,
			"count":216,
			"type":"VEC2"
		},
		{
			"bufferView":7,
			"componentType":5126,
			"count":216,
			"max":[
				1.1299999952316284,
				0.08999999612569809,
				0.550000011920929
			],
			"min":[
				0.9499999284744263,
				-0.029999999329447746,
				-0.550000011920929
			],
			"type":"VEC3"
		},
		{
			"bufferView":8,
			"componentType":5126,
			"count":216,
			"type":"VEC3"
		},
		{
			"bufferView":9,
			"componentType":5126,
			"count":216,
			"type":"VEC2"
		},
		{
			"bufferView":10,
			"componentType":5126,
			"count":115,
			"max":[
				-1.0139999389648438,
				1.065999984741211,
				0.026000000536441803
			],
			"min":[
				-1.065999984741211,
				1.0139999389648438,
				-0.026000000536441803
			],
			"type":"VEC3"
		},
		{
			"bufferView":11,
			"componentType":5126,
			"count":115,
			"type":"VEC3"
		},
		{
			"bufferView":12,
			"componentType":5126,
			"count":115,
			"type":"VEC2"
		},
		{
			"bufferView":13,
			"componentType":5123,
			"count":504,
			"type":"SCALAR"
		},
		{
			"bufferView":14,
			"componentType":5126,
			"count":115,
			"max":[
				-1.0139999389648438,
				0.6460000276565552,
				0.026000000536441803
			],
			"min":[
				-1.065999984741211,
				0.593999981880188,
				-0.026000000536441803
			],
			"type":"VEC3"
		},
		{
			"bufferView":15,
			"componentType":5126,
			"count":115,
			"type":"VEC3"
		},
		{
			"bufferView":16,
			"componentType":5126,
			"count":115,
			"type":"VEC2"
		},
		{
			"bufferView":17,
			"componentType":5126,
			"count":115,
			"max":[
				1.065999984741211,
				1.065999984741211,
				0.026000000536441803
			],
			"min":[
				1.0139999389648438,
				1.0139999389648438,
				-0.026000000536441803
			],
			"type":"VEC3"
		},
		{
			"bufferView":18,
			"componentType":5126,
			"count":115,
			"type":"VEC3"
		},
		{
			"bufferView":19,
			"componentType":5126,
			"count":115,
			"type":"VEC2"
		},
		{
			"bufferView":20,
			"componentType":5126,
			"count":115,
			"max":[
				1.065999984741211,
				0.6460000276565552,
				0.026000000536441803
			],
			"min":[
				1.0139999389648438,
				0.593999981880188,
				-0.026000000536441803
			],
			"type":"VEC3"
		},
		{
			"bufferView":21,
			"componentType":5126,
			"count":115,
			"type":"VEC3"
		},
		{
			"bufferView":22,
			"componentType":5126,
			"count":115,
			"type":"VEC2"
		},
		{
			"bufferView":23,
			"componentType":5126,
			"count":130,
			"max":[
				1.0700000524520874,
				1.0600000619888306,
				0.019999999552965164
			],
			"min":[
				-1.0700000524520874,
				1.0199998617172241,
				-0.019999999552965164
			],
			"type":"VEC3"
		},
		{
			"bufferView":24,
			"componentType":5126,
			"count":130,
			"type":"VEC3"
		},
		{
			"bufferView":25,
			"componentType":5126,
			"count":130,
			"type":"VEC2"
		},
		{
			"bufferView":26,
			"componentType":5123,
			"count":372,
			"type":"SCALAR"
		},
		{
			"bufferView":27,
			"componentType":5126,
			"count":130,
			"max":[
				1.0700000524520874,
				0.64000004529953,
				0.019999999552965164
			],
			"min":[
				-1.0700000524520874,
				0.5999999642372131,
				-0.019999999552965164
			],
			"type":"VEC3"
		},
		{
			"bufferView":28,
			"componentType":5126,
			"count":130,
			"type":"VEC3"
		},
		{
			"bufferView":29,
			"componentType":5126,
			"count":130,
			"type":"VEC2"
		},
		{
			"bufferView":30,
			"componentType":5126,
			"count":24,
			"max":[
				-0.20000001788139343,
				1.1200000047683716,
				0.05700000375509262
			],
			"min":[
				-1.0399999618530273,
				0.5199999809265137,
				0.032999999821186066
			],
			"type":"VEC3"
		},
		{
			"bufferView":31,
			"componentType":5126,
			"count":24,
			"type":"VEC3"
		},
		{
			"bufferView":32,
			"componentType":5126,
			"count":24,
			"type":"VEC2"
		},
		{
			"bufferView":33,
			"componentType":5123,
			"count":36,
			"type":"SCALAR"
		},
		{
			"bufferView":34,
			"componentType":5126,
			"count":24,
			"max":[
				0.41999998688697815,
				1.1200000047683716,
				0.05700000375509262
			],
			"min":[
				-0.41999998688697815,
				0.5199999809265137,
				0.032999999821186066
			],
			"type":"VEC3"
		},
		{
			"bufferView":35,
			"componentType":5126,
			"count":24,
			"type":"VEC3"
		},
		{
			"bufferView":36,
			"componentType":5126,
			"count":24,
			"type":"VEC2"
		},
		{
			"bufferView":37,
			"componentType":5126,
			"count":24,
			"max":[
				1.0399999618530273,
				1.1200000047683716,
				0.05700000375509262
			],
			"min":[
				0.20000001788139343,
				0.5199999809265137,
				0.032999999821186066
			],
			"type":"VEC3"
		},
		{
			"bufferView":38,
			"componentType":5126,
			"count":24,
			"type":"VEC3"
		},
		{
			"bufferView":39,
			"componentType":5126,
			"count":24,
			"type":"VEC2"
		},
		{
			"bufferView":40,
			"componentType":5126,
			"count":130,
			"max":[
				-1.0180000066757202,
				1.0800000429153442,
				0.02199999988079071
			],
			"min":[
				-1.0619999170303345,
				0,
				-0.02199999988079071
			],
			"type":"VEC3"
		},
		{
			"bufferView":41,
			"componentType":5126,
			"count":130,
			"type":"VEC3"
		},
		{
			"bufferView":42,
			"componentType":5126,
			"count":130,
			"type":"VEC2"
		},
		{
			"bufferView":43,
			"componentType":5126,
			"count":130,
			"max":[
				1.0619999170303345,
				1.0800000429153442,
				0.02199999988079071
			],
			"min":[
				1.0180000066757202,
				0,
				-0.02199999988079071
			],
			"type":"VEC3"
		},
		{
			"bufferView":44,
			"componentType":5126,
			"count":130,
			"type":"VEC3"
		},
		{
			"bufferView":45,
			"componentType":5126,
			"count":130,
			"type":"VEC2"
		}
	],
	"bufferViews":[
		{
			"buffer":0,
			"byteLength":2592,
			"byteOffset":0,
			"target":34962
		},
		{
			"buffer":0,
			"byteLength":2592,
			"byteOffset":2592,
			"target":34962
		},
		{
			"buffer":0,
			"byteLength":1728,
			"byteOffset":5184,
			"target":34962
		},
		{
			"buffer":0,
			"byteLength":648,
			"byteOffset":6912,
			"target":34963
		},
		{
			"buffer":0,
			"byteLength":2592,
			"byteOffset":7560,
			"target":34962
		},
		{
			"buffer":0,
			"byteLength":2592,
			"byteOffset":10152,
			"target":34962
		},
		{
			"buffer":0,
			"byteLength":1728,
			"byteOffset":12744,
			"target":34962
		},
		{
			"buffer":0,
			"byteLength":2592,
			"byteOffset":14472,
			"target":34962
		},
		{
			"buffer":0,
			"byteLength":2592,
			"byteOffset":17064,
			"target":34962
		},
		{
			"buffer":0,
			"byteLength":1728,
			"byteOffset":19656,
			"target":34962
		},
		{
			"buffer":0,
			"byteLength":1380,
			"byteOffset":21384,
			"target":34962
		},
		{
			"buffer":0,
			"byteLength":1380,
			"byteOffset":22764,
			"target":34962
		},
		{
			"buffer":0,
			"byteLength":920,
			"byteOffset":24144,
			"target":34962
		},
		{
			"buffer":0,
			"byteLength":1008,
			"byteOffset":25064,
			"target":34963
		},
		{
			"buffer":0,
			"byteLength":1380,
			"byteOffset":26072,
			"target":34962
		},
		{
			"buffer":0,
			"byteLength":1380,
			"byteOffset":27452,
			"target":34962
		},
		{
			"buffer":0,
			"byteLength":920,
			"byteOffset":28832,
			"target":34962
		},
		{
			"buffer":0,
			"byteLength":1380,
			"byteOffset":29752,
			"target":34962
		},
		{
			"buffer":0,
			"byteLength":1380,
			"byteOffset":31132,
			"target":34962
		},
		{
			"buffer":0,
			"byteLength":920,
			"byteOffset":32512,
			"target":34962
		},
		{
			"buffer":0,
			"byteLength":1380,
			"byteOffset":33432,
			"target":34962
		},
		{
			"buffer":0,
			"byteLength":1380,
			"byteOffset":34812,
			"target":34962
		},
		{
			"buffer":0,
			"byteLength":920,
			"byteOffset":36192,
			"target":34962
		},
		{
			"buffer":0,
			"byteLength":1560,
			"byteOffset":37112,
			"target":34962
		},
		{
			"buffer":0,
			"byteLength":1560,
			"byteOffset":38672,
			"target":34962
		},
		{
			"buffer":0,
			"byteLength":1040,
			"byteOffset":40232,
			"target":34962
		},
		{
			"buffer":0,
			"byteLength":744,
			"byteOffset":41272,
			"target":34963
		},
		{
			"buffer":0,
			"byteLength":1560,
			"byteOffset":42016,
			"target":34962
		},
		{
			"buffer":0,
			"byteLength":1560,
			"byteOffset":43576,
			"target":34962
		},
		{
			"buffer":0,
			"byteLength":1040,
			"byteOffset":45136,
			"target":34962
		},
		{
			"buffer":0,
			"byteLength":288,
			"byteOffset":46176,
			"target":34962
		},
		{
			"buffer":0,
			"byteLength":288,
			"byteOffset":46464,
			"target":34962
		},
		{
			"buffer":0,
			"byteLength":192,
			"byteOffset":46752,
			"target":34962
		},
		{
			"buffer":0,
			"byteLength":72,
			"byteOffset":46944,
			"target":34963
		},
		{
			"buffer":0,
			"byteLength":288,
			"byteOffset":47016,
			"target":34962
		},
		{
			"buffer":0,
			"byteLength":288,
			"byteOffset":47304,
			"target":34962
		},
		{
			"buffer":0,
			"byteLength":192,
			"byteOffset":47592,
			"target":34962
		},
		{
			"buffer":0,
			"byteLength":288,
			"byteOffset":47784,
			"target":34962
		},
		{
			"buffer":0,
			"byteLength":288,
			"byteOffset":48072,
			"target":34962
		},
		{
			"buffer":0,
			"byteLength":192,
			"byteOffset":48360,
			"target":34962
		},
		{
			"buffer":0,
			"byteLength":1560,
			"byteOffset":48552,
			"target":34962
		},
		{
			"buffer":0,
			"byteLength":1560,
			"byteOffset":50112,
			"target":34962
		},
		{
			"buffer":0,
			"byteLength":1040,
			"byteOffset":51672,
			"target":34962
		},
		{
			"buffer":0,
			"byteLength":1560,
			"byteOffset":52712,
			"target":34962
		},
		{
			"buffer":0,
			"byteLength":1560,
			"byteOffset":54272,
			"target":34962
		},
		{
			"buffer":0,
			"byteLength":1040,
			"byteOffset":55832,
			"target":34962
		}
	],
	"buffers":[
		{
			"byteLength":56872,
			"uri":"bl_police_barrier.bin"
		}
	]
}
