{
	"asset":{
		"generator":"Khronos glTF Blender I/O v5.2.40",
		"version":"2.0"
	},
	"scene":0,
	"scenes":[
		{
			"name":"Scene",
			"nodes":[
				0,
				1,
				2,
				3,
				4
			]
		}
	],
	"nodes":[
		{
			"mesh":0,
			"name":"r0"
		},
		{
			"mesh":1,
			"name":"r1"
		},
		{
			"mesh":2,
			"name":"r2"
		},
		{
			"mesh":3,
			"name":"r3"
		},
		{
			"mesh":4,
			"name":"r4"
		}
	],
	"materials":[
		{
			"doubleSided":true,
			"name":"M_rb0",
			"pbrMetallicRoughness":{
				"baseColorFactor":[
					0.7226724624633789,
					0.5924380421638489,
					0.39929330348968506,
					1
				],
				"metallicFactor":0,
				"roughnessFactor":0.8500000238418579
			}
		},
		{
			"doubleSided":true,
			"name":"M_rb1",
			"pbrMetallicRoughness":{
				"baseColorFactor":[
					0.4819522500038147,
					0.3586539030075073,
					0.18698850274085999,
					1
				],
				"metallicFactor":0,
				"roughnessFactor":0.8500000238418579
			}
		},
		{
			"doubleSided":true,
			"name":"M_rb2",
			"pbrMetallicRoughness":{
				"baseColorFactor":[
					0.7226724624633789,
					0.5924380421638489,
					0.39929330348968506,
					1
				],
				"metallicFactor":0,
				"roughnessFactor":0.8500000238418579
			}
		},
		{
			"doubleSided":true,
			"name":"M_rb3",
			"pbrMetallicRoughness":{
				"baseColorFactor":[
					0.4819522500038147,
					0.3586539030075073,
					0.18698850274085999,
					1
				],
				"metallicFactor":0,
				"roughnessFactor":0.8500000238418579
			}
		},
		{
			"doubleSided":true,
			"name":"M_rb4",
			"pbrMetallicRoughness":{
				"baseColorFactor":[
					0.7226724624633789,
					0.5924380421638489,
					0.39929330348968506,
					1
				],
				"metallicFactor":0,
				"roughnessFactor":0.8500000238418579
			}
		}
	],
	"meshes":[
		{
			"name":"Cube",
			"primitives":[
				{
					"attributes":{
						"POSITION":0,
						"NORMAL":1,
						"TEXCOORD_0":2
					},
					"indices":3,
					"material":0
				}
			]
		},
		{
			"name":"Cube.001",
			"primitives":[
				{
					"attributes":{
						"POSITION":4,
						"NORMAL":5,
						"TEXCOORD_0":6
					},
					"indices":7,
					"material":1
				}
			]
		},
		{
			"name":"Cube.002",
			"primitives":[
				{
					"attributes":{
						"POSITION":8,
						"NORMAL":9,
						"TEXCOORD_0":10
					},
					"indices":11,
					"material":2
				}
			]
		},
		{
			"name":"Cube.003",
			"primitives":[
				{
					"attributes":{
						"POSITION":12,
						"NORMAL":13,
						"TEXCOORD_0":14
					},
					"indices":15,
					"material":3
				}
			]
		},
		{
			"name":"Cube.004",
			"primitives":[
				{
					"attributes":{
						"POSITION":16,
						"NORMAL":17,
						"TEXCOORD_0":18
					},
					"indices":19,
					"material":4
				}
			]
		}
	],
	"accessors":[
		{
			"bufferView":0,
			"componentType":5126,
			"count":96,
			"max":[
				0.08236207067966461,
				0.3860583007335663,
				0.3160383403301239
			],
			"min":[
				-0.5823620557785034,
				-0.08605830371379852,
				-0.4160383641719818
			],
			"type":"VEC3"
		},
		{
			"bufferView":1,
			"componentType":5126,
			"count":96,
			"type":"VEC3"
		},
		{
			"bufferView":2,
			"componentType":5126,
			"count":96,
			"type":"VEC2"
		},
		{
			"bufferView":3,
			"componentType":5123,
			"count":132,
			"type":"SCALAR"
		},
		{
			"bufferView":4,
			"componentType":5126,
			"count":96,
			"max":[
				0.5098804831504822,
				0.36792558431625366,
				0.40322110056877136
			],
			"min":[
				-0.06988053768873215,
				-0.1279255747795105,
				-0.20322111248970032
			],
			"type":"VEC3"
		},
		{
			"bufferView":5,
			"componentType":5126,
			"count":96,
			"type":"VEC3"
		},
		{
			"bufferView":6,
			"componentType":5126,
			"count":96,
			"type":"VEC2"
		},
		{
			"bufferView":7,
			"componentType":5123,
			"count":132,
			"type":"SCALAR"
		},
		{
			"bufferView":8,
			"componentType":5126,
			"count":96,
			"max":[
				0.2660863995552063,
				0.25655123591423035,
				-0.07710140198469162
			],
			"min":[
				-0.16608640551567078,
				-0.07655122876167297,
				-0.5228986740112305
			],
			"type":"VEC3"
		},
		{
			"bufferView":9,
			"componentType":5126,
			"count":96,
			"type":"VEC3"
		},
		{
			"bufferView":10,
			"componentType":5126,
			"count":96,
			"type":"VEC2"
		},
		{
			"bufferView":11,
			"componentType":5123,
			"count":132,
			"type":"SCALAR"
		},
		{
			"bufferView":12,
			"componentType":5126,
			"count":96,
			"max":[
				0.13344496488571167,
				0.17744553089141846,
				0.44877225160598755
			],
			"min":[
				-0.1734449565410614,
				-0.03744553402066231,
				0.11122775077819824
			],
			"type":"VEC3"
		},
		{
			"bufferView":13,
			"componentType":5126,
			"count":96,
			"type":"VEC3"
		},
		{
			"bufferView":14,
			"componentType":5126,
			"count":96,
			"type":"VEC2"
		},
		{
			"bufferView":15,
			"componentType":5123,
			"count":132,
			"type":"SCALAR"
		},
		{
			"bufferView":16,
			"componentType":5126,
			"count":96,
			"max":[
				0.4997047185897827,
				0.16218385100364685,
				-0.10780452936887741
			],
			"min":[
				0.20029525458812714,
				-0.04218384623527527,
				-0.392195463180542
			],
			"type":"VEC3"
		},
		{
			"bufferView":17,
			"componentType":5126,
			"count":96,
			"type":"VEC3"
		},
		{
			"bufferView":18,
			"componentType":5126,
			"count":96,
			"type":"VEC2"
		},
		{
			"bufferView":19,
			"componentType":5123,
			"count":132,
			"type":"SCALAR"
		}
	],
	"bufferViews":[
		{
			"buffer":0,
			"byteLength":1152,
			"byteOffset":0,
			"target":34962
		},
		{
			"buffer":0,
			"byteLength":1152,
			"byteOffset":1152,
			"target":34962
		},
		{
			"buffer":0,
			"byteLength":768,
			"byteOffset":2304,
			"target":34962
		},
		{
			"buffer":0,
			"byteLength":264,
			"byteOffset":3072,
			"target":34963
		},
		{
			"buffer":0,
			"byteLength":1152,
			"byteOffset":3336,
			"target":34962
		},
		{
			"buffer":0,
			"byteLength":1152,
			"byteOffset":4488,
			"target":34962
		},
		{
			"buffer":0,
			"byteLength":768,
			"byteOffset":5640,
			"target":34962
		},
		{
			"buffer":0,
			"byteLength":264,
			"byteOffset":6408,
			"target":34963
		},
		{
			"buffer":0,
			"byteLength":1152,
			"byteOffset":6672,
			"target":34962
		},
		{
			"buffer":0,
			"byteLength":1152,
			"byteOffset":7824,
			"target":34962
		},
		{
			"buffer":0,
			"byteLength":768,
			"byteOffset":8976,
			"target":34962
		},
		{
			"buffer":0,
			"byteLength":264,
			"byteOffset":9744,
			"target":34963
		},
		{
			"buffer":0,
			"byteLength":1152,
			"byteOffset":10008,
			"target":34962
		},
		{
			"buffer":0,
			"byteLength":1152,
			"byteOffset":11160,
			"target":34962
		},
		{
			"buffer":0,
			"byteLength":768,
			"byteOffset":12312,
			"target":34962
		},
		{
			"buffer":0,
			"byteLength":264,
			"byteOffset":13080,
			"target":34963
		},
		{
			"buffer":0,
			"byteLength":1152,
			"byteOffset":13344,
			"target":34962
		},
		{
			"buffer":0,
			"byteLength":1152,
			"byteOffset":14496,
			"target":34962
		},
		{
			"buffer":0,
			"byteLength":768,
			"byteOffset":15648,
			"target":34962
		},
		{
			"buffer":0,
			"byteLength":264,
			"byteOffset":16416,
			"target":34963
		}
	],
	"buffers":[
		{
			"byteLength":16680,
			"uri":"hd_rubble.bin"
		}
	]
}
