{
	"asset":{
		"generator":"Khronos glTF Blender I/O v5.2.40",
		"version":"2.0"
	},
	"extensionsUsed":[
		"KHR_materials_emissive_strength"
	],
	"scene":0,
	"scenes":[
		{
			"name":"Scene",
			"nodes":[
				0,
				1,
				2,
				3,
				4,
				5,
				6,
				7,
				8,
				9,
				10,
				11,
				12,
				13,
				14,
				15,
				16,
				17,
				18,
				19,
				20,
				21,
				22,
				23,
				24,
				25,
				26,
				27,
				28,
				29,
				30,
				31,
				32,
				33,
				34,
				35,
				36
			]
		}
	],
	"nodes":[
		{
			"mesh":0,
			"name":"antenna"
		},
		{
			"mesh":1,
			"name":"beacon"
		},
		{
			"mesh":2,
			"name":"cap"
		},
		{
			"mesh":3,
			"name":"high"
		},
		{
			"mesh":4,
			"name":"hw0_0"
		},
		{
			"mesh":5,
			"name":"hw0_1"
		},
		{
			"mesh":6,
			"name":"hw1_0"
		},
		{
			"mesh":7,
			"name":"hw1_1"
		},
		{
			"mesh":8,
			"name":"hw2_0"
		},
		{
			"mesh":9,
			"name":"hw2_1"
		},
		{
			"mesh":10,
			"name":"hw3_0"
		},
		{
			"mesh":11,
			"name":"hw3_1"
		},
		{
			"mesh":12,
			"name":"low"
		},
		{
			"mesh":13,
			"name":"sill0_0",
			"translation":[
				0,
				0.6000000238418579,
				0
			]
		},
		{
			"mesh":14,
			"name":"sill0_1",
			"translation":[
				0,
				0.6000000238418579,
				0
			]
		},
		{
			"mesh":15,
			"name":"sill0_2",
			"translation":[
				0,
				0.6000000238418579,
				0
			]
		},
		{
			"mesh":16,
			"name":"sill1_0",
			"translation":[
				0,
				0.6000000238418579,
				0
			]
		},
		{
			"mesh":17,
			"name":"sill1_1",
			"translation":[
				0,
				0.6000000238418579,
				0
			]
		},
		{
			"mesh":18,
			"name":"sill1_2",
			"translation":[
				0,
				0.6000000238418579,
				0
			]
		},
		{
			"mesh":19,
			"name":"sill2_0",
			"translation":[
				0,
				0.6000000238418579,
				0
			]
		},
		{
			"mesh":20,
			"name":"sill2_1",
			"translation":[
				0,
				0.6000000238418579,
				0
			]
		},
		{
			"mesh":21,
			"name":"sill2_2",
			"translation":[
				0,
				0.6000000238418579,
				0
			]
		},
		{
			"mesh":22,
			"name":"sill3_0",
			"translation":[
				0,
				0.6000000238418579,
				0
			]
		},
		{
			"mesh":23,
			"name":"sill3_1",
			"translation":[
				0,
				0.6000000238418579,
				0
			]
		},
		{
			"mesh":24,
			"name":"sill3_2",
			"translation":[
				0,
				0.6000000238418579,
				0
			]
		},
		{
			"mesh":25,
			"name":"win0_0",
			"translation":[
				0,
				0.6000000238418579,
				0
			]
		},
		{
			"mesh":26,
			"name":"win0_1",
			"translation":[
				0,
				0.6000000238418579,
				0
			]
		},
		{
			"mesh":27,
			"name":"win0_2",
			"translation":[
				0,
				0.6000000238418579,
				0
			]
		},
		{
			"mesh":28,
			"name":"win1_0",
			"translation":[
				0,
				0.6000000238418579,
				0
			]
		},
		{
			"mesh":29,
			"name":"win1_1",
			"translation":[
				0,
				0.6000000238418579,
				0
			]
		},
		{
			"mesh":30,
			"name":"win1_2",
			"translation":[
				0,
				0.6000000238418579,
				0
			]
		},
		{
			"mesh":31,
			"name":"win2_0",
			"translation":[
				0,
				0.6000000238418579,
				0
			]
		},
		{
			"mesh":32,
			"name":"win2_1",
			"translation":[
				0,
				0.6000000238418579,
				0
			]
		},
		{
			"mesh":33,
			"name":"win2_2",
			"translation":[
				0,
				0.6000000238418579,
				0
			]
		},
		{
			"mesh":34,
			"name":"win3_0",
			"translation":[
				0,
				0.6000000238418579,
				0
			]
		},
		{
			"mesh":35,
			"name":"win3_1",
			"translation":[
				0,
				0.6000000238418579,
				0
			]
		},
		{
			"mesh":36,
			"name":"win3_2",
			"translation":[
				0,
				0.6000000238418579,
				0
			]
		}
	],
	"materials":[
		{
			"doubleSided":true,
			"name":"M_ta",
			"pbrMetallicRoughness":{
				"baseColorFactor":[
					0.03423020616173744,
					0.05112205073237419,
					0.07382776588201523,
					1
				],
				"metallicFactor":0,
				"roughnessFactor":0.8500000238418579
			}
		},
		{
			"doubleSided":true,
			"emissiveFactor":[
				1,
				0.058819640657096994,
				0.02982234006579952
			],
			"extensions":{
				"KHR_materials_emissive_strength":{
					"emissiveStrength":1.299586410814321
				}
			},
			"name":"M_tb",
			"pbrMetallicRoughness":{
				"baseColorFactor":[
					0.8122414946556091,
					0.0477757528424263,
					0.02422294206917286,
					1
				],
				"metallicFactor":0,
				"roughnessFactor":0.8500000238418579
			}
		},
		{
			"doubleSided":true,
			"name":"M_tc",
			"pbrMetallicRoughness":{
				"baseColorFactor":[
					0.32972902059555054,
					0.06575387716293335,
					0.03561437129974365,
					1
				],
				"metallicFactor":0,
				"roughnessFactor":0.8500000238418579
			}
		},
		{
			"doubleSided":true,
			"name":"M_th",
			"pbrMetallicRoughness":{
				"baseColorFactor":[
					0.701169490814209,
					0.4936161935329437,
					0.2590273320674896,
					1
				],
				"metallicFactor":0,
				"roughnessFactor":0.8500000238418579
			}
		},
		{
			"doubleSided":true,
			"name":"M_hw0_0",
			"pbrMetallicRoughness":{
				"baseColorFactor":[
					0.01606770046055317,
					0.04943345859646797,
					0.0915183499455452,
					1
				],
				"metallicFactor":0,
				"roughnessFactor":0.8500000238418579
			}
		},
		{
			"doubleSided":true,
			"name":"M_hw0_1",
			"pbrMetallicRoughness":{
				"baseColorFactor":[
					0.01606770046055317,
					0.04943345859646797,
					0.0915183499455452,
					1
				],
				"metallicFactor":0,
				"roughnessFactor":0.8500000238418579
			}
		},
		{
			"doubleSided":true,
			"name":"M_hw1_0",
			"pbrMetallicRoughness":{
				"baseColorFactor":[
					0.01606770046055317,
					0.04943345859646797,
					0.0915183499455452,
					1
				],
				"metallicFactor":0,
				"roughnessFactor":0.8500000238418579
			}
		},
		{
			"doubleSided":true,
			"name":"M_hw1_1",
			"pbrMetallicRoughness":{
				"baseColorFactor":[
					0.01606770046055317,
					0.04943345859646797,
					0.0915183499455452,
					1
				],
				"metallicFactor":0,
				"roughnessFactor":0.8500000238418579
			}
		},
		{
			"doubleSided":true,
			"name":"M_hw2_0",
			"pbrMetallicRoughness":{
				"baseColorFactor":[
					0.01606770046055317,
					0.04943345859646797,
					0.0915183499455452,
					1
				],
				"metallicFactor":0,
				"roughnessFactor":0.8500000238418579
			}
		},
		{
			"doubleSided":true,
			"name":"M_hw2_1",
			"pbrMetallicRoughness":{
				"baseColorFactor":[
					0.01606770046055317,
					0.04943345859646797,
					0.0915183499455452,
					1
				],
				"metallicFactor":0,
				"roughnessFactor":0.8500000238418579
			}
		},
		{
			"doubleSided":true,
			"name":"M_hw3_0",
			"pbrMetallicRoughness":{
				"baseColorFactor":[
					0.01606770046055317,
					0.04943345859646797,
					0.0915183499455452,
					1
				],
				"metallicFactor":0,
				"roughnessFactor":0.8500000238418579
			}
		},
		{
			"doubleSided":true,
			"name":"M_hw3_1",
			"pbrMetallicRoughness":{
				"baseColorFactor":[
					0.01606770046055317,
					0.04943345859646797,
					0.0915183499455452,
					1
				],
				"metallicFactor":0,
				"roughnessFactor":0.8500000238418579
			}
		},
		{
			"doubleSided":true,
			"name":"M_tl",
			"pbrMetallicRoughness":{
				"baseColorFactor":[
					0.5924380421638489,
					0.5604991316795349,
					0.5054324865341187,
					1
				],
				"metallicFactor":0,
				"roughnessFactor":0.8500000238418579
			}
		},
		{
			"doubleSided":true,
			"name":"M_sl0_0",
			"pbrMetallicRoughness":{
				"baseColorFactor":[
					0.5924380421638489,
					0.5604991316795349,
					0.5054324865341187,
					1
				],
				"metallicFactor":0,
				"roughnessFactor":0.8500000238418579
			}
		},
		{
			"doubleSided":true,
			"name":"M_sl0_1",
			"pbrMetallicRoughness":{
				"baseColorFactor":[
					0.5924380421638489,
					0.5604991316795349,
					0.5054324865341187,
					1
				],
				"metallicFactor":0,
				"roughnessFactor":0.8500000238418579
			}
		},
		{
			"doubleSided":true,
			"name":"M_sl0_2",
			"pbrMetallicRoughness":{
				"baseColorFactor":[
					0.5924380421638489,
					0.5604991316795349,
					0.5054324865341187,
					1
				],
				"metallicFactor":0,
				"roughnessFactor":0.8500000238418579
			}
		},
		{
			"doubleSided":true,
			"name":"M_sl1_0",
			"pbrMetallicRoughness":{
				"baseColorFactor":[
					0.5924380421638489,
					0.5604991316795349,
					0.5054324865341187,
					1
				],
				"metallicFactor":0,
				"roughnessFactor":0.8500000238418579
			}
		},
		{
			"doubleSided":true,
			"name":"M_sl1_1",
			"pbrMetallicRoughness":{
				"baseColorFactor":[
					0.5924380421638489,
					0.5604991316795349,
					0.5054324865341187,
					1
				],
				"metallicFactor":0,
				"roughnessFactor":0.8500000238418579
			}
		},
		{
			"doubleSided":true,
			"name":"M_sl1_2",
			"pbrMetallicRoughness":{
				"baseColorFactor":[
					0.5924380421638489,
					0.5604991316795349,
					0.5054324865341187,
					1
				],
				"metallicFactor":0,
				"roughnessFactor":0.8500000238418579
			}
		},
		{
			"doubleSided":true,
			"name":"M_sl2_0",
			"pbrMetallicRoughness":{
				"baseColorFactor":[
					0.5924380421638489,
					0.5604991316795349,
					0.5054324865341187,
					1
				],
				"metallicFactor":0,
				"roughnessFactor":0.8500000238418579
			}
		},
		{
			"doubleSided":true,
			"name":"M_sl2_1",
			"pbrMetallicRoughness":{
				"baseColorFactor":[
					0.5924380421638489,
					0.5604991316795349,
					0.5054324865341187,
					1
				],
				"metallicFactor":0,
				"roughnessFactor":0.8500000238418579
			}
		},
		{
			"doubleSided":true,
			"name":"M_sl2_2",
			"pbrMetallicRoughness":{
				"baseColorFactor":[
					0.5924380421638489,
					0.5604991316795349,
					0.5054324865341187,
					1
				],
				"metallicFactor":0,
				"roughnessFactor":0.8500000238418579
			}
		},
		{
			"doubleSided":true,
			"name":"M_sl3_0",
			"pbrMetallicRoughness":{
				"baseColorFactor":[
					0.5924380421638489,
					0.5604991316795349,
					0.5054324865341187,
					1
				],
				"metallicFactor":0,
				"roughnessFactor":0.8500000238418579
			}
		},
		{
			"doubleSided":true,
			"name":"M_sl3_1",
			"pbrMetallicRoughness":{
				"baseColorFactor":[
					0.5924380421638489,
					0.5604991316795349,
					0.5054324865341187,
					1
				],
				"metallicFactor":0,
				"roughnessFactor":0.8500000238418579
			}
		},
		{
			"doubleSided":true,
			"name":"M_sl3_2",
			"pbrMetallicRoughness":{
				"baseColorFactor":[
					0.5924380421638489,
					0.5604991316795349,
					0.5054324865341187,
					1
				],
				"metallicFactor":0,
				"roughnessFactor":0.8500000238418579
			}
		},
		{
			"doubleSided":true,
			"name":"M_wg0_0",
			"pbrMetallicRoughness":{
				"baseColorFactor":[
					0.01606770046055317,
					0.04943345859646797,
					0.0915183499455452,
					1
				],
				"metallicFactor":0,
				"roughnessFactor":0.8500000238418579
			}
		},
		{
			"doubleSided":true,
			"name":"M_wg0_1",
			"pbrMetallicRoughness":{
				"baseColorFactor":[
					0.01606770046055317,
					0.04943345859646797,
					0.0915183499455452,
					1
				],
				"metallicFactor":0,
				"roughnessFactor":0.8500000238418579
			}
		},
		{
			"doubleSided":true,
			"emissiveFactor":[
				0.800000011920929,
				0.6559709646697485,
				0.31943464755169515
			],
			"name":"M_wg0_2",
			"pbrMetallicRoughness":{
				"baseColorFactor":[
					1,
					0.8199636936187744,
					0.39929330348968506,
					1
				],
				"metallicFactor":0,
				"roughnessFactor":0.8500000238418579
			}
		},
		{
			"doubleSided":true,
			"emissiveFactor":[
				0.800000011920929,
				0.6559709646697485,
				0.31943464755169515
			],
			"name":"M_wg1_0",
			"pbrMetallicRoughness":{
				"baseColorFactor":[
					1,
					0.8199636936187744,
					0.39929330348968506,
					1
				],
				"metallicFactor":0,
				"roughnessFactor":0.8500000238418579
			}
		},
		{
			"doubleSided":true,
			"name":"M_wg1_1",
			"pbrMetallicRoughness":{
				"baseColorFactor":[
					0.01606770046055317,
					0.04943345859646797,
					0.0915183499455452,
					1
				],
				"metallicFactor":0,
				"roughnessFactor":0.8500000238418579
			}
		},
		{
			"doubleSided":true,
			"name":"M_wg1_2",
			"pbrMetallicRoughness":{
				"baseColorFactor":[
					0.01606770046055317,
					0.04943345859646797,
					0.0915183499455452,
					1
				],
				"metallicFactor":0,
				"roughnessFactor":0.8500000238418579
			}
		},
		{
			"doubleSided":true,
			"name":"M_wg2_0",
			"pbrMetallicRoughness":{
				"baseColorFactor":[
					0.01606770046055317,
					0.04943345859646797,
					0.0915183499455452,
					1
				],
				"metallicFactor":0,
				"roughnessFactor":0.8500000238418579
			}
		},
		{
			"doubleSided":true,
			"name":"M_wg2_1",
			"pbrMetallicRoughness":{
				"baseColorFactor":[
					0.01606770046055317,
					0.04943345859646797,
					0.0915183499455452,
					1
				],
				"metallicFactor":0,
				"roughnessFactor":0.8500000238418579
			}
		},
		{
			"doubleSided":true,
			"name":"M_wg2_2",
			"pbrMetallicRoughness":{
				"baseColorFactor":[
					0.01606770046055317,
					0.04943345859646797,
					0.0915183499455452,
					1
				],
				"metallicFactor":0,
				"roughnessFactor":0.8500000238418579
			}
		},
		{
			"doubleSided":true,
			"name":"M_wg3_0",
			"pbrMetallicRoughness":{
				"baseColorFactor":[
					0.01606770046055317,
					0.04943345859646797,
					0.0915183499455452,
					1
				],
				"metallicFactor":0,
				"roughnessFactor":0.8500000238418579
			}
		},
		{
			"doubleSided":true,
			"name":"M_wg3_1",
			"pbrMetallicRoughness":{
				"baseColorFactor":[
					0.01606770046055317,
					0.04943345859646797,
					0.0915183499455452,
					1
				],
				"metallicFactor":0,
				"roughnessFactor":0.8500000238418579
			}
		},
		{
			"doubleSided":true,
			"emissiveFactor":[
				0.800000011920929,
				0.6559709646697485,
				0.31943464755169515
			],
			"name":"M_wg3_2",
			"pbrMetallicRoughness":{
				"baseColorFactor":[
					1,
					0.8199636936187744,
					0.39929330348968506,
					1
				],
				"metallicFactor":0,
				"roughnessFactor":0.8500000238418579
			}
		}
	],
	"meshes":[
		{
			"name":"Cylinder",
			"primitives":[
				{
					"attributes":{
						"POSITION":0,
						"NORMAL":1,
						"TEXCOORD_0":2
					},
					"indices":3,
					"material":0
				}
			]
		},
		{
			"name":"Icosphere",
			"primitives":[
				{
					"attributes":{
						"POSITION":4,
						"NORMAL":5,
						"TEXCOORD_0":6
					},
					"indices":7,
					"material":1
				}
			]
		},
		{
			"name":"Cube.034",
			"primitives":[
				{
					"attributes":{
						"POSITION":8,
						"NORMAL":9,
						"TEXCOORD_0":10
					},
					"indices":11,
					"material":2
				}
			]
		},
		{
			"name":"Cube.001",
			"primitives":[
				{
					"attributes":{
						"POSITION":12,
						"NORMAL":13,
						"TEXCOORD_0":14
					},
					"indices":15,
					"material":3
				}
			]
		},
		{
			"name":"Cube.026",
			"primitives":[
				{
					"attributes":{
						"POSITION":16,
						"NORMAL":17,
						"TEXCOORD_0":18
					},
					"indices":11,
					"material":4
				}
			]
		},
		{
			"name":"Cube.027",
			"primitives":[
				{
					"attributes":{
						"POSITION":19,
						"NORMAL":20,
						"TEXCOORD_0":21
					},
					"indices":11,
					"material":5
				}
			]
		},
		{
			"name":"Cube.028",
			"primitives":[
				{
					"attributes":{
						"POSITION":22,
						"NORMAL":23,
						"TEXCOORD_0":24
					},
					"indices":11,
					"material":6
				}
			]
		},
		{
			"name":"Cube.029",
			"primitives":[
				{
					"attributes":{
						"POSITION":25,
						"NORMAL":26,
						"TEXCOORD_0":27
					},
					"indices":11,
					"material":7
				}
			]
		},
		{
			"name":"Cube.030",
			"primitives":[
				{
					"attributes":{
						"POSITION":28,
						"NORMAL":29,
						"TEXCOORD_0":30
					},
					"indices":11,
					"material":8
				}
			]
		},
		{
			"name":"Cube.031",
			"primitives":[
				{
					"attributes":{
						"POSITION":31,
						"NORMAL":32,
						"TEXCOORD_0":33
					},
					"indices":11,
					"material":9
				}
			]
		},
		{
			"name":"Cube.032",
			"primitives":[
				{
					"attributes":{
						"POSITION":34,
						"NORMAL":35,
						"TEXCOORD_0":36
					},
					"indices":11,
					"material":10
				}
			]
		},
		{
			"name":"Cube.033",
			"primitives":[
				{
					"attributes":{
						"POSITION":37,
						"NORMAL":38,
						"TEXCOORD_0":39
					},
					"indices":11,
					"material":11
				}
			]
		},
		{
			"name":"Cube",
			"primitives":[
				{
					"attributes":{
						"POSITION":40,
						"NORMAL":41,
						"TEXCOORD_0":42
					},
					"indices":15,
					"material":12
				}
			]
		},
		{
			"name":"Cube.003",
			"primitives":[
				{
					"attributes":{
						"POSITION":43,
						"NORMAL":44,
						"TEXCOORD_0":45
					},
					"indices":11,
					"material":13
				}
			]
		},
		{
			"name":"Cube.005",
			"primitives":[
				{
					"attributes":{
						"POSITION":46,
						"NORMAL":47,
						"TEXCOORD_0":48
					},
					"indices":11,
					"material":14
				}
			]
		},
		{
			"name":"Cube.007",
			"primitives":[
				{
					"attributes":{
						"POSITION":49,
						"NORMAL":50,
						"TEXCOORD_0":51
					},
					"indices":11,
					"material":15
				}
			]
		},
		{
			"name":"Cube.009",
			"primitives":[
				{
					"attributes":{
						"POSITION":52,
						"NORMAL":53,
						"TEXCOORD_0":54
					},
					"indices":11,
					"material":16
				}
			]
		},
		{
			"name":"Cube.011",
			"primitives":[
				{
					"attributes":{
						"POSITION":55,
						"NORMAL":56,
						"TEXCOORD_0":57
					},
					"indices":11,
					"material":17
				}
			]
		},
		{
			"name":"Cube.013",
			"primitives":[
				{
					"attributes":{
						"POSITION":58,
						"NORMAL":59,
						"TEXCOORD_0":60
					},
					"indices":11,
					"material":18
				}
			]
		},
		{
			"name":"Cube.015",
			"primitives":[
				{
					"attributes":{
						"POSITION":61,
						"NORMAL":62,
						"TEXCOORD_0":63
					},
					"indices":11,
					"material":19
				}
			]
		},
		{
			"name":"Cube.017",
			"primitives":[
				{
					"attributes":{
						"POSITION":64,
						"NORMAL":65,
						"TEXCOORD_0":66
					},
					"indices":11,
					"material":20
				}
			]
		},
		{
			"name":"Cube.019",
			"primitives":[
				{
					"attributes":{
						"POSITION":67,
						"NORMAL":68,
						"TEXCOORD_0":69
					},
					"indices":11,
					"material":21
				}
			]
		},
		{
			"name":"Cube.021",
			"primitives":[
				{
					"attributes":{
						"POSITION":70,
						"NORMAL":71,
						"TEXCOORD_0":72
					},
					"indices":11,
					"material":22
				}
			]
		},
		{
			"name":"Cube.023",
			"primitives":[
				{
					"attributes":{
						"POSITION":73,
						"NORMAL":74,
						"TEXCOORD_0":75
					},
					"indices":11,
					"material":23
				}
			]
		},
		{
			"name":"Cube.025",
			"primitives":[
				{
					"attributes":{
						"POSITION":76,
						"NORMAL":77,
						"TEXCOORD_0":78
					},
					"indices":11,
					"material":24
				}
			]
		},
		{
			"name":"Cube.002",
			"primitives":[
				{
					"attributes":{
						"POSITION":79,
						"NORMAL":80,
						"TEXCOORD_0":81
					},
					"indices":11,
					"material":25
				}
			]
		},
		{
			"name":"Cube.004",
			"primitives":[
				{
					"attributes":{
						"POSITION":82,
						"NORMAL":83,
						"TEXCOORD_0":84
					},
					"indices":11,
					"material":26
				}
			]
		},
		{
			"name":"Cube.006",
			"primitives":[
				{
					"attributes":{
						"POSITION":85,
						"NORMAL":86,
						"TEXCOORD_0":87
					},
					"indices":11,
					"material":27
				}
			]
		},
		{
			"name":"Cube.008",
			"primitives":[
				{
					"attributes":{
						"POSITION":88,
						"NORMAL":89,
						"TEXCOORD_0":90
					},
					"indices":11,
					"material":28
				}
			]
		},
		{
			"name":"Cube.010",
			"primitives":[
				{
					"attributes":{
						"POSITION":91,
						"NORMAL":92,
						"TEXCOORD_0":93
					},
					"indices":11,
					"material":29
				}
			]
		},
		{
			"name":"Cube.012",
			"primitives":[
				{
					"attributes":{
						"POSITION":94,
						"NORMAL":95,
						"TEXCOORD_0":96
					},
					"indices":11,
					"material":30
				}
			]
		},
		{
			"name":"Cube.014",
			"primitives":[
				{
					"attributes":{
						"POSITION":97,
						"NORMAL":98,
						"TEXCOORD_0":99
					},
					"indices":11,
					"material":31
				}
			]
		},
		{
			"name":"Cube.016",
			"primitives":[
				{
					"attributes":{
						"POSITION":100,
						"NORMAL":101,
						"TEXCOORD_0":102
					},
					"indices":11,
					"material":32
				}
			]
		},
		{
			"name":"Cube.018",
			"primitives":[
				{
					"attributes":{
						"POSITION":103,
						"NORMAL":104,
						"TEXCOORD_0":105
					},
					"indices":11,
					"material":33
				}
			]
		},
		{
			"name":"Cube.020",
			"primitives":[
				{
					"attributes":{
						"POSITION":106,
						"NORMAL":107,
						"TEXCOORD_0":108
					},
					"indices":11,
					"material":34
				}
			]
		},
		{
			"name":"Cube.022",
			"primitives":[
				{
					"attributes":{
						"POSITION":109,
						"NORMAL":110,
						"TEXCOORD_0":111
					},
					"indices":11,
					"material":35
				}
			]
		},
		{
			"name":"Cube.024",
			"primitives":[
				{
					"attributes":{
						"POSITION":112,
						"NORMAL":113,
						"TEXCOORD_0":114
					},
					"indices":11,
					"material":36
				}
			]
		}
	],
	"accessors":[
		{
			"bufferView":0,
			"componentType":5126,
			"count":36,
			"max":[
				0.03464101627469063,
				8.050000190734863,
				0.03999999910593033
			],
			"min":[
				-0.03464101627469063,
				6.550000190734863,
				-0.03999999910593033
			],
			"type":"VEC3"
		},
		{
			"bufferView":1,
			"componentType":5126,
			"count":36,
			"type":"VEC3"
		},
		{
			"bufferView":2,
			"componentType":5126,
			"count":36,
			"type":"VEC2"
		},
		{
			"bufferView":3,
			"componentType":5123,
			"count":60,
			"type":"SCALAR"
		},
		{
			"bufferView":4,
			"componentType":5126,
			"count":60,
			"max":[
				0.08049824833869934,
				8.190000534057617,
				0.07655760645866394
			],
			"min":[
				-0.08049824833869934,
				8.010000228881836,
				-0.07655760645866394
			],
			"type":"VEC3"
		},
		{
			"bufferView":5,
			"componentType":5126,
			"count":60,
			"type":"VEC3"
		},
		{
			"bufferView":6,
			"componentType":5126,
			"count":60,
			"type":"VEC2"
		},
		{
			"bufferView":7,
			"componentType":5123,
			"count":60,
			"type":"SCALAR"
		},
		{
			"bufferView":8,
			"componentType":5126,
			"count":24,
			"max":[
				1.7519999742507935,
				6.700000286102295,
				1.7519999742507935
			],
			"min":[
				-1.7519999742507935,
				6.400000095367432,
				-1.7519999742507935
			],
			"type":"VEC3"
		},
		{
			"bufferView":9,
			"componentType":5126,
			"count":24,
			"type":"VEC3"
		},
		{
			"bufferView":10,
			"componentType":5126,
			"count":24,
			"type":"VEC2"
		},
		{
			"bufferView":11,
			"componentType":5123,
			"count":36,
			"type":"SCALAR"
		},
		{
			"bufferView":12,
			"componentType":5126,
			"count":96,
			"max":[
				1.6720000505447388,
				9.800000190734863,
				1.6720000505447388
			],
			"min":[
				-1.6720000505447388,
				3,
				-1.6720000505447388
			],
			"type":"VEC3"
		},
		{
			"bufferView":13,
			"componentType":5126,
			"count":96,
			"type":"VEC3"
		},
		{
			"bufferView":14,
			"componentType":5126,
			"count":96,
			"type":"VEC2"
		},
		{
			"bufferView":15,
			"componentType":5123,
			"count":132,
			"type":"SCALAR"
		},
		{
			"bufferView":16,
			"componentType":5126,
			"count":24,
			"max":[
				0.0836000144481659,
				6.839999675750732,
				0.8960000276565552
			],
			"min":[
				-0.9196000099182129,
				6.360000133514404,
				0.8159999847412109
			],
			"type":"VEC3"
		},
		{
			"bufferView":17,
			"componentType":5126,
			"count":24,
			"type":"VEC3"
		},
		{
			"bufferView":18,
			"componentType":5126,
			"count":24,
			"type":"VEC2"
		},
		{
			"bufferView":19,
			"componentType":5126,
			"count":24,
			"max":[
				1.7555999755859375,
				6.839999675750732,
				0.8960000276565552
			],
			"min":[
				0.7523999214172363,
				6.360000133514404,
				0.8159999847412109
			],
			"type":"VEC3"
		},
		{
			"bufferView":20,
			"componentType":5126,
			"count":24,
			"type":"VEC3"
		},
		{
			"bufferView":21,
			"componentType":5126,
			"count":24,
			"type":"VEC2"
		},
		{
			"bufferView":22,
			"componentType":5126,
			"count":24,
			"max":[
				0.0836000144481659,
				7.589999675750732,
				0.8960000276565552
			],
			"min":[
				-0.9196000099182129,
				7.110000133514404,
				0.8159999847412109
			],
			"type":"VEC3"
		},
		{
			"bufferView":23,
			"componentType":5126,
			"count":24,
			"type":"VEC3"
		},
		{
			"bufferView":24,
			"componentType":5126,
			"count":24,
			"type":"VEC2"
		},
		{
			"bufferView":25,
			"componentType":5126,
			"count":24,
			"max":[
				1.7555999755859375,
				7.589999675750732,
				0.8960000276565552
			],
			"min":[
				0.7523999214172363,
				7.110000133514404,
				0.8159999847412109
			],
			"type":"VEC3"
		},
		{
			"bufferView":26,
			"componentType":5126,
			"count":24,
			"type":"VEC3"
		},
		{
			"bufferView":27,
			"componentType":5126,
			"count":24,
			"type":"VEC2"
		},
		{
			"bufferView":28,
			"componentType":5126,
			"count":24,
			"max":[
				0.0836000144481659,
				8.34000015258789,
				0.8960000276565552
			],
			"min":[
				-0.9196000099182129,
				7.8600006103515625,
				0.8159999847412109
			],
			"type":"VEC3"
		},
		{
			"bufferView":29,
			"componentType":5126,
			"count":24,
			"type":"VEC3"
		},
		{
			"bufferView":30,
			"componentType":5126,
			"count":24,
			"type":"VEC2"
		},
		{
			"bufferView":31,
			"componentType":5126,
			"count":24,
			"max":[
				1.7555999755859375,
				8.34000015258789,
				0.8960000276565552
			],
			"min":[
				0.7523999214172363,
				7.8600006103515625,
				0.8159999847412109
			],
			"type":"VEC3"
		},
		{
			"bufferView":32,
			"componentType":5126,
			"count":24,
			"type":"VEC3"
		},
		{
			"bufferView":33,
			"componentType":5126,
			"count":24,
			"type":"VEC2"
		},
		{
			"bufferView":34,
			"componentType":5126,
			"count":24,
			"max":[
				0.0836000144481659,
				9.09000015258789,
				0.8960000276565552
			],
			"min":[
				-0.9196000099182129,
				8.610000610351562,
				0.8159999847412109
			],
			"type":"VEC3"
		},
		{
			"bufferView":35,
			"componentType":5126,
			"count":24,
			"type":"VEC3"
		},
		{
			"bufferView":36,
			"componentType":5126,
			"count":24,
			"type":"VEC2"
		},
		{
			"bufferView":37,
			"componentType":5126,
			"count":24,
			"max":[
				1.7555999755859375,
				9.09000015258789,
				0.8960000276565552
			],
			"min":[
				0.7523999214172363,
				8.610000610351562,
				0.8159999847412109
			],
			"type":"VEC3"
		},
		{
			"bufferView":38,
			"componentType":5126,
			"count":24,
			"type":"VEC3"
		},
		{
			"bufferView":39,
			"componentType":5126,
			"count":24,
			"type":"VEC2"
		},
		{
			"bufferView":40,
			"componentType":5126,
			"count":96,
			"max":[
				2.200000047683716,
				6,
				2.200000047683716
			],
			"min":[
				-2.200000047683716,
				0,
				-2.200000047683716
			],
			"type":"VEC3"
		},
		{
			"bufferView":41,
			"componentType":5126,
			"count":96,
			"type":"VEC3"
		},
		{
			"bufferView":42,
			"componentType":5126,
			"count":96,
			"type":"VEC2"
		},
		{
			"bufferView":43,
			"componentType":5126,
			"count":24,
			"max":[
				-1.250933289527893,
				0.7325999736785889,
				2.2899999618530273
			],
			"min":[
				-2.095733165740967,
				0.6826000213623047,
				2.1700000762939453
			],
			"type":"VEC3"
		},
		{
			"bufferView":44,
			"componentType":5126,
			"count":24,
			"type":"VEC3"
		},
		{
			"bufferView":45,
			"componentType":5126,
			"count":24,
			"type":"VEC2"
		},
		{
			"bufferView":46,
			"componentType":5126,
			"count":24,
			"max":[
				-0.07760000228881836,
				0.7325999736785889,
				2.2899999618530273
			],
			"min":[
				-0.9223999977111816,
				0.6826000213623047,
				2.1700000762939453
			],
			"type":"VEC3"
		},
		{
			"bufferView":47,
			"componentType":5126,
			"count":24,
			"type":"VEC3"
		},
		{
			"bufferView":48,
			"componentType":5126,
			"count":24,
			"type":"VEC2"
		},
		{
			"bufferView":49,
			"componentType":5126,
			"count":24,
			"max":[
				1.095733404159546,
				0.7325999736785889,
				2.2899999618530273
			],
			"min":[
				0.25093334913253784,
				0.6826000213623047,
				2.1700000762939453
			],
			"type":"VEC3"
		},
		{
			"bufferView":50,
			"componentType":5126,
			"count":24,
			"type":"VEC3"
		},
		{
			"bufferView":51,
			"componentType":5126,
			"count":24,
			"type":"VEC2"
		},
		{
			"bufferView":52,
			"componentType":5126,
			"count":24,
			"max":[
				-1.250933289527893,
				1.8925999402999878,
				2.2899999618530273
			],
			"min":[
				-2.095733165740967,
				1.8425999879837036,
				2.1700000762939453
			],
			"type":"VEC3"
		},
		{
			"bufferView":53,
			"componentType":5126,
			"count":24,
			"type":"VEC3"
		},
		{
			"bufferView":54,
			"componentType":5126,
			"count":24,
			"type":"VEC2"
		},
		{
			"bufferView":55,
			"componentType":5126,
			"count":24,
			"max":[
				-0.07760000228881836,
				1.8925999402999878,
				2.2899999618530273
			],
			"min":[
				-0.9223999977111816,
				1.8425999879837036,
				2.1700000762939453
			],
			"type":"VEC3"
		},
		{
			"bufferView":56,
			"componentType":5126,
			"count":24,
			"type":"VEC3"
		},
		{
			"bufferView":57,
			"componentType":5126,
			"count":24,
			"type":"VEC2"
		},
		{
			"bufferView":58,
			"componentType":5126,
			"count":24,
			"max":[
				1.095733404159546,
				1.8925999402999878,
				2.2899999618530273
			],
			"min":[
				0.25093334913253784,
				1.8425999879837036,
				2.1700000762939453
			],
			"type":"VEC3"
		},
		{
			"bufferView":59,
			"componentType":5126,
			"count":24,
			"type":"VEC3"
		},
		{
			"bufferView":60,
			"componentType":5126,
			"count":24,
			"type":"VEC2"
		},
		{
			"bufferView":61,
			"componentType":5126,
			"count":24,
			"max":[
				-1.250933289527893,
				3.052600145339966,
				2.2899999618530273
			],
			"min":[
				-2.095733165740967,
				3.0025999546051025,
				2.1700000762939453
			],
			"type":"VEC3"
		},
		{
			"bufferView":62,
			"componentType":5126,
			"count":24,
			"type":"VEC3"
		},
		{
			"bufferView":63,
			"componentType":5126,
			"count":24,
			"type":"VEC2"
		},
		{
			"bufferView":64,
			"componentType":5126,
			"count":24,
			"max":[
				-0.07760000228881836,
				3.052600145339966,
				2.2899999618530273
			],
			"min":[
				-0.9223999977111816,
				3.0025999546051025,
				2.1700000762939453
			],
			"type":"VEC3"
		},
		{
			"bufferView":65,
			"componentType":5126,
			"count":24,
			"type":"VEC3"
		},
		{
			"bufferView":66,
			"componentType":5126,
			"count":24,
			"type":"VEC2"
		},
		{
			"bufferView":67,
			"componentType":5126,
			"count":24,
			"max":[
				1.095733404159546,
				3.052600145339966,
				2.2899999618530273
			],
			"min":[
				0.25093334913253784,
				3.0025999546051025,
				2.1700000762939453
			],
			"type":"VEC3"
		},
		{
			"bufferView":68,
			"componentType":5126,
			"count":24,
			"type":"VEC3"
		},
		{
			"bufferView":69,
			"componentType":5126,
			"count":24,
			"type":"VEC2"
		},
		{
			"bufferView":70,
			"componentType":5126,
			"count":24,
			"max":[
				-1.250933289527893,
				4.212600231170654,
				2.2899999618530273
			],
			"min":[
				-2.095733165740967,
				4.162600040435791,
				2.1700000762939453
			],
			"type":"VEC3"
		},
		{
			"bufferView":71,
			"componentType":5126,
			"count":24,
			"type":"VEC3"
		},
		{
			"bufferView":72,
			"componentType":5126,
			"count":24,
			"type":"VEC2"
		},
		{
			"bufferView":73,
			"componentType":5126,
			"count":24,
			"max":[
				-0.07760000228881836,
				4.212600231170654,
				2.2899999618530273
			],
			"min":[
				-0.9223999977111816,
				4.162600040435791,
				2.1700000762939453
			],
			"type":"VEC3"
		},
		{
			"bufferView":74,
			"componentType":5126,
			"count":24,
			"type":"VEC3"
		},
		{
			"bufferView":75,
			"componentType":5126,
			"count":24,
			"type":"VEC2"
		},
		{
			"bufferView":76,
			"componentType":5126,
			"count":24,
			"max":[
				1.095733404159546,
				4.212600231170654,
				2.2899999618530273
			],
			"min":[
				0.25093334913253784,
				4.162600040435791,
				2.1700000762939453
			],
			"type":"VEC3"
		},
		{
			"bufferView":77,
			"componentType":5126,
			"count":24,
			"type":"VEC3"
		},
		{
			"bufferView":78,
			"componentType":5126,
			"count":24,
			"type":"VEC2"
		},
		{
			"bufferView":79,
			"componentType":5126,
			"count":24,
			"max":[
				-1.3213332891464233,
				1.4731999635696411,
				2.259999990463257
			],
			"min":[
				-2.0253334045410156,
				0.7308000326156616,
				2.180000066757202
			],
			"type":"VEC3"
		},
		{
			"bufferView":80,
			"componentType":5126,
			"count":24,
			"type":"VEC3"
		},
		{
			"bufferView":81,
			"componentType":5126,
			"count":24,
			"type":"VEC2"
		},
		{
			"bufferView":82,
			"componentType":5126,
			"count":24,
			"max":[
				-0.14800000190734863,
				1.4731999635696411,
				2.259999990463257
			],
			"min":[
				-0.8519999980926514,
				0.7308000326156616,
				2.180000066757202
			],
			"type":"VEC3"
		},
		{
			"bufferView":83,
			"componentType":5126,
			"count":24,
			"type":"VEC3"
		},
		{
			"bufferView":84,
			"componentType":5126,
			"count":24,
			"type":"VEC2"
		},
		{
			"bufferView":85,
			"componentType":5126,
			"count":24,
			"max":[
				1.0253334045410156,
				1.4731999635696411,
				2.259999990463257
			],
			"min":[
				0.3213333487510681,
				0.7308000326156616,
				2.180000066757202
			],
			"type":"VEC3"
		},
		{
			"bufferView":86,
			"componentType":5126,
			"count":24,
			"type":"VEC3"
		},
		{
			"bufferView":87,
			"componentType":5126,
			"count":24,
			"type":"VEC2"
		},
		{
			"bufferView":88,
			"componentType":5126,
			"count":24,
			"max":[
				-1.3213332891464233,
				2.633200168609619,
				2.259999990463257
			],
			"min":[
				-2.0253334045410156,
				1.89080011844635,
				2.180000066757202
			],
			"type":"VEC3"
		},
		{
			"bufferView":89,
			"componentType":5126,
			"count":24,
			"type":"VEC3"
		},
		{
			"bufferView":90,
			"componentType":5126,
			"count":24,
			"type":"VEC2"
		},
		{
			"bufferView":91,
			"componentType":5126,
			"count":24,
			"max":[
				-0.14800000190734863,
				2.633200168609619,
				2.259999990463257
			],
			"min":[
				-0.8519999980926514,
				1.89080011844635,
				2.180000066757202
			],
			"type":"VEC3"
		},
		{
			"bufferView":92,
			"componentType":5126,
			"count":24,
			"type":"VEC3"
		},
		{
			"bufferView":93,
			"componentType":5126,
			"count":24,
			"type":"VEC2"
		},
		{
			"bufferView":94,
			"componentType":5126,
			"count":24,
			"max":[
				1.0253334045410156,
				2.633200168609619,
				2.259999990463257
			],
			"min":[
				0.3213333487510681,
				1.89080011844635,
				2.180000066757202
			],
			"type":"VEC3"
		},
		{
			"bufferView":95,
			"componentType":5126,
			"count":24,
			"type":"VEC3"
		},
		{
			"bufferView":96,
			"componentType":5126,
			"count":24,
			"type":"VEC2"
		},
		{
			"bufferView":97,
			"componentType":5126,
			"count":24,
			"max":[
				-1.3213332891464233,
				3.7932000160217285,
				2.259999990463257
			],
			"min":[
				-2.0253334045410156,
				3.05079984664917,
				2.180000066757202
			],
			"type":"VEC3"
		},
		{
			"bufferView":98,
			"componentType":5126,
			"count":24,
			"type":"VEC3"
		},
		{
			"bufferView":99,
			"componentType":5126,
			"count":24,
			"type":"VEC2"
		},
		{
			"bufferView":100,
			"componentType":5126,
			"count":24,
			"max":[
				-0.14800000190734863,
				3.7932000160217285,
				2.259999990463257
			],
			"min":[
				-0.8519999980926514,
				3.05079984664917,
				2.180000066757202
			],
			"type":"VEC3"
		},
		{
			"bufferView":101,
			"componentType":5126,
			"count":24,
			"type":"VEC3"
		},
		{
			"bufferView":102,
			"componentType":5126,
			"count":24,
			"type":"VEC2"
		},
		{
			"bufferView":103,
			"componentType":5126,
			"count":24,
			"max":[
				1.0253334045410156,
				3.7932000160217285,
				2.259999990463257
			],
			"min":[
				0.3213333487510681,
				3.05079984664917,
				2.180000066757202
			],
			"type":"VEC3"
		},
		{
			"bufferView":104,
			"componentType":5126,
			"count":24,
			"type":"VEC3"
		},
		{
			"bufferView":105,
			"componentType":5126,
			"count":24,
			"type":"VEC2"
		},
		{
			"bufferView":106,
			"componentType":5126,
			"count":24,
			"max":[
				-1.3213332891464233,
				4.953199863433838,
				2.259999990463257
			],
			"min":[
				-2.0253334045410156,
				4.210799694061279,
				2.180000066757202
			],
			"type":"VEC3"
		},
		{
			"bufferView":107,
			"componentType":5126,
			"count":24,
			"type":"VEC3"
		},
		{
			"bufferView":108,
			"componentType":5126,
			"count":24,
			"type":"VEC2"
		},
		{
			"bufferView":109,
			"componentType":5126,
			"count":24,
			"max":[
				-0.14800000190734863,
				4.953199863433838,
				2.259999990463257
			],
			"min":[
				-0.8519999980926514,
				4.210799694061279,
				2.180000066757202
			],
			"type":"VEC3"
		},
		{
			"bufferView":110,
			"componentType":5126,
			"count":24,
			"type":"VEC3"
		},
		{
			"bufferView":111,
			"componentType":5126,
			"count":24,
			"type":"VEC2"
		},
		{
			"bufferView":112,
			"componentType":5126,
			"count":24,
			"max":[
				1.0253334045410156,
				4.953199863433838,
				2.259999990463257
			],
			"min":[
				0.3213333487510681,
				4.210799694061279,
				2.180000066757202
			],
			"type":"VEC3"
		},
		{
			"bufferView":113,
			"componentType":5126,
			"count":24,
			"type":"VEC3"
		},
		{
			"bufferView":114,
			"componentType":5126,
			"count":24,
			"type":"VEC2"
		}
	],
	"bufferViews":[
		{
			"buffer":0,
			"byteLength":432,
			"byteOffset":0,
			"target":34962
		},
		{
			"buffer":0,
			"byteLength":432,
			"byteOffset":432,
			"target":34962
		},
		{
			"buffer":0,
			"byteLength":288,
			"byteOffset":864,
			"target":34962
		},
		{
			"buffer":0,
			"byteLength":120,
			"byteOffset":1152,
			"target":34963
		},
		{
			"buffer":0,
			"byteLength":720,
			"byteOffset":1272,
			"target":34962
		},
		{
			"buffer":0,
			"byteLength":720,
			"byteOffset":1992,
			"target":34962
		},
		{
			"buffer":0,
			"byteLength":480,
			"byteOffset":2712,
			"target":34962
		},
		{
			"buffer":0,
			"byteLength":120,
			"byteOffset":3192,
			"target":34963
		},
		{
			"buffer":0,
			"byteLength":288,
			"byteOffset":3312,
			"target":34962
		},
		{
			"buffer":0,
			"byteLength":288,
			"byteOffset":3600,
			"target":34962
		},
		{
			"buffer":0,
			"byteLength":192,
			"byteOffset":3888,
			"target":34962
		},
		{
			"buffer":0,
			"byteLength":72,
			"byteOffset":4080,
			"target":34963
		},
		{
			"buffer":0,
			"byteLength":1152,
			"byteOffset":4152,
			"target":34962
		},
		{
			"buffer":0,
			"byteLength":1152,
			"byteOffset":5304,
			"target":34962
		},
		{
			"buffer":0,
			"byteLength":768,
			"byteOffset":6456,
			"target":34962
		},
		{
			"buffer":0,
			"byteLength":264,
			"byteOffset":7224,
			"target":34963
		},
		{
			"buffer":0,
			"byteLength":288,
			"byteOffset":7488,
			"target":34962
		},
		{
			"buffer":0,
			"byteLength":288,
			"byteOffset":7776,
			"target":34962
		},
		{
			"buffer":0,
			"byteLength":192,
			"byteOffset":8064,
			"target":34962
		},
		{
			"buffer":0,
			"byteLength":288,
			"byteOffset":8256,
			"target":34962
		},
		{
			"buffer":0,
			"byteLength":288,
			"byteOffset":8544,
			"target":34962
		},
		{
			"buffer":0,
			"byteLength":192,
			"byteOffset":8832,
			"target":34962
		},
		{
			"buffer":0,
			"byteLength":288,
			"byteOffset":9024,
			"target":34962
		},
		{
			"buffer":0,
			"byteLength":288,
			"byteOffset":9312,
			"target":34962
		},
		{
			"buffer":0,
			"byteLength":192,
			"byteOffset":9600,
			"target":34962
		},
		{
			"buffer":0,
			"byteLength":288,
			"byteOffset":9792,
			"target":34962
		},
		{
			"buffer":0,
			"byteLength":288,
			"byteOffset":10080,
			"target":34962
		},
		{
			"buffer":0,
			"byteLength":192,
			"byteOffset":10368,
			"target":34962
		},
		{
			"buffer":0,
			"byteLength":288,
			"byteOffset":10560,
			"target":34962
		},
		{
			"buffer":0,
			"byteLength":288,
			"byteOffset":10848,
			"target":34962
		},
		{
			"buffer":0,
			"byteLength":192,
			"byteOffset":11136,
			"target":34962
		},
		{
			"buffer":0,
			"byteLength":288,
			"byteOffset":11328,
			"target":34962
		},
		{
			"buffer":0,
			"byteLength":288,
			"byteOffset":11616,
			"target":34962
		},
		{
			"buffer":0,
			"byteLength":192,
			"byteOffset":11904,
			"target":34962
		},
		{
			"buffer":0,
			"byteLength":288,
			"byteOffset":12096,
			"target":34962
		},
		{
			"buffer":0,
			"byteLength":288,
			"byteOffset":12384,
			"target":34962
		},
		{
			"buffer":0,
			"byteLength":192,
			"byteOffset":12672,
			"target":34962
		},
		{
			"buffer":0,
			"byteLength":288,
			"byteOffset":12864,
			"target":34962
		},
		{
			"buffer":0,
			"byteLength":288,
			"byteOffset":13152,
			"target":34962
		},
		{
			"buffer":0,
			"byteLength":192,
			"byteOffset":13440,
			"target":34962
		},
		{
			"buffer":0,
			"byteLength":1152,
			"byteOffset":13632,
			"target":34962
		},
		{
			"buffer":0,
			"byteLength":1152,
			"byteOffset":14784,
			"target":34962
		},
		{
			"buffer":0,
			"byteLength":768,
			"byteOffset":15936,
			"target":34962
		},
		{
			"buffer":0,
			"byteLength":288,
			"byteOffset":16704,
			"target":34962
		},
		{
			"buffer":0,
			"byteLength":288,
			"byteOffset":16992,
			"target":34962
		},
		{
			"buffer":0,
			"byteLength":192,
			"byteOffset":17280,
			"target":34962
		},
		{
			"buffer":0,
			"byteLength":288,
			"byteOffset":17472,
			"target":34962
		},
		{
			"buffer":0,
			"byteLength":288,
			"byteOffset":17760,
			"target":34962
		},
		{
			"buffer":0,
			"byteLength":192,
			"byteOffset":18048,
			"target":34962
		},
		{
			"buffer":0,
			"byteLength":288,
			"byteOffset":18240,
			"target":34962
		},
		{
			"buffer":0,
			"byteLength":288,
			"byteOffset":18528,
			"target":34962
		},
		{
			"buffer":0,
			"byteLength":192,
			"byteOffset":18816,
			"target":34962
		},
		{
			"buffer":0,
			"byteLength":288,
			"byteOffset":19008,
			"target":34962
		},
		{
			"buffer":0,
			"byteLength":288,
			"byteOffset":19296,
			"target":34962
		},
		{
			"buffer":0,
			"byteLength":192,
			"byteOffset":19584,
			"target":34962
		},
		{
			"buffer":0,
			"byteLength":288,
			"byteOffset":19776,
			"target":34962
		},
		{
			"buffer":0,
			"byteLength":288,
			"byteOffset":20064,
			"target":34962
		},
		{
			"buffer":0,
			"byteLength":192,
			"byteOffset":20352,
			"target":34962
		},
		{
			"buffer":0,
			"byteLength":288,
			"byteOffset":20544,
			"target":34962
		},
		{
			"buffer":0,
			"byteLength":288,
			"byteOffset":20832,
			"target":34962
		},
		{
			"buffer":0,
			"byteLength":192,
			"byteOffset":21120,
			"target":34962
		},
		{
			"buffer":0,
			"byteLength":288,
			"byteOffset":21312,
			"target":34962
		},
		{
			"buffer":0,
			"byteLength":288,
			"byteOffset":21600,
			"target":34962
		},
		{
			"buffer":0,
			"byteLength":192,
			"byteOffset":21888,
			"target":34962
		},
		{
			"buffer":0,
			"byteLength":288,
			"byteOffset":22080,
			"target":34962
		},
		{
			"buffer":0,
			"byteLength":288,
			"byteOffset":22368,
			"target":34962
		},
		{
			"buffer":0,
			"byteLength":192,
			"byteOffset":22656,
			"target":34962
		},
		{
			"buffer":0,
			"byteLength":288,
			"byteOffset":22848,
			"target":34962
		},
		{
			"buffer":0,
			"byteLength":288,
			"byteOffset":23136,
			"target":34962
		},
		{
			"buffer":0,
			"byteLength":192,
			"byteOffset":23424,
			"target":34962
		},
		{
			"buffer":0,
			"byteLength":288,
			"byteOffset":23616,
			"target":34962
		},
		{
			"buffer":0,
			"byteLength":288,
			"byteOffset":23904,
			"target":34962
		},
		{
			"buffer":0,
			"byteLength":192,
			"byteOffset":24192,
			"target":34962
		},
		{
			"buffer":0,
			"byteLength":288,
			"byteOffset":24384,
			"target":34962
		},
		{
			"buffer":0,
			"byteLength":288,
			"byteOffset":24672,
			"target":34962
		},
		{
			"buffer":0,
			"byteLength":192,
			"byteOffset":24960,
			"target":34962
		},
		{
			"buffer":0,
			"byteLength":288,
			"byteOffset":25152,
			"target":34962
		},
		{
			"buffer":0,
			"byteLength":288,
			"byteOffset":25440,
			"target":34962
		},
		{
			"buffer":0,
			"byteLength":192,
			"byteOffset":25728,
			"target":34962
		},
		{
			"buffer":0,
			"byteLength":288,
			"byteOffset":25920,
			"target":34962
		},
		{
			"buffer":0,
			"byteLength":288,
			"byteOffset":26208,
			"target":34962
		},
		{
			"buffer":0,
			"byteLength":192,
			"byteOffset":26496,
			"target":34962
		},
		{
			"buffer":0,
			"byteLength":288,
			"byteOffset":26688,
			"target":34962
		},
		{
			"buffer":0,
			"byteLength":288,
			"byteOffset":26976,
			"target":34962
		},
		{
			"buffer":0,
			"byteLength":192,
			"byteOffset":27264,
			"target":34962
		},
		{
			"buffer":0,
			"byteLength":288,
			"byteOffset":27456,
			"target":34962
		},
		{
			"buffer":0,
			"byteLength":288,
			"byteOffset":27744,
			"target":34962
		},
		{
			"buffer":0,
			"byteLength":192,
			"byteOffset":28032,
			"target":34962
		},
		{
			"buffer":0,
			"byteLength":288,
			"byteOffset":28224,
			"target":34962
		},
		{
			"buffer":0,
			"byteLength":288,
			"byteOffset":28512,
			"target":34962
		},
		{
			"buffer":0,
			"byteLength":192,
			"byteOffset":28800,
			"target":34962
		},
		{
			"buffer":0,
			"byteLength":288,
			"byteOffset":28992,
			"target":34962
		},
		{
			"buffer":0,
			"byteLength":288,
			"byteOffset":29280,
			"target":34962
		},
		{
			"buffer":0,
			"byteLength":192,
			"byteOffset":29568,
			"target":34962
		},
		{
			"buffer":0,
			"byteLength":288,
			"byteOffset":29760,
			"target":34962
		},
		{
			"buffer":0,
			"byteLength":288,
			"byteOffset":30048,
			"target":34962
		},
		{
			"buffer":0,
			"byteLength":192,
			"byteOffset":30336,
			"target":34962
		},
		{
			"buffer":0,
			"byteLength":288,
			"byteOffset":30528,
			"target":34962
		},
		{
			"buffer":0,
			"byteLength":288,
			"byteOffset":30816,
			"target":34962
		},
		{
			"buffer":0,
			"byteLength":192,
			"byteOffset":31104,
			"target":34962
		},
		{
			"buffer":0,
			"byteLength":288,
			"byteOffset":31296,
			"target":34962
		},
		{
			"buffer":0,
			"byteLength":288,
			"byteOffset":31584,
			"target":34962
		},
		{
			"buffer":0,
			"byteLength":192,
			"byteOffset":31872,
			"target":34962
		},
		{
			"buffer":0,
			"byteLength":288,
			"byteOffset":32064,
			"target":34962
		},
		{
			"buffer":0,
			"byteLength":288,
			"byteOffset":32352,
			"target":34962
		},
		{
			"buffer":0,
			"byteLength":192,
			"byteOffset":32640,
			"target":34962
		},
		{
			"buffer":0,
			"byteLength":288,
			"byteOffset":32832,
			"target":34962
		},
		{
			"buffer":0,
			"byteLength":288,
			"byteOffset":33120,
			"target":34962
		},
		{
			"buffer":0,
			"byteLength":192,
			"byteOffset":33408,
			"target":34962
		},
		{
			"buffer":0,
			"byteLength":288,
			"byteOffset":33600,
			"target":34962
		},
		{
			"buffer":0,
			"byteLength":288,
			"byteOffset":33888,
			"target":34962
		},
		{
			"buffer":0,
			"byteLength":192,
			"byteOffset":34176,
			"target":34962
		},
		{
			"buffer":0,
			"byteLength":288,
			"byteOffset":34368,
			"target":34962
		},
		{
			"buffer":0,
			"byteLength":288,
			"byteOffset":34656,
			"target":34962
		},
		{
			"buffer":0,
			"byteLength":192,
			"byteOffset":34944,
			"target":34962
		}
	],
	"buffers":[
		{
			"byteLength":35136,
			"uri":"hd_bldg_tower.bin"
		}
	]
}
