{
	"asset":{
		"generator":"Khronos glTF Blender I/O v5.2.40",
		"version":"2.0"
	},
	"scene":0,
	"scenes":[
		{
			"name":"Scene",
			"nodes":[
				0,
				1,
				2,
				3,
				4,
				5,
				6,
				7,
				8,
				9
			]
		}
	],
	"nodes":[
		{
			"mesh":0,
			"name":"belt"
		},
		{
			"mesh":1,
			"name":"blade"
		},
		{
			"mesh":2,
			"name":"crest"
		},
		{
			"mesh":3,
			"name":"guard"
		},
		{
			"mesh":4,
			"name":"head"
		},
		{
			"mesh":5,
			"name":"pauld0.34"
		},
		{
			"mesh":6,
			"name":"pauld-0.34"
		},
		{
			"mesh":7,
			"name":"plinth"
		},
		{
			"mesh":8,
			"name":"plinthT"
		},
		{
			"mesh":9,
			"name":"torso"
		}
	],
	"materials":[
		{
			"doubleSided":true,
			"name":"M_sbe",
			"pbrMetallicRoughness":{
				"baseColorFactor":[
					0.8751375675201416,
					0.4936161935329437,
					0.044552627950906754,
					1
				],
				"metallicFactor":0,
				"roughnessFactor":0.8500000238418579
			}
		},
		{
			"doubleSided":true,
			"name":"M_sbl",
			"pbrMetallicRoughness":{
				"baseColorFactor":[
					0.373615026473999,
					0.3488648235797882,
					0.302125483751297,
					1
				],
				"metallicFactor":0,
				"roughnessFactor":0.8500000238418579
			}
		},
		{
			"doubleSided":true,
			"name":"M_scr",
			"pbrMetallicRoughness":{
				"baseColorFactor":[
					0.8751375675201416,
					0.4936161935329437,
					0.044552627950906754,
					1
				],
				"metallicFactor":0,
				"roughnessFactor":0.8500000238418579
			}
		},
		{
			"doubleSided":true,
			"name":"M_sg",
			"pbrMetallicRoughness":{
				"baseColorFactor":[
					0.8751375675201416,
					0.4936161935329437,
					0.044552627950906754,
					1
				],
				"metallicFactor":0,
				"roughnessFactor":0.8500000238418579
			}
		},
		{
			"doubleSided":true,
			"name":"M_sh",
			"pbrMetallicRoughness":{
				"baseColorFactor":[
					0.8122414946556091,
					0.7518950700759888,
					0.6120656132698059,
					1
				],
				"metallicFactor":0,
				"roughnessFactor":0.8500000238418579
			}
		},
		{
			"doubleSided":true,
			"name":"M_spa0.34",
			"pbrMetallicRoughness":{
				"baseColorFactor":[
					0.8122414946556091,
					0.7518950700759888,
					0.6120656132698059,
					1
				],
				"metallicFactor":0,
				"roughnessFactor":0.8500000238418579
			}
		},
		{
			"doubleSided":true,
			"name":"M_spa-0.34",
			"pbrMetallicRoughness":{
				"baseColorFactor":[
					0.8122414946556091,
					0.7518950700759888,
					0.6120656132698059,
					1
				],
				"metallicFactor":0,
				"roughnessFactor":0.8500000238418579
			}
		},
		{
			"doubleSided":true,
			"name":"M_sp",
			"pbrMetallicRoughness":{
				"baseColorFactor":[
					0.4819522500038147,
					0.3586539030075073,
					0.18698850274085999,
					1
				],
				"metallicFactor":0,
				"roughnessFactor":0.8500000238418579
			}
		},
		{
			"doubleSided":true,
			"name":"M_spt",
			"pbrMetallicRoughness":{
				"baseColorFactor":[
					0.8122414946556091,
					0.7518950700759888,
					0.6120656132698059,
					1
				],
				"metallicFactor":0,
				"roughnessFactor":0.8500000238418579
			}
		},
		{
			"doubleSided":true,
			"name":"M_st",
			"pbrMetallicRoughness":{
				"baseColorFactor":[
					0.8122414946556091,
					0.7518950700759888,
					0.6120656132698059,
					1
				],
				"metallicFactor":0,
				"roughnessFactor":0.8500000238418579
			}
		}
	],
	"meshes":[
		{
			"name":"Cube.003",
			"primitives":[
				{
					"attributes":{
						"POSITION":0,
						"NORMAL":1,
						"TEXCOORD_0":2
					},
					"indices":3,
					"material":0
				}
			]
		},
		{
			"name":"Cube.005",
			"primitives":[
				{
					"attributes":{
						"POSITION":4,
						"NORMAL":5,
						"TEXCOORD_0":6
					},
					"indices":3,
					"material":1
				}
			]
		},
		{
			"name":"Cone",
			"primitives":[
				{
					"attributes":{
						"POSITION":7,
						"NORMAL":8,
						"TEXCOORD_0":9
					},
					"indices":10,
					"material":2
				}
			]
		},
		{
			"name":"Cube.006",
			"primitives":[
				{
					"attributes":{
						"POSITION":11,
						"NORMAL":12,
						"TEXCOORD_0":13
					},
					"indices":3,
					"material":3
				}
			]
		},
		{
			"name":"Cube.004",
			"primitives":[
				{
					"attributes":{
						"POSITION":14,
						"NORMAL":15,
						"TEXCOORD_0":16
					},
					"indices":17,
					"material":4
				}
			]
		},
		{
			"name":"Sphere.001",
			"primitives":[
				{
					"attributes":{
						"POSITION":18,
						"NORMAL":19,
						"TEXCOORD_0":20
					},
					"indices":21,
					"material":5
				}
			]
		},
		{
			"name":"Sphere",
			"primitives":[
				{
					"attributes":{
						"POSITION":22,
						"NORMAL":23,
						"TEXCOORD_0":24
					},
					"indices":21,
					"material":6
				}
			]
		},
		{
			"name":"Cube",
			"primitives":[
				{
					"attributes":{
						"POSITION":25,
						"NORMAL":26,
						"TEXCOORD_0":27
					},
					"indices":3,
					"material":7
				}
			]
		},
		{
			"name":"Cube.001",
			"primitives":[
				{
					"attributes":{
						"POSITION":28,
						"NORMAL":29,
						"TEXCOORD_0":30
					},
					"indices":3,
					"material":8
				}
			]
		},
		{
			"name":"Cube.002",
			"primitives":[
				{
					"attributes":{
						"POSITION":31,
						"NORMAL":32,
						"TEXCOORD_0":33
					},
					"indices":17,
					"material":9
				}
			]
		}
	],
	"accessors":[
		{
			"bufferView":0,
			"componentType":5126,
			"count":24,
			"max":[
				0.30000001192092896,
				1.1999999284744263,
				0.25
			],
			"min":[
				-0.30000001192092896,
				1.100000023841858,
				-0.22999998927116394
			],
			"type":"VEC3"
		},
		{
			"bufferView":1,
			"componentType":5126,
			"count":24,
			"type":"VEC3"
		},
		{
			"bufferView":2,
			"componentType":5126,
			"count":24,
			"type":"VEC2"
		},
		{
			"bufferView":3,
			"componentType":5123,
			"count":36,
			"type":"SCALAR"
		},
		{
			"bufferView":4,
			"componentType":5126,
			"count":24,
			"max":[
				0.05000000074505806,
				1.75,
				0.23000000417232513
			],
			"min":[
				-0.05000000074505806,
				0.75,
				0.17000000178813934
			],
			"type":"VEC3"
		},
		{
			"bufferView":5,
			"componentType":5126,
			"count":24,
			"type":"VEC3"
		},
		{
			"bufferView":6,
			"componentType":5126,
			"count":24,
			"type":"VEC2"
		},
		{
			"bufferView":7,
			"componentType":5126,
			"count":30,
			"max":[
				0.05706338956952095,
				2.674999952316284,
				0.04854102060198784
			],
			"min":[
				-0.05706338956952095,
				2.325000047683716,
				-0.05999999865889549
			],
			"type":"VEC3"
		},
		{
			"bufferView":8,
			"componentType":5126,
			"count":30,
			"type":"VEC3"
		},
		{
			"bufferView":9,
			"componentType":5126,
			"count":30,
			"type":"VEC2"
		},
		{
			"bufferView":10,
			"componentType":5123,
			"count":48,
			"type":"SCALAR"
		},
		{
			"bufferView":11,
			"componentType":5126,
			"count":24,
			"max":[
				0.1599999964237213,
				1.659999966621399,
				0.25
			],
			"min":[
				-0.1599999964237213,
				1.5800000429153442,
				0.15000000596046448
			],
			"type":"VEC3"
		},
		{
			"bufferView":12,
			"componentType":5126,
			"count":24,
			"type":"VEC3"
		},
		{
			"bufferView":13,
			"componentType":5126,
			"count":24,
			"type":"VEC2"
		},
		{
			"bufferView":14,
			"componentType":5126,
			"count":96,
			"max":[
				0.17000000178813934,
				2.4000000953674316,
				0.17000000178813934
			],
			"min":[
				-0.17000000178813934,
				2,
				-0.17000000178813934
			],
			"type":"VEC3"
		},
		{
			"bufferView":15,
			"componentType":5126,
			"count":96,
			"type":"VEC3"
		},
		{
			"bufferView":16,
			"componentType":5126,
			"count":96,
			"type":"VEC2"
		},
		{
			"bufferView":17,
			"componentType":5123,
			"count":132,
			"type":"SCALAR"
		},
		{
			"bufferView":18,
			"componentType":5126,
			"count":52,
			"max":[
				0.530211329460144,
				2.049999952316284,
				0.19021129608154297
			],
			"min":[
				0.14978870749473572,
				1.75,
				-0.19021129608154297
			],
			"type":"VEC3"
		},
		{
			"bufferView":19,
			"componentType":5126,
			"count":52,
			"type":"VEC3"
		},
		{
			"bufferView":20,
			"componentType":5126,
			"count":52,
			"type":"VEC2"
		},
		{
			"bufferView":21,
			"componentType":5123,
			"count":192,
			"type":"SCALAR"
		},
		{
			"bufferView":22,
			"componentType":5126,
			"count":52,
			"max":[
				-0.14978870749473572,
				2.049999952316284,
				0.19021129608154297
			],
			"min":[
				-0.530211329460144,
				1.75,
				-0.19021129608154297
			],
			"type":"VEC3"
		},
		{
			"bufferView":23,
			"componentType":5126,
			"count":52,
			"type":"VEC3"
		},
		{
			"bufferView":24,
			"componentType":5126,
			"count":52,
			"type":"VEC2"
		},
		{
			"bufferView":25,
			"componentType":5126,
			"count":24,
			"max":[
				0.6000000238418579,
				0.6000000238418579,
				0.6000000238418579
			],
			"min":[
				-0.6000000238418579,
				0,
				-0.6000000238418579
			],
			"type":"VEC3"
		},
		{
			"bufferView":26,
			"componentType":5126,
			"count":24,
			"type":"VEC3"
		},
		{
			"bufferView":27,
			"componentType":5126,
			"count":24,
			"type":"VEC2"
		},
		{
			"bufferView":28,
			"componentType":5126,
			"count":24,
			"max":[
				0.5,
				0.7299999594688416,
				0.5
			],
			"min":[
				-0.5,
				0.5699999928474426,
				-0.5
			],
			"type":"VEC3"
		},
		{
			"bufferView":29,
			"componentType":5126,
			"count":24,
			"type":"VEC3"
		},
		{
			"bufferView":30,
			"componentType":5126,
			"count":24,
			"type":"VEC2"
		},
		{
			"bufferView":31,
			"componentType":5126,
			"count":96,
			"max":[
				0.3400000035762787,
				2.049999952316284,
				0.23999999463558197
			],
			"min":[
				-0.3400000035762787,
				0.949999988079071,
				-0.23999999463558197
			],
			"type":"VEC3"
		},
		{
			"bufferView":32,
			"componentType":5126,
			"count":96,
			"type":"VEC3"
		},
		{
			"bufferView":33,
			"componentType":5126,
			"count":96,
			"type":"VEC2"
		}
	],
	"bufferViews":[
		{
			"buffer":0,
			"byteLength":288,
			"byteOffset":0,
			"target":34962
		},
		{
			"buffer":0,
			"byteLength":288,
			"byteOffset":288,
			"target":34962
		},
		{
			"buffer":0,
			"byteLength":192,
			"byteOffset":576,
			"target":34962
		},
		{
			"buffer":0,
			"byteLength":72,
			"byteOffset":768,
			"target":34963
		},
		{
			"buffer":0,
			"byteLength":288,
			"byteOffset":840,
			"target":34962
		},
		{
			"buffer":0,
			"byteLength":288,
			"byteOffset":1128,
			"target":34962
		},
		{
			"buffer":0,
			"byteLength":192,
			"byteOffset":1416,
			"target":34962
		},
		{
			"buffer":0,
			"byteLength":360,
			"byteOffset":1608,
			"target":34962
		},
		{
			"buffer":0,
			"byteLength":360,
			"byteOffset":1968,
			"target":34962
		},
		{
			"buffer":0,
			"byteLength":240,
			"byteOffset":2328,
			"target":34962
		},
		{
			"buffer":0,
			"byteLength":96,
			"byteOffset":2568,
			"target":34963
		},
		{
			"buffer":0,
			"byteLength":288,
			"byteOffset":2664,
			"target":34962
		},
		{
			"buffer":0,
			"byteLength":288,
			"byteOffset":2952,
			"target":34962
		},
		{
			"buffer":0,
			"byteLength":192,
			"byteOffset":3240,
			"target":34962
		},
		{
			"buffer":0,
			"byteLength":1152,
			"byteOffset":3432,
			"target":34962
		},
		{
			"buffer":0,
			"byteLength":1152,
			"byteOffset":4584,
			"target":34962
		},
		{
			"buffer":0,
			"byteLength":768,
			"byteOffset":5736,
			"target":34962
		},
		{
			"buffer":0,
			"byteLength":264,
			"byteOffset":6504,
			"target":34963
		},
		{
			"buffer":0,
			"byteLength":624,
			"byteOffset":6768,
			"target":34962
		},
		{
			"buffer":0,
			"byteLength":624,
			"byteOffset":7392,
			"target":34962
		},
		{
			"buffer":0,
			"byteLength":416,
			"byteOffset":8016,
			"target":34962
		},
		{
			"buffer":0,
			"byteLength":384,
			"byteOffset":8432,
			"target":34963
		},
		{
			"buffer":0,
			"byteLength":624,
			"byteOffset":8816,
			"target":34962
		},
		{
			"buffer":0,
			"byteLength":624,
			"byteOffset":9440,
			"target":34962
		},
		{
			"buffer":0,
			"byteLength":416,
			"byteOffset":10064,
			"target":34962
		},
		{
			"buffer":0,
			"byteLength":288,
			"byteOffset":10480,
			"target":34962
		},
		{
			"buffer":0,
			"byteLength":288,
			"byteOffset":10768,
			"target":34962
		},
		{
			"buffer":0,
			"byteLength":192,
			"byteOffset":11056,
			"target":34962
		},
		{
			"buffer":0,
			"byteLength":288,
			"byteOffset":11248,
			"target":34962
		},
		{
			"buffer":0,
			"byteLength":288,
			"byteOffset":11536,
			"target":34962
		},
		{
			"buffer":0,
			"byteLength":192,
			"byteOffset":11824,
			"target":34962
		},
		{
			"buffer":0,
			"byteLength":1152,
			"byteOffset":12016,
			"target":34962
		},
		{
			"buffer":0,
			"byteLength":1152,
			"byteOffset":13168,
			"target":34962
		},
		{
			"buffer":0,
			"byteLength":768,
			"byteOffset":14320,
			"target":34962
		}
	],
	"buffers":[
		{
			"byteLength":15088,
			"uri":"hd_statue.bin"
		}
	]
}
