{
	"asset":{
		"generator":"Khronos glTF Blender I/O v5.2.40",
		"version":"2.0"
	},
	"scene":0,
	"scenes":[
		{
			"name":"Scene",
			"nodes":[
				0,
				1,
				2,
				3,
				4,
				5,
				6,
				7,
				8,
				9,
				10,
				11,
				12,
				13,
				14,
				15,
				16,
				17,
				18
			]
		}
	],
	"nodes":[
		{
			"mesh":0,
			"name":"br0"
		},
		{
			"mesh":1,
			"name":"br1"
		},
		{
			"mesh":2,
			"name":"can0"
		},
		{
			"mesh":3,
			"name":"can1"
		},
		{
			"mesh":4,
			"name":"can2"
		},
		{
			"mesh":5,
			"name":"can3"
		},
		{
			"mesh":6,
			"name":"can4"
		},
		{
			"mesh":7,
			"name":"can5"
		},
		{
			"mesh":8,
			"name":"canopyDark"
		},
		{
			"mesh":9,
			"name":"crown"
		},
		{
			"mesh":10,
			"name":"ring0"
		},
		{
			"mesh":11,
			"name":"ring1"
		},
		{
			"mesh":12,
			"name":"ring2"
		},
		{
			"mesh":13,
			"name":"root0"
		},
		{
			"mesh":14,
			"name":"root1"
		},
		{
			"mesh":15,
			"name":"root2"
		},
		{
			"mesh":16,
			"name":"root3"
		},
		{
			"mesh":17,
			"name":"root4"
		},
		{
			"mesh":18,
			"name":"trunk"
		}
	],
	"materials":[
		{
			"doubleSided":true,
			"name":"M_br0",
			"pbrMetallicRoughness":{
				"baseColorFactor":[
					0.2590273320674896,
					0.10114516317844391,
					0.02775527909398079,
					1
				],
				"metallicFactor":0,
				"roughnessFactor":0.8500000238418579
			}
		},
		{
			"doubleSided":true,
			"name":"M_br1",
			"pbrMetallicRoughness":{
				"baseColorFactor":[
					0.2590273320674896,
					0.10114516317844391,
					0.02775527909398079,
					1
				],
				"metallicFactor":0,
				"roughnessFactor":0.8500000238418579
			}
		},
		{
			"doubleSided":true,
			"name":"M_canM0",
			"pbrMetallicRoughness":{
				"baseColorFactor":[
					0.1939721703529358,
					0.6592239737510681,
					0.0915183499455452,
					1
				],
				"metallicFactor":0,
				"roughnessFactor":0.8500000238418579
			}
		},
		{
			"doubleSided":true,
			"name":"M_canM1",
			"pbrMetallicRoughness":{
				"baseColorFactor":[
					0.09387587010860443,
					0.48776519298553467,
					0.05637409910559654,
					1
				],
				"metallicFactor":0,
				"roughnessFactor":0.8500000238418579
			}
		},
		{
			"doubleSided":true,
			"name":"M_canM2",
			"pbrMetallicRoughness":{
				"baseColorFactor":[
					0.09387587010860443,
					0.48776519298553467,
					0.05637409910559654,
					1
				],
				"metallicFactor":0,
				"roughnessFactor":0.8500000238418579
			}
		},
		{
			"doubleSided":true,
			"name":"M_canM3",
			"pbrMetallicRoughness":{
				"baseColorFactor":[
					0.1939721703529358,
					0.6592239737510681,
					0.0915183499455452,
					1
				],
				"metallicFactor":0,
				"roughnessFactor":0.8500000238418579
			}
		},
		{
			"doubleSided":true,
			"name":"M_canM4",
			"pbrMetallicRoughness":{
				"baseColorFactor":[
					0.09387587010860443,
					0.48776519298553467,
					0.05637409910559654,
					1
				],
				"metallicFactor":0,
				"roughnessFactor":0.8500000238418579
			}
		},
		{
			"doubleSided":true,
			"name":"M_canM5",
			"pbrMetallicRoughness":{
				"baseColorFactor":[
					0.09387587010860443,
					0.48776519298553467,
					0.05637409910559654,
					1
				],
				"metallicFactor":0,
				"roughnessFactor":0.8500000238418579
			}
		},
		{
			"doubleSided":true,
			"name":"M_canD",
			"pbrMetallicRoughness":{
				"baseColorFactor":[
					0.023103555664420128,
					0.14799802005290985,
					0.030256519094109535,
					1
				],
				"metallicFactor":0,
				"roughnessFactor":0.8500000238418579
			}
		},
		{
			"doubleSided":true,
			"name":"M_crown",
			"pbrMetallicRoughness":{
				"baseColorFactor":[
					0.3537409007549286,
					0.7518950700759888,
					0.14497213065624237,
					1
				],
				"metallicFactor":0,
				"roughnessFactor":0.8500000238418579
			}
		},
		{
			"doubleSided":true,
			"name":"M_ring0",
			"pbrMetallicRoughness":{
				"baseColorFactor":[
					0.11129941791296005,
					0.041451890021562576,
					0.011881334707140923,
					1
				],
				"metallicFactor":0,
				"roughnessFactor":0.8500000238418579
			}
		},
		{
			"doubleSided":true,
			"name":"M_ring1",
			"pbrMetallicRoughness":{
				"baseColorFactor":[
					0.11129941791296005,
					0.041451890021562576,
					0.011881334707140923,
					1
				],
				"metallicFactor":0,
				"roughnessFactor":0.8500000238418579
			}
		},
		{
			"doubleSided":true,
			"name":"M_ring2",
			"pbrMetallicRoughness":{
				"baseColorFactor":[
					0.11129941791296005,
					0.041451890021562576,
					0.011881334707140923,
					1
				],
				"metallicFactor":0,
				"roughnessFactor":0.8500000238418579
			}
		},
		{
			"doubleSided":true,
			"name":"M_rt0",
			"pbrMetallicRoughness":{
				"baseColorFactor":[
					0.11129941791296005,
					0.041451890021562576,
					0.011881334707140923,
					1
				],
				"metallicFactor":0,
				"roughnessFactor":0.8500000238418579
			}
		},
		{
			"doubleSided":true,
			"name":"M_rt1",
			"pbrMetallicRoughness":{
				"baseColorFactor":[
					0.11129941791296005,
					0.041451890021562576,
					0.011881334707140923,
					1
				],
				"metallicFactor":0,
				"roughnessFactor":0.8500000238418579
			}
		},
		{
			"doubleSided":true,
			"name":"M_rt2",
			"pbrMetallicRoughness":{
				"baseColorFactor":[
					0.11129941791296005,
					0.041451890021562576,
					0.011881334707140923,
					1
				],
				"metallicFactor":0,
				"roughnessFactor":0.8500000238418579
			}
		},
		{
			"doubleSided":true,
			"name":"M_rt3",
			"pbrMetallicRoughness":{
				"baseColorFactor":[
					0.11129941791296005,
					0.041451890021562576,
					0.011881334707140923,
					1
				],
				"metallicFactor":0,
				"roughnessFactor":0.8500000238418579
			}
		},
		{
			"doubleSided":true,
			"name":"M_rt4",
			"pbrMetallicRoughness":{
				"baseColorFactor":[
					0.11129941791296005,
					0.041451890021562576,
					0.011881334707140923,
					1
				],
				"metallicFactor":0,
				"roughnessFactor":0.8500000238418579
			}
		},
		{
			"doubleSided":true,
			"name":"M_ot",
			"pbrMetallicRoughness":{
				"baseColorFactor":[
					0.2590273320674896,
					0.10114516317844391,
					0.02775527909398079,
					1
				],
				"metallicFactor":0,
				"roughnessFactor":0.8500000238418579
			}
		}
	],
	"meshes":[
		{
			"name":"Cone.006",
			"primitives":[
				{
					"attributes":{
						"POSITION":0,
						"NORMAL":1,
						"TEXCOORD_0":2
					},
					"indices":3,
					"material":0
				}
			]
		},
		{
			"name":"Cone.007",
			"primitives":[
				{
					"attributes":{
						"POSITION":4,
						"NORMAL":5,
						"TEXCOORD_0":6
					},
					"indices":3,
					"material":1
				}
			]
		},
		{
			"name":"Icosphere.001",
			"primitives":[
				{
					"attributes":{
						"POSITION":7,
						"NORMAL":8,
						"TEXCOORD_0":9
					},
					"indices":10,
					"material":2
				}
			]
		},
		{
			"name":"Icosphere.002",
			"primitives":[
				{
					"attributes":{
						"POSITION":11,
						"NORMAL":12,
						"TEXCOORD_0":13
					},
					"indices":10,
					"material":3
				}
			]
		},
		{
			"name":"Icosphere.003",
			"primitives":[
				{
					"attributes":{
						"POSITION":14,
						"NORMAL":15,
						"TEXCOORD_0":16
					},
					"indices":10,
					"material":4
				}
			]
		},
		{
			"name":"Icosphere.004",
			"primitives":[
				{
					"attributes":{
						"POSITION":17,
						"NORMAL":18,
						"TEXCOORD_0":19
					},
					"indices":10,
					"material":5
				}
			]
		},
		{
			"name":"Icosphere.005",
			"primitives":[
				{
					"attributes":{
						"POSITION":20,
						"NORMAL":21,
						"TEXCOORD_0":22
					},
					"indices":10,
					"material":6
				}
			]
		},
		{
			"name":"Icosphere.006",
			"primitives":[
				{
					"attributes":{
						"POSITION":23,
						"NORMAL":24,
						"TEXCOORD_0":25
					},
					"indices":10,
					"material":7
				}
			]
		},
		{
			"name":"Icosphere",
			"primitives":[
				{
					"attributes":{
						"POSITION":26,
						"NORMAL":27,
						"TEXCOORD_0":28
					},
					"indices":10,
					"material":8
				}
			]
		},
		{
			"name":"Icosphere.007",
			"primitives":[
				{
					"attributes":{
						"POSITION":29,
						"NORMAL":30,
						"TEXCOORD_0":31
					},
					"indices":32,
					"material":9
				}
			]
		},
		{
			"name":"Torus",
			"primitives":[
				{
					"attributes":{
						"POSITION":33,
						"NORMAL":34,
						"TEXCOORD_0":35
					},
					"indices":36,
					"material":10
				}
			]
		},
		{
			"name":"Torus.001",
			"primitives":[
				{
					"attributes":{
						"POSITION":37,
						"NORMAL":38,
						"TEXCOORD_0":39
					},
					"indices":36,
					"material":11
				}
			]
		},
		{
			"name":"Torus.002",
			"primitives":[
				{
					"attributes":{
						"POSITION":40,
						"NORMAL":41,
						"TEXCOORD_0":42
					},
					"indices":36,
					"material":12
				}
			]
		},
		{
			"name":"Cone.001",
			"primitives":[
				{
					"attributes":{
						"POSITION":43,
						"NORMAL":44,
						"TEXCOORD_0":45
					},
					"indices":3,
					"material":13
				}
			]
		},
		{
			"name":"Cone.002",
			"primitives":[
				{
					"attributes":{
						"POSITION":46,
						"NORMAL":47,
						"TEXCOORD_0":48
					},
					"indices":3,
					"material":14
				}
			]
		},
		{
			"name":"Cone.003",
			"primitives":[
				{
					"attributes":{
						"POSITION":49,
						"NORMAL":50,
						"TEXCOORD_0":51
					},
					"indices":3,
					"material":15
				}
			]
		},
		{
			"name":"Cone.004",
			"primitives":[
				{
					"attributes":{
						"POSITION":52,
						"NORMAL":53,
						"TEXCOORD_0":54
					},
					"indices":3,
					"material":16
				}
			]
		},
		{
			"name":"Cone.005",
			"primitives":[
				{
					"attributes":{
						"POSITION":55,
						"NORMAL":56,
						"TEXCOORD_0":57
					},
					"indices":3,
					"material":17
				}
			]
		},
		{
			"name":"Cone",
			"primitives":[
				{
					"attributes":{
						"POSITION":58,
						"NORMAL":59,
						"TEXCOORD_0":60
					},
					"indices":61,
					"material":18
				}
			]
		}
	],
	"accessors":[
		{
			"bufferView":0,
			"componentType":5126,
			"count":26,
			"max":[
				0.6333425045013428,
				3.481736183166504,
				-0.002458900213241577
			],
			"min":[
				0.05170726776123047,
				2.6665494441986084,
				-0.8339111804962158
			],
			"type":"VEC3"
		},
		{
			"bufferView":1,
			"componentType":5126,
			"count":26,
			"type":"VEC3"
		},
		{
			"bufferView":2,
			"componentType":5126,
			"count":26,
			"type":"VEC2"
		},
		{
			"bufferView":3,
			"componentType":5123,
			"count":60,
			"type":"SCALAR"
		},
		{
			"bufferView":4,
			"componentType":5126,
			"count":26,
			"max":[
				-0.05089902877807617,
				3.478177547454834,
				0.5375072956085205
			],
			"min":[
				-0.8974336981773376,
				2.6683578491210938,
				-0.030556827783584595
			],
			"type":"VEC3"
		},
		{
			"bufferView":5,
			"componentType":5126,
			"count":26,
			"type":"VEC3"
		},
		{
			"bufferView":6,
			"componentType":5126,
			"count":26,
			"type":"VEC2"
		},
		{
			"bufferView":7,
			"componentType":5126,
			"count":63,
			"max":[
				-0.23747262358665466,
				4.746856212615967,
				0.45041054487228394
			],
			"min":[
				-1.7434730529785156,
				3.457381010055542,
				-1.09323251247406
			],
			"type":"VEC3"
		},
		{
			"bufferView":8,
			"componentType":5126,
			"count":63,
			"type":"VEC3"
		},
		{
			"bufferView":9,
			"componentType":5126,
			"count":63,
			"type":"VEC2"
		},
		{
			"bufferView":10,
			"componentType":5123,
			"count":240,
			"type":"SCALAR"
		},
		{
			"bufferView":11,
			"componentType":5126,
			"count":63,
			"max":[
				1.6954095363616943,
				4.765552520751953,
				1.0463451147079468
			],
			"min":[
				0.1985107809305191,
				3.505441188812256,
				-0.4861586391925812
			],
			"type":"VEC3"
		},
		{
			"bufferView":12,
			"componentType":5126,
			"count":63,
			"type":"VEC3"
		},
		{
			"bufferView":13,
			"componentType":5126,
			"count":63,
			"type":"VEC2"
		},
		{
			"bufferView":14,
			"componentType":5126,
			"count":63,
			"max":[
				0.7641542553901672,
				4.8623366355896,
				-0.22231730818748474
			],
			"min":[
				-0.6418439149856567,
				3.717808485031128,
				-1.5569143295288086
			],
			"type":"VEC3"
		},
		{
			"bufferView":15,
			"componentType":5126,
			"count":63,
			"type":"VEC3"
		},
		{
			"bufferView":16,
			"componentType":5126,
			"count":63,
			"type":"VEC2"
		},
		{
			"bufferView":17,
			"componentType":5126,
			"count":63,
			"max":[
				0.5460900664329529,
				4.861753463745117,
				1.6435105800628662
			],
			"min":[
				-0.8482998013496399,
				3.714604377746582,
				0.3024860620498657
			],
			"type":"VEC3"
		},
		{
			"bufferView":18,
			"componentType":5126,
			"count":63,
			"type":"VEC3"
		},
		{
			"bufferView":19,
			"componentType":5126,
			"count":63,
			"type":"VEC2"
		},
		{
			"bufferView":20,
			"componentType":5126,
			"count":63,
			"max":[
				1.3497745990753174,
				5.076662063598633,
				-0.06832124292850494
			],
			"min":[
				0.18366268277168274,
				4.007439136505127,
				-1.3063788414001465
			],
			"type":"VEC3"
		},
		{
			"bufferView":21,
			"componentType":5126,
			"count":63,
			"type":"VEC3"
		},
		{
			"bufferView":22,
			"componentType":5126,
			"count":63,
			"type":"VEC2"
		},
		{
			"bufferView":23,
			"componentType":5126,
			"count":63,
			"max":[
				-0.2564767897129059,
				4.991576671600342,
				1.152241826057434
			],
			"min":[
				-1.4272592067718506,
				3.9453749656677246,
				0.03416723757982254
			],
			"type":"VEC3"
		},
		{
			"bufferView":24,
			"componentType":5126,
			"count":63,
			"type":"VEC3"
		},
		{
			"bufferView":25,
			"componentType":5126,
			"count":63,
			"type":"VEC2"
		},
		{
			"bufferView":26,
			"componentType":5126,
			"count":63,
			"max":[
				1.3677250146865845,
				4.225816249847412,
				1.4488104581832886
			],
			"min":[
				-1.4286706447601318,
				2.7304210662841797,
				-1.4516323804855347
			],
			"type":"VEC3"
		},
		{
			"bufferView":27,
			"componentType":5126,
			"count":63,
			"type":"VEC3"
		},
		{
			"bufferView":28,
			"componentType":5126,
			"count":63,
			"type":"VEC2"
		},
		{
			"bufferView":29,
			"componentType":5126,
			"count":22,
			"max":[
				0.7691740989685059,
				5.960361480712891,
				0.6844968795776367
			],
			"min":[
				-0.6184505224227905,
				4.786101818084717,
				-0.6928282380104065
			],
			"type":"VEC3"
		},
		{
			"bufferView":30,
			"componentType":5126,
			"count":22,
			"type":"VEC3"
		},
		{
			"bufferView":31,
			"componentType":5126,
			"count":22,
			"type":"VEC2"
		},
		{
			"bufferView":32,
			"componentType":5123,
			"count":60,
			"type":"SCALAR"
		},
		{
			"bufferView":33,
			"componentType":5126,
			"count":160,
			"max":[
				0.3248000144958496,
				0.7156800031661987,
				0.30890315771102905
			],
			"min":[
				-0.3248000144958496,
				0.6843199729919434,
				-0.30890315771102905
			],
			"type":"VEC3"
		},
		{
			"bufferView":34,
			"componentType":5126,
			"count":160,
			"type":"VEC3"
		},
		{
			"bufferView":35,
			"componentType":5126,
			"count":160,
			"type":"VEC2"
		},
		{
			"bufferView":36,
			"componentType":5123,
			"count":240,
			"type":"SCALAR"
		},
		{
			"bufferView":37,
			"componentType":5126,
			"count":160,
			"max":[
				0.3248000144958496,
				1.315679907798767,
				0.30890315771102905
			],
			"min":[
				-0.3248000144958496,
				1.2843199968338013,
				-0.30890315771102905
			],
			"type":"VEC3"
		},
		{
			"bufferView":38,
			"componentType":5126,
			"count":160,
			"type":"VEC3"
		},
		{
			"bufferView":39,
			"componentType":5126,
			"count":160,
			"type":"VEC2"
		},
		{
			"bufferView":40,
			"componentType":5126,
			"count":160,
			"max":[
				0.3248000144958496,
				1.915679931640625,
				0.30890315771102905
			],
			"min":[
				-0.3248000144958496,
				1.8843200206756592,
				-0.30890315771102905
			],
			"type":"VEC3"
		},
		{
			"bufferView":41,
			"componentType":5126,
			"count":160,
			"type":"VEC3"
		},
		{
			"bufferView":42,
			"componentType":5126,
			"count":160,
			"type":"VEC2"
		},
		{
			"bufferView":43,
			"componentType":5126,
			"count":26,
			"max":[
				0.6324588060379028,
				0.32047638297080994,
				0.07014904916286469
			],
			"min":[
				-0.021838098764419556,
				-0.0884941816329956,
				-0.392694354057312
			],
			"type":"VEC3"
		},
		{
			"bufferView":44,
			"componentType":5126,
			"count":26,
			"type":"VEC3"
		},
		{
			"bufferView":45,
			"componentType":5126,
			"count":26,
			"type":"VEC2"
		},
		{
			"bufferView":46,
			"componentType":5126,
			"count":26,
			"max":[
				0.07995086908340454,
				0.30851125717163086,
				0.03984251618385315
			],
			"min":[
				-0.1567329317331314,
				-0.08181153237819672,
				-0.672257661819458
			],
			"type":"VEC3"
		},
		{
			"bufferView":47,
			"componentType":5126,
			"count":26,
			"type":"VEC3"
		},
		{
			"bufferView":48,
			"componentType":5126,
			"count":26,
			"type":"VEC2"
		},
		{
			"bufferView":49,
			"componentType":5126,
			"count":26,
			"max":[
				0.033830881118774414,
				0.3107733428478241,
				0.05651380866765976
			],
			"min":[
				-0.6631176471710205,
				-0.07624638080596924,
				-0.2885187864303589
			],
			"type":"VEC3"
		},
		{
			"bufferView":50,
			"componentType":5126,
			"count":26,
			"type":"VEC3"
		},
		{
			"bufferView":51,
			"componentType":5126,
			"count":26,
			"type":"VEC2"
		},
		{
			"bufferView":52,
			"componentType":5126,
			"count":26,
			"max":[
				-0.022880151867866516,
				0.3273494839668274,
				0.6249842047691345
			],
			"min":[
				-0.3823390007019043,
				-0.09337443113327026,
				-0.06104972958564758
			],
			"type":"VEC3"
		},
		{
			"bufferView":53,
			"componentType":5126,
			"count":26,
			"type":"VEC3"
		},
		{
			"bufferView":54,
			"componentType":5126,
			"count":26,
			"type":"VEC2"
		},
		{
			"bufferView":55,
			"componentType":5126,
			"count":26,
			"max":[
				0.4636087715625763,
				0.33404937386512756,
				0.5842554569244385
			],
			"min":[
				0.018315643072128296,
				-0.10396328568458557,
				-0.07054133713245392
			],
			"type":"VEC3"
		},
		{
			"bufferView":56,
			"componentType":5126,
			"count":26,
			"type":"VEC3"
		},
		{
			"bufferView":57,
			"componentType":5126,
			"count":26,
			"type":"VEC2"
		},
		{
			"bufferView":58,
			"componentType":5126,
			"count":42,
			"max":[
				0.3233592212200165,
				3,
				0.3400000035762787
			],
			"min":[
				-0.3233592212200165,
				0,
				-0.3400000035762787
			],
			"type":"VEC3"
		},
		{
			"bufferView":59,
			"componentType":5126,
			"count":42,
			"type":"VEC3"
		},
		{
			"bufferView":60,
			"componentType":5126,
			"count":42,
			"type":"VEC2"
		},
		{
			"bufferView":61,
			"componentType":5123,
			"count":108,
			"type":"SCALAR"
		}
	],
	"bufferViews":[
		{
			"buffer":0,
			"byteLength":312,
			"byteOffset":0,
			"target":34962
		},
		{
			"buffer":0,
			"byteLength":312,
			"byteOffset":312,
			"target":34962
		},
		{
			"buffer":0,
			"byteLength":208,
			"byteOffset":624,
			"target":34962
		},
		{
			"buffer":0,
			"byteLength":120,
			"byteOffset":832,
			"target":34963
		},
		{
			"buffer":0,
			"byteLength":312,
			"byteOffset":952,
			"target":34962
		},
		{
			"buffer":0,
			"byteLength":312,
			"byteOffset":1264,
			"target":34962
		},
		{
			"buffer":0,
			"byteLength":208,
			"byteOffset":1576,
			"target":34962
		},
		{
			"buffer":0,
			"byteLength":756,
			"byteOffset":1784,
			"target":34962
		},
		{
			"buffer":0,
			"byteLength":756,
			"byteOffset":2540,
			"target":34962
		},
		{
			"buffer":0,
			"byteLength":504,
			"byteOffset":3296,
			"target":34962
		},
		{
			"buffer":0,
			"byteLength":480,
			"byteOffset":3800,
			"target":34963
		},
		{
			"buffer":0,
			"byteLength":756,
			"byteOffset":4280,
			"target":34962
		},
		{
			"buffer":0,
			"byteLength":756,
			"byteOffset":5036,
			"target":34962
		},
		{
			"buffer":0,
			"byteLength":504,
			"byteOffset":5792,
			"target":34962
		},
		{
			"buffer":0,
			"byteLength":756,
			"byteOffset":6296,
			"target":34962
		},
		{
			"buffer":0,
			"byteLength":756,
			"byteOffset":7052,
			"target":34962
		},
		{
			"buffer":0,
			"byteLength":504,
			"byteOffset":7808,
			"target":34962
		},
		{
			"buffer":0,
			"byteLength":756,
			"byteOffset":8312,
			"target":34962
		},
		{
			"buffer":0,
			"byteLength":756,
			"byteOffset":9068,
			"target":34962
		},
		{
			"buffer":0,
			"byteLength":504,
			"byteOffset":9824,
			"target":34962
		},
		{
			"buffer":0,
			"byteLength":756,
			"byteOffset":10328,
			"target":34962
		},
		{
			"buffer":0,
			"byteLength":756,
			"byteOffset":11084,
			"target":34962
		},
		{
			"buffer":0,
			"byteLength":504,
			"byteOffset":11840,
			"target":34962
		},
		{
			"buffer":0,
			"byteLength":756,
			"byteOffset":12344,
			"target":34962
		},
		{
			"buffer":0,
			"byteLength":756,
			"byteOffset":13100,
			"target":34962
		},
		{
			"buffer":0,
			"byteLength":504,
			"byteOffset":13856,
			"target":34962
		},
		{
			"buffer":0,
			"byteLength":756,
			"byteOffset":14360,
			"target":34962
		},
		{
			"buffer":0,
			"byteLength":756,
			"byteOffset":15116,
			"target":34962
		},
		{
			"buffer":0,
			"byteLength":504,
			"byteOffset":15872,
			"target":34962
		},
		{
			"buffer":0,
			"byteLength":264,
			"byteOffset":16376,
			"target":34962
		},
		{
			"buffer":0,
			"byteLength":264,
			"byteOffset":16640,
			"target":34962
		},
		{
			"buffer":0,
			"byteLength":176,
			"byteOffset":16904,
			"target":34962
		},
		{
			"buffer":0,
			"byteLength":120,
			"byteOffset":17080,
			"target":34963
		},
		{
			"buffer":0,
			"byteLength":1920,
			"byteOffset":17200,
			"target":34962
		},
		{
			"buffer":0,
			"byteLength":1920,
			"byteOffset":19120,
			"target":34962
		},
		{
			"buffer":0,
			"byteLength":1280,
			"byteOffset":21040,
			"target":34962
		},
		{
			"buffer":0,
			"byteLength":480,
			"byteOffset":22320,
			"target":34963
		},
		{
			"buffer":0,
			"byteLength":1920,
			"byteOffset":22800,
			"target":34962
		},
		{
			"buffer":0,
			"byteLength":1920,
			"byteOffset":24720,
			"target":34962
		},
		{
			"buffer":0,
			"byteLength":1280,
			"byteOffset":26640,
			"target":34962
		},
		{
			"buffer":0,
			"byteLength":1920,
			"byteOffset":27920,
			"target":34962
		},
		{
			"buffer":0,
			"byteLength":1920,
			"byteOffset":29840,
			"target":34962
		},
		{
			"buffer":0,
			"byteLength":1280,
			"byteOffset":31760,
			"target":34962
		},
		{
			"buffer":0,
			"byteLength":312,
			"byteOffset":33040,
			"target":34962
		},
		{
			"buffer":0,
			"byteLength":312,
			"byteOffset":33352,
			"target":34962
		},
		{
			"buffer":0,
			"byteLength":208,
			"byteOffset":33664,
			"target":34962
		},
		{
			"buffer":0,
			"byteLength":312,
			"byteOffset":33872,
			"target":34962
		},
		{
			"buffer":0,
			"byteLength":312,
			"byteOffset":34184,
			"target":34962
		},
		{
			"buffer":0,
			"byteLength":208,
			"byteOffset":34496,
			"target":34962
		},
		{
			"buffer":0,
			"byteLength":312,
			"byteOffset":34704,
			"target":34962
		},
		{
			"buffer":0,
			"byteLength":312,
			"byteOffset":35016,
			"target":34962
		},
		{
			"buffer":0,
			"byteLength":208,
			"byteOffset":35328,
			"target":34962
		},
		{
			"buffer":0,
			"byteLength":312,
			"byteOffset":35536,
			"target":34962
		},
		{
			"buffer":0,
			"byteLength":312,
			"byteOffset":35848,
			"target":34962
		},
		{
			"buffer":0,
			"byteLength":208,
			"byteOffset":36160,
			"target":34962
		},
		{
			"buffer":0,
			"byteLength":312,
			"byteOffset":36368,
			"target":34962
		},
		{
			"buffer":0,
			"byteLength":312,
			"byteOffset":36680,
			"target":34962
		},
		{
			"buffer":0,
			"byteLength":208,
			"byteOffset":36992,
			"target":34962
		},
		{
			"buffer":0,
			"byteLength":504,
			"byteOffset":37200,
			"target":34962
		},
		{
			"buffer":0,
			"byteLength":504,
			"byteOffset":37704,
			"target":34962
		},
		{
			"buffer":0,
			"byteLength":336,
			"byteOffset":38208,
			"target":34962
		},
		{
			"buffer":0,
			"byteLength":216,
			"byteOffset":38544,
			"target":34963
		}
	],
	"buffers":[
		{
			"byteLength":38760,
			"uri":"hd_oak.bin"
		}
	]
}
