{
	"asset":{
		"generator":"Khronos glTF Blender I/O v5.2.40",
		"version":"2.0"
	},
	"scene":0,
	"scenes":[
		{
			"name":"Scene",
			"nodes":[
				0,
				1,
				2,
				3,
				4,
				5,
				6
			]
		}
	],
	"nodes":[
		{
			"mesh":0,
			"name":"cut1.31"
		},
		{
			"mesh":1,
			"name":"cut-1.31"
		},
		{
			"mesh":2,
			"name":"log"
		},
		{
			"mesh":3,
			"name":"moss"
		},
		{
			"mesh":4,
			"name":"ring1.31"
		},
		{
			"mesh":5,
			"name":"ring-1.31"
		},
		{
			"mesh":6,
			"name":"stub"
		}
	],
	"materials":[
		{
			"doubleSided":true,
			"name":"M_cut1.31",
			"pbrMetallicRoughness":{
				"baseColorFactor":[
					0.8122414946556091,
					0.535641610622406,
					0.2508402466773987,
					1
				],
				"metallicFactor":0,
				"roughnessFactor":0.8500000238418579
			}
		},
		{
			"doubleSided":true,
			"name":"M_cut-1.31",
			"pbrMetallicRoughness":{
				"baseColorFactor":[
					0.8122414946556091,
					0.535641610622406,
					0.2508402466773987,
					1
				],
				"metallicFactor":0,
				"roughnessFactor":0.8500000238418579
			}
		},
		{
			"doubleSided":true,
			"name":"M_lg",
			"pbrMetallicRoughness":{
				"baseColorFactor":[
					0.2590273320674896,
					0.10114516317844391,
					0.02775527909398079,
					1
				],
				"metallicFactor":0,
				"roughnessFactor":0.8500000238418579
			}
		},
		{
			"doubleSided":true,
			"name":"M_lms",
			"pbrMetallicRoughness":{
				"baseColorFactor":[
					0.20109573006629944,
					0.3586539030075073,
					0.10363409668207169,
					1
				],
				"metallicFactor":0,
				"roughnessFactor":0.8500000238418579
			}
		},
		{
			"doubleSided":true,
			"name":"M_cr1.31",
			"pbrMetallicRoughness":{
				"baseColorFactor":[
					0.11129941791296005,
					0.041451890021562576,
					0.011881334707140923,
					1
				],
				"metallicFactor":0,
				"roughnessFactor":0.8500000238418579
			}
		},
		{
			"doubleSided":true,
			"name":"M_cr-1.31",
			"pbrMetallicRoughness":{
				"baseColorFactor":[
					0.11129941791296005,
					0.041451890021562576,
					0.011881334707140923,
					1
				],
				"metallicFactor":0,
				"roughnessFactor":0.8500000238418579
			}
		},
		{
			"doubleSided":true,
			"name":"M_lst",
			"pbrMetallicRoughness":{
				"baseColorFactor":[
					0.11129941791296005,
					0.041451890021562576,
					0.011881334707140923,
					1
				],
				"metallicFactor":0,
				"roughnessFactor":0.8500000238418579
			}
		}
	],
	"meshes":[
		{
			"name":"Cylinder.002",
			"primitives":[
				{
					"attributes":{
						"POSITION":0,
						"NORMAL":1,
						"TEXCOORD_0":2
					},
					"indices":3,
					"material":0
				}
			]
		},
		{
			"name":"Cylinder.001",
			"primitives":[
				{
					"attributes":{
						"POSITION":4,
						"NORMAL":5,
						"TEXCOORD_0":6
					},
					"indices":3,
					"material":1
				}
			]
		},
		{
			"name":"Cylinder",
			"primitives":[
				{
					"attributes":{
						"POSITION":7,
						"NORMAL":8,
						"TEXCOORD_0":9
					},
					"indices":10,
					"material":2
				}
			]
		},
		{
			"name":"Icosphere",
			"primitives":[
				{
					"attributes":{
						"POSITION":11,
						"NORMAL":12,
						"TEXCOORD_0":13
					},
					"indices":14,
					"material":3
				}
			]
		},
		{
			"name":"Torus.001",
			"primitives":[
				{
					"attributes":{
						"POSITION":15,
						"NORMAL":16,
						"TEXCOORD_0":17
					},
					"indices":18,
					"material":4
				}
			]
		},
		{
			"name":"Torus",
			"primitives":[
				{
					"attributes":{
						"POSITION":19,
						"NORMAL":20,
						"TEXCOORD_0":21
					},
					"indices":22,
					"material":5
				}
			]
		},
		{
			"name":"Cone",
			"primitives":[
				{
					"attributes":{
						"POSITION":23,
						"NORMAL":24,
						"TEXCOORD_0":25
					},
					"indices":26,
					"material":6
				}
			]
		}
	],
	"accessors":[
		{
			"bufferView":0,
			"componentType":5126,
			"count":60,
			"max":[
				1.3299999237060547,
				0.6253169775009155,
				0.30000001192092896
			],
			"min":[
				1.2899999618530273,
				0.054683029651641846,
				-0.30000001192092896
			],
			"type":"VEC3"
		},
		{
			"bufferView":1,
			"componentType":5126,
			"count":60,
			"type":"VEC3"
		},
		{
			"bufferView":2,
			"componentType":5126,
			"count":60,
			"type":"VEC2"
		},
		{
			"bufferView":3,
			"componentType":5123,
			"count":108,
			"type":"SCALAR"
		},
		{
			"bufferView":4,
			"componentType":5126,
			"count":60,
			"max":[
				-1.2899999618530273,
				0.6253169775009155,
				0.30000001192092896
			],
			"min":[
				-1.3299999237060547,
				0.054683029651641846,
				-0.30000001192092896
			],
			"type":"VEC3"
		},
		{
			"bufferView":5,
			"componentType":5126,
			"count":60,
			"type":"VEC3"
		},
		{
			"bufferView":6,
			"componentType":5126,
			"count":60,
			"type":"VEC2"
		},
		{
			"bufferView":7,
			"componentType":5126,
			"count":42,
			"max":[
				1.2999999523162842,
				0.6633592844009399,
				0.3400000035762787
			],
			"min":[
				-1.2999999523162842,
				0.01664072275161743,
				-0.3400000035762787
			],
			"type":"VEC3"
		},
		{
			"bufferView":8,
			"componentType":5126,
			"count":42,
			"type":"VEC3"
		},
		{
			"bufferView":9,
			"componentType":5126,
			"count":42,
			"type":"VEC2"
		},
		{
			"bufferView":10,
			"componentType":5123,
			"count":108,
			"type":"SCALAR"
		},
		{
			"bufferView":11,
			"componentType":5126,
			"count":63,
			"max":[
				1.0858043432235718,
				0.7304602265357971,
				0.3023214340209961
			],
			"min":[
				-0.8834982514381409,
				0.4256380796432495,
				-0.3090214431285858
			],
			"type":"VEC3"
		},
		{
			"bufferView":12,
			"componentType":5126,
			"count":63,
			"type":"VEC3"
		},
		{
			"bufferView":13,
			"componentType":5126,
			"count":63,
			"type":"VEC2"
		},
		{
			"bufferView":14,
			"componentType":5123,
			"count":240,
			"type":"SCALAR"
		},
		{
			"bufferView":15,
			"componentType":5126,
			"count":160,
			"max":[
				1.334999918937683,
				0.5350000262260437,
				0.1854560226202011
			],
			"min":[
				1.284999966621399,
				0.14499999582767487,
				-0.1854560226202011
			],
			"type":"VEC3"
		},
		{
			"bufferView":16,
			"componentType":5126,
			"count":160,
			"type":"VEC3"
		},
		{
			"bufferView":17,
			"componentType":5126,
			"count":160,
			"type":"VEC2"
		},
		{
			"bufferView":18,
			"componentType":5123,
			"count":240,
			"type":"SCALAR"
		},
		{
			"bufferView":19,
			"componentType":5126,
			"count":160,
			"max":[
				-1.284999966621399,
				0.5350000262260437,
				0.1854560226202011
			],
			"min":[
				-1.334999918937683,
				0.14499999582767487,
				-0.1854560226202011
			],
			"type":"VEC3"
		},
		{
			"bufferView":20,
			"componentType":5126,
			"count":160,
			"type":"VEC3"
		},
		{
			"bufferView":21,
			"componentType":5126,
			"count":160,
			"type":"VEC2"
		},
		{
			"bufferView":22,
			"componentType":5123,
			"count":240,
			"type":"SCALAR"
		},
		{
			"bufferView":23,
			"componentType":5126,
			"count":36,
			"max":[
				0.6779423356056213,
				0.7960177659988403,
				0.2993620038032532
			],
			"min":[
				0.5220577120780945,
				0.390359103679657,
				-0.1543668657541275
			],
			"type":"VEC3"
		},
		{
			"bufferView":24,
			"componentType":5126,
			"count":36,
			"type":"VEC3"
		},
		{
			"bufferView":25,
			"componentType":5126,
			"count":36,
			"type":"VEC2"
		},
		{
			"bufferView":26,
			"componentType":5123,
			"count":60,
			"type":"SCALAR"
		}
	],
	"bufferViews":[
		{
			"buffer":0,
			"byteLength":720,
			"byteOffset":0,
			"target":34962
		},
		{
			"buffer":0,
			"byteLength":720,
			"byteOffset":720,
			"target":34962
		},
		{
			"buffer":0,
			"byteLength":480,
			"byteOffset":1440,
			"target":34962
		},
		{
			"buffer":0,
			"byteLength":216,
			"byteOffset":1920,
			"target":34963
		},
		{
			"buffer":0,
			"byteLength":720,
			"byteOffset":2136,
			"target":34962
		},
		{
			"buffer":0,
			"byteLength":720,
			"byteOffset":2856,
			"target":34962
		},
		{
			"buffer":0,
			"byteLength":480,
			"byteOffset":3576,
			"target":34962
		},
		{
			"buffer":0,
			"byteLength":504,
			"byteOffset":4056,
			"target":34962
		},
		{
			"buffer":0,
			"byteLength":504,
			"byteOffset":4560,
			"target":34962
		},
		{
			"buffer":0,
			"byteLength":336,
			"byteOffset":5064,
			"target":34962
		},
		{
			"buffer":0,
			"byteLength":216,
			"byteOffset":5400,
			"target":34963
		},
		{
			"buffer":0,
			"byteLength":756,
			"byteOffset":5616,
			"target":34962
		},
		{
			"buffer":0,
			"byteLength":756,
			"byteOffset":6372,
			"target":34962
		},
		{
			"buffer":0,
			"byteLength":504,
			"byteOffset":7128,
			"target":34962
		},
		{
			"buffer":0,
			"byteLength":480,
			"byteOffset":7632,
			"target":34963
		},
		{
			"buffer":0,
			"byteLength":1920,
			"byteOffset":8112,
			"target":34962
		},
		{
			"buffer":0,
			"byteLength":1920,
			"byteOffset":10032,
			"target":34962
		},
		{
			"buffer":0,
			"byteLength":1280,
			"byteOffset":11952,
			"target":34962
		},
		{
			"buffer":0,
			"byteLength":480,
			"byteOffset":13232,
			"target":34963
		},
		{
			"buffer":0,
			"byteLength":1920,
			"byteOffset":13712,
			"target":34962
		},
		{
			"buffer":0,
			"byteLength":1920,
			"byteOffset":15632,
			"target":34962
		},
		{
			"buffer":0,
			"byteLength":1280,
			"byteOffset":17552,
			"target":34962
		},
		{
			"buffer":0,
			"byteLength":480,
			"byteOffset":18832,
			"target":34963
		},
		{
			"buffer":0,
			"byteLength":432,
			"byteOffset":19312,
			"target":34962
		},
		{
			"buffer":0,
			"byteLength":432,
			"byteOffset":19744,
			"target":34962
		},
		{
			"buffer":0,
			"byteLength":288,
			"byteOffset":20176,
			"target":34962
		},
		{
			"buffer":0,
			"byteLength":120,
			"byteOffset":20464,
			"target":34963
		}
	],
	"buffers":[
		{
			"byteLength":20584,
			"uri":"hd_log.bin"
		}
	]
}
