{
	"asset":{
		"generator":"Khronos glTF Blender I/O v5.2.40",
		"version":"2.0"
	},
	"scene":0,
	"scenes":[
		{
			"name":"Scene",
			"nodes":[
				0,
				1,
				2,
				3,
				4,
				5,
				6,
				7
			]
		}
	],
	"nodes":[
		{
			"mesh":0,
			"name":"limb0"
		},
		{
			"mesh":1,
			"name":"limb1"
		},
		{
			"mesh":2,
			"name":"limb2"
		},
		{
			"mesh":3,
			"name":"root0"
		},
		{
			"mesh":4,
			"name":"root1"
		},
		{
			"mesh":5,
			"name":"root2"
		},
		{
			"mesh":6,
			"name":"root3"
		},
		{
			"mesh":7,
			"name":"trunk"
		}
	],
	"materials":[
		{
			"doubleSided":true,
			"name":"M_dl0",
			"pbrMetallicRoughness":{
				"baseColorFactor":[
					0.15728072822093964,
					0.08919350802898407,
					0.0477757528424263,
					1
				],
				"metallicFactor":0,
				"roughnessFactor":0.8500000238418579
			}
		},
		{
			"doubleSided":true,
			"name":"M_dl1",
			"pbrMetallicRoughness":{
				"baseColorFactor":[
					0.15728072822093964,
					0.08919350802898407,
					0.0477757528424263,
					1
				],
				"metallicFactor":0,
				"roughnessFactor":0.8500000238418579
			}
		},
		{
			"doubleSided":true,
			"name":"M_dl2",
			"pbrMetallicRoughness":{
				"baseColorFactor":[
					0.15728072822093964,
					0.08919350802898407,
					0.0477757528424263,
					1
				],
				"metallicFactor":0,
				"roughnessFactor":0.8500000238418579
			}
		},
		{
			"doubleSided":true,
			"name":"M_dr0",
			"pbrMetallicRoughness":{
				"baseColorFactor":[
					0.15728072822093964,
					0.08919350802898407,
					0.0477757528424263,
					1
				],
				"metallicFactor":0,
				"roughnessFactor":0.8500000238418579
			}
		},
		{
			"doubleSided":true,
			"name":"M_dr1",
			"pbrMetallicRoughness":{
				"baseColorFactor":[
					0.15728072822093964,
					0.08919350802898407,
					0.0477757528424263,
					1
				],
				"metallicFactor":0,
				"roughnessFactor":0.8500000238418579
			}
		},
		{
			"doubleSided":true,
			"name":"M_dr2",
			"pbrMetallicRoughness":{
				"baseColorFactor":[
					0.15728072822093964,
					0.08919350802898407,
					0.0477757528424263,
					1
				],
				"metallicFactor":0,
				"roughnessFactor":0.8500000238418579
			}
		},
		{
			"doubleSided":true,
			"name":"M_dr3",
			"pbrMetallicRoughness":{
				"baseColorFactor":[
					0.15728072822093964,
					0.08919350802898407,
					0.0477757528424263,
					1
				],
				"metallicFactor":0,
				"roughnessFactor":0.8500000238418579
			}
		},
		{
			"doubleSided":true,
			"name":"M_dd",
			"pbrMetallicRoughness":{
				"baseColorFactor":[
					0.32972902059555054,
					0.20109573006629944,
					0.0915183499455452,
					1
				],
				"metallicFactor":0,
				"roughnessFactor":0.8500000238418579
			}
		}
	],
	"meshes":[
		{
			"name":"Cone.001",
			"primitives":[
				{
					"attributes":{
						"POSITION":0,
						"NORMAL":1,
						"TEXCOORD_0":2
					},
					"indices":3,
					"material":0
				}
			]
		},
		{
			"name":"Cone.002",
			"primitives":[
				{
					"attributes":{
						"POSITION":4,
						"NORMAL":5,
						"TEXCOORD_0":6
					},
					"indices":3,
					"material":1
				}
			]
		},
		{
			"name":"Cone.003",
			"primitives":[
				{
					"attributes":{
						"POSITION":7,
						"NORMAL":8,
						"TEXCOORD_0":9
					},
					"indices":3,
					"material":2
				}
			]
		},
		{
			"name":"Cone.004",
			"primitives":[
				{
					"attributes":{
						"POSITION":10,
						"NORMAL":11,
						"TEXCOORD_0":12
					},
					"indices":13,
					"material":3
				}
			]
		},
		{
			"name":"Cone.005",
			"primitives":[
				{
					"attributes":{
						"POSITION":14,
						"NORMAL":15,
						"TEXCOORD_0":16
					},
					"indices":17,
					"material":4
				}
			]
		},
		{
			"name":"Cone.006",
			"primitives":[
				{
					"attributes":{
						"POSITION":18,
						"NORMAL":19,
						"TEXCOORD_0":20
					},
					"indices":21,
					"material":5
				}
			]
		},
		{
			"name":"Cone.007",
			"primitives":[
				{
					"attributes":{
						"POSITION":22,
						"NORMAL":23,
						"TEXCOORD_0":24
					},
					"indices":25,
					"material":6
				}
			]
		},
		{
			"name":"Cone",
			"primitives":[
				{
					"attributes":{
						"POSITION":26,
						"NORMAL":27,
						"TEXCOORD_0":28
					},
					"indices":29,
					"material":7
				}
			]
		}
	],
	"accessors":[
		{
			"bufferView":0,
			"componentType":5126,
			"count":26,
			"max":[
				0.5967709422111511,
				2.9416840076446533,
				0.2482163906097412
			],
			"min":[
				-0.06757304072380066,
				2.0021424293518066,
				-0.6221860647201538
			],
			"type":"VEC3"
		},
		{
			"bufferView":1,
			"componentType":5126,
			"count":26,
			"type":"VEC3"
		},
		{
			"bufferView":2,
			"componentType":5126,
			"count":26,
			"type":"VEC2"
		},
		{
			"bufferView":3,
			"componentType":5123,
			"count":60,
			"type":"SCALAR"
		},
		{
			"bufferView":4,
			"componentType":5126,
			"count":26,
			"max":[
				0.23821276426315308,
				3.388793706893921,
				0.2985664904117584
			],
			"min":[
				-0.7278780341148376,
				2.5539703369140625,
				-0.36641594767570496
			],
			"type":"VEC3"
		},
		{
			"bufferView":5,
			"componentType":5126,
			"count":26,
			"type":"VEC3"
		},
		{
			"bufferView":6,
			"componentType":5126,
			"count":26,
			"type":"VEC2"
		},
		{
			"bufferView":7,
			"componentType":5126,
			"count":26,
			"max":[
				-0.015607774257659912,
				2.594970226287842,
				0.7626950740814209
			],
			"min":[
				-0.19154393672943115,
				1.5580706596374512,
				-0.17604908347129822
			],
			"type":"VEC3"
		},
		{
			"bufferView":8,
			"componentType":5126,
			"count":26,
			"type":"VEC3"
		},
		{
			"bufferView":9,
			"componentType":5126,
			"count":26,
			"type":"VEC2"
		},
		{
			"bufferView":10,
			"componentType":5126,
			"count":30,
			"max":[
				0.5343515872955322,
				0.23939594626426697,
				0.035446494817733765
			],
			"min":[
				0.0023129284381866455,
				-0.06422141939401627,
				-0.267532616853714
			],
			"type":"VEC3"
		},
		{
			"bufferView":11,
			"componentType":5126,
			"count":30,
			"type":"VEC3"
		},
		{
			"bufferView":12,
			"componentType":5126,
			"count":30,
			"type":"VEC2"
		},
		{
			"bufferView":13,
			"componentType":5123,
			"count":48,
			"type":"SCALAR"
		},
		{
			"bufferView":14,
			"componentType":5126,
			"count":30,
			"max":[
				-0.01597704365849495,
				0.23825281858444214,
				0.010868608951568604
			],
			"min":[
				-0.19626104831695557,
				-0.07141325622797012,
				-0.5405647158622742
			],
			"type":"VEC3"
		},
		{
			"bufferView":15,
			"componentType":5126,
			"count":30,
			"type":"VEC3"
		},
		{
			"bufferView":16,
			"componentType":5126,
			"count":30,
			"type":"VEC2"
		},
		{
			"bufferView":17,
			"componentType":5123,
			"count":48,
			"type":"SCALAR"
		},
		{
			"bufferView":18,
			"componentType":5126,
			"count":30,
			"max":[
				-0.0019178539514541626,
				0.23768097162246704,
				0.24966561794281006
			],
			"min":[
				-0.5323762893676758,
				-0.0727962777018547,
				-0.03901989012956619
			],
			"type":"VEC3"
		},
		{
			"bufferView":19,
			"componentType":5126,
			"count":30,
			"type":"VEC3"
		},
		{
			"bufferView":20,
			"componentType":5126,
			"count":30,
			"type":"VEC2"
		},
		{
			"bufferView":21,
			"componentType":5123,
			"count":48,
			"type":"SCALAR"
		},
		{
			"bufferView":22,
			"componentType":5126,
			"count":30,
			"max":[
				0.214002788066864,
				0.23911932110786438,
				0.5330636501312256
			],
			"min":[
				0.022426366806030273,
				-0.06708074361085892,
				-0.012368828058242798
			],
			"type":"VEC3"
		},
		{
			"bufferView":23,
			"componentType":5126,
			"count":30,
			"type":"VEC3"
		},
		{
			"bufferView":24,
			"componentType":5126,
			"count":30,
			"type":"VEC2"
		},
		{
			"bufferView":25,
			"componentType":5123,
			"count":48,
			"type":"SCALAR"
		},
		{
			"bufferView":26,
			"componentType":5126,
			"count":34,
			"max":[
				0.30000001192092896,
				3.17029070854187,
				0.30000001192092896
			],
			"min":[
				-0.30000001192092896,
				0,
				-0.30000001192092896
			],
			"type":"VEC3"
		},
		{
			"bufferView":27,
			"componentType":5126,
			"count":34,
			"type":"VEC3"
		},
		{
			"bufferView":28,
			"componentType":5126,
			"count":34,
			"type":"VEC2"
		},
		{
			"bufferView":29,
			"componentType":5123,
			"count":84,
			"type":"SCALAR"
		}
	],
	"bufferViews":[
		{
			"buffer":0,
			"byteLength":312,
			"byteOffset":0,
			"target":34962
		},
		{
			"buffer":0,
			"byteLength":312,
			"byteOffset":312,
			"target":34962
		},
		{
			"buffer":0,
			"byteLength":208,
			"byteOffset":624,
			"target":34962
		},
		{
			"buffer":0,
			"byteLength":120,
			"byteOffset":832,
			"target":34963
		},
		{
			"buffer":0,
			"byteLength":312,
			"byteOffset":952,
			"target":34962
		},
		{
			"buffer":0,
			"byteLength":312,
			"byteOffset":1264,
			"target":34962
		},
		{
			"buffer":0,
			"byteLength":208,
			"byteOffset":1576,
			"target":34962
		},
		{
			"buffer":0,
			"byteLength":312,
			"byteOffset":1784,
			"target":34962
		},
		{
			"buffer":0,
			"byteLength":312,
			"byteOffset":2096,
			"target":34962
		},
		{
			"buffer":0,
			"byteLength":208,
			"byteOffset":2408,
			"target":34962
		},
		{
			"buffer":0,
			"byteLength":360,
			"byteOffset":2616,
			"target":34962
		},
		{
			"buffer":0,
			"byteLength":360,
			"byteOffset":2976,
			"target":34962
		},
		{
			"buffer":0,
			"byteLength":240,
			"byteOffset":3336,
			"target":34962
		},
		{
			"buffer":0,
			"byteLength":96,
			"byteOffset":3576,
			"target":34963
		},
		{
			"buffer":0,
			"byteLength":360,
			"byteOffset":3672,
			"target":34962
		},
		{
			"buffer":0,
			"byteLength":360,
			"byteOffset":4032,
			"target":34962
		},
		{
			"buffer":0,
			"byteLength":240,
			"byteOffset":4392,
			"target":34962
		},
		{
			"buffer":0,
			"byteLength":96,
			"byteOffset":4632,
			"target":34963
		},
		{
			"buffer":0,
			"byteLength":360,
			"byteOffset":4728,
			"target":34962
		},
		{
			"buffer":0,
			"byteLength":360,
			"byteOffset":5088,
			"target":34962
		},
		{
			"buffer":0,
			"byteLength":240,
			"byteOffset":5448,
			"target":34962
		},
		{
			"buffer":0,
			"byteLength":96,
			"byteOffset":5688,
			"target":34963
		},
		{
			"buffer":0,
			"byteLength":360,
			"byteOffset":5784,
			"target":34962
		},
		{
			"buffer":0,
			"byteLength":360,
			"byteOffset":6144,
			"target":34962
		},
		{
			"buffer":0,
			"byteLength":240,
			"byteOffset":6504,
			"target":34962
		},
		{
			"buffer":0,
			"byteLength":96,
			"byteOffset":6744,
			"target":34963
		},
		{
			"buffer":0,
			"byteLength":408,
			"byteOffset":6840,
			"target":34962
		},
		{
			"buffer":0,
			"byteLength":408,
			"byteOffset":7248,
			"target":34962
		},
		{
			"buffer":0,
			"byteLength":272,
			"byteOffset":7656,
			"target":34962
		},
		{
			"buffer":0,
			"byteLength":168,
			"byteOffset":7928,
			"target":34963
		}
	],
	"buffers":[
		{
			"byteLength":8096,
			"uri":"hd_dead.bin"
		}
	]
}
