{
	"asset":{
		"generator":"Khronos glTF Blender I/O v5.2.40",
		"version":"2.0"
	},
	"scene":0,
	"scenes":[
		{
			"name":"Scene",
			"nodes":[
				0,
				1,
				2,
				3,
				4,
				5,
				6,
				7,
				8,
				9,
				10,
				11,
				12,
				13,
				14
			]
		}
	],
	"nodes":[
		{
			"mesh":0,
			"name":"bedge"
		},
		{
			"mesh":1,
			"name":"bedge2"
		},
		{
			"mesh":2,
			"name":"bedge2.001"
		},
		{
			"mesh":3,
			"name":"bedge2.002"
		},
		{
			"mesh":4,
			"name":"bedge2.003"
		},
		{
			"mesh":5,
			"name":"bedge.001"
		},
		{
			"mesh":6,
			"name":"bedge.002"
		},
		{
			"mesh":7,
			"name":"bedge.003"
		},
		{
			"mesh":8,
			"name":"crate"
		},
		{
			"mesh":9,
			"name":"diag"
		},
		{
			"mesh":10,
			"name":"diag.001"
		},
		{
			"mesh":11,
			"name":"edge"
		},
		{
			"mesh":12,
			"name":"edge.001"
		},
		{
			"mesh":13,
			"name":"edge.002"
		},
		{
			"mesh":14,
			"name":"edge.003"
		}
	],
	"materials":[
		{
			"doubleSided":true,
			"name":"M_cre2",
			"pbrMetallicRoughness":{
				"baseColorFactor":[
					0.10114516317844391,
					0.11926401406526566,
					0.0477757528424263,
					1
				],
				"metallicFactor":0,
				"roughnessFactor":0.8500000238418579
			}
		},
		{
			"doubleSided":true,
			"name":"M_cre3",
			"pbrMetallicRoughness":{
				"baseColorFactor":[
					0.10114516317844391,
					0.11926401406526566,
					0.0477757528424263,
					1
				],
				"metallicFactor":0,
				"roughnessFactor":0.8500000238418579
			}
		},
		{
			"doubleSided":true,
			"name":"M_cr",
			"pbrMetallicRoughness":{
				"baseColorFactor":[
					0.19751642644405365,
					0.23099812865257263,
					0.08690125495195389,
					1
				],
				"metallicFactor":0,
				"roughnessFactor":0.8500000238418579
			}
		},
		{
			"doubleSided":true,
			"name":"M_crd",
			"pbrMetallicRoughness":{
				"baseColorFactor":[
					0.10114516317844391,
					0.11926401406526566,
					0.0477757528424263,
					1
				],
				"metallicFactor":0,
				"roughnessFactor":0.8500000238418579
			}
		},
		{
			"doubleSided":true,
			"name":"M_cre",
			"pbrMetallicRoughness":{
				"baseColorFactor":[
					0.10114516317844391,
					0.11926401406526566,
					0.0477757528424263,
					1
				],
				"metallicFactor":0,
				"roughnessFactor":0.8500000238418579
			}
		}
	],
	"meshes":[
		{
			"name":"Cube.005",
			"primitives":[
				{
					"attributes":{
						"POSITION":0,
						"NORMAL":1,
						"TEXCOORD_0":2
					},
					"indices":3,
					"material":0
				}
			]
		},
		{
			"name":"Cube.007",
			"primitives":[
				{
					"attributes":{
						"POSITION":4,
						"NORMAL":5,
						"TEXCOORD_0":6
					},
					"indices":3,
					"material":1
				}
			]
		},
		{
			"name":"Cube.008",
			"primitives":[
				{
					"attributes":{
						"POSITION":7,
						"NORMAL":8,
						"TEXCOORD_0":9
					},
					"indices":3,
					"material":1
				}
			]
		},
		{
			"name":"Cube.011",
			"primitives":[
				{
					"attributes":{
						"POSITION":10,
						"NORMAL":11,
						"TEXCOORD_0":12
					},
					"indices":3,
					"material":1
				}
			]
		},
		{
			"name":"Cube.012",
			"primitives":[
				{
					"attributes":{
						"POSITION":13,
						"NORMAL":14,
						"TEXCOORD_0":15
					},
					"indices":3,
					"material":1
				}
			]
		},
		{
			"name":"Cube.006",
			"primitives":[
				{
					"attributes":{
						"POSITION":16,
						"NORMAL":17,
						"TEXCOORD_0":18
					},
					"indices":3,
					"material":0
				}
			]
		},
		{
			"name":"Cube.009",
			"primitives":[
				{
					"attributes":{
						"POSITION":19,
						"NORMAL":20,
						"TEXCOORD_0":21
					},
					"indices":3,
					"material":0
				}
			]
		},
		{
			"name":"Cube.010",
			"primitives":[
				{
					"attributes":{
						"POSITION":22,
						"NORMAL":23,
						"TEXCOORD_0":24
					},
					"indices":3,
					"material":0
				}
			]
		},
		{
			"name":"Cube",
			"primitives":[
				{
					"attributes":{
						"POSITION":25,
						"NORMAL":26,
						"TEXCOORD_0":27
					},
					"indices":28,
					"material":2
				}
			]
		},
		{
			"name":"Cube.013",
			"primitives":[
				{
					"attributes":{
						"POSITION":29,
						"NORMAL":30,
						"TEXCOORD_0":31
					},
					"indices":32,
					"material":3
				}
			]
		},
		{
			"name":"Cube.014",
			"primitives":[
				{
					"attributes":{
						"POSITION":33,
						"NORMAL":34,
						"TEXCOORD_0":35
					},
					"indices":32,
					"material":3
				}
			]
		},
		{
			"name":"Cube.001",
			"primitives":[
				{
					"attributes":{
						"POSITION":36,
						"NORMAL":37,
						"TEXCOORD_0":38
					},
					"indices":3,
					"material":4
				}
			]
		},
		{
			"name":"Cube.002",
			"primitives":[
				{
					"attributes":{
						"POSITION":39,
						"NORMAL":40,
						"TEXCOORD_0":41
					},
					"indices":3,
					"material":4
				}
			]
		},
		{
			"name":"Cube.003",
			"primitives":[
				{
					"attributes":{
						"POSITION":42,
						"NORMAL":43,
						"TEXCOORD_0":44
					},
					"indices":3,
					"material":4
				}
			]
		},
		{
			"name":"Cube.004",
			"primitives":[
				{
					"attributes":{
						"POSITION":45,
						"NORMAL":46,
						"TEXCOORD_0":47
					},
					"indices":3,
					"material":4
				}
			]
		}
	],
	"accessors":[
		{
			"bufferView":0,
			"componentType":5126,
			"count":24,
			"max":[
				-0.7133433222770691,
				0.03459298610687256,
				0.24987521767616272
			],
			"min":[
				-0.8948819041252136,
				0.0014903731644153595,
				-0.6117293834686279
			],
			"type":"VEC3"
		},
		{
			"bufferView":1,
			"componentType":5126,
			"count":24,
			"type":"VEC3"
		},
		{
			"bufferView":2,
			"componentType":5126,
			"count":24,
			"type":"VEC2"
		},
		{
			"bufferView":3,
			"componentType":5123,
			"count":36,
			"type":"SCALAR"
		},
		{
			"bufferView":4,
			"componentType":5126,
			"count":24,
			"max":[
				0.7934268116950989,
				0.03459298610687256,
				0.2988300323486328
			],
			"min":[
				-0.8041126132011414,
				0.0014903731644153595,
				0.20092040300369263
			],
			"type":"VEC3"
		},
		{
			"bufferView":5,
			"componentType":5126,
			"count":24,
			"type":"VEC3"
		},
		{
			"bufferView":6,
			"componentType":5126,
			"count":24,
			"type":"VEC2"
		},
		{
			"bufferView":7,
			"componentType":5126,
			"count":24,
			"max":[
				0.7934268116950989,
				0.03459298610687256,
				-0.5627745985984802
			],
			"min":[
				-0.8041126132011414,
				0.0014903731644153595,
				-0.6606841683387756
			],
			"type":"VEC3"
		},
		{
			"bufferView":8,
			"componentType":5126,
			"count":24,
			"type":"VEC3"
		},
		{
			"bufferView":9,
			"componentType":5126,
			"count":24,
			"type":"VEC2"
		},
		{
			"bufferView":10,
			"componentType":5126,
			"count":24,
			"max":[
				0.7934268116950989,
				0.29941388964653015,
				0.2988300323486328
			],
			"min":[
				-0.8041126132011414,
				0.26631125807762146,
				0.20092040300369263
			],
			"type":"VEC3"
		},
		{
			"bufferView":11,
			"componentType":5126,
			"count":24,
			"type":"VEC3"
		},
		{
			"bufferView":12,
			"componentType":5126,
			"count":24,
			"type":"VEC2"
		},
		{
			"bufferView":13,
			"componentType":5126,
			"count":24,
			"max":[
				0.7934268116950989,
				0.29941388964653015,
				-0.5627745985984802
			],
			"min":[
				-0.8041126132011414,
				0.26631125807762146,
				-0.6606841683387756
			],
			"type":"VEC3"
		},
		{
			"bufferView":14,
			"componentType":5126,
			"count":24,
			"type":"VEC3"
		},
		{
			"bufferView":15,
			"componentType":5126,
			"count":24,
			"type":"VEC2"
		},
		{
			"bufferView":16,
			"componentType":5126,
			"count":24,
			"max":[
				0.8841961026191711,
				0.03459298610687256,
				0.24987521767616272
			],
			"min":[
				0.7026575207710266,
				0.0014903731644153595,
				-0.6117293834686279
			],
			"type":"VEC3"
		},
		{
			"bufferView":17,
			"componentType":5126,
			"count":24,
			"type":"VEC3"
		},
		{
			"bufferView":18,
			"componentType":5126,
			"count":24,
			"type":"VEC2"
		},
		{
			"bufferView":19,
			"componentType":5126,
			"count":24,
			"max":[
				-0.7133433222770691,
				0.29941388964653015,
				0.24987521767616272
			],
			"min":[
				-0.8948819041252136,
				0.26631125807762146,
				-0.6117293834686279
			],
			"type":"VEC3"
		},
		{
			"bufferView":20,
			"componentType":5126,
			"count":24,
			"type":"VEC3"
		},
		{
			"bufferView":21,
			"componentType":5126,
			"count":24,
			"type":"VEC2"
		},
		{
			"bufferView":22,
			"componentType":5126,
			"count":24,
			"max":[
				0.8841961026191711,
				0.29941388964653015,
				0.24987521767616272
			],
			"min":[
				0.7026575207710266,
				0.26631125807762146,
				-0.6117293834686279
			],
			"type":"VEC3"
		},
		{
			"bufferView":23,
			"componentType":5126,
			"count":24,
			"type":"VEC3"
		},
		{
			"bufferView":24,
			"componentType":5126,
			"count":24,
			"type":"VEC2"
		},
		{
			"bufferView":25,
			"componentType":5126,
			"count":96,
			"max":[
				0.8297345042228699,
				0.2948998808860779,
				0.2694571316242218
			],
			"min":[
				-0.8404203057289124,
				0.0060043781995773315,
				-0.631311297416687
			],
			"type":"VEC3"
		},
		{
			"bufferView":26,
			"componentType":5126,
			"count":96,
			"type":"VEC3"
		},
		{
			"bufferView":27,
			"componentType":5126,
			"count":96,
			"type":"VEC2"
		},
		{
			"bufferView":28,
			"componentType":5123,
			"count":132,
			"type":"SCALAR"
		},
		{
			"bufferView":29,
			"componentType":5126,
			"count":24,
			"max":[
				0.7208113670349121,
				0.18378666043281555,
				0.3067624866962433
			],
			"min":[
				-0.7314971685409546,
				0.11711761355400085,
				0.24194279313087463
			],
			"type":"VEC3"
		},
		{
			"bufferView":30,
			"componentType":5126,
			"count":24,
			"type":"VEC3"
		},
		{
			"bufferView":31,
			"componentType":5126,
			"count":24,
			"type":"VEC2"
		},
		{
			"bufferView":32,
			"componentType":5123,
			"count":36,
			"type":"SCALAR"
		},
		{
			"bufferView":33,
			"componentType":5126,
			"count":24,
			"max":[
				0.7208113670349121,
				0.18378666043281555,
				-0.6037968993186951
			],
			"min":[
				-0.7314971685409546,
				0.11711761355400085,
				-0.6686165928840637
			],
			"type":"VEC3"
		},
		{
			"bufferView":34,
			"componentType":5126,
			"count":24,
			"type":"VEC3"
		},
		{
			"bufferView":35,
			"componentType":5126,
			"count":24,
			"type":"VEC2"
		},
		{
			"bufferView":36,
			"componentType":5126,
			"count":24,
			"max":[
				-0.7133433222770691,
				0.2948998808860779,
				0.2988300323486328
			],
			"min":[
				-0.8948819041252136,
				0.0060043781995773315,
				0.20092040300369263
			],
			"type":"VEC3"
		},
		{
			"bufferView":37,
			"componentType":5126,
			"count":24,
			"type":"VEC3"
		},
		{
			"bufferView":38,
			"componentType":5126,
			"count":24,
			"type":"VEC2"
		},
		{
			"bufferView":39,
			"componentType":5126,
			"count":24,
			"max":[
				-0.7133433222770691,
				0.2948998808860779,
				-0.5627745985984802
			],
			"min":[
				-0.8948819041252136,
				0.0060043781995773315,
				-0.6606841683387756
			],
			"type":"VEC3"
		},
		{
			"bufferView":40,
			"componentType":5126,
			"count":24,
			"type":"VEC3"
		},
		{
			"bufferView":41,
			"componentType":5126,
			"count":24,
			"type":"VEC2"
		},
		{
			"bufferView":42,
			"componentType":5126,
			"count":24,
			"max":[
				0.8841961026191711,
				0.2948998808860779,
				0.2988300323486328
			],
			"min":[
				0.7026575207710266,
				0.0060043781995773315,
				0.20092040300369263
			],
			"type":"VEC3"
		},
		{
			"bufferView":43,
			"componentType":5126,
			"count":24,
			"type":"VEC3"
		},
		{
			"bufferView":44,
			"componentType":5126,
			"count":24,
			"type":"VEC2"
		},
		{
			"bufferView":45,
			"componentType":5126,
			"count":24,
			"max":[
				0.8841961026191711,
				0.2948998808860779,
				-0.5627745985984802
			],
			"min":[
				0.7026575207710266,
				0.0060043781995773315,
				-0.6606841683387756
			],
			"type":"VEC3"
		},
		{
			"bufferView":46,
			"componentType":5126,
			"count":24,
			"type":"VEC3"
		},
		{
			"bufferView":47,
			"componentType":5126,
			"count":24,
			"type":"VEC2"
		}
	],
	"bufferViews":[
		{
			"buffer":0,
			"byteLength":288,
			"byteOffset":0,
			"target":34962
		},
		{
			"buffer":0,
			"byteLength":288,
			"byteOffset":288,
			"target":34962
		},
		{
			"buffer":0,
			"byteLength":192,
			"byteOffset":576,
			"target":34962
		},
		{
			"buffer":0,
			"byteLength":72,
			"byteOffset":768,
			"target":34963
		},
		{
			"buffer":0,
			"byteLength":288,
			"byteOffset":840,
			"target":34962
		},
		{
			"buffer":0,
			"byteLength":288,
			"byteOffset":1128,
			"target":34962
		},
		{
			"buffer":0,
			"byteLength":192,
			"byteOffset":1416,
			"target":34962
		},
		{
			"buffer":0,
			"byteLength":288,
			"byteOffset":1608,
			"target":34962
		},
		{
			"buffer":0,
			"byteLength":288,
			"byteOffset":1896,
			"target":34962
		},
		{
			"buffer":0,
			"byteLength":192,
			"byteOffset":2184,
			"target":34962
		},
		{
			"buffer":0,
			"byteLength":288,
			"byteOffset":2376,
			"target":34962
		},
		{
			"buffer":0,
			"byteLength":288,
			"byteOffset":2664,
			"target":34962
		},
		{
			"buffer":0,
			"byteLength":192,
			"byteOffset":2952,
			"target":34962
		},
		{
			"buffer":0,
			"byteLength":288,
			"byteOffset":3144,
			"target":34962
		},
		{
			"buffer":0,
			"byteLength":288,
			"byteOffset":3432,
			"target":34962
		},
		{
			"buffer":0,
			"byteLength":192,
			"byteOffset":3720,
			"target":34962
		},
		{
			"buffer":0,
			"byteLength":288,
			"byteOffset":3912,
			"target":34962
		},
		{
			"buffer":0,
			"byteLength":288,
			"byteOffset":4200,
			"target":34962
		},
		{
			"buffer":0,
			"byteLength":192,
			"byteOffset":4488,
			"target":34962
		},
		{
			"buffer":0,
			"byteLength":288,
			"byteOffset":4680,
			"target":34962
		},
		{
			"buffer":0,
			"byteLength":288,
			"byteOffset":4968,
			"target":34962
		},
		{
			"buffer":0,
			"byteLength":192,
			"byteOffset":5256,
			"target":34962
		},
		{
			"buffer":0,
			"byteLength":288,
			"byteOffset":5448,
			"target":34962
		},
		{
			"buffer":0,
			"byteLength":288,
			"byteOffset":5736,
			"target":34962
		},
		{
			"buffer":0,
			"byteLength":192,
			"byteOffset":6024,
			"target":34962
		},
		{
			"buffer":0,
			"byteLength":1152,
			"byteOffset":6216,
			"target":34962
		},
		{
			"buffer":0,
			"byteLength":1152,
			"byteOffset":7368,
			"target":34962
		},
		{
			"buffer":0,
			"byteLength":768,
			"byteOffset":8520,
			"target":34962
		},
		{
			"buffer":0,
			"byteLength":264,
			"byteOffset":9288,
			"target":34963
		},
		{
			"buffer":0,
			"byteLength":288,
			"byteOffset":9552,
			"target":34962
		},
		{
			"buffer":0,
			"byteLength":288,
			"byteOffset":9840,
			"target":34962
		},
		{
			"buffer":0,
			"byteLength":192,
			"byteOffset":10128,
			"target":34962
		},
		{
			"buffer":0,
			"byteLength":72,
			"byteOffset":10320,
			"target":34963
		},
		{
			"buffer":0,
			"byteLength":288,
			"byteOffset":10392,
			"target":34962
		},
		{
			"buffer":0,
			"byteLength":288,
			"byteOffset":10680,
			"target":34962
		},
		{
			"buffer":0,
			"byteLength":192,
			"byteOffset":10968,
			"target":34962
		},
		{
			"buffer":0,
			"byteLength":288,
			"byteOffset":11160,
			"target":34962
		},
		{
			"buffer":0,
			"byteLength":288,
			"byteOffset":11448,
			"target":34962
		},
		{
			"buffer":0,
			"byteLength":192,
			"byteOffset":11736,
			"target":34962
		},
		{
			"buffer":0,
			"byteLength":288,
			"byteOffset":11928,
			"target":34962
		},
		{
			"buffer":0,
			"byteLength":288,
			"byteOffset":12216,
			"target":34962
		},
		{
			"buffer":0,
			"byteLength":192,
			"byteOffset":12504,
			"target":34962
		},
		{
			"buffer":0,
			"byteLength":288,
			"byteOffset":12696,
			"target":34962
		},
		{
			"buffer":0,
			"byteLength":288,
			"byteOffset":12984,
			"target":34962
		},
		{
			"buffer":0,
			"byteLength":192,
			"byteOffset":13272,
			"target":34962
		},
		{
			"buffer":0,
			"byteLength":288,
			"byteOffset":13464,
			"target":34962
		},
		{
			"buffer":0,
			"byteLength":288,
			"byteOffset":13752,
			"target":34962
		},
		{
			"buffer":0,
			"byteLength":192,
			"byteOffset":14040,
			"target":34962
		}
	],
	"buffers":[
		{
			"byteLength":14232,
			"uri":"old_military_crate.bin"
		}
	]
}
