{
	"asset":{
		"generator":"Khronos glTF Blender I/O v5.2.40",
		"version":"2.0"
	},
	"scene":0,
	"scenes":[
		{
			"name":"Scene",
			"nodes":[
				0,
				1,
				2,
				3,
				4
			]
		}
	],
	"nodes":[
		{
			"mesh":0,
			"name":"cut"
		},
		{
			"mesh":1,
			"name":"fork0"
		},
		{
			"mesh":2,
			"name":"fork1"
		},
		{
			"mesh":3,
			"name":"fork2"
		},
		{
			"mesh":4,
			"name":"log"
		}
	],
	"materials":[
		{
			"doubleSided":true,
			"name":"M_dc",
			"pbrMetallicRoughness":{
				"baseColorFactor":[
					0.8122414946556091,
					0.535641610622406,
					0.2508402466773987,
					1
				],
				"metallicFactor":0,
				"roughnessFactor":0.8500000238418579
			}
		},
		{
			"doubleSided":true,
			"name":"M_df0",
			"pbrMetallicRoughness":{
				"baseColorFactor":[
					0.5859729647636414,
					0.48776519298553467,
					0.32972902059555054,
					1
				],
				"metallicFactor":0,
				"roughnessFactor":0.8500000238418579
			}
		},
		{
			"doubleSided":true,
			"name":"M_df1",
			"pbrMetallicRoughness":{
				"baseColorFactor":[
					0.5859729647636414,
					0.48776519298553467,
					0.32972902059555054,
					1
				],
				"metallicFactor":0,
				"roughnessFactor":0.8500000238418579
			}
		},
		{
			"doubleSided":true,
			"name":"M_df2",
			"pbrMetallicRoughness":{
				"baseColorFactor":[
					0.5859729647636414,
					0.48776519298553467,
					0.32972902059555054,
					1
				],
				"metallicFactor":0,
				"roughnessFactor":0.8500000238418579
			}
		},
		{
			"doubleSided":true,
			"name":"M_dw",
			"pbrMetallicRoughness":{
				"baseColorFactor":[
					0.5859729647636414,
					0.48776519298553467,
					0.32972902059555054,
					1
				],
				"metallicFactor":0,
				"roughnessFactor":0.8500000238418579
			}
		}
	],
	"meshes":[
		{
			"name":"Cylinder.001",
			"primitives":[
				{
					"attributes":{
						"POSITION":0,
						"NORMAL":1,
						"TEXCOORD_0":2
					},
					"indices":3,
					"material":0
				}
			]
		},
		{
			"name":"Cone",
			"primitives":[
				{
					"attributes":{
						"POSITION":4,
						"NORMAL":5,
						"TEXCOORD_0":6
					},
					"indices":7,
					"material":1
				}
			]
		},
		{
			"name":"Cone.001",
			"primitives":[
				{
					"attributes":{
						"POSITION":8,
						"NORMAL":9,
						"TEXCOORD_0":10
					},
					"indices":7,
					"material":2
				}
			]
		},
		{
			"name":"Cone.002",
			"primitives":[
				{
					"attributes":{
						"POSITION":11,
						"NORMAL":12,
						"TEXCOORD_0":13
					},
					"indices":14,
					"material":3
				}
			]
		},
		{
			"name":"Cylinder",
			"primitives":[
				{
					"attributes":{
						"POSITION":15,
						"NORMAL":16,
						"TEXCOORD_0":17
					},
					"indices":18,
					"material":4
				}
			]
		}
	],
	"accessors":[
		{
			"bufferView":0,
			"componentType":5126,
			"count":48,
			"max":[
				0.9557529091835022,
				0.4100000262260437,
				0.14066952466964722
			],
			"min":[
				0.8842471241950989,
				0.1300000101327896,
				-0.14066952466964722
			],
			"type":"VEC3"
		},
		{
			"bufferView":1,
			"componentType":5126,
			"count":48,
			"type":"VEC3"
		},
		{
			"bufferView":2,
			"componentType":5126,
			"count":48,
			"type":"VEC2"
		},
		{
			"bufferView":3,
			"componentType":5123,
			"count":84,
			"type":"SCALAR"
		},
		{
			"bufferView":4,
			"componentType":5126,
			"count":30,
			"max":[
				0.7570633888244629,
				0.6203039884567261,
				0.18606270849704742
			],
			"min":[
				0.6429365873336792,
				0.15813623368740082,
				-0.22272923588752747
			],
			"type":"VEC3"
		},
		{
			"bufferView":5,
			"componentType":5126,
			"count":30,
			"type":"VEC3"
		},
		{
			"bufferView":6,
			"componentType":5126,
			"count":30,
			"type":"VEC2"
		},
		{
			"bufferView":7,
			"componentType":5123,
			"count":48,
			"type":"SCALAR"
		},
		{
			"bufferView":8,
			"componentType":5126,
			"count":30,
			"max":[
				0.9070634245872498,
				0.5676741600036621,
				0.25310879945755005
			],
			"min":[
				0.7929366230964661,
				0.19311735033988953,
				-0.2338704615831375
			],
			"type":"VEC3"
		},
		{
			"bufferView":9,
			"componentType":5126,
			"count":30,
			"type":"VEC3"
		},
		{
			"bufferView":10,
			"componentType":5126,
			"count":30,
			"type":"VEC2"
		},
		{
			"bufferView":11,
			"componentType":5126,
			"count":30,
			"max":[
				-0.5429366230964661,
				0.5504903793334961,
				0.2442246377468109
			],
			"min":[
				-0.6570634245872498,
				0.22046226263046265,
				-0.2681570053100586
			],
			"type":"VEC3"
		},
		{
			"bufferView":12,
			"componentType":5126,
			"count":30,
			"type":"VEC3"
		},
		{
			"bufferView":13,
			"componentType":5126,
			"count":30,
			"type":"VEC2"
		},
		{
			"bufferView":14,
			"componentType":5123,
			"count":48,
			"type":"SCALAR"
		},
		{
			"bufferView":15,
			"componentType":5126,
			"count":34,
			"max":[
				0.9138040542602539,
				0.3800000548362732,
				0.2926976680755615
			],
			"min":[
				-0.9138040542602539,
				0.05999995768070221,
				-0.2926976680755615
			],
			"type":"VEC3"
		},
		{
			"bufferView":16,
			"componentType":5126,
			"count":34,
			"type":"VEC3"
		},
		{
			"bufferView":17,
			"componentType":5126,
			"count":34,
			"type":"VEC2"
		},
		{
			"bufferView":18,
			"componentType":5123,
			"count":84,
			"type":"SCALAR"
		}
	],
	"bufferViews":[
		{
			"buffer":0,
			"byteLength":576,
			"byteOffset":0,
			"target":34962
		},
		{
			"buffer":0,
			"byteLength":576,
			"byteOffset":576,
			"target":34962
		},
		{
			"buffer":0,
			"byteLength":384,
			"byteOffset":1152,
			"target":34962
		},
		{
			"buffer":0,
			"byteLength":168,
			"byteOffset":1536,
			"target":34963
		},
		{
			"buffer":0,
			"byteLength":360,
			"byteOffset":1704,
			"target":34962
		},
		{
			"buffer":0,
			"byteLength":360,
			"byteOffset":2064,
			"target":34962
		},
		{
			"buffer":0,
			"byteLength":240,
			"byteOffset":2424,
			"target":34962
		},
		{
			"buffer":0,
			"byteLength":96,
			"byteOffset":2664,
			"target":34963
		},
		{
			"buffer":0,
			"byteLength":360,
			"byteOffset":2760,
			"target":34962
		},
		{
			"buffer":0,
			"byteLength":360,
			"byteOffset":3120,
			"target":34962
		},
		{
			"buffer":0,
			"byteLength":240,
			"byteOffset":3480,
			"target":34962
		},
		{
			"buffer":0,
			"byteLength":360,
			"byteOffset":3720,
			"target":34962
		},
		{
			"buffer":0,
			"byteLength":360,
			"byteOffset":4080,
			"target":34962
		},
		{
			"buffer":0,
			"byteLength":240,
			"byteOffset":4440,
			"target":34962
		},
		{
			"buffer":0,
			"byteLength":96,
			"byteOffset":4680,
			"target":34963
		},
		{
			"buffer":0,
			"byteLength":408,
			"byteOffset":4776,
			"target":34962
		},
		{
			"buffer":0,
			"byteLength":408,
			"byteOffset":5184,
			"target":34962
		},
		{
			"buffer":0,
			"byteLength":272,
			"byteOffset":5592,
			"target":34962
		},
		{
			"buffer":0,
			"byteLength":168,
			"byteOffset":5864,
			"target":34963
		}
	],
	"buffers":[
		{
			"byteLength":6032,
			"uri":"hd_driftwood.bin"
		}
	]
}
