{"asset": {"generator": "Khronos glTF Blender I/O v5.2.40", "version": "2.0"}, "scene": 0, "scenes": [{"name": "Scene", "nodes": [0]}], "nodes": [{"mesh": 0, "name": "boulder"}], "materials": [{"doubleSided": true, "name": "granite", "normalTexture": {"index": 0}, "pbrMetallicRoughness": {"baseColorTexture": {"index": 1}, "metallicFactor": 0, "roughnessFactor": 0.949999988079071}}], "meshes": [{"name": "Icosphere", "primitives": [{"attributes": {"POSITION": 0, "NORMAL": 1, "TEXCOORD_0": 2}, "indices": 3, "material": 0}]}], "textures": [{"sampler": 0, "source": 0}, {"sampler": 0, "source": 1}], "images": [{"mimeType": "image/jpeg", "name": "rock_ground_nor_gl_1k", "uri": "textures/rock_ground_nor_gl_1k.jpg"}, {"mimeType": "image/jpeg", "name": "rock_ground_Diffuse_1k", "uri": "textures/rock_ground_Diffuse_1k.jpg"}], "accessors": [{"bufferView": 0, "componentType": 5126, "count": 1014, "max": [0.9835554361343384, 1.8080949783325195, 0.9310417771339417], "min": [-1.0287548303604126, -0.04151118919253349, -0.903082549571991], "type": "VEC3"}, {"bufferView": 1, "componentType": 5126, "count": 1014, "type": "VEC3"}, {"bufferView": 2, "componentType": 5126, "count": 1014, "type": "VEC2"}, {"bufferView": 3, "componentType": 5123, "count": 3840, "type": "SCALAR"}], "bufferViews": [{"buffer": 0, "byteLength": 12168, "byteOffset": 0, "target": 34962}, {"buffer": 0, "byteLength": 12168, "byteOffset": 12168, "target": 34962}, {"buffer": 0, "byteLength": 8112, "byteOffset": 24336, "target": 34962}, {"buffer": 0, "byteLength": 7680, "byteOffset": 32448, "target": 34963}], "samplers": [{"magFilter": 9729, "minFilter": 9987}], "buffers": [{"byteLength": 40128, "uri": "bl_boulder.bin"}]}