{
	"asset":{
		"generator":"Khronos glTF Blender I/O v5.2.40",
		"version":"2.0"
	},
	"scene":0,
	"scenes":[
		{
			"name":"Scene",
			"nodes":[
				0,
				1,
				2,
				3,
				4,
				5,
				6,
				7,
				8
			]
		}
	],
	"nodes":[
		{
			"mesh":0,
			"name":"box"
		},
		{
			"mesh":1,
			"name":"fl0"
		},
		{
			"mesh":2,
			"name":"fl1"
		},
		{
			"mesh":3,
			"name":"fl2"
		},
		{
			"mesh":4,
			"name":"fl3"
		},
		{
			"mesh":5,
			"name":"sh0"
		},
		{
			"mesh":6,
			"name":"sh1"
		},
		{
			"mesh":7,
			"name":"sh2"
		},
		{
			"mesh":8,
			"name":"soil"
		}
	],
	"materials":[
		{
			"doubleSided":true,
			"name":"M_pb",
			"pbrMetallicRoughness":{
				"baseColorFactor":[
					0.46474114060401917,
					0.08919350802898407,
					0.03994717076420784,
					1
				],
				"metallicFactor":0,
				"roughnessFactor":0.8500000238418579
			}
		},
		{
			"doubleSided":true,
			"name":"M_pf0",
			"pbrMetallicRoughness":{
				"baseColorFactor":[
					0.8912620544433594,
					0.11657577753067017,
					0.19751642644405365,
					1
				],
				"metallicFactor":0,
				"roughnessFactor":0.8500000238418579
			}
		},
		{
			"doubleSided":true,
			"name":"M_pf1",
			"pbrMetallicRoughness":{
				"baseColorFactor":[
					1,
					0.5924380421638489,
					0.041451890021562576,
					1
				],
				"metallicFactor":0,
				"roughnessFactor":0.8500000238418579
			}
		},
		{
			"doubleSided":true,
			"name":"M_pf2",
			"pbrMetallicRoughness":{
				"baseColorFactor":[
					0.46474114060401917,
					0.20471012592315674,
					1,
					1
				],
				"metallicFactor":0,
				"roughnessFactor":0.8500000238418579
			}
		},
		{
			"doubleSided":true,
			"name":"M_pf3",
			"pbrMetallicRoughness":{
				"baseColorFactor":[
					0.8912620544433594,
					0.11657577753067017,
					0.19751642644405365,
					1
				],
				"metallicFactor":0,
				"roughnessFactor":0.8500000238418579
			}
		},
		{
			"doubleSided":true,
			"name":"M_psh0",
			"pbrMetallicRoughness":{
				"baseColorFactor":[
					0.044552627950906754,
					0.25491586327552795,
					0.06190747395157814,
					1
				],
				"metallicFactor":0,
				"roughnessFactor":0.8500000238418579
			}
		},
		{
			"doubleSided":true,
			"name":"M_psh1",
			"pbrMetallicRoughness":{
				"baseColorFactor":[
					0.09387587010860443,
					0.48776519298553467,
					0.05637409910559654,
					1
				],
				"metallicFactor":0,
				"roughnessFactor":0.8500000238418579
			}
		},
		{
			"doubleSided":true,
			"name":"M_psh2",
			"pbrMetallicRoughness":{
				"baseColorFactor":[
					0.1939721703529358,
					0.6592239737510681,
					0.0915183499455452,
					1
				],
				"metallicFactor":0,
				"roughnessFactor":0.8500000238418579
			}
		},
		{
			"doubleSided":true,
			"name":"M_ps",
			"pbrMetallicRoughness":{
				"baseColorFactor":[
					0.10615606606006622,
					0.0477757528424263,
					0.025371277704834938,
					1
				],
				"metallicFactor":0,
				"roughnessFactor":0.8500000238418579
			}
		}
	],
	"meshes":[
		{
			"name":"Cube",
			"primitives":[
				{
					"attributes":{
						"POSITION":0,
						"NORMAL":1,
						"TEXCOORD_0":2
					},
					"indices":3,
					"material":0
				}
			]
		},
		{
			"name":"Icosphere.003",
			"primitives":[
				{
					"attributes":{
						"POSITION":4,
						"NORMAL":5,
						"TEXCOORD_0":6
					},
					"indices":7,
					"material":1
				}
			]
		},
		{
			"name":"Icosphere.004",
			"primitives":[
				{
					"attributes":{
						"POSITION":8,
						"NORMAL":9,
						"TEXCOORD_0":10
					},
					"indices":7,
					"material":2
				}
			]
		},
		{
			"name":"Icosphere.005",
			"primitives":[
				{
					"attributes":{
						"POSITION":11,
						"NORMAL":12,
						"TEXCOORD_0":13
					},
					"indices":7,
					"material":3
				}
			]
		},
		{
			"name":"Icosphere.006",
			"primitives":[
				{
					"attributes":{
						"POSITION":14,
						"NORMAL":15,
						"TEXCOORD_0":16
					},
					"indices":17,
					"material":4
				}
			]
		},
		{
			"name":"Icosphere",
			"primitives":[
				{
					"attributes":{
						"POSITION":18,
						"NORMAL":19,
						"TEXCOORD_0":20
					},
					"indices":21,
					"material":5
				}
			]
		},
		{
			"name":"Icosphere.001",
			"primitives":[
				{
					"attributes":{
						"POSITION":22,
						"NORMAL":23,
						"TEXCOORD_0":24
					},
					"indices":21,
					"material":6
				}
			]
		},
		{
			"name":"Icosphere.002",
			"primitives":[
				{
					"attributes":{
						"POSITION":25,
						"NORMAL":26,
						"TEXCOORD_0":27
					},
					"indices":21,
					"material":7
				}
			]
		},
		{
			"name":"Cube.001",
			"primitives":[
				{
					"attributes":{
						"POSITION":28,
						"NORMAL":29,
						"TEXCOORD_0":30
					},
					"indices":31,
					"material":8
				}
			]
		}
	],
	"accessors":[
		{
			"bufferView":0,
			"componentType":5126,
			"count":96,
			"max":[
				0.75,
				0.6000000238418579,
				0.4000000059604645
			],
			"min":[
				-0.75,
				0,
				-0.4000000059604645
			],
			"type":"VEC3"
		},
		{
			"bufferView":1,
			"componentType":5126,
			"count":96,
			"type":"VEC3"
		},
		{
			"bufferView":2,
			"componentType":5126,
			"count":96,
			"type":"VEC2"
		},
		{
			"bufferView":3,
			"componentType":5123,
			"count":132,
			"type":"SCALAR"
		},
		{
			"bufferView":4,
			"componentType":5126,
			"count":60,
			"max":[
				0.2793933153152466,
				0.9385035037994385,
				-0.05405421182513237
			],
			"min":[
				0.1899508237838745,
				0.8585034608840942,
				-0.13911820948123932
			],
			"type":"VEC3"
		},
		{
			"bufferView":5,
			"componentType":5126,
			"count":60,
			"type":"VEC3"
		},
		{
			"bufferView":6,
			"componentType":5126,
			"count":60,
			"type":"VEC2"
		},
		{
			"bufferView":7,
			"componentType":5123,
			"count":60,
			"type":"SCALAR"
		},
		{
			"bufferView":8,
			"componentType":5126,
			"count":60,
			"max":[
				-0.145981565117836,
				0.9562819004058838,
				0.19239647686481476
			],
			"min":[
				-0.23542405664920807,
				0.8762818574905396,
				0.10733248293399811
			],
			"type":"VEC3"
		},
		{
			"bufferView":9,
			"componentType":5126,
			"count":60,
			"type":"VEC3"
		},
		{
			"bufferView":10,
			"componentType":5126,
			"count":60,
			"type":"VEC2"
		},
		{
			"bufferView":11,
			"componentType":5126,
			"count":60,
			"max":[
				0.020924655720591545,
				0.9273160696029663,
				-0.03538719192147255
			],
			"min":[
				-0.06851784139871597,
				0.8473160266876221,
				-0.1204511970281601
			],
			"type":"VEC3"
		},
		{
			"bufferView":12,
			"componentType":5126,
			"count":60,
			"type":"VEC3"
		},
		{
			"bufferView":13,
			"componentType":5126,
			"count":60,
			"type":"VEC2"
		},
		{
			"bufferView":14,
			"componentType":5126,
			"count":60,
			"max":[
				0.26083311438560486,
				0.9701915979385376,
				0.11072257161140442
			],
			"min":[
				0.1713906228542328,
				0.8901915550231934,
				0.02565857395529747
			],
			"type":"VEC3"
		},
		{
			"bufferView":15,
			"componentType":5126,
			"count":60,
			"type":"VEC3"
		},
		{
			"bufferView":16,
			"componentType":5126,
			"count":60,
			"type":"VEC2"
		},
		{
			"bufferView":17,
			"componentType":5123,
			"count":60,
			"type":"SCALAR"
		},
		{
			"bufferView":18,
			"componentType":5126,
			"count":22,
			"max":[
				-0.09487567096948624,
				0.9502017498016357,
				0.17296801507472992
			],
			"min":[
				-0.5217298865318298,
				0.5971274971961975,
				-0.1698618233203888
			],
			"type":"VEC3"
		},
		{
			"bufferView":19,
			"componentType":5126,
			"count":22,
			"type":"VEC3"
		},
		{
			"bufferView":20,
			"componentType":5126,
			"count":22,
			"type":"VEC2"
		},
		{
			"bufferView":21,
			"componentType":5123,
			"count":60,
			"type":"SCALAR"
		},
		{
			"bufferView":22,
			"componentType":5126,
			"count":22,
			"max":[
				0.2294428050518036,
				0.9565281867980957,
				0.17251056432724
			],
			"min":[
				-0.14142176508903503,
				0.5700126886367798,
				-0.19644150137901306
			],
			"type":"VEC3"
		},
		{
			"bufferView":23,
			"componentType":5126,
			"count":22,
			"type":"VEC3"
		},
		{
			"bufferView":24,
			"componentType":5126,
			"count":22,
			"type":"VEC2"
		},
		{
			"bufferView":25,
			"componentType":5126,
			"count":22,
			"max":[
				0.5711748003959656,
				0.9568269848823547,
				0.19267892837524414
			],
			"min":[
				0.1761559545993805,
				0.5616825819015503,
				-0.1699790358543396
			],
			"type":"VEC3"
		},
		{
			"bufferView":26,
			"componentType":5126,
			"count":22,
			"type":"VEC3"
		},
		{
			"bufferView":27,
			"componentType":5126,
			"count":22,
			"type":"VEC2"
		},
		{
			"bufferView":28,
			"componentType":5126,
			"count":24,
			"max":[
				0.6800000071525574,
				0.6000000238418579,
				0.33000001311302185
			],
			"min":[
				-0.6800000071525574,
				0.5199999809265137,
				-0.33000001311302185
			],
			"type":"VEC3"
		},
		{
			"bufferView":29,
			"componentType":5126,
			"count":24,
			"type":"VEC3"
		},
		{
			"bufferView":30,
			"componentType":5126,
			"count":24,
			"type":"VEC2"
		},
		{
			"bufferView":31,
			"componentType":5123,
			"count":36,
			"type":"SCALAR"
		}
	],
	"bufferViews":[
		{
			"buffer":0,
			"byteLength":1152,
			"byteOffset":0,
			"target":34962
		},
		{
			"buffer":0,
			"byteLength":1152,
			"byteOffset":1152,
			"target":34962
		},
		{
			"buffer":0,
			"byteLength":768,
			"byteOffset":2304,
			"target":34962
		},
		{
			"buffer":0,
			"byteLength":264,
			"byteOffset":3072,
			"target":34963
		},
		{
			"buffer":0,
			"byteLength":720,
			"byteOffset":3336,
			"target":34962
		},
		{
			"buffer":0,
			"byteLength":720,
			"byteOffset":4056,
			"target":34962
		},
		{
			"buffer":0,
			"byteLength":480,
			"byteOffset":4776,
			"target":34962
		},
		{
			"buffer":0,
			"byteLength":120,
			"byteOffset":5256,
			"target":34963
		},
		{
			"buffer":0,
			"byteLength":720,
			"byteOffset":5376,
			"target":34962
		},
		{
			"buffer":0,
			"byteLength":720,
			"byteOffset":6096,
			"target":34962
		},
		{
			"buffer":0,
			"byteLength":480,
			"byteOffset":6816,
			"target":34962
		},
		{
			"buffer":0,
			"byteLength":720,
			"byteOffset":7296,
			"target":34962
		},
		{
			"buffer":0,
			"byteLength":720,
			"byteOffset":8016,
			"target":34962
		},
		{
			"buffer":0,
			"byteLength":480,
			"byteOffset":8736,
			"target":34962
		},
		{
			"buffer":0,
			"byteLength":720,
			"byteOffset":9216,
			"target":34962
		},
		{
			"buffer":0,
			"byteLength":720,
			"byteOffset":9936,
			"target":34962
		},
		{
			"buffer":0,
			"byteLength":480,
			"byteOffset":10656,
			"target":34962
		},
		{
			"buffer":0,
			"byteLength":120,
			"byteOffset":11136,
			"target":34963
		},
		{
			"buffer":0,
			"byteLength":264,
			"byteOffset":11256,
			"target":34962
		},
		{
			"buffer":0,
			"byteLength":264,
			"byteOffset":11520,
			"target":34962
		},
		{
			"buffer":0,
			"byteLength":176,
			"byteOffset":11784,
			"target":34962
		},
		{
			"buffer":0,
			"byteLength":120,
			"byteOffset":11960,
			"target":34963
		},
		{
			"buffer":0,
			"byteLength":264,
			"byteOffset":12080,
			"target":34962
		},
		{
			"buffer":0,
			"byteLength":264,
			"byteOffset":12344,
			"target":34962
		},
		{
			"buffer":0,
			"byteLength":176,
			"byteOffset":12608,
			"target":34962
		},
		{
			"buffer":0,
			"byteLength":264,
			"byteOffset":12784,
			"target":34962
		},
		{
			"buffer":0,
			"byteLength":264,
			"byteOffset":13048,
			"target":34962
		},
		{
			"buffer":0,
			"byteLength":176,
			"byteOffset":13312,
			"target":34962
		},
		{
			"buffer":0,
			"byteLength":288,
			"byteOffset":13488,
			"target":34962
		},
		{
			"buffer":0,
			"byteLength":288,
			"byteOffset":13776,
			"target":34962
		},
		{
			"buffer":0,
			"byteLength":192,
			"byteOffset":14064,
			"target":34962
		},
		{
			"buffer":0,
			"byteLength":72,
			"byteOffset":14256,
			"target":34963
		}
	],
	"buffers":[
		{
			"byteLength":14328,
			"uri":"hd_planter.bin"
		}
	]
}
