{
	"asset":{
		"generator":"Khronos glTF Blender I/O v5.2.40",
		"version":"2.0"
	},
	"scene":0,
	"scenes":[
		{
			"name":"Scene",
			"nodes":[
				0,
				1,
				2,
				3,
				4,
				5,
				6,
				7,
				8,
				9,
				10,
				11,
				12,
				13,
				14,
				15,
				16,
				17,
				18,
				19,
				20,
				21,
				22,
				23,
				24,
				25,
				26,
				27,
				28,
				29
			]
		}
	],
	"nodes":[
		{
			"mesh":0,
			"name":"coco0"
		},
		{
			"mesh":1,
			"name":"coco1"
		},
		{
			"mesh":2,
			"name":"coco2"
		},
		{
			"mesh":3,
			"name":"crownBase"
		},
		{
			"mesh":4,
			"name":"fr0a"
		},
		{
			"mesh":5,
			"name":"fr0b"
		},
		{
			"mesh":6,
			"name":"fr1a"
		},
		{
			"mesh":7,
			"name":"fr1b"
		},
		{
			"mesh":8,
			"name":"fr2a"
		},
		{
			"mesh":9,
			"name":"fr2b"
		},
		{
			"mesh":10,
			"name":"fr3a"
		},
		{
			"mesh":11,
			"name":"fr3b"
		},
		{
			"mesh":12,
			"name":"fr4a"
		},
		{
			"mesh":13,
			"name":"fr4b"
		},
		{
			"mesh":14,
			"name":"fr5a"
		},
		{
			"mesh":15,
			"name":"fr5b"
		},
		{
			"mesh":16,
			"name":"fr6a"
		},
		{
			"mesh":17,
			"name":"fr6b"
		},
		{
			"mesh":18,
			"name":"fr7a"
		},
		{
			"mesh":19,
			"name":"fr7b"
		},
		{
			"mesh":20,
			"name":"fr8a"
		},
		{
			"mesh":21,
			"name":"fr8b"
		},
		{
			"mesh":22,
			"name":"pring0"
		},
		{
			"mesh":23,
			"name":"pring1"
		},
		{
			"mesh":24,
			"name":"pring2"
		},
		{
			"mesh":25,
			"name":"trunk0",
			"rotation":[
				0.012850343249738216,
				0.7069900631904602,
				-0.012849893420934677,
				0.7069900035858154
			]
		},
		{
			"mesh":26,
			"name":"trunk1",
			"rotation":[
				0.038398656994104385,
				0.706063449382782,
				-0.038398630917072296,
				0.7060633897781372
			]
		},
		{
			"mesh":27,
			"name":"trunk2",
			"rotation":[
				0.06350211054086685,
				0.7042496204376221,
				-0.06350214779376984,
				0.7042495608329773
			]
		},
		{
			"mesh":28,
			"name":"trunk3",
			"rotation":[
				0.08789601176977158,
				0.7016226649284363,
				-0.08789606392383575,
				0.7016226053237915
			]
		},
		{
			"mesh":29,
			"name":"trunk4",
			"rotation":[
				0.11135849356651306,
				0.6982831358909607,
				-0.11135850101709366,
				0.6982830762863159
			]
		}
	],
	"materials":[
		{
			"doubleSided":true,
			"name":"M_cc0",
			"pbrMetallicRoughness":{
				"baseColorFactor":[
					0.15728072822093964,
					0.06575387716293335,
					0.023103555664420128,
					1
				],
				"metallicFactor":0,
				"roughnessFactor":0.8500000238418579
			}
		},
		{
			"doubleSided":true,
			"name":"M_cc1",
			"pbrMetallicRoughness":{
				"baseColorFactor":[
					0.15728072822093964,
					0.06575387716293335,
					0.023103555664420128,
					1
				],
				"metallicFactor":0,
				"roughnessFactor":0.8500000238418579
			}
		},
		{
			"doubleSided":true,
			"name":"M_cc2",
			"pbrMetallicRoughness":{
				"baseColorFactor":[
					0.15728072822093964,
					0.06575387716293335,
					0.023103555664420128,
					1
				],
				"metallicFactor":0,
				"roughnessFactor":0.8500000238418579
			}
		},
		{
			"doubleSided":true,
			"name":"M_pcb",
			"pbrMetallicRoughness":{
				"baseColorFactor":[
					0.023103555664420128,
					0.20835965871810913,
					0.0697270855307579,
					1
				],
				"metallicFactor":0,
				"roughnessFactor":0.8500000238418579
			}
		},
		{
			"doubleSided":true,
			"name":"M_fa0",
			"pbrMetallicRoughness":{
				"baseColorFactor":[
					0.023103555664420128,
					0.20835965871810913,
					0.0697270855307579,
					1
				],
				"metallicFactor":0,
				"roughnessFactor":0.8500000238418579
			}
		},
		{
			"doubleSided":true,
			"name":"M_fb0",
			"pbrMetallicRoughness":{
				"baseColorFactor":[
					0.04614884406328201,
					0.3586539030075073,
					0.11657577753067017,
					1
				],
				"metallicFactor":0,
				"roughnessFactor":0.8500000238418579
			}
		},
		{
			"doubleSided":true,
			"name":"M_fa1",
			"pbrMetallicRoughness":{
				"baseColorFactor":[
					0.04614884406328201,
					0.3586539030075073,
					0.11657577753067017,
					1
				],
				"metallicFactor":0,
				"roughnessFactor":0.8500000238418579
			}
		},
		{
			"doubleSided":true,
			"name":"M_fb1",
			"pbrMetallicRoughness":{
				"baseColorFactor":[
					0.11392093449831009,
					0.5479934811592102,
					0.1904628723859787,
					1
				],
				"metallicFactor":0,
				"roughnessFactor":0.8500000238418579
			}
		},
		{
			"doubleSided":true,
			"name":"M_fa2",
			"pbrMetallicRoughness":{
				"baseColorFactor":[
					0.023103555664420128,
					0.20835965871810913,
					0.0697270855307579,
					1
				],
				"metallicFactor":0,
				"roughnessFactor":0.8500000238418579
			}
		},
		{
			"doubleSided":true,
			"name":"M_fb2",
			"pbrMetallicRoughness":{
				"baseColorFactor":[
					0.11392093449831009,
					0.5479934811592102,
					0.1904628723859787,
					1
				],
				"metallicFactor":0,
				"roughnessFactor":0.8500000238418579
			}
		},
		{
			"doubleSided":true,
			"name":"M_fa3",
			"pbrMetallicRoughness":{
				"baseColorFactor":[
					0.04614884406328201,
					0.3586539030075073,
					0.11657577753067017,
					1
				],
				"metallicFactor":0,
				"roughnessFactor":0.8500000238418579
			}
		},
		{
			"doubleSided":true,
			"name":"M_fb3",
			"pbrMetallicRoughness":{
				"baseColorFactor":[
					0.04614884406328201,
					0.3586539030075073,
					0.11657577753067017,
					1
				],
				"metallicFactor":0,
				"roughnessFactor":0.8500000238418579
			}
		},
		{
			"doubleSided":true,
			"name":"M_fa4",
			"pbrMetallicRoughness":{
				"baseColorFactor":[
					0.023103555664420128,
					0.20835965871810913,
					0.0697270855307579,
					1
				],
				"metallicFactor":0,
				"roughnessFactor":0.8500000238418579
			}
		},
		{
			"doubleSided":true,
			"name":"M_fb4",
			"pbrMetallicRoughness":{
				"baseColorFactor":[
					0.11392093449831009,
					0.5479934811592102,
					0.1904628723859787,
					1
				],
				"metallicFactor":0,
				"roughnessFactor":0.8500000238418579
			}
		},
		{
			"doubleSided":true,
			"name":"M_fa5",
			"pbrMetallicRoughness":{
				"baseColorFactor":[
					0.04614884406328201,
					0.3586539030075073,
					0.11657577753067017,
					1
				],
				"metallicFactor":0,
				"roughnessFactor":0.8500000238418579
			}
		},
		{
			"doubleSided":true,
			"name":"M_fb5",
			"pbrMetallicRoughness":{
				"baseColorFactor":[
					0.11392093449831009,
					0.5479934811592102,
					0.1904628723859787,
					1
				],
				"metallicFactor":0,
				"roughnessFactor":0.8500000238418579
			}
		},
		{
			"doubleSided":true,
			"name":"M_fa6",
			"pbrMetallicRoughness":{
				"baseColorFactor":[
					0.023103555664420128,
					0.20835965871810913,
					0.0697270855307579,
					1
				],
				"metallicFactor":0,
				"roughnessFactor":0.8500000238418579
			}
		},
		{
			"doubleSided":true,
			"name":"M_fb6",
			"pbrMetallicRoughness":{
				"baseColorFactor":[
					0.04614884406328201,
					0.3586539030075073,
					0.11657577753067017,
					1
				],
				"metallicFactor":0,
				"roughnessFactor":0.8500000238418579
			}
		},
		{
			"doubleSided":true,
			"name":"M_fa7",
			"pbrMetallicRoughness":{
				"baseColorFactor":[
					0.04614884406328201,
					0.3586539030075073,
					0.11657577753067017,
					1
				],
				"metallicFactor":0,
				"roughnessFactor":0.8500000238418579
			}
		},
		{
			"doubleSided":true,
			"name":"M_fb7",
			"pbrMetallicRoughness":{
				"baseColorFactor":[
					0.11392093449831009,
					0.5479934811592102,
					0.1904628723859787,
					1
				],
				"metallicFactor":0,
				"roughnessFactor":0.8500000238418579
			}
		},
		{
			"doubleSided":true,
			"name":"M_fa8",
			"pbrMetallicRoughness":{
				"baseColorFactor":[
					0.023103555664420128,
					0.20835965871810913,
					0.0697270855307579,
					1
				],
				"metallicFactor":0,
				"roughnessFactor":0.8500000238418579
			}
		},
		{
			"doubleSided":true,
			"name":"M_fb8",
			"pbrMetallicRoughness":{
				"baseColorFactor":[
					0.11392093449831009,
					0.5479934811592102,
					0.1904628723859787,
					1
				],
				"metallicFactor":0,
				"roughnessFactor":0.8500000238418579
			}
		},
		{
			"doubleSided":true,
			"name":"M_pr0",
			"pbrMetallicRoughness":{
				"baseColorFactor":[
					0.2590273320674896,
					0.10114516317844391,
					0.02775527909398079,
					1
				],
				"metallicFactor":0,
				"roughnessFactor":0.8500000238418579
			}
		},
		{
			"doubleSided":true,
			"name":"M_pr1",
			"pbrMetallicRoughness":{
				"baseColorFactor":[
					0.2590273320674896,
					0.10114516317844391,
					0.02775527909398079,
					1
				],
				"metallicFactor":0,
				"roughnessFactor":0.8500000238418579
			}
		},
		{
			"doubleSided":true,
			"name":"M_pr2",
			"pbrMetallicRoughness":{
				"baseColorFactor":[
					0.2590273320674896,
					0.10114516317844391,
					0.02775527909398079,
					1
				],
				"metallicFactor":0,
				"roughnessFactor":0.8500000238418579
			}
		},
		{
			"doubleSided":true,
			"name":"M_ptr",
			"pbrMetallicRoughness":{
				"baseColorFactor":[
					0.4045408368110657,
					0.17677432298660278,
					0.04614884406328201,
					1
				],
				"metallicFactor":0,
				"roughnessFactor":0.8500000238418579
			}
		}
	],
	"meshes":[
		{
			"name":"Icosphere.001",
			"primitives":[
				{
					"attributes":{
						"POSITION":0,
						"NORMAL":1,
						"TEXCOORD_0":2
					},
					"indices":3,
					"material":0
				}
			]
		},
		{
			"name":"Icosphere.002",
			"primitives":[
				{
					"attributes":{
						"POSITION":4,
						"NORMAL":5,
						"TEXCOORD_0":6
					},
					"indices":3,
					"material":1
				}
			]
		},
		{
			"name":"Icosphere.003",
			"primitives":[
				{
					"attributes":{
						"POSITION":7,
						"NORMAL":8,
						"TEXCOORD_0":9
					},
					"indices":3,
					"material":2
				}
			]
		},
		{
			"name":"Icosphere",
			"primitives":[
				{
					"attributes":{
						"POSITION":10,
						"NORMAL":11,
						"TEXCOORD_0":12
					},
					"indices":13,
					"material":3
				}
			]
		},
		{
			"name":"Cone",
			"primitives":[
				{
					"attributes":{
						"POSITION":14,
						"NORMAL":15,
						"TEXCOORD_0":16
					},
					"indices":17,
					"material":4
				}
			]
		},
		{
			"name":"Cone.001",
			"primitives":[
				{
					"attributes":{
						"POSITION":18,
						"NORMAL":19,
						"TEXCOORD_0":20
					},
					"indices":21,
					"material":5
				}
			]
		},
		{
			"name":"Cone.002",
			"primitives":[
				{
					"attributes":{
						"POSITION":22,
						"NORMAL":23,
						"TEXCOORD_0":24
					},
					"indices":25,
					"material":6
				}
			]
		},
		{
			"name":"Cone.003",
			"primitives":[
				{
					"attributes":{
						"POSITION":26,
						"NORMAL":27,
						"TEXCOORD_0":28
					},
					"indices":29,
					"material":7
				}
			]
		},
		{
			"name":"Cone.004",
			"primitives":[
				{
					"attributes":{
						"POSITION":30,
						"NORMAL":31,
						"TEXCOORD_0":32
					},
					"indices":33,
					"material":8
				}
			]
		},
		{
			"name":"Cone.005",
			"primitives":[
				{
					"attributes":{
						"POSITION":34,
						"NORMAL":35,
						"TEXCOORD_0":36
					},
					"indices":37,
					"material":9
				}
			]
		},
		{
			"name":"Cone.006",
			"primitives":[
				{
					"attributes":{
						"POSITION":38,
						"NORMAL":39,
						"TEXCOORD_0":40
					},
					"indices":41,
					"material":10
				}
			]
		},
		{
			"name":"Cone.007",
			"primitives":[
				{
					"attributes":{
						"POSITION":42,
						"NORMAL":43,
						"TEXCOORD_0":44
					},
					"indices":45,
					"material":11
				}
			]
		},
		{
			"name":"Cone.008",
			"primitives":[
				{
					"attributes":{
						"POSITION":46,
						"NORMAL":47,
						"TEXCOORD_0":48
					},
					"indices":49,
					"material":12
				}
			]
		},
		{
			"name":"Cone.009",
			"primitives":[
				{
					"attributes":{
						"POSITION":50,
						"NORMAL":51,
						"TEXCOORD_0":52
					},
					"indices":53,
					"material":13
				}
			]
		},
		{
			"name":"Cone.010",
			"primitives":[
				{
					"attributes":{
						"POSITION":54,
						"NORMAL":55,
						"TEXCOORD_0":56
					},
					"indices":57,
					"material":14
				}
			]
		},
		{
			"name":"Cone.011",
			"primitives":[
				{
					"attributes":{
						"POSITION":58,
						"NORMAL":59,
						"TEXCOORD_0":60
					},
					"indices":61,
					"material":15
				}
			]
		},
		{
			"name":"Cone.012",
			"primitives":[
				{
					"attributes":{
						"POSITION":62,
						"NORMAL":63,
						"TEXCOORD_0":64
					},
					"indices":65,
					"material":16
				}
			]
		},
		{
			"name":"Cone.013",
			"primitives":[
				{
					"attributes":{
						"POSITION":66,
						"NORMAL":67,
						"TEXCOORD_0":68
					},
					"indices":69,
					"material":17
				}
			]
		},
		{
			"name":"Cone.014",
			"primitives":[
				{
					"attributes":{
						"POSITION":70,
						"NORMAL":71,
						"TEXCOORD_0":72
					},
					"indices":73,
					"material":18
				}
			]
		},
		{
			"name":"Cone.015",
			"primitives":[
				{
					"attributes":{
						"POSITION":74,
						"NORMAL":75,
						"TEXCOORD_0":76
					},
					"indices":77,
					"material":19
				}
			]
		},
		{
			"name":"Cone.016",
			"primitives":[
				{
					"attributes":{
						"POSITION":78,
						"NORMAL":79,
						"TEXCOORD_0":80
					},
					"indices":81,
					"material":20
				}
			]
		},
		{
			"name":"Cone.017",
			"primitives":[
				{
					"attributes":{
						"POSITION":82,
						"NORMAL":83,
						"TEXCOORD_0":84
					},
					"indices":85,
					"material":21
				}
			]
		},
		{
			"name":"Torus",
			"primitives":[
				{
					"attributes":{
						"POSITION":86,
						"NORMAL":87,
						"TEXCOORD_0":88
					},
					"indices":89,
					"material":22
				}
			]
		},
		{
			"name":"Torus.001",
			"primitives":[
				{
					"attributes":{
						"POSITION":90,
						"NORMAL":91,
						"TEXCOORD_0":92
					},
					"indices":89,
					"material":23
				}
			]
		},
		{
			"name":"Torus.002",
			"primitives":[
				{
					"attributes":{
						"POSITION":93,
						"NORMAL":94,
						"TEXCOORD_0":95
					},
					"indices":89,
					"material":24
				}
			]
		},
		{
			"name":"Cylinder",
			"primitives":[
				{
					"attributes":{
						"POSITION":96,
						"NORMAL":97,
						"TEXCOORD_0":98
					},
					"indices":99,
					"material":25
				}
			]
		},
		{
			"name":"Cylinder.001",
			"primitives":[
				{
					"attributes":{
						"POSITION":100,
						"NORMAL":101,
						"TEXCOORD_0":102
					},
					"indices":99,
					"material":25
				}
			]
		},
		{
			"name":"Cylinder.002",
			"primitives":[
				{
					"attributes":{
						"POSITION":103,
						"NORMAL":104,
						"TEXCOORD_0":105
					},
					"indices":99,
					"material":25
				}
			]
		},
		{
			"name":"Cylinder.003",
			"primitives":[
				{
					"attributes":{
						"POSITION":106,
						"NORMAL":107,
						"TEXCOORD_0":108
					},
					"indices":99,
					"material":25
				}
			]
		},
		{
			"name":"Cylinder.004",
			"primitives":[
				{
					"attributes":{
						"POSITION":109,
						"NORMAL":110,
						"TEXCOORD_0":111
					},
					"indices":99,
					"material":25
				}
			]
		}
	],
	"accessors":[
		{
			"bufferView":0,
			"componentType":5126,
			"count":60,
			"max":[
				1.0634539127349854,
				4.400000095367432,
				-0.01935809850692749
			],
			"min":[
				0.866680383682251,
				4.160000324249268,
				-0.2064988911151886
			],
			"type":"VEC3"
		},
		{
			"bufferView":1,
			"componentType":5126,
			"count":60,
			"type":"VEC3"
		},
		{
			"bufferView":2,
			"componentType":5126,
			"count":60,
			"type":"VEC2"
		},
		{
			"bufferView":3,
			"componentType":5123,
			"count":60,
			"type":"SCALAR"
		},
		{
			"bufferView":4,
			"componentType":5126,
			"count":60,
			"max":[
				0.7806865572929382,
				4.400000095367432,
				-0.06812888383865356
			],
			"min":[
				0.5839130282402039,
				4.160000324249268,
				-0.2552696764469147
			],
			"type":"VEC3"
		},
		{
			"bufferView":5,
			"componentType":5126,
			"count":60,
			"type":"VEC3"
		},
		{
			"bufferView":6,
			"componentType":5126,
			"count":60,
			"type":"VEC2"
		},
		{
			"bufferView":7,
			"componentType":5126,
			"count":60,
			"max":[
				0.8369202017784119,
				4.400000095367432,
				0.28389081358909607
			],
			"min":[
				0.6401466727256775,
				4.160000324249268,
				0.09675002098083496
			],
			"type":"VEC3"
		},
		{
			"bufferView":8,
			"componentType":5126,
			"count":60,
			"type":"VEC3"
		},
		{
			"bufferView":9,
			"componentType":5126,
			"count":60,
			"type":"VEC2"
		},
		{
			"bufferView":10,
			"componentType":5126,
			"count":22,
			"max":[
				1.100433588027954,
				4.7003607749938965,
				0.21925628185272217
			],
			"min":[
				0.4850305914878845,
				4.249168872833252,
				-0.2995010018348694
			],
			"type":"VEC3"
		},
		{
			"bufferView":11,
			"componentType":5126,
			"count":22,
			"type":"VEC3"
		},
		{
			"bufferView":12,
			"componentType":5126,
			"count":22,
			"type":"VEC2"
		},
		{
			"bufferView":13,
			"componentType":5123,
			"count":60,
			"type":"SCALAR"
		},
		{
			"bufferView":14,
			"componentType":5126,
			"count":30,
			"max":[
				1.6272194385528564,
				4.831399917602539,
				0.3041907250881195
			],
			"min":[
				1.1353189945220947,
				4.198927879333496,
				-0.31016793847084045
			],
			"type":"VEC3"
		},
		{
			"bufferView":15,
			"componentType":5126,
			"count":30,
			"type":"VEC3"
		},
		{
			"bufferView":16,
			"componentType":5126,
			"count":30,
			"type":"VEC2"
		},
		{
			"bufferView":17,
			"componentType":5123,
			"count":48,
			"type":"SCALAR"
		},
		{
			"bufferView":18,
			"componentType":5126,
			"count":30,
			"max":[
				2.3964898586273193,
				4.4982099533081055,
				0.2364322692155838
			],
			"min":[
				2.0344290733337402,
				4.160869121551514,
				-0.1598602831363678
			],
			"type":"VEC3"
		},
		{
			"bufferView":19,
			"componentType":5126,
			"count":30,
			"type":"VEC3"
		},
		{
			"bufferView":20,
			"componentType":5126,
			"count":30,
			"type":"VEC2"
		},
		{
			"bufferView":21,
			"componentType":5123,
			"count":48,
			"type":"SCALAR"
		},
		{
			"bufferView":22,
			"componentType":5126,
			"count":30,
			"max":[
				1.6098700761795044,
				4.81018590927124,
				-0.17584195733070374
			],
			"min":[
				1.0649782419204712,
				4.207840919494629,
				-0.7410937547683716
			],
			"type":"VEC3"
		},
		{
			"bufferView":23,
			"componentType":5126,
			"count":30,
			"type":"VEC3"
		},
		{
			"bufferView":24,
			"componentType":5126,
			"count":30,
			"type":"VEC2"
		},
		{
			"bufferView":25,
			"componentType":5123,
			"count":48,
			"type":"SCALAR"
		},
		{
			"bufferView":26,
			"componentType":5126,
			"count":30,
			"max":[
				1.9984240531921387,
				4.473762035369873,
				-0.7705243825912476
			],
			"min":[
				1.586383581161499,
				4.069179058074951,
				-1.0536435842514038
			],
			"type":"VEC3"
		},
		{
			"bufferView":27,
			"componentType":5126,
			"count":30,
			"type":"VEC3"
		},
		{
			"bufferView":28,
			"componentType":5126,
			"count":30,
			"type":"VEC2"
		},
		{
			"bufferView":29,
			"componentType":5123,
			"count":48,
			"type":"SCALAR"
		},
		{
			"bufferView":30,
			"componentType":5126,
			"count":30,
			"max":[
				1.1943821907043457,
				4.836344242095947,
				-0.32861101627349854
			],
			"min":[
				0.5642212629318237,
				4.207666397094727,
				-0.8238615393638611
			],
			"type":"VEC3"
		},
		{
			"bufferView":31,
			"componentType":5126,
			"count":30,
			"type":"VEC3"
		},
		{
			"bufferView":32,
			"componentType":5126,
			"count":30,
			"type":"VEC2"
		},
		{
			"bufferView":33,
			"componentType":5123,
			"count":48,
			"type":"SCALAR"
		},
		{
			"bufferView":34,
			"componentType":5126,
			"count":30,
			"max":[
				1.1540025472640991,
				4.449300765991211,
				-1.2119768857955933
			],
			"min":[
				0.774702787399292,
				4.121148586273193,
				-1.5491334199905396
			],
			"type":"VEC3"
		},
		{
			"bufferView":35,
			"componentType":5126,
			"count":30,
			"type":"VEC3"
		},
		{
			"bufferView":36,
			"componentType":5126,
			"count":30,
			"type":"VEC2"
		},
		{
			"bufferView":37,
			"componentType":5123,
			"count":48,
			"type":"SCALAR"
		},
		{
			"bufferView":38,
			"componentType":5126,
			"count":30,
			"max":[
				0.8558918833732605,
				4.771322727203369,
				-0.28714871406555176
			],
			"min":[
				0.2216935157775879,
				4.175243377685547,
				-0.8091768026351929
			],
			"type":"VEC3"
		},
		{
			"bufferView":39,
			"componentType":5126,
			"count":30,
			"type":"VEC3"
		},
		{
			"bufferView":40,
			"componentType":5126,
			"count":30,
			"type":"VEC2"
		},
		{
			"bufferView":41,
			"componentType":5123,
			"count":48,
			"type":"SCALAR"
		},
		{
			"bufferView":42,
			"componentType":5126,
			"count":30,
			"max":[
				0.44853854179382324,
				4.448533535003662,
				-1.1219247579574585
			],
			"min":[
				0.13425259292125702,
				4.069339275360107,
				-1.4400769472122192
			],
			"type":"VEC3"
		},
		{
			"bufferView":43,
			"componentType":5126,
			"count":30,
			"type":"VEC3"
		},
		{
			"bufferView":44,
			"componentType":5126,
			"count":30,
			"type":"VEC2"
		},
		{
			"bufferView":45,
			"componentType":5123,
			"count":48,
			"type":"SCALAR"
		},
		{
			"bufferView":46,
			"componentType":5126,
			"count":30,
			"max":[
				0.4940637946128845,
				4.825587749481201,
				-0.0858517438173294
			],
			"min":[
				-0.07180139422416687,
				4.21589469909668,
				-0.6345086097717285
			],
			"type":"VEC3"
		},
		{
			"bufferView":47,
			"componentType":5126,
			"count":30,
			"type":"VEC3"
		},
		{
			"bufferView":48,
			"componentType":5126,
			"count":30,
			"type":"VEC2"
		},
		{
			"bufferView":49,
			"componentType":5123,
			"count":48,
			"type":"SCALAR"
		},
		{
			"bufferView":50,
			"componentType":5126,
			"count":30,
			"max":[
				-0.26685649156570435,
				4.460262298583984,
				-0.4560670554637909
			],
			"min":[
				-0.663568377494812,
				4.065323352813721,
				-0.7868130207061768
			],
			"type":"VEC3"
		},
		{
			"bufferView":51,
			"componentType":5126,
			"count":30,
			"type":"VEC3"
		},
		{
			"bufferView":52,
			"componentType":5126,
			"count":30,
			"type":"VEC2"
		},
		{
			"bufferView":53,
			"componentType":5123,
			"count":48,
			"type":"SCALAR"
		},
		{
			"bufferView":54,
			"componentType":5126,
			"count":30,
			"max":[
				0.48047804832458496,
				4.813640117645264,
				0.47381192445755005
			],
			"min":[
				-0.038821130990982056,
				4.1880412101745605,
				-0.10312175750732422
			],
			"type":"VEC3"
		},
		{
			"bufferView":55,
			"componentType":5126,
			"count":30,
			"type":"VEC3"
		},
		{
			"bufferView":56,
			"componentType":5126,
			"count":30,
			"type":"VEC2"
		},
		{
			"bufferView":57,
			"componentType":5123,
			"count":48,
			"type":"SCALAR"
		},
		{
			"bufferView":58,
			"componentType":5126,
			"count":30,
			"max":[
				-0.38995248079299927,
				4.528130531311035,
				0.5689470767974854
			],
			"min":[
				-0.7558730244636536,
				4.196828365325928,
				0.25586408376693726
			],
			"type":"VEC3"
		},
		{
			"bufferView":59,
			"componentType":5126,
			"count":30,
			"type":"VEC3"
		},
		{
			"bufferView":60,
			"componentType":5126,
			"count":30,
			"type":"VEC2"
		},
		{
			"bufferView":61,
			"componentType":5123,
			"count":48,
			"type":"SCALAR"
		},
		{
			"bufferView":62,
			"componentType":5126,
			"count":30,
			"max":[
				0.7807871103286743,
				4.819389343261719,
				0.7730298042297363
			],
			"min":[
				0.15516385436058044,
				4.2150750160217285,
				0.25929516553878784
			],
			"type":"VEC3"
		},
		{
			"bufferView":63,
			"componentType":5126,
			"count":30,
			"type":"VEC3"
		},
		{
			"bufferView":64,
			"componentType":5126,
			"count":30,
			"type":"VEC2"
		},
		{
			"bufferView":65,
			"componentType":5123,
			"count":48,
			"type":"SCALAR"
		},
		{
			"bufferView":66,
			"componentType":5126,
			"count":30,
			"max":[
				0.3489786386489868,
				4.338058948516846,
				1.3951811790466309
			],
			"min":[
				0.015087991952896118,
				3.9303977489471436,
				1.0500364303588867
			],
			"type":"VEC3"
		},
		{
			"bufferView":67,
			"componentType":5126,
			"count":30,
			"type":"VEC3"
		},
		{
			"bufferView":68,
			"componentType":5126,
			"count":30,
			"type":"VEC2"
		},
		{
			"bufferView":69,
			"componentType":5123,
			"count":48,
			"type":"SCALAR"
		},
		{
			"bufferView":70,
			"componentType":5126,
			"count":30,
			"max":[
				1.1948072910308838,
				4.8084821701049805,
				0.8113968372344971
			],
			"min":[
				0.5539687871932983,
				4.186302185058594,
				0.3314540684223175
			],
			"type":"VEC3"
		},
		{
			"bufferView":71,
			"componentType":5126,
			"count":30,
			"type":"VEC3"
		},
		{
			"bufferView":72,
			"componentType":5126,
			"count":30,
			"type":"VEC2"
		},
		{
			"bufferView":73,
			"componentType":5123,
			"count":48,
			"type":"SCALAR"
		},
		{
			"bufferView":74,
			"componentType":5126,
			"count":30,
			"max":[
				1.1170672178268433,
				4.488969802856445,
				1.5970991849899292
			],
			"min":[
				0.7126155495643616,
				4.147806644439697,
				1.2550297975540161
			],
			"type":"VEC3"
		},
		{
			"bufferView":75,
			"componentType":5126,
			"count":30,
			"type":"VEC3"
		},
		{
			"bufferView":76,
			"componentType":5126,
			"count":30,
			"type":"VEC2"
		},
		{
			"bufferView":77,
			"componentType":5123,
			"count":48,
			"type":"SCALAR"
		},
		{
			"bufferView":78,
			"componentType":5126,
			"count":30,
			"max":[
				1.5773296356201172,
				4.7674946784973145,
				0.6821107864379883
			],
			"min":[
				1.0679346323013306,
				4.171651840209961,
				0.15209519863128662
			],
			"type":"VEC3"
		},
		{
			"bufferView":79,
			"componentType":5126,
			"count":30,
			"type":"VEC3"
		},
		{
			"bufferView":80,
			"componentType":5126,
			"count":30,
			"type":"VEC2"
		},
		{
			"bufferView":81,
			"componentType":5123,
			"count":48,
			"type":"SCALAR"
		},
		{
			"bufferView":82,
			"componentType":5126,
			"count":30,
			"max":[
				2.0442516803741455,
				4.314929962158203,
				0.9806685447692871
			],
			"min":[
				1.6319622993469238,
				3.901456117630005,
				0.7138813138008118
			],
			"type":"VEC3"
		},
		{
			"bufferView":83,
			"componentType":5126,
			"count":30,
			"type":"VEC3"
		},
		{
			"bufferView":84,
			"componentType":5126,
			"count":30,
			"type":"VEC2"
		},
		{
			"bufferView":85,
			"componentType":5123,
			"count":48,
			"type":"SCALAR"
		},
		{
			"bufferView":86,
			"componentType":5126,
			"count":128,
			"max":[
				0.20749999582767487,
				1.1200000047683716,
				0.1574999988079071
			],
			"min":[
				-0.10750000178813934,
				1.0800000429153442,
				-0.1574999988079071
			],
			"type":"VEC3"
		},
		{
			"bufferView":87,
			"componentType":5126,
			"count":128,
			"type":"VEC3"
		},
		{
			"bufferView":88,
			"componentType":5126,
			"count":128,
			"type":"VEC2"
		},
		{
			"bufferView":89,
			"componentType":5123,
			"count":192,
			"type":"SCALAR"
		},
		{
			"bufferView":90,
			"componentType":5126,
			"count":128,
			"max":[
				0.3449999988079071,
				2.2200000286102295,
				0.14499999582767487
			],
			"min":[
				0.05500000715255737,
				2.180000066757202,
				-0.14499999582767487
			],
			"type":"VEC3"
		},
		{
			"bufferView":91,
			"componentType":5126,
			"count":128,
			"type":"VEC3"
		},
		{
			"bufferView":92,
			"componentType":5126,
			"count":128,
			"type":"VEC2"
		},
		{
			"bufferView":93,
			"componentType":5126,
			"count":128,
			"max":[
				0.5824999809265137,
				3.319999933242798,
				0.13249999284744263
			],
			"min":[
				0.3174999952316284,
				3.2799999713897705,
				-0.13249999284744263
			],
			"type":"VEC3"
		},
		{
			"bufferView":94,
			"componentType":5126,
			"count":128,
			"type":"VEC3"
		},
		{
			"bufferView":95,
			"componentType":5126,
			"count":128,
			"type":"VEC2"
		},
		{
			"bufferView":96,
			"componentType":5126,
			"count":38,
			"max":[
				0.18341732025146484,
				0.9155141115188599,
				0.15974774956703186
			],
			"min":[
				-0.1514173150062561,
				-0.03551408648490906,
				-0.17000000178813934
			],
			"type":"VEC3"
		},
		{
			"bufferView":97,
			"componentType":5126,
			"count":38,
			"type":"VEC3"
		},
		{
			"bufferView":98,
			"componentType":5126,
			"count":38,
			"type":"VEC2"
		},
		{
			"bufferView":99,
			"componentType":5123,
			"count":96,
			"type":"SCALAR"
		},
		{
			"bufferView":100,
			"componentType":5126,
			"count":38,
			"max":[
				0.2336300015449524,
				1.7980191707611084,
				0.14659205079078674
			],
			"min":[
				-0.07362999767065048,
				0.8419806957244873,
				-0.15600000321865082
			],
			"type":"VEC3"
		},
		{
			"bufferView":101,
			"componentType":5126,
			"count":38,
			"type":"VEC3"
		},
		{
			"bufferView":102,
			"componentType":5126,
			"count":38,
			"type":"VEC2"
		},
		{
			"bufferView":103,
			"componentType":5126,
			"count":38,
			"max":[
				0.3478426933288574,
				2.682990789413452,
				0.13343635201454163
			],
			"min":[
				0.06815730035305023,
				1.7170093059539795,
				-0.1420000046491623
			],
			"type":"VEC3"
		},
		{
			"bufferView":104,
			"componentType":5126,
			"count":38,
			"type":"VEC3"
		},
		{
			"bufferView":105,
			"componentType":5126,
			"count":38,
			"type":"VEC2"
		},
		{
			"bufferView":106,
			"componentType":5126,
			"count":38,
			"max":[
				0.5260553956031799,
				3.5703530311584473,
				0.1202806606888771
			],
			"min":[
				0.273944616317749,
				2.589646816253662,
				-0.12800000607967377
			],
			"type":"VEC3"
		},
		{
			"bufferView":107,
			"componentType":5126,
			"count":38,
			"type":"VEC3"
		},
		{
			"bufferView":108,
			"componentType":5126,
			"count":38,
			"type":"VEC2"
		},
		{
			"bufferView":109,
			"componentType":5126,
			"count":38,
			"max":[
				0.7682681083679199,
				4.460001468658447,
				0.10712496191263199
			],
			"min":[
				0.5437319278717041,
				3.459998607635498,
				-0.11400000005960464
			],
			"type":"VEC3"
		},
		{
			"bufferView":110,
			"componentType":5126,
			"count":38,
			"type":"VEC3"
		},
		{
			"bufferView":111,
			"componentType":5126,
			"count":38,
			"type":"VEC2"
		}
	],
	"bufferViews":[
		{
			"buffer":0,
			"byteLength":720,
			"byteOffset":0,
			"target":34962
		},
		{
			"buffer":0,
			"byteLength":720,
			"byteOffset":720,
			"target":34962
		},
		{
			"buffer":0,
			"byteLength":480,
			"byteOffset":1440,
			"target":34962
		},
		{
			"buffer":0,
			"byteLength":120,
			"byteOffset":1920,
			"target":34963
		},
		{
			"buffer":0,
			"byteLength":720,
			"byteOffset":2040,
			"target":34962
		},
		{
			"buffer":0,
			"byteLength":720,
			"byteOffset":2760,
			"target":34962
		},
		{
			"buffer":0,
			"byteLength":480,
			"byteOffset":3480,
			"target":34962
		},
		{
			"buffer":0,
			"byteLength":720,
			"byteOffset":3960,
			"target":34962
		},
		{
			"buffer":0,
			"byteLength":720,
			"byteOffset":4680,
			"target":34962
		},
		{
			"buffer":0,
			"byteLength":480,
			"byteOffset":5400,
			"target":34962
		},
		{
			"buffer":0,
			"byteLength":264,
			"byteOffset":5880,
			"target":34962
		},
		{
			"buffer":0,
			"byteLength":264,
			"byteOffset":6144,
			"target":34962
		},
		{
			"buffer":0,
			"byteLength":176,
			"byteOffset":6408,
			"target":34962
		},
		{
			"buffer":0,
			"byteLength":120,
			"byteOffset":6584,
			"target":34963
		},
		{
			"buffer":0,
			"byteLength":360,
			"byteOffset":6704,
			"target":34962
		},
		{
			"buffer":0,
			"byteLength":360,
			"byteOffset":7064,
			"target":34962
		},
		{
			"buffer":0,
			"byteLength":240,
			"byteOffset":7424,
			"target":34962
		},
		{
			"buffer":0,
			"byteLength":96,
			"byteOffset":7664,
			"target":34963
		},
		{
			"buffer":0,
			"byteLength":360,
			"byteOffset":7760,
			"target":34962
		},
		{
			"buffer":0,
			"byteLength":360,
			"byteOffset":8120,
			"target":34962
		},
		{
			"buffer":0,
			"byteLength":240,
			"byteOffset":8480,
			"target":34962
		},
		{
			"buffer":0,
			"byteLength":96,
			"byteOffset":8720,
			"target":34963
		},
		{
			"buffer":0,
			"byteLength":360,
			"byteOffset":8816,
			"target":34962
		},
		{
			"buffer":0,
			"byteLength":360,
			"byteOffset":9176,
			"target":34962
		},
		{
			"buffer":0,
			"byteLength":240,
			"byteOffset":9536,
			"target":34962
		},
		{
			"buffer":0,
			"byteLength":96,
			"byteOffset":9776,
			"target":34963
		},
		{
			"buffer":0,
			"byteLength":360,
			"byteOffset":9872,
			"target":34962
		},
		{
			"buffer":0,
			"byteLength":360,
			"byteOffset":10232,
			"target":34962
		},
		{
			"buffer":0,
			"byteLength":240,
			"byteOffset":10592,
			"target":34962
		},
		{
			"buffer":0,
			"byteLength":96,
			"byteOffset":10832,
			"target":34963
		},
		{
			"buffer":0,
			"byteLength":360,
			"byteOffset":10928,
			"target":34962
		},
		{
			"buffer":0,
			"byteLength":360,
			"byteOffset":11288,
			"target":34962
		},
		{
			"buffer":0,
			"byteLength":240,
			"byteOffset":11648,
			"target":34962
		},
		{
			"buffer":0,
			"byteLength":96,
			"byteOffset":11888,
			"target":34963
		},
		{
			"buffer":0,
			"byteLength":360,
			"byteOffset":11984,
			"target":34962
		},
		{
			"buffer":0,
			"byteLength":360,
			"byteOffset":12344,
			"target":34962
		},
		{
			"buffer":0,
			"byteLength":240,
			"byteOffset":12704,
			"target":34962
		},
		{
			"buffer":0,
			"byteLength":96,
			"byteOffset":12944,
			"target":34963
		},
		{
			"buffer":0,
			"byteLength":360,
			"byteOffset":13040,
			"target":34962
		},
		{
			"buffer":0,
			"byteLength":360,
			"byteOffset":13400,
			"target":34962
		},
		{
			"buffer":0,
			"byteLength":240,
			"byteOffset":13760,
			"target":34962
		},
		{
			"buffer":0,
			"byteLength":96,
			"byteOffset":14000,
			"target":34963
		},
		{
			"buffer":0,
			"byteLength":360,
			"byteOffset":14096,
			"target":34962
		},
		{
			"buffer":0,
			"byteLength":360,
			"byteOffset":14456,
			"target":34962
		},
		{
			"buffer":0,
			"byteLength":240,
			"byteOffset":14816,
			"target":34962
		},
		{
			"buffer":0,
			"byteLength":96,
			"byteOffset":15056,
			"target":34963
		},
		{
			"buffer":0,
			"byteLength":360,
			"byteOffset":15152,
			"target":34962
		},
		{
			"buffer":0,
			"byteLength":360,
			"byteOffset":15512,
			"target":34962
		},
		{
			"buffer":0,
			"byteLength":240,
			"byteOffset":15872,
			"target":34962
		},
		{
			"buffer":0,
			"byteLength":96,
			"byteOffset":16112,
			"target":34963
		},
		{
			"buffer":0,
			"byteLength":360,
			"byteOffset":16208,
			"target":34962
		},
		{
			"buffer":0,
			"byteLength":360,
			"byteOffset":16568,
			"target":34962
		},
		{
			"buffer":0,
			"byteLength":240,
			"byteOffset":16928,
			"target":34962
		},
		{
			"buffer":0,
			"byteLength":96,
			"byteOffset":17168,
			"target":34963
		},
		{
			"buffer":0,
			"byteLength":360,
			"byteOffset":17264,
			"target":34962
		},
		{
			"buffer":0,
			"byteLength":360,
			"byteOffset":17624,
			"target":34962
		},
		{
			"buffer":0,
			"byteLength":240,
			"byteOffset":17984,
			"target":34962
		},
		{
			"buffer":0,
			"byteLength":96,
			"byteOffset":18224,
			"target":34963
		},
		{
			"buffer":0,
			"byteLength":360,
			"byteOffset":18320,
			"target":34962
		},
		{
			"buffer":0,
			"byteLength":360,
			"byteOffset":18680,
			"target":34962
		},
		{
			"buffer":0,
			"byteLength":240,
			"byteOffset":19040,
			"target":34962
		},
		{
			"buffer":0,
			"byteLength":96,
			"byteOffset":19280,
			"target":34963
		},
		{
			"buffer":0,
			"byteLength":360,
			"byteOffset":19376,
			"target":34962
		},
		{
			"buffer":0,
			"byteLength":360,
			"byteOffset":19736,
			"target":34962
		},
		{
			"buffer":0,
			"byteLength":240,
			"byteOffset":20096,
			"target":34962
		},
		{
			"buffer":0,
			"byteLength":96,
			"byteOffset":20336,
			"target":34963
		},
		{
			"buffer":0,
			"byteLength":360,
			"byteOffset":20432,
			"target":34962
		},
		{
			"buffer":0,
			"byteLength":360,
			"byteOffset":20792,
			"target":34962
		},
		{
			"buffer":0,
			"byteLength":240,
			"byteOffset":21152,
			"target":34962
		},
		{
			"buffer":0,
			"byteLength":96,
			"byteOffset":21392,
			"target":34963
		},
		{
			"buffer":0,
			"byteLength":360,
			"byteOffset":21488,
			"target":34962
		},
		{
			"buffer":0,
			"byteLength":360,
			"byteOffset":21848,
			"target":34962
		},
		{
			"buffer":0,
			"byteLength":240,
			"byteOffset":22208,
			"target":34962
		},
		{
			"buffer":0,
			"byteLength":96,
			"byteOffset":22448,
			"target":34963
		},
		{
			"buffer":0,
			"byteLength":360,
			"byteOffset":22544,
			"target":34962
		},
		{
			"buffer":0,
			"byteLength":360,
			"byteOffset":22904,
			"target":34962
		},
		{
			"buffer":0,
			"byteLength":240,
			"byteOffset":23264,
			"target":34962
		},
		{
			"buffer":0,
			"byteLength":96,
			"byteOffset":23504,
			"target":34963
		},
		{
			"buffer":0,
			"byteLength":360,
			"byteOffset":23600,
			"target":34962
		},
		{
			"buffer":0,
			"byteLength":360,
			"byteOffset":23960,
			"target":34962
		},
		{
			"buffer":0,
			"byteLength":240,
			"byteOffset":24320,
			"target":34962
		},
		{
			"buffer":0,
			"byteLength":96,
			"byteOffset":24560,
			"target":34963
		},
		{
			"buffer":0,
			"byteLength":360,
			"byteOffset":24656,
			"target":34962
		},
		{
			"buffer":0,
			"byteLength":360,
			"byteOffset":25016,
			"target":34962
		},
		{
			"buffer":0,
			"byteLength":240,
			"byteOffset":25376,
			"target":34962
		},
		{
			"buffer":0,
			"byteLength":96,
			"byteOffset":25616,
			"target":34963
		},
		{
			"buffer":0,
			"byteLength":1536,
			"byteOffset":25712,
			"target":34962
		},
		{
			"buffer":0,
			"byteLength":1536,
			"byteOffset":27248,
			"target":34962
		},
		{
			"buffer":0,
			"byteLength":1024,
			"byteOffset":28784,
			"target":34962
		},
		{
			"buffer":0,
			"byteLength":384,
			"byteOffset":29808,
			"target":34963
		},
		{
			"buffer":0,
			"byteLength":1536,
			"byteOffset":30192,
			"target":34962
		},
		{
			"buffer":0,
			"byteLength":1536,
			"byteOffset":31728,
			"target":34962
		},
		{
			"buffer":0,
			"byteLength":1024,
			"byteOffset":33264,
			"target":34962
		},
		{
			"buffer":0,
			"byteLength":1536,
			"byteOffset":34288,
			"target":34962
		},
		{
			"buffer":0,
			"byteLength":1536,
			"byteOffset":35824,
			"target":34962
		},
		{
			"buffer":0,
			"byteLength":1024,
			"byteOffset":37360,
			"target":34962
		},
		{
			"buffer":0,
			"byteLength":456,
			"byteOffset":38384,
			"target":34962
		},
		{
			"buffer":0,
			"byteLength":456,
			"byteOffset":38840,
			"target":34962
		},
		{
			"buffer":0,
			"byteLength":304,
			"byteOffset":39296,
			"target":34962
		},
		{
			"buffer":0,
			"byteLength":192,
			"byteOffset":39600,
			"target":34963
		},
		{
			"buffer":0,
			"byteLength":456,
			"byteOffset":39792,
			"target":34962
		},
		{
			"buffer":0,
			"byteLength":456,
			"byteOffset":40248,
			"target":34962
		},
		{
			"buffer":0,
			"byteLength":304,
			"byteOffset":40704,
			"target":34962
		},
		{
			"buffer":0,
			"byteLength":456,
			"byteOffset":41008,
			"target":34962
		},
		{
			"buffer":0,
			"byteLength":456,
			"byteOffset":41464,
			"target":34962
		},
		{
			"buffer":0,
			"byteLength":304,
			"byteOffset":41920,
			"target":34962
		},
		{
			"buffer":0,
			"byteLength":456,
			"byteOffset":42224,
			"target":34962
		},
		{
			"buffer":0,
			"byteLength":456,
			"byteOffset":42680,
			"target":34962
		},
		{
			"buffer":0,
			"byteLength":304,
			"byteOffset":43136,
			"target":34962
		},
		{
			"buffer":0,
			"byteLength":456,
			"byteOffset":43440,
			"target":34962
		},
		{
			"buffer":0,
			"byteLength":456,
			"byteOffset":43896,
			"target":34962
		},
		{
			"buffer":0,
			"byteLength":304,
			"byteOffset":44352,
			"target":34962
		}
	],
	"buffers":[
		{
			"byteLength":44656,
			"uri":"hd_palm_a.bin"
		}
	]
}
