{
	"asset":{
		"generator":"Khronos glTF Blender I/O v5.2.40",
		"version":"2.0"
	},
	"scene":0,
	"scenes":[
		{
			"name":"Scene",
			"nodes":[
				0,
				1,
				2,
				3,
				4,
				5,
				6,
				7,
				8,
				9
			]
		}
	],
	"nodes":[
		{
			"mesh":0,
			"name":"lip0"
		},
		{
			"mesh":1,
			"name":"lip1"
		},
		{
			"mesh":2,
			"name":"lip2"
		},
		{
			"mesh":3,
			"name":"lip3"
		},
		{
			"mesh":4,
			"name":"tier0"
		},
		{
			"mesh":5,
			"name":"tier1"
		},
		{
			"mesh":6,
			"name":"tier2"
		},
		{
			"mesh":7,
			"name":"tier3"
		},
		{
			"mesh":8,
			"name":"tip"
		},
		{
			"mesh":9,
			"name":"trunk"
		}
	],
	"materials":[
		{
			"doubleSided":true,
			"name":"M_tl0",
			"pbrMetallicRoughness":{
				"baseColorFactor":[
					0.023103555664420128,
					0.14799802005290985,
					0.030256519094109535,
					1
				],
				"metallicFactor":0,
				"roughnessFactor":0.8500000238418579
			}
		},
		{
			"doubleSided":true,
			"name":"M_tl1",
			"pbrMetallicRoughness":{
				"baseColorFactor":[
					0.023103555664420128,
					0.14799802005290985,
					0.030256519094109535,
					1
				],
				"metallicFactor":0,
				"roughnessFactor":0.8500000238418579
			}
		},
		{
			"doubleSided":true,
			"name":"M_tl2",
			"pbrMetallicRoughness":{
				"baseColorFactor":[
					0.023103555664420128,
					0.14799802005290985,
					0.030256519094109535,
					1
				],
				"metallicFactor":0,
				"roughnessFactor":0.8500000238418579
			}
		},
		{
			"doubleSided":true,
			"name":"M_tl3",
			"pbrMetallicRoughness":{
				"baseColorFactor":[
					0.023103555664420128,
					0.14799802005290985,
					0.030256519094109535,
					1
				],
				"metallicFactor":0,
				"roughnessFactor":0.8500000238418579
			}
		},
		{
			"doubleSided":true,
			"name":"M_tg0",
			"pbrMetallicRoughness":{
				"baseColorFactor":[
					0.09387587010860443,
					0.48776519298553467,
					0.05637409910559654,
					1
				],
				"metallicFactor":0,
				"roughnessFactor":0.8500000238418579
			}
		},
		{
			"doubleSided":true,
			"name":"M_tg1",
			"pbrMetallicRoughness":{
				"baseColorFactor":[
					0.023103555664420128,
					0.14799802005290985,
					0.030256519094109535,
					1
				],
				"metallicFactor":0,
				"roughnessFactor":0.8500000238418579
			}
		},
		{
			"doubleSided":true,
			"name":"M_tg2",
			"pbrMetallicRoughness":{
				"baseColorFactor":[
					0.09387587010860443,
					0.48776519298553467,
					0.05637409910559654,
					1
				],
				"metallicFactor":0,
				"roughnessFactor":0.8500000238418579
			}
		},
		{
			"doubleSided":true,
			"name":"M_tg3",
			"pbrMetallicRoughness":{
				"baseColorFactor":[
					0.023103555664420128,
					0.14799802005290985,
					0.030256519094109535,
					1
				],
				"metallicFactor":0,
				"roughnessFactor":0.8500000238418579
			}
		},
		{
			"doubleSided":true,
			"name":"M_tip",
			"pbrMetallicRoughness":{
				"baseColorFactor":[
					0.09387587010860443,
					0.48776519298553467,
					0.05637409910559654,
					1
				],
				"metallicFactor":0,
				"roughnessFactor":0.8500000238418579
			}
		},
		{
			"doubleSided":true,
			"name":"M_pt",
			"pbrMetallicRoughness":{
				"baseColorFactor":[
					0.11129941791296005,
					0.041451890021562576,
					0.011881334707140923,
					1
				],
				"metallicFactor":0,
				"roughnessFactor":0.8500000238418579
			}
		}
	],
	"meshes":[
		{
			"name":"Cone.002",
			"primitives":[
				{
					"attributes":{
						"POSITION":0,
						"NORMAL":1,
						"TEXCOORD_0":2
					},
					"indices":3,
					"material":0
				}
			]
		},
		{
			"name":"Cone.004",
			"primitives":[
				{
					"attributes":{
						"POSITION":4,
						"NORMAL":5,
						"TEXCOORD_0":6
					},
					"indices":3,
					"material":1
				}
			]
		},
		{
			"name":"Cone.006",
			"primitives":[
				{
					"attributes":{
						"POSITION":7,
						"NORMAL":8,
						"TEXCOORD_0":9
					},
					"indices":3,
					"material":2
				}
			]
		},
		{
			"name":"Cone.008",
			"primitives":[
				{
					"attributes":{
						"POSITION":10,
						"NORMAL":11,
						"TEXCOORD_0":12
					},
					"indices":3,
					"material":3
				}
			]
		},
		{
			"name":"Cone.001",
			"primitives":[
				{
					"attributes":{
						"POSITION":13,
						"NORMAL":14,
						"TEXCOORD_0":15
					},
					"indices":16,
					"material":4
				}
			]
		},
		{
			"name":"Cone.003",
			"primitives":[
				{
					"attributes":{
						"POSITION":17,
						"NORMAL":18,
						"TEXCOORD_0":19
					},
					"indices":20,
					"material":5
				}
			]
		},
		{
			"name":"Cone.005",
			"primitives":[
				{
					"attributes":{
						"POSITION":21,
						"NORMAL":22,
						"TEXCOORD_0":23
					},
					"indices":24,
					"material":6
				}
			]
		},
		{
			"name":"Cone.007",
			"primitives":[
				{
					"attributes":{
						"POSITION":25,
						"NORMAL":26,
						"TEXCOORD_0":27
					},
					"indices":28,
					"material":7
				}
			]
		},
		{
			"name":"Cone.009",
			"primitives":[
				{
					"attributes":{
						"POSITION":29,
						"NORMAL":30,
						"TEXCOORD_0":31
					},
					"indices":32,
					"material":8
				}
			]
		},
		{
			"name":"Cone",
			"primitives":[
				{
					"attributes":{
						"POSITION":33,
						"NORMAL":34,
						"TEXCOORD_0":35
					},
					"indices":36,
					"material":9
				}
			]
		}
	],
	"accessors":[
		{
			"bufferView":0,
			"componentType":5126,
			"count":54,
			"max":[
				1.1778299808502197,
				1.531999945640564,
				1.1238723993301392
			],
			"min":[
				-1.1778299808502197,
				1.1288000345230103,
				-1.1959999799728394
			],
			"type":"VEC3"
		},
		{
			"bufferView":1,
			"componentType":5126,
			"count":54,
			"type":"VEC3"
		},
		{
			"bufferView":2,
			"componentType":5126,
			"count":54,
			"type":"VEC2"
		},
		{
			"bufferView":3,
			"componentType":5123,
			"count":96,
			"type":"SCALAR"
		},
		{
			"bufferView":4,
			"componentType":5126,
			"count":54,
			"max":[
				0.9658206105232239,
				2.2760000228881836,
				0.9215753078460693
			],
			"min":[
				-0.9658206105232239,
				1.8727999925613403,
				-0.9807199835777283
			],
			"type":"VEC3"
		},
		{
			"bufferView":5,
			"componentType":5126,
			"count":54,
			"type":"VEC3"
		},
		{
			"bufferView":6,
			"componentType":5126,
			"count":54,
			"type":"VEC2"
		},
		{
			"bufferView":7,
			"componentType":5126,
			"count":54,
			"max":[
				0.753811240196228,
				3.0199999809265137,
				0.7192782759666443
			],
			"min":[
				-0.753811240196228,
				2.616799831390381,
				-0.7654399871826172
			],
			"type":"VEC3"
		},
		{
			"bufferView":8,
			"componentType":5126,
			"count":54,
			"type":"VEC3"
		},
		{
			"bufferView":9,
			"componentType":5126,
			"count":54,
			"type":"VEC2"
		},
		{
			"bufferView":10,
			"componentType":5126,
			"count":54,
			"max":[
				0.5418018102645874,
				3.764000177383423,
				0.516981303691864
			],
			"min":[
				-0.5418018102645874,
				3.36080002784729,
				-0.5501599907875061
			],
			"type":"VEC3"
		},
		{
			"bufferView":11,
			"componentType":5126,
			"count":54,
			"type":"VEC3"
		},
		{
			"bufferView":12,
			"componentType":5126,
			"count":54,
			"type":"VEC2"
		},
		{
			"bufferView":13,
			"componentType":5126,
			"count":54,
			"max":[
				1.1194391250610352,
				2.56896710395813,
				1.1046044826507568
			],
			"min":[
				-1.1104726791381836,
				1.0856295824050903,
				-1.1654772758483887
			],
			"type":"VEC3"
		},
		{
			"bufferView":14,
			"componentType":5126,
			"count":54,
			"type":"VEC3"
		},
		{
			"bufferView":15,
			"componentType":5126,
			"count":54,
			"type":"VEC2"
		},
		{
			"bufferView":16,
			"componentType":5123,
			"count":96,
			"type":"SCALAR"
		},
		{
			"bufferView":17,
			"componentType":5126,
			"count":54,
			"max":[
				0.944410502910614,
				3.310716152191162,
				0.9022781848907471
			],
			"min":[
				-0.9514203071594238,
				1.8155266046524048,
				-0.9638460278511047
			],
			"type":"VEC3"
		},
		{
			"bufferView":18,
			"componentType":5126,
			"count":54,
			"type":"VEC3"
		},
		{
			"bufferView":19,
			"componentType":5126,
			"count":54,
			"type":"VEC2"
		},
		{
			"bufferView":20,
			"componentType":5123,
			"count":96,
			"type":"SCALAR"
		},
		{
			"bufferView":21,
			"componentType":5126,
			"count":54,
			"max":[
				0.7206586599349976,
				4.047891139984131,
				0.7134119272232056
			],
			"min":[
				-0.7335912585258484,
				2.5601556301116943,
				-0.762869656085968
			],
			"type":"VEC3"
		},
		{
			"bufferView":22,
			"componentType":5126,
			"count":54,
			"type":"VEC3"
		},
		{
			"bufferView":23,
			"componentType":5126,
			"count":54,
			"type":"VEC2"
		},
		{
			"bufferView":24,
			"componentType":5123,
			"count":96,
			"type":"SCALAR"
		},
		{
			"bufferView":25,
			"componentType":5126,
			"count":54,
			"max":[
				0.5411509275436401,
				4.801459789276123,
				0.5252366662025452
			],
			"min":[
				-0.5133643746376038,
				3.3101582527160645,
				-0.5316537618637085
			],
			"type":"VEC3"
		},
		{
			"bufferView":26,
			"componentType":5126,
			"count":54,
			"type":"VEC3"
		},
		{
			"bufferView":27,
			"componentType":5126,
			"count":54,
			"type":"VEC2"
		},
		{
			"bufferView":28,
			"componentType":5123,
			"count":96,
			"type":"SCALAR"
		},
		{
			"bufferView":29,
			"componentType":5126,
			"count":48,
			"max":[
				0.29899999499320984,
				4.992000102996826,
				0.29899999499320984
			],
			"min":[
				-0.29899999499320984,
				3.936000347137451,
				-0.29899999499320984
			],
			"type":"VEC3"
		},
		{
			"bufferView":30,
			"componentType":5126,
			"count":48,
			"type":"VEC3"
		},
		{
			"bufferView":31,
			"componentType":5126,
			"count":48,
			"type":"VEC2"
		},
		{
			"bufferView":32,
			"componentType":5123,
			"count":84,
			"type":"SCALAR"
		},
		{
			"bufferView":33,
			"componentType":5126,
			"count":34,
			"max":[
				0.1599999964237213,
				1.6500000953674316,
				0.1599999964237213
			],
			"min":[
				-0.1599999964237213,
				-0.050000011920928955,
				-0.1599999964237213
			],
			"type":"VEC3"
		},
		{
			"bufferView":34,
			"componentType":5126,
			"count":34,
			"type":"VEC3"
		},
		{
			"bufferView":35,
			"componentType":5126,
			"count":34,
			"type":"VEC2"
		},
		{
			"bufferView":36,
			"componentType":5123,
			"count":84,
			"type":"SCALAR"
		}
	],
	"bufferViews":[
		{
			"buffer":0,
			"byteLength":648,
			"byteOffset":0,
			"target":34962
		},
		{
			"buffer":0,
			"byteLength":648,
			"byteOffset":648,
			"target":34962
		},
		{
			"buffer":0,
			"byteLength":432,
			"byteOffset":1296,
			"target":34962
		},
		{
			"buffer":0,
			"byteLength":192,
			"byteOffset":1728,
			"target":34963
		},
		{
			"buffer":0,
			"byteLength":648,
			"byteOffset":1920,
			"target":34962
		},
		{
			"buffer":0,
			"byteLength":648,
			"byteOffset":2568,
			"target":34962
		},
		{
			"buffer":0,
			"byteLength":432,
			"byteOffset":3216,
			"target":34962
		},
		{
			"buffer":0,
			"byteLength":648,
			"byteOffset":3648,
			"target":34962
		},
		{
			"buffer":0,
			"byteLength":648,
			"byteOffset":4296,
			"target":34962
		},
		{
			"buffer":0,
			"byteLength":432,
			"byteOffset":4944,
			"target":34962
		},
		{
			"buffer":0,
			"byteLength":648,
			"byteOffset":5376,
			"target":34962
		},
		{
			"buffer":0,
			"byteLength":648,
			"byteOffset":6024,
			"target":34962
		},
		{
			"buffer":0,
			"byteLength":432,
			"byteOffset":6672,
			"target":34962
		},
		{
			"buffer":0,
			"byteLength":648,
			"byteOffset":7104,
			"target":34962
		},
		{
			"buffer":0,
			"byteLength":648,
			"byteOffset":7752,
			"target":34962
		},
		{
			"buffer":0,
			"byteLength":432,
			"byteOffset":8400,
			"target":34962
		},
		{
			"buffer":0,
			"byteLength":192,
			"byteOffset":8832,
			"target":34963
		},
		{
			"buffer":0,
			"byteLength":648,
			"byteOffset":9024,
			"target":34962
		},
		{
			"buffer":0,
			"byteLength":648,
			"byteOffset":9672,
			"target":34962
		},
		{
			"buffer":0,
			"byteLength":432,
			"byteOffset":10320,
			"target":34962
		},
		{
			"buffer":0,
			"byteLength":192,
			"byteOffset":10752,
			"target":34963
		},
		{
			"buffer":0,
			"byteLength":648,
			"byteOffset":10944,
			"target":34962
		},
		{
			"buffer":0,
			"byteLength":648,
			"byteOffset":11592,
			"target":34962
		},
		{
			"buffer":0,
			"byteLength":432,
			"byteOffset":12240,
			"target":34962
		},
		{
			"buffer":0,
			"byteLength":192,
			"byteOffset":12672,
			"target":34963
		},
		{
			"buffer":0,
			"byteLength":648,
			"byteOffset":12864,
			"target":34962
		},
		{
			"buffer":0,
			"byteLength":648,
			"byteOffset":13512,
			"target":34962
		},
		{
			"buffer":0,
			"byteLength":432,
			"byteOffset":14160,
			"target":34962
		},
		{
			"buffer":0,
			"byteLength":192,
			"byteOffset":14592,
			"target":34963
		},
		{
			"buffer":0,
			"byteLength":576,
			"byteOffset":14784,
			"target":34962
		},
		{
			"buffer":0,
			"byteLength":576,
			"byteOffset":15360,
			"target":34962
		},
		{
			"buffer":0,
			"byteLength":384,
			"byteOffset":15936,
			"target":34962
		},
		{
			"buffer":0,
			"byteLength":168,
			"byteOffset":16320,
			"target":34963
		},
		{
			"buffer":0,
			"byteLength":408,
			"byteOffset":16488,
			"target":34962
		},
		{
			"buffer":0,
			"byteLength":408,
			"byteOffset":16896,
			"target":34962
		},
		{
			"buffer":0,
			"byteLength":272,
			"byteOffset":17304,
			"target":34962
		},
		{
			"buffer":0,
			"byteLength":168,
			"byteOffset":17576,
			"target":34963
		}
	],
	"buffers":[
		{
			"byteLength":17744,
			"uri":"hd_pine_a.bin"
		}
	]
}
