{
	"asset":{
		"generator":"Khronos glTF Blender I/O v5.2.40",
		"version":"2.0"
	},
	"scene":0,
	"scenes":[
		{
			"name":"Scene",
			"nodes":[
				0,
				1,
				2,
				3,
				4,
				5,
				6,
				7,
				8,
				9,
				10,
				11,
				12,
				13,
				14,
				15,
				16,
				17,
				18,
				19
			]
		}
	],
	"nodes":[
		{
			"mesh":0,
			"name":"dash0"
		},
		{
			"mesh":1,
			"name":"dash1"
		},
		{
			"mesh":2,
			"name":"dash2"
		},
		{
			"mesh":3,
			"name":"dash3"
		},
		{
			"mesh":4,
			"name":"dash4"
		},
		{
			"mesh":5,
			"name":"dash5"
		},
		{
			"mesh":6,
			"name":"dash6"
		},
		{
			"mesh":7,
			"name":"dash7"
		},
		{
			"mesh":8,
			"name":"eline0"
		},
		{
			"mesh":9,
			"name":"eline1"
		},
		{
			"mesh":10,
			"name":"mh0"
		},
		{
			"mesh":11,
			"name":"mh1"
		},
		{
			"mesh":12,
			"name":"mh2"
		},
		{
			"mesh":13,
			"name":"road"
		},
		{
			"mesh":14,
			"name":"tar0"
		},
		{
			"mesh":15,
			"name":"tar1"
		},
		{
			"mesh":16,
			"name":"tar2"
		},
		{
			"mesh":17,
			"name":"tar3"
		},
		{
			"mesh":18,
			"name":"tar4"
		},
		{
			"mesh":19,
			"name":"tar5"
		}
	],
	"materials":[
		{
			"doubleSided":true,
			"name":"M_dash",
			"pbrMetallicRoughness":{
				"baseColorFactor":[
					0.8671355247497559,
					0.7969165444374084,
					0.5859729647636414,
					1
				],
				"metallicFactor":0,
				"roughnessFactor":0.5
			}
		},
		{
			"doubleSided":true,
			"name":"M_el0",
			"pbrMetallicRoughness":{
				"baseColorFactor":[
					0.8671355247497559,
					0.7969165444374084,
					0.5859729647636414,
					1
				],
				"metallicFactor":0,
				"roughnessFactor":0.5
			}
		},
		{
			"doubleSided":true,
			"name":"M_el1",
			"pbrMetallicRoughness":{
				"baseColorFactor":[
					0.8671355247497559,
					0.7969165444374084,
					0.5859729647636414,
					1
				],
				"metallicFactor":0,
				"roughnessFactor":0.5
			}
		},
		{
			"doubleSided":true,
			"name":"M_mh0",
			"pbrMetallicRoughness":{
				"baseColorFactor":[
					0.03423020616173744,
					0.05112205073237419,
					0.07382776588201523,
					1
				],
				"metallicFactor":0.4000000059604645,
				"roughnessFactor":0.3499999940395355
			}
		},
		{
			"doubleSided":true,
			"name":"M_mh1",
			"pbrMetallicRoughness":{
				"baseColorFactor":[
					0.03423020616173744,
					0.05112205073237419,
					0.07382776588201523,
					1
				],
				"metallicFactor":0.4000000059604645,
				"roughnessFactor":0.3499999940395355
			}
		},
		{
			"doubleSided":true,
			"name":"M_mh2",
			"pbrMetallicRoughness":{
				"baseColorFactor":[
					0.03423020616173744,
					0.05112205073237419,
					0.07382776588201523,
					1
				],
				"metallicFactor":0.4000000059604645,
				"roughnessFactor":0.3499999940395355
			}
		},
		{
			"doubleSided":true,
			"name":"M_road",
			"pbrMetallicRoughness":{
				"baseColorFactor":[
					0.06575387716293335,
					0.07592611759901047,
					0.10615606606006622,
					1
				],
				"metallicFactor":0,
				"roughnessFactor":0.550000011920929
			}
		},
		{
			"doubleSided":true,
			"name":"M_tar0",
			"pbrMetallicRoughness":{
				"baseColorFactor":[
					0.038472745567560196,
					0.04614884406328201,
					0.06575387716293335,
					1
				],
				"metallicFactor":0,
				"roughnessFactor":0.699999988079071
			}
		},
		{
			"doubleSided":true,
			"name":"M_tar1",
			"pbrMetallicRoughness":{
				"baseColorFactor":[
					0.038472745567560196,
					0.04614884406328201,
					0.06575387716293335,
					1
				],
				"metallicFactor":0,
				"roughnessFactor":0.699999988079071
			}
		},
		{
			"doubleSided":true,
			"name":"M_tar2",
			"pbrMetallicRoughness":{
				"baseColorFactor":[
					0.038472745567560196,
					0.04614884406328201,
					0.06575387716293335,
					1
				],
				"metallicFactor":0,
				"roughnessFactor":0.699999988079071
			}
		},
		{
			"doubleSided":true,
			"name":"M_tar3",
			"pbrMetallicRoughness":{
				"baseColorFactor":[
					0.038472745567560196,
					0.04614884406328201,
					0.06575387716293335,
					1
				],
				"metallicFactor":0,
				"roughnessFactor":0.699999988079071
			}
		},
		{
			"doubleSided":true,
			"name":"M_tar4",
			"pbrMetallicRoughness":{
				"baseColorFactor":[
					0.038472745567560196,
					0.04614884406328201,
					0.06575387716293335,
					1
				],
				"metallicFactor":0,
				"roughnessFactor":0.699999988079071
			}
		},
		{
			"doubleSided":true,
			"name":"M_tar5",
			"pbrMetallicRoughness":{
				"baseColorFactor":[
					0.038472745567560196,
					0.04614884406328201,
					0.06575387716293335,
					1
				],
				"metallicFactor":0,
				"roughnessFactor":0.699999988079071
			}
		}
	],
	"meshes":[
		{
			"name":"Cube.001",
			"primitives":[
				{
					"attributes":{
						"POSITION":0,
						"NORMAL":1,
						"TEXCOORD_0":2
					},
					"indices":3,
					"material":0
				}
			]
		},
		{
			"name":"Cube.002",
			"primitives":[
				{
					"attributes":{
						"POSITION":4,
						"NORMAL":5,
						"TEXCOORD_0":6
					},
					"indices":3,
					"material":0
				}
			]
		},
		{
			"name":"Cube.003",
			"primitives":[
				{
					"attributes":{
						"POSITION":7,
						"NORMAL":8,
						"TEXCOORD_0":9
					},
					"indices":3,
					"material":0
				}
			]
		},
		{
			"name":"Cube.004",
			"primitives":[
				{
					"attributes":{
						"POSITION":10,
						"NORMAL":11,
						"TEXCOORD_0":12
					},
					"indices":3,
					"material":0
				}
			]
		},
		{
			"name":"Cube.005",
			"primitives":[
				{
					"attributes":{
						"POSITION":13,
						"NORMAL":14,
						"TEXCOORD_0":15
					},
					"indices":3,
					"material":0
				}
			]
		},
		{
			"name":"Cube.006",
			"primitives":[
				{
					"attributes":{
						"POSITION":16,
						"NORMAL":17,
						"TEXCOORD_0":18
					},
					"indices":3,
					"material":0
				}
			]
		},
		{
			"name":"Cube.007",
			"primitives":[
				{
					"attributes":{
						"POSITION":19,
						"NORMAL":20,
						"TEXCOORD_0":21
					},
					"indices":3,
					"material":0
				}
			]
		},
		{
			"name":"Cube.008",
			"primitives":[
				{
					"attributes":{
						"POSITION":22,
						"NORMAL":23,
						"TEXCOORD_0":24
					},
					"indices":3,
					"material":0
				}
			]
		},
		{
			"name":"Cube.009",
			"primitives":[
				{
					"attributes":{
						"POSITION":25,
						"NORMAL":26,
						"TEXCOORD_0":27
					},
					"indices":3,
					"material":1
				}
			]
		},
		{
			"name":"Cube.010",
			"primitives":[
				{
					"attributes":{
						"POSITION":28,
						"NORMAL":29,
						"TEXCOORD_0":30
					},
					"indices":3,
					"material":2
				}
			]
		},
		{
			"name":"Cylinder",
			"primitives":[
				{
					"attributes":{
						"POSITION":31,
						"NORMAL":32,
						"TEXCOORD_0":33
					},
					"indices":34,
					"material":3
				}
			]
		},
		{
			"name":"Cylinder.001",
			"primitives":[
				{
					"attributes":{
						"POSITION":35,
						"NORMAL":36,
						"TEXCOORD_0":37
					},
					"indices":34,
					"material":4
				}
			]
		},
		{
			"name":"Cylinder.002",
			"primitives":[
				{
					"attributes":{
						"POSITION":38,
						"NORMAL":39,
						"TEXCOORD_0":40
					},
					"indices":34,
					"material":5
				}
			]
		},
		{
			"name":"Cube",
			"primitives":[
				{
					"attributes":{
						"POSITION":41,
						"NORMAL":42,
						"TEXCOORD_0":43
					},
					"indices":44,
					"material":6
				}
			]
		},
		{
			"name":"Cube.011",
			"primitives":[
				{
					"attributes":{
						"POSITION":45,
						"NORMAL":46,
						"TEXCOORD_0":47
					},
					"indices":48,
					"material":7
				}
			]
		},
		{
			"name":"Cube.012",
			"primitives":[
				{
					"attributes":{
						"POSITION":49,
						"NORMAL":50,
						"TEXCOORD_0":51
					},
					"indices":52,
					"material":8
				}
			]
		},
		{
			"name":"Cube.013",
			"primitives":[
				{
					"attributes":{
						"POSITION":53,
						"NORMAL":54,
						"TEXCOORD_0":55
					},
					"indices":48,
					"material":9
				}
			]
		},
		{
			"name":"Cube.014",
			"primitives":[
				{
					"attributes":{
						"POSITION":56,
						"NORMAL":57,
						"TEXCOORD_0":58
					},
					"indices":48,
					"material":10
				}
			]
		},
		{
			"name":"Cube.015",
			"primitives":[
				{
					"attributes":{
						"POSITION":59,
						"NORMAL":60,
						"TEXCOORD_0":61
					},
					"indices":52,
					"material":11
				}
			]
		},
		{
			"name":"Cube.016",
			"primitives":[
				{
					"attributes":{
						"POSITION":62,
						"NORMAL":63,
						"TEXCOORD_0":64
					},
					"indices":48,
					"material":12
				}
			]
		}
	],
	"accessors":[
		{
			"bufferView":0,
			"componentType":5126,
			"count":24,
			"max":[
				0.09000000357627869,
				0.019999999552965164,
				11.25
			],
			"min":[
				-0.09000000357627869,
				-0.003999999724328518,
				9.75
			],
			"type":"VEC3"
		},
		{
			"bufferView":1,
			"componentType":5126,
			"count":24,
			"type":"VEC3"
		},
		{
			"bufferView":2,
			"componentType":5126,
			"count":24,
			"type":"VEC2"
		},
		{
			"bufferView":3,
			"componentType":5123,
			"count":36,
			"type":"SCALAR"
		},
		{
			"bufferView":4,
			"componentType":5126,
			"count":24,
			"max":[
				0.09000000357627869,
				0.019999999552965164,
				8.25
			],
			"min":[
				-0.09000000357627869,
				-0.003999999724328518,
				6.75
			],
			"type":"VEC3"
		},
		{
			"bufferView":5,
			"componentType":5126,
			"count":24,
			"type":"VEC3"
		},
		{
			"bufferView":6,
			"componentType":5126,
			"count":24,
			"type":"VEC2"
		},
		{
			"bufferView":7,
			"componentType":5126,
			"count":24,
			"max":[
				0.09000000357627869,
				0.019999999552965164,
				5.25
			],
			"min":[
				-0.09000000357627869,
				-0.003999999724328518,
				3.75
			],
			"type":"VEC3"
		},
		{
			"bufferView":8,
			"componentType":5126,
			"count":24,
			"type":"VEC3"
		},
		{
			"bufferView":9,
			"componentType":5126,
			"count":24,
			"type":"VEC2"
		},
		{
			"bufferView":10,
			"componentType":5126,
			"count":24,
			"max":[
				0.09000000357627869,
				0.019999999552965164,
				2.25
			],
			"min":[
				-0.09000000357627869,
				-0.003999999724328518,
				0.75
			],
			"type":"VEC3"
		},
		{
			"bufferView":11,
			"componentType":5126,
			"count":24,
			"type":"VEC3"
		},
		{
			"bufferView":12,
			"componentType":5126,
			"count":24,
			"type":"VEC2"
		},
		{
			"bufferView":13,
			"componentType":5126,
			"count":24,
			"max":[
				0.09000000357627869,
				0.019999999552965164,
				-0.75
			],
			"min":[
				-0.09000000357627869,
				-0.003999999724328518,
				-2.25
			],
			"type":"VEC3"
		},
		{
			"bufferView":14,
			"componentType":5126,
			"count":24,
			"type":"VEC3"
		},
		{
			"bufferView":15,
			"componentType":5126,
			"count":24,
			"type":"VEC2"
		},
		{
			"bufferView":16,
			"componentType":5126,
			"count":24,
			"max":[
				0.09000000357627869,
				0.019999999552965164,
				-3.75
			],
			"min":[
				-0.09000000357627869,
				-0.003999999724328518,
				-5.25
			],
			"type":"VEC3"
		},
		{
			"bufferView":17,
			"componentType":5126,
			"count":24,
			"type":"VEC3"
		},
		{
			"bufferView":18,
			"componentType":5126,
			"count":24,
			"type":"VEC2"
		},
		{
			"bufferView":19,
			"componentType":5126,
			"count":24,
			"max":[
				0.09000000357627869,
				0.019999999552965164,
				-6.75
			],
			"min":[
				-0.09000000357627869,
				-0.003999999724328518,
				-8.25
			],
			"type":"VEC3"
		},
		{
			"bufferView":20,
			"componentType":5126,
			"count":24,
			"type":"VEC3"
		},
		{
			"bufferView":21,
			"componentType":5126,
			"count":24,
			"type":"VEC2"
		},
		{
			"bufferView":22,
			"componentType":5126,
			"count":24,
			"max":[
				0.09000000357627869,
				0.019999999552965164,
				-9.75
			],
			"min":[
				-0.09000000357627869,
				-0.003999999724328518,
				-11.25
			],
			"type":"VEC3"
		},
		{
			"bufferView":23,
			"componentType":5126,
			"count":24,
			"type":"VEC3"
		},
		{
			"bufferView":24,
			"componentType":5126,
			"count":24,
			"type":"VEC2"
		},
		{
			"bufferView":25,
			"componentType":5126,
			"count":24,
			"max":[
				-4.37999963760376,
				0.019999999552965164,
				12
			],
			"min":[
				-4.519999980926514,
				-0.003999999724328518,
				-12
			],
			"type":"VEC3"
		},
		{
			"bufferView":26,
			"componentType":5126,
			"count":24,
			"type":"VEC3"
		},
		{
			"bufferView":27,
			"componentType":5126,
			"count":24,
			"type":"VEC2"
		},
		{
			"bufferView":28,
			"componentType":5126,
			"count":24,
			"max":[
				4.519999980926514,
				0.019999999552965164,
				12
			],
			"min":[
				4.37999963760376,
				-0.003999999724328518,
				-12
			],
			"type":"VEC3"
		},
		{
			"bufferView":29,
			"componentType":5126,
			"count":24,
			"type":"VEC3"
		},
		{
			"bufferView":30,
			"componentType":5126,
			"count":24,
			"type":"VEC2"
		},
		{
			"bufferView":31,
			"componentType":5126,
			"count":72,
			"max":[
				0.1550367921590805,
				0.013499999418854713,
				8.34000015258789
			],
			"min":[
				-0.5249632000923157,
				-0.0014999997802078724,
				7.659999847412109
			],
			"type":"VEC3"
		},
		{
			"bufferView":32,
			"componentType":5126,
			"count":72,
			"type":"VEC3"
		},
		{
			"bufferView":33,
			"componentType":5126,
			"count":72,
			"type":"VEC2"
		},
		{
			"bufferView":34,
			"componentType":5123,
			"count":132,
			"type":"SCALAR"
		},
		{
			"bufferView":35,
			"componentType":5126,
			"count":72,
			"max":[
				-0.2934403121471405,
				0.013499999418854713,
				0.8400000333786011
			],
			"min":[
				-0.9734402894973755,
				-0.0014999997802078724,
				0.1599999964237213
			],
			"type":"VEC3"
		},
		{
			"bufferView":36,
			"componentType":5126,
			"count":72,
			"type":"VEC3"
		},
		{
			"bufferView":37,
			"componentType":5126,
			"count":72,
			"type":"VEC2"
		},
		{
			"bufferView":38,
			"componentType":5126,
			"count":72,
			"max":[
				-1.467302918434143,
				0.013499999418854713,
				-6.659999847412109
			],
			"min":[
				-2.1473028659820557,
				-0.0014999997802078724,
				-7.340000152587891
			],
			"type":"VEC3"
		},
		{
			"bufferView":39,
			"componentType":5126,
			"count":72,
			"type":"VEC3"
		},
		{
			"bufferView":40,
			"componentType":5126,
			"count":72,
			"type":"VEC2"
		},
		{
			"bufferView":41,
			"componentType":5126,
			"count":96,
			"max":[
				4.800000190734863,
				0,
				12
			],
			"min":[
				-4.800000190734863,
				-0.20000000298023224,
				-12
			],
			"type":"VEC3"
		},
		{
			"bufferView":42,
			"componentType":5126,
			"count":96,
			"type":"VEC3"
		},
		{
			"bufferView":43,
			"componentType":5126,
			"count":96,
			"type":"VEC2"
		},
		{
			"bufferView":44,
			"componentType":5123,
			"count":132,
			"type":"SCALAR"
		},
		{
			"bufferView":45,
			"componentType":5126,
			"count":24,
			"max":[
				2.5083861351013184,
				0.01599999889731407,
				10.128643035888672
			],
			"min":[
				0.4241088628768921,
				-0.003999999724328518,
				9.613954544067383
			],
			"type":"VEC3"
		},
		{
			"bufferView":46,
			"componentType":5126,
			"count":24,
			"type":"VEC3"
		},
		{
			"bufferView":47,
			"componentType":5126,
			"count":24,
			"type":"VEC2"
		},
		{
			"bufferView":48,
			"componentType":5123,
			"count":36,
			"type":"SCALAR"
		},
		{
			"bufferView":49,
			"componentType":5126,
			"count":24,
			"max":[
				-0.5179582834243774,
				0.01599999889731407,
				-0.7686055302619934
			],
			"min":[
				-2.835524559020996,
				-0.003999999724328518,
				-1.4022133350372314
			],
			"type":"VEC3"
		},
		{
			"bufferView":50,
			"componentType":5126,
			"count":24,
			"type":"VEC3"
		},
		{
			"bufferView":51,
			"componentType":5126,
			"count":24,
			"type":"VEC2"
		},
		{
			"bufferView":52,
			"componentType":5123,
			"count":36,
			"type":"SCALAR"
		},
		{
			"bufferView":53,
			"componentType":5126,
			"count":24,
			"max":[
				0.5126086473464966,
				0.01599999889731407,
				-3.90794038772583
			],
			"min":[
				-1.4804518222808838,
				-0.003999999724328518,
				-4.2312750816345215
			],
			"type":"VEC3"
		},
		{
			"bufferView":54,
			"componentType":5126,
			"count":24,
			"type":"VEC3"
		},
		{
			"bufferView":55,
			"componentType":5126,
			"count":24,
			"type":"VEC2"
		},
		{
			"bufferView":56,
			"componentType":5126,
			"count":24,
			"max":[
				-0.7491754293441772,
				0.01599999889731407,
				5.29170560836792
			],
			"min":[
				-1.9935673475265503,
				-0.003999999724328518,
				5.187806606292725
			],
			"type":"VEC3"
		},
		{
			"bufferView":57,
			"componentType":5126,
			"count":24,
			"type":"VEC3"
		},
		{
			"bufferView":58,
			"componentType":5126,
			"count":24,
			"type":"VEC2"
		},
		{
			"bufferView":59,
			"componentType":5126,
			"count":24,
			"max":[
				3.04757022857666,
				0.01599999889731407,
				-1.680077075958252
			],
			"min":[
				0.34306812286376953,
				-0.003999999724328518,
				-1.9370613098144531
			],
			"type":"VEC3"
		},
		{
			"bufferView":60,
			"componentType":5126,
			"count":24,
			"type":"VEC3"
		},
		{
			"bufferView":61,
			"componentType":5126,
			"count":24,
			"type":"VEC2"
		},
		{
			"bufferView":62,
			"componentType":5126,
			"count":24,
			"max":[
				1.8059163093566895,
				0.01599999889731407,
				8.087794303894043
			],
			"min":[
				0.1628454327583313,
				-0.003999999724328518,
				7.845428943634033
			],
			"type":"VEC3"
		},
		{
			"bufferView":63,
			"componentType":5126,
			"count":24,
			"type":"VEC3"
		},
		{
			"bufferView":64,
			"componentType":5126,
			"count":24,
			"type":"VEC2"
		}
	],
	"bufferViews":[
		{
			"buffer":0,
			"byteLength":288,
			"byteOffset":0,
			"target":34962
		},
		{
			"buffer":0,
			"byteLength":288,
			"byteOffset":288,
			"target":34962
		},
		{
			"buffer":0,
			"byteLength":192,
			"byteOffset":576,
			"target":34962
		},
		{
			"buffer":0,
			"byteLength":72,
			"byteOffset":768,
			"target":34963
		},
		{
			"buffer":0,
			"byteLength":288,
			"byteOffset":840,
			"target":34962
		},
		{
			"buffer":0,
			"byteLength":288,
			"byteOffset":1128,
			"target":34962
		},
		{
			"buffer":0,
			"byteLength":192,
			"byteOffset":1416,
			"target":34962
		},
		{
			"buffer":0,
			"byteLength":288,
			"byteOffset":1608,
			"target":34962
		},
		{
			"buffer":0,
			"byteLength":288,
			"byteOffset":1896,
			"target":34962
		},
		{
			"buffer":0,
			"byteLength":192,
			"byteOffset":2184,
			"target":34962
		},
		{
			"buffer":0,
			"byteLength":288,
			"byteOffset":2376,
			"target":34962
		},
		{
			"buffer":0,
			"byteLength":288,
			"byteOffset":2664,
			"target":34962
		},
		{
			"buffer":0,
			"byteLength":192,
			"byteOffset":2952,
			"target":34962
		},
		{
			"buffer":0,
			"byteLength":288,
			"byteOffset":3144,
			"target":34962
		},
		{
			"buffer":0,
			"byteLength":288,
			"byteOffset":3432,
			"target":34962
		},
		{
			"buffer":0,
			"byteLength":192,
			"byteOffset":3720,
			"target":34962
		},
		{
			"buffer":0,
			"byteLength":288,
			"byteOffset":3912,
			"target":34962
		},
		{
			"buffer":0,
			"byteLength":288,
			"byteOffset":4200,
			"target":34962
		},
		{
			"buffer":0,
			"byteLength":192,
			"byteOffset":4488,
			"target":34962
		},
		{
			"buffer":0,
			"byteLength":288,
			"byteOffset":4680,
			"target":34962
		},
		{
			"buffer":0,
			"byteLength":288,
			"byteOffset":4968,
			"target":34962
		},
		{
			"buffer":0,
			"byteLength":192,
			"byteOffset":5256,
			"target":34962
		},
		{
			"buffer":0,
			"byteLength":288,
			"byteOffset":5448,
			"target":34962
		},
		{
			"buffer":0,
			"byteLength":288,
			"byteOffset":5736,
			"target":34962
		},
		{
			"buffer":0,
			"byteLength":192,
			"byteOffset":6024,
			"target":34962
		},
		{
			"buffer":0,
			"byteLength":288,
			"byteOffset":6216,
			"target":34962
		},
		{
			"buffer":0,
			"byteLength":288,
			"byteOffset":6504,
			"target":34962
		},
		{
			"buffer":0,
			"byteLength":192,
			"byteOffset":6792,
			"target":34962
		},
		{
			"buffer":0,
			"byteLength":288,
			"byteOffset":6984,
			"target":34962
		},
		{
			"buffer":0,
			"byteLength":288,
			"byteOffset":7272,
			"target":34962
		},
		{
			"buffer":0,
			"byteLength":192,
			"byteOffset":7560,
			"target":34962
		},
		{
			"buffer":0,
			"byteLength":864,
			"byteOffset":7752,
			"target":34962
		},
		{
			"buffer":0,
			"byteLength":864,
			"byteOffset":8616,
			"target":34962
		},
		{
			"buffer":0,
			"byteLength":576,
			"byteOffset":9480,
			"target":34962
		},
		{
			"buffer":0,
			"byteLength":264,
			"byteOffset":10056,
			"target":34963
		},
		{
			"buffer":0,
			"byteLength":864,
			"byteOffset":10320,
			"target":34962
		},
		{
			"buffer":0,
			"byteLength":864,
			"byteOffset":11184,
			"target":34962
		},
		{
			"buffer":0,
			"byteLength":576,
			"byteOffset":12048,
			"target":34962
		},
		{
			"buffer":0,
			"byteLength":864,
			"byteOffset":12624,
			"target":34962
		},
		{
			"buffer":0,
			"byteLength":864,
			"byteOffset":13488,
			"target":34962
		},
		{
			"buffer":0,
			"byteLength":576,
			"byteOffset":14352,
			"target":34962
		},
		{
			"buffer":0,
			"byteLength":1152,
			"byteOffset":14928,
			"target":34962
		},
		{
			"buffer":0,
			"byteLength":1152,
			"byteOffset":16080,
			"target":34962
		},
		{
			"buffer":0,
			"byteLength":768,
			"byteOffset":17232,
			"target":34962
		},
		{
			"buffer":0,
			"byteLength":264,
			"byteOffset":18000,
			"target":34963
		},
		{
			"buffer":0,
			"byteLength":288,
			"byteOffset":18264,
			"target":34962
		},
		{
			"buffer":0,
			"byteLength":288,
			"byteOffset":18552,
			"target":34962
		},
		{
			"buffer":0,
			"byteLength":192,
			"byteOffset":18840,
			"target":34962
		},
		{
			"buffer":0,
			"byteLength":72,
			"byteOffset":19032,
			"target":34963
		},
		{
			"buffer":0,
			"byteLength":288,
			"byteOffset":19104,
			"target":34962
		},
		{
			"buffer":0,
			"byteLength":288,
			"byteOffset":19392,
			"target":34962
		},
		{
			"buffer":0,
			"byteLength":192,
			"byteOffset":19680,
			"target":34962
		},
		{
			"buffer":0,
			"byteLength":72,
			"byteOffset":19872,
			"target":34963
		},
		{
			"buffer":0,
			"byteLength":288,
			"byteOffset":19944,
			"target":34962
		},
		{
			"buffer":0,
			"byteLength":288,
			"byteOffset":20232,
			"target":34962
		},
		{
			"buffer":0,
			"byteLength":192,
			"byteOffset":20520,
			"target":34962
		},
		{
			"buffer":0,
			"byteLength":288,
			"byteOffset":20712,
			"target":34962
		},
		{
			"buffer":0,
			"byteLength":288,
			"byteOffset":21000,
			"target":34962
		},
		{
			"buffer":0,
			"byteLength":192,
			"byteOffset":21288,
			"target":34962
		},
		{
			"buffer":0,
			"byteLength":288,
			"byteOffset":21480,
			"target":34962
		},
		{
			"buffer":0,
			"byteLength":288,
			"byteOffset":21768,
			"target":34962
		},
		{
			"buffer":0,
			"byteLength":192,
			"byteOffset":22056,
			"target":34962
		},
		{
			"buffer":0,
			"byteLength":288,
			"byteOffset":22248,
			"target":34962
		},
		{
			"buffer":0,
			"byteLength":288,
			"byteOffset":22536,
			"target":34962
		},
		{
			"buffer":0,
			"byteLength":192,
			"byteOffset":22824,
			"target":34962
		}
	],
	"buffers":[
		{
			"byteLength":23016,
			"uri":"hd_rd_city.bin"
		}
	]
}
