{
	"asset":{
		"generator":"Khronos glTF Blender I/O v5.2.40",
		"version":"2.0"
	},
	"scene":0,
	"scenes":[
		{
			"name":"Scene",
			"nodes":[
				0,
				1,
				2,
				3,
				4,
				5,
				6,
				7,
				8,
				9,
				10,
				11,
				12,
				13,
				14
			]
		}
	],
	"nodes":[
		{
			"mesh":0,
			"name":"cap0"
		},
		{
			"mesh":1,
			"name":"cap1"
		},
		{
			"mesh":2,
			"name":"cap2"
		},
		{
			"mesh":3,
			"name":"dot0_0"
		},
		{
			"mesh":4,
			"name":"dot0_1"
		},
		{
			"mesh":5,
			"name":"dot0_2"
		},
		{
			"mesh":6,
			"name":"dot1_0"
		},
		{
			"mesh":7,
			"name":"dot1_1"
		},
		{
			"mesh":8,
			"name":"dot1_2"
		},
		{
			"mesh":9,
			"name":"dot2_0"
		},
		{
			"mesh":10,
			"name":"dot2_1"
		},
		{
			"mesh":11,
			"name":"dot2_2"
		},
		{
			"mesh":12,
			"name":"stem0"
		},
		{
			"mesh":13,
			"name":"stem1"
		},
		{
			"mesh":14,
			"name":"stem2"
		}
	],
	"materials":[
		{
			"doubleSided":true,
			"name":"M_mc0",
			"pbrMetallicRoughness":{
				"baseColorFactor":[
					0.8122414946556091,
					0.0477757528424263,
					0.02422294206917286,
					1
				],
				"metallicFactor":0,
				"roughnessFactor":0.8500000238418579
			}
		},
		{
			"doubleSided":true,
			"name":"M_mc1",
			"pbrMetallicRoughness":{
				"baseColorFactor":[
					0.8122414946556091,
					0.0477757528424263,
					0.02422294206917286,
					1
				],
				"metallicFactor":0,
				"roughnessFactor":0.8500000238418579
			}
		},
		{
			"doubleSided":true,
			"name":"M_mc2",
			"pbrMetallicRoughness":{
				"baseColorFactor":[
					0.8122414946556091,
					0.0477757528424263,
					0.02422294206917286,
					1
				],
				"metallicFactor":0,
				"roughnessFactor":0.8500000238418579
			}
		},
		{
			"doubleSided":true,
			"name":"M_md0_0",
			"pbrMetallicRoughness":{
				"baseColorFactor":[
					1,
					0.9075471758842468,
					0.7518950700759888,
					1
				],
				"metallicFactor":0,
				"roughnessFactor":0.8500000238418579
			}
		},
		{
			"doubleSided":true,
			"name":"M_md0_1",
			"pbrMetallicRoughness":{
				"baseColorFactor":[
					1,
					0.9075471758842468,
					0.7518950700759888,
					1
				],
				"metallicFactor":0,
				"roughnessFactor":0.8500000238418579
			}
		},
		{
			"doubleSided":true,
			"name":"M_md0_2",
			"pbrMetallicRoughness":{
				"baseColorFactor":[
					1,
					0.9075471758842468,
					0.7518950700759888,
					1
				],
				"metallicFactor":0,
				"roughnessFactor":0.8500000238418579
			}
		},
		{
			"doubleSided":true,
			"name":"M_md1_0",
			"pbrMetallicRoughness":{
				"baseColorFactor":[
					1,
					0.9075471758842468,
					0.7518950700759888,
					1
				],
				"metallicFactor":0,
				"roughnessFactor":0.8500000238418579
			}
		},
		{
			"doubleSided":true,
			"name":"M_md1_1",
			"pbrMetallicRoughness":{
				"baseColorFactor":[
					1,
					0.9075471758842468,
					0.7518950700759888,
					1
				],
				"metallicFactor":0,
				"roughnessFactor":0.8500000238418579
			}
		},
		{
			"doubleSided":true,
			"name":"M_md1_2",
			"pbrMetallicRoughness":{
				"baseColorFactor":[
					1,
					0.9075471758842468,
					0.7518950700759888,
					1
				],
				"metallicFactor":0,
				"roughnessFactor":0.8500000238418579
			}
		},
		{
			"doubleSided":true,
			"name":"M_md2_0",
			"pbrMetallicRoughness":{
				"baseColorFactor":[
					1,
					0.9075471758842468,
					0.7518950700759888,
					1
				],
				"metallicFactor":0,
				"roughnessFactor":0.8500000238418579
			}
		},
		{
			"doubleSided":true,
			"name":"M_md2_1",
			"pbrMetallicRoughness":{
				"baseColorFactor":[
					1,
					0.9075471758842468,
					0.7518950700759888,
					1
				],
				"metallicFactor":0,
				"roughnessFactor":0.8500000238418579
			}
		},
		{
			"doubleSided":true,
			"name":"M_md2_2",
			"pbrMetallicRoughness":{
				"baseColorFactor":[
					1,
					0.9075471758842468,
					0.7518950700759888,
					1
				],
				"metallicFactor":0,
				"roughnessFactor":0.8500000238418579
			}
		},
		{
			"doubleSided":true,
			"name":"M_mst0",
			"pbrMetallicRoughness":{
				"baseColorFactor":[
					0.8751375675201416,
					0.7518950700759888,
					0.535641610622406,
					1
				],
				"metallicFactor":0,
				"roughnessFactor":0.8500000238418579
			}
		},
		{
			"doubleSided":true,
			"name":"M_mst1",
			"pbrMetallicRoughness":{
				"baseColorFactor":[
					0.8751375675201416,
					0.7518950700759888,
					0.535641610622406,
					1
				],
				"metallicFactor":0,
				"roughnessFactor":0.8500000238418579
			}
		},
		{
			"doubleSided":true,
			"name":"M_mst2",
			"pbrMetallicRoughness":{
				"baseColorFactor":[
					0.8751375675201416,
					0.7518950700759888,
					0.535641610622406,
					1
				],
				"metallicFactor":0,
				"roughnessFactor":0.8500000238418579
			}
		}
	],
	"meshes":[
		{
			"name":"Sphere",
			"primitives":[
				{
					"attributes":{
						"POSITION":0,
						"NORMAL":1,
						"TEXCOORD_0":2
					},
					"indices":3,
					"material":0
				}
			]
		},
		{
			"name":"Sphere.001",
			"primitives":[
				{
					"attributes":{
						"POSITION":4,
						"NORMAL":5,
						"TEXCOORD_0":6
					},
					"indices":3,
					"material":1
				}
			]
		},
		{
			"name":"Sphere.002",
			"primitives":[
				{
					"attributes":{
						"POSITION":7,
						"NORMAL":8,
						"TEXCOORD_0":9
					},
					"indices":10,
					"material":2
				}
			]
		},
		{
			"name":"Icosphere",
			"primitives":[
				{
					"attributes":{
						"POSITION":11,
						"NORMAL":12,
						"TEXCOORD_0":13
					},
					"indices":14,
					"material":3
				}
			]
		},
		{
			"name":"Icosphere.001",
			"primitives":[
				{
					"attributes":{
						"POSITION":15,
						"NORMAL":16,
						"TEXCOORD_0":17
					},
					"indices":14,
					"material":4
				}
			]
		},
		{
			"name":"Icosphere.002",
			"primitives":[
				{
					"attributes":{
						"POSITION":18,
						"NORMAL":19,
						"TEXCOORD_0":20
					},
					"indices":14,
					"material":5
				}
			]
		},
		{
			"name":"Icosphere.003",
			"primitives":[
				{
					"attributes":{
						"POSITION":21,
						"NORMAL":22,
						"TEXCOORD_0":23
					},
					"indices":14,
					"material":6
				}
			]
		},
		{
			"name":"Icosphere.004",
			"primitives":[
				{
					"attributes":{
						"POSITION":24,
						"NORMAL":25,
						"TEXCOORD_0":26
					},
					"indices":14,
					"material":7
				}
			]
		},
		{
			"name":"Icosphere.005",
			"primitives":[
				{
					"attributes":{
						"POSITION":27,
						"NORMAL":28,
						"TEXCOORD_0":29
					},
					"indices":14,
					"material":8
				}
			]
		},
		{
			"name":"Icosphere.006",
			"primitives":[
				{
					"attributes":{
						"POSITION":30,
						"NORMAL":31,
						"TEXCOORD_0":32
					},
					"indices":14,
					"material":9
				}
			]
		},
		{
			"name":"Icosphere.007",
			"primitives":[
				{
					"attributes":{
						"POSITION":33,
						"NORMAL":34,
						"TEXCOORD_0":35
					},
					"indices":14,
					"material":10
				}
			]
		},
		{
			"name":"Icosphere.008",
			"primitives":[
				{
					"attributes":{
						"POSITION":36,
						"NORMAL":37,
						"TEXCOORD_0":38
					},
					"indices":14,
					"material":11
				}
			]
		},
		{
			"name":"Cylinder",
			"primitives":[
				{
					"attributes":{
						"POSITION":39,
						"NORMAL":40,
						"TEXCOORD_0":41
					},
					"indices":42,
					"material":12
				}
			]
		},
		{
			"name":"Cylinder.001",
			"primitives":[
				{
					"attributes":{
						"POSITION":43,
						"NORMAL":44,
						"TEXCOORD_0":45
					},
					"indices":42,
					"material":13
				}
			]
		},
		{
			"name":"Cylinder.002",
			"primitives":[
				{
					"attributes":{
						"POSITION":46,
						"NORMAL":47,
						"TEXCOORD_0":48
					},
					"indices":42,
					"material":14
				}
			]
		}
	],
	"accessors":[
		{
			"bufferView":0,
			"componentType":5126,
			"count":75,
			"max":[
				0.13531693816184998,
				0.5849999785423279,
				0.2499999850988388
			],
			"min":[
				-0.4353169798851013,
				0.2549999952316284,
				-0.3500000238418579
			],
			"type":"VEC3"
		},
		{
			"bufferView":1,
			"componentType":5126,
			"count":75,
			"type":"VEC3"
		},
		{
			"bufferView":2,
			"componentType":5126,
			"count":75,
			"type":"VEC2"
		},
		{
			"bufferView":3,
			"componentType":5123,
			"count":300,
			"type":"SCALAR"
		},
		{
			"bufferView":4,
			"componentType":5126,
			"count":75,
			"max":[
				0.38923245668411255,
				0.42100000381469727,
				0.30000001192092896
			],
			"min":[
				-0.02923247218132019,
				0.17900002002716064,
				-0.14000003039836884
			],
			"type":"VEC3"
		},
		{
			"bufferView":5,
			"componentType":5126,
			"count":75,
			"type":"VEC3"
		},
		{
			"bufferView":6,
			"componentType":5126,
			"count":75,
			"type":"VEC2"
		},
		{
			"bufferView":7,
			"componentType":5126,
			"count":75,
			"max":[
				0.1816796213388443,
				0.3334999978542328,
				-0.04999998211860657
			],
			"min":[
				-0.14167965948581696,
				0.14649999141693115,
				-0.39000004529953003
			],
			"type":"VEC3"
		},
		{
			"bufferView":8,
			"componentType":5126,
			"count":75,
			"type":"VEC3"
		},
		{
			"bufferView":9,
			"componentType":5126,
			"count":75,
			"type":"VEC2"
		},
		{
			"bufferView":10,
			"componentType":5123,
			"count":300,
			"type":"SCALAR"
		},
		{
			"bufferView":11,
			"componentType":5126,
			"count":60,
			"max":[
				-0.10556259006261826,
				0.5659999847412109,
				-0.16965161263942719
			],
			"min":[
				-0.16817232966423035,
				0.5260000228881836,
				-0.22919641435146332
			],
			"type":"VEC3"
		},
		{
			"bufferView":12,
			"componentType":5126,
			"count":60,
			"type":"VEC3"
		},
		{
			"bufferView":13,
			"componentType":5126,
			"count":60,
			"type":"VEC2"
		},
		{
			"bufferView":14,
			"componentType":5123,
			"count":60,
			"type":"SCALAR"
		},
		{
			"bufferView":15,
			"componentType":5126,
			"count":60,
			"max":[
				0.0008796248584985733,
				0.5659999847412109,
				-0.11079181730747223
			],
			"min":[
				-0.061730124056339264,
				0.5260000228881836,
				-0.17033661901950836
			],
			"type":"VEC3"
		},
		{
			"bufferView":16,
			"componentType":5126,
			"count":60,
			"type":"VEC3"
		},
		{
			"bufferView":17,
			"componentType":5126,
			"count":60,
			"type":"VEC2"
		},
		{
			"bufferView":18,
			"componentType":5126,
			"count":60,
			"max":[
				-0.23782706260681152,
				0.5659999847412109,
				-0.11137355864048004
			],
			"min":[
				-0.300436794757843,
				0.5260000228881836,
				-0.17091836035251617
			],
			"type":"VEC3"
		},
		{
			"bufferView":19,
			"componentType":5126,
			"count":60,
			"type":"VEC3"
		},
		{
			"bufferView":20,
			"componentType":5126,
			"count":60,
			"type":"VEC2"
		},
		{
			"bufferView":21,
			"componentType":5126,
			"count":60,
			"max":[
				0.27314990758895874,
				0.4124000072479248,
				0.018804311752319336
			],
			"min":[
				0.21054014563560486,
				0.3723999857902527,
				-0.0407404899597168
			],
			"type":"VEC3"
		},
		{
			"bufferView":22,
			"componentType":5126,
			"count":60,
			"type":"VEC3"
		},
		{
			"bufferView":23,
			"componentType":5126,
			"count":60,
			"type":"VEC2"
		},
		{
			"bufferView":24,
			"componentType":5126,
			"count":60,
			"max":[
				0.31183743476867676,
				0.4124000072479248,
				0.06512708961963654
			],
			"min":[
				0.24922770261764526,
				0.3723999857902527,
				0.005582291632890701
			],
			"type":"VEC3"
		},
		{
			"bufferView":25,
			"componentType":5126,
			"count":60,
			"type":"VEC3"
		},
		{
			"bufferView":26,
			"componentType":5126,
			"count":60,
			"type":"VEC2"
		},
		{
			"bufferView":27,
			"componentType":5126,
			"count":60,
			"max":[
				0.12167111784219742,
				0.4124000072479248,
				0.04600885882973671
			],
			"min":[
				0.05906137079000473,
				0.3723999857902527,
				-0.013535942882299423
			],
			"type":"VEC3"
		},
		{
			"bufferView":28,
			"componentType":5126,
			"count":60,
			"type":"VEC3"
		},
		{
			"bufferView":29,
			"componentType":5126,
			"count":60,
			"type":"VEC2"
		},
		{
			"bufferView":30,
			"componentType":5126,
			"count":60,
			"max":[
				0.1252586543560028,
				0.3314000070095062,
				-0.1483248770236969
			],
			"min":[
				0.06264891475439072,
				0.2913999855518341,
				-0.20786967873573303
			],
			"type":"VEC3"
		},
		{
			"bufferView":31,
			"componentType":5126,
			"count":60,
			"type":"VEC3"
		},
		{
			"bufferView":32,
			"componentType":5126,
			"count":60,
			"type":"VEC2"
		},
		{
			"bufferView":33,
			"componentType":5126,
			"count":60,
			"max":[
				0.07780097424983978,
				0.3314000070095062,
				-0.10946278274059296
			],
			"min":[
				0.015191227197647095,
				0.2913999855518341,
				-0.1690075844526291
			],
			"type":"VEC3"
		},
		{
			"bufferView":34,
			"componentType":5126,
			"count":60,
			"type":"VEC3"
		},
		{
			"bufferView":35,
			"componentType":5126,
			"count":60,
			"type":"VEC2"
		},
		{
			"bufferView":36,
			"componentType":5126,
			"count":60,
			"max":[
				0.05939052999019623,
				0.3314000070095062,
				-0.10561305284500122
			],
			"min":[
				-0.0032192151993513107,
				0.2913999855518341,
				-0.16515785455703735
			],
			"type":"VEC3"
		},
		{
			"bufferView":37,
			"componentType":5126,
			"count":60,
			"type":"VEC3"
		},
		{
			"bufferView":38,
			"componentType":5126,
			"count":60,
			"type":"VEC2"
		},
		{
			"bufferView":39,
			"componentType":5126,
			"count":30,
			"max":[
				-0.08175504952669144,
				0.41999998688697815,
				0.013067815452814102
			],
			"min":[
				-0.21824496984481812,
				0,
				-0.12000000476837158
			],
			"type":"VEC3"
		},
		{
			"bufferView":40,
			"componentType":5126,
			"count":30,
			"type":"VEC3"
		},
		{
			"bufferView":41,
			"componentType":5126,
			"count":30,
			"type":"VEC2"
		},
		{
			"bufferView":42,
			"componentType":5123,
			"count":72,
			"type":"SCALAR"
		},
		{
			"bufferView":43,
			"componentType":5126,
			"count":30,
			"max":[
				0.23004630208015442,
				0.30000001192092896,
				0.12624973058700562
			],
			"min":[
				0.12995371222496033,
				0,
				0.0286666639149189
			],
			"type":"VEC3"
		},
		{
			"bufferView":44,
			"componentType":5126,
			"count":30,
			"type":"VEC3"
		},
		{
			"bufferView":45,
			"componentType":5126,
			"count":30,
			"type":"VEC2"
		},
		{
			"bufferView":46,
			"componentType":5126,
			"count":30,
			"max":[
				0.058672141283750534,
				0.23999999463558197,
				-0.18426156044006348
			],
			"min":[
				-0.018672142177820206,
				0,
				-0.25966668128967285
			],
			"type":"VEC3"
		},
		{
			"bufferView":47,
			"componentType":5126,
			"count":30,
			"type":"VEC3"
		},
		{
			"bufferView":48,
			"componentType":5126,
			"count":30,
			"type":"VEC2"
		}
	],
	"bufferViews":[
		{
			"buffer":0,
			"byteLength":900,
			"byteOffset":0,
			"target":34962
		},
		{
			"buffer":0,
			"byteLength":900,
			"byteOffset":900,
			"target":34962
		},
		{
			"buffer":0,
			"byteLength":600,
			"byteOffset":1800,
			"target":34962
		},
		{
			"buffer":0,
			"byteLength":600,
			"byteOffset":2400,
			"target":34963
		},
		{
			"buffer":0,
			"byteLength":900,
			"byteOffset":3000,
			"target":34962
		},
		{
			"buffer":0,
			"byteLength":900,
			"byteOffset":3900,
			"target":34962
		},
		{
			"buffer":0,
			"byteLength":600,
			"byteOffset":4800,
			"target":34962
		},
		{
			"buffer":0,
			"byteLength":900,
			"byteOffset":5400,
			"target":34962
		},
		{
			"buffer":0,
			"byteLength":900,
			"byteOffset":6300,
			"target":34962
		},
		{
			"buffer":0,
			"byteLength":600,
			"byteOffset":7200,
			"target":34962
		},
		{
			"buffer":0,
			"byteLength":600,
			"byteOffset":7800,
			"target":34963
		},
		{
			"buffer":0,
			"byteLength":720,
			"byteOffset":8400,
			"target":34962
		},
		{
			"buffer":0,
			"byteLength":720,
			"byteOffset":9120,
			"target":34962
		},
		{
			"buffer":0,
			"byteLength":480,
			"byteOffset":9840,
			"target":34962
		},
		{
			"buffer":0,
			"byteLength":120,
			"byteOffset":10320,
			"target":34963
		},
		{
			"buffer":0,
			"byteLength":720,
			"byteOffset":10440,
			"target":34962
		},
		{
			"buffer":0,
			"byteLength":720,
			"byteOffset":11160,
			"target":34962
		},
		{
			"buffer":0,
			"byteLength":480,
			"byteOffset":11880,
			"target":34962
		},
		{
			"buffer":0,
			"byteLength":720,
			"byteOffset":12360,
			"target":34962
		},
		{
			"buffer":0,
			"byteLength":720,
			"byteOffset":13080,
			"target":34962
		},
		{
			"buffer":0,
			"byteLength":480,
			"byteOffset":13800,
			"target":34962
		},
		{
			"buffer":0,
			"byteLength":720,
			"byteOffset":14280,
			"target":34962
		},
		{
			"buffer":0,
			"byteLength":720,
			"byteOffset":15000,
			"target":34962
		},
		{
			"buffer":0,
			"byteLength":480,
			"byteOffset":15720,
			"target":34962
		},
		{
			"buffer":0,
			"byteLength":720,
			"byteOffset":16200,
			"target":34962
		},
		{
			"buffer":0,
			"byteLength":720,
			"byteOffset":16920,
			"target":34962
		},
		{
			"buffer":0,
			"byteLength":480,
			"byteOffset":17640,
			"target":34962
		},
		{
			"buffer":0,
			"byteLength":720,
			"byteOffset":18120,
			"target":34962
		},
		{
			"buffer":0,
			"byteLength":720,
			"byteOffset":18840,
			"target":34962
		},
		{
			"buffer":0,
			"byteLength":480,
			"byteOffset":19560,
			"target":34962
		},
		{
			"buffer":0,
			"byteLength":720,
			"byteOffset":20040,
			"target":34962
		},
		{
			"buffer":0,
			"byteLength":720,
			"byteOffset":20760,
			"target":34962
		},
		{
			"buffer":0,
			"byteLength":480,
			"byteOffset":21480,
			"target":34962
		},
		{
			"buffer":0,
			"byteLength":720,
			"byteOffset":21960,
			"target":34962
		},
		{
			"buffer":0,
			"byteLength":720,
			"byteOffset":22680,
			"target":34962
		},
		{
			"buffer":0,
			"byteLength":480,
			"byteOffset":23400,
			"target":34962
		},
		{
			"buffer":0,
			"byteLength":720,
			"byteOffset":23880,
			"target":34962
		},
		{
			"buffer":0,
			"byteLength":720,
			"byteOffset":24600,
			"target":34962
		},
		{
			"buffer":0,
			"byteLength":480,
			"byteOffset":25320,
			"target":34962
		},
		{
			"buffer":0,
			"byteLength":360,
			"byteOffset":25800,
			"target":34962
		},
		{
			"buffer":0,
			"byteLength":360,
			"byteOffset":26160,
			"target":34962
		},
		{
			"buffer":0,
			"byteLength":240,
			"byteOffset":26520,
			"target":34962
		},
		{
			"buffer":0,
			"byteLength":144,
			"byteOffset":26760,
			"target":34963
		},
		{
			"buffer":0,
			"byteLength":360,
			"byteOffset":26904,
			"target":34962
		},
		{
			"buffer":0,
			"byteLength":360,
			"byteOffset":27264,
			"target":34962
		},
		{
			"buffer":0,
			"byteLength":240,
			"byteOffset":27624,
			"target":34962
		},
		{
			"buffer":0,
			"byteLength":360,
			"byteOffset":27864,
			"target":34962
		},
		{
			"buffer":0,
			"byteLength":360,
			"byteOffset":28224,
			"target":34962
		},
		{
			"buffer":0,
			"byteLength":240,
			"byteOffset":28584,
			"target":34962
		}
	],
	"buffers":[
		{
			"byteLength":28824,
			"uri":"hd_mushrooms.bin"
		}
	]
}
