{
	"asset":{
		"generator":"Khronos glTF Blender I/O v5.2.40",
		"version":"2.0"
	},
	"scene":0,
	"scenes":[
		{
			"name":"Scene",
			"nodes":[
				0,
				1,
				2,
				3,
				4,
				5,
				6
			]
		}
	],
	"nodes":[
		{
			"mesh":0,
			"name":"g0"
		},
		{
			"mesh":1,
			"name":"g1"
		},
		{
			"mesh":2,
			"name":"g2"
		},
		{
			"mesh":3,
			"name":"g3"
		},
		{
			"mesh":4,
			"name":"g4"
		},
		{
			"mesh":5,
			"name":"g5"
		},
		{
			"mesh":6,
			"name":"g6"
		}
	],
	"materials":[
		{
			"doubleSided":true,
			"name":"M_gr0",
			"pbrMetallicRoughness":{
				"baseColorFactor":[
					0.39929330348968506,
					0.701169490814209,
					0.07382776588201523,
					1
				],
				"metallicFactor":0,
				"roughnessFactor":0.8500000238418579
			}
		},
		{
			"doubleSided":true,
			"name":"M_gr1",
			"pbrMetallicRoughness":{
				"baseColorFactor":[
					0.09387587010860443,
					0.48776519298553467,
					0.05637409910559654,
					1
				],
				"metallicFactor":0,
				"roughnessFactor":0.8500000238418579
			}
		},
		{
			"doubleSided":true,
			"name":"M_gr2",
			"pbrMetallicRoughness":{
				"baseColorFactor":[
					0.1939721703529358,
					0.6592239737510681,
					0.0915183499455452,
					1
				],
				"metallicFactor":0,
				"roughnessFactor":0.8500000238418579
			}
		},
		{
			"doubleSided":true,
			"name":"M_gr3",
			"pbrMetallicRoughness":{
				"baseColorFactor":[
					0.39929330348968506,
					0.701169490814209,
					0.07382776588201523,
					1
				],
				"metallicFactor":0,
				"roughnessFactor":0.8500000238418579
			}
		},
		{
			"doubleSided":true,
			"name":"M_gr4",
			"pbrMetallicRoughness":{
				"baseColorFactor":[
					0.09387587010860443,
					0.48776519298553467,
					0.05637409910559654,
					1
				],
				"metallicFactor":0,
				"roughnessFactor":0.8500000238418579
			}
		},
		{
			"doubleSided":true,
			"name":"M_gr5",
			"pbrMetallicRoughness":{
				"baseColorFactor":[
					0.1939721703529358,
					0.6592239737510681,
					0.0915183499455452,
					1
				],
				"metallicFactor":0,
				"roughnessFactor":0.8500000238418579
			}
		},
		{
			"doubleSided":true,
			"name":"M_gr6",
			"pbrMetallicRoughness":{
				"baseColorFactor":[
					0.39929330348968506,
					0.701169490814209,
					0.07382776588201523,
					1
				],
				"metallicFactor":0,
				"roughnessFactor":0.8500000238418579
			}
		}
	],
	"meshes":[
		{
			"name":"Cone",
			"primitives":[
				{
					"attributes":{
						"POSITION":0,
						"NORMAL":1,
						"TEXCOORD_0":2
					},
					"indices":3,
					"material":0
				}
			]
		},
		{
			"name":"Cone.001",
			"primitives":[
				{
					"attributes":{
						"POSITION":4,
						"NORMAL":5,
						"TEXCOORD_0":6
					},
					"indices":3,
					"material":1
				}
			]
		},
		{
			"name":"Cone.002",
			"primitives":[
				{
					"attributes":{
						"POSITION":7,
						"NORMAL":8,
						"TEXCOORD_0":9
					},
					"indices":3,
					"material":2
				}
			]
		},
		{
			"name":"Cone.003",
			"primitives":[
				{
					"attributes":{
						"POSITION":10,
						"NORMAL":11,
						"TEXCOORD_0":12
					},
					"indices":3,
					"material":3
				}
			]
		},
		{
			"name":"Cone.004",
			"primitives":[
				{
					"attributes":{
						"POSITION":13,
						"NORMAL":14,
						"TEXCOORD_0":15
					},
					"indices":3,
					"material":4
				}
			]
		},
		{
			"name":"Cone.005",
			"primitives":[
				{
					"attributes":{
						"POSITION":16,
						"NORMAL":17,
						"TEXCOORD_0":18
					},
					"indices":3,
					"material":5
				}
			]
		},
		{
			"name":"Cone.006",
			"primitives":[
				{
					"attributes":{
						"POSITION":19,
						"NORMAL":20,
						"TEXCOORD_0":21
					},
					"indices":3,
					"material":6
				}
			]
		}
	],
	"accessors":[
		{
			"bufferView":0,
			"componentType":5126,
			"count":18,
			"max":[
				0.7683553099632263,
				0.28632694482803345,
				0.08258670568466187
			],
			"min":[
				0.6261235475540161,
				-0.017371803522109985,
				-0.06124480068683624
			],
			"type":"VEC3"
		},
		{
			"bufferView":1,
			"componentType":5126,
			"count":18,
			"type":"VEC3"
		},
		{
			"bufferView":2,
			"componentType":5126,
			"count":18,
			"type":"VEC2"
		},
		{
			"bufferView":3,
			"componentType":5123,
			"count":36,
			"type":"SCALAR"
		},
		{
			"bufferView":4,
			"componentType":5126,
			"count":18,
			"max":[
				0.7097830176353455,
				0.31999242305755615,
				0.020336344838142395
			],
			"min":[
				0.5660824179649353,
				-0.016721069812774658,
				-0.12952639162540436
			],
			"type":"VEC3"
		},
		{
			"bufferView":5,
			"componentType":5126,
			"count":18,
			"type":"VEC3"
		},
		{
			"bufferView":6,
			"componentType":5126,
			"count":18,
			"type":"VEC2"
		},
		{
			"bufferView":7,
			"componentType":5126,
			"count":18,
			"max":[
				0.6293463706970215,
				0.26238635182380676,
				0.034115053713321686
			],
			"min":[
				0.4854162037372589,
				-0.013930797576904297,
				-0.10867762565612793
			],
			"type":"VEC3"
		},
		{
			"bufferView":8,
			"componentType":5126,
			"count":18,
			"type":"VEC3"
		},
		{
			"bufferView":9,
			"componentType":5126,
			"count":18,
			"type":"VEC2"
		},
		{
			"bufferView":10,
			"componentType":5126,
			"count":18,
			"max":[
				0.5780914425849915,
				0.29344823956489563,
				0.09794066101312637
			],
			"min":[
				0.42240655422210693,
				-0.018957272171974182,
				-0.04614868015050888
			],
			"type":"VEC3"
		},
		{
			"bufferView":11,
			"componentType":5126,
			"count":18,
			"type":"VEC3"
		},
		{
			"bufferView":12,
			"componentType":5126,
			"count":18,
			"type":"VEC2"
		},
		{
			"bufferView":13,
			"componentType":5126,
			"count":18,
			"max":[
				0.5989893078804016,
				0.3661460280418396,
				0.20248746871948242
			],
			"min":[
				0.4558245837688446,
				-0.01575601100921631,
				0.036643628031015396
			],
			"type":"VEC3"
		},
		{
			"bufferView":14,
			"componentType":5126,
			"count":18,
			"type":"VEC3"
		},
		{
			"bufferView":15,
			"componentType":5126,
			"count":18,
			"type":"VEC2"
		},
		{
			"bufferView":16,
			"componentType":5126,
			"count":18,
			"max":[
				0.6786130666732788,
				0.29310137033462524,
				0.2189634144306183
			],
			"min":[
				0.5344513654708862,
				-0.019006207585334778,
				0.06362966448068619
			],
			"type":"VEC3"
		},
		{
			"bufferView":17,
			"componentType":5126,
			"count":18,
			"type":"VEC3"
		},
		{
			"bufferView":18,
			"componentType":5126,
			"count":18,
			"type":"VEC2"
		},
		{
			"bufferView":19,
			"componentType":5126,
			"count":18,
			"max":[
				0.7442556619644165,
				0.32101210951805115,
				0.16207197308540344
			],
			"min":[
				0.6007333993911743,
				-0.01130184531211853,
				0.01816669851541519
			],
			"type":"VEC3"
		},
		{
			"bufferView":20,
			"componentType":5126,
			"count":18,
			"type":"VEC3"
		},
		{
			"bufferView":21,
			"componentType":5126,
			"count":18,
			"type":"VEC2"
		}
	],
	"bufferViews":[
		{
			"buffer":0,
			"byteLength":216,
			"byteOffset":0,
			"target":34962
		},
		{
			"buffer":0,
			"byteLength":216,
			"byteOffset":216,
			"target":34962
		},
		{
			"buffer":0,
			"byteLength":144,
			"byteOffset":432,
			"target":34962
		},
		{
			"buffer":0,
			"byteLength":72,
			"byteOffset":576,
			"target":34963
		},
		{
			"buffer":0,
			"byteLength":216,
			"byteOffset":648,
			"target":34962
		},
		{
			"buffer":0,
			"byteLength":216,
			"byteOffset":864,
			"target":34962
		},
		{
			"buffer":0,
			"byteLength":144,
			"byteOffset":1080,
			"target":34962
		},
		{
			"buffer":0,
			"byteLength":216,
			"byteOffset":1224,
			"target":34962
		},
		{
			"buffer":0,
			"byteLength":216,
			"byteOffset":1440,
			"target":34962
		},
		{
			"buffer":0,
			"byteLength":144,
			"byteOffset":1656,
			"target":34962
		},
		{
			"buffer":0,
			"byteLength":216,
			"byteOffset":1800,
			"target":34962
		},
		{
			"buffer":0,
			"byteLength":216,
			"byteOffset":2016,
			"target":34962
		},
		{
			"buffer":0,
			"byteLength":144,
			"byteOffset":2232,
			"target":34962
		},
		{
			"buffer":0,
			"byteLength":216,
			"byteOffset":2376,
			"target":34962
		},
		{
			"buffer":0,
			"byteLength":216,
			"byteOffset":2592,
			"target":34962
		},
		{
			"buffer":0,
			"byteLength":144,
			"byteOffset":2808,
			"target":34962
		},
		{
			"buffer":0,
			"byteLength":216,
			"byteOffset":2952,
			"target":34962
		},
		{
			"buffer":0,
			"byteLength":216,
			"byteOffset":3168,
			"target":34962
		},
		{
			"buffer":0,
			"byteLength":144,
			"byteOffset":3384,
			"target":34962
		},
		{
			"buffer":0,
			"byteLength":216,
			"byteOffset":3528,
			"target":34962
		},
		{
			"buffer":0,
			"byteLength":216,
			"byteOffset":3744,
			"target":34962
		},
		{
			"buffer":0,
			"byteLength":144,
			"byteOffset":3960,
			"target":34962
		}
	],
	"buffers":[
		{
			"byteLength":4104,
			"uri":"grass_medium_02.bin"
		}
	]
}
