{
	"asset":{
		"generator":"Khronos glTF Blender I/O v5.2.40",
		"version":"2.0"
	},
	"scene":0,
	"scenes":[
		{
			"name":"Scene",
			"nodes":[
				0,
				1,
				2,
				3,
				4,
				5,
				6,
				7,
				8,
				9,
				10,
				11,
				12,
				13,
				14,
				15,
				16,
				17,
				18,
				19,
				20,
				21,
				22,
				23,
				24,
				25,
				26
			]
		}
	],
	"nodes":[
		{
			"mesh":0,
			"name":"edge0"
		},
		{
			"mesh":1,
			"name":"edge1"
		},
		{
			"mesh":2,
			"name":"rip0"
		},
		{
			"mesh":3,
			"name":"rip1"
		},
		{
			"mesh":4,
			"name":"rip2"
		},
		{
			"mesh":5,
			"name":"rip3"
		},
		{
			"mesh":6,
			"name":"rip4"
		},
		{
			"mesh":7,
			"name":"rip5"
		},
		{
			"mesh":8,
			"name":"rip6"
		},
		{
			"mesh":9,
			"name":"rip7"
		},
		{
			"mesh":10,
			"name":"rip8"
		},
		{
			"mesh":11,
			"name":"rip9"
		},
		{
			"mesh":12,
			"name":"st0"
		},
		{
			"mesh":13,
			"name":"st1"
		},
		{
			"mesh":14,
			"name":"st2"
		},
		{
			"mesh":15,
			"name":"st3"
		},
		{
			"mesh":16,
			"name":"st4"
		},
		{
			"mesh":17,
			"name":"st5"
		},
		{
			"mesh":18,
			"name":"st6"
		},
		{
			"mesh":19,
			"name":"st7"
		},
		{
			"mesh":20,
			"name":"st8"
		},
		{
			"mesh":21,
			"name":"st9"
		},
		{
			"mesh":22,
			"name":"st10"
		},
		{
			"mesh":23,
			"name":"st11"
		},
		{
			"mesh":24,
			"name":"st12"
		},
		{
			"mesh":25,
			"name":"st13"
		},
		{
			"mesh":26,
			"name":"wash"
		}
	],
	"materials":[
		{
			"doubleSided":true,
			"name":"M_e0",
			"pbrMetallicRoughness":{
				"baseColorFactor":[
					0.5924380421638489,
					0.2590273320674896,
					0.10114516317844391,
					1
				],
				"metallicFactor":0,
				"roughnessFactor":0.8500000238418579
			}
		},
		{
			"doubleSided":true,
			"name":"M_e1",
			"pbrMetallicRoughness":{
				"baseColorFactor":[
					0.5924380421638489,
					0.2590273320674896,
					0.10114516317844391,
					1
				],
				"metallicFactor":0,
				"roughnessFactor":0.8500000238418579
			}
		},
		{
			"doubleSided":true,
			"name":"M_r0",
			"pbrMetallicRoughness":{
				"baseColorFactor":[
					0.8751375675201416,
					0.6186857223510742,
					0.2590273320674896,
					1
				],
				"metallicFactor":0,
				"roughnessFactor":0.9800000190734863
			}
		},
		{
			"doubleSided":true,
			"name":"M_r1",
			"pbrMetallicRoughness":{
				"baseColorFactor":[
					0.8751375675201416,
					0.6186857223510742,
					0.2590273320674896,
					1
				],
				"metallicFactor":0,
				"roughnessFactor":0.9800000190734863
			}
		},
		{
			"doubleSided":true,
			"name":"M_r2",
			"pbrMetallicRoughness":{
				"baseColorFactor":[
					0.8751375675201416,
					0.6186857223510742,
					0.2590273320674896,
					1
				],
				"metallicFactor":0,
				"roughnessFactor":0.9800000190734863
			}
		},
		{
			"doubleSided":true,
			"name":"M_r3",
			"pbrMetallicRoughness":{
				"baseColorFactor":[
					0.8751375675201416,
					0.6186857223510742,
					0.2590273320674896,
					1
				],
				"metallicFactor":0,
				"roughnessFactor":0.9800000190734863
			}
		},
		{
			"doubleSided":true,
			"name":"M_r4",
			"pbrMetallicRoughness":{
				"baseColorFactor":[
					0.8751375675201416,
					0.6186857223510742,
					0.2590273320674896,
					1
				],
				"metallicFactor":0,
				"roughnessFactor":0.9800000190734863
			}
		},
		{
			"doubleSided":true,
			"name":"M_r5",
			"pbrMetallicRoughness":{
				"baseColorFactor":[
					0.8751375675201416,
					0.6186857223510742,
					0.2590273320674896,
					1
				],
				"metallicFactor":0,
				"roughnessFactor":0.9800000190734863
			}
		},
		{
			"doubleSided":true,
			"name":"M_r6",
			"pbrMetallicRoughness":{
				"baseColorFactor":[
					0.8751375675201416,
					0.6186857223510742,
					0.2590273320674896,
					1
				],
				"metallicFactor":0,
				"roughnessFactor":0.9800000190734863
			}
		},
		{
			"doubleSided":true,
			"name":"M_r7",
			"pbrMetallicRoughness":{
				"baseColorFactor":[
					0.8751375675201416,
					0.6186857223510742,
					0.2590273320674896,
					1
				],
				"metallicFactor":0,
				"roughnessFactor":0.9800000190734863
			}
		},
		{
			"doubleSided":true,
			"name":"M_r8",
			"pbrMetallicRoughness":{
				"baseColorFactor":[
					0.8751375675201416,
					0.6186857223510742,
					0.2590273320674896,
					1
				],
				"metallicFactor":0,
				"roughnessFactor":0.9800000190734863
			}
		},
		{
			"doubleSided":true,
			"name":"M_r9",
			"pbrMetallicRoughness":{
				"baseColorFactor":[
					0.8751375675201416,
					0.6186857223510742,
					0.2590273320674896,
					1
				],
				"metallicFactor":0,
				"roughnessFactor":0.9800000190734863
			}
		},
		{
			"doubleSided":true,
			"name":"M_s0",
			"pbrMetallicRoughness":{
				"baseColorFactor":[
					0.5859729647636414,
					0.517401397228241,
					0.43134021759033203,
					1
				],
				"metallicFactor":0,
				"roughnessFactor":0.8500000238418579
			}
		},
		{
			"doubleSided":true,
			"name":"M_s1",
			"pbrMetallicRoughness":{
				"baseColorFactor":[
					0.5859729647636414,
					0.517401397228241,
					0.43134021759033203,
					1
				],
				"metallicFactor":0,
				"roughnessFactor":0.8500000238418579
			}
		},
		{
			"doubleSided":true,
			"name":"M_s2",
			"pbrMetallicRoughness":{
				"baseColorFactor":[
					0.7226724624633789,
					0.5924380421638489,
					0.39929330348968506,
					1
				],
				"metallicFactor":0,
				"roughnessFactor":0.8500000238418579
			}
		},
		{
			"doubleSided":true,
			"name":"M_s3",
			"pbrMetallicRoughness":{
				"baseColorFactor":[
					0.39929330348968506,
					0.10114516317844391,
					0.03561437129974365,
					1
				],
				"metallicFactor":0,
				"roughnessFactor":0.8500000238418579
			}
		},
		{
			"doubleSided":true,
			"name":"M_s4",
			"pbrMetallicRoughness":{
				"baseColorFactor":[
					0.39929330348968506,
					0.10114516317844391,
					0.03561437129974365,
					1
				],
				"metallicFactor":0,
				"roughnessFactor":0.8500000238418579
			}
		},
		{
			"doubleSided":true,
			"name":"M_s5",
			"pbrMetallicRoughness":{
				"baseColorFactor":[
					0.7226724624633789,
					0.5924380421638489,
					0.39929330348968506,
					1
				],
				"metallicFactor":0,
				"roughnessFactor":0.8500000238418579
			}
		},
		{
			"doubleSided":true,
			"name":"M_s6",
			"pbrMetallicRoughness":{
				"baseColorFactor":[
					0.39929330348968506,
					0.10114516317844391,
					0.03561437129974365,
					1
				],
				"metallicFactor":0,
				"roughnessFactor":0.8500000238418579
			}
		},
		{
			"doubleSided":true,
			"name":"M_s7",
			"pbrMetallicRoughness":{
				"baseColorFactor":[
					0.7226724624633789,
					0.5924380421638489,
					0.39929330348968506,
					1
				],
				"metallicFactor":0,
				"roughnessFactor":0.8500000238418579
			}
		},
		{
			"doubleSided":true,
			"name":"M_s8",
			"pbrMetallicRoughness":{
				"baseColorFactor":[
					0.5859729647636414,
					0.517401397228241,
					0.43134021759033203,
					1
				],
				"metallicFactor":0,
				"roughnessFactor":0.8500000238418579
			}
		},
		{
			"doubleSided":true,
			"name":"M_s9",
			"pbrMetallicRoughness":{
				"baseColorFactor":[
					0.39929330348968506,
					0.10114516317844391,
					0.03561437129974365,
					1
				],
				"metallicFactor":0,
				"roughnessFactor":0.8500000238418579
			}
		},
		{
			"doubleSided":true,
			"name":"M_s10",
			"pbrMetallicRoughness":{
				"baseColorFactor":[
					0.7226724624633789,
					0.5924380421638489,
					0.39929330348968506,
					1
				],
				"metallicFactor":0,
				"roughnessFactor":0.8500000238418579
			}
		},
		{
			"doubleSided":true,
			"name":"M_s11",
			"pbrMetallicRoughness":{
				"baseColorFactor":[
					0.39929330348968506,
					0.10114516317844391,
					0.03561437129974365,
					1
				],
				"metallicFactor":0,
				"roughnessFactor":0.8500000238418579
			}
		},
		{
			"doubleSided":true,
			"name":"M_s12",
			"pbrMetallicRoughness":{
				"baseColorFactor":[
					0.7226724624633789,
					0.5924380421638489,
					0.39929330348968506,
					1
				],
				"metallicFactor":0,
				"roughnessFactor":0.8500000238418579
			}
		},
		{
			"doubleSided":true,
			"name":"M_s13",
			"pbrMetallicRoughness":{
				"baseColorFactor":[
					0.7226724624633789,
					0.5924380421638489,
					0.39929330348968506,
					1
				],
				"metallicFactor":0,
				"roughnessFactor":0.8500000238418579
			}
		},
		{
			"doubleSided":true,
			"name":"M_wash",
			"pbrMetallicRoughness":{
				"baseColorFactor":[
					0.7518950700759888,
					0.47044023871421814,
					0.14497213065624237,
					1
				],
				"metallicFactor":0,
				"roughnessFactor":0.9800000190734863
			}
		}
	],
	"meshes":[
		{
			"name":"Cube.011",
			"primitives":[
				{
					"attributes":{
						"POSITION":0,
						"NORMAL":1,
						"TEXCOORD_0":2
					},
					"indices":3,
					"material":0
				}
			]
		},
		{
			"name":"Cube.012",
			"primitives":[
				{
					"attributes":{
						"POSITION":4,
						"NORMAL":5,
						"TEXCOORD_0":6
					},
					"indices":3,
					"material":1
				}
			]
		},
		{
			"name":"Cube.001",
			"primitives":[
				{
					"attributes":{
						"POSITION":7,
						"NORMAL":8,
						"TEXCOORD_0":9
					},
					"indices":10,
					"material":2
				}
			]
		},
		{
			"name":"Cube.002",
			"primitives":[
				{
					"attributes":{
						"POSITION":11,
						"NORMAL":12,
						"TEXCOORD_0":13
					},
					"indices":14,
					"material":3
				}
			]
		},
		{
			"name":"Cube.003",
			"primitives":[
				{
					"attributes":{
						"POSITION":15,
						"NORMAL":16,
						"TEXCOORD_0":17
					},
					"indices":18,
					"material":4
				}
			]
		},
		{
			"name":"Cube.004",
			"primitives":[
				{
					"attributes":{
						"POSITION":19,
						"NORMAL":20,
						"TEXCOORD_0":21
					},
					"indices":22,
					"material":5
				}
			]
		},
		{
			"name":"Cube.005",
			"primitives":[
				{
					"attributes":{
						"POSITION":23,
						"NORMAL":24,
						"TEXCOORD_0":25
					},
					"indices":18,
					"material":6
				}
			]
		},
		{
			"name":"Cube.006",
			"primitives":[
				{
					"attributes":{
						"POSITION":26,
						"NORMAL":27,
						"TEXCOORD_0":28
					},
					"indices":29,
					"material":7
				}
			]
		},
		{
			"name":"Cube.007",
			"primitives":[
				{
					"attributes":{
						"POSITION":30,
						"NORMAL":31,
						"TEXCOORD_0":32
					},
					"indices":10,
					"material":8
				}
			]
		},
		{
			"name":"Cube.008",
			"primitives":[
				{
					"attributes":{
						"POSITION":33,
						"NORMAL":34,
						"TEXCOORD_0":35
					},
					"indices":10,
					"material":9
				}
			]
		},
		{
			"name":"Cube.009",
			"primitives":[
				{
					"attributes":{
						"POSITION":36,
						"NORMAL":37,
						"TEXCOORD_0":38
					},
					"indices":39,
					"material":10
				}
			]
		},
		{
			"name":"Cube.010",
			"primitives":[
				{
					"attributes":{
						"POSITION":40,
						"NORMAL":41,
						"TEXCOORD_0":42
					},
					"indices":43,
					"material":11
				}
			]
		},
		{
			"name":"Icosphere",
			"primitives":[
				{
					"attributes":{
						"POSITION":44,
						"NORMAL":45,
						"TEXCOORD_0":46
					},
					"indices":47,
					"material":12
				}
			]
		},
		{
			"name":"Icosphere.001",
			"primitives":[
				{
					"attributes":{
						"POSITION":48,
						"NORMAL":49,
						"TEXCOORD_0":50
					},
					"indices":47,
					"material":13
				}
			]
		},
		{
			"name":"Icosphere.002",
			"primitives":[
				{
					"attributes":{
						"POSITION":51,
						"NORMAL":52,
						"TEXCOORD_0":53
					},
					"indices":47,
					"material":14
				}
			]
		},
		{
			"name":"Icosphere.003",
			"primitives":[
				{
					"attributes":{
						"POSITION":54,
						"NORMAL":55,
						"TEXCOORD_0":56
					},
					"indices":47,
					"material":15
				}
			]
		},
		{
			"name":"Icosphere.004",
			"primitives":[
				{
					"attributes":{
						"POSITION":57,
						"NORMAL":58,
						"TEXCOORD_0":59
					},
					"indices":47,
					"material":16
				}
			]
		},
		{
			"name":"Icosphere.005",
			"primitives":[
				{
					"attributes":{
						"POSITION":60,
						"NORMAL":61,
						"TEXCOORD_0":62
					},
					"indices":47,
					"material":17
				}
			]
		},
		{
			"name":"Icosphere.006",
			"primitives":[
				{
					"attributes":{
						"POSITION":63,
						"NORMAL":64,
						"TEXCOORD_0":65
					},
					"indices":47,
					"material":18
				}
			]
		},
		{
			"name":"Icosphere.007",
			"primitives":[
				{
					"attributes":{
						"POSITION":66,
						"NORMAL":67,
						"TEXCOORD_0":68
					},
					"indices":47,
					"material":19
				}
			]
		},
		{
			"name":"Icosphere.008",
			"primitives":[
				{
					"attributes":{
						"POSITION":69,
						"NORMAL":70,
						"TEXCOORD_0":71
					},
					"indices":47,
					"material":20
				}
			]
		},
		{
			"name":"Icosphere.009",
			"primitives":[
				{
					"attributes":{
						"POSITION":72,
						"NORMAL":73,
						"TEXCOORD_0":74
					},
					"indices":47,
					"material":21
				}
			]
		},
		{
			"name":"Icosphere.010",
			"primitives":[
				{
					"attributes":{
						"POSITION":75,
						"NORMAL":76,
						"TEXCOORD_0":77
					},
					"indices":47,
					"material":22
				}
			]
		},
		{
			"name":"Icosphere.011",
			"primitives":[
				{
					"attributes":{
						"POSITION":78,
						"NORMAL":79,
						"TEXCOORD_0":80
					},
					"indices":47,
					"material":23
				}
			]
		},
		{
			"name":"Icosphere.012",
			"primitives":[
				{
					"attributes":{
						"POSITION":81,
						"NORMAL":82,
						"TEXCOORD_0":83
					},
					"indices":47,
					"material":24
				}
			]
		},
		{
			"name":"Icosphere.013",
			"primitives":[
				{
					"attributes":{
						"POSITION":84,
						"NORMAL":85,
						"TEXCOORD_0":86
					},
					"indices":47,
					"material":25
				}
			]
		},
		{
			"name":"Cube",
			"primitives":[
				{
					"attributes":{
						"POSITION":87,
						"NORMAL":88,
						"TEXCOORD_0":89
					},
					"indices":90,
					"material":26
				}
			]
		}
	],
	"accessors":[
		{
			"bufferView":0,
			"componentType":5126,
			"count":24,
			"max":[
				-4.200000286102295,
				0.05700000375509262,
				12
			],
			"min":[
				-4.900000095367432,
				-0.032999999821186066,
				-12
			],
			"type":"VEC3"
		},
		{
			"bufferView":1,
			"componentType":5126,
			"count":24,
			"type":"VEC3"
		},
		{
			"bufferView":2,
			"componentType":5126,
			"count":24,
			"type":"VEC2"
		},
		{
			"bufferView":3,
			"componentType":5123,
			"count":36,
			"type":"SCALAR"
		},
		{
			"bufferView":4,
			"componentType":5126,
			"count":24,
			"max":[
				4.900000095367432,
				0.05700000375509262,
				12
			],
			"min":[
				4.200000286102295,
				-0.032999999821186066,
				-12
			],
			"type":"VEC3"
		},
		{
			"bufferView":5,
			"componentType":5126,
			"count":24,
			"type":"VEC3"
		},
		{
			"bufferView":6,
			"componentType":5126,
			"count":24,
			"type":"VEC2"
		},
		{
			"bufferView":7,
			"componentType":5126,
			"count":96,
			"max":[
				3.8512637615203857,
				0.024000000208616257,
				10.964481353759766
			],
			"min":[
				-4.5476393699646,
				-0.00800000037997961,
				10.437288284301758
			],
			"type":"VEC3"
		},
		{
			"bufferView":8,
			"componentType":5126,
			"count":96,
			"type":"VEC3"
		},
		{
			"bufferView":9,
			"componentType":5126,
			"count":96,
			"type":"VEC2"
		},
		{
			"bufferView":10,
			"componentType":5123,
			"count":132,
			"type":"SCALAR"
		},
		{
			"bufferView":11,
			"componentType":5126,
			"count":96,
			"max":[
				3.430375814437866,
				0.024000000208616257,
				8.38335132598877
			],
			"min":[
				-4.970125675201416,
				-0.00800000037997961,
				8.171536445617676
			],
			"type":"VEC3"
		},
		{
			"bufferView":12,
			"componentType":5126,
			"count":96,
			"type":"VEC3"
		},
		{
			"bufferView":13,
			"componentType":5126,
			"count":96,
			"type":"VEC2"
		},
		{
			"bufferView":14,
			"componentType":5123,
			"count":132,
			"type":"SCALAR"
		},
		{
			"bufferView":15,
			"componentType":5126,
			"count":96,
			"max":[
				4.420106410980225,
				0.024000000208616257,
				6.469168663024902
			],
			"min":[
				-3.97477388381958,
				-0.00800000037997961,
				5.815041542053223
			],
			"type":"VEC3"
		},
		{
			"bufferView":16,
			"componentType":5126,
			"count":96,
			"type":"VEC3"
		},
		{
			"bufferView":17,
			"componentType":5126,
			"count":96,
			"type":"VEC2"
		},
		{
			"bufferView":18,
			"componentType":5123,
			"count":132,
			"type":"SCALAR"
		},
		{
			"bufferView":19,
			"componentType":5126,
			"count":96,
			"max":[
				4.198768615722656,
				0.024000000208616257,
				3.9941368103027344
			],
			"min":[
				-4.1962890625,
				-0.00800000037997961,
				3.34456205368042
			],
			"type":"VEC3"
		},
		{
			"bufferView":20,
			"componentType":5126,
			"count":96,
			"type":"VEC3"
		},
		{
			"bufferView":21,
			"componentType":5126,
			"count":96,
			"type":"VEC2"
		},
		{
			"bufferView":22,
			"componentType":5123,
			"count":132,
			"type":"SCALAR"
		},
		{
			"bufferView":23,
			"componentType":5126,
			"count":96,
			"max":[
				5.112466812133789,
				0.024000000208616257,
				2.180546522140503
			],
			"min":[
				-3.2837626934051514,
				-0.00800000037997961,
				1.5627511739730835
			],
			"type":"VEC3"
		},
		{
			"bufferView":24,
			"componentType":5126,
			"count":96,
			"type":"VEC3"
		},
		{
			"bufferView":25,
			"componentType":5126,
			"count":96,
			"type":"VEC2"
		},
		{
			"bufferView":26,
			"componentType":5126,
			"count":96,
			"max":[
				4.212545871734619,
				0.024000000208616257,
				-0.9988662600517273
			],
			"min":[
				-4.183286190032959,
				-0.00800000037997961,
				-1.627844214439392
			],
			"type":"VEC3"
		},
		{
			"bufferView":27,
			"componentType":5126,
			"count":96,
			"type":"VEC3"
		},
		{
			"bufferView":28,
			"componentType":5126,
			"count":96,
			"type":"VEC2"
		},
		{
			"bufferView":29,
			"componentType":5123,
			"count":132,
			"type":"SCALAR"
		},
		{
			"bufferView":30,
			"componentType":5126,
			"count":96,
			"max":[
				3.8386900424957275,
				0.024000000208616257,
				-2.716914415359497
			],
			"min":[
				-4.552761077880859,
				-0.00800000037997961,
				-3.448833703994751
			],
			"type":"VEC3"
		},
		{
			"bufferView":31,
			"componentType":5126,
			"count":96,
			"type":"VEC3"
		},
		{
			"bufferView":32,
			"componentType":5126,
			"count":96,
			"type":"VEC2"
		},
		{
			"bufferView":33,
			"componentType":5126,
			"count":96,
			"max":[
				4.266749858856201,
				0.024000000208616257,
				-5.791391849517822
			],
			"min":[
				-4.1308770179748535,
				-0.00800000037997961,
				-6.36604642868042
			],
			"type":"VEC3"
		},
		{
			"bufferView":34,
			"componentType":5126,
			"count":96,
			"type":"VEC3"
		},
		{
			"bufferView":35,
			"componentType":5126,
			"count":96,
			"type":"VEC2"
		},
		{
			"bufferView":36,
			"componentType":5126,
			"count":96,
			"max":[
				3.3606131076812744,
				0.024000000208616257,
				-7.6011247634887695
			],
			"min":[
				-5.0368170738220215,
				-0.00800000037997961,
				-8.1822509765625
			],
			"type":"VEC3"
		},
		{
			"bufferView":37,
			"componentType":5126,
			"count":96,
			"type":"VEC3"
		},
		{
			"bufferView":38,
			"componentType":5126,
			"count":96,
			"type":"VEC2"
		},
		{
			"bufferView":39,
			"componentType":5123,
			"count":132,
			"type":"SCALAR"
		},
		{
			"bufferView":40,
			"componentType":5126,
			"count":96,
			"max":[
				4.0754570960998535,
				0.024000000208616257,
				-10.433435440063477
			],
			"min":[
				-4.324893474578857,
				-0.00800000037997961,
				-10.886772155761719
			],
			"type":"VEC3"
		},
		{
			"bufferView":41,
			"componentType":5126,
			"count":96,
			"type":"VEC3"
		},
		{
			"bufferView":42,
			"componentType":5126,
			"count":96,
			"type":"VEC2"
		},
		{
			"bufferView":43,
			"componentType":5123,
			"count":132,
			"type":"SCALAR"
		},
		{
			"bufferView":44,
			"componentType":5126,
			"count":22,
			"max":[
				-2.893177032470703,
				0.07233697921037674,
				-7.176631927490234
			],
			"min":[
				-3.5802974700927734,
				-0.13681533932685852,
				-7.736277103424072
			],
			"type":"VEC3"
		},
		{
			"bufferView":45,
			"componentType":5126,
			"count":22,
			"type":"VEC3"
		},
		{
			"bufferView":46,
			"componentType":5126,
			"count":22,
			"type":"VEC2"
		},
		{
			"bufferView":47,
			"componentType":5123,
			"count":60,
			"type":"SCALAR"
		},
		{
			"bufferView":48,
			"componentType":5126,
			"count":22,
			"max":[
				-1.0370737314224243,
				0.062466368079185486,
				9.349153518676758
			],
			"min":[
				-1.5674115419387817,
				-0.12339632213115692,
				8.806861877441406
			],
			"type":"VEC3"
		},
		{
			"bufferView":49,
			"componentType":5126,
			"count":22,
			"type":"VEC3"
		},
		{
			"bufferView":50,
			"componentType":5126,
			"count":22,
			"type":"VEC2"
		},
		{
			"bufferView":51,
			"componentType":5126,
			"count":22,
			"max":[
				3.9117679595947266,
				0.07520405948162079,
				5.351095199584961
			],
			"min":[
				3.265260696411133,
				-0.11249706149101257,
				4.698860168457031
			],
			"type":"VEC3"
		},
		{
			"bufferView":52,
			"componentType":5126,
			"count":22,
			"type":"VEC3"
		},
		{
			"bufferView":53,
			"componentType":5126,
			"count":22,
			"type":"VEC2"
		},
		{
			"bufferView":54,
			"componentType":5126,
			"count":22,
			"max":[
				-0.7713860273361206,
				0.1055687963962555,
				-0.3545787036418915
			],
			"min":[
				-1.4599806070327759,
				-0.12560667097568512,
				-0.938327968120575
			],
			"type":"VEC3"
		},
		{
			"bufferView":55,
			"componentType":5126,
			"count":22,
			"type":"VEC3"
		},
		{
			"bufferView":56,
			"componentType":5126,
			"count":22,
			"type":"VEC2"
		},
		{
			"bufferView":57,
			"componentType":5126,
			"count":22,
			"max":[
				2.142378568649292,
				0.10167054831981659,
				-9.595071792602539
			],
			"min":[
				1.6439365148544312,
				-0.09286747872829437,
				-9.971680641174316
			],
			"type":"VEC3"
		},
		{
			"bufferView":58,
			"componentType":5126,
			"count":22,
			"type":"VEC3"
		},
		{
			"bufferView":59,
			"componentType":5126,
			"count":22,
			"type":"VEC2"
		},
		{
			"bufferView":60,
			"componentType":5126,
			"count":22,
			"max":[
				-0.4320543110370636,
				0.09320437908172607,
				8.124457359313965
			],
			"min":[
				-1.0347330570220947,
				-0.13181206583976746,
				7.797176361083984
			],
			"type":"VEC3"
		},
		{
			"bufferView":61,
			"componentType":5126,
			"count":22,
			"type":"VEC3"
		},
		{
			"bufferView":62,
			"componentType":5126,
			"count":22,
			"type":"VEC2"
		},
		{
			"bufferView":63,
			"componentType":5126,
			"count":22,
			"max":[
				-3.1177685260772705,
				0.10718439519405365,
				-2.7021615505218506
			],
			"min":[
				-3.7538957595825195,
				-0.09255906194448471,
				-3.1719391345977783
			],
			"type":"VEC3"
		},
		{
			"bufferView":64,
			"componentType":5126,
			"count":22,
			"type":"VEC3"
		},
		{
			"bufferView":65,
			"componentType":5126,
			"count":22,
			"type":"VEC2"
		},
		{
			"bufferView":66,
			"componentType":5126,
			"count":22,
			"max":[
				-2.589768171310425,
				0.0715535581111908,
				-10.425015449523926
			],
			"min":[
				-3.282831907272339,
				-0.09463290870189667,
				-10.96255111694336
			],
			"type":"VEC3"
		},
		{
			"bufferView":67,
			"componentType":5126,
			"count":22,
			"type":"VEC3"
		},
		{
			"bufferView":68,
			"componentType":5126,
			"count":22,
			"type":"VEC2"
		},
		{
			"bufferView":69,
			"componentType":5126,
			"count":22,
			"max":[
				1.4418566226959229,
				0.06935500353574753,
				-6.911011695861816
			],
			"min":[
				0.8733959197998047,
				-0.08844535797834396,
				-7.2646026611328125
			],
			"type":"VEC3"
		},
		{
			"bufferView":70,
			"componentType":5126,
			"count":22,
			"type":"VEC3"
		},
		{
			"bufferView":71,
			"componentType":5126,
			"count":22,
			"type":"VEC2"
		},
		{
			"bufferView":72,
			"componentType":5126,
			"count":22,
			"max":[
				-2.800969123840332,
				0.07038895785808563,
				-7.259997367858887
			],
			"min":[
				-3.419851064682007,
				-0.12894952297210693,
				-7.852121353149414
			],
			"type":"VEC3"
		},
		{
			"bufferView":73,
			"componentType":5126,
			"count":22,
			"type":"VEC3"
		},
		{
			"bufferView":74,
			"componentType":5126,
			"count":22,
			"type":"VEC2"
		},
		{
			"bufferView":75,
			"componentType":5126,
			"count":22,
			"max":[
				0.8501681089401245,
				0.06877892464399338,
				9.906900405883789
			],
			"min":[
				0.27722999453544617,
				-0.0768803060054779,
				9.392704963684082
			],
			"type":"VEC3"
		},
		{
			"bufferView":76,
			"componentType":5126,
			"count":22,
			"type":"VEC3"
		},
		{
			"bufferView":77,
			"componentType":5126,
			"count":22,
			"type":"VEC2"
		},
		{
			"bufferView":78,
			"componentType":5126,
			"count":22,
			"max":[
				1.8135714530944824,
				0.10242178291082382,
				5.953171253204346
			],
			"min":[
				1.2585878372192383,
				-0.12380624562501907,
				5.529128074645996
			],
			"type":"VEC3"
		},
		{
			"bufferView":79,
			"componentType":5126,
			"count":22,
			"type":"VEC3"
		},
		{
			"bufferView":80,
			"componentType":5126,
			"count":22,
			"type":"VEC2"
		},
		{
			"bufferView":81,
			"componentType":5126,
			"count":22,
			"max":[
				3.899399995803833,
				0.06562699377536774,
				8.933947563171387
			],
			"min":[
				3.267909526824951,
				-0.07874780893325806,
				8.525070190429688
			],
			"type":"VEC3"
		},
		{
			"bufferView":82,
			"componentType":5126,
			"count":22,
			"type":"VEC3"
		},
		{
			"bufferView":83,
			"componentType":5126,
			"count":22,
			"type":"VEC2"
		},
		{
			"bufferView":84,
			"componentType":5126,
			"count":22,
			"max":[
				2.2539143562316895,
				0.10249312222003937,
				9.276946067810059
			],
			"min":[
				1.8270184993743896,
				-0.09435127675533295,
				8.959306716918945
			],
			"type":"VEC3"
		},
		{
			"bufferView":85,
			"componentType":5126,
			"count":22,
			"type":"VEC3"
		},
		{
			"bufferView":86,
			"componentType":5126,
			"count":22,
			"type":"VEC2"
		},
		{
			"bufferView":87,
			"componentType":5126,
			"count":96,
			"max":[
				4.699999809265137,
				0,
				12
			],
			"min":[
				-4.699999809265137,
				-0.2199999988079071,
				-12
			],
			"type":"VEC3"
		},
		{
			"bufferView":88,
			"componentType":5126,
			"count":96,
			"type":"VEC3"
		},
		{
			"bufferView":89,
			"componentType":5126,
			"count":96,
			"type":"VEC2"
		},
		{
			"bufferView":90,
			"componentType":5123,
			"count":132,
			"type":"SCALAR"
		}
	],
	"bufferViews":[
		{
			"buffer":0,
			"byteLength":288,
			"byteOffset":0,
			"target":34962
		},
		{
			"buffer":0,
			"byteLength":288,
			"byteOffset":288,
			"target":34962
		},
		{
			"buffer":0,
			"byteLength":192,
			"byteOffset":576,
			"target":34962
		},
		{
			"buffer":0,
			"byteLength":72,
			"byteOffset":768,
			"target":34963
		},
		{
			"buffer":0,
			"byteLength":288,
			"byteOffset":840,
			"target":34962
		},
		{
			"buffer":0,
			"byteLength":288,
			"byteOffset":1128,
			"target":34962
		},
		{
			"buffer":0,
			"byteLength":192,
			"byteOffset":1416,
			"target":34962
		},
		{
			"buffer":0,
			"byteLength":1152,
			"byteOffset":1608,
			"target":34962
		},
		{
			"buffer":0,
			"byteLength":1152,
			"byteOffset":2760,
			"target":34962
		},
		{
			"buffer":0,
			"byteLength":768,
			"byteOffset":3912,
			"target":34962
		},
		{
			"buffer":0,
			"byteLength":264,
			"byteOffset":4680,
			"target":34963
		},
		{
			"buffer":0,
			"byteLength":1152,
			"byteOffset":4944,
			"target":34962
		},
		{
			"buffer":0,
			"byteLength":1152,
			"byteOffset":6096,
			"target":34962
		},
		{
			"buffer":0,
			"byteLength":768,
			"byteOffset":7248,
			"target":34962
		},
		{
			"buffer":0,
			"byteLength":264,
			"byteOffset":8016,
			"target":34963
		},
		{
			"buffer":0,
			"byteLength":1152,
			"byteOffset":8280,
			"target":34962
		},
		{
			"buffer":0,
			"byteLength":1152,
			"byteOffset":9432,
			"target":34962
		},
		{
			"buffer":0,
			"byteLength":768,
			"byteOffset":10584,
			"target":34962
		},
		{
			"buffer":0,
			"byteLength":264,
			"byteOffset":11352,
			"target":34963
		},
		{
			"buffer":0,
			"byteLength":1152,
			"byteOffset":11616,
			"target":34962
		},
		{
			"buffer":0,
			"byteLength":1152,
			"byteOffset":12768,
			"target":34962
		},
		{
			"buffer":0,
			"byteLength":768,
			"byteOffset":13920,
			"target":34962
		},
		{
			"buffer":0,
			"byteLength":264,
			"byteOffset":14688,
			"target":34963
		},
		{
			"buffer":0,
			"byteLength":1152,
			"byteOffset":14952,
			"target":34962
		},
		{
			"buffer":0,
			"byteLength":1152,
			"byteOffset":16104,
			"target":34962
		},
		{
			"buffer":0,
			"byteLength":768,
			"byteOffset":17256,
			"target":34962
		},
		{
			"buffer":0,
			"byteLength":1152,
			"byteOffset":18024,
			"target":34962
		},
		{
			"buffer":0,
			"byteLength":1152,
			"byteOffset":19176,
			"target":34962
		},
		{
			"buffer":0,
			"byteLength":768,
			"byteOffset":20328,
			"target":34962
		},
		{
			"buffer":0,
			"byteLength":264,
			"byteOffset":21096,
			"target":34963
		},
		{
			"buffer":0,
			"byteLength":1152,
			"byteOffset":21360,
			"target":34962
		},
		{
			"buffer":0,
			"byteLength":1152,
			"byteOffset":22512,
			"target":34962
		},
		{
			"buffer":0,
			"byteLength":768,
			"byteOffset":23664,
			"target":34962
		},
		{
			"buffer":0,
			"byteLength":1152,
			"byteOffset":24432,
			"target":34962
		},
		{
			"buffer":0,
			"byteLength":1152,
			"byteOffset":25584,
			"target":34962
		},
		{
			"buffer":0,
			"byteLength":768,
			"byteOffset":26736,
			"target":34962
		},
		{
			"buffer":0,
			"byteLength":1152,
			"byteOffset":27504,
			"target":34962
		},
		{
			"buffer":0,
			"byteLength":1152,
			"byteOffset":28656,
			"target":34962
		},
		{
			"buffer":0,
			"byteLength":768,
			"byteOffset":29808,
			"target":34962
		},
		{
			"buffer":0,
			"byteLength":264,
			"byteOffset":30576,
			"target":34963
		},
		{
			"buffer":0,
			"byteLength":1152,
			"byteOffset":30840,
			"target":34962
		},
		{
			"buffer":0,
			"byteLength":1152,
			"byteOffset":31992,
			"target":34962
		},
		{
			"buffer":0,
			"byteLength":768,
			"byteOffset":33144,
			"target":34962
		},
		{
			"buffer":0,
			"byteLength":264,
			"byteOffset":33912,
			"target":34963
		},
		{
			"buffer":0,
			"byteLength":264,
			"byteOffset":34176,
			"target":34962
		},
		{
			"buffer":0,
			"byteLength":264,
			"byteOffset":34440,
			"target":34962
		},
		{
			"buffer":0,
			"byteLength":176,
			"byteOffset":34704,
			"target":34962
		},
		{
			"buffer":0,
			"byteLength":120,
			"byteOffset":34880,
			"target":34963
		},
		{
			"buffer":0,
			"byteLength":264,
			"byteOffset":35000,
			"target":34962
		},
		{
			"buffer":0,
			"byteLength":264,
			"byteOffset":35264,
			"target":34962
		},
		{
			"buffer":0,
			"byteLength":176,
			"byteOffset":35528,
			"target":34962
		},
		{
			"buffer":0,
			"byteLength":264,
			"byteOffset":35704,
			"target":34962
		},
		{
			"buffer":0,
			"byteLength":264,
			"byteOffset":35968,
			"target":34962
		},
		{
			"buffer":0,
			"byteLength":176,
			"byteOffset":36232,
			"target":34962
		},
		{
			"buffer":0,
			"byteLength":264,
			"byteOffset":36408,
			"target":34962
		},
		{
			"buffer":0,
			"byteLength":264,
			"byteOffset":36672,
			"target":34962
		},
		{
			"buffer":0,
			"byteLength":176,
			"byteOffset":36936,
			"target":34962
		},
		{
			"buffer":0,
			"byteLength":264,
			"byteOffset":37112,
			"target":34962
		},
		{
			"buffer":0,
			"byteLength":264,
			"byteOffset":37376,
			"target":34962
		},
		{
			"buffer":0,
			"byteLength":176,
			"byteOffset":37640,
			"target":34962
		},
		{
			"buffer":0,
			"byteLength":264,
			"byteOffset":37816,
			"target":34962
		},
		{
			"buffer":0,
			"byteLength":264,
			"byteOffset":38080,
			"target":34962
		},
		{
			"buffer":0,
			"byteLength":176,
			"byteOffset":38344,
			"target":34962
		},
		{
			"buffer":0,
			"byteLength":264,
			"byteOffset":38520,
			"target":34962
		},
		{
			"buffer":0,
			"byteLength":264,
			"byteOffset":38784,
			"target":34962
		},
		{
			"buffer":0,
			"byteLength":176,
			"byteOffset":39048,
			"target":34962
		},
		{
			"buffer":0,
			"byteLength":264,
			"byteOffset":39224,
			"target":34962
		},
		{
			"buffer":0,
			"byteLength":264,
			"byteOffset":39488,
			"target":34962
		},
		{
			"buffer":0,
			"byteLength":176,
			"byteOffset":39752,
			"target":34962
		},
		{
			"buffer":0,
			"byteLength":264,
			"byteOffset":39928,
			"target":34962
		},
		{
			"buffer":0,
			"byteLength":264,
			"byteOffset":40192,
			"target":34962
		},
		{
			"buffer":0,
			"byteLength":176,
			"byteOffset":40456,
			"target":34962
		},
		{
			"buffer":0,
			"byteLength":264,
			"byteOffset":40632,
			"target":34962
		},
		{
			"buffer":0,
			"byteLength":264,
			"byteOffset":40896,
			"target":34962
		},
		{
			"buffer":0,
			"byteLength":176,
			"byteOffset":41160,
			"target":34962
		},
		{
			"buffer":0,
			"byteLength":264,
			"byteOffset":41336,
			"target":34962
		},
		{
			"buffer":0,
			"byteLength":264,
			"byteOffset":41600,
			"target":34962
		},
		{
			"buffer":0,
			"byteLength":176,
			"byteOffset":41864,
			"target":34962
		},
		{
			"buffer":0,
			"byteLength":264,
			"byteOffset":42040,
			"target":34962
		},
		{
			"buffer":0,
			"byteLength":264,
			"byteOffset":42304,
			"target":34962
		},
		{
			"buffer":0,
			"byteLength":176,
			"byteOffset":42568,
			"target":34962
		},
		{
			"buffer":0,
			"byteLength":264,
			"byteOffset":42744,
			"target":34962
		},
		{
			"buffer":0,
			"byteLength":264,
			"byteOffset":43008,
			"target":34962
		},
		{
			"buffer":0,
			"byteLength":176,
			"byteOffset":43272,
			"target":34962
		},
		{
			"buffer":0,
			"byteLength":264,
			"byteOffset":43448,
			"target":34962
		},
		{
			"buffer":0,
			"byteLength":264,
			"byteOffset":43712,
			"target":34962
		},
		{
			"buffer":0,
			"byteLength":176,
			"byteOffset":43976,
			"target":34962
		},
		{
			"buffer":0,
			"byteLength":1152,
			"byteOffset":44152,
			"target":34962
		},
		{
			"buffer":0,
			"byteLength":1152,
			"byteOffset":45304,
			"target":34962
		},
		{
			"buffer":0,
			"byteLength":768,
			"byteOffset":46456,
			"target":34962
		},
		{
			"buffer":0,
			"byteLength":264,
			"byteOffset":47224,
			"target":34963
		}
	],
	"buffers":[
		{
			"byteLength":47488,
			"uri":"hd_rd_sand.bin"
		}
	]
}
