{
	"asset":{
		"generator":"Khronos glTF Blender I/O v5.2.40",
		"version":"2.0"
	},
	"scene":0,
	"scenes":[
		{
			"name":"Scene",
			"nodes":[
				0,
				1,
				2
			]
		}
	],
	"nodes":[
		{
			"mesh":0,
			"name":"d0"
		},
		{
			"mesh":1,
			"name":"d1"
		},
		{
			"mesh":2,
			"name":"d2"
		}
	],
	"materials":[
		{
			"doubleSided":true,
			"name":"M_sd0",
			"pbrMetallicRoughness":{
				"baseColorFactor":[
					0.8912620544433594,
					0.9406006932258606,
					0.97430020570755,
					1
				],
				"metallicFactor":0,
				"roughnessFactor":0.8500000238418579
			}
		},
		{
			"doubleSided":true,
			"name":"M_sd1",
			"pbrMetallicRoughness":{
				"baseColorFactor":[
					0.6800203323364258,
					0.7817506790161133,
					0.859173595905304,
					1
				],
				"metallicFactor":0,
				"roughnessFactor":0.8500000238418579
			}
		},
		{
			"doubleSided":true,
			"name":"M_sd2",
			"pbrMetallicRoughness":{
				"baseColorFactor":[
					0.6800203323364258,
					0.7817506790161133,
					0.859173595905304,
					1
				],
				"metallicFactor":0,
				"roughnessFactor":0.8500000238418579
			}
		}
	],
	"meshes":[
		{
			"name":"Icosphere",
			"primitives":[
				{
					"attributes":{
						"POSITION":0,
						"NORMAL":1,
						"TEXCOORD_0":2
					},
					"indices":3,
					"material":0
				}
			]
		},
		{
			"name":"Icosphere.001",
			"primitives":[
				{
					"attributes":{
						"POSITION":4,
						"NORMAL":5,
						"TEXCOORD_0":6
					},
					"indices":3,
					"material":1
				}
			]
		},
		{
			"name":"Icosphere.002",
			"primitives":[
				{
					"attributes":{
						"POSITION":7,
						"NORMAL":8,
						"TEXCOORD_0":9
					},
					"indices":3,
					"material":2
				}
			]
		}
	],
	"accessors":[
		{
			"bufferView":0,
			"componentType":5126,
			"count":63,
			"max":[
				0.7190706133842468,
				0.3908425271511078,
				0.5906003713607788
			],
			"min":[
				-0.6923242211341858,
				-0.18476571142673492,
				-0.6297754049301147
			],
			"type":"VEC3"
		},
		{
			"bufferView":1,
			"componentType":5126,
			"count":63,
			"type":"VEC3"
		},
		{
			"bufferView":2,
			"componentType":5126,
			"count":63,
			"type":"VEC2"
		},
		{
			"bufferView":3,
			"componentType":5123,
			"count":240,
			"type":"SCALAR"
		},
		{
			"bufferView":4,
			"componentType":5126,
			"count":63,
			"max":[
				-0.12151841074228287,
				0.24677784740924835,
				0.14779706299304962
			],
			"min":[
				-0.980790913105011,
				-0.09291565418243408,
				-0.5831707715988159
			],
			"type":"VEC3"
		},
		{
			"bufferView":5,
			"componentType":5126,
			"count":63,
			"type":"VEC3"
		},
		{
			"bufferView":6,
			"componentType":5126,
			"count":63,
			"type":"VEC2"
		},
		{
			"bufferView":7,
			"componentType":5126,
			"count":63,
			"max":[
				0.9167877435684204,
				0.23575763404369354,
				0.17893511056900024
			],
			"min":[
				0.08121416717767715,
				-0.12560692429542542,
				-0.5012365579605103
			],
			"type":"VEC3"
		},
		{
			"bufferView":8,
			"componentType":5126,
			"count":63,
			"type":"VEC3"
		},
		{
			"bufferView":9,
			"componentType":5126,
			"count":63,
			"type":"VEC2"
		}
	],
	"bufferViews":[
		{
			"buffer":0,
			"byteLength":756,
			"byteOffset":0,
			"target":34962
		},
		{
			"buffer":0,
			"byteLength":756,
			"byteOffset":756,
			"target":34962
		},
		{
			"buffer":0,
			"byteLength":504,
			"byteOffset":1512,
			"target":34962
		},
		{
			"buffer":0,
			"byteLength":480,
			"byteOffset":2016,
			"target":34963
		},
		{
			"buffer":0,
			"byteLength":756,
			"byteOffset":2496,
			"target":34962
		},
		{
			"buffer":0,
			"byteLength":756,
			"byteOffset":3252,
			"target":34962
		},
		{
			"buffer":0,
			"byteLength":504,
			"byteOffset":4008,
			"target":34962
		},
		{
			"buffer":0,
			"byteLength":756,
			"byteOffset":4512,
			"target":34962
		},
		{
			"buffer":0,
			"byteLength":756,
			"byteOffset":5268,
			"target":34962
		},
		{
			"buffer":0,
			"byteLength":504,
			"byteOffset":6024,
			"target":34962
		}
	],
	"buffers":[
		{
			"byteLength":6528,
			"uri":"hd_snowdrift.bin"
		}
	]
}
