{
	"asset":{
		"generator":"Khronos glTF Blender I/O v5.2.40",
		"version":"2.0"
	},
	"scene":0,
	"scenes":[
		{
			"name":"Scene",
			"nodes":[
				0,
				1,
				2,
				3,
				4,
				5
			]
		}
	],
	"nodes":[
		{
			"mesh":0,
			"name":"box"
		},
		{
			"mesh":1,
			"name":"rim"
		},
		{
			"mesh":2,
			"name":"soil"
		},
		{
			"mesh":3,
			"name":"tp0"
		},
		{
			"mesh":4,
			"name":"tp1"
		},
		{
			"mesh":5,
			"name":"tp2"
		}
	],
	"materials":[
		{
			"doubleSided":true,
			"name":"M_pb",
			"pbrMetallicRoughness":{
				"baseColorFactor":[
					0.46474114060401917,
					0.08919350802898407,
					0.03994717076420784,
					1
				],
				"metallicFactor":0,
				"roughnessFactor":0.8500000238418579
			}
		},
		{
			"doubleSided":true,
			"name":"M_pbr",
			"pbrMetallicRoughness":{
				"baseColorFactor":[
					0.46474114060401917,
					0.08919350802898407,
					0.03994717076420784,
					1
				],
				"metallicFactor":0,
				"roughnessFactor":0.8500000238418579
			}
		},
		{
			"doubleSided":true,
			"name":"M_soil",
			"pbrMetallicRoughness":{
				"baseColorFactor":[
					0.10615606606006622,
					0.0477757528424263,
					0.025371277704834938,
					1
				],
				"metallicFactor":0,
				"roughnessFactor":0.8500000238418579
			}
		},
		{
			"doubleSided":true,
			"name":"M_pt0",
			"pbrMetallicRoughness":{
				"baseColorFactor":[
					0.1939721703529358,
					0.6592239737510681,
					0.0915183499455452,
					1
				],
				"metallicFactor":0,
				"roughnessFactor":0.8500000238418579
			}
		},
		{
			"doubleSided":true,
			"name":"M_pt1",
			"pbrMetallicRoughness":{
				"baseColorFactor":[
					0.09387587010860443,
					0.48776519298553467,
					0.05637409910559654,
					1
				],
				"metallicFactor":0,
				"roughnessFactor":0.8500000238418579
			}
		},
		{
			"doubleSided":true,
			"name":"M_pt2",
			"pbrMetallicRoughness":{
				"baseColorFactor":[
					0.1939721703529358,
					0.6592239737510681,
					0.0915183499455452,
					1
				],
				"metallicFactor":0,
				"roughnessFactor":0.8500000238418579
			}
		}
	],
	"meshes":[
		{
			"name":"Cube",
			"primitives":[
				{
					"attributes":{
						"POSITION":0,
						"NORMAL":1,
						"TEXCOORD_0":2
					},
					"indices":3,
					"material":0
				}
			]
		},
		{
			"name":"Cube.001",
			"primitives":[
				{
					"attributes":{
						"POSITION":4,
						"NORMAL":5,
						"TEXCOORD_0":6
					},
					"indices":3,
					"material":1
				}
			]
		},
		{
			"name":"Cube.002",
			"primitives":[
				{
					"attributes":{
						"POSITION":7,
						"NORMAL":8,
						"TEXCOORD_0":9
					},
					"indices":10,
					"material":2
				}
			]
		},
		{
			"name":"Icosphere",
			"primitives":[
				{
					"attributes":{
						"POSITION":11,
						"NORMAL":12,
						"TEXCOORD_0":13
					},
					"indices":14,
					"material":3
				}
			]
		},
		{
			"name":"Icosphere.001",
			"primitives":[
				{
					"attributes":{
						"POSITION":15,
						"NORMAL":16,
						"TEXCOORD_0":17
					},
					"indices":14,
					"material":4
				}
			]
		},
		{
			"name":"Icosphere.002",
			"primitives":[
				{
					"attributes":{
						"POSITION":18,
						"NORMAL":19,
						"TEXCOORD_0":20
					},
					"indices":14,
					"material":5
				}
			]
		}
	],
	"accessors":[
		{
			"bufferView":0,
			"componentType":5126,
			"count":96,
			"max":[
				0.564112663269043,
				0.28040140867233276,
				0.19504618644714355
			],
			"min":[
				-0.5623061656951904,
				-0.009757116436958313,
				-0.19739016890525818
			],
			"type":"VEC3"
		},
		{
			"bufferView":1,
			"componentType":5126,
			"count":96,
			"type":"VEC3"
		},
		{
			"bufferView":2,
			"componentType":5126,
			"count":96,
			"type":"VEC2"
		},
		{
			"bufferView":3,
			"componentType":5123,
			"count":132,
			"type":"SCALAR"
		},
		{
			"bufferView":4,
			"componentType":5126,
			"count":96,
			"max":[
				0.6016599535942078,
				0.29400256276130676,
				0.20906175673007965
			],
			"min":[
				-0.5998534560203552,
				0.24866530299186707,
				-0.21140573918819427
			],
			"type":"VEC3"
		},
		{
			"bufferView":5,
			"componentType":5126,
			"count":96,
			"type":"VEC3"
		},
		{
			"bufferView":6,
			"componentType":5126,
			"count":96,
			"type":"VEC2"
		},
		{
			"bufferView":7,
			"componentType":5126,
			"count":24,
			"max":[
				0.5015338063240051,
				0.28266823291778564,
				0.17168687283992767
			],
			"min":[
				-0.4997273087501526,
				0.2463984340429306,
				-0.1740308552980423
			],
			"type":"VEC3"
		},
		{
			"bufferView":8,
			"componentType":5126,
			"count":24,
			"type":"VEC3"
		},
		{
			"bufferView":9,
			"componentType":5126,
			"count":24,
			"type":"VEC2"
		},
		{
			"bufferView":10,
			"componentType":5123,
			"count":36,
			"type":"SCALAR"
		},
		{
			"bufferView":11,
			"componentType":5126,
			"count":22,
			"max":[
				-0.0014280439354479313,
				0.41607463359832764,
				0.032519448548555374
			],
			"min":[
				-0.38138145208358765,
				0.2491120994091034,
				-0.07489239424467087
			],
			"type":"VEC3"
		},
		{
			"bufferView":12,
			"componentType":5126,
			"count":22,
			"type":"VEC3"
		},
		{
			"bufferView":13,
			"componentType":5126,
			"count":22,
			"type":"VEC2"
		},
		{
			"bufferView":14,
			"componentType":5123,
			"count":60,
			"type":"SCALAR"
		},
		{
			"bufferView":15,
			"componentType":5126,
			"count":22,
			"max":[
				0.3110475540161133,
				0.40477514266967773,
				0.1263522058725357
			],
			"min":[
				-0.03245256468653679,
				0.22750450670719147,
				-0.018996670842170715
			],
			"type":"VEC3"
		},
		{
			"bufferView":16,
			"componentType":5126,
			"count":22,
			"type":"VEC3"
		},
		{
			"bufferView":17,
			"componentType":5126,
			"count":22,
			"type":"VEC2"
		},
		{
			"bufferView":18,
			"componentType":5126,
			"count":22,
			"max":[
				0.18586745858192444,
				0.4077247977256775,
				0.02433689683675766
			],
			"min":[
				-0.203083336353302,
				0.2397889941930771,
				-0.1321205198764801
			],
			"type":"VEC3"
		},
		{
			"bufferView":19,
			"componentType":5126,
			"count":22,
			"type":"VEC3"
		},
		{
			"bufferView":20,
			"componentType":5126,
			"count":22,
			"type":"VEC2"
		}
	],
	"bufferViews":[
		{
			"buffer":0,
			"byteLength":1152,
			"byteOffset":0,
			"target":34962
		},
		{
			"buffer":0,
			"byteLength":1152,
			"byteOffset":1152,
			"target":34962
		},
		{
			"buffer":0,
			"byteLength":768,
			"byteOffset":2304,
			"target":34962
		},
		{
			"buffer":0,
			"byteLength":264,
			"byteOffset":3072,
			"target":34963
		},
		{
			"buffer":0,
			"byteLength":1152,
			"byteOffset":3336,
			"target":34962
		},
		{
			"buffer":0,
			"byteLength":1152,
			"byteOffset":4488,
			"target":34962
		},
		{
			"buffer":0,
			"byteLength":768,
			"byteOffset":5640,
			"target":34962
		},
		{
			"buffer":0,
			"byteLength":288,
			"byteOffset":6408,
			"target":34962
		},
		{
			"buffer":0,
			"byteLength":288,
			"byteOffset":6696,
			"target":34962
		},
		{
			"buffer":0,
			"byteLength":192,
			"byteOffset":6984,
			"target":34962
		},
		{
			"buffer":0,
			"byteLength":72,
			"byteOffset":7176,
			"target":34963
		},
		{
			"buffer":0,
			"byteLength":264,
			"byteOffset":7248,
			"target":34962
		},
		{
			"buffer":0,
			"byteLength":264,
			"byteOffset":7512,
			"target":34962
		},
		{
			"buffer":0,
			"byteLength":176,
			"byteOffset":7776,
			"target":34962
		},
		{
			"buffer":0,
			"byteLength":120,
			"byteOffset":7952,
			"target":34963
		},
		{
			"buffer":0,
			"byteLength":264,
			"byteOffset":8072,
			"target":34962
		},
		{
			"buffer":0,
			"byteLength":264,
			"byteOffset":8336,
			"target":34962
		},
		{
			"buffer":0,
			"byteLength":176,
			"byteOffset":8600,
			"target":34962
		},
		{
			"buffer":0,
			"byteLength":264,
			"byteOffset":8776,
			"target":34962
		},
		{
			"buffer":0,
			"byteLength":264,
			"byteOffset":9040,
			"target":34962
		},
		{
			"buffer":0,
			"byteLength":176,
			"byteOffset":9304,
			"target":34962
		}
	],
	"buffers":[
		{
			"byteLength":9480,
			"uri":"planter_box_02.bin"
		}
	]
}
