{
	"asset":{
		"generator":"Khronos glTF Blender I/O v5.2.40",
		"version":"2.0"
	},
	"extensionsUsed":[
		"KHR_materials_emissive_strength"
	],
	"scene":0,
	"scenes":[
		{
			"name":"Scene",
			"nodes":[
				0,
				1,
				2,
				3,
				4,
				5,
				6,
				7
			]
		}
	],
	"nodes":[
		{
			"mesh":0,
			"name":"box"
		},
		{
			"mesh":1,
			"name":"hood0"
		},
		{
			"mesh":2,
			"name":"hood1"
		},
		{
			"mesh":3,
			"name":"hood2"
		},
		{
			"mesh":4,
			"name":"lamp0"
		},
		{
			"mesh":5,
			"name":"lamp1"
		},
		{
			"mesh":6,
			"name":"lamp2"
		},
		{
			"mesh":7,
			"name":"pole"
		}
	],
	"materials":[
		{
			"doubleSided":true,
			"name":"M_tb3",
			"pbrMetallicRoughness":{
				"baseColorFactor":[
					0.023103555664420128,
					0.037028513848781586,
					0.04943345859646797,
					1
				],
				"metallicFactor":0,
				"roughnessFactor":0.8500000238418579
			}
		},
		{
			"doubleSided":true,
			"name":"M_th0",
			"pbrMetallicRoughness":{
				"baseColorFactor":[
					0.023103555664420128,
					0.037028513848781586,
					0.04943345859646797,
					1
				],
				"metallicFactor":0,
				"roughnessFactor":0.8500000238418579
			}
		},
		{
			"doubleSided":true,
			"name":"M_th1",
			"pbrMetallicRoughness":{
				"baseColorFactor":[
					0.023103555664420128,
					0.037028513848781586,
					0.04943345859646797,
					1
				],
				"metallicFactor":0,
				"roughnessFactor":0.8500000238418579
			}
		},
		{
			"doubleSided":true,
			"name":"M_th2",
			"pbrMetallicRoughness":{
				"baseColorFactor":[
					0.023103555664420128,
					0.037028513848781586,
					0.04943345859646797,
					1
				],
				"metallicFactor":0,
				"roughnessFactor":0.8500000238418579
			}
		},
		{
			"doubleSided":true,
			"emissiveFactor":[
				1,
				0.058819640657096994,
				0.02982234006579952
			],
			"extensions":{
				"KHR_materials_emissive_strength":{
					"emissiveStrength":1.1371380731525065
				}
			},
			"name":"M_tl0",
			"pbrMetallicRoughness":{
				"baseColorFactor":[
					0.8122414946556091,
					0.0477757528424263,
					0.02422294206917286,
					1
				],
				"metallicFactor":0,
				"roughnessFactor":0.8500000238418579
			}
		},
		{
			"doubleSided":true,
			"emissiveFactor":[
				1,
				0.8199636936187744,
				0.39929330348968506
			],
			"extensions":{
				"KHR_materials_emissive_strength":{
					"emissiveStrength":1.399999976158142
				}
			},
			"name":"M_tl1",
			"pbrMetallicRoughness":{
				"baseColorFactor":[
					1,
					0.8199636936187744,
					0.39929330348968506,
					1
				],
				"metallicFactor":0,
				"roughnessFactor":0.8500000238418579
			}
		},
		{
			"doubleSided":true,
			"emissiveFactor":[
				0.13142621591387105,
				0.6828712585505201,
				0.0789237374037719
			],
			"name":"M_tl2",
			"pbrMetallicRoughness":{
				"baseColorFactor":[
					0.09387587010860443,
					0.48776519298553467,
					0.05637409910559654,
					1
				],
				"metallicFactor":0,
				"roughnessFactor":0.8500000238418579
			}
		},
		{
			"doubleSided":true,
			"name":"M_tp",
			"pbrMetallicRoughness":{
				"baseColorFactor":[
					0.03423020616173744,
					0.05112205073237419,
					0.07382776588201523,
					1
				],
				"metallicFactor":0,
				"roughnessFactor":0.8500000238418579
			}
		}
	],
	"meshes":[
		{
			"name":"Cube",
			"primitives":[
				{
					"attributes":{
						"POSITION":0,
						"NORMAL":1,
						"TEXCOORD_0":2
					},
					"indices":3,
					"material":0
				}
			]
		},
		{
			"name":"Cube.001",
			"primitives":[
				{
					"attributes":{
						"POSITION":4,
						"NORMAL":5,
						"TEXCOORD_0":6
					},
					"indices":7,
					"material":1
				}
			]
		},
		{
			"name":"Cube.002",
			"primitives":[
				{
					"attributes":{
						"POSITION":8,
						"NORMAL":9,
						"TEXCOORD_0":10
					},
					"indices":7,
					"material":2
				}
			]
		},
		{
			"name":"Cube.003",
			"primitives":[
				{
					"attributes":{
						"POSITION":11,
						"NORMAL":12,
						"TEXCOORD_0":13
					},
					"indices":7,
					"material":3
				}
			]
		},
		{
			"name":"Cylinder.001",
			"primitives":[
				{
					"attributes":{
						"POSITION":14,
						"NORMAL":15,
						"TEXCOORD_0":16
					},
					"indices":17,
					"material":4
				}
			]
		},
		{
			"name":"Cylinder.002",
			"primitives":[
				{
					"attributes":{
						"POSITION":18,
						"NORMAL":19,
						"TEXCOORD_0":20
					},
					"indices":17,
					"material":5
				}
			]
		},
		{
			"name":"Cylinder.003",
			"primitives":[
				{
					"attributes":{
						"POSITION":21,
						"NORMAL":22,
						"TEXCOORD_0":23
					},
					"indices":17,
					"material":6
				}
			]
		},
		{
			"name":"Cylinder",
			"primitives":[
				{
					"attributes":{
						"POSITION":24,
						"NORMAL":25,
						"TEXCOORD_0":26
					},
					"indices":27,
					"material":7
				}
			]
		}
	],
	"accessors":[
		{
			"bufferView":0,
			"componentType":5126,
			"count":96,
			"max":[
				0.2199999988079071,
				3.5,
				0.1599999964237213
			],
			"min":[
				-0.2199999988079071,
				2.5,
				-0.1599999964237213
			],
			"type":"VEC3"
		},
		{
			"bufferView":1,
			"componentType":5126,
			"count":96,
			"type":"VEC3"
		},
		{
			"bufferView":2,
			"componentType":5126,
			"count":96,
			"type":"VEC2"
		},
		{
			"bufferView":3,
			"componentType":5123,
			"count":132,
			"type":"SCALAR"
		},
		{
			"bufferView":4,
			"componentType":5126,
			"count":24,
			"max":[
				0.10000000149011612,
				3.379999876022339,
				0.27000001072883606
			],
			"min":[
				-0.10000000149011612,
				3.3399999141693115,
				0.12999999523162842
			],
			"type":"VEC3"
		},
		{
			"bufferView":5,
			"componentType":5126,
			"count":24,
			"type":"VEC3"
		},
		{
			"bufferView":6,
			"componentType":5126,
			"count":24,
			"type":"VEC2"
		},
		{
			"bufferView":7,
			"componentType":5123,
			"count":36,
			"type":"SCALAR"
		},
		{
			"bufferView":8,
			"componentType":5126,
			"count":24,
			"max":[
				0.10000000149011612,
				3.0999999046325684,
				0.27000001072883606
			],
			"min":[
				-0.10000000149011612,
				3.059999942779541,
				0.12999999523162842
			],
			"type":"VEC3"
		},
		{
			"bufferView":9,
			"componentType":5126,
			"count":24,
			"type":"VEC3"
		},
		{
			"bufferView":10,
			"componentType":5126,
			"count":24,
			"type":"VEC2"
		},
		{
			"bufferView":11,
			"componentType":5126,
			"count":24,
			"max":[
				0.10000000149011612,
				2.819999933242798,
				0.27000001072883606
			],
			"min":[
				-0.10000000149011612,
				2.7799999713897705,
				0.12999999523162842
			],
			"type":"VEC3"
		},
		{
			"bufferView":12,
			"componentType":5126,
			"count":24,
			"type":"VEC3"
		},
		{
			"bufferView":13,
			"componentType":5126,
			"count":24,
			"type":"VEC2"
		},
		{
			"bufferView":14,
			"componentType":5126,
			"count":60,
			"max":[
				0.07132924348115921,
				3.3550000190734863,
				0.1850000023841858
			],
			"min":[
				-0.07132924348115921,
				3.2049999237060547,
				0.1550000011920929
			],
			"type":"VEC3"
		},
		{
			"bufferView":15,
			"componentType":5126,
			"count":60,
			"type":"VEC3"
		},
		{
			"bufferView":16,
			"componentType":5126,
			"count":60,
			"type":"VEC2"
		},
		{
			"bufferView":17,
			"componentType":5123,
			"count":108,
			"type":"SCALAR"
		},
		{
			"bufferView":18,
			"componentType":5126,
			"count":60,
			"max":[
				0.07132924348115921,
				3.075000047683716,
				0.1850000023841858
			],
			"min":[
				-0.07132924348115921,
				2.924999952316284,
				0.1550000011920929
			],
			"type":"VEC3"
		},
		{
			"bufferView":19,
			"componentType":5126,
			"count":60,
			"type":"VEC3"
		},
		{
			"bufferView":20,
			"componentType":5126,
			"count":60,
			"type":"VEC2"
		},
		{
			"bufferView":21,
			"componentType":5126,
			"count":60,
			"max":[
				0.07132924348115921,
				2.7950000762939453,
				0.1850000023841858
			],
			"min":[
				-0.07132924348115921,
				2.6449999809265137,
				0.1550000011920929
			],
			"type":"VEC3"
		},
		{
			"bufferView":22,
			"componentType":5126,
			"count":60,
			"type":"VEC3"
		},
		{
			"bufferView":23,
			"componentType":5126,
			"count":60,
			"type":"VEC2"
		},
		{
			"bufferView":24,
			"componentType":5126,
			"count":48,
			"max":[
				0.05999999865889549,
				2.799999952316284,
				0.05999999865889549
			],
			"min":[
				-0.05999999865889549,
				0,
				-0.05999999865889549
			],
			"type":"VEC3"
		},
		{
			"bufferView":25,
			"componentType":5126,
			"count":48,
			"type":"VEC3"
		},
		{
			"bufferView":26,
			"componentType":5126,
			"count":48,
			"type":"VEC2"
		},
		{
			"bufferView":27,
			"componentType":5123,
			"count":84,
			"type":"SCALAR"
		}
	],
	"bufferViews":[
		{
			"buffer":0,
			"byteLength":1152,
			"byteOffset":0,
			"target":34962
		},
		{
			"buffer":0,
			"byteLength":1152,
			"byteOffset":1152,
			"target":34962
		},
		{
			"buffer":0,
			"byteLength":768,
			"byteOffset":2304,
			"target":34962
		},
		{
			"buffer":0,
			"byteLength":264,
			"byteOffset":3072,
			"target":34963
		},
		{
			"buffer":0,
			"byteLength":288,
			"byteOffset":3336,
			"target":34962
		},
		{
			"buffer":0,
			"byteLength":288,
			"byteOffset":3624,
			"target":34962
		},
		{
			"buffer":0,
			"byteLength":192,
			"byteOffset":3912,
			"target":34962
		},
		{
			"buffer":0,
			"byteLength":72,
			"byteOffset":4104,
			"target":34963
		},
		{
			"buffer":0,
			"byteLength":288,
			"byteOffset":4176,
			"target":34962
		},
		{
			"buffer":0,
			"byteLength":288,
			"byteOffset":4464,
			"target":34962
		},
		{
			"buffer":0,
			"byteLength":192,
			"byteOffset":4752,
			"target":34962
		},
		{
			"buffer":0,
			"byteLength":288,
			"byteOffset":4944,
			"target":34962
		},
		{
			"buffer":0,
			"byteLength":288,
			"byteOffset":5232,
			"target":34962
		},
		{
			"buffer":0,
			"byteLength":192,
			"byteOffset":5520,
			"target":34962
		},
		{
			"buffer":0,
			"byteLength":720,
			"byteOffset":5712,
			"target":34962
		},
		{
			"buffer":0,
			"byteLength":720,
			"byteOffset":6432,
			"target":34962
		},
		{
			"buffer":0,
			"byteLength":480,
			"byteOffset":7152,
			"target":34962
		},
		{
			"buffer":0,
			"byteLength":216,
			"byteOffset":7632,
			"target":34963
		},
		{
			"buffer":0,
			"byteLength":720,
			"byteOffset":7848,
			"target":34962
		},
		{
			"buffer":0,
			"byteLength":720,
			"byteOffset":8568,
			"target":34962
		},
		{
			"buffer":0,
			"byteLength":480,
			"byteOffset":9288,
			"target":34962
		},
		{
			"buffer":0,
			"byteLength":720,
			"byteOffset":9768,
			"target":34962
		},
		{
			"buffer":0,
			"byteLength":720,
			"byteOffset":10488,
			"target":34962
		},
		{
			"buffer":0,
			"byteLength":480,
			"byteOffset":11208,
			"target":34962
		},
		{
			"buffer":0,
			"byteLength":576,
			"byteOffset":11688,
			"target":34962
		},
		{
			"buffer":0,
			"byteLength":576,
			"byteOffset":12264,
			"target":34962
		},
		{
			"buffer":0,
			"byteLength":384,
			"byteOffset":12840,
			"target":34962
		},
		{
			"buffer":0,
			"byteLength":168,
			"byteOffset":13224,
			"target":34963
		}
	],
	"buffers":[
		{
			"byteLength":13392,
			"uri":"hd_trafficlight.bin"
		}
	]
}
