{
	"asset":{
		"generator":"Khronos glTF Blender I/O v5.2.40",
		"version":"2.0"
	},
	"scene":0,
	"scenes":[
		{
			"name":"Scene",
			"nodes":[
				0,
				1,
				2,
				3
			]
		}
	],
	"nodes":[
		{
			"mesh":0,
			"name":"h0"
		},
		{
			"mesh":1,
			"name":"h3.141592653589793"
		},
		{
			"mesh":2,
			"name":"rim"
		},
		{
			"mesh":3,
			"name":"urn"
		}
	],
	"materials":[
		{
			"doubleSided":true,
			"name":"M_uh0",
			"pbrMetallicRoughness":{
				"baseColorFactor":[
					0.46474114060401917,
					0.08919350802898407,
					0.03994717076420784,
					1
				],
				"metallicFactor":0,
				"roughnessFactor":0.8500000238418579
			}
		},
		{
			"doubleSided":true,
			"name":"M_uh3.141592653589793",
			"pbrMetallicRoughness":{
				"baseColorFactor":[
					0.46474114060401917,
					0.08919350802898407,
					0.03994717076420784,
					1
				],
				"metallicFactor":0,
				"roughnessFactor":0.8500000238418579
			}
		},
		{
			"doubleSided":true,
			"name":"M_ur",
			"pbrMetallicRoughness":{
				"baseColorFactor":[
					0.39929330348968506,
					0.10114516317844391,
					0.03561437129974365,
					1
				],
				"metallicFactor":0,
				"roughnessFactor":0.8500000238418579
			}
		},
		{
			"doubleSided":true,
			"name":"M_ub",
			"pbrMetallicRoughness":{
				"baseColorFactor":[
					0.46474114060401917,
					0.08919350802898407,
					0.03994717076420784,
					1
				],
				"metallicFactor":0,
				"roughnessFactor":0.8500000238418579
			}
		}
	],
	"meshes":[
		{
			"name":"Torus",
			"primitives":[
				{
					"attributes":{
						"POSITION":0,
						"NORMAL":1,
						"TEXCOORD_0":2
					},
					"indices":3,
					"material":0
				}
			]
		},
		{
			"name":"Torus.001",
			"primitives":[
				{
					"attributes":{
						"POSITION":4,
						"NORMAL":5,
						"TEXCOORD_0":6
					},
					"indices":7,
					"material":1
				}
			]
		},
		{
			"name":"Torus.002",
			"primitives":[
				{
					"attributes":{
						"POSITION":8,
						"NORMAL":9,
						"TEXCOORD_0":10
					},
					"indices":11,
					"material":2
				}
			]
		},
		{
			"name":"urn",
			"primitives":[
				{
					"attributes":{
						"POSITION":12,
						"NORMAL":13
					},
					"indices":14,
					"material":3
				}
			]
		}
	],
	"accessors":[
		{
			"bufferView":0,
			"componentType":5126,
			"count":160,
			"max":[
				0.4099999964237213,
				0.9200000166893005,
				0.037091214209795
			],
			"min":[
				0.06999999284744263,
				0.5799999833106995,
				-0.037091214209795
			],
			"type":"VEC3"
		},
		{
			"bufferView":1,
			"componentType":5126,
			"count":160,
			"type":"VEC3"
		},
		{
			"bufferView":2,
			"componentType":5126,
			"count":160,
			"type":"VEC2"
		},
		{
			"bufferView":3,
			"componentType":5123,
			"count":240,
			"type":"SCALAR"
		},
		{
			"bufferView":4,
			"componentType":5126,
			"count":160,
			"max":[
				-0.06999999284744263,
				0.9200000166893005,
				0.037091225385665894
			],
			"min":[
				-0.4099999964237213,
				0.5799999833106995,
				-0.037091225385665894
			],
			"type":"VEC3"
		},
		{
			"bufferView":5,
			"componentType":5126,
			"count":160,
			"type":"VEC3"
		},
		{
			"bufferView":6,
			"componentType":5126,
			"count":160,
			"type":"VEC2"
		},
		{
			"bufferView":7,
			"componentType":5123,
			"count":240,
			"type":"SCALAR"
		},
		{
			"bufferView":8,
			"componentType":5126,
			"count":240,
			"max":[
				0.22499999403953552,
				1.0932868719100952,
				0.22499999403953552
			],
			"min":[
				-0.22499999403953552,
				1.0267130136489868,
				-0.22499999403953552
			],
			"type":"VEC3"
		},
		{
			"bufferView":9,
			"componentType":5126,
			"count":240,
			"type":"VEC3"
		},
		{
			"bufferView":10,
			"componentType":5126,
			"count":240,
			"type":"VEC2"
		},
		{
			"bufferView":11,
			"componentType":5123,
			"count":360,
			"type":"SCALAR"
		},
		{
			"bufferView":12,
			"componentType":5126,
			"count":384,
			"max":[
				0.3400000035762787,
				1.0499999523162842,
				0.3400000035762787
			],
			"min":[
				-0.3400000035762787,
				0,
				-0.3400000035762787
			],
			"type":"VEC3"
		},
		{
			"bufferView":13,
			"componentType":5126,
			"count":384,
			"type":"VEC3"
		},
		{
			"bufferView":14,
			"componentType":5123,
			"count":576,
			"type":"SCALAR"
		}
	],
	"bufferViews":[
		{
			"buffer":0,
			"byteLength":1920,
			"byteOffset":0,
			"target":34962
		},
		{
			"buffer":0,
			"byteLength":1920,
			"byteOffset":1920,
			"target":34962
		},
		{
			"buffer":0,
			"byteLength":1280,
			"byteOffset":3840,
			"target":34962
		},
		{
			"buffer":0,
			"byteLength":480,
			"byteOffset":5120,
			"target":34963
		},
		{
			"buffer":0,
			"byteLength":1920,
			"byteOffset":5600,
			"target":34962
		},
		{
			"buffer":0,
			"byteLength":1920,
			"byteOffset":7520,
			"target":34962
		},
		{
			"buffer":0,
			"byteLength":1280,
			"byteOffset":9440,
			"target":34962
		},
		{
			"buffer":0,
			"byteLength":480,
			"byteOffset":10720,
			"target":34963
		},
		{
			"buffer":0,
			"byteLength":2880,
			"byteOffset":11200,
			"target":34962
		},
		{
			"buffer":0,
			"byteLength":2880,
			"byteOffset":14080,
			"target":34962
		},
		{
			"buffer":0,
			"byteLength":1920,
			"byteOffset":16960,
			"target":34962
		},
		{
			"buffer":0,
			"byteLength":720,
			"byteOffset":18880,
			"target":34963
		},
		{
			"buffer":0,
			"byteLength":4608,
			"byteOffset":19600,
			"target":34962
		},
		{
			"buffer":0,
			"byteLength":4608,
			"byteOffset":24208,
			"target":34962
		},
		{
			"buffer":0,
			"byteLength":1152,
			"byteOffset":28816,
			"target":34963
		}
	],
	"buffers":[
		{
			"byteLength":29968,
			"uri":"hd_urn.bin"
		}
	]
}
