{
	"asset":{
		"generator":"Khronos glTF Blender I/O v5.2.40",
		"version":"2.0"
	},
	"scene":0,
	"scenes":[
		{
			"name":"Scene",
			"nodes":[
				0,
				1,
				2,
				3,
				4,
				5,
				6,
				7,
				8,
				9,
				10,
				11,
				12,
				13,
				14
			]
		}
	],
	"nodes":[
		{
			"mesh":0,
			"name":"arm0"
		},
		{
			"mesh":1,
			"name":"arm1"
		},
		{
			"mesh":2,
			"name":"armtop0"
		},
		{
			"mesh":3,
			"name":"armtop1"
		},
		{
			"mesh":4,
			"name":"bloom"
		},
		{
			"mesh":5,
			"name":"elb0"
		},
		{
			"mesh":6,
			"name":"elb1"
		},
		{
			"mesh":7,
			"name":"rib0"
		},
		{
			"mesh":8,
			"name":"rib1"
		},
		{
			"mesh":9,
			"name":"rib2"
		},
		{
			"mesh":10,
			"name":"rib3"
		},
		{
			"mesh":11,
			"name":"rib4"
		},
		{
			"mesh":12,
			"name":"rib5"
		},
		{
			"mesh":13,
			"name":"top"
		},
		{
			"mesh":14,
			"name":"trunk"
		}
	],
	"materials":[
		{
			"doubleSided":true,
			"name":"M_sa0",
			"pbrMetallicRoughness":{
				"baseColorFactor":[
					0.07382776588201523,
					0.3488648235797882,
					0.10363409668207169,
					1
				],
				"metallicFactor":0,
				"roughnessFactor":0.8500000238418579
			}
		},
		{
			"doubleSided":true,
			"name":"M_sa1",
			"pbrMetallicRoughness":{
				"baseColorFactor":[
					0.07382776588201523,
					0.3488648235797882,
					0.10363409668207169,
					1
				],
				"metallicFactor":0,
				"roughnessFactor":0.8500000238418579
			}
		},
		{
			"doubleSided":true,
			"name":"M_sat0",
			"pbrMetallicRoughness":{
				"baseColorFactor":[
					0.07382776588201523,
					0.3488648235797882,
					0.10363409668207169,
					1
				],
				"metallicFactor":0,
				"roughnessFactor":0.8500000238418579
			}
		},
		{
			"doubleSided":true,
			"name":"M_sat1",
			"pbrMetallicRoughness":{
				"baseColorFactor":[
					0.07382776588201523,
					0.3488648235797882,
					0.10363409668207169,
					1
				],
				"metallicFactor":0,
				"roughnessFactor":0.8500000238418579
			}
		},
		{
			"doubleSided":true,
			"name":"M_sb",
			"pbrMetallicRoughness":{
				"baseColorFactor":[
					0.8912620544433594,
					0.1904628723859787,
					0.3537409007549286,
					1
				],
				"metallicFactor":0,
				"roughnessFactor":0.8500000238418579
			}
		},
		{
			"doubleSided":true,
			"name":"M_se0",
			"pbrMetallicRoughness":{
				"baseColorFactor":[
					0.07382776588201523,
					0.3488648235797882,
					0.10363409668207169,
					1
				],
				"metallicFactor":0,
				"roughnessFactor":0.8500000238418579
			}
		},
		{
			"doubleSided":true,
			"name":"M_se1",
			"pbrMetallicRoughness":{
				"baseColorFactor":[
					0.07382776588201523,
					0.3488648235797882,
					0.10363409668207169,
					1
				],
				"metallicFactor":0,
				"roughnessFactor":0.8500000238418579
			}
		},
		{
			"doubleSided":true,
			"name":"M_sr0",
			"pbrMetallicRoughness":{
				"baseColorFactor":[
					0.041451890021562576,
					0.21204440295696259,
					0.06575387716293335,
					1
				],
				"metallicFactor":0,
				"roughnessFactor":0.8500000238418579
			}
		},
		{
			"doubleSided":true,
			"name":"M_sr1",
			"pbrMetallicRoughness":{
				"baseColorFactor":[
					0.041451890021562576,
					0.21204440295696259,
					0.06575387716293335,
					1
				],
				"metallicFactor":0,
				"roughnessFactor":0.8500000238418579
			}
		},
		{
			"doubleSided":true,
			"name":"M_sr2",
			"pbrMetallicRoughness":{
				"baseColorFactor":[
					0.041451890021562576,
					0.21204440295696259,
					0.06575387716293335,
					1
				],
				"metallicFactor":0,
				"roughnessFactor":0.8500000238418579
			}
		},
		{
			"doubleSided":true,
			"name":"M_sr3",
			"pbrMetallicRoughness":{
				"baseColorFactor":[
					0.041451890021562576,
					0.21204440295696259,
					0.06575387716293335,
					1
				],
				"metallicFactor":0,
				"roughnessFactor":0.8500000238418579
			}
		},
		{
			"doubleSided":true,
			"name":"M_sr4",
			"pbrMetallicRoughness":{
				"baseColorFactor":[
					0.041451890021562576,
					0.21204440295696259,
					0.06575387716293335,
					1
				],
				"metallicFactor":0,
				"roughnessFactor":0.8500000238418579
			}
		},
		{
			"doubleSided":true,
			"name":"M_sr5",
			"pbrMetallicRoughness":{
				"baseColorFactor":[
					0.041451890021562576,
					0.21204440295696259,
					0.06575387716293335,
					1
				],
				"metallicFactor":0,
				"roughnessFactor":0.8500000238418579
			}
		},
		{
			"doubleSided":true,
			"name":"M_st",
			"pbrMetallicRoughness":{
				"baseColorFactor":[
					0.07382776588201523,
					0.3488648235797882,
					0.10363409668207169,
					1
				],
				"metallicFactor":0,
				"roughnessFactor":0.8500000238418579
			}
		},
		{
			"doubleSided":true,
			"name":"M_sg",
			"pbrMetallicRoughness":{
				"baseColorFactor":[
					0.07382776588201523,
					0.3488648235797882,
					0.10363409668207169,
					1
				],
				"metallicFactor":0,
				"roughnessFactor":0.8500000238418579
			}
		}
	],
	"meshes":[
		{
			"name":"Cylinder.001",
			"primitives":[
				{
					"attributes":{
						"POSITION":0,
						"NORMAL":1,
						"TEXCOORD_0":2
					},
					"indices":3,
					"material":0
				}
			]
		},
		{
			"name":"Cylinder.003",
			"primitives":[
				{
					"attributes":{
						"POSITION":4,
						"NORMAL":5,
						"TEXCOORD_0":6
					},
					"indices":3,
					"material":1
				}
			]
		},
		{
			"name":"Sphere.001",
			"primitives":[
				{
					"attributes":{
						"POSITION":7,
						"NORMAL":8,
						"TEXCOORD_0":9
					},
					"indices":10,
					"material":2
				}
			]
		},
		{
			"name":"Sphere.002",
			"primitives":[
				{
					"attributes":{
						"POSITION":11,
						"NORMAL":12,
						"TEXCOORD_0":13
					},
					"indices":10,
					"material":3
				}
			]
		},
		{
			"name":"Icosphere",
			"primitives":[
				{
					"attributes":{
						"POSITION":14,
						"NORMAL":15,
						"TEXCOORD_0":16
					},
					"indices":17,
					"material":4
				}
			]
		},
		{
			"name":"Cylinder.002",
			"primitives":[
				{
					"attributes":{
						"POSITION":18,
						"NORMAL":19,
						"TEXCOORD_0":20
					},
					"indices":3,
					"material":5
				}
			]
		},
		{
			"name":"Cylinder.004",
			"primitives":[
				{
					"attributes":{
						"POSITION":21,
						"NORMAL":22,
						"TEXCOORD_0":23
					},
					"indices":3,
					"material":6
				}
			]
		},
		{
			"name":"Cube",
			"primitives":[
				{
					"attributes":{
						"POSITION":24,
						"NORMAL":25,
						"TEXCOORD_0":26
					},
					"indices":27,
					"material":7
				}
			]
		},
		{
			"name":"Cube.001",
			"primitives":[
				{
					"attributes":{
						"POSITION":28,
						"NORMAL":29,
						"TEXCOORD_0":30
					},
					"indices":27,
					"material":8
				}
			]
		},
		{
			"name":"Cube.002",
			"primitives":[
				{
					"attributes":{
						"POSITION":31,
						"NORMAL":32,
						"TEXCOORD_0":33
					},
					"indices":27,
					"material":9
				}
			]
		},
		{
			"name":"Cube.003",
			"primitives":[
				{
					"attributes":{
						"POSITION":34,
						"NORMAL":35,
						"TEXCOORD_0":36
					},
					"indices":27,
					"material":10
				}
			]
		},
		{
			"name":"Cube.004",
			"primitives":[
				{
					"attributes":{
						"POSITION":37,
						"NORMAL":38,
						"TEXCOORD_0":39
					},
					"indices":27,
					"material":11
				}
			]
		},
		{
			"name":"Cube.005",
			"primitives":[
				{
					"attributes":{
						"POSITION":40,
						"NORMAL":41,
						"TEXCOORD_0":42
					},
					"indices":27,
					"material":12
				}
			]
		},
		{
			"name":"Sphere",
			"primitives":[
				{
					"attributes":{
						"POSITION":43,
						"NORMAL":44,
						"TEXCOORD_0":45
					},
					"indices":46,
					"material":13
				}
			]
		},
		{
			"name":"Cylinder",
			"primitives":[
				{
					"attributes":{
						"POSITION":47,
						"NORMAL":48,
						"TEXCOORD_0":49
					},
					"indices":50,
					"material":14
				}
			]
		}
	],
	"accessors":[
		{
			"bufferView":0,
			"componentType":5126,
			"count":34,
			"max":[
				-0.2799999713897705,
				1.6999999284744263,
				0.14000000059604645
			],
			"min":[
				-0.5600000023841858,
				0.8999999761581421,
				-0.14000000059604645
			],
			"type":"VEC3"
		},
		{
			"bufferView":1,
			"componentType":5126,
			"count":34,
			"type":"VEC3"
		},
		{
			"bufferView":2,
			"componentType":5126,
			"count":34,
			"type":"VEC2"
		},
		{
			"bufferView":3,
			"componentType":5123,
			"count":84,
			"type":"SCALAR"
		},
		{
			"bufferView":4,
			"componentType":5126,
			"count":34,
			"max":[
				0.5600000023841858,
				2.1000001430511475,
				0.14000000059604645
			],
			"min":[
				0.2799999713897705,
				1.3000000715255737,
				-0.14000000059604645
			],
			"type":"VEC3"
		},
		{
			"bufferView":5,
			"componentType":5126,
			"count":34,
			"type":"VEC3"
		},
		{
			"bufferView":6,
			"componentType":5126,
			"count":34,
			"type":"VEC2"
		},
		{
			"bufferView":7,
			"componentType":5126,
			"count":144,
			"max":[
				-0.28685206174850464,
				1.784000039100647,
				0.13314791023731232
			],
			"min":[
				-0.5531479120254517,
				1.6160000562667847,
				-0.13314791023731232
			],
			"type":"VEC3"
		},
		{
			"bufferView":8,
			"componentType":5126,
			"count":144,
			"type":"VEC3"
		},
		{
			"bufferView":9,
			"componentType":5126,
			"count":144,
			"type":"VEC2"
		},
		{
			"bufferView":10,
			"componentType":5123,
			"count":192,
			"type":"SCALAR"
		},
		{
			"bufferView":11,
			"componentType":5126,
			"count":144,
			"max":[
				0.5531479120254517,
				2.184000015258789,
				0.13314791023731232
			],
			"min":[
				0.28685206174850464,
				2.0159997940063477,
				-0.13314791023731232
			],
			"type":"VEC3"
		},
		{
			"bufferView":12,
			"componentType":5126,
			"count":144,
			"type":"VEC3"
		},
		{
			"bufferView":13,
			"componentType":5126,
			"count":144,
			"type":"VEC2"
		},
		{
			"bufferView":14,
			"componentType":5126,
			"count":60,
			"max":[
				0.08049824833869934,
				2.990000009536743,
				0.07655760645866394
			],
			"min":[
				-0.08049824833869934,
				2.81000018119812,
				-0.07655760645866394
			],
			"type":"VEC3"
		},
		{
			"bufferView":15,
			"componentType":5126,
			"count":60,
			"type":"VEC3"
		},
		{
			"bufferView":16,
			"componentType":5126,
			"count":60,
			"type":"VEC2"
		},
		{
			"bufferView":17,
			"componentType":5123,
			"count":60,
			"type":"SCALAR"
		},
		{
			"bufferView":18,
			"componentType":5126,
			"count":34,
			"max":[
				-0.0675988644361496,
				1.1405640840530396,
				0.12999999523162842
			],
			"min":[
				-0.5324011445045471,
				0.7594358921051025,
				-0.12999999523162842
			],
			"type":"VEC3"
		},
		{
			"bufferView":19,
			"componentType":5126,
			"count":34,
			"type":"VEC3"
		},
		{
			"bufferView":20,
			"componentType":5126,
			"count":34,
			"type":"VEC2"
		},
		{
			"bufferView":21,
			"componentType":5126,
			"count":34,
			"max":[
				0.5324011445045471,
				1.5405640602111816,
				0.12999999523162842
			],
			"min":[
				0.0675988644361496,
				1.1594359874725342,
				-0.12999999523162842
			],
			"type":"VEC3"
		},
		{
			"bufferView":22,
			"componentType":5126,
			"count":34,
			"type":"VEC3"
		},
		{
			"bufferView":23,
			"componentType":5126,
			"count":34,
			"type":"VEC2"
		},
		{
			"bufferView":24,
			"componentType":5126,
			"count":24,
			"max":[
				0.29500001668930054,
				2.5799999237060547,
				0.019999999552965164
			],
			"min":[
				0.2549999952316284,
				0.019999980926513672,
				-0.019999999552965164
			],
			"type":"VEC3"
		},
		{
			"bufferView":25,
			"componentType":5126,
			"count":24,
			"type":"VEC3"
		},
		{
			"bufferView":26,
			"componentType":5126,
			"count":24,
			"type":"VEC2"
		},
		{
			"bufferView":27,
			"componentType":5123,
			"count":36,
			"type":"SCALAR"
		},
		{
			"bufferView":28,
			"componentType":5126,
			"count":24,
			"max":[
				0.1574999988079071,
				2.5799999237060547,
				-0.21815699338912964
			],
			"min":[
				0.11750000715255737,
				0.019999980926513672,
				-0.25815698504447937
			],
			"type":"VEC3"
		},
		{
			"bufferView":29,
			"componentType":5126,
			"count":24,
			"type":"VEC3"
		},
		{
			"bufferView":30,
			"componentType":5126,
			"count":24,
			"type":"VEC2"
		},
		{
			"bufferView":31,
			"componentType":5126,
			"count":24,
			"max":[
				-0.11750000715255737,
				2.5799999237060547,
				-0.21815699338912964
			],
			"min":[
				-0.1574999988079071,
				0.019999980926513672,
				-0.25815698504447937
			],
			"type":"VEC3"
		},
		{
			"bufferView":32,
			"componentType":5126,
			"count":24,
			"type":"VEC3"
		},
		{
			"bufferView":33,
			"componentType":5126,
			"count":24,
			"type":"VEC2"
		},
		{
			"bufferView":34,
			"componentType":5126,
			"count":24,
			"max":[
				-0.2549999952316284,
				2.5799999237060547,
				0.019999999552965164
			],
			"min":[
				-0.29500001668930054,
				0.019999980926513672,
				-0.019999999552965164
			],
			"type":"VEC3"
		},
		{
			"bufferView":35,
			"componentType":5126,
			"count":24,
			"type":"VEC3"
		},
		{
			"bufferView":36,
			"componentType":5126,
			"count":24,
			"type":"VEC2"
		},
		{
			"bufferView":37,
			"componentType":5126,
			"count":24,
			"max":[
				-0.11750000715255737,
				2.5799999237060547,
				0.25815698504447937
			],
			"min":[
				-0.1574999988079071,
				0.019999980926513672,
				0.21815699338912964
			],
			"type":"VEC3"
		},
		{
			"bufferView":38,
			"componentType":5126,
			"count":24,
			"type":"VEC3"
		},
		{
			"bufferView":39,
			"componentType":5126,
			"count":24,
			"type":"VEC2"
		},
		{
			"bufferView":40,
			"componentType":5126,
			"count":24,
			"max":[
				0.1574999988079071,
				2.5799999237060547,
				0.25815698504447937
			],
			"min":[
				0.11750000715255737,
				0.019999980926513672,
				0.21815699338912964
			],
			"type":"VEC3"
		},
		{
			"bufferView":41,
			"componentType":5126,
			"count":24,
			"type":"VEC3"
		},
		{
			"bufferView":42,
			"componentType":5126,
			"count":24,
			"type":"VEC2"
		},
		{
			"bufferView":43,
			"componentType":5126,
			"count":180,
			"max":[
				0.25326237082481384,
				2.7679998874664307,
				0.26629579067230225
			],
			"min":[
				-0.25326237082481384,
				2.431999921798706,
				-0.26629579067230225
			],
			"type":"VEC3"
		},
		{
			"bufferView":44,
			"componentType":5126,
			"count":180,
			"type":"VEC3"
		},
		{
			"bufferView":45,
			"componentType":5126,
			"count":180,
			"type":"VEC2"
		},
		{
			"bufferView":46,
			"componentType":5123,
			"count":240,
			"type":"SCALAR"
		},
		{
			"bufferView":47,
			"componentType":5126,
			"count":42,
			"max":[
				0.26629582047462463,
				2.5999999046325684,
				0.2800000011920929
			],
			"min":[
				-0.26629582047462463,
				0,
				-0.2800000011920929
			],
			"type":"VEC3"
		},
		{
			"bufferView":48,
			"componentType":5126,
			"count":42,
			"type":"VEC3"
		},
		{
			"bufferView":49,
			"componentType":5126,
			"count":42,
			"type":"VEC2"
		},
		{
			"bufferView":50,
			"componentType":5123,
			"count":108,
			"type":"SCALAR"
		}
	],
	"bufferViews":[
		{
			"buffer":0,
			"byteLength":408,
			"byteOffset":0,
			"target":34962
		},
		{
			"buffer":0,
			"byteLength":408,
			"byteOffset":408,
			"target":34962
		},
		{
			"buffer":0,
			"byteLength":272,
			"byteOffset":816,
			"target":34962
		},
		{
			"buffer":0,
			"byteLength":168,
			"byteOffset":1088,
			"target":34963
		},
		{
			"buffer":0,
			"byteLength":408,
			"byteOffset":1256,
			"target":34962
		},
		{
			"buffer":0,
			"byteLength":408,
			"byteOffset":1664,
			"target":34962
		},
		{
			"buffer":0,
			"byteLength":272,
			"byteOffset":2072,
			"target":34962
		},
		{
			"buffer":0,
			"byteLength":1728,
			"byteOffset":2344,
			"target":34962
		},
		{
			"buffer":0,
			"byteLength":1728,
			"byteOffset":4072,
			"target":34962
		},
		{
			"buffer":0,
			"byteLength":1152,
			"byteOffset":5800,
			"target":34962
		},
		{
			"buffer":0,
			"byteLength":384,
			"byteOffset":6952,
			"target":34963
		},
		{
			"buffer":0,
			"byteLength":1728,
			"byteOffset":7336,
			"target":34962
		},
		{
			"buffer":0,
			"byteLength":1728,
			"byteOffset":9064,
			"target":34962
		},
		{
			"buffer":0,
			"byteLength":1152,
			"byteOffset":10792,
			"target":34962
		},
		{
			"buffer":0,
			"byteLength":720,
			"byteOffset":11944,
			"target":34962
		},
		{
			"buffer":0,
			"byteLength":720,
			"byteOffset":12664,
			"target":34962
		},
		{
			"buffer":0,
			"byteLength":480,
			"byteOffset":13384,
			"target":34962
		},
		{
			"buffer":0,
			"byteLength":120,
			"byteOffset":13864,
			"target":34963
		},
		{
			"buffer":0,
			"byteLength":408,
			"byteOffset":13984,
			"target":34962
		},
		{
			"buffer":0,
			"byteLength":408,
			"byteOffset":14392,
			"target":34962
		},
		{
			"buffer":0,
			"byteLength":272,
			"byteOffset":14800,
			"target":34962
		},
		{
			"buffer":0,
			"byteLength":408,
			"byteOffset":15072,
			"target":34962
		},
		{
			"buffer":0,
			"byteLength":408,
			"byteOffset":15480,
			"target":34962
		},
		{
			"buffer":0,
			"byteLength":272,
			"byteOffset":15888,
			"target":34962
		},
		{
			"buffer":0,
			"byteLength":288,
			"byteOffset":16160,
			"target":34962
		},
		{
			"buffer":0,
			"byteLength":288,
			"byteOffset":16448,
			"target":34962
		},
		{
			"buffer":0,
			"byteLength":192,
			"byteOffset":16736,
			"target":34962
		},
		{
			"buffer":0,
			"byteLength":72,
			"byteOffset":16928,
			"target":34963
		},
		{
			"buffer":0,
			"byteLength":288,
			"byteOffset":17000,
			"target":34962
		},
		{
			"buffer":0,
			"byteLength":288,
			"byteOffset":17288,
			"target":34962
		},
		{
			"buffer":0,
			"byteLength":192,
			"byteOffset":17576,
			"target":34962
		},
		{
			"buffer":0,
			"byteLength":288,
			"byteOffset":17768,
			"target":34962
		},
		{
			"buffer":0,
			"byteLength":288,
			"byteOffset":18056,
			"target":34962
		},
		{
			"buffer":0,
			"byteLength":192,
			"byteOffset":18344,
			"target":34962
		},
		{
			"buffer":0,
			"byteLength":288,
			"byteOffset":18536,
			"target":34962
		},
		{
			"buffer":0,
			"byteLength":288,
			"byteOffset":18824,
			"target":34962
		},
		{
			"buffer":0,
			"byteLength":192,
			"byteOffset":19112,
			"target":34962
		},
		{
			"buffer":0,
			"byteLength":288,
			"byteOffset":19304,
			"target":34962
		},
		{
			"buffer":0,
			"byteLength":288,
			"byteOffset":19592,
			"target":34962
		},
		{
			"buffer":0,
			"byteLength":192,
			"byteOffset":19880,
			"target":34962
		},
		{
			"buffer":0,
			"byteLength":288,
			"byteOffset":20072,
			"target":34962
		},
		{
			"buffer":0,
			"byteLength":288,
			"byteOffset":20360,
			"target":34962
		},
		{
			"buffer":0,
			"byteLength":192,
			"byteOffset":20648,
			"target":34962
		},
		{
			"buffer":0,
			"byteLength":2160,
			"byteOffset":20840,
			"target":34962
		},
		{
			"buffer":0,
			"byteLength":2160,
			"byteOffset":23000,
			"target":34962
		},
		{
			"buffer":0,
			"byteLength":1440,
			"byteOffset":25160,
			"target":34962
		},
		{
			"buffer":0,
			"byteLength":480,
			"byteOffset":26600,
			"target":34963
		},
		{
			"buffer":0,
			"byteLength":504,
			"byteOffset":27080,
			"target":34962
		},
		{
			"buffer":0,
			"byteLength":504,
			"byteOffset":27584,
			"target":34962
		},
		{
			"buffer":0,
			"byteLength":336,
			"byteOffset":28088,
			"target":34962
		},
		{
			"buffer":0,
			"byteLength":216,
			"byteOffset":28424,
			"target":34963
		}
	],
	"buffers":[
		{
			"byteLength":28640,
			"uri":"hd_saguaro.bin"
		}
	]
}
