{
	"asset":{
		"generator":"Khronos glTF Blender I/O v5.2.40",
		"version":"2.0"
	},
	"scene":0,
	"scenes":[
		{
			"name":"Scene",
			"nodes":[
				0
			]
		}
	],
	"nodes":[
		{
			"mesh":0,
			"name":"quiver_tree_01"
		}
	],
	"materials":[
		{
			"doubleSided":true,
			"name":"quiver_tree_01_trunk",
			"normalTexture":{
				"index":0
			},
			"pbrMetallicRoughness":{
				"baseColorTexture":{
					"index":1
				},
				"metallicFactor":0,
				"metallicRoughnessTexture":{
					"index":2
				}
			}
		},
		{
			"alphaMode":"BLEND",
			"doubleSided":true,
			"name":"quiver_tree_01_leaf",
			"normalTexture":{
				"index":3
			},
			"pbrMetallicRoughness":{
				"baseColorTexture":{
					"index":4
				},
				"metallicFactor":0,
				"metallicRoughnessTexture":{
					"index":5
				}
			}
		}
	],
	"meshes":[
		{
			"name":"realCap_Model_1.009",
			"primitives":[
				{
					"attributes":{
						"POSITION":0,
						"NORMAL":1,
						"TEXCOORD_0":2
					},
					"indices":3,
					"material":0
				},
				{
					"attributes":{
						"POSITION":4,
						"NORMAL":5,
						"TEXCOORD_0":6
					},
					"indices":7,
					"material":1
				}
			]
		}
	],
	"textures":[
		{
			"sampler":0,
			"source":0
		},
		{
			"sampler":0,
			"source":1
		},
		{
			"sampler":0,
			"source":2
		},
		{
			"sampler":0,
			"source":3
		},
		{
			"sampler":0,
			"source":4
		},
		{
			"sampler":0,
			"source":5
		}
	],
	"images":[
		{
			"mimeType":"image/jpeg",
			"name":"quiver_tree_01_trunk_nor_gl",
			"uri":"textures/quiver_tree_01_trunk_nor_gl_2k.jpg"
		},
		{
			"mimeType":"image/jpeg",
			"name":"quiver_tree_01_trunk_diff",
			"uri":"textures/quiver_tree_01_trunk_diff_2k.jpg"
		},
		{
			"mimeType":"image/jpeg",
			"name":"quiver_tree_01_trunk_rough",
			"uri":"textures/quiver_tree_01_trunk_arm_2k.jpg"
		},
		{
			"mimeType":"image/jpeg",
			"name":"quiver_tree_01_leaf_nor_gl",
			"uri":"textures/quiver_tree_01_leaf_nor_gl_2k.jpg"
		},
		{
			"mimeType":"image/png",
			"name":"quiver_tree_01_leaf_diff",
			"uri":"textures/quiver_tree_01_leaf_diff_2k.jpg"
		},
		{
			"mimeType":"image/jpeg",
			"name":"quiver_tree_01_leaf_rough",
			"uri":"textures/quiver_tree_01_leaf_arm_2k.jpg"
		}
	],
	"accessors":[
		{
			"bufferView":0,
			"componentType":5126,
			"count":3400,
			"max":[
				0.2949044108390808,
				2.392643928527832,
				0.25457555055618286
			],
			"min":[
				-0.32080894708633423,
				-0.03908145800232887,
				-0.20137426257133484
			],
			"type":"VEC3"
		},
		{
			"bufferView":1,
			"componentType":5126,
			"count":3400,
			"type":"VEC3"
		},
		{
			"bufferView":2,
			"componentType":5126,
			"count":3400,
			"type":"VEC2"
		},
		{
			"bufferView":3,
			"componentType":5123,
			"count":17202,
			"type":"SCALAR"
		},
		{
			"bufferView":4,
			"componentType":5126,
			"count":14739,
			"max":[
				0.6346672177314758,
				2.6741139888763428,
				0.503574788570404
			],
			"min":[
				-0.5469216704368591,
				1.9601812362670898,
				-0.4665455222129822
			],
			"type":"VEC3"
		},
		{
			"bufferView":5,
			"componentType":5126,
			"count":14739,
			"type":"VEC3"
		},
		{
			"bufferView":6,
			"componentType":5126,
			"count":14739,
			"type":"VEC2"
		},
		{
			"bufferView":7,
			"componentType":5123,
			"count":50352,
			"type":"SCALAR"
		}
	],
	"bufferViews":[
		{
			"buffer":0,
			"byteLength":40800,
			"byteOffset":0,
			"target":34962
		},
		{
			"buffer":0,
			"byteLength":40800,
			"byteOffset":40800,
			"target":34962
		},
		{
			"buffer":0,
			"byteLength":27200,
			"byteOffset":81600,
			"target":34962
		},
		{
			"buffer":0,
			"byteLength":34404,
			"byteOffset":108800,
			"target":34963
		},
		{
			"buffer":0,
			"byteLength":176868,
			"byteOffset":143204,
			"target":34962
		},
		{
			"buffer":0,
			"byteLength":176868,
			"byteOffset":320072,
			"target":34962
		},
		{
			"buffer":0,
			"byteLength":117912,
			"byteOffset":496940,
			"target":34962
		},
		{
			"buffer":0,
			"byteLength":100704,
			"byteOffset":614852,
			"target":34963
		}
	],
	"samplers":[
		{
			"magFilter":9729,
			"minFilter":9987
		}
	],
	"buffers":[
		{
			"byteLength":715556,
			"uri":"quiver_tree_01.bin"
		}
	]
}
