{
	"asset":{
		"generator":"Khronos glTF Blender I/O v5.2.40",
		"version":"2.0"
	},
	"scene":0,
	"scenes":[
		{
			"name":"Scene",
			"nodes":[
				0,
				1,
				2,
				3,
				4,
				5,
				6,
				7
			]
		}
	],
	"nodes":[
		{
			"mesh":0,
			"name":"ring"
		},
		{
			"mesh":1,
			"name":"ring.001"
		},
		{
			"mesh":2,
			"name":"root0"
		},
		{
			"mesh":3,
			"name":"root1"
		},
		{
			"mesh":4,
			"name":"root2"
		},
		{
			"mesh":5,
			"name":"root3"
		},
		{
			"mesh":6,
			"name":"stump"
		},
		{
			"mesh":7,
			"name":"top"
		}
	],
	"materials":[
		{
			"doubleSided":true,
			"name":"M_ring",
			"pbrMetallicRoughness":{
				"baseColorFactor":[
					0.14799802005290985,
					0.05112205073237419,
					0.015175238251686096,
					1
				],
				"metallicFactor":0,
				"roughnessFactor":0.8500000238418579
			}
		},
		{
			"doubleSided":true,
			"name":"M_bark2",
			"pbrMetallicRoughness":{
				"baseColorFactor":[
					0.2590273320674896,
					0.10114516317844391,
					0.02775527909398079,
					1
				],
				"metallicFactor":0,
				"roughnessFactor":0.8500000238418579
			}
		},
		{
			"doubleSided":true,
			"name":"M_bark",
			"pbrMetallicRoughness":{
				"baseColorFactor":[
					0.2590273320674896,
					0.10114516317844391,
					0.02775527909398079,
					1
				],
				"metallicFactor":0,
				"roughnessFactor":0.8500000238418579
			}
		},
		{
			"doubleSided":true,
			"name":"M_cut",
			"pbrMetallicRoughness":{
				"baseColorFactor":[
					0.701169490814209,
					0.39929330348968506,
					0.15105804800987244,
					1
				],
				"metallicFactor":0,
				"roughnessFactor":0.8500000238418579
			}
		}
	],
	"meshes":[
		{
			"name":"Torus",
			"primitives":[
				{
					"attributes":{
						"POSITION":0,
						"NORMAL":1,
						"TEXCOORD_0":2
					},
					"indices":3,
					"material":0
				}
			]
		},
		{
			"name":"Torus.001",
			"primitives":[
				{
					"attributes":{
						"POSITION":4,
						"NORMAL":5,
						"TEXCOORD_0":6
					},
					"indices":3,
					"material":0
				}
			]
		},
		{
			"name":"Cone.001",
			"primitives":[
				{
					"attributes":{
						"POSITION":7,
						"NORMAL":8,
						"TEXCOORD_0":9
					},
					"indices":10,
					"material":1
				}
			]
		},
		{
			"name":"Cone.002",
			"primitives":[
				{
					"attributes":{
						"POSITION":11,
						"NORMAL":12,
						"TEXCOORD_0":13
					},
					"indices":10,
					"material":1
				}
			]
		},
		{
			"name":"Cone.003",
			"primitives":[
				{
					"attributes":{
						"POSITION":14,
						"NORMAL":15,
						"TEXCOORD_0":16
					},
					"indices":10,
					"material":1
				}
			]
		},
		{
			"name":"Cone.004",
			"primitives":[
				{
					"attributes":{
						"POSITION":17,
						"NORMAL":18,
						"TEXCOORD_0":19
					},
					"indices":10,
					"material":1
				}
			]
		},
		{
			"name":"Cone",
			"primitives":[
				{
					"attributes":{
						"POSITION":20,
						"NORMAL":21,
						"TEXCOORD_0":22
					},
					"indices":23,
					"material":2
				}
			]
		},
		{
			"name":"Cylinder",
			"primitives":[
				{
					"attributes":{
						"POSITION":24,
						"NORMAL":25,
						"TEXCOORD_0":26
					},
					"indices":27,
					"material":3
				}
			]
		}
	],
	"accessors":[
		{
			"bufferView":0,
			"componentType":5126,
			"count":192,
			"max":[
				0.05950646102428436,
				0.35670900344848633,
				0.16586454212665558
			],
			"min":[
				-0.20279483497142792,
				0.32249581813812256,
				-0.0964367538690567
			],
			"type":"VEC3"
		},
		{
			"bufferView":1,
			"componentType":5126,
			"count":192,
			"type":"VEC3"
		},
		{
			"bufferView":2,
			"componentType":5126,
			"count":192,
			"type":"VEC2"
		},
		{
			"bufferView":3,
			"componentType":5123,
			"count":288,
			"type":"SCALAR"
		},
		{
			"bufferView":4,
			"componentType":5126,
			"count":192,
			"max":[
				0.17355050146579742,
				0.35670900344848633,
				0.27990859746932983
			],
			"min":[
				-0.3168388605117798,
				0.32249581813812256,
				-0.21048079431056976
			],
			"type":"VEC3"
		},
		{
			"bufferView":5,
			"componentType":5126,
			"count":192,
			"type":"VEC3"
		},
		{
			"bufferView":6,
			"componentType":5126,
			"count":192,
			"type":"VEC2"
		},
		{
			"bufferView":7,
			"componentType":5126,
			"count":26,
			"max":[
				0.43929481506347656,
				-0.07049450278282166,
				-0.11042875051498413
			],
			"min":[
				0.19317308068275452,
				-0.294220894575119,
				-0.3402461111545563
			],
			"type":"VEC3"
		},
		{
			"bufferView":8,
			"componentType":5126,
			"count":26,
			"type":"VEC3"
		},
		{
			"bufferView":9,
			"componentType":5126,
			"count":26,
			"type":"VEC2"
		},
		{
			"bufferView":10,
			"componentType":5123,
			"count":60,
			"type":"SCALAR"
		},
		{
			"bufferView":11,
			"componentType":5126,
			"count":26,
			"max":[
				-0.1687368005514145,
				-0.07174094021320343,
				-0.26168230175971985
			],
			"min":[
				-0.414230078458786,
				-0.28622496128082275,
				-0.5107449889183044
			],
			"type":"VEC3"
		},
		{
			"bufferView":12,
			"componentType":5126,
			"count":26,
			"type":"VEC3"
		},
		{
			"bufferView":13,
			"componentType":5126,
			"count":26,
			"type":"VEC2"
		},
		{
			"bufferView":14,
			"componentType":5126,
			"count":26,
			"max":[
				-0.33646145462989807,
				-0.07049450278282166,
				0.40967389941215515
			],
			"min":[
				-0.5825831890106201,
				-0.294220894575119,
				0.179856538772583
			],
			"type":"VEC3"
		},
		{
			"bufferView":15,
			"componentType":5126,
			"count":26,
			"type":"VEC3"
		},
		{
			"bufferView":16,
			"componentType":5126,
			"count":26,
			"type":"VEC2"
		},
		{
			"bufferView":17,
			"componentType":5126,
			"count":26,
			"max":[
				0.27094170451164246,
				-0.07174094021320343,
				0.5801727771759033
			],
			"min":[
				0.025448434054851532,
				-0.28622496128082275,
				0.3311100900173187
			],
			"type":"VEC3"
		},
		{
			"bufferView":18,
			"componentType":5126,
			"count":26,
			"type":"VEC3"
		},
		{
			"bufferView":19,
			"componentType":5126,
			"count":26,
			"type":"VEC2"
		},
		{
			"bufferView":20,
			"componentType":5126,
			"count":42,
			"max":[
				0.3350895345211029,
				0.3224223554134369,
				0.4623790383338928
			],
			"min":[
				-0.47837790846824646,
				-0.1929784119129181,
				-0.39295125007629395
			],
			"type":"VEC3"
		},
		{
			"bufferView":21,
			"componentType":5126,
			"count":42,
			"type":"VEC3"
		},
		{
			"bufferView":22,
			"componentType":5126,
			"count":42,
			"type":"VEC2"
		},
		{
			"bufferView":23,
			"componentType":5123,
			"count":108,
			"type":"SCALAR"
		},
		{
			"bufferView":24,
			"componentType":5126,
			"count":60,
			"max":[
				0.26052168011665344,
				0.33960241079330444,
				0.38397374749183655
			],
			"min":[
				-0.403810054063797,
				0.3166956901550293,
				-0.31454595923423767
			],
			"type":"VEC3"
		},
		{
			"bufferView":25,
			"componentType":5126,
			"count":60,
			"type":"VEC3"
		},
		{
			"bufferView":26,
			"componentType":5126,
			"count":60,
			"type":"VEC2"
		},
		{
			"bufferView":27,
			"componentType":5123,
			"count":108,
			"type":"SCALAR"
		}
	],
	"bufferViews":[
		{
			"buffer":0,
			"byteLength":2304,
			"byteOffset":0,
			"target":34962
		},
		{
			"buffer":0,
			"byteLength":2304,
			"byteOffset":2304,
			"target":34962
		},
		{
			"buffer":0,
			"byteLength":1536,
			"byteOffset":4608,
			"target":34962
		},
		{
			"buffer":0,
			"byteLength":576,
			"byteOffset":6144,
			"target":34963
		},
		{
			"buffer":0,
			"byteLength":2304,
			"byteOffset":6720,
			"target":34962
		},
		{
			"buffer":0,
			"byteLength":2304,
			"byteOffset":9024,
			"target":34962
		},
		{
			"buffer":0,
			"byteLength":1536,
			"byteOffset":11328,
			"target":34962
		},
		{
			"buffer":0,
			"byteLength":312,
			"byteOffset":12864,
			"target":34962
		},
		{
			"buffer":0,
			"byteLength":312,
			"byteOffset":13176,
			"target":34962
		},
		{
			"buffer":0,
			"byteLength":208,
			"byteOffset":13488,
			"target":34962
		},
		{
			"buffer":0,
			"byteLength":120,
			"byteOffset":13696,
			"target":34963
		},
		{
			"buffer":0,
			"byteLength":312,
			"byteOffset":13816,
			"target":34962
		},
		{
			"buffer":0,
			"byteLength":312,
			"byteOffset":14128,
			"target":34962
		},
		{
			"buffer":0,
			"byteLength":208,
			"byteOffset":14440,
			"target":34962
		},
		{
			"buffer":0,
			"byteLength":312,
			"byteOffset":14648,
			"target":34962
		},
		{
			"buffer":0,
			"byteLength":312,
			"byteOffset":14960,
			"target":34962
		},
		{
			"buffer":0,
			"byteLength":208,
			"byteOffset":15272,
			"target":34962
		},
		{
			"buffer":0,
			"byteLength":312,
			"byteOffset":15480,
			"target":34962
		},
		{
			"buffer":0,
			"byteLength":312,
			"byteOffset":15792,
			"target":34962
		},
		{
			"buffer":0,
			"byteLength":208,
			"byteOffset":16104,
			"target":34962
		},
		{
			"buffer":0,
			"byteLength":504,
			"byteOffset":16312,
			"target":34962
		},
		{
			"buffer":0,
			"byteLength":504,
			"byteOffset":16816,
			"target":34962
		},
		{
			"buffer":0,
			"byteLength":336,
			"byteOffset":17320,
			"target":34962
		},
		{
			"buffer":0,
			"byteLength":216,
			"byteOffset":17656,
			"target":34963
		},
		{
			"buffer":0,
			"byteLength":720,
			"byteOffset":17872,
			"target":34962
		},
		{
			"buffer":0,
			"byteLength":720,
			"byteOffset":18592,
			"target":34962
		},
		{
			"buffer":0,
			"byteLength":480,
			"byteOffset":19312,
			"target":34962
		},
		{
			"buffer":0,
			"byteLength":216,
			"byteOffset":19792,
			"target":34963
		}
	],
	"buffers":[
		{
			"byteLength":20008,
			"uri":"tree_stump_01.bin"
		}
	]
}
