{
	"asset":{
		"generator":"Khronos glTF Blender I/O v5.2.40",
		"version":"2.0"
	},
	"extensionsUsed":[
		"KHR_materials_emissive_strength"
	],
	"scene":0,
	"scenes":[
		{
			"name":"Scene",
			"nodes":[
				0,
				1,
				2,
				3,
				4,
				5,
				6,
				7,
				8,
				9,
				10,
				11,
				12,
				13,
				14,
				15,
				16
			]
		}
	],
	"nodes":[
		{
			"mesh":0,
			"name":"base"
		},
		{
			"mesh":1,
			"name":"plate0"
		},
		{
			"mesh":2,
			"name":"plate1"
		},
		{
			"mesh":3,
			"name":"plate2"
		},
		{
			"mesh":4,
			"name":"plate3"
		},
		{
			"mesh":5,
			"name":"plate4"
		},
		{
			"mesh":6,
			"name":"plate5"
		},
		{
			"mesh":7,
			"name":"plate6"
		},
		{
			"mesh":8,
			"name":"plate7"
		},
		{
			"mesh":9,
			"name":"plate8"
		},
		{
			"mesh":10,
			"name":"plate9"
		},
		{
			"mesh":11,
			"name":"plate10"
		},
		{
			"mesh":12,
			"name":"plate11"
		},
		{
			"mesh":13,
			"name":"seam0"
		},
		{
			"mesh":14,
			"name":"seam1"
		},
		{
			"mesh":15,
			"name":"vein0"
		},
		{
			"mesh":16,
			"name":"vein1"
		}
	],
	"materials":[
		{
			"doubleSided":true,
			"name":"M_base",
			"pbrMetallicRoughness":{
				"baseColorFactor":[
					0.03994717076420784,
					0.02899118699133396,
					0.030256519094109535,
					1
				],
				"metallicFactor":0,
				"roughnessFactor":0.8500000238418579
			}
		},
		{
			"doubleSided":true,
			"name":"M_pl0",
			"pbrMetallicRoughness":{
				"baseColorFactor":[
					0.013473397120833397,
					0.00902149174362421,
					0.00902149174362421,
					1
				],
				"metallicFactor":0,
				"roughnessFactor":0.8999999761581421
			}
		},
		{
			"doubleSided":true,
			"name":"M_pl1",
			"pbrMetallicRoughness":{
				"baseColorFactor":[
					0.08241420239210129,
					0.058187179267406464,
					0.06190747395157814,
					1
				],
				"metallicFactor":0,
				"roughnessFactor":0.8999999761581421
			}
		},
		{
			"doubleSided":true,
			"name":"M_pl2",
			"pbrMetallicRoughness":{
				"baseColorFactor":[
					0.013473397120833397,
					0.00902149174362421,
					0.00902149174362421,
					1
				],
				"metallicFactor":0,
				"roughnessFactor":0.8999999761581421
			}
		},
		{
			"doubleSided":true,
			"name":"M_pl3",
			"pbrMetallicRoughness":{
				"baseColorFactor":[
					0.08241420239210129,
					0.058187179267406464,
					0.06190747395157814,
					1
				],
				"metallicFactor":0,
				"roughnessFactor":0.8999999761581421
			}
		},
		{
			"doubleSided":true,
			"name":"M_pl4",
			"pbrMetallicRoughness":{
				"baseColorFactor":[
					0.013473397120833397,
					0.00902149174362421,
					0.00902149174362421,
					1
				],
				"metallicFactor":0,
				"roughnessFactor":0.8999999761581421
			}
		},
		{
			"doubleSided":true,
			"name":"M_pl5",
			"pbrMetallicRoughness":{
				"baseColorFactor":[
					0.08241420239210129,
					0.058187179267406464,
					0.06190747395157814,
					1
				],
				"metallicFactor":0,
				"roughnessFactor":0.8999999761581421
			}
		},
		{
			"doubleSided":true,
			"name":"M_pl6",
			"pbrMetallicRoughness":{
				"baseColorFactor":[
					0.013473397120833397,
					0.00902149174362421,
					0.00902149174362421,
					1
				],
				"metallicFactor":0,
				"roughnessFactor":0.8999999761581421
			}
		},
		{
			"doubleSided":true,
			"name":"M_pl7",
			"pbrMetallicRoughness":{
				"baseColorFactor":[
					0.08241420239210129,
					0.058187179267406464,
					0.06190747395157814,
					1
				],
				"metallicFactor":0,
				"roughnessFactor":0.8999999761581421
			}
		},
		{
			"doubleSided":true,
			"name":"M_pl8",
			"pbrMetallicRoughness":{
				"baseColorFactor":[
					0.013473397120833397,
					0.00902149174362421,
					0.00902149174362421,
					1
				],
				"metallicFactor":0,
				"roughnessFactor":0.8999999761581421
			}
		},
		{
			"doubleSided":true,
			"name":"M_pl9",
			"pbrMetallicRoughness":{
				"baseColorFactor":[
					0.08241420239210129,
					0.058187179267406464,
					0.06190747395157814,
					1
				],
				"metallicFactor":0,
				"roughnessFactor":0.8999999761581421
			}
		},
		{
			"doubleSided":true,
			"name":"M_pl10",
			"pbrMetallicRoughness":{
				"baseColorFactor":[
					0.013473397120833397,
					0.00902149174362421,
					0.00902149174362421,
					1
				],
				"metallicFactor":0,
				"roughnessFactor":0.8999999761581421
			}
		},
		{
			"doubleSided":true,
			"name":"M_pl11",
			"pbrMetallicRoughness":{
				"baseColorFactor":[
					0.08241420239210129,
					0.058187179267406464,
					0.06190747395157814,
					1
				],
				"metallicFactor":0,
				"roughnessFactor":0.8999999761581421
			}
		},
		{
			"doubleSided":true,
			"emissiveFactor":[
				1,
				0.5479934811592102,
				0.038472745567560196
			],
			"extensions":{
				"KHR_materials_emissive_strength":{
					"emissiveStrength":2.799999952316284
				}
			},
			"name":"M_es0",
			"pbrMetallicRoughness":{
				"baseColorFactor":[
					1,
					0.5479934811592102,
					0.038472745567560196,
					1
				],
				"metallicFactor":0,
				"roughnessFactor":0.8500000238418579
			}
		},
		{
			"doubleSided":true,
			"emissiveFactor":[
				1,
				0.5479934811592102,
				0.038472745567560196
			],
			"extensions":{
				"KHR_materials_emissive_strength":{
					"emissiveStrength":2.799999952316284
				}
			},
			"name":"M_es1",
			"pbrMetallicRoughness":{
				"baseColorFactor":[
					1,
					0.5479934811592102,
					0.038472745567560196,
					1
				],
				"metallicFactor":0,
				"roughnessFactor":0.8500000238418579
			}
		},
		{
			"doubleSided":true,
			"emissiveFactor":[
				1,
				0.19751642644405365,
				0.015175238251686096
			],
			"extensions":{
				"KHR_materials_emissive_strength":{
					"emissiveStrength":2.4000000953674316
				}
			},
			"name":"M_vn0",
			"pbrMetallicRoughness":{
				"baseColorFactor":[
					1,
					0.19751642644405365,
					0.015175238251686096,
					1
				],
				"metallicFactor":0,
				"roughnessFactor":0.8500000238418579
			}
		},
		{
			"doubleSided":true,
			"emissiveFactor":[
				1,
				0.19751642644405365,
				0.015175238251686096
			],
			"extensions":{
				"KHR_materials_emissive_strength":{
					"emissiveStrength":2.4000000953674316
				}
			},
			"name":"M_vn1",
			"pbrMetallicRoughness":{
				"baseColorFactor":[
					1,
					0.19751642644405365,
					0.015175238251686096,
					1
				],
				"metallicFactor":0,
				"roughnessFactor":0.8500000238418579
			}
		}
	],
	"meshes":[
		{
			"name":"Cube",
			"primitives":[
				{
					"attributes":{
						"POSITION":0,
						"NORMAL":1,
						"TEXCOORD_0":2
					},
					"indices":3,
					"material":0
				}
			]
		},
		{
			"name":"Cube.005",
			"primitives":[
				{
					"attributes":{
						"POSITION":4,
						"NORMAL":5,
						"TEXCOORD_0":6
					},
					"indices":7,
					"material":1
				}
			]
		},
		{
			"name":"Cube.006",
			"primitives":[
				{
					"attributes":{
						"POSITION":8,
						"NORMAL":9,
						"TEXCOORD_0":10
					},
					"indices":11,
					"material":2
				}
			]
		},
		{
			"name":"Cube.007",
			"primitives":[
				{
					"attributes":{
						"POSITION":12,
						"NORMAL":13,
						"TEXCOORD_0":14
					},
					"indices":11,
					"material":3
				}
			]
		},
		{
			"name":"Cube.008",
			"primitives":[
				{
					"attributes":{
						"POSITION":15,
						"NORMAL":16,
						"TEXCOORD_0":17
					},
					"indices":11,
					"material":4
				}
			]
		},
		{
			"name":"Cube.009",
			"primitives":[
				{
					"attributes":{
						"POSITION":18,
						"NORMAL":19,
						"TEXCOORD_0":20
					},
					"indices":7,
					"material":5
				}
			]
		},
		{
			"name":"Cube.010",
			"primitives":[
				{
					"attributes":{
						"POSITION":21,
						"NORMAL":22,
						"TEXCOORD_0":23
					},
					"indices":7,
					"material":6
				}
			]
		},
		{
			"name":"Cube.011",
			"primitives":[
				{
					"attributes":{
						"POSITION":24,
						"NORMAL":25,
						"TEXCOORD_0":26
					},
					"indices":11,
					"material":7
				}
			]
		},
		{
			"name":"Cube.012",
			"primitives":[
				{
					"attributes":{
						"POSITION":27,
						"NORMAL":28,
						"TEXCOORD_0":29
					},
					"indices":7,
					"material":8
				}
			]
		},
		{
			"name":"Cube.013",
			"primitives":[
				{
					"attributes":{
						"POSITION":30,
						"NORMAL":31,
						"TEXCOORD_0":32
					},
					"indices":11,
					"material":9
				}
			]
		},
		{
			"name":"Cube.014",
			"primitives":[
				{
					"attributes":{
						"POSITION":33,
						"NORMAL":34,
						"TEXCOORD_0":35
					},
					"indices":7,
					"material":10
				}
			]
		},
		{
			"name":"Cube.015",
			"primitives":[
				{
					"attributes":{
						"POSITION":36,
						"NORMAL":37,
						"TEXCOORD_0":38
					},
					"indices":11,
					"material":11
				}
			]
		},
		{
			"name":"Cube.016",
			"primitives":[
				{
					"attributes":{
						"POSITION":39,
						"NORMAL":40,
						"TEXCOORD_0":41
					},
					"indices":11,
					"material":12
				}
			]
		},
		{
			"name":"Cube.003",
			"primitives":[
				{
					"attributes":{
						"POSITION":42,
						"NORMAL":43,
						"TEXCOORD_0":44
					},
					"indices":45,
					"material":13
				}
			]
		},
		{
			"name":"Cube.004",
			"primitives":[
				{
					"attributes":{
						"POSITION":46,
						"NORMAL":47,
						"TEXCOORD_0":48
					},
					"indices":45,
					"material":14
				}
			]
		},
		{
			"name":"Cube.001",
			"primitives":[
				{
					"attributes":{
						"POSITION":49,
						"NORMAL":50,
						"TEXCOORD_0":51
					},
					"indices":45,
					"material":15
				}
			]
		},
		{
			"name":"Cube.002",
			"primitives":[
				{
					"attributes":{
						"POSITION":52,
						"NORMAL":53,
						"TEXCOORD_0":54
					},
					"indices":45,
					"material":16
				}
			]
		}
	],
	"accessors":[
		{
			"bufferView":0,
			"componentType":5126,
			"count":96,
			"max":[
				4.699999809265137,
				0,
				12
			],
			"min":[
				-4.699999809265137,
				-0.23999999463558197,
				-12
			],
			"type":"VEC3"
		},
		{
			"bufferView":1,
			"componentType":5126,
			"count":96,
			"type":"VEC3"
		},
		{
			"bufferView":2,
			"componentType":5126,
			"count":96,
			"type":"VEC2"
		},
		{
			"bufferView":3,
			"componentType":5123,
			"count":132,
			"type":"SCALAR"
		},
		{
			"bufferView":4,
			"componentType":5126,
			"count":24,
			"max":[
				0.820488452911377,
				0.01600000075995922,
				5.431341648101807
			],
			"min":[
				-1.69826078414917,
				-0.007999999448657036,
				3.62876558303833
			],
			"type":"VEC3"
		},
		{
			"bufferView":5,
			"componentType":5126,
			"count":24,
			"type":"VEC3"
		},
		{
			"bufferView":6,
			"componentType":5126,
			"count":24,
			"type":"VEC2"
		},
		{
			"bufferView":7,
			"componentType":5123,
			"count":36,
			"type":"SCALAR"
		},
		{
			"bufferView":8,
			"componentType":5126,
			"count":24,
			"max":[
				2.6730997562408447,
				0.01600000075995922,
				9.825345993041992
			],
			"min":[
				1.3262276649475098,
				-0.007999999448657036,
				8.855371475219727
			],
			"type":"VEC3"
		},
		{
			"bufferView":9,
			"componentType":5126,
			"count":24,
			"type":"VEC3"
		},
		{
			"bufferView":10,
			"componentType":5126,
			"count":24,
			"type":"VEC2"
		},
		{
			"bufferView":11,
			"componentType":5123,
			"count":36,
			"type":"SCALAR"
		},
		{
			"bufferView":12,
			"componentType":5126,
			"count":24,
			"max":[
				3.5616023540496826,
				0.01600000075995922,
				-1.4991607666015625
			],
			"min":[
				1.9189307689666748,
				-0.007999999448657036,
				-3.3933920860290527
			],
			"type":"VEC3"
		},
		{
			"bufferView":13,
			"componentType":5126,
			"count":24,
			"type":"VEC3"
		},
		{
			"bufferView":14,
			"componentType":5126,
			"count":24,
			"type":"VEC2"
		},
		{
			"bufferView":15,
			"componentType":5126,
			"count":24,
			"max":[
				-0.2155134677886963,
				0.01600000075995922,
				6.07484769821167
			],
			"min":[
				-2.534086227416992,
				-0.007999999448657036,
				3.879791736602783
			],
			"type":"VEC3"
		},
		{
			"bufferView":16,
			"componentType":5126,
			"count":24,
			"type":"VEC3"
		},
		{
			"bufferView":17,
			"componentType":5126,
			"count":24,
			"type":"VEC2"
		},
		{
			"bufferView":18,
			"componentType":5126,
			"count":24,
			"max":[
				3.703190565109253,
				0.01600000075995922,
				-4.013597011566162
			],
			"min":[
				2.324406862258911,
				-0.007999999448657036,
				-5.482238292694092
			],
			"type":"VEC3"
		},
		{
			"bufferView":19,
			"componentType":5126,
			"count":24,
			"type":"VEC3"
		},
		{
			"bufferView":20,
			"componentType":5126,
			"count":24,
			"type":"VEC2"
		},
		{
			"bufferView":21,
			"componentType":5126,
			"count":24,
			"max":[
				1.9627794027328491,
				0.01600000075995922,
				1.2732667922973633
			],
			"min":[
				0.2571951150894165,
				-0.007999999448657036,
				-0.7133862972259521
			],
			"type":"VEC3"
		},
		{
			"bufferView":22,
			"componentType":5126,
			"count":24,
			"type":"VEC3"
		},
		{
			"bufferView":23,
			"componentType":5126,
			"count":24,
			"type":"VEC2"
		},
		{
			"bufferView":24,
			"componentType":5126,
			"count":24,
			"max":[
				-0.0719749927520752,
				0.01600000075995922,
				4.260588645935059
			],
			"min":[
				-2.465383529663086,
				-0.007999999448657036,
				3.2341349124908447
			],
			"type":"VEC3"
		},
		{
			"bufferView":25,
			"componentType":5126,
			"count":24,
			"type":"VEC3"
		},
		{
			"bufferView":26,
			"componentType":5126,
			"count":24,
			"type":"VEC2"
		},
		{
			"bufferView":27,
			"componentType":5126,
			"count":24,
			"max":[
				4.714509010314941,
				0.01600000075995922,
				-1.8140008449554443
			],
			"min":[
				2.372960329055786,
				-0.007999999448657036,
				-3.093339204788208
			],
			"type":"VEC3"
		},
		{
			"bufferView":28,
			"componentType":5126,
			"count":24,
			"type":"VEC3"
		},
		{
			"bufferView":29,
			"componentType":5126,
			"count":24,
			"type":"VEC2"
		},
		{
			"bufferView":30,
			"componentType":5126,
			"count":24,
			"max":[
				-0.19950753450393677,
				0.01600000075995922,
				3.5165610313415527
			],
			"min":[
				-1.874894618988037,
				-0.007999999448657036,
				2.2520012855529785
			],
			"type":"VEC3"
		},
		{
			"bufferView":31,
			"componentType":5126,
			"count":24,
			"type":"VEC3"
		},
		{
			"bufferView":32,
			"componentType":5126,
			"count":24,
			"type":"VEC2"
		},
		{
			"bufferView":33,
			"componentType":5126,
			"count":24,
			"max":[
				2.8116374015808105,
				0.01600000075995922,
				-3.2881340980529785
			],
			"min":[
				0.9258898496627808,
				-0.007999999448657036,
				-4.561286926269531
			],
			"type":"VEC3"
		},
		{
			"bufferView":34,
			"componentType":5126,
			"count":24,
			"type":"VEC3"
		},
		{
			"bufferView":35,
			"componentType":5126,
			"count":24,
			"type":"VEC2"
		},
		{
			"bufferView":36,
			"componentType":5126,
			"count":24,
			"max":[
				4.737152099609375,
				0.01600000075995922,
				-6.161825180053711
			],
			"min":[
				2.7414658069610596,
				-0.007999999448657036,
				-8.092225074768066
			],
			"type":"VEC3"
		},
		{
			"bufferView":37,
			"componentType":5126,
			"count":24,
			"type":"VEC3"
		},
		{
			"bufferView":38,
			"componentType":5126,
			"count":24,
			"type":"VEC2"
		},
		{
			"bufferView":39,
			"componentType":5126,
			"count":24,
			"max":[
				-2.8673906326293945,
				0.01600000075995922,
				3.5405690670013428
			],
			"min":[
				-4.457252502441406,
				-0.007999999448657036,
				2.3629472255706787
			],
			"type":"VEC3"
		},
		{
			"bufferView":40,
			"componentType":5126,
			"count":24,
			"type":"VEC3"
		},
		{
			"bufferView":41,
			"componentType":5126,
			"count":24,
			"type":"VEC2"
		},
		{
			"bufferView":42,
			"componentType":5126,
			"count":24,
			"max":[
				-3.320000171661377,
				0.024000000208616257,
				12
			],
			"min":[
				-3.4800000190734863,
				-0.00800000037997961,
				-12
			],
			"type":"VEC3"
		},
		{
			"bufferView":43,
			"componentType":5126,
			"count":24,
			"type":"VEC3"
		},
		{
			"bufferView":44,
			"componentType":5126,
			"count":24,
			"type":"VEC2"
		},
		{
			"bufferView":45,
			"componentType":5123,
			"count":36,
			"type":"SCALAR"
		},
		{
			"bufferView":46,
			"componentType":5126,
			"count":24,
			"max":[
				3.4800000190734863,
				0.024000000208616257,
				12
			],
			"min":[
				3.320000171661377,
				-0.00800000037997961,
				-12
			],
			"type":"VEC3"
		},
		{
			"bufferView":47,
			"componentType":5126,
			"count":24,
			"type":"VEC3"
		},
		{
			"bufferView":48,
			"componentType":5126,
			"count":24,
			"type":"VEC2"
		},
		{
			"bufferView":49,
			"componentType":5126,
			"count":24,
			"max":[
				-1.040000081062317,
				0.024000000208616257,
				12
			],
			"min":[
				-1.159999966621399,
				-0.00800000037997961,
				-12
			],
			"type":"VEC3"
		},
		{
			"bufferView":50,
			"componentType":5126,
			"count":24,
			"type":"VEC3"
		},
		{
			"bufferView":51,
			"componentType":5126,
			"count":24,
			"type":"VEC2"
		},
		{
			"bufferView":52,
			"componentType":5126,
			"count":24,
			"max":[
				1.159999966621399,
				0.024000000208616257,
				12
			],
			"min":[
				1.040000081062317,
				-0.00800000037997961,
				-12
			],
			"type":"VEC3"
		},
		{
			"bufferView":53,
			"componentType":5126,
			"count":24,
			"type":"VEC3"
		},
		{
			"bufferView":54,
			"componentType":5126,
			"count":24,
			"type":"VEC2"
		}
	],
	"bufferViews":[
		{
			"buffer":0,
			"byteLength":1152,
			"byteOffset":0,
			"target":34962
		},
		{
			"buffer":0,
			"byteLength":1152,
			"byteOffset":1152,
			"target":34962
		},
		{
			"buffer":0,
			"byteLength":768,
			"byteOffset":2304,
			"target":34962
		},
		{
			"buffer":0,
			"byteLength":264,
			"byteOffset":3072,
			"target":34963
		},
		{
			"buffer":0,
			"byteLength":288,
			"byteOffset":3336,
			"target":34962
		},
		{
			"buffer":0,
			"byteLength":288,
			"byteOffset":3624,
			"target":34962
		},
		{
			"buffer":0,
			"byteLength":192,
			"byteOffset":3912,
			"target":34962
		},
		{
			"buffer":0,
			"byteLength":72,
			"byteOffset":4104,
			"target":34963
		},
		{
			"buffer":0,
			"byteLength":288,
			"byteOffset":4176,
			"target":34962
		},
		{
			"buffer":0,
			"byteLength":288,
			"byteOffset":4464,
			"target":34962
		},
		{
			"buffer":0,
			"byteLength":192,
			"byteOffset":4752,
			"target":34962
		},
		{
			"buffer":0,
			"byteLength":72,
			"byteOffset":4944,
			"target":34963
		},
		{
			"buffer":0,
			"byteLength":288,
			"byteOffset":5016,
			"target":34962
		},
		{
			"buffer":0,
			"byteLength":288,
			"byteOffset":5304,
			"target":34962
		},
		{
			"buffer":0,
			"byteLength":192,
			"byteOffset":5592,
			"target":34962
		},
		{
			"buffer":0,
			"byteLength":288,
			"byteOffset":5784,
			"target":34962
		},
		{
			"buffer":0,
			"byteLength":288,
			"byteOffset":6072,
			"target":34962
		},
		{
			"buffer":0,
			"byteLength":192,
			"byteOffset":6360,
			"target":34962
		},
		{
			"buffer":0,
			"byteLength":288,
			"byteOffset":6552,
			"target":34962
		},
		{
			"buffer":0,
			"byteLength":288,
			"byteOffset":6840,
			"target":34962
		},
		{
			"buffer":0,
			"byteLength":192,
			"byteOffset":7128,
			"target":34962
		},
		{
			"buffer":0,
			"byteLength":288,
			"byteOffset":7320,
			"target":34962
		},
		{
			"buffer":0,
			"byteLength":288,
			"byteOffset":7608,
			"target":34962
		},
		{
			"buffer":0,
			"byteLength":192,
			"byteOffset":7896,
			"target":34962
		},
		{
			"buffer":0,
			"byteLength":288,
			"byteOffset":8088,
			"target":34962
		},
		{
			"buffer":0,
			"byteLength":288,
			"byteOffset":8376,
			"target":34962
		},
		{
			"buffer":0,
			"byteLength":192,
			"byteOffset":8664,
			"target":34962
		},
		{
			"buffer":0,
			"byteLength":288,
			"byteOffset":8856,
			"target":34962
		},
		{
			"buffer":0,
			"byteLength":288,
			"byteOffset":9144,
			"target":34962
		},
		{
			"buffer":0,
			"byteLength":192,
			"byteOffset":9432,
			"target":34962
		},
		{
			"buffer":0,
			"byteLength":288,
			"byteOffset":9624,
			"target":34962
		},
		{
			"buffer":0,
			"byteLength":288,
			"byteOffset":9912,
			"target":34962
		},
		{
			"buffer":0,
			"byteLength":192,
			"byteOffset":10200,
			"target":34962
		},
		{
			"buffer":0,
			"byteLength":288,
			"byteOffset":10392,
			"target":34962
		},
		{
			"buffer":0,
			"byteLength":288,
			"byteOffset":10680,
			"target":34962
		},
		{
			"buffer":0,
			"byteLength":192,
			"byteOffset":10968,
			"target":34962
		},
		{
			"buffer":0,
			"byteLength":288,
			"byteOffset":11160,
			"target":34962
		},
		{
			"buffer":0,
			"byteLength":288,
			"byteOffset":11448,
			"target":34962
		},
		{
			"buffer":0,
			"byteLength":192,
			"byteOffset":11736,
			"target":34962
		},
		{
			"buffer":0,
			"byteLength":288,
			"byteOffset":11928,
			"target":34962
		},
		{
			"buffer":0,
			"byteLength":288,
			"byteOffset":12216,
			"target":34962
		},
		{
			"buffer":0,
			"byteLength":192,
			"byteOffset":12504,
			"target":34962
		},
		{
			"buffer":0,
			"byteLength":288,
			"byteOffset":12696,
			"target":34962
		},
		{
			"buffer":0,
			"byteLength":288,
			"byteOffset":12984,
			"target":34962
		},
		{
			"buffer":0,
			"byteLength":192,
			"byteOffset":13272,
			"target":34962
		},
		{
			"buffer":0,
			"byteLength":72,
			"byteOffset":13464,
			"target":34963
		},
		{
			"buffer":0,
			"byteLength":288,
			"byteOffset":13536,
			"target":34962
		},
		{
			"buffer":0,
			"byteLength":288,
			"byteOffset":13824,
			"target":34962
		},
		{
			"buffer":0,
			"byteLength":192,
			"byteOffset":14112,
			"target":34962
		},
		{
			"buffer":0,
			"byteLength":288,
			"byteOffset":14304,
			"target":34962
		},
		{
			"buffer":0,
			"byteLength":288,
			"byteOffset":14592,
			"target":34962
		},
		{
			"buffer":0,
			"byteLength":192,
			"byteOffset":14880,
			"target":34962
		},
		{
			"buffer":0,
			"byteLength":288,
			"byteOffset":15072,
			"target":34962
		},
		{
			"buffer":0,
			"byteLength":288,
			"byteOffset":15360,
			"target":34962
		},
		{
			"buffer":0,
			"byteLength":192,
			"byteOffset":15648,
			"target":34962
		}
	],
	"buffers":[
		{
			"byteLength":15840,
			"uri":"hd_rd_basalt.bin"
		}
	]
}
