{
	"asset":{
		"generator":"Khronos glTF Blender I/O v5.2.40",
		"version":"2.0"
	},
	"scene":0,
	"scenes":[
		{
			"name":"Scene",
			"nodes":[
				0,
				1,
				2,
				3,
				4,
				5,
				6,
				7,
				8,
				9,
				10,
				11,
				12,
				13,
				14,
				15
			]
		}
	],
	"nodes":[
		{
			"mesh":0,
			"name":"body"
		},
		{
			"mesh":1,
			"name":"handle"
		},
		{
			"mesh":2,
			"name":"handle.001"
		},
		{
			"mesh":3,
			"name":"hinge"
		},
		{
			"mesh":4,
			"name":"lid"
		},
		{
			"mesh":5,
			"name":"lid.001"
		},
		{
			"mesh":6,
			"name":"rib"
		},
		{
			"mesh":7,
			"name":"rib.001"
		},
		{
			"mesh":8,
			"name":"rib.002"
		},
		{
			"mesh":9,
			"name":"rib.003"
		},
		{
			"mesh":10,
			"name":"rib.004"
		},
		{
			"mesh":11,
			"name":"rib.005"
		},
		{
			"mesh":12,
			"name":"wheel"
		},
		{
			"mesh":13,
			"name":"wheel.001"
		},
		{
			"mesh":14,
			"name":"wheel.002"
		},
		{
			"mesh":15,
			"name":"wheel.003"
		}
	],
	"materials":[
		{
			"doubleSided":true,
			"name":"dumpster_paint",
			"pbrMetallicRoughness":{
				"baseColorFactor":[
					0.05999999865889549,
					0.2199999988079071,
					0.10000000149011612,
					1
				],
				"metallicFactor":0.550000011920929,
				"roughnessFactor":0.5
			}
		},
		{
			"doubleSided":true,
			"name":"dumpster_rust",
			"pbrMetallicRoughness":{
				"baseColorFactor":[
					0.30000001192092896,
					0.14000000059604645,
					0.05999999865889549,
					1
				],
				"metallicFactor":0.10000000149011612,
				"roughnessFactor":0.800000011920929
			}
		},
		{
			"doubleSided":true,
			"name":"dumpster_lid",
			"pbrMetallicRoughness":{
				"baseColorFactor":[
					0.05000000074505806,
					0.10000000149011612,
					0.05999999865889549,
					1
				],
				"metallicFactor":0.5,
				"roughnessFactor":0.550000011920929
			}
		},
		{
			"doubleSided":true,
			"name":"wheel_rubber",
			"pbrMetallicRoughness":{
				"baseColorFactor":[
					0.07000000029802322,
					0.07000000029802322,
					0.07999999821186066,
					1
				],
				"metallicFactor":0,
				"roughnessFactor":0.8500000238418579
			}
		}
	],
	"meshes":[
		{
			"name":"body",
			"primitives":[
				{
					"attributes":{
						"POSITION":0,
						"NORMAL":1,
						"TEXCOORD_0":2
					},
					"indices":3,
					"material":0
				}
			]
		},
		{
			"name":"Cylinder.001",
			"primitives":[
				{
					"attributes":{
						"POSITION":4,
						"NORMAL":5,
						"TEXCOORD_0":6
					},
					"indices":7,
					"material":1
				}
			]
		},
		{
			"name":"Cylinder.002",
			"primitives":[
				{
					"attributes":{
						"POSITION":8,
						"NORMAL":9,
						"TEXCOORD_0":10
					},
					"indices":7,
					"material":1
				}
			]
		},
		{
			"name":"Cylinder",
			"primitives":[
				{
					"attributes":{
						"POSITION":11,
						"NORMAL":12,
						"TEXCOORD_0":13
					},
					"indices":7,
					"material":1
				}
			]
		},
		{
			"name":"Cube.006",
			"primitives":[
				{
					"attributes":{
						"POSITION":14,
						"NORMAL":15,
						"TEXCOORD_0":16
					},
					"indices":17,
					"material":2
				}
			]
		},
		{
			"name":"Cube.007",
			"primitives":[
				{
					"attributes":{
						"POSITION":18,
						"NORMAL":19,
						"TEXCOORD_0":20
					},
					"indices":21,
					"material":2
				}
			]
		},
		{
			"name":"Cube",
			"primitives":[
				{
					"attributes":{
						"POSITION":22,
						"NORMAL":23,
						"TEXCOORD_0":24
					},
					"indices":25,
					"material":0
				}
			]
		},
		{
			"name":"Cube.001",
			"primitives":[
				{
					"attributes":{
						"POSITION":26,
						"NORMAL":27,
						"TEXCOORD_0":28
					},
					"indices":25,
					"material":0
				}
			]
		},
		{
			"name":"Cube.002",
			"primitives":[
				{
					"attributes":{
						"POSITION":29,
						"NORMAL":30,
						"TEXCOORD_0":31
					},
					"indices":25,
					"material":0
				}
			]
		},
		{
			"name":"Cube.003",
			"primitives":[
				{
					"attributes":{
						"POSITION":32,
						"NORMAL":33,
						"TEXCOORD_0":34
					},
					"indices":25,
					"material":0
				}
			]
		},
		{
			"name":"Cube.004",
			"primitives":[
				{
					"attributes":{
						"POSITION":35,
						"NORMAL":36,
						"TEXCOORD_0":37
					},
					"indices":25,
					"material":0
				}
			]
		},
		{
			"name":"Cube.005",
			"primitives":[
				{
					"attributes":{
						"POSITION":38,
						"NORMAL":39,
						"TEXCOORD_0":40
					},
					"indices":25,
					"material":0
				}
			]
		},
		{
			"name":"Cylinder.003",
			"primitives":[
				{
					"attributes":{
						"POSITION":41,
						"NORMAL":42,
						"TEXCOORD_0":43
					},
					"indices":44,
					"material":3
				}
			]
		},
		{
			"name":"Cylinder.004",
			"primitives":[
				{
					"attributes":{
						"POSITION":45,
						"NORMAL":46,
						"TEXCOORD_0":47
					},
					"indices":44,
					"material":3
				}
			]
		},
		{
			"name":"Cylinder.005",
			"primitives":[
				{
					"attributes":{
						"POSITION":48,
						"NORMAL":49,
						"TEXCOORD_0":50
					},
					"indices":44,
					"material":3
				}
			]
		},
		{
			"name":"Cylinder.006",
			"primitives":[
				{
					"attributes":{
						"POSITION":51,
						"NORMAL":52,
						"TEXCOORD_0":53
					},
					"indices":44,
					"material":3
				}
			]
		}
	],
	"accessors":[
		{
			"bufferView":0,
			"componentType":5126,
			"count":216,
			"max":[
				1.024999976158142,
				1.2799999713897705,
				0.6970985531806946
			],
			"min":[
				-1.024999976158142,
				0.18000000715255737,
				-0.6970985531806946
			],
			"type":"VEC3"
		},
		{
			"bufferView":1,
			"componentType":5126,
			"count":216,
			"type":"VEC3"
		},
		{
			"bufferView":2,
			"componentType":5126,
			"count":216,
			"type":"VEC2"
		},
		{
			"bufferView":3,
			"componentType":5123,
			"count":324,
			"type":"SCALAR"
		},
		{
			"bufferView":4,
			"componentType":5126,
			"count":130,
			"max":[
				-0.5800000429153442,
				1.0699999332427979,
				-0.6200000047683716
			],
			"min":[
				-0.6200000047683716,
				1.0299999713897705,
				-0.8400000333786011
			],
			"type":"VEC3"
		},
		{
			"bufferView":5,
			"componentType":5126,
			"count":130,
			"type":"VEC3"
		},
		{
			"bufferView":6,
			"componentType":5126,
			"count":130,
			"type":"VEC2"
		},
		{
			"bufferView":7,
			"componentType":5123,
			"count":372,
			"type":"SCALAR"
		},
		{
			"bufferView":8,
			"componentType":5126,
			"count":130,
			"max":[
				0.6200000047683716,
				1.0699999332427979,
				-0.6200000047683716
			],
			"min":[
				0.5800000429153442,
				1.0299999713897705,
				-0.8400000333786011
			],
			"type":"VEC3"
		},
		{
			"bufferView":9,
			"componentType":5126,
			"count":130,
			"type":"VEC3"
		},
		{
			"bufferView":10,
			"componentType":5126,
			"count":130,
			"type":"VEC2"
		},
		{
			"bufferView":11,
			"componentType":5126,
			"count":130,
			"max":[
				0.02500000037252903,
				1.3050000667572021,
				0.9750000238418579
			],
			"min":[
				-0.02500000037252903,
				1.2549998760223389,
				-0.9750000238418579
			],
			"type":"VEC3"
		},
		{
			"bufferView":12,
			"componentType":5126,
			"count":130,
			"type":"VEC3"
		},
		{
			"bufferView":13,
			"componentType":5126,
			"count":130,
			"type":"VEC2"
		},
		{
			"bufferView":14,
			"componentType":5126,
			"count":216,
			"max":[
				1.9800000190734863,
				1.44133460521698,
				0.9516288042068481
			],
			"min":[
				-1.9800000190734863,
				1.2186654806137085,
				-0.29162874817848206
			],
			"type":"VEC3"
		},
		{
			"bufferView":15,
			"componentType":5126,
			"count":216,
			"type":"VEC3"
		},
		{
			"bufferView":16,
			"componentType":5126,
			"count":216,
			"type":"VEC2"
		},
		{
			"bufferView":17,
			"componentType":5123,
			"count":324,
			"type":"SCALAR"
		},
		{
			"bufferView":18,
			"componentType":5126,
			"count":216,
			"max":[
				1.9800000190734863,
				1.44133460521698,
				0.29162874817848206
			],
			"min":[
				-1.9800000190734863,
				1.2186654806137085,
				-0.9516288042068481
			],
			"type":"VEC3"
		},
		{
			"bufferView":19,
			"componentType":5126,
			"count":216,
			"type":"VEC3"
		},
		{
			"bufferView":20,
			"componentType":5126,
			"count":216,
			"type":"VEC2"
		},
		{
			"bufferView":21,
			"componentType":5123,
			"count":324,
			"type":"SCALAR"
		},
		{
			"bufferView":22,
			"componentType":5126,
			"count":216,
			"max":[
				-0.5799999833106995,
				1.75,
				0.6949999928474426
			],
			"min":[
				-0.7800000309944153,
				-0.25,
				0.6350000500679016
			],
			"type":"VEC3"
		},
		{
			"bufferView":23,
			"componentType":5126,
			"count":216,
			"type":"VEC3"
		},
		{
			"bufferView":24,
			"componentType":5126,
			"count":216,
			"type":"VEC2"
		},
		{
			"bufferView":25,
			"componentType":5123,
			"count":324,
			"type":"SCALAR"
		},
		{
			"bufferView":26,
			"componentType":5126,
			"count":216,
			"max":[
				-0.5799999833106995,
				1.75,
				-0.6350000500679016
			],
			"min":[
				-0.7800000309944153,
				-0.25,
				-0.6949999928474426
			],
			"type":"VEC3"
		},
		{
			"bufferView":27,
			"componentType":5126,
			"count":216,
			"type":"VEC3"
		},
		{
			"bufferView":28,
			"componentType":5126,
			"count":216,
			"type":"VEC2"
		},
		{
			"bufferView":29,
			"componentType":5126,
			"count":216,
			"max":[
				0.10000000149011612,
				1.75,
				0.6949999928474426
			],
			"min":[
				-0.10000000149011612,
				-0.25,
				0.6350000500679016
			],
			"type":"VEC3"
		},
		{
			"bufferView":30,
			"componentType":5126,
			"count":216,
			"type":"VEC3"
		},
		{
			"bufferView":31,
			"componentType":5126,
			"count":216,
			"type":"VEC2"
		},
		{
			"bufferView":32,
			"componentType":5126,
			"count":216,
			"max":[
				0.10000000149011612,
				1.75,
				-0.6350000500679016
			],
			"min":[
				-0.10000000149011612,
				-0.25,
				-0.6949999928474426
			],
			"type":"VEC3"
		},
		{
			"bufferView":33,
			"componentType":5126,
			"count":216,
			"type":"VEC3"
		},
		{
			"bufferView":34,
			"componentType":5126,
			"count":216,
			"type":"VEC2"
		},
		{
			"bufferView":35,
			"componentType":5126,
			"count":216,
			"max":[
				0.7800000309944153,
				1.75,
				0.6949999928474426
			],
			"min":[
				0.5799999833106995,
				-0.25,
				0.6350000500679016
			],
			"type":"VEC3"
		},
		{
			"bufferView":36,
			"componentType":5126,
			"count":216,
			"type":"VEC3"
		},
		{
			"bufferView":37,
			"componentType":5126,
			"count":216,
			"type":"VEC2"
		},
		{
			"bufferView":38,
			"componentType":5126,
			"count":216,
			"max":[
				0.7800000309944153,
				1.75,
				-0.6350000500679016
			],
			"min":[
				0.5799999833106995,
				-0.25,
				-0.6949999928474426
			],
			"type":"VEC3"
		},
		{
			"bufferView":39,
			"componentType":5126,
			"count":216,
			"type":"VEC3"
		},
		{
			"bufferView":40,
			"componentType":5126,
			"count":216,
			"type":"VEC2"
		},
		{
			"bufferView":41,
			"componentType":5126,
			"count":50,
			"max":[
				-0.6899999380111694,
				0.18000000715255737,
				0.47999998927116394
			],
			"min":[
				-0.8700000047683716,
				0,
				0.41999998688697815
			],
			"type":"VEC3"
		},
		{
			"bufferView":42,
			"componentType":5126,
			"count":50,
			"type":"VEC3"
		},
		{
			"bufferView":43,
			"componentType":5126,
			"count":50,
			"type":"VEC2"
		},
		{
			"bufferView":44,
			"componentType":5123,
			"count":132,
			"type":"SCALAR"
		},
		{
			"bufferView":45,
			"componentType":5126,
			"count":50,
			"max":[
				-0.6899999380111694,
				0.18000000715255737,
				-0.41999998688697815
			],
			"min":[
				-0.8700000047683716,
				0,
				-0.47999998927116394
			],
			"type":"VEC3"
		},
		{
			"bufferView":46,
			"componentType":5126,
			"count":50,
			"type":"VEC3"
		},
		{
			"bufferView":47,
			"componentType":5126,
			"count":50,
			"type":"VEC2"
		},
		{
			"bufferView":48,
			"componentType":5126,
			"count":50,
			"max":[
				0.8700000047683716,
				0.18000000715255737,
				0.47999998927116394
			],
			"min":[
				0.6899999380111694,
				0,
				0.41999998688697815
			],
			"type":"VEC3"
		},
		{
			"bufferView":49,
			"componentType":5126,
			"count":50,
			"type":"VEC3"
		},
		{
			"bufferView":50,
			"componentType":5126,
			"count":50,
			"type":"VEC2"
		},
		{
			"bufferView":51,
			"componentType":5126,
			"count":50,
			"max":[
				0.8700000047683716,
				0.18000000715255737,
				-0.41999998688697815
			],
			"min":[
				0.6899999380111694,
				0,
				-0.47999998927116394
			],
			"type":"VEC3"
		},
		{
			"bufferView":52,
			"componentType":5126,
			"count":50,
			"type":"VEC3"
		},
		{
			"bufferView":53,
			"componentType":5126,
			"count":50,
			"type":"VEC2"
		}
	],
	"bufferViews":[
		{
			"buffer":0,
			"byteLength":2592,
			"byteOffset":0,
			"target":34962
		},
		{
			"buffer":0,
			"byteLength":2592,
			"byteOffset":2592,
			"target":34962
		},
		{
			"buffer":0,
			"byteLength":1728,
			"byteOffset":5184,
			"target":34962
		},
		{
			"buffer":0,
			"byteLength":648,
			"byteOffset":6912,
			"target":34963
		},
		{
			"buffer":0,
			"byteLength":1560,
			"byteOffset":7560,
			"target":34962
		},
		{
			"buffer":0,
			"byteLength":1560,
			"byteOffset":9120,
			"target":34962
		},
		{
			"buffer":0,
			"byteLength":1040,
			"byteOffset":10680,
			"target":34962
		},
		{
			"buffer":0,
			"byteLength":744,
			"byteOffset":11720,
			"target":34963
		},
		{
			"buffer":0,
			"byteLength":1560,
			"byteOffset":12464,
			"target":34962
		},
		{
			"buffer":0,
			"byteLength":1560,
			"byteOffset":14024,
			"target":34962
		},
		{
			"buffer":0,
			"byteLength":1040,
			"byteOffset":15584,
			"target":34962
		},
		{
			"buffer":0,
			"byteLength":1560,
			"byteOffset":16624,
			"target":34962
		},
		{
			"buffer":0,
			"byteLength":1560,
			"byteOffset":18184,
			"target":34962
		},
		{
			"buffer":0,
			"byteLength":1040,
			"byteOffset":19744,
			"target":34962
		},
		{
			"buffer":0,
			"byteLength":2592,
			"byteOffset":20784,
			"target":34962
		},
		{
			"buffer":0,
			"byteLength":2592,
			"byteOffset":23376,
			"target":34962
		},
		{
			"buffer":0,
			"byteLength":1728,
			"byteOffset":25968,
			"target":34962
		},
		{
			"buffer":0,
			"byteLength":648,
			"byteOffset":27696,
			"target":34963
		},
		{
			"buffer":0,
			"byteLength":2592,
			"byteOffset":28344,
			"target":34962
		},
		{
			"buffer":0,
			"byteLength":2592,
			"byteOffset":30936,
			"target":34962
		},
		{
			"buffer":0,
			"byteLength":1728,
			"byteOffset":33528,
			"target":34962
		},
		{
			"buffer":0,
			"byteLength":648,
			"byteOffset":35256,
			"target":34963
		},
		{
			"buffer":0,
			"byteLength":2592,
			"byteOffset":35904,
			"target":34962
		},
		{
			"buffer":0,
			"byteLength":2592,
			"byteOffset":38496,
			"target":34962
		},
		{
			"buffer":0,
			"byteLength":1728,
			"byteOffset":41088,
			"target":34962
		},
		{
			"buffer":0,
			"byteLength":648,
			"byteOffset":42816,
			"target":34963
		},
		{
			"buffer":0,
			"byteLength":2592,
			"byteOffset":43464,
			"target":34962
		},
		{
			"buffer":0,
			"byteLength":2592,
			"byteOffset":46056,
			"target":34962
		},
		{
			"buffer":0,
			"byteLength":1728,
			"byteOffset":48648,
			"target":34962
		},
		{
			"buffer":0,
			"byteLength":2592,
			"byteOffset":50376,
			"target":34962
		},
		{
			"buffer":0,
			"byteLength":2592,
			"byteOffset":52968,
			"target":34962
		},
		{
			"buffer":0,
			"byteLength":1728,
			"byteOffset":55560,
			"target":34962
		},
		{
			"buffer":0,
			"byteLength":2592,
			"byteOffset":57288,
			"target":34962
		},
		{
			"buffer":0,
			"byteLength":2592,
			"byteOffset":59880,
			"target":34962
		},
		{
			"buffer":0,
			"byteLength":1728,
			"byteOffset":62472,
			"target":34962
		},
		{
			"buffer":0,
			"byteLength":2592,
			"byteOffset":64200,
			"target":34962
		},
		{
			"buffer":0,
			"byteLength":2592,
			"byteOffset":66792,
			"target":34962
		},
		{
			"buffer":0,
			"byteLength":1728,
			"byteOffset":69384,
			"target":34962
		},
		{
			"buffer":0,
			"byteLength":2592,
			"byteOffset":71112,
			"target":34962
		},
		{
			"buffer":0,
			"byteLength":2592,
			"byteOffset":73704,
			"target":34962
		},
		{
			"buffer":0,
			"byteLength":1728,
			"byteOffset":76296,
			"target":34962
		},
		{
			"buffer":0,
			"byteLength":600,
			"byteOffset":78024,
			"target":34962
		},
		{
			"buffer":0,
			"byteLength":600,
			"byteOffset":78624,
			"target":34962
		},
		{
			"buffer":0,
			"byteLength":400,
			"byteOffset":79224,
			"target":34962
		},
		{
			"buffer":0,
			"byteLength":264,
			"byteOffset":79624,
			"target":34963
		},
		{
			"buffer":0,
			"byteLength":600,
			"byteOffset":79888,
			"target":34962
		},
		{
			"buffer":0,
			"byteLength":600,
			"byteOffset":80488,
			"target":34962
		},
		{
			"buffer":0,
			"byteLength":400,
			"byteOffset":81088,
			"target":34962
		},
		{
			"buffer":0,
			"byteLength":600,
			"byteOffset":81488,
			"target":34962
		},
		{
			"buffer":0,
			"byteLength":600,
			"byteOffset":82088,
			"target":34962
		},
		{
			"buffer":0,
			"byteLength":400,
			"byteOffset":82688,
			"target":34962
		},
		{
			"buffer":0,
			"byteLength":600,
			"byteOffset":83088,
			"target":34962
		},
		{
			"buffer":0,
			"byteLength":600,
			"byteOffset":83688,
			"target":34962
		},
		{
			"buffer":0,
			"byteLength":400,
			"byteOffset":84288,
			"target":34962
		}
	],
	"buffers":[
		{
			"byteLength":84688,
			"uri":"bl_dumpster.bin"
		}
	]
}
