{
	"asset":{
		"generator":"Khronos glTF Blender I/O v5.2.40",
		"version":"2.0"
	},
	"scene":0,
	"scenes":[
		{
			"name":"Scene",
			"nodes":[
				0,
				1,
				2,
				3,
				4,
				5,
				6,
				7,
				8,
				9,
				10,
				11,
				12,
				13,
				14,
				15,
				16,
				17,
				18,
				19,
				20,
				21,
				22,
				23,
				24,
				25,
				26,
				27,
				28,
				29,
				30,
				31,
				32,
				33,
				34,
				35,
				36,
				37,
				38,
				39,
				40,
				41,
				42,
				43,
				44,
				45,
				46,
				47,
				48,
				49,
				50,
				51,
				52,
				53,
				54,
				55,
				56,
				57,
				58,
				59,
				60,
				61,
				62,
				63,
				64
			]
		}
	],
	"nodes":[
		{
			"mesh":0,
			"name":"ac"
		},
		{
			"mesh":1,
			"name":"base"
		},
		{
			"mesh":2,
			"name":"body"
		},
		{
			"mesh":3,
			"name":"cornice"
		},
		{
			"mesh":4,
			"name":"leg0"
		},
		{
			"mesh":5,
			"name":"leg1"
		},
		{
			"mesh":6,
			"name":"leg2"
		},
		{
			"mesh":7,
			"name":"leg3"
		},
		{
			"mesh":8,
			"name":"parapet"
		},
		{
			"mesh":9,
			"name":"sill0_0"
		},
		{
			"mesh":10,
			"name":"sill0_0.001"
		},
		{
			"mesh":11,
			"name":"sill0_1"
		},
		{
			"mesh":12,
			"name":"sill0_1.001"
		},
		{
			"mesh":13,
			"name":"sill0_2"
		},
		{
			"mesh":14,
			"name":"sill0_2.001"
		},
		{
			"mesh":15,
			"name":"sill1_0"
		},
		{
			"mesh":16,
			"name":"sill1_0.001"
		},
		{
			"mesh":17,
			"name":"sill1_1"
		},
		{
			"mesh":18,
			"name":"sill1_1.001"
		},
		{
			"mesh":19,
			"name":"sill1_2"
		},
		{
			"mesh":20,
			"name":"sill1_2.001"
		},
		{
			"mesh":21,
			"name":"sill2_0"
		},
		{
			"mesh":22,
			"name":"sill2_0.001"
		},
		{
			"mesh":23,
			"name":"sill2_1"
		},
		{
			"mesh":24,
			"name":"sill2_1.001"
		},
		{
			"mesh":25,
			"name":"sill2_2"
		},
		{
			"mesh":26,
			"name":"sill2_2.001"
		},
		{
			"mesh":27,
			"name":"sill3_0"
		},
		{
			"mesh":28,
			"name":"sill3_0.001"
		},
		{
			"mesh":29,
			"name":"sill3_1"
		},
		{
			"mesh":30,
			"name":"sill3_1.001"
		},
		{
			"mesh":31,
			"name":"sill3_2"
		},
		{
			"mesh":32,
			"name":"sill3_2.001"
		},
		{
			"mesh":33,
			"name":"tank"
		},
		{
			"mesh":34,
			"name":"tankTop"
		},
		{
			"mesh":35,
			"name":"win0_0"
		},
		{
			"mesh":36,
			"name":"win0_0.001"
		},
		{
			"mesh":37,
			"name":"win0_1"
		},
		{
			"mesh":38,
			"name":"win0_1.001"
		},
		{
			"mesh":39,
			"name":"win0_2"
		},
		{
			"mesh":40,
			"name":"win0_2.001"
		},
		{
			"mesh":41,
			"name":"win1_0"
		},
		{
			"mesh":42,
			"name":"win1_0.001"
		},
		{
			"mesh":43,
			"name":"win1_1"
		},
		{
			"mesh":44,
			"name":"win1_1.001"
		},
		{
			"mesh":45,
			"name":"win1_2"
		},
		{
			"mesh":46,
			"name":"win1_2.001"
		},
		{
			"mesh":47,
			"name":"win2_0"
		},
		{
			"mesh":48,
			"name":"win2_0.001"
		},
		{
			"mesh":49,
			"name":"win2_1"
		},
		{
			"mesh":50,
			"name":"win2_1.001"
		},
		{
			"mesh":51,
			"name":"win2_2"
		},
		{
			"mesh":52,
			"name":"win2_2.001"
		},
		{
			"mesh":53,
			"name":"win3_0"
		},
		{
			"mesh":54,
			"name":"win3_0.001"
		},
		{
			"mesh":55,
			"name":"win3_1"
		},
		{
			"mesh":56,
			"name":"win3_1.001"
		},
		{
			"mesh":57,
			"name":"win3_2"
		},
		{
			"mesh":58,
			"name":"win3_2.001"
		},
		{
			"mesh":59,
			"name":"wX0_0"
		},
		{
			"mesh":60,
			"name":"wX0_1"
		},
		{
			"mesh":61,
			"name":"wX1_0"
		},
		{
			"mesh":62,
			"name":"wX1_1"
		},
		{
			"mesh":63,
			"name":"wX2_0"
		},
		{
			"mesh":64,
			"name":"wX2_1"
		}
	],
	"materials":[
		{
			"doubleSided":true,
			"name":"M_ac",
			"pbrMetallicRoughness":{
				"baseColorFactor":[
					0.5924380421638489,
					0.5604991316795349,
					0.5054324865341187,
					1
				],
				"metallicFactor":0,
				"roughnessFactor":0.8500000238418579
			}
		},
		{
			"doubleSided":true,
			"name":"M_bbb",
			"pbrMetallicRoughness":{
				"baseColorFactor":[
					0.32972902059555054,
					0.06575387716293335,
					0.03561437129974365,
					1
				],
				"metallicFactor":0,
				"roughnessFactor":0.8500000238418579
			}
		},
		{
			"doubleSided":true,
			"name":"M_bb",
			"pbrMetallicRoughness":{
				"baseColorFactor":[
					0.47044023871421814,
					0.10363409668207169,
					0.054592277854681015,
					1
				],
				"metallicFactor":0,
				"roughnessFactor":0.8500000238418579
			}
		},
		{
			"doubleSided":true,
			"name":"M_bc",
			"pbrMetallicRoughness":{
				"baseColorFactor":[
					0.5924380421638489,
					0.5604991316795349,
					0.5054324865341187,
					1
				],
				"metallicFactor":0,
				"roughnessFactor":0.8500000238418579
			}
		},
		{
			"doubleSided":true,
			"name":"M_wl0",
			"pbrMetallicRoughness":{
				"baseColorFactor":[
					0.03423020616173744,
					0.05112205073237419,
					0.07382776588201523,
					1
				],
				"metallicFactor":0,
				"roughnessFactor":0.8500000238418579
			}
		},
		{
			"doubleSided":true,
			"name":"M_wl1",
			"pbrMetallicRoughness":{
				"baseColorFactor":[
					0.03423020616173744,
					0.05112205073237419,
					0.07382776588201523,
					1
				],
				"metallicFactor":0,
				"roughnessFactor":0.8500000238418579
			}
		},
		{
			"doubleSided":true,
			"name":"M_wl2",
			"pbrMetallicRoughness":{
				"baseColorFactor":[
					0.03423020616173744,
					0.05112205073237419,
					0.07382776588201523,
					1
				],
				"metallicFactor":0,
				"roughnessFactor":0.8500000238418579
			}
		},
		{
			"doubleSided":true,
			"name":"M_wl3",
			"pbrMetallicRoughness":{
				"baseColorFactor":[
					0.03423020616173744,
					0.05112205073237419,
					0.07382776588201523,
					1
				],
				"metallicFactor":0,
				"roughnessFactor":0.8500000238418579
			}
		},
		{
			"doubleSided":true,
			"name":"M_bp",
			"pbrMetallicRoughness":{
				"baseColorFactor":[
					0.32972902059555054,
					0.06575387716293335,
					0.03561437129974365,
					1
				],
				"metallicFactor":0,
				"roughnessFactor":0.8500000238418579
			}
		},
		{
			"doubleSided":true,
			"name":"M_sl0_0",
			"pbrMetallicRoughness":{
				"baseColorFactor":[
					0.5924380421638489,
					0.5604991316795349,
					0.5054324865341187,
					1
				],
				"metallicFactor":0,
				"roughnessFactor":0.8500000238418579
			}
		},
		{
			"doubleSided":true,
			"name":"M_sl0_1",
			"pbrMetallicRoughness":{
				"baseColorFactor":[
					0.5924380421638489,
					0.5604991316795349,
					0.5054324865341187,
					1
				],
				"metallicFactor":0,
				"roughnessFactor":0.8500000238418579
			}
		},
		{
			"doubleSided":true,
			"name":"M_sl0_2",
			"pbrMetallicRoughness":{
				"baseColorFactor":[
					0.5924380421638489,
					0.5604991316795349,
					0.5054324865341187,
					1
				],
				"metallicFactor":0,
				"roughnessFactor":0.8500000238418579
			}
		},
		{
			"doubleSided":true,
			"name":"M_sl1_0",
			"pbrMetallicRoughness":{
				"baseColorFactor":[
					0.5924380421638489,
					0.5604991316795349,
					0.5054324865341187,
					1
				],
				"metallicFactor":0,
				"roughnessFactor":0.8500000238418579
			}
		},
		{
			"doubleSided":true,
			"name":"M_sl1_1",
			"pbrMetallicRoughness":{
				"baseColorFactor":[
					0.5924380421638489,
					0.5604991316795349,
					0.5054324865341187,
					1
				],
				"metallicFactor":0,
				"roughnessFactor":0.8500000238418579
			}
		},
		{
			"doubleSided":true,
			"name":"M_sl1_2",
			"pbrMetallicRoughness":{
				"baseColorFactor":[
					0.5924380421638489,
					0.5604991316795349,
					0.5054324865341187,
					1
				],
				"metallicFactor":0,
				"roughnessFactor":0.8500000238418579
			}
		},
		{
			"doubleSided":true,
			"name":"M_sl2_0",
			"pbrMetallicRoughness":{
				"baseColorFactor":[
					0.5924380421638489,
					0.5604991316795349,
					0.5054324865341187,
					1
				],
				"metallicFactor":0,
				"roughnessFactor":0.8500000238418579
			}
		},
		{
			"doubleSided":true,
			"name":"M_sl2_1",
			"pbrMetallicRoughness":{
				"baseColorFactor":[
					0.5924380421638489,
					0.5604991316795349,
					0.5054324865341187,
					1
				],
				"metallicFactor":0,
				"roughnessFactor":0.8500000238418579
			}
		},
		{
			"doubleSided":true,
			"name":"M_sl2_2",
			"pbrMetallicRoughness":{
				"baseColorFactor":[
					0.5924380421638489,
					0.5604991316795349,
					0.5054324865341187,
					1
				],
				"metallicFactor":0,
				"roughnessFactor":0.8500000238418579
			}
		},
		{
			"doubleSided":true,
			"name":"M_sl3_0",
			"pbrMetallicRoughness":{
				"baseColorFactor":[
					0.5924380421638489,
					0.5604991316795349,
					0.5054324865341187,
					1
				],
				"metallicFactor":0,
				"roughnessFactor":0.8500000238418579
			}
		},
		{
			"doubleSided":true,
			"name":"M_sl3_1",
			"pbrMetallicRoughness":{
				"baseColorFactor":[
					0.5924380421638489,
					0.5604991316795349,
					0.5054324865341187,
					1
				],
				"metallicFactor":0,
				"roughnessFactor":0.8500000238418579
			}
		},
		{
			"doubleSided":true,
			"name":"M_sl3_2",
			"pbrMetallicRoughness":{
				"baseColorFactor":[
					0.5924380421638489,
					0.5604991316795349,
					0.5054324865341187,
					1
				],
				"metallicFactor":0,
				"roughnessFactor":0.8500000238418579
			}
		},
		{
			"doubleSided":true,
			"name":"M_wt",
			"pbrMetallicRoughness":{
				"baseColorFactor":[
					0.2590273320674896,
					0.10114516317844391,
					0.02775527909398079,
					1
				],
				"metallicFactor":0,
				"roughnessFactor":0.8500000238418579
			}
		},
		{
			"doubleSided":true,
			"name":"M_wtt",
			"pbrMetallicRoughness":{
				"baseColorFactor":[
					0.11129941791296005,
					0.041451890021562576,
					0.011881334707140923,
					1
				],
				"metallicFactor":0,
				"roughnessFactor":0.8500000238418579
			}
		},
		{
			"doubleSided":true,
			"name":"M_wg0_0",
			"pbrMetallicRoughness":{
				"baseColorFactor":[
					0.01606770046055317,
					0.04943345859646797,
					0.0915183499455452,
					1
				],
				"metallicFactor":0,
				"roughnessFactor":0.8500000238418579
			}
		},
		{
			"doubleSided":true,
			"name":"M_wg0_1",
			"pbrMetallicRoughness":{
				"baseColorFactor":[
					0.01606770046055317,
					0.04943345859646797,
					0.0915183499455452,
					1
				],
				"metallicFactor":0,
				"roughnessFactor":0.8500000238418579
			}
		},
		{
			"doubleSided":true,
			"emissiveFactor":[
				0.800000011920929,
				0.6559709646697485,
				0.31943464755169515
			],
			"name":"M_wg0_2",
			"pbrMetallicRoughness":{
				"baseColorFactor":[
					1,
					0.8199636936187744,
					0.39929330348968506,
					1
				],
				"metallicFactor":0,
				"roughnessFactor":0.8500000238418579
			}
		},
		{
			"doubleSided":true,
			"emissiveFactor":[
				0.800000011920929,
				0.6559709646697485,
				0.31943464755169515
			],
			"name":"M_wg1_0",
			"pbrMetallicRoughness":{
				"baseColorFactor":[
					1,
					0.8199636936187744,
					0.39929330348968506,
					1
				],
				"metallicFactor":0,
				"roughnessFactor":0.8500000238418579
			}
		},
		{
			"doubleSided":true,
			"name":"M_wg1_1",
			"pbrMetallicRoughness":{
				"baseColorFactor":[
					0.01606770046055317,
					0.04943345859646797,
					0.0915183499455452,
					1
				],
				"metallicFactor":0,
				"roughnessFactor":0.8500000238418579
			}
		},
		{
			"doubleSided":true,
			"name":"M_wg1_2",
			"pbrMetallicRoughness":{
				"baseColorFactor":[
					0.01606770046055317,
					0.04943345859646797,
					0.0915183499455452,
					1
				],
				"metallicFactor":0,
				"roughnessFactor":0.8500000238418579
			}
		},
		{
			"doubleSided":true,
			"name":"M_wg2_0",
			"pbrMetallicRoughness":{
				"baseColorFactor":[
					0.01606770046055317,
					0.04943345859646797,
					0.0915183499455452,
					1
				],
				"metallicFactor":0,
				"roughnessFactor":0.8500000238418579
			}
		},
		{
			"doubleSided":true,
			"name":"M_wg2_1",
			"pbrMetallicRoughness":{
				"baseColorFactor":[
					0.01606770046055317,
					0.04943345859646797,
					0.0915183499455452,
					1
				],
				"metallicFactor":0,
				"roughnessFactor":0.8500000238418579
			}
		},
		{
			"doubleSided":true,
			"name":"M_wg2_2",
			"pbrMetallicRoughness":{
				"baseColorFactor":[
					0.01606770046055317,
					0.04943345859646797,
					0.0915183499455452,
					1
				],
				"metallicFactor":0,
				"roughnessFactor":0.8500000238418579
			}
		},
		{
			"doubleSided":true,
			"name":"M_wg3_0",
			"pbrMetallicRoughness":{
				"baseColorFactor":[
					0.01606770046055317,
					0.04943345859646797,
					0.0915183499455452,
					1
				],
				"metallicFactor":0,
				"roughnessFactor":0.8500000238418579
			}
		},
		{
			"doubleSided":true,
			"name":"M_wg3_1",
			"pbrMetallicRoughness":{
				"baseColorFactor":[
					0.01606770046055317,
					0.04943345859646797,
					0.0915183499455452,
					1
				],
				"metallicFactor":0,
				"roughnessFactor":0.8500000238418579
			}
		},
		{
			"doubleSided":true,
			"emissiveFactor":[
				0.800000011920929,
				0.6559709646697485,
				0.31943464755169515
			],
			"name":"M_wg3_2",
			"pbrMetallicRoughness":{
				"baseColorFactor":[
					1,
					0.8199636936187744,
					0.39929330348968506,
					1
				],
				"metallicFactor":0,
				"roughnessFactor":0.8500000238418579
			}
		},
		{
			"doubleSided":true,
			"name":"M_wx0_0",
			"pbrMetallicRoughness":{
				"baseColorFactor":[
					0.01606770046055317,
					0.04943345859646797,
					0.0915183499455452,
					1
				],
				"metallicFactor":0,
				"roughnessFactor":0.8500000238418579
			}
		},
		{
			"doubleSided":true,
			"name":"M_wx0_1",
			"pbrMetallicRoughness":{
				"baseColorFactor":[
					0.01606770046055317,
					0.04943345859646797,
					0.0915183499455452,
					1
				],
				"metallicFactor":0,
				"roughnessFactor":0.8500000238418579
			}
		},
		{
			"doubleSided":true,
			"name":"M_wx1_0",
			"pbrMetallicRoughness":{
				"baseColorFactor":[
					0.01606770046055317,
					0.04943345859646797,
					0.0915183499455452,
					1
				],
				"metallicFactor":0,
				"roughnessFactor":0.8500000238418579
			}
		},
		{
			"doubleSided":true,
			"name":"M_wx1_1",
			"pbrMetallicRoughness":{
				"baseColorFactor":[
					0.01606770046055317,
					0.04943345859646797,
					0.0915183499455452,
					1
				],
				"metallicFactor":0,
				"roughnessFactor":0.8500000238418579
			}
		},
		{
			"doubleSided":true,
			"name":"M_wx2_0",
			"pbrMetallicRoughness":{
				"baseColorFactor":[
					0.01606770046055317,
					0.04943345859646797,
					0.0915183499455452,
					1
				],
				"metallicFactor":0,
				"roughnessFactor":0.8500000238418579
			}
		},
		{
			"doubleSided":true,
			"name":"M_wx2_1",
			"pbrMetallicRoughness":{
				"baseColorFactor":[
					0.01606770046055317,
					0.04943345859646797,
					0.0915183499455452,
					1
				],
				"metallicFactor":0,
				"roughnessFactor":0.8500000238418579
			}
		}
	],
	"meshes":[
		{
			"name":"Cube.062",
			"primitives":[
				{
					"attributes":{
						"POSITION":0,
						"NORMAL":1,
						"TEXCOORD_0":2
					},
					"indices":3,
					"material":0
				}
			]
		},
		{
			"name":"Cube.001",
			"primitives":[
				{
					"attributes":{
						"POSITION":4,
						"NORMAL":5,
						"TEXCOORD_0":6
					},
					"indices":3,
					"material":1
				}
			]
		},
		{
			"name":"Cube",
			"primitives":[
				{
					"attributes":{
						"POSITION":7,
						"NORMAL":8,
						"TEXCOORD_0":9
					},
					"indices":10,
					"material":2
				}
			]
		},
		{
			"name":"Cube.056",
			"primitives":[
				{
					"attributes":{
						"POSITION":11,
						"NORMAL":12,
						"TEXCOORD_0":13
					},
					"indices":3,
					"material":3
				}
			]
		},
		{
			"name":"Cube.058",
			"primitives":[
				{
					"attributes":{
						"POSITION":14,
						"NORMAL":15,
						"TEXCOORD_0":16
					},
					"indices":3,
					"material":4
				}
			]
		},
		{
			"name":"Cube.059",
			"primitives":[
				{
					"attributes":{
						"POSITION":17,
						"NORMAL":18,
						"TEXCOORD_0":19
					},
					"indices":3,
					"material":5
				}
			]
		},
		{
			"name":"Cube.060",
			"primitives":[
				{
					"attributes":{
						"POSITION":20,
						"NORMAL":21,
						"TEXCOORD_0":22
					},
					"indices":3,
					"material":6
				}
			]
		},
		{
			"name":"Cube.061",
			"primitives":[
				{
					"attributes":{
						"POSITION":23,
						"NORMAL":24,
						"TEXCOORD_0":25
					},
					"indices":3,
					"material":7
				}
			]
		},
		{
			"name":"Cube.057",
			"primitives":[
				{
					"attributes":{
						"POSITION":26,
						"NORMAL":27,
						"TEXCOORD_0":28
					},
					"indices":3,
					"material":8
				}
			]
		},
		{
			"name":"Cube.003",
			"primitives":[
				{
					"attributes":{
						"POSITION":29,
						"NORMAL":30,
						"TEXCOORD_0":31
					},
					"indices":3,
					"material":9
				}
			]
		},
		{
			"name":"Cube.027",
			"primitives":[
				{
					"attributes":{
						"POSITION":32,
						"NORMAL":33,
						"TEXCOORD_0":34
					},
					"indices":3,
					"material":9
				}
			]
		},
		{
			"name":"Cube.005",
			"primitives":[
				{
					"attributes":{
						"POSITION":35,
						"NORMAL":36,
						"TEXCOORD_0":37
					},
					"indices":3,
					"material":10
				}
			]
		},
		{
			"name":"Cube.029",
			"primitives":[
				{
					"attributes":{
						"POSITION":38,
						"NORMAL":39,
						"TEXCOORD_0":40
					},
					"indices":3,
					"material":10
				}
			]
		},
		{
			"name":"Cube.007",
			"primitives":[
				{
					"attributes":{
						"POSITION":41,
						"NORMAL":42,
						"TEXCOORD_0":43
					},
					"indices":3,
					"material":11
				}
			]
		},
		{
			"name":"Cube.031",
			"primitives":[
				{
					"attributes":{
						"POSITION":44,
						"NORMAL":45,
						"TEXCOORD_0":46
					},
					"indices":3,
					"material":11
				}
			]
		},
		{
			"name":"Cube.009",
			"primitives":[
				{
					"attributes":{
						"POSITION":47,
						"NORMAL":48,
						"TEXCOORD_0":49
					},
					"indices":3,
					"material":12
				}
			]
		},
		{
			"name":"Cube.033",
			"primitives":[
				{
					"attributes":{
						"POSITION":50,
						"NORMAL":51,
						"TEXCOORD_0":52
					},
					"indices":3,
					"material":12
				}
			]
		},
		{
			"name":"Cube.011",
			"primitives":[
				{
					"attributes":{
						"POSITION":53,
						"NORMAL":54,
						"TEXCOORD_0":55
					},
					"indices":3,
					"material":13
				}
			]
		},
		{
			"name":"Cube.035",
			"primitives":[
				{
					"attributes":{
						"POSITION":56,
						"NORMAL":57,
						"TEXCOORD_0":58
					},
					"indices":3,
					"material":13
				}
			]
		},
		{
			"name":"Cube.013",
			"primitives":[
				{
					"attributes":{
						"POSITION":59,
						"NORMAL":60,
						"TEXCOORD_0":61
					},
					"indices":3,
					"material":14
				}
			]
		},
		{
			"name":"Cube.037",
			"primitives":[
				{
					"attributes":{
						"POSITION":62,
						"NORMAL":63,
						"TEXCOORD_0":64
					},
					"indices":3,
					"material":14
				}
			]
		},
		{
			"name":"Cube.015",
			"primitives":[
				{
					"attributes":{
						"POSITION":65,
						"NORMAL":66,
						"TEXCOORD_0":67
					},
					"indices":3,
					"material":15
				}
			]
		},
		{
			"name":"Cube.039",
			"primitives":[
				{
					"attributes":{
						"POSITION":68,
						"NORMAL":69,
						"TEXCOORD_0":70
					},
					"indices":3,
					"material":15
				}
			]
		},
		{
			"name":"Cube.017",
			"primitives":[
				{
					"attributes":{
						"POSITION":71,
						"NORMAL":72,
						"TEXCOORD_0":73
					},
					"indices":3,
					"material":16
				}
			]
		},
		{
			"name":"Cube.041",
			"primitives":[
				{
					"attributes":{
						"POSITION":74,
						"NORMAL":75,
						"TEXCOORD_0":76
					},
					"indices":3,
					"material":16
				}
			]
		},
		{
			"name":"Cube.019",
			"primitives":[
				{
					"attributes":{
						"POSITION":77,
						"NORMAL":78,
						"TEXCOORD_0":79
					},
					"indices":3,
					"material":17
				}
			]
		},
		{
			"name":"Cube.043",
			"primitives":[
				{
					"attributes":{
						"POSITION":80,
						"NORMAL":81,
						"TEXCOORD_0":82
					},
					"indices":3,
					"material":17
				}
			]
		},
		{
			"name":"Cube.021",
			"primitives":[
				{
					"attributes":{
						"POSITION":83,
						"NORMAL":84,
						"TEXCOORD_0":85
					},
					"indices":3,
					"material":18
				}
			]
		},
		{
			"name":"Cube.045",
			"primitives":[
				{
					"attributes":{
						"POSITION":86,
						"NORMAL":87,
						"TEXCOORD_0":88
					},
					"indices":3,
					"material":18
				}
			]
		},
		{
			"name":"Cube.023",
			"primitives":[
				{
					"attributes":{
						"POSITION":89,
						"NORMAL":90,
						"TEXCOORD_0":91
					},
					"indices":3,
					"material":19
				}
			]
		},
		{
			"name":"Cube.047",
			"primitives":[
				{
					"attributes":{
						"POSITION":92,
						"NORMAL":93,
						"TEXCOORD_0":94
					},
					"indices":3,
					"material":19
				}
			]
		},
		{
			"name":"Cube.025",
			"primitives":[
				{
					"attributes":{
						"POSITION":95,
						"NORMAL":96,
						"TEXCOORD_0":97
					},
					"indices":3,
					"material":20
				}
			]
		},
		{
			"name":"Cube.049",
			"primitives":[
				{
					"attributes":{
						"POSITION":98,
						"NORMAL":99,
						"TEXCOORD_0":100
					},
					"indices":3,
					"material":20
				}
			]
		},
		{
			"name":"Cylinder",
			"primitives":[
				{
					"attributes":{
						"POSITION":101,
						"NORMAL":102,
						"TEXCOORD_0":103
					},
					"indices":104,
					"material":21
				}
			]
		},
		{
			"name":"Cone",
			"primitives":[
				{
					"attributes":{
						"POSITION":105,
						"NORMAL":106,
						"TEXCOORD_0":107
					},
					"indices":104,
					"material":22
				}
			]
		},
		{
			"name":"Cube.002",
			"primitives":[
				{
					"attributes":{
						"POSITION":108,
						"NORMAL":109,
						"TEXCOORD_0":110
					},
					"indices":3,
					"material":23
				}
			]
		},
		{
			"name":"Cube.026",
			"primitives":[
				{
					"attributes":{
						"POSITION":111,
						"NORMAL":112,
						"TEXCOORD_0":113
					},
					"indices":3,
					"material":23
				}
			]
		},
		{
			"name":"Cube.004",
			"primitives":[
				{
					"attributes":{
						"POSITION":114,
						"NORMAL":115,
						"TEXCOORD_0":116
					},
					"indices":3,
					"material":24
				}
			]
		},
		{
			"name":"Cube.028",
			"primitives":[
				{
					"attributes":{
						"POSITION":117,
						"NORMAL":118,
						"TEXCOORD_0":119
					},
					"indices":3,
					"material":24
				}
			]
		},
		{
			"name":"Cube.006",
			"primitives":[
				{
					"attributes":{
						"POSITION":120,
						"NORMAL":121,
						"TEXCOORD_0":122
					},
					"indices":3,
					"material":25
				}
			]
		},
		{
			"name":"Cube.030",
			"primitives":[
				{
					"attributes":{
						"POSITION":123,
						"NORMAL":124,
						"TEXCOORD_0":125
					},
					"indices":3,
					"material":25
				}
			]
		},
		{
			"name":"Cube.008",
			"primitives":[
				{
					"attributes":{
						"POSITION":126,
						"NORMAL":127,
						"TEXCOORD_0":128
					},
					"indices":3,
					"material":26
				}
			]
		},
		{
			"name":"Cube.032",
			"primitives":[
				{
					"attributes":{
						"POSITION":129,
						"NORMAL":130,
						"TEXCOORD_0":131
					},
					"indices":3,
					"material":26
				}
			]
		},
		{
			"name":"Cube.010",
			"primitives":[
				{
					"attributes":{
						"POSITION":132,
						"NORMAL":133,
						"TEXCOORD_0":134
					},
					"indices":3,
					"material":27
				}
			]
		},
		{
			"name":"Cube.034",
			"primitives":[
				{
					"attributes":{
						"POSITION":135,
						"NORMAL":136,
						"TEXCOORD_0":137
					},
					"indices":3,
					"material":27
				}
			]
		},
		{
			"name":"Cube.012",
			"primitives":[
				{
					"attributes":{
						"POSITION":138,
						"NORMAL":139,
						"TEXCOORD_0":140
					},
					"indices":3,
					"material":28
				}
			]
		},
		{
			"name":"Cube.036",
			"primitives":[
				{
					"attributes":{
						"POSITION":141,
						"NORMAL":142,
						"TEXCOORD_0":143
					},
					"indices":3,
					"material":28
				}
			]
		},
		{
			"name":"Cube.014",
			"primitives":[
				{
					"attributes":{
						"POSITION":144,
						"NORMAL":145,
						"TEXCOORD_0":146
					},
					"indices":3,
					"material":29
				}
			]
		},
		{
			"name":"Cube.038",
			"primitives":[
				{
					"attributes":{
						"POSITION":147,
						"NORMAL":148,
						"TEXCOORD_0":149
					},
					"indices":3,
					"material":29
				}
			]
		},
		{
			"name":"Cube.016",
			"primitives":[
				{
					"attributes":{
						"POSITION":150,
						"NORMAL":151,
						"TEXCOORD_0":152
					},
					"indices":3,
					"material":30
				}
			]
		},
		{
			"name":"Cube.040",
			"primitives":[
				{
					"attributes":{
						"POSITION":153,
						"NORMAL":154,
						"TEXCOORD_0":155
					},
					"indices":3,
					"material":30
				}
			]
		},
		{
			"name":"Cube.018",
			"primitives":[
				{
					"attributes":{
						"POSITION":156,
						"NORMAL":157,
						"TEXCOORD_0":158
					},
					"indices":3,
					"material":31
				}
			]
		},
		{
			"name":"Cube.042",
			"primitives":[
				{
					"attributes":{
						"POSITION":159,
						"NORMAL":160,
						"TEXCOORD_0":161
					},
					"indices":3,
					"material":31
				}
			]
		},
		{
			"name":"Cube.020",
			"primitives":[
				{
					"attributes":{
						"POSITION":162,
						"NORMAL":163,
						"TEXCOORD_0":164
					},
					"indices":3,
					"material":32
				}
			]
		},
		{
			"name":"Cube.044",
			"primitives":[
				{
					"attributes":{
						"POSITION":165,
						"NORMAL":166,
						"TEXCOORD_0":167
					},
					"indices":3,
					"material":32
				}
			]
		},
		{
			"name":"Cube.022",
			"primitives":[
				{
					"attributes":{
						"POSITION":168,
						"NORMAL":169,
						"TEXCOORD_0":170
					},
					"indices":3,
					"material":33
				}
			]
		},
		{
			"name":"Cube.046",
			"primitives":[
				{
					"attributes":{
						"POSITION":171,
						"NORMAL":172,
						"TEXCOORD_0":173
					},
					"indices":3,
					"material":33
				}
			]
		},
		{
			"name":"Cube.024",
			"primitives":[
				{
					"attributes":{
						"POSITION":174,
						"NORMAL":175,
						"TEXCOORD_0":176
					},
					"indices":3,
					"material":34
				}
			]
		},
		{
			"name":"Cube.048",
			"primitives":[
				{
					"attributes":{
						"POSITION":177,
						"NORMAL":178,
						"TEXCOORD_0":179
					},
					"indices":3,
					"material":34
				}
			]
		},
		{
			"name":"Cube.050",
			"primitives":[
				{
					"attributes":{
						"POSITION":180,
						"NORMAL":181,
						"TEXCOORD_0":182
					},
					"indices":3,
					"material":35
				}
			]
		},
		{
			"name":"Cube.051",
			"primitives":[
				{
					"attributes":{
						"POSITION":183,
						"NORMAL":184,
						"TEXCOORD_0":185
					},
					"indices":3,
					"material":36
				}
			]
		},
		{
			"name":"Cube.052",
			"primitives":[
				{
					"attributes":{
						"POSITION":186,
						"NORMAL":187,
						"TEXCOORD_0":188
					},
					"indices":3,
					"material":37
				}
			]
		},
		{
			"name":"Cube.053",
			"primitives":[
				{
					"attributes":{
						"POSITION":189,
						"NORMAL":190,
						"TEXCOORD_0":191
					},
					"indices":3,
					"material":38
				}
			]
		},
		{
			"name":"Cube.054",
			"primitives":[
				{
					"attributes":{
						"POSITION":192,
						"NORMAL":193,
						"TEXCOORD_0":194
					},
					"indices":3,
					"material":39
				}
			]
		},
		{
			"name":"Cube.055",
			"primitives":[
				{
					"attributes":{
						"POSITION":195,
						"NORMAL":196,
						"TEXCOORD_0":197
					},
					"indices":3,
					"material":40
				}
			]
		}
	],
	"accessors":[
		{
			"bufferView":0,
			"componentType":5126,
			"count":24,
			"max":[
				1.687999963760376,
				8.470000267028809,
				1.5880000591278076
			],
			"min":[
				0.8880000114440918,
				8.029999732971191,
				0.9879999756813049
			],
			"type":"VEC3"
		},
		{
			"bufferView":1,
			"componentType":5126,
			"count":24,
			"type":"VEC3"
		},
		{
			"bufferView":2,
			"componentType":5126,
			"count":24,
			"type":"VEC2"
		},
		{
			"bufferView":3,
			"componentType":5123,
			"count":36,
			"type":"SCALAR"
		},
		{
			"bufferView":4,
			"componentType":5126,
			"count":24,
			"max":[
				2.380000114440918,
				0.699999988079071,
				2.380000114440918
			],
			"min":[
				-2.380000114440918,
				0,
				-2.380000114440918
			],
			"type":"VEC3"
		},
		{
			"bufferView":5,
			"componentType":5126,
			"count":24,
			"type":"VEC3"
		},
		{
			"bufferView":6,
			"componentType":5126,
			"count":24,
			"type":"VEC2"
		},
		{
			"bufferView":7,
			"componentType":5126,
			"count":96,
			"max":[
				2.299999952316284,
				8,
				2.299999952316284
			],
			"min":[
				-2.299999952316284,
				0,
				-2.299999952316284
			],
			"type":"VEC3"
		},
		{
			"bufferView":8,
			"componentType":5126,
			"count":96,
			"type":"VEC3"
		},
		{
			"bufferView":9,
			"componentType":5126,
			"count":96,
			"type":"VEC2"
		},
		{
			"bufferView":10,
			"componentType":5123,
			"count":132,
			"type":"SCALAR"
		},
		{
			"bufferView":11,
			"componentType":5126,
			"count":24,
			"max":[
				2.440000057220459,
				7.989999771118164,
				2.440000057220459
			],
			"min":[
				-2.440000057220459,
				7.710000038146973,
				-2.440000057220459
			],
			"type":"VEC3"
		},
		{
			"bufferView":12,
			"componentType":5126,
			"count":24,
			"type":"VEC3"
		},
		{
			"bufferView":13,
			"componentType":5126,
			"count":24,
			"type":"VEC2"
		},
		{
			"bufferView":14,
			"componentType":5126,
			"count":24,
			"max":[
				-0.4350000023841858,
				9,
				0.5550000071525574
			],
			"min":[
				-0.5550000071525574,
				8,
				0.4350000023841858
			],
			"type":"VEC3"
		},
		{
			"bufferView":15,
			"componentType":5126,
			"count":24,
			"type":"VEC3"
		},
		{
			"bufferView":16,
			"componentType":5126,
			"count":24,
			"type":"VEC2"
		},
		{
			"bufferView":17,
			"componentType":5126,
			"count":24,
			"max":[
				0.5550000071525574,
				9,
				0.5550000071525574
			],
			"min":[
				0.4350000023841858,
				8,
				0.4350000023841858
			],
			"type":"VEC3"
		},
		{
			"bufferView":18,
			"componentType":5126,
			"count":24,
			"type":"VEC3"
		},
		{
			"bufferView":19,
			"componentType":5126,
			"count":24,
			"type":"VEC2"
		},
		{
			"bufferView":20,
			"componentType":5126,
			"count":24,
			"max":[
				-0.4350000023841858,
				9,
				-0.4350000023841858
			],
			"min":[
				-0.5550000071525574,
				8,
				-0.5550000071525574
			],
			"type":"VEC3"
		},
		{
			"bufferView":21,
			"componentType":5126,
			"count":24,
			"type":"VEC3"
		},
		{
			"bufferView":22,
			"componentType":5126,
			"count":24,
			"type":"VEC2"
		},
		{
			"bufferView":23,
			"componentType":5126,
			"count":24,
			"max":[
				0.5550000071525574,
				9,
				-0.4350000023841858
			],
			"min":[
				0.4350000023841858,
				8,
				-0.5550000071525574
			],
			"type":"VEC3"
		},
		{
			"bufferView":24,
			"componentType":5126,
			"count":24,
			"type":"VEC3"
		},
		{
			"bufferView":25,
			"componentType":5126,
			"count":24,
			"type":"VEC2"
		},
		{
			"bufferView":26,
			"componentType":5126,
			"count":24,
			"max":[
				2.25,
				8.239999771118164,
				2.25
			],
			"min":[
				-2.25,
				8,
				-2.25
			],
			"type":"VEC3"
		},
		{
			"bufferView":27,
			"componentType":5126,
			"count":24,
			"type":"VEC3"
		},
		{
			"bufferView":28,
			"componentType":5126,
			"count":24,
			"type":"VEC2"
		},
		{
			"bufferView":29,
			"componentType":5126,
			"count":24,
			"max":[
				-1.2850667238235474,
				1.0010000467300415,
				2.3899998664855957
			],
			"min":[
				-2.168266773223877,
				0.9510000348091125,
				2.2699999809265137
			],
			"type":"VEC3"
		},
		{
			"bufferView":30,
			"componentType":5126,
			"count":24,
			"type":"VEC3"
		},
		{
			"bufferView":31,
			"componentType":5126,
			"count":24,
			"type":"VEC2"
		},
		{
			"bufferView":32,
			"componentType":5126,
			"count":24,
			"max":[
				-1.2850667238235474,
				1.0010000467300415,
				-2.25
			],
			"min":[
				-2.168266773223877,
				0.9510000348091125,
				-2.369999885559082
			],
			"type":"VEC3"
		},
		{
			"bufferView":33,
			"componentType":5126,
			"count":24,
			"type":"VEC3"
		},
		{
			"bufferView":34,
			"componentType":5126,
			"count":24,
			"type":"VEC2"
		},
		{
			"bufferView":35,
			"componentType":5126,
			"count":24,
			"max":[
				-0.05840000510215759,
				1.0010000467300415,
				2.3899998664855957
			],
			"min":[
				-0.94159996509552,
				0.9510000348091125,
				2.2699999809265137
			],
			"type":"VEC3"
		},
		{
			"bufferView":36,
			"componentType":5126,
			"count":24,
			"type":"VEC3"
		},
		{
			"bufferView":37,
			"componentType":5126,
			"count":24,
			"type":"VEC2"
		},
		{
			"bufferView":38,
			"componentType":5126,
			"count":24,
			"max":[
				-0.05840000510215759,
				1.0010000467300415,
				-2.25
			],
			"min":[
				-0.94159996509552,
				0.9510000348091125,
				-2.369999885559082
			],
			"type":"VEC3"
		},
		{
			"bufferView":39,
			"componentType":5126,
			"count":24,
			"type":"VEC3"
		},
		{
			"bufferView":40,
			"componentType":5126,
			"count":24,
			"type":"VEC2"
		},
		{
			"bufferView":41,
			"componentType":5126,
			"count":24,
			"max":[
				1.1682666540145874,
				1.0010000467300415,
				2.3899998664855957
			],
			"min":[
				0.285066694021225,
				0.9510000348091125,
				2.2699999809265137
			],
			"type":"VEC3"
		},
		{
			"bufferView":42,
			"componentType":5126,
			"count":24,
			"type":"VEC3"
		},
		{
			"bufferView":43,
			"componentType":5126,
			"count":24,
			"type":"VEC2"
		},
		{
			"bufferView":44,
			"componentType":5126,
			"count":24,
			"max":[
				1.1682666540145874,
				1.0010000467300415,
				-2.25
			],
			"min":[
				0.285066694021225,
				0.9510000348091125,
				-2.369999885559082
			],
			"type":"VEC3"
		},
		{
			"bufferView":45,
			"componentType":5126,
			"count":24,
			"type":"VEC3"
		},
		{
			"bufferView":46,
			"componentType":5126,
			"count":24,
			"type":"VEC2"
		},
		{
			"bufferView":47,
			"componentType":5126,
			"count":24,
			"max":[
				-1.2850667238235474,
				2.6010000705718994,
				2.3899998664855957
			],
			"min":[
				-2.168266773223877,
				2.550999879837036,
				2.2699999809265137
			],
			"type":"VEC3"
		},
		{
			"bufferView":48,
			"componentType":5126,
			"count":24,
			"type":"VEC3"
		},
		{
			"bufferView":49,
			"componentType":5126,
			"count":24,
			"type":"VEC2"
		},
		{
			"bufferView":50,
			"componentType":5126,
			"count":24,
			"max":[
				-1.2850667238235474,
				2.6010000705718994,
				-2.25
			],
			"min":[
				-2.168266773223877,
				2.550999879837036,
				-2.369999885559082
			],
			"type":"VEC3"
		},
		{
			"bufferView":51,
			"componentType":5126,
			"count":24,
			"type":"VEC3"
		},
		{
			"bufferView":52,
			"componentType":5126,
			"count":24,
			"type":"VEC2"
		},
		{
			"bufferView":53,
			"componentType":5126,
			"count":24,
			"max":[
				-0.05840000510215759,
				2.6010000705718994,
				2.3899998664855957
			],
			"min":[
				-0.94159996509552,
				2.550999879837036,
				2.2699999809265137
			],
			"type":"VEC3"
		},
		{
			"bufferView":54,
			"componentType":5126,
			"count":24,
			"type":"VEC3"
		},
		{
			"bufferView":55,
			"componentType":5126,
			"count":24,
			"type":"VEC2"
		},
		{
			"bufferView":56,
			"componentType":5126,
			"count":24,
			"max":[
				-0.05840000510215759,
				2.6010000705718994,
				-2.25
			],
			"min":[
				-0.94159996509552,
				2.550999879837036,
				-2.369999885559082
			],
			"type":"VEC3"
		},
		{
			"bufferView":57,
			"componentType":5126,
			"count":24,
			"type":"VEC3"
		},
		{
			"bufferView":58,
			"componentType":5126,
			"count":24,
			"type":"VEC2"
		},
		{
			"bufferView":59,
			"componentType":5126,
			"count":24,
			"max":[
				1.1682666540145874,
				2.6010000705718994,
				2.3899998664855957
			],
			"min":[
				0.285066694021225,
				2.550999879837036,
				2.2699999809265137
			],
			"type":"VEC3"
		},
		{
			"bufferView":60,
			"componentType":5126,
			"count":24,
			"type":"VEC3"
		},
		{
			"bufferView":61,
			"componentType":5126,
			"count":24,
			"type":"VEC2"
		},
		{
			"bufferView":62,
			"componentType":5126,
			"count":24,
			"max":[
				1.1682666540145874,
				2.6010000705718994,
				-2.25
			],
			"min":[
				0.285066694021225,
				2.550999879837036,
				-2.369999885559082
			],
			"type":"VEC3"
		},
		{
			"bufferView":63,
			"componentType":5126,
			"count":24,
			"type":"VEC3"
		},
		{
			"bufferView":64,
			"componentType":5126,
			"count":24,
			"type":"VEC2"
		},
		{
			"bufferView":65,
			"componentType":5126,
			"count":24,
			"max":[
				-1.2850667238235474,
				4.201000213623047,
				2.3899998664855957
			],
			"min":[
				-2.168266773223877,
				4.151000022888184,
				2.2699999809265137
			],
			"type":"VEC3"
		},
		{
			"bufferView":66,
			"componentType":5126,
			"count":24,
			"type":"VEC3"
		},
		{
			"bufferView":67,
			"componentType":5126,
			"count":24,
			"type":"VEC2"
		},
		{
			"bufferView":68,
			"componentType":5126,
			"count":24,
			"max":[
				-1.2850667238235474,
				4.201000213623047,
				-2.25
			],
			"min":[
				-2.168266773223877,
				4.151000022888184,
				-2.369999885559082
			],
			"type":"VEC3"
		},
		{
			"bufferView":69,
			"componentType":5126,
			"count":24,
			"type":"VEC3"
		},
		{
			"bufferView":70,
			"componentType":5126,
			"count":24,
			"type":"VEC2"
		},
		{
			"bufferView":71,
			"componentType":5126,
			"count":24,
			"max":[
				-0.05840000510215759,
				4.201000213623047,
				2.3899998664855957
			],
			"min":[
				-0.94159996509552,
				4.151000022888184,
				2.2699999809265137
			],
			"type":"VEC3"
		},
		{
			"bufferView":72,
			"componentType":5126,
			"count":24,
			"type":"VEC3"
		},
		{
			"bufferView":73,
			"componentType":5126,
			"count":24,
			"type":"VEC2"
		},
		{
			"bufferView":74,
			"componentType":5126,
			"count":24,
			"max":[
				-0.05840000510215759,
				4.201000213623047,
				-2.25
			],
			"min":[
				-0.94159996509552,
				4.151000022888184,
				-2.369999885559082
			],
			"type":"VEC3"
		},
		{
			"bufferView":75,
			"componentType":5126,
			"count":24,
			"type":"VEC3"
		},
		{
			"bufferView":76,
			"componentType":5126,
			"count":24,
			"type":"VEC2"
		},
		{
			"bufferView":77,
			"componentType":5126,
			"count":24,
			"max":[
				1.1682666540145874,
				4.201000213623047,
				2.3899998664855957
			],
			"min":[
				0.285066694021225,
				4.151000022888184,
				2.2699999809265137
			],
			"type":"VEC3"
		},
		{
			"bufferView":78,
			"componentType":5126,
			"count":24,
			"type":"VEC3"
		},
		{
			"bufferView":79,
			"componentType":5126,
			"count":24,
			"type":"VEC2"
		},
		{
			"bufferView":80,
			"componentType":5126,
			"count":24,
			"max":[
				1.1682666540145874,
				4.201000213623047,
				-2.25
			],
			"min":[
				0.285066694021225,
				4.151000022888184,
				-2.369999885559082
			],
			"type":"VEC3"
		},
		{
			"bufferView":81,
			"componentType":5126,
			"count":24,
			"type":"VEC3"
		},
		{
			"bufferView":82,
			"componentType":5126,
			"count":24,
			"type":"VEC2"
		},
		{
			"bufferView":83,
			"componentType":5126,
			"count":24,
			"max":[
				-1.2850667238235474,
				5.801000118255615,
				2.3899998664855957
			],
			"min":[
				-2.168266773223877,
				5.750999927520752,
				2.2699999809265137
			],
			"type":"VEC3"
		},
		{
			"bufferView":84,
			"componentType":5126,
			"count":24,
			"type":"VEC3"
		},
		{
			"bufferView":85,
			"componentType":5126,
			"count":24,
			"type":"VEC2"
		},
		{
			"bufferView":86,
			"componentType":5126,
			"count":24,
			"max":[
				-1.2850667238235474,
				5.801000118255615,
				-2.25
			],
			"min":[
				-2.168266773223877,
				5.750999927520752,
				-2.369999885559082
			],
			"type":"VEC3"
		},
		{
			"bufferView":87,
			"componentType":5126,
			"count":24,
			"type":"VEC3"
		},
		{
			"bufferView":88,
			"componentType":5126,
			"count":24,
			"type":"VEC2"
		},
		{
			"bufferView":89,
			"componentType":5126,
			"count":24,
			"max":[
				-0.05840000510215759,
				5.801000118255615,
				2.3899998664855957
			],
			"min":[
				-0.94159996509552,
				5.750999927520752,
				2.2699999809265137
			],
			"type":"VEC3"
		},
		{
			"bufferView":90,
			"componentType":5126,
			"count":24,
			"type":"VEC3"
		},
		{
			"bufferView":91,
			"componentType":5126,
			"count":24,
			"type":"VEC2"
		},
		{
			"bufferView":92,
			"componentType":5126,
			"count":24,
			"max":[
				-0.05840000510215759,
				5.801000118255615,
				-2.25
			],
			"min":[
				-0.94159996509552,
				5.750999927520752,
				-2.369999885559082
			],
			"type":"VEC3"
		},
		{
			"bufferView":93,
			"componentType":5126,
			"count":24,
			"type":"VEC3"
		},
		{
			"bufferView":94,
			"componentType":5126,
			"count":24,
			"type":"VEC2"
		},
		{
			"bufferView":95,
			"componentType":5126,
			"count":24,
			"max":[
				1.1682666540145874,
				5.801000118255615,
				2.3899998664855957
			],
			"min":[
				0.285066694021225,
				5.750999927520752,
				2.2699999809265137
			],
			"type":"VEC3"
		},
		{
			"bufferView":96,
			"componentType":5126,
			"count":24,
			"type":"VEC3"
		},
		{
			"bufferView":97,
			"componentType":5126,
			"count":24,
			"type":"VEC2"
		},
		{
			"bufferView":98,
			"componentType":5126,
			"count":24,
			"max":[
				1.1682666540145874,
				5.801000118255615,
				-2.25
			],
			"min":[
				0.285066694021225,
				5.750999927520752,
				-2.369999885559082
			],
			"type":"VEC3"
		},
		{
			"bufferView":99,
			"componentType":5126,
			"count":24,
			"type":"VEC3"
		},
		{
			"bufferView":100,
			"componentType":5126,
			"count":24,
			"type":"VEC2"
		},
		{
			"bufferView":101,
			"componentType":5126,
			"count":60,
			"max":[
				0.5230811238288879,
				9.800000190734863,
				0.550000011920929
			],
			"min":[
				-0.5230811238288879,
				8.90000057220459,
				-0.550000011920929
			],
			"type":"VEC3"
		},
		{
			"bufferView":102,
			"componentType":5126,
			"count":60,
			"type":"VEC3"
		},
		{
			"bufferView":103,
			"componentType":5126,
			"count":60,
			"type":"VEC2"
		},
		{
			"bufferView":104,
			"componentType":5123,
			"count":108,
			"type":"SCALAR"
		},
		{
			"bufferView":105,
			"componentType":5126,
			"count":60,
			"max":[
				0.5516127943992615,
				10.074999809265137,
				0.5799999833106995
			],
			"min":[
				-0.5516127943992615,
				9.72499942779541,
				-0.5799999833106995
			],
			"type":"VEC3"
		},
		{
			"bufferView":106,
			"componentType":5126,
			"count":60,
			"type":"VEC3"
		},
		{
			"bufferView":107,
			"componentType":5126,
			"count":60,
			"type":"VEC2"
		},
		{
			"bufferView":108,
			"componentType":5126,
			"count":24,
			"max":[
				-1.3586666584014893,
				2.0320000648498535,
				2.359999895095825
			],
			"min":[
				-2.0946667194366455,
				1.0079998970031738,
				2.2799999713897705
			],
			"type":"VEC3"
		},
		{
			"bufferView":109,
			"componentType":5126,
			"count":24,
			"type":"VEC3"
		},
		{
			"bufferView":110,
			"componentType":5126,
			"count":24,
			"type":"VEC2"
		},
		{
			"bufferView":111,
			"componentType":5126,
			"count":24,
			"max":[
				-1.3586666584014893,
				2.0320000648498535,
				-2.2799999713897705
			],
			"min":[
				-2.0946667194366455,
				1.0079998970031738,
				-2.359999895095825
			],
			"type":"VEC3"
		},
		{
			"bufferView":112,
			"componentType":5126,
			"count":24,
			"type":"VEC3"
		},
		{
			"bufferView":113,
			"componentType":5126,
			"count":24,
			"type":"VEC2"
		},
		{
			"bufferView":114,
			"componentType":5126,
			"count":24,
			"max":[
				-0.13199999928474426,
				2.0320000648498535,
				2.359999895095825
			],
			"min":[
				-0.8680000305175781,
				1.0079998970031738,
				2.2799999713897705
			],
			"type":"VEC3"
		},
		{
			"bufferView":115,
			"componentType":5126,
			"count":24,
			"type":"VEC3"
		},
		{
			"bufferView":116,
			"componentType":5126,
			"count":24,
			"type":"VEC2"
		},
		{
			"bufferView":117,
			"componentType":5126,
			"count":24,
			"max":[
				-0.13199999928474426,
				2.0320000648498535,
				-2.2799999713897705
			],
			"min":[
				-0.8680000305175781,
				1.0079998970031738,
				-2.359999895095825
			],
			"type":"VEC3"
		},
		{
			"bufferView":118,
			"componentType":5126,
			"count":24,
			"type":"VEC3"
		},
		{
			"bufferView":119,
			"componentType":5126,
			"count":24,
			"type":"VEC2"
		},
		{
			"bufferView":120,
			"componentType":5126,
			"count":24,
			"max":[
				1.0946667194366455,
				2.0320000648498535,
				2.359999895095825
			],
			"min":[
				0.35866668820381165,
				1.0079998970031738,
				2.2799999713897705
			],
			"type":"VEC3"
		},
		{
			"bufferView":121,
			"componentType":5126,
			"count":24,
			"type":"VEC3"
		},
		{
			"bufferView":122,
			"componentType":5126,
			"count":24,
			"type":"VEC2"
		},
		{
			"bufferView":123,
			"componentType":5126,
			"count":24,
			"max":[
				1.0946667194366455,
				2.0320000648498535,
				-2.2799999713897705
			],
			"min":[
				0.35866668820381165,
				1.0079998970031738,
				-2.359999895095825
			],
			"type":"VEC3"
		},
		{
			"bufferView":124,
			"componentType":5126,
			"count":24,
			"type":"VEC3"
		},
		{
			"bufferView":125,
			"componentType":5126,
			"count":24,
			"type":"VEC2"
		},
		{
			"bufferView":126,
			"componentType":5126,
			"count":24,
			"max":[
				-1.3586666584014893,
				3.631999969482422,
				2.359999895095825
			],
			"min":[
				-2.0946667194366455,
				2.607999801635742,
				2.2799999713897705
			],
			"type":"VEC3"
		},
		{
			"bufferView":127,
			"componentType":5126,
			"count":24,
			"type":"VEC3"
		},
		{
			"bufferView":128,
			"componentType":5126,
			"count":24,
			"type":"VEC2"
		},
		{
			"bufferView":129,
			"componentType":5126,
			"count":24,
			"max":[
				-1.3586666584014893,
				3.631999969482422,
				-2.2799999713897705
			],
			"min":[
				-2.0946667194366455,
				2.607999801635742,
				-2.359999895095825
			],
			"type":"VEC3"
		},
		{
			"bufferView":130,
			"componentType":5126,
			"count":24,
			"type":"VEC3"
		},
		{
			"bufferView":131,
			"componentType":5126,
			"count":24,
			"type":"VEC2"
		},
		{
			"bufferView":132,
			"componentType":5126,
			"count":24,
			"max":[
				-0.13199999928474426,
				3.631999969482422,
				2.359999895095825
			],
			"min":[
				-0.8680000305175781,
				2.607999801635742,
				2.2799999713897705
			],
			"type":"VEC3"
		},
		{
			"bufferView":133,
			"componentType":5126,
			"count":24,
			"type":"VEC3"
		},
		{
			"bufferView":134,
			"componentType":5126,
			"count":24,
			"type":"VEC2"
		},
		{
			"bufferView":135,
			"componentType":5126,
			"count":24,
			"max":[
				-0.13199999928474426,
				3.631999969482422,
				-2.2799999713897705
			],
			"min":[
				-0.8680000305175781,
				2.607999801635742,
				-2.359999895095825
			],
			"type":"VEC3"
		},
		{
			"bufferView":136,
			"componentType":5126,
			"count":24,
			"type":"VEC3"
		},
		{
			"bufferView":137,
			"componentType":5126,
			"count":24,
			"type":"VEC2"
		},
		{
			"bufferView":138,
			"componentType":5126,
			"count":24,
			"max":[
				1.0946667194366455,
				3.631999969482422,
				2.359999895095825
			],
			"min":[
				0.35866668820381165,
				2.607999801635742,
				2.2799999713897705
			],
			"type":"VEC3"
		},
		{
			"bufferView":139,
			"componentType":5126,
			"count":24,
			"type":"VEC3"
		},
		{
			"bufferView":140,
			"componentType":5126,
			"count":24,
			"type":"VEC2"
		},
		{
			"bufferView":141,
			"componentType":5126,
			"count":24,
			"max":[
				1.0946667194366455,
				3.631999969482422,
				-2.2799999713897705
			],
			"min":[
				0.35866668820381165,
				2.607999801635742,
				-2.359999895095825
			],
			"type":"VEC3"
		},
		{
			"bufferView":142,
			"componentType":5126,
			"count":24,
			"type":"VEC3"
		},
		{
			"bufferView":143,
			"componentType":5126,
			"count":24,
			"type":"VEC2"
		},
		{
			"bufferView":144,
			"componentType":5126,
			"count":24,
			"max":[
				-1.3586666584014893,
				5.23199987411499,
				2.359999895095825
			],
			"min":[
				-2.0946667194366455,
				4.2079997062683105,
				2.2799999713897705
			],
			"type":"VEC3"
		},
		{
			"bufferView":145,
			"componentType":5126,
			"count":24,
			"type":"VEC3"
		},
		{
			"bufferView":146,
			"componentType":5126,
			"count":24,
			"type":"VEC2"
		},
		{
			"bufferView":147,
			"componentType":5126,
			"count":24,
			"max":[
				-1.3586666584014893,
				5.23199987411499,
				-2.2799999713897705
			],
			"min":[
				-2.0946667194366455,
				4.2079997062683105,
				-2.359999895095825
			],
			"type":"VEC3"
		},
		{
			"bufferView":148,
			"componentType":5126,
			"count":24,
			"type":"VEC3"
		},
		{
			"bufferView":149,
			"componentType":5126,
			"count":24,
			"type":"VEC2"
		},
		{
			"bufferView":150,
			"componentType":5126,
			"count":24,
			"max":[
				-0.13199999928474426,
				5.23199987411499,
				2.359999895095825
			],
			"min":[
				-0.8680000305175781,
				4.2079997062683105,
				2.2799999713897705
			],
			"type":"VEC3"
		},
		{
			"bufferView":151,
			"componentType":5126,
			"count":24,
			"type":"VEC3"
		},
		{
			"bufferView":152,
			"componentType":5126,
			"count":24,
			"type":"VEC2"
		},
		{
			"bufferView":153,
			"componentType":5126,
			"count":24,
			"max":[
				-0.13199999928474426,
				5.23199987411499,
				-2.2799999713897705
			],
			"min":[
				-0.8680000305175781,
				4.2079997062683105,
				-2.359999895095825
			],
			"type":"VEC3"
		},
		{
			"bufferView":154,
			"componentType":5126,
			"count":24,
			"type":"VEC3"
		},
		{
			"bufferView":155,
			"componentType":5126,
			"count":24,
			"type":"VEC2"
		},
		{
			"bufferView":156,
			"componentType":5126,
			"count":24,
			"max":[
				1.0946667194366455,
				5.23199987411499,
				2.359999895095825
			],
			"min":[
				0.35866668820381165,
				4.2079997062683105,
				2.2799999713897705
			],
			"type":"VEC3"
		},
		{
			"bufferView":157,
			"componentType":5126,
			"count":24,
			"type":"VEC3"
		},
		{
			"bufferView":158,
			"componentType":5126,
			"count":24,
			"type":"VEC2"
		},
		{
			"bufferView":159,
			"componentType":5126,
			"count":24,
			"max":[
				1.0946667194366455,
				5.23199987411499,
				-2.2799999713897705
			],
			"min":[
				0.35866668820381165,
				4.2079997062683105,
				-2.359999895095825
			],
			"type":"VEC3"
		},
		{
			"bufferView":160,
			"componentType":5126,
			"count":24,
			"type":"VEC3"
		},
		{
			"bufferView":161,
			"componentType":5126,
			"count":24,
			"type":"VEC2"
		},
		{
			"bufferView":162,
			"componentType":5126,
			"count":24,
			"max":[
				-1.3586666584014893,
				6.832000255584717,
				2.359999895095825
			],
			"min":[
				-2.0946667194366455,
				5.808000087738037,
				2.2799999713897705
			],
			"type":"VEC3"
		},
		{
			"bufferView":163,
			"componentType":5126,
			"count":24,
			"type":"VEC3"
		},
		{
			"bufferView":164,
			"componentType":5126,
			"count":24,
			"type":"VEC2"
		},
		{
			"bufferView":165,
			"componentType":5126,
			"count":24,
			"max":[
				-1.3586666584014893,
				6.832000255584717,
				-2.2799999713897705
			],
			"min":[
				-2.0946667194366455,
				5.808000087738037,
				-2.359999895095825
			],
			"type":"VEC3"
		},
		{
			"bufferView":166,
			"componentType":5126,
			"count":24,
			"type":"VEC3"
		},
		{
			"bufferView":167,
			"componentType":5126,
			"count":24,
			"type":"VEC2"
		},
		{
			"bufferView":168,
			"componentType":5126,
			"count":24,
			"max":[
				-0.13199999928474426,
				6.832000255584717,
				2.359999895095825
			],
			"min":[
				-0.8680000305175781,
				5.808000087738037,
				2.2799999713897705
			],
			"type":"VEC3"
		},
		{
			"bufferView":169,
			"componentType":5126,
			"count":24,
			"type":"VEC3"
		},
		{
			"bufferView":170,
			"componentType":5126,
			"count":24,
			"type":"VEC2"
		},
		{
			"bufferView":171,
			"componentType":5126,
			"count":24,
			"max":[
				-0.13199999928474426,
				6.832000255584717,
				-2.2799999713897705
			],
			"min":[
				-0.8680000305175781,
				5.808000087738037,
				-2.359999895095825
			],
			"type":"VEC3"
		},
		{
			"bufferView":172,
			"componentType":5126,
			"count":24,
			"type":"VEC3"
		},
		{
			"bufferView":173,
			"componentType":5126,
			"count":24,
			"type":"VEC2"
		},
		{
			"bufferView":174,
			"componentType":5126,
			"count":24,
			"max":[
				1.0946667194366455,
				6.832000255584717,
				2.359999895095825
			],
			"min":[
				0.35866668820381165,
				5.808000087738037,
				2.2799999713897705
			],
			"type":"VEC3"
		},
		{
			"bufferView":175,
			"componentType":5126,
			"count":24,
			"type":"VEC3"
		},
		{
			"bufferView":176,
			"componentType":5126,
			"count":24,
			"type":"VEC2"
		},
		{
			"bufferView":177,
			"componentType":5126,
			"count":24,
			"max":[
				1.0946667194366455,
				6.832000255584717,
				-2.2799999713897705
			],
			"min":[
				0.35866668820381165,
				5.808000087738037,
				-2.359999895095825
			],
			"type":"VEC3"
		},
		{
			"bufferView":178,
			"componentType":5126,
			"count":24,
			"type":"VEC3"
		},
		{
			"bufferView":179,
			"componentType":5126,
			"count":24,
			"type":"VEC2"
		},
		{
			"bufferView":180,
			"componentType":5126,
			"count":24,
			"max":[
				2.359999895095825,
				3.066666603088379,
				1.4351999759674072
			],
			"min":[
				2.2799999713897705,
				1.9466667175292969,
				0.4047999978065491
			],
			"type":"VEC3"
		},
		{
			"bufferView":181,
			"componentType":5126,
			"count":24,
			"type":"VEC3"
		},
		{
			"bufferView":182,
			"componentType":5126,
			"count":24,
			"type":"VEC2"
		},
		{
			"bufferView":183,
			"componentType":5126,
			"count":24,
			"max":[
				2.359999895095825,
				3.066666603088379,
				-0.4047999978065491
			],
			"min":[
				2.2799999713897705,
				1.9466667175292969,
				-1.4351999759674072
			],
			"type":"VEC3"
		},
		{
			"bufferView":184,
			"componentType":5126,
			"count":24,
			"type":"VEC3"
		},
		{
			"bufferView":185,
			"componentType":5126,
			"count":24,
			"type":"VEC2"
		},
		{
			"bufferView":186,
			"componentType":5126,
			"count":24,
			"max":[
				2.359999895095825,
				4.933333396911621,
				1.4351999759674072
			],
			"min":[
				2.2799999713897705,
				3.813333511352539,
				0.4047999978065491
			],
			"type":"VEC3"
		},
		{
			"bufferView":187,
			"componentType":5126,
			"count":24,
			"type":"VEC3"
		},
		{
			"bufferView":188,
			"componentType":5126,
			"count":24,
			"type":"VEC2"
		},
		{
			"bufferView":189,
			"componentType":5126,
			"count":24,
			"max":[
				2.359999895095825,
				4.933333396911621,
				-0.4047999978065491
			],
			"min":[
				2.2799999713897705,
				3.813333511352539,
				-1.4351999759674072
			],
			"type":"VEC3"
		},
		{
			"bufferView":190,
			"componentType":5126,
			"count":24,
			"type":"VEC3"
		},
		{
			"bufferView":191,
			"componentType":5126,
			"count":24,
			"type":"VEC2"
		},
		{
			"bufferView":192,
			"componentType":5126,
			"count":24,
			"max":[
				2.359999895095825,
				6.799999713897705,
				1.4351999759674072
			],
			"min":[
				2.2799999713897705,
				5.679999828338623,
				0.4047999978065491
			],
			"type":"VEC3"
		},
		{
			"bufferView":193,
			"componentType":5126,
			"count":24,
			"type":"VEC3"
		},
		{
			"bufferView":194,
			"componentType":5126,
			"count":24,
			"type":"VEC2"
		},
		{
			"bufferView":195,
			"componentType":5126,
			"count":24,
			"max":[
				2.359999895095825,
				6.799999713897705,
				-0.4047999978065491
			],
			"min":[
				2.2799999713897705,
				5.679999828338623,
				-1.4351999759674072
			],
			"type":"VEC3"
		},
		{
			"bufferView":196,
			"componentType":5126,
			"count":24,
			"type":"VEC3"
		},
		{
			"bufferView":197,
			"componentType":5126,
			"count":24,
			"type":"VEC2"
		}
	],
	"bufferViews":[
		{
			"buffer":0,
			"byteLength":288,
			"byteOffset":0,
			"target":34962
		},
		{
			"buffer":0,
			"byteLength":288,
			"byteOffset":288,
			"target":34962
		},
		{
			"buffer":0,
			"byteLength":192,
			"byteOffset":576,
			"target":34962
		},
		{
			"buffer":0,
			"byteLength":72,
			"byteOffset":768,
			"target":34963
		},
		{
			"buffer":0,
			"byteLength":288,
			"byteOffset":840,
			"target":34962
		},
		{
			"buffer":0,
			"byteLength":288,
			"byteOffset":1128,
			"target":34962
		},
		{
			"buffer":0,
			"byteLength":192,
			"byteOffset":1416,
			"target":34962
		},
		{
			"buffer":0,
			"byteLength":1152,
			"byteOffset":1608,
			"target":34962
		},
		{
			"buffer":0,
			"byteLength":1152,
			"byteOffset":2760,
			"target":34962
		},
		{
			"buffer":0,
			"byteLength":768,
			"byteOffset":3912,
			"target":34962
		},
		{
			"buffer":0,
			"byteLength":264,
			"byteOffset":4680,
			"target":34963
		},
		{
			"buffer":0,
			"byteLength":288,
			"byteOffset":4944,
			"target":34962
		},
		{
			"buffer":0,
			"byteLength":288,
			"byteOffset":5232,
			"target":34962
		},
		{
			"buffer":0,
			"byteLength":192,
			"byteOffset":5520,
			"target":34962
		},
		{
			"buffer":0,
			"byteLength":288,
			"byteOffset":5712,
			"target":34962
		},
		{
			"buffer":0,
			"byteLength":288,
			"byteOffset":6000,
			"target":34962
		},
		{
			"buffer":0,
			"byteLength":192,
			"byteOffset":6288,
			"target":34962
		},
		{
			"buffer":0,
			"byteLength":288,
			"byteOffset":6480,
			"target":34962
		},
		{
			"buffer":0,
			"byteLength":288,
			"byteOffset":6768,
			"target":34962
		},
		{
			"buffer":0,
			"byteLength":192,
			"byteOffset":7056,
			"target":34962
		},
		{
			"buffer":0,
			"byteLength":288,
			"byteOffset":7248,
			"target":34962
		},
		{
			"buffer":0,
			"byteLength":288,
			"byteOffset":7536,
			"target":34962
		},
		{
			"buffer":0,
			"byteLength":192,
			"byteOffset":7824,
			"target":34962
		},
		{
			"buffer":0,
			"byteLength":288,
			"byteOffset":8016,
			"target":34962
		},
		{
			"buffer":0,
			"byteLength":288,
			"byteOffset":8304,
			"target":34962
		},
		{
			"buffer":0,
			"byteLength":192,
			"byteOffset":8592,
			"target":34962
		},
		{
			"buffer":0,
			"byteLength":288,
			"byteOffset":8784,
			"target":34962
		},
		{
			"buffer":0,
			"byteLength":288,
			"byteOffset":9072,
			"target":34962
		},
		{
			"buffer":0,
			"byteLength":192,
			"byteOffset":9360,
			"target":34962
		},
		{
			"buffer":0,
			"byteLength":288,
			"byteOffset":9552,
			"target":34962
		},
		{
			"buffer":0,
			"byteLength":288,
			"byteOffset":9840,
			"target":34962
		},
		{
			"buffer":0,
			"byteLength":192,
			"byteOffset":10128,
			"target":34962
		},
		{
			"buffer":0,
			"byteLength":288,
			"byteOffset":10320,
			"target":34962
		},
		{
			"buffer":0,
			"byteLength":288,
			"byteOffset":10608,
			"target":34962
		},
		{
			"buffer":0,
			"byteLength":192,
			"byteOffset":10896,
			"target":34962
		},
		{
			"buffer":0,
			"byteLength":288,
			"byteOffset":11088,
			"target":34962
		},
		{
			"buffer":0,
			"byteLength":288,
			"byteOffset":11376,
			"target":34962
		},
		{
			"buffer":0,
			"byteLength":192,
			"byteOffset":11664,
			"target":34962
		},
		{
			"buffer":0,
			"byteLength":288,
			"byteOffset":11856,
			"target":34962
		},
		{
			"buffer":0,
			"byteLength":288,
			"byteOffset":12144,
			"target":34962
		},
		{
			"buffer":0,
			"byteLength":192,
			"byteOffset":12432,
			"target":34962
		},
		{
			"buffer":0,
			"byteLength":288,
			"byteOffset":12624,
			"target":34962
		},
		{
			"buffer":0,
			"byteLength":288,
			"byteOffset":12912,
			"target":34962
		},
		{
			"buffer":0,
			"byteLength":192,
			"byteOffset":13200,
			"target":34962
		},
		{
			"buffer":0,
			"byteLength":288,
			"byteOffset":13392,
			"target":34962
		},
		{
			"buffer":0,
			"byteLength":288,
			"byteOffset":13680,
			"target":34962
		},
		{
			"buffer":0,
			"byteLength":192,
			"byteOffset":13968,
			"target":34962
		},
		{
			"buffer":0,
			"byteLength":288,
			"byteOffset":14160,
			"target":34962
		},
		{
			"buffer":0,
			"byteLength":288,
			"byteOffset":14448,
			"target":34962
		},
		{
			"buffer":0,
			"byteLength":192,
			"byteOffset":14736,
			"target":34962
		},
		{
			"buffer":0,
			"byteLength":288,
			"byteOffset":14928,
			"target":34962
		},
		{
			"buffer":0,
			"byteLength":288,
			"byteOffset":15216,
			"target":34962
		},
		{
			"buffer":0,
			"byteLength":192,
			"byteOffset":15504,
			"target":34962
		},
		{
			"buffer":0,
			"byteLength":288,
			"byteOffset":15696,
			"target":34962
		},
		{
			"buffer":0,
			"byteLength":288,
			"byteOffset":15984,
			"target":34962
		},
		{
			"buffer":0,
			"byteLength":192,
			"byteOffset":16272,
			"target":34962
		},
		{
			"buffer":0,
			"byteLength":288,
			"byteOffset":16464,
			"target":34962
		},
		{
			"buffer":0,
			"byteLength":288,
			"byteOffset":16752,
			"target":34962
		},
		{
			"buffer":0,
			"byteLength":192,
			"byteOffset":17040,
			"target":34962
		},
		{
			"buffer":0,
			"byteLength":288,
			"byteOffset":17232,
			"target":34962
		},
		{
			"buffer":0,
			"byteLength":288,
			"byteOffset":17520,
			"target":34962
		},
		{
			"buffer":0,
			"byteLength":192,
			"byteOffset":17808,
			"target":34962
		},
		{
			"buffer":0,
			"byteLength":288,
			"byteOffset":18000,
			"target":34962
		},
		{
			"buffer":0,
			"byteLength":288,
			"byteOffset":18288,
			"target":34962
		},
		{
			"buffer":0,
			"byteLength":192,
			"byteOffset":18576,
			"target":34962
		},
		{
			"buffer":0,
			"byteLength":288,
			"byteOffset":18768,
			"target":34962
		},
		{
			"buffer":0,
			"byteLength":288,
			"byteOffset":19056,
			"target":34962
		},
		{
			"buffer":0,
			"byteLength":192,
			"byteOffset":19344,
			"target":34962
		},
		{
			"buffer":0,
			"byteLength":288,
			"byteOffset":19536,
			"target":34962
		},
		{
			"buffer":0,
			"byteLength":288,
			"byteOffset":19824,
			"target":34962
		},
		{
			"buffer":0,
			"byteLength":192,
			"byteOffset":20112,
			"target":34962
		},
		{
			"buffer":0,
			"byteLength":288,
			"byteOffset":20304,
			"target":34962
		},
		{
			"buffer":0,
			"byteLength":288,
			"byteOffset":20592,
			"target":34962
		},
		{
			"buffer":0,
			"byteLength":192,
			"byteOffset":20880,
			"target":34962
		},
		{
			"buffer":0,
			"byteLength":288,
			"byteOffset":21072,
			"target":34962
		},
		{
			"buffer":0,
			"byteLength":288,
			"byteOffset":21360,
			"target":34962
		},
		{
			"buffer":0,
			"byteLength":192,
			"byteOffset":21648,
			"target":34962
		},
		{
			"buffer":0,
			"byteLength":288,
			"byteOffset":21840,
			"target":34962
		},
		{
			"buffer":0,
			"byteLength":288,
			"byteOffset":22128,
			"target":34962
		},
		{
			"buffer":0,
			"byteLength":192,
			"byteOffset":22416,
			"target":34962
		},
		{
			"buffer":0,
			"byteLength":288,
			"byteOffset":22608,
			"target":34962
		},
		{
			"buffer":0,
			"byteLength":288,
			"byteOffset":22896,
			"target":34962
		},
		{
			"buffer":0,
			"byteLength":192,
			"byteOffset":23184,
			"target":34962
		},
		{
			"buffer":0,
			"byteLength":288,
			"byteOffset":23376,
			"target":34962
		},
		{
			"buffer":0,
			"byteLength":288,
			"byteOffset":23664,
			"target":34962
		},
		{
			"buffer":0,
			"byteLength":192,
			"byteOffset":23952,
			"target":34962
		},
		{
			"buffer":0,
			"byteLength":288,
			"byteOffset":24144,
			"target":34962
		},
		{
			"buffer":0,
			"byteLength":288,
			"byteOffset":24432,
			"target":34962
		},
		{
			"buffer":0,
			"byteLength":192,
			"byteOffset":24720,
			"target":34962
		},
		{
			"buffer":0,
			"byteLength":288,
			"byteOffset":24912,
			"target":34962
		},
		{
			"buffer":0,
			"byteLength":288,
			"byteOffset":25200,
			"target":34962
		},
		{
			"buffer":0,
			"byteLength":192,
			"byteOffset":25488,
			"target":34962
		},
		{
			"buffer":0,
			"byteLength":288,
			"byteOffset":25680,
			"target":34962
		},
		{
			"buffer":0,
			"byteLength":288,
			"byteOffset":25968,
			"target":34962
		},
		{
			"buffer":0,
			"byteLength":192,
			"byteOffset":26256,
			"target":34962
		},
		{
			"buffer":0,
			"byteLength":288,
			"byteOffset":26448,
			"target":34962
		},
		{
			"buffer":0,
			"byteLength":288,
			"byteOffset":26736,
			"target":34962
		},
		{
			"buffer":0,
			"byteLength":192,
			"byteOffset":27024,
			"target":34962
		},
		{
			"buffer":0,
			"byteLength":288,
			"byteOffset":27216,
			"target":34962
		},
		{
			"buffer":0,
			"byteLength":288,
			"byteOffset":27504,
			"target":34962
		},
		{
			"buffer":0,
			"byteLength":192,
			"byteOffset":27792,
			"target":34962
		},
		{
			"buffer":0,
			"byteLength":720,
			"byteOffset":27984,
			"target":34962
		},
		{
			"buffer":0,
			"byteLength":720,
			"byteOffset":28704,
			"target":34962
		},
		{
			"buffer":0,
			"byteLength":480,
			"byteOffset":29424,
			"target":34962
		},
		{
			"buffer":0,
			"byteLength":216,
			"byteOffset":29904,
			"target":34963
		},
		{
			"buffer":0,
			"byteLength":720,
			"byteOffset":30120,
			"target":34962
		},
		{
			"buffer":0,
			"byteLength":720,
			"byteOffset":30840,
			"target":34962
		},
		{
			"buffer":0,
			"byteLength":480,
			"byteOffset":31560,
			"target":34962
		},
		{
			"buffer":0,
			"byteLength":288,
			"byteOffset":32040,
			"target":34962
		},
		{
			"buffer":0,
			"byteLength":288,
			"byteOffset":32328,
			"target":34962
		},
		{
			"buffer":0,
			"byteLength":192,
			"byteOffset":32616,
			"target":34962
		},
		{
			"buffer":0,
			"byteLength":288,
			"byteOffset":32808,
			"target":34962
		},
		{
			"buffer":0,
			"byteLength":288,
			"byteOffset":33096,
			"target":34962
		},
		{
			"buffer":0,
			"byteLength":192,
			"byteOffset":33384,
			"target":34962
		},
		{
			"buffer":0,
			"byteLength":288,
			"byteOffset":33576,
			"target":34962
		},
		{
			"buffer":0,
			"byteLength":288,
			"byteOffset":33864,
			"target":34962
		},
		{
			"buffer":0,
			"byteLength":192,
			"byteOffset":34152,
			"target":34962
		},
		{
			"buffer":0,
			"byteLength":288,
			"byteOffset":34344,
			"target":34962
		},
		{
			"buffer":0,
			"byteLength":288,
			"byteOffset":34632,
			"target":34962
		},
		{
			"buffer":0,
			"byteLength":192,
			"byteOffset":34920,
			"target":34962
		},
		{
			"buffer":0,
			"byteLength":288,
			"byteOffset":35112,
			"target":34962
		},
		{
			"buffer":0,
			"byteLength":288,
			"byteOffset":35400,
			"target":34962
		},
		{
			"buffer":0,
			"byteLength":192,
			"byteOffset":35688,
			"target":34962
		},
		{
			"buffer":0,
			"byteLength":288,
			"byteOffset":35880,
			"target":34962
		},
		{
			"buffer":0,
			"byteLength":288,
			"byteOffset":36168,
			"target":34962
		},
		{
			"buffer":0,
			"byteLength":192,
			"byteOffset":36456,
			"target":34962
		},
		{
			"buffer":0,
			"byteLength":288,
			"byteOffset":36648,
			"target":34962
		},
		{
			"buffer":0,
			"byteLength":288,
			"byteOffset":36936,
			"target":34962
		},
		{
			"buffer":0,
			"byteLength":192,
			"byteOffset":37224,
			"target":34962
		},
		{
			"buffer":0,
			"byteLength":288,
			"byteOffset":37416,
			"target":34962
		},
		{
			"buffer":0,
			"byteLength":288,
			"byteOffset":37704,
			"target":34962
		},
		{
			"buffer":0,
			"byteLength":192,
			"byteOffset":37992,
			"target":34962
		},
		{
			"buffer":0,
			"byteLength":288,
			"byteOffset":38184,
			"target":34962
		},
		{
			"buffer":0,
			"byteLength":288,
			"byteOffset":38472,
			"target":34962
		},
		{
			"buffer":0,
			"byteLength":192,
			"byteOffset":38760,
			"target":34962
		},
		{
			"buffer":0,
			"byteLength":288,
			"byteOffset":38952,
			"target":34962
		},
		{
			"buffer":0,
			"byteLength":288,
			"byteOffset":39240,
			"target":34962
		},
		{
			"buffer":0,
			"byteLength":192,
			"byteOffset":39528,
			"target":34962
		},
		{
			"buffer":0,
			"byteLength":288,
			"byteOffset":39720,
			"target":34962
		},
		{
			"buffer":0,
			"byteLength":288,
			"byteOffset":40008,
			"target":34962
		},
		{
			"buffer":0,
			"byteLength":192,
			"byteOffset":40296,
			"target":34962
		},
		{
			"buffer":0,
			"byteLength":288,
			"byteOffset":40488,
			"target":34962
		},
		{
			"buffer":0,
			"byteLength":288,
			"byteOffset":40776,
			"target":34962
		},
		{
			"buffer":0,
			"byteLength":192,
			"byteOffset":41064,
			"target":34962
		},
		{
			"buffer":0,
			"byteLength":288,
			"byteOffset":41256,
			"target":34962
		},
		{
			"buffer":0,
			"byteLength":288,
			"byteOffset":41544,
			"target":34962
		},
		{
			"buffer":0,
			"byteLength":192,
			"byteOffset":41832,
			"target":34962
		},
		{
			"buffer":0,
			"byteLength":288,
			"byteOffset":42024,
			"target":34962
		},
		{
			"buffer":0,
			"byteLength":288,
			"byteOffset":42312,
			"target":34962
		},
		{
			"buffer":0,
			"byteLength":192,
			"byteOffset":42600,
			"target":34962
		},
		{
			"buffer":0,
			"byteLength":288,
			"byteOffset":42792,
			"target":34962
		},
		{
			"buffer":0,
			"byteLength":288,
			"byteOffset":43080,
			"target":34962
		},
		{
			"buffer":0,
			"byteLength":192,
			"byteOffset":43368,
			"target":34962
		},
		{
			"buffer":0,
			"byteLength":288,
			"byteOffset":43560,
			"target":34962
		},
		{
			"buffer":0,
			"byteLength":288,
			"byteOffset":43848,
			"target":34962
		},
		{
			"buffer":0,
			"byteLength":192,
			"byteOffset":44136,
			"target":34962
		},
		{
			"buffer":0,
			"byteLength":288,
			"byteOffset":44328,
			"target":34962
		},
		{
			"buffer":0,
			"byteLength":288,
			"byteOffset":44616,
			"target":34962
		},
		{
			"buffer":0,
			"byteLength":192,
			"byteOffset":44904,
			"target":34962
		},
		{
			"buffer":0,
			"byteLength":288,
			"byteOffset":45096,
			"target":34962
		},
		{
			"buffer":0,
			"byteLength":288,
			"byteOffset":45384,
			"target":34962
		},
		{
			"buffer":0,
			"byteLength":192,
			"byteOffset":45672,
			"target":34962
		},
		{
			"buffer":0,
			"byteLength":288,
			"byteOffset":45864,
			"target":34962
		},
		{
			"buffer":0,
			"byteLength":288,
			"byteOffset":46152,
			"target":34962
		},
		{
			"buffer":0,
			"byteLength":192,
			"byteOffset":46440,
			"target":34962
		},
		{
			"buffer":0,
			"byteLength":288,
			"byteOffset":46632,
			"target":34962
		},
		{
			"buffer":0,
			"byteLength":288,
			"byteOffset":46920,
			"target":34962
		},
		{
			"buffer":0,
			"byteLength":192,
			"byteOffset":47208,
			"target":34962
		},
		{
			"buffer":0,
			"byteLength":288,
			"byteOffset":47400,
			"target":34962
		},
		{
			"buffer":0,
			"byteLength":288,
			"byteOffset":47688,
			"target":34962
		},
		{
			"buffer":0,
			"byteLength":192,
			"byteOffset":47976,
			"target":34962
		},
		{
			"buffer":0,
			"byteLength":288,
			"byteOffset":48168,
			"target":34962
		},
		{
			"buffer":0,
			"byteLength":288,
			"byteOffset":48456,
			"target":34962
		},
		{
			"buffer":0,
			"byteLength":192,
			"byteOffset":48744,
			"target":34962
		},
		{
			"buffer":0,
			"byteLength":288,
			"byteOffset":48936,
			"target":34962
		},
		{
			"buffer":0,
			"byteLength":288,
			"byteOffset":49224,
			"target":34962
		},
		{
			"buffer":0,
			"byteLength":192,
			"byteOffset":49512,
			"target":34962
		},
		{
			"buffer":0,
			"byteLength":288,
			"byteOffset":49704,
			"target":34962
		},
		{
			"buffer":0,
			"byteLength":288,
			"byteOffset":49992,
			"target":34962
		},
		{
			"buffer":0,
			"byteLength":192,
			"byteOffset":50280,
			"target":34962
		},
		{
			"buffer":0,
			"byteLength":288,
			"byteOffset":50472,
			"target":34962
		},
		{
			"buffer":0,
			"byteLength":288,
			"byteOffset":50760,
			"target":34962
		},
		{
			"buffer":0,
			"byteLength":192,
			"byteOffset":51048,
			"target":34962
		},
		{
			"buffer":0,
			"byteLength":288,
			"byteOffset":51240,
			"target":34962
		},
		{
			"buffer":0,
			"byteLength":288,
			"byteOffset":51528,
			"target":34962
		},
		{
			"buffer":0,
			"byteLength":192,
			"byteOffset":51816,
			"target":34962
		},
		{
			"buffer":0,
			"byteLength":288,
			"byteOffset":52008,
			"target":34962
		},
		{
			"buffer":0,
			"byteLength":288,
			"byteOffset":52296,
			"target":34962
		},
		{
			"buffer":0,
			"byteLength":192,
			"byteOffset":52584,
			"target":34962
		},
		{
			"buffer":0,
			"byteLength":288,
			"byteOffset":52776,
			"target":34962
		},
		{
			"buffer":0,
			"byteLength":288,
			"byteOffset":53064,
			"target":34962
		},
		{
			"buffer":0,
			"byteLength":192,
			"byteOffset":53352,
			"target":34962
		},
		{
			"buffer":0,
			"byteLength":288,
			"byteOffset":53544,
			"target":34962
		},
		{
			"buffer":0,
			"byteLength":288,
			"byteOffset":53832,
			"target":34962
		},
		{
			"buffer":0,
			"byteLength":192,
			"byteOffset":54120,
			"target":34962
		},
		{
			"buffer":0,
			"byteLength":288,
			"byteOffset":54312,
			"target":34962
		},
		{
			"buffer":0,
			"byteLength":288,
			"byteOffset":54600,
			"target":34962
		},
		{
			"buffer":0,
			"byteLength":192,
			"byteOffset":54888,
			"target":34962
		}
	],
	"buffers":[
		{
			"byteLength":55080,
			"uri":"hd_bldg_brick.bin"
		}
	]
}
