{
	"asset":{
		"generator":"Khronos glTF Blender I/O v5.2.40",
		"version":"2.0"
	},
	"scene":0,
	"scenes":[
		{
			"name":"Scene",
			"nodes":[
				0,
				1,
				2,
				3,
				4,
				5
			]
		}
	],
	"nodes":[
		{
			"mesh":0,
			"name":"box"
		},
		{
			"mesh":1,
			"name":"rim"
		},
		{
			"mesh":2,
			"name":"soil"
		},
		{
			"mesh":3,
			"name":"tp0"
		},
		{
			"mesh":4,
			"name":"tp1"
		},
		{
			"mesh":5,
			"name":"tp2"
		}
	],
	"materials":[
		{
			"doubleSided":true,
			"name":"M_pb",
			"pbrMetallicRoughness":{
				"baseColorFactor":[
					0.46474114060401917,
					0.08919350802898407,
					0.03994717076420784,
					1
				],
				"metallicFactor":0,
				"roughnessFactor":0.8500000238418579
			}
		},
		{
			"doubleSided":true,
			"name":"M_pbr",
			"pbrMetallicRoughness":{
				"baseColorFactor":[
					0.46474114060401917,
					0.08919350802898407,
					0.03994717076420784,
					1
				],
				"metallicFactor":0,
				"roughnessFactor":0.8500000238418579
			}
		},
		{
			"doubleSided":true,
			"name":"M_soil",
			"pbrMetallicRoughness":{
				"baseColorFactor":[
					0.10615606606006622,
					0.0477757528424263,
					0.025371277704834938,
					1
				],
				"metallicFactor":0,
				"roughnessFactor":0.8500000238418579
			}
		},
		{
			"doubleSided":true,
			"name":"M_pt0",
			"pbrMetallicRoughness":{
				"baseColorFactor":[
					0.1939721703529358,
					0.6592239737510681,
					0.0915183499455452,
					1
				],
				"metallicFactor":0,
				"roughnessFactor":0.8500000238418579
			}
		},
		{
			"doubleSided":true,
			"name":"M_pt1",
			"pbrMetallicRoughness":{
				"baseColorFactor":[
					0.09387587010860443,
					0.48776519298553467,
					0.05637409910559654,
					1
				],
				"metallicFactor":0,
				"roughnessFactor":0.8500000238418579
			}
		},
		{
			"doubleSided":true,
			"name":"M_pt2",
			"pbrMetallicRoughness":{
				"baseColorFactor":[
					0.1939721703529358,
					0.6592239737510681,
					0.0915183499455452,
					1
				],
				"metallicFactor":0,
				"roughnessFactor":0.8500000238418579
			}
		}
	],
	"meshes":[
		{
			"name":"Cube",
			"primitives":[
				{
					"attributes":{
						"POSITION":0,
						"NORMAL":1,
						"TEXCOORD_0":2
					},
					"indices":3,
					"material":0
				}
			]
		},
		{
			"name":"Cube.001",
			"primitives":[
				{
					"attributes":{
						"POSITION":4,
						"NORMAL":5,
						"TEXCOORD_0":6
					},
					"indices":3,
					"material":1
				}
			]
		},
		{
			"name":"Cube.002",
			"primitives":[
				{
					"attributes":{
						"POSITION":7,
						"NORMAL":8,
						"TEXCOORD_0":9
					},
					"indices":10,
					"material":2
				}
			]
		},
		{
			"name":"Icosphere",
			"primitives":[
				{
					"attributes":{
						"POSITION":11,
						"NORMAL":12,
						"TEXCOORD_0":13
					},
					"indices":14,
					"material":3
				}
			]
		},
		{
			"name":"Icosphere.001",
			"primitives":[
				{
					"attributes":{
						"POSITION":15,
						"NORMAL":16,
						"TEXCOORD_0":17
					},
					"indices":14,
					"material":4
				}
			]
		},
		{
			"name":"Icosphere.002",
			"primitives":[
				{
					"attributes":{
						"POSITION":18,
						"NORMAL":19,
						"TEXCOORD_0":20
					},
					"indices":14,
					"material":5
				}
			]
		}
	],
	"accessors":[
		{
			"bufferView":0,
			"componentType":5126,
			"count":96,
			"max":[
				0.4102650284767151,
				0.26350846886634827,
				0.17343975603580475
			],
			"min":[
				-0.41108524799346924,
				-0.008471190929412842,
				-0.17404134571552277
			],
			"type":"VEC3"
		},
		{
			"bufferView":1,
			"componentType":5126,
			"count":96,
			"type":"VEC3"
		},
		{
			"bufferView":2,
			"componentType":5126,
			"count":96,
			"type":"VEC2"
		},
		{
			"bufferView":3,
			"componentType":5123,
			"count":132,
			"type":"SCALAR"
		},
		{
			"bufferView":4,
			"componentType":5126,
			"count":96,
			"max":[
				0.4376433491706848,
				0.2762575149536133,
				0.18584980070590973
			],
			"min":[
				-0.43846356868743896,
				0.23376069962978363,
				-0.18645139038562775
			],
			"type":"VEC3"
		},
		{
			"bufferView":5,
			"componentType":5126,
			"count":96,
			"type":"VEC3"
		},
		{
			"bufferView":6,
			"componentType":5126,
			"count":96,
			"type":"VEC2"
		},
		{
			"bufferView":7,
			"componentType":5126,
			"count":24,
			"max":[
				0.3646344542503357,
				0.26563331484794617,
				0.15275636315345764
			],
			"min":[
				-0.36545467376708984,
				0.23163586854934692,
				-0.15335795283317566
			],
			"type":"VEC3"
		},
		{
			"bufferView":8,
			"componentType":5126,
			"count":24,
			"type":"VEC3"
		},
		{
			"bufferView":9,
			"componentType":5126,
			"count":24,
			"type":"VEC2"
		},
		{
			"bufferView":10,
			"componentType":5123,
			"count":36,
			"type":"SCALAR"
		},
		{
			"bufferView":11,
			"componentType":5126,
			"count":22,
			"max":[
				-0.00394029077142477,
				0.37239333987236023,
				0.08281947672367096
			],
			"min":[
				-0.29397109150886536,
				0.19301408529281616,
				-0.09024864435195923
			],
			"type":"VEC3"
		},
		{
			"bufferView":12,
			"componentType":5126,
			"count":22,
			"type":"VEC3"
		},
		{
			"bufferView":13,
			"componentType":5126,
			"count":22,
			"type":"VEC2"
		},
		{
			"bufferView":14,
			"componentType":5123,
			"count":60,
			"type":"SCALAR"
		},
		{
			"bufferView":15,
			"componentType":5126,
			"count":22,
			"max":[
				0.2691488564014435,
				0.37957021594047546,
				0.14347676932811737
			],
			"min":[
				-0.009896173141896725,
				0.2176278680562973,
				-0.05114751309156418
			],
			"type":"VEC3"
		},
		{
			"bufferView":16,
			"componentType":5126,
			"count":22,
			"type":"VEC3"
		},
		{
			"bufferView":17,
			"componentType":5126,
			"count":22,
			"type":"VEC2"
		},
		{
			"bufferView":18,
			"componentType":5126,
			"count":22,
			"max":[
				0.14491575956344604,
				0.3868773281574249,
				-0.0013899663463234901
			],
			"min":[
				-0.12936526536941528,
				0.21347618103027344,
				-0.15429681539535522
			],
			"type":"VEC3"
		},
		{
			"bufferView":19,
			"componentType":5126,
			"count":22,
			"type":"VEC3"
		},
		{
			"bufferView":20,
			"componentType":5126,
			"count":22,
			"type":"VEC2"
		}
	],
	"bufferViews":[
		{
			"buffer":0,
			"byteLength":1152,
			"byteOffset":0,
			"target":34962
		},
		{
			"buffer":0,
			"byteLength":1152,
			"byteOffset":1152,
			"target":34962
		},
		{
			"buffer":0,
			"byteLength":768,
			"byteOffset":2304,
			"target":34962
		},
		{
			"buffer":0,
			"byteLength":264,
			"byteOffset":3072,
			"target":34963
		},
		{
			"buffer":0,
			"byteLength":1152,
			"byteOffset":3336,
			"target":34962
		},
		{
			"buffer":0,
			"byteLength":1152,
			"byteOffset":4488,
			"target":34962
		},
		{
			"buffer":0,
			"byteLength":768,
			"byteOffset":5640,
			"target":34962
		},
		{
			"buffer":0,
			"byteLength":288,
			"byteOffset":6408,
			"target":34962
		},
		{
			"buffer":0,
			"byteLength":288,
			"byteOffset":6696,
			"target":34962
		},
		{
			"buffer":0,
			"byteLength":192,
			"byteOffset":6984,
			"target":34962
		},
		{
			"buffer":0,
			"byteLength":72,
			"byteOffset":7176,
			"target":34963
		},
		{
			"buffer":0,
			"byteLength":264,
			"byteOffset":7248,
			"target":34962
		},
		{
			"buffer":0,
			"byteLength":264,
			"byteOffset":7512,
			"target":34962
		},
		{
			"buffer":0,
			"byteLength":176,
			"byteOffset":7776,
			"target":34962
		},
		{
			"buffer":0,
			"byteLength":120,
			"byteOffset":7952,
			"target":34963
		},
		{
			"buffer":0,
			"byteLength":264,
			"byteOffset":8072,
			"target":34962
		},
		{
			"buffer":0,
			"byteLength":264,
			"byteOffset":8336,
			"target":34962
		},
		{
			"buffer":0,
			"byteLength":176,
			"byteOffset":8600,
			"target":34962
		},
		{
			"buffer":0,
			"byteLength":264,
			"byteOffset":8776,
			"target":34962
		},
		{
			"buffer":0,
			"byteLength":264,
			"byteOffset":9040,
			"target":34962
		},
		{
			"buffer":0,
			"byteLength":176,
			"byteOffset":9304,
			"target":34962
		}
	],
	"buffers":[
		{
			"byteLength":9480,
			"uri":"planter_box_01.bin"
		}
	]
}
