{
	"asset":{
		"generator":"Khronos glTF Blender I/O v5.2.40",
		"version":"2.0"
	},
	"scene":0,
	"scenes":[
		{
			"name":"Scene",
			"nodes":[
				0,
				1,
				2,
				3
			]
		}
	],
	"nodes":[
		{
			"mesh":0,
			"name":"boulder"
		},
		{
			"mesh":1,
			"name":"crater0"
		},
		{
			"mesh":2,
			"name":"crater1"
		},
		{
			"mesh":3,
			"name":"crater2"
		}
	],
	"materials":[
		{
			"doubleSided":true,
			"name":"M_r",
			"pbrMetallicRoughness":{
				"baseColorFactor":[
					0.2758328318595886,
					0.28012436628341675,
					0.3586539030075073,
					1
				],
				"metallicFactor":0,
				"roughnessFactor":0.8500000238418579
			}
		},
		{
			"doubleSided":true,
			"name":"M_cd",
			"pbrMetallicRoughness":{
				"baseColorFactor":[
					0.23882798850536346,
					0.20109573006629944,
					0.16364067792892456,
					1
				],
				"metallicFactor":0,
				"roughnessFactor":0.8500000238418579
			}
		}
	],
	"meshes":[
		{
			"name":"Icosphere",
			"primitives":[
				{
					"attributes":{
						"POSITION":0,
						"NORMAL":1,
						"TEXCOORD_0":2
					},
					"indices":3,
					"material":0
				}
			]
		},
		{
			"name":"Icosphere.001",
			"primitives":[
				{
					"attributes":{
						"POSITION":4,
						"NORMAL":5,
						"TEXCOORD_0":6
					},
					"indices":7,
					"material":1
				}
			]
		},
		{
			"name":"Icosphere.002",
			"primitives":[
				{
					"attributes":{
						"POSITION":8,
						"NORMAL":9,
						"TEXCOORD_0":10
					},
					"indices":7,
					"material":1
				}
			]
		},
		{
			"name":"Icosphere.003",
			"primitives":[
				{
					"attributes":{
						"POSITION":11,
						"NORMAL":12,
						"TEXCOORD_0":13
					},
					"indices":7,
					"material":1
				}
			]
		}
	],
	"accessors":[
		{
			"bufferView":0,
			"componentType":5126,
			"count":240,
			"max":[
				0.10143381357192993,
				0.040510401129722595,
				0.05804641544818878
			],
			"min":[
				-0.10619397461414337,
				-0.0355568490922451,
				-0.05430477485060692
			],
			"type":"VEC3"
		},
		{
			"bufferView":1,
			"componentType":5126,
			"count":240,
			"type":"VEC3"
		},
		{
			"bufferView":2,
			"componentType":5126,
			"count":240,
			"type":"VEC2"
		},
		{
			"bufferView":3,
			"componentType":5123,
			"count":240,
			"type":"SCALAR"
		},
		{
			"bufferView":4,
			"componentType":5126,
			"count":60,
			"max":[
				0.06665415316820145,
				0.05248060077428818,
				0.00539221428334713
			],
			"min":[
				0.04867076501250267,
				0.032374508678913116,
				-0.01171083189547062
			],
			"type":"VEC3"
		},
		{
			"bufferView":5,
			"componentType":5126,
			"count":60,
			"type":"VEC3"
		},
		{
			"bufferView":6,
			"componentType":5126,
			"count":60,
			"type":"VEC2"
		},
		{
			"bufferView":7,
			"componentType":5123,
			"count":60,
			"type":"SCALAR"
		},
		{
			"bufferView":8,
			"componentType":5126,
			"count":60,
			"max":[
				-0.03395579755306244,
				0.0411929115653038,
				-0.006490936502814293
			],
			"min":[
				-0.051939189434051514,
				0.02108681946992874,
				-0.023593982681632042
			],
			"type":"VEC3"
		},
		{
			"bufferView":9,
			"componentType":5126,
			"count":60,
			"type":"VEC3"
		},
		{
			"bufferView":10,
			"componentType":5126,
			"count":60,
			"type":"VEC2"
		},
		{
			"bufferView":11,
			"componentType":5126,
			"count":60,
			"max":[
				-0.019267085939645767,
				0.06000572443008423,
				0.041894473135471344
			],
			"min":[
				-0.03725047409534454,
				0.03989963233470917,
				0.024791426956653595
			],
			"type":"VEC3"
		},
		{
			"bufferView":12,
			"componentType":5126,
			"count":60,
			"type":"VEC3"
		},
		{
			"bufferView":13,
			"componentType":5126,
			"count":60,
			"type":"VEC2"
		}
	],
	"bufferViews":[
		{
			"buffer":0,
			"byteLength":2880,
			"byteOffset":0,
			"target":34962
		},
		{
			"buffer":0,
			"byteLength":2880,
			"byteOffset":2880,
			"target":34962
		},
		{
			"buffer":0,
			"byteLength":1920,
			"byteOffset":5760,
			"target":34962
		},
		{
			"buffer":0,
			"byteLength":480,
			"byteOffset":7680,
			"target":34963
		},
		{
			"buffer":0,
			"byteLength":720,
			"byteOffset":8160,
			"target":34962
		},
		{
			"buffer":0,
			"byteLength":720,
			"byteOffset":8880,
			"target":34962
		},
		{
			"buffer":0,
			"byteLength":480,
			"byteOffset":9600,
			"target":34962
		},
		{
			"buffer":0,
			"byteLength":120,
			"byteOffset":10080,
			"target":34963
		},
		{
			"buffer":0,
			"byteLength":720,
			"byteOffset":10200,
			"target":34962
		},
		{
			"buffer":0,
			"byteLength":720,
			"byteOffset":10920,
			"target":34962
		},
		{
			"buffer":0,
			"byteLength":480,
			"byteOffset":11640,
			"target":34962
		},
		{
			"buffer":0,
			"byteLength":720,
			"byteOffset":12120,
			"target":34962
		},
		{
			"buffer":0,
			"byteLength":720,
			"byteOffset":12840,
			"target":34962
		},
		{
			"buffer":0,
			"byteLength":480,
			"byteOffset":13560,
			"target":34962
		}
	],
	"buffers":[
		{
			"byteLength":14040,
			"uri":"moon_rock_01.bin"
		}
	]
}
