{"asset": {"generator": "Khronos glTF Blender I/O v5.2.40", "version": "2.0"}, "scene": 0, "scenes": [{"name": "Scene", "nodes": [0]}], "nodes": [{"mesh": 0, "name": "jersey_barrier"}], "materials": [{"doubleSided": true, "name": "concrete_worn", "normalTexture": {"index": 0}, "pbrMetallicRoughness": {"baseColorTexture": {"index": 1}, "metallicFactor": 0, "roughnessFactor": 0.8999999761581421}}], "meshes": [{"name": "jersey_barrier", "primitives": [{"attributes": {"POSITION": 0, "NORMAL": 1, "TEXCOORD_0": 2}, "indices": 3, "material": 0}]}], "textures": [{"sampler": 0, "source": 0}, {"sampler": 0, "source": 1}], "images": [{"mimeType": "image/jpeg", "name": "concrete_floor_worn_02_nor_gl_1k", "uri": "textures/concrete_floor_worn_02_nor_gl_1k.jpg"}, {"mimeType": "image/jpeg", "name": "concrete_floor_worn_02_Diffuse_1k", "uri": "textures/concrete_floor_worn_02_Diffuse_1k.jpg"}], "accessors": [{"bufferView": 0, "componentType": 5126, "count": 6588, "max": [1.1033529043197632, 1.0222785472869873, 0.2826319634914398], "min": [-1.1034952402114868, -0.004010074306279421, -0.28356096148490906], "type": "VEC3"}, {"bufferView": 1, "componentType": 5126, "count": 6588, "type": "VEC3"}, {"bufferView": 2, "componentType": 5126, "count": 6588, "type": "VEC2"}, {"bufferView": 3, "componentType": 5123, "count": 9888, "type": "SCALAR"}], "bufferViews": [{"buffer": 0, "byteLength": 79056, "byteOffset": 0, "target": 34962}, {"buffer": 0, "byteLength": 79056, "byteOffset": 79056, "target": 34962}, {"buffer": 0, "byteLength": 52704, "byteOffset": 158112, "target": 34962}, {"buffer": 0, "byteLength": 19776, "byteOffset": 210816, "target": 34963}], "samplers": [{"magFilter": 9729, "minFilter": 9987}], "buffers": [{"byteLength": 230592, "uri": "bl_jersey_barrier.bin"}]}