{
	"asset":{
		"generator":"Khronos glTF Blender I/O v5.2.40",
		"version":"2.0"
	},
	"scene":0,
	"scenes":[
		{
			"name":"Scene",
			"nodes":[
				0,
				1,
				2,
				3,
				4,
				5,
				6,
				7,
				8,
				9,
				10,
				11,
				12
			]
		}
	],
	"nodes":[
		{
			"mesh":0,
			"name":"can0"
		},
		{
			"mesh":1,
			"name":"can1"
		},
		{
			"mesh":2,
			"name":"can2"
		},
		{
			"mesh":3,
			"name":"can3"
		},
		{
			"mesh":4,
			"name":"can4"
		},
		{
			"mesh":5,
			"name":"can5"
		},
		{
			"mesh":6,
			"name":"canopyDark"
		},
		{
			"mesh":7,
			"name":"crown"
		},
		{
			"mesh":8,
			"name":"root0"
		},
		{
			"mesh":9,
			"name":"root1"
		},
		{
			"mesh":10,
			"name":"root2"
		},
		{
			"mesh":11,
			"name":"root3"
		},
		{
			"mesh":12,
			"name":"trunk"
		}
	],
	"materials":[
		{
			"doubleSided":true,
			"name":"M_canM0",
			"pbrMetallicRoughness":{
				"baseColorFactor":[
					0.5113978385925293,
					0.6940805315971375,
					0.07382776588201523,
					1
				],
				"metallicFactor":0,
				"roughnessFactor":0.8500000238418579
			}
		},
		{
			"doubleSided":true,
			"name":"M_canM1",
			"pbrMetallicRoughness":{
				"baseColorFactor":[
					0.8122414946556091,
					0.24680042266845703,
					0.038472745567560196,
					1
				],
				"metallicFactor":0,
				"roughnessFactor":0.8500000238418579
			}
		},
		{
			"doubleSided":true,
			"name":"M_canM2",
			"pbrMetallicRoughness":{
				"baseColorFactor":[
					0.8122414946556091,
					0.24680042266845703,
					0.038472745567560196,
					1
				],
				"metallicFactor":0,
				"roughnessFactor":0.8500000238418579
			}
		},
		{
			"doubleSided":true,
			"name":"M_canM3",
			"pbrMetallicRoughness":{
				"baseColorFactor":[
					0.5113978385925293,
					0.6940805315971375,
					0.07382776588201523,
					1
				],
				"metallicFactor":0,
				"roughnessFactor":0.8500000238418579
			}
		},
		{
			"doubleSided":true,
			"name":"M_canM4",
			"pbrMetallicRoughness":{
				"baseColorFactor":[
					0.8122414946556091,
					0.24680042266845703,
					0.038472745567560196,
					1
				],
				"metallicFactor":0,
				"roughnessFactor":0.8500000238418579
			}
		},
		{
			"doubleSided":true,
			"name":"M_canM5",
			"pbrMetallicRoughness":{
				"baseColorFactor":[
					0.8122414946556091,
					0.24680042266845703,
					0.038472745567560196,
					1
				],
				"metallicFactor":0,
				"roughnessFactor":0.8500000238418579
			}
		},
		{
			"doubleSided":true,
			"name":"M_canD",
			"pbrMetallicRoughness":{
				"baseColorFactor":[
					0.5924380421638489,
					0.11392093449831009,
					0.019917838275432587,
					1
				],
				"metallicFactor":0,
				"roughnessFactor":0.8500000238418579
			}
		},
		{
			"doubleSided":true,
			"name":"M_crown",
			"pbrMetallicRoughness":{
				"baseColorFactor":[
					0.5113978385925293,
					0.6940805315971375,
					0.07382776588201523,
					1
				],
				"metallicFactor":0,
				"roughnessFactor":0.8500000238418579
			}
		},
		{
			"doubleSided":true,
			"name":"M_mr0",
			"pbrMetallicRoughness":{
				"baseColorFactor":[
					0.11129941791296005,
					0.041451890021562576,
					0.011881334707140923,
					1
				],
				"metallicFactor":0,
				"roughnessFactor":0.8500000238418579
			}
		},
		{
			"doubleSided":true,
			"name":"M_mr1",
			"pbrMetallicRoughness":{
				"baseColorFactor":[
					0.11129941791296005,
					0.041451890021562576,
					0.011881334707140923,
					1
				],
				"metallicFactor":0,
				"roughnessFactor":0.8500000238418579
			}
		},
		{
			"doubleSided":true,
			"name":"M_mr2",
			"pbrMetallicRoughness":{
				"baseColorFactor":[
					0.11129941791296005,
					0.041451890021562576,
					0.011881334707140923,
					1
				],
				"metallicFactor":0,
				"roughnessFactor":0.8500000238418579
			}
		},
		{
			"doubleSided":true,
			"name":"M_mr3",
			"pbrMetallicRoughness":{
				"baseColorFactor":[
					0.11129941791296005,
					0.041451890021562576,
					0.011881334707140923,
					1
				],
				"metallicFactor":0,
				"roughnessFactor":0.8500000238418579
			}
		},
		{
			"doubleSided":true,
			"name":"M_mt",
			"pbrMetallicRoughness":{
				"baseColorFactor":[
					0.11129941791296005,
					0.041451890021562576,
					0.011881334707140923,
					1
				],
				"metallicFactor":0,
				"roughnessFactor":0.8500000238418579
			}
		}
	],
	"meshes":[
		{
			"name":"Icosphere.001",
			"primitives":[
				{
					"attributes":{
						"POSITION":0,
						"NORMAL":1,
						"TEXCOORD_0":2
					},
					"indices":3,
					"material":0
				}
			]
		},
		{
			"name":"Icosphere.002",
			"primitives":[
				{
					"attributes":{
						"POSITION":4,
						"NORMAL":5,
						"TEXCOORD_0":6
					},
					"indices":3,
					"material":1
				}
			]
		},
		{
			"name":"Icosphere.003",
			"primitives":[
				{
					"attributes":{
						"POSITION":7,
						"NORMAL":8,
						"TEXCOORD_0":9
					},
					"indices":3,
					"material":2
				}
			]
		},
		{
			"name":"Icosphere.004",
			"primitives":[
				{
					"attributes":{
						"POSITION":10,
						"NORMAL":11,
						"TEXCOORD_0":12
					},
					"indices":3,
					"material":3
				}
			]
		},
		{
			"name":"Icosphere.005",
			"primitives":[
				{
					"attributes":{
						"POSITION":13,
						"NORMAL":14,
						"TEXCOORD_0":15
					},
					"indices":3,
					"material":4
				}
			]
		},
		{
			"name":"Icosphere.006",
			"primitives":[
				{
					"attributes":{
						"POSITION":16,
						"NORMAL":17,
						"TEXCOORD_0":18
					},
					"indices":3,
					"material":5
				}
			]
		},
		{
			"name":"Icosphere",
			"primitives":[
				{
					"attributes":{
						"POSITION":19,
						"NORMAL":20,
						"TEXCOORD_0":21
					},
					"indices":3,
					"material":6
				}
			]
		},
		{
			"name":"Icosphere.007",
			"primitives":[
				{
					"attributes":{
						"POSITION":22,
						"NORMAL":23,
						"TEXCOORD_0":24
					},
					"indices":25,
					"material":7
				}
			]
		},
		{
			"name":"Cone.001",
			"primitives":[
				{
					"attributes":{
						"POSITION":26,
						"NORMAL":27,
						"TEXCOORD_0":28
					},
					"indices":29,
					"material":8
				}
			]
		},
		{
			"name":"Cone.002",
			"primitives":[
				{
					"attributes":{
						"POSITION":30,
						"NORMAL":31,
						"TEXCOORD_0":32
					},
					"indices":33,
					"material":9
				}
			]
		},
		{
			"name":"Cone.003",
			"primitives":[
				{
					"attributes":{
						"POSITION":34,
						"NORMAL":35,
						"TEXCOORD_0":36
					},
					"indices":37,
					"material":10
				}
			]
		},
		{
			"name":"Cone.004",
			"primitives":[
				{
					"attributes":{
						"POSITION":38,
						"NORMAL":39,
						"TEXCOORD_0":40
					},
					"indices":41,
					"material":11
				}
			]
		},
		{
			"name":"Cone",
			"primitives":[
				{
					"attributes":{
						"POSITION":42,
						"NORMAL":43,
						"TEXCOORD_0":44
					},
					"indices":45,
					"material":12
				}
			]
		}
	],
	"accessors":[
		{
			"bufferView":0,
			"componentType":5126,
			"count":63,
			"max":[
				-0.155042827129364,
				4.327705383300781,
				0.38431715965270996
			],
			"min":[
				-1.593650460243225,
				3.1222832202911377,
				-1.049286961555481
			],
			"type":"VEC3"
		},
		{
			"bufferView":1,
			"componentType":5126,
			"count":63,
			"type":"VEC3"
		},
		{
			"bufferView":2,
			"componentType":5126,
			"count":63,
			"type":"VEC2"
		},
		{
			"bufferView":3,
			"componentType":5123,
			"count":240,
			"type":"SCALAR"
		},
		{
			"bufferView":4,
			"componentType":5126,
			"count":63,
			"max":[
				1.5318896770477295,
				4.32049036026001,
				0.9722239971160889
			],
			"min":[
				0.16181118786334991,
				3.1194591522216797,
				-0.4402333199977875
			],
			"type":"VEC3"
		},
		{
			"bufferView":5,
			"componentType":5126,
			"count":63,
			"type":"VEC3"
		},
		{
			"bufferView":6,
			"componentType":5126,
			"count":63,
			"type":"VEC2"
		},
		{
			"bufferView":7,
			"componentType":5126,
			"count":63,
			"max":[
				0.7098287343978882,
				4.491916179656982,
				-0.15437740087509155
			],
			"min":[
				-0.5758204460144043,
				3.3799448013305664,
				-1.4032350778579712
			],
			"type":"VEC3"
		},
		{
			"bufferView":8,
			"componentType":5126,
			"count":63,
			"type":"VEC3"
		},
		{
			"bufferView":9,
			"componentType":5126,
			"count":63,
			"type":"VEC2"
		},
		{
			"bufferView":10,
			"componentType":5126,
			"count":63,
			"max":[
				0.5024608373641968,
				4.485994815826416,
				1.4882088899612427
			],
			"min":[
				-0.7983677983283997,
				3.3161160945892334,
				0.27215516567230225
			],
			"type":"VEC3"
		},
		{
			"bufferView":11,
			"componentType":5126,
			"count":63,
			"type":"VEC3"
		},
		{
			"bufferView":12,
			"componentType":5126,
			"count":63,
			"type":"VEC2"
		},
		{
			"bufferView":13,
			"componentType":5126,
			"count":63,
			"max":[
				1.2055308818817139,
				4.603405475616455,
				-0.12189464271068573
			],
			"min":[
				0.16251060366630554,
				3.6477103233337402,
				-1.1639814376831055
			],
			"type":"VEC3"
		},
		{
			"bufferView":14,
			"componentType":5126,
			"count":63,
			"type":"VEC3"
		},
		{
			"bufferView":15,
			"componentType":5126,
			"count":63,
			"type":"VEC2"
		},
		{
			"bufferView":16,
			"componentType":5126,
			"count":63,
			"max":[
				-0.209965318441391,
				4.499403476715088,
				1.1040889024734497
			],
			"min":[
				-1.2983479499816895,
				3.5900461673736572,
				0.018975678831338882
			],
			"type":"VEC3"
		},
		{
			"bufferView":17,
			"componentType":5126,
			"count":63,
			"type":"VEC3"
		},
		{
			"bufferView":18,
			"componentType":5126,
			"count":63,
			"type":"VEC2"
		},
		{
			"bufferView":19,
			"componentType":5126,
			"count":63,
			"max":[
				1.299667477607727,
				3.846745252609253,
				1.2891170978546143
			],
			"min":[
				-1.3083608150482178,
				2.4512431621551514,
				-1.374086856842041
			],
			"type":"VEC3"
		},
		{
			"bufferView":20,
			"componentType":5126,
			"count":63,
			"type":"VEC3"
		},
		{
			"bufferView":21,
			"componentType":5126,
			"count":63,
			"type":"VEC2"
		},
		{
			"bufferView":22,
			"componentType":5126,
			"count":22,
			"max":[
				0.6849693655967712,
				5.4353461265563965,
				0.6096329092979431
			],
			"min":[
				-0.5729156136512756,
				4.411655426025391,
				-0.6233152151107788
			],
			"type":"VEC3"
		},
		{
			"bufferView":23,
			"componentType":5126,
			"count":22,
			"type":"VEC3"
		},
		{
			"bufferView":24,
			"componentType":5126,
			"count":22,
			"type":"VEC2"
		},
		{
			"bufferView":25,
			"componentType":5123,
			"count":60,
			"type":"SCALAR"
		},
		{
			"bufferView":26,
			"componentType":5126,
			"count":30,
			"max":[
				0.42028796672821045,
				0.25978392362594604,
				0.047427698969841
			],
			"min":[
				0.012072741985321045,
				-0.08295518904924393,
				-0.41714298725128174
			],
			"type":"VEC3"
		},
		{
			"bufferView":27,
			"componentType":5126,
			"count":30,
			"type":"VEC3"
		},
		{
			"bufferView":28,
			"componentType":5126,
			"count":30,
			"type":"VEC2"
		},
		{
			"bufferView":29,
			"componentType":5123,
			"count":48,
			"type":"SCALAR"
		},
		{
			"bufferView":30,
			"componentType":5126,
			"count":30,
			"max":[
				-0.020338550209999084,
				0.2588419020175934,
				0.04312776029109955
			],
			"min":[
				-0.35834240913391113,
				-0.08886180073022842,
				-0.46184587478637695
			],
			"type":"VEC3"
		},
		{
			"bufferView":31,
			"componentType":5126,
			"count":30,
			"type":"VEC3"
		},
		{
			"bufferView":32,
			"componentType":5126,
			"count":30,
			"type":"VEC2"
		},
		{
			"bufferView":33,
			"componentType":5123,
			"count":48,
			"type":"SCALAR"
		},
		{
			"bufferView":34,
			"componentType":5126,
			"count":30,
			"max":[
				-0.011089339852333069,
				0.25831887125968933,
				0.40336018800735474
			],
			"min":[
				-0.4153709411621094,
				-0.09028046578168869,
				-0.05018426477909088
			],
			"type":"VEC3"
		},
		{
			"bufferView":35,
			"componentType":5126,
			"count":30,
			"type":"VEC3"
		},
		{
			"bufferView":36,
			"componentType":5126,
			"count":30,
			"type":"VEC2"
		},
		{
			"bufferView":37,
			"componentType":5123,
			"count":48,
			"type":"SCALAR"
		},
		{
			"bufferView":38,
			"componentType":5126,
			"count":30,
			"max":[
				0.35728126764297485,
				0.2595002055168152,
				0.450090229511261
			],
			"min":[
				0.020126327872276306,
				-0.08557040244340897,
				-0.045478880405426025
			],
			"type":"VEC3"
		},
		{
			"bufferView":39,
			"componentType":5126,
			"count":30,
			"type":"VEC3"
		},
		{
			"bufferView":40,
			"componentType":5126,
			"count":30,
			"type":"VEC2"
		},
		{
			"bufferView":41,
			"componentType":5123,
			"count":48,
			"type":"SCALAR"
		},
		{
			"bufferView":42,
			"componentType":5126,
			"count":38,
			"max":[
				0.2757461667060852,
				2.5999999046325684,
				0.26311394572257996
			],
			"min":[
				-0.2757461667060852,
				0,
				-0.2800000011920929
			],
			"type":"VEC3"
		},
		{
			"bufferView":43,
			"componentType":5126,
			"count":38,
			"type":"VEC3"
		},
		{
			"bufferView":44,
			"componentType":5126,
			"count":38,
			"type":"VEC2"
		},
		{
			"bufferView":45,
			"componentType":5123,
			"count":96,
			"type":"SCALAR"
		}
	],
	"bufferViews":[
		{
			"buffer":0,
			"byteLength":756,
			"byteOffset":0,
			"target":34962
		},
		{
			"buffer":0,
			"byteLength":756,
			"byteOffset":756,
			"target":34962
		},
		{
			"buffer":0,
			"byteLength":504,
			"byteOffset":1512,
			"target":34962
		},
		{
			"buffer":0,
			"byteLength":480,
			"byteOffset":2016,
			"target":34963
		},
		{
			"buffer":0,
			"byteLength":756,
			"byteOffset":2496,
			"target":34962
		},
		{
			"buffer":0,
			"byteLength":756,
			"byteOffset":3252,
			"target":34962
		},
		{
			"buffer":0,
			"byteLength":504,
			"byteOffset":4008,
			"target":34962
		},
		{
			"buffer":0,
			"byteLength":756,
			"byteOffset":4512,
			"target":34962
		},
		{
			"buffer":0,
			"byteLength":756,
			"byteOffset":5268,
			"target":34962
		},
		{
			"buffer":0,
			"byteLength":504,
			"byteOffset":6024,
			"target":34962
		},
		{
			"buffer":0,
			"byteLength":756,
			"byteOffset":6528,
			"target":34962
		},
		{
			"buffer":0,
			"byteLength":756,
			"byteOffset":7284,
			"target":34962
		},
		{
			"buffer":0,
			"byteLength":504,
			"byteOffset":8040,
			"target":34962
		},
		{
			"buffer":0,
			"byteLength":756,
			"byteOffset":8544,
			"target":34962
		},
		{
			"buffer":0,
			"byteLength":756,
			"byteOffset":9300,
			"target":34962
		},
		{
			"buffer":0,
			"byteLength":504,
			"byteOffset":10056,
			"target":34962
		},
		{
			"buffer":0,
			"byteLength":756,
			"byteOffset":10560,
			"target":34962
		},
		{
			"buffer":0,
			"byteLength":756,
			"byteOffset":11316,
			"target":34962
		},
		{
			"buffer":0,
			"byteLength":504,
			"byteOffset":12072,
			"target":34962
		},
		{
			"buffer":0,
			"byteLength":756,
			"byteOffset":12576,
			"target":34962
		},
		{
			"buffer":0,
			"byteLength":756,
			"byteOffset":13332,
			"target":34962
		},
		{
			"buffer":0,
			"byteLength":504,
			"byteOffset":14088,
			"target":34962
		},
		{
			"buffer":0,
			"byteLength":264,
			"byteOffset":14592,
			"target":34962
		},
		{
			"buffer":0,
			"byteLength":264,
			"byteOffset":14856,
			"target":34962
		},
		{
			"buffer":0,
			"byteLength":176,
			"byteOffset":15120,
			"target":34962
		},
		{
			"buffer":0,
			"byteLength":120,
			"byteOffset":15296,
			"target":34963
		},
		{
			"buffer":0,
			"byteLength":360,
			"byteOffset":15416,
			"target":34962
		},
		{
			"buffer":0,
			"byteLength":360,
			"byteOffset":15776,
			"target":34962
		},
		{
			"buffer":0,
			"byteLength":240,
			"byteOffset":16136,
			"target":34962
		},
		{
			"buffer":0,
			"byteLength":96,
			"byteOffset":16376,
			"target":34963
		},
		{
			"buffer":0,
			"byteLength":360,
			"byteOffset":16472,
			"target":34962
		},
		{
			"buffer":0,
			"byteLength":360,
			"byteOffset":16832,
			"target":34962
		},
		{
			"buffer":0,
			"byteLength":240,
			"byteOffset":17192,
			"target":34962
		},
		{
			"buffer":0,
			"byteLength":96,
			"byteOffset":17432,
			"target":34963
		},
		{
			"buffer":0,
			"byteLength":360,
			"byteOffset":17528,
			"target":34962
		},
		{
			"buffer":0,
			"byteLength":360,
			"byteOffset":17888,
			"target":34962
		},
		{
			"buffer":0,
			"byteLength":240,
			"byteOffset":18248,
			"target":34962
		},
		{
			"buffer":0,
			"byteLength":96,
			"byteOffset":18488,
			"target":34963
		},
		{
			"buffer":0,
			"byteLength":360,
			"byteOffset":18584,
			"target":34962
		},
		{
			"buffer":0,
			"byteLength":360,
			"byteOffset":18944,
			"target":34962
		},
		{
			"buffer":0,
			"byteLength":240,
			"byteOffset":19304,
			"target":34962
		},
		{
			"buffer":0,
			"byteLength":96,
			"byteOffset":19544,
			"target":34963
		},
		{
			"buffer":0,
			"byteLength":456,
			"byteOffset":19640,
			"target":34962
		},
		{
			"buffer":0,
			"byteLength":456,
			"byteOffset":20096,
			"target":34962
		},
		{
			"buffer":0,
			"byteLength":304,
			"byteOffset":20552,
			"target":34962
		},
		{
			"buffer":0,
			"byteLength":192,
			"byteOffset":20856,
			"target":34963
		}
	],
	"buffers":[
		{
			"byteLength":21048,
			"uri":"hd_maple.bin"
		}
	]
}
