{
	"asset":{
		"generator":"Khronos glTF Blender I/O v5.2.40",
		"version":"2.0"
	},
	"scene":0,
	"scenes":[
		{
			"name":"Scene",
			"nodes":[
				0,
				1,
				2,
				3,
				4,
				5,
				6,
				7,
				8,
				9,
				10,
				11,
				12,
				13,
				14,
				15
			]
		}
	],
	"nodes":[
		{
			"mesh":0,
			"name":"can0"
		},
		{
			"mesh":1,
			"name":"can1"
		},
		{
			"mesh":2,
			"name":"can2"
		},
		{
			"mesh":3,
			"name":"can3"
		},
		{
			"mesh":4,
			"name":"can4"
		},
		{
			"mesh":5,
			"name":"can5"
		},
		{
			"mesh":6,
			"name":"canopyDark"
		},
		{
			"mesh":7,
			"name":"crown"
		},
		{
			"mesh":8,
			"name":"mark0"
		},
		{
			"mesh":9,
			"name":"mark1"
		},
		{
			"mesh":10,
			"name":"mark2"
		},
		{
			"mesh":11,
			"name":"mark3"
		},
		{
			"mesh":12,
			"name":"mark4"
		},
		{
			"mesh":13,
			"name":"mark5"
		},
		{
			"mesh":14,
			"name":"mark6"
		},
		{
			"mesh":15,
			"name":"trunk"
		}
	],
	"materials":[
		{
			"doubleSided":true,
			"name":"M_canM0",
			"pbrMetallicRoughness":{
				"baseColorFactor":[
					0.5604991316795349,
					0.7372047901153564,
					0.10114516317844391,
					1
				],
				"metallicFactor":0,
				"roughnessFactor":0.8500000238418579
			}
		},
		{
			"doubleSided":true,
			"name":"M_canM1",
			"pbrMetallicRoughness":{
				"baseColorFactor":[
					0.5604991316795349,
					0.7372047901153564,
					0.10114516317844391,
					1
				],
				"metallicFactor":0,
				"roughnessFactor":0.8500000238418579
			}
		},
		{
			"doubleSided":true,
			"name":"M_canM2",
			"pbrMetallicRoughness":{
				"baseColorFactor":[
					0.5604991316795349,
					0.7372047901153564,
					0.10114516317844391,
					1
				],
				"metallicFactor":0,
				"roughnessFactor":0.8500000238418579
			}
		},
		{
			"doubleSided":true,
			"name":"M_canM3",
			"pbrMetallicRoughness":{
				"baseColorFactor":[
					0.5604991316795349,
					0.7372047901153564,
					0.10114516317844391,
					1
				],
				"metallicFactor":0,
				"roughnessFactor":0.8500000238418579
			}
		},
		{
			"doubleSided":true,
			"name":"M_canM4",
			"pbrMetallicRoughness":{
				"baseColorFactor":[
					0.5604991316795349,
					0.7372047901153564,
					0.10114516317844391,
					1
				],
				"metallicFactor":0,
				"roughnessFactor":0.8500000238418579
			}
		},
		{
			"doubleSided":true,
			"name":"M_canM5",
			"pbrMetallicRoughness":{
				"baseColorFactor":[
					0.5604991316795349,
					0.7372047901153564,
					0.10114516317844391,
					1
				],
				"metallicFactor":0,
				"roughnessFactor":0.8500000238418579
			}
		},
		{
			"doubleSided":true,
			"name":"M_canD",
			"pbrMetallicRoughness":{
				"baseColorFactor":[
					0.044552627950906754,
					0.25491586327552795,
					0.06190747395157814,
					1
				],
				"metallicFactor":0,
				"roughnessFactor":0.8500000238418579
			}
		},
		{
			"doubleSided":true,
			"name":"M_crown",
			"pbrMetallicRoughness":{
				"baseColorFactor":[
					0.5113978385925293,
					0.6940805315971375,
					0.07382776588201523,
					1
				],
				"metallicFactor":0,
				"roughnessFactor":0.8500000238418579
			}
		},
		{
			"doubleSided":true,
			"name":"M_mk0",
			"pbrMetallicRoughness":{
				"baseColorFactor":[
					0.06575387716293335,
					0.05112205073237419,
					0.03561437129974365,
					1
				],
				"metallicFactor":0,
				"roughnessFactor":0.8500000238418579
			}
		},
		{
			"doubleSided":true,
			"name":"M_mk1",
			"pbrMetallicRoughness":{
				"baseColorFactor":[
					0.06575387716293335,
					0.05112205073237419,
					0.03561437129974365,
					1
				],
				"metallicFactor":0,
				"roughnessFactor":0.8500000238418579
			}
		},
		{
			"doubleSided":true,
			"name":"M_mk2",
			"pbrMetallicRoughness":{
				"baseColorFactor":[
					0.06575387716293335,
					0.05112205073237419,
					0.03561437129974365,
					1
				],
				"metallicFactor":0,
				"roughnessFactor":0.8500000238418579
			}
		},
		{
			"doubleSided":true,
			"name":"M_mk3",
			"pbrMetallicRoughness":{
				"baseColorFactor":[
					0.06575387716293335,
					0.05112205073237419,
					0.03561437129974365,
					1
				],
				"metallicFactor":0,
				"roughnessFactor":0.8500000238418579
			}
		},
		{
			"doubleSided":true,
			"name":"M_mk4",
			"pbrMetallicRoughness":{
				"baseColorFactor":[
					0.06575387716293335,
					0.05112205073237419,
					0.03561437129974365,
					1
				],
				"metallicFactor":0,
				"roughnessFactor":0.8500000238418579
			}
		},
		{
			"doubleSided":true,
			"name":"M_mk5",
			"pbrMetallicRoughness":{
				"baseColorFactor":[
					0.06575387716293335,
					0.05112205073237419,
					0.03561437129974365,
					1
				],
				"metallicFactor":0,
				"roughnessFactor":0.8500000238418579
			}
		},
		{
			"doubleSided":true,
			"name":"M_mk6",
			"pbrMetallicRoughness":{
				"baseColorFactor":[
					0.06575387716293335,
					0.05112205073237419,
					0.03561437129974365,
					1
				],
				"metallicFactor":0,
				"roughnessFactor":0.8500000238418579
			}
		},
		{
			"doubleSided":true,
			"name":"M_bi",
			"pbrMetallicRoughness":{
				"baseColorFactor":[
					0.8277257680892944,
					0.7817506790161133,
					0.6661169528961182,
					1
				],
				"metallicFactor":0,
				"roughnessFactor":0.8500000238418579
			}
		}
	],
	"meshes":[
		{
			"name":"Icosphere.001",
			"primitives":[
				{
					"attributes":{
						"POSITION":0,
						"NORMAL":1,
						"TEXCOORD_0":2
					},
					"indices":3,
					"material":0
				}
			]
		},
		{
			"name":"Icosphere.002",
			"primitives":[
				{
					"attributes":{
						"POSITION":4,
						"NORMAL":5,
						"TEXCOORD_0":6
					},
					"indices":3,
					"material":1
				}
			]
		},
		{
			"name":"Icosphere.003",
			"primitives":[
				{
					"attributes":{
						"POSITION":7,
						"NORMAL":8,
						"TEXCOORD_0":9
					},
					"indices":3,
					"material":2
				}
			]
		},
		{
			"name":"Icosphere.004",
			"primitives":[
				{
					"attributes":{
						"POSITION":10,
						"NORMAL":11,
						"TEXCOORD_0":12
					},
					"indices":3,
					"material":3
				}
			]
		},
		{
			"name":"Icosphere.005",
			"primitives":[
				{
					"attributes":{
						"POSITION":13,
						"NORMAL":14,
						"TEXCOORD_0":15
					},
					"indices":3,
					"material":4
				}
			]
		},
		{
			"name":"Icosphere.006",
			"primitives":[
				{
					"attributes":{
						"POSITION":16,
						"NORMAL":17,
						"TEXCOORD_0":18
					},
					"indices":3,
					"material":5
				}
			]
		},
		{
			"name":"Icosphere",
			"primitives":[
				{
					"attributes":{
						"POSITION":19,
						"NORMAL":20,
						"TEXCOORD_0":21
					},
					"indices":3,
					"material":6
				}
			]
		},
		{
			"name":"Icosphere.007",
			"primitives":[
				{
					"attributes":{
						"POSITION":22,
						"NORMAL":23,
						"TEXCOORD_0":24
					},
					"indices":25,
					"material":7
				}
			]
		},
		{
			"name":"Cube",
			"primitives":[
				{
					"attributes":{
						"POSITION":26,
						"NORMAL":27,
						"TEXCOORD_0":28
					},
					"indices":29,
					"material":8
				}
			]
		},
		{
			"name":"Cube.001",
			"primitives":[
				{
					"attributes":{
						"POSITION":30,
						"NORMAL":31,
						"TEXCOORD_0":32
					},
					"indices":33,
					"material":9
				}
			]
		},
		{
			"name":"Cube.002",
			"primitives":[
				{
					"attributes":{
						"POSITION":34,
						"NORMAL":35,
						"TEXCOORD_0":36
					},
					"indices":37,
					"material":10
				}
			]
		},
		{
			"name":"Cube.003",
			"primitives":[
				{
					"attributes":{
						"POSITION":38,
						"NORMAL":39,
						"TEXCOORD_0":40
					},
					"indices":33,
					"material":11
				}
			]
		},
		{
			"name":"Cube.004",
			"primitives":[
				{
					"attributes":{
						"POSITION":41,
						"NORMAL":42,
						"TEXCOORD_0":43
					},
					"indices":37,
					"material":12
				}
			]
		},
		{
			"name":"Cube.005",
			"primitives":[
				{
					"attributes":{
						"POSITION":44,
						"NORMAL":45,
						"TEXCOORD_0":46
					},
					"indices":29,
					"material":13
				}
			]
		},
		{
			"name":"Cube.006",
			"primitives":[
				{
					"attributes":{
						"POSITION":47,
						"NORMAL":48,
						"TEXCOORD_0":49
					},
					"indices":33,
					"material":14
				}
			]
		},
		{
			"name":"Cone",
			"primitives":[
				{
					"attributes":{
						"POSITION":50,
						"NORMAL":51,
						"TEXCOORD_0":52
					},
					"indices":53,
					"material":15
				}
			]
		}
	],
	"accessors":[
		{
			"bufferView":0,
			"componentType":5126,
			"count":63,
			"max":[
				-0.12896859645843506,
				5.078660011291504,
				0.3090321719646454
			],
			"min":[
				-1.2950083017349243,
				3.9177238941192627,
				-0.7883023619651794
			],
			"type":"VEC3"
		},
		{
			"bufferView":1,
			"componentType":5126,
			"count":63,
			"type":"VEC3"
		},
		{
			"bufferView":2,
			"componentType":5126,
			"count":63,
			"type":"VEC2"
		},
		{
			"bufferView":3,
			"componentType":5123,
			"count":240,
			"type":"SCALAR"
		},
		{
			"bufferView":4,
			"componentType":5126,
			"count":63,
			"max":[
				1.2659022808074951,
				5.127604007720947,
				0.7865321040153503
			],
			"min":[
				0.1486787497997284,
				3.991102695465088,
				-0.3403526842594147
			],
			"type":"VEC3"
		},
		{
			"bufferView":5,
			"componentType":5126,
			"count":63,
			"type":"VEC3"
		},
		{
			"bufferView":6,
			"componentType":5126,
			"count":63,
			"type":"VEC2"
		},
		{
			"bufferView":7,
			"componentType":5126,
			"count":63,
			"max":[
				0.5809054374694824,
				5.243768692016602,
				-0.0977974534034729
			],
			"min":[
				-0.43256160616874695,
				4.156192779541016,
				-1.1904659271240234
			],
			"type":"VEC3"
		},
		{
			"bufferView":8,
			"componentType":5126,
			"count":63,
			"type":"VEC3"
		},
		{
			"bufferView":9,
			"componentType":5126,
			"count":63,
			"type":"VEC2"
		},
		{
			"bufferView":10,
			"componentType":5126,
			"count":63,
			"max":[
				0.3928312063217163,
				5.239870548248291,
				1.233755111694336
			],
			"min":[
				-0.6449536085128784,
				4.2220611572265625,
				0.19323498010635376
			],
			"type":"VEC3"
		},
		{
			"bufferView":11,
			"componentType":5126,
			"count":63,
			"type":"VEC3"
		},
		{
			"bufferView":12,
			"componentType":5126,
			"count":63,
			"type":"VEC2"
		},
		{
			"bufferView":13,
			"componentType":5126,
			"count":63,
			"max":[
				1.000473141670227,
				5.342724323272705,
				-0.09779147803783417
			],
			"min":[
				0.10097990930080414,
				4.390667915344238,
				-1.0237025022506714
			],
			"type":"VEC3"
		},
		{
			"bufferView":14,
			"componentType":5126,
			"count":63,
			"type":"VEC3"
		},
		{
			"bufferView":15,
			"componentType":5126,
			"count":63,
			"type":"VEC2"
		},
		{
			"bufferView":16,
			"componentType":5126,
			"count":63,
			"max":[
				-0.18907000124454498,
				5.294224262237549,
				0.9100239276885986
			],
			"min":[
				-1.0620841979980469,
				4.415821552276611,
				0.0156669020652771
			],
			"type":"VEC3"
		},
		{
			"bufferView":17,
			"componentType":5126,
			"count":63,
			"type":"VEC3"
		},
		{
			"bufferView":18,
			"componentType":5126,
			"count":63,
			"type":"VEC2"
		},
		{
			"bufferView":19,
			"componentType":5126,
			"count":63,
			"max":[
				1.0749297142028809,
				4.63778018951416,
				1.05783212184906
			],
			"min":[
				-1.0589065551757812,
				3.3026037216186523,
				-1.0571023225784302
			],
			"type":"VEC3"
		},
		{
			"bufferView":20,
			"componentType":5126,
			"count":63,
			"type":"VEC3"
		},
		{
			"bufferView":21,
			"componentType":5126,
			"count":63,
			"type":"VEC2"
		},
		{
			"bufferView":22,
			"componentType":5126,
			"count":22,
			"max":[
				0.5979374647140503,
				6.111733436584473,
				0.5180468559265137
			],
			"min":[
				-0.48443034291267395,
				5.147423267364502,
				-0.5123869776725769
			],
			"type":"VEC3"
		},
		{
			"bufferView":23,
			"componentType":5126,
			"count":22,
			"type":"VEC3"
		},
		{
			"bufferView":24,
			"componentType":5126,
			"count":22,
			"type":"VEC2"
		},
		{
			"bufferView":25,
			"componentType":5123,
			"count":60,
			"type":"SCALAR"
		},
		{
			"bufferView":26,
			"componentType":5126,
			"count":24,
			"max":[
				0.21073484420776367,
				0.48499998450279236,
				0.026281073689460754
			],
			"min":[
				-0.042535923421382904,
				0.41499999165534973,
				-0.29851096868515015
			],
			"type":"VEC3"
		},
		{
			"bufferView":27,
			"componentType":5126,
			"count":24,
			"type":"VEC3"
		},
		{
			"bufferView":28,
			"componentType":5126,
			"count":24,
			"type":"VEC2"
		},
		{
			"bufferView":29,
			"componentType":5123,
			"count":36,
			"type":"SCALAR"
		},
		{
			"bufferView":30,
			"componentType":5126,
			"count":24,
			"max":[
				0.3075518012046814,
				0.9350000023841858,
				0.04448962211608887
			],
			"min":[
				-0.022818297147750854,
				0.8649999499320984,
				-0.19052669405937195
			],
			"type":"VEC3"
		},
		{
			"bufferView":31,
			"componentType":5126,
			"count":24,
			"type":"VEC3"
		},
		{
			"bufferView":32,
			"componentType":5126,
			"count":24,
			"type":"VEC2"
		},
		{
			"bufferView":33,
			"componentType":5123,
			"count":36,
			"type":"SCALAR"
		},
		{
			"bufferView":34,
			"componentType":5126,
			"count":24,
			"max":[
				0.0444834902882576,
				1.3849999904632568,
				0.022830218076705933
			],
			"min":[
				-0.19059687852859497,
				1.315000057220459,
				-0.30752459168434143
			],
			"type":"VEC3"
		},
		{
			"bufferView":35,
			"componentType":5126,
			"count":24,
			"type":"VEC3"
		},
		{
			"bufferView":36,
			"componentType":5126,
			"count":24,
			"type":"VEC2"
		},
		{
			"bufferView":37,
			"componentType":5123,
			"count":36,
			"type":"SCALAR"
		},
		{
			"bufferView":38,
			"componentType":5126,
			"count":24,
			"max":[
				0.3230302333831787,
				1.834999918937683,
				0.04871092736721039
			],
			"min":[
				-0.01128031313419342,
				1.7649999856948853,
				-0.12090493738651276
			],
			"type":"VEC3"
		},
		{
			"bufferView":39,
			"componentType":5126,
			"count":24,
			"type":"VEC3"
		},
		{
			"bufferView":40,
			"componentType":5126,
			"count":24,
			"type":"VEC2"
		},
		{
			"bufferView":41,
			"componentType":5126,
			"count":24,
			"max":[
				0.04968264326453209,
				2.2850000858306885,
				0.005624368786811829
			],
			"min":[
				-0.0856788158416748,
				2.2149999141693115,
				-0.3235933780670166
			],
			"type":"VEC3"
		},
		{
			"bufferView":42,
			"componentType":5126,
			"count":24,
			"type":"VEC3"
		},
		{
			"bufferView":43,
			"componentType":5126,
			"count":24,
			"type":"VEC2"
		},
		{
			"bufferView":44,
			"componentType":5126,
			"count":24,
			"max":[
				0.17666766047477722,
				2.7350001335144043,
				0.0204770565032959
			],
			"min":[
				-0.045614585280418396,
				2.6649999618530273,
				-0.3124104142189026
			],
			"type":"VEC3"
		},
		{
			"bufferView":45,
			"componentType":5126,
			"count":24,
			"type":"VEC3"
		},
		{
			"bufferView":46,
			"componentType":5126,
			"count":24,
			"type":"VEC2"
		},
		{
			"bufferView":47,
			"componentType":5126,
			"count":24,
			"max":[
				0.32376277446746826,
				3.18500018119812,
				0.0491722896695137
			],
			"min":[
				-0.009060129523277283,
				3.115000009536743,
				-0.10715707391500473
			],
			"type":"VEC3"
		},
		{
			"bufferView":48,
			"componentType":5126,
			"count":24,
			"type":"VEC3"
		},
		{
			"bufferView":49,
			"componentType":5126,
			"count":24,
			"type":"VEC2"
		},
		{
			"bufferView":50,
			"componentType":5126,
			"count":38,
			"max":[
				0.19696155190467834,
				3.799999952316284,
				0.18793852627277374
			],
			"min":[
				-0.19696155190467834,
				0,
				-0.20000000298023224
			],
			"type":"VEC3"
		},
		{
			"bufferView":51,
			"componentType":5126,
			"count":38,
			"type":"VEC3"
		},
		{
			"bufferView":52,
			"componentType":5126,
			"count":38,
			"type":"VEC2"
		},
		{
			"bufferView":53,
			"componentType":5123,
			"count":96,
			"type":"SCALAR"
		}
	],
	"bufferViews":[
		{
			"buffer":0,
			"byteLength":756,
			"byteOffset":0,
			"target":34962
		},
		{
			"buffer":0,
			"byteLength":756,
			"byteOffset":756,
			"target":34962
		},
		{
			"buffer":0,
			"byteLength":504,
			"byteOffset":1512,
			"target":34962
		},
		{
			"buffer":0,
			"byteLength":480,
			"byteOffset":2016,
			"target":34963
		},
		{
			"buffer":0,
			"byteLength":756,
			"byteOffset":2496,
			"target":34962
		},
		{
			"buffer":0,
			"byteLength":756,
			"byteOffset":3252,
			"target":34962
		},
		{
			"buffer":0,
			"byteLength":504,
			"byteOffset":4008,
			"target":34962
		},
		{
			"buffer":0,
			"byteLength":756,
			"byteOffset":4512,
			"target":34962
		},
		{
			"buffer":0,
			"byteLength":756,
			"byteOffset":5268,
			"target":34962
		},
		{
			"buffer":0,
			"byteLength":504,
			"byteOffset":6024,
			"target":34962
		},
		{
			"buffer":0,
			"byteLength":756,
			"byteOffset":6528,
			"target":34962
		},
		{
			"buffer":0,
			"byteLength":756,
			"byteOffset":7284,
			"target":34962
		},
		{
			"buffer":0,
			"byteLength":504,
			"byteOffset":8040,
			"target":34962
		},
		{
			"buffer":0,
			"byteLength":756,
			"byteOffset":8544,
			"target":34962
		},
		{
			"buffer":0,
			"byteLength":756,
			"byteOffset":9300,
			"target":34962
		},
		{
			"buffer":0,
			"byteLength":504,
			"byteOffset":10056,
			"target":34962
		},
		{
			"buffer":0,
			"byteLength":756,
			"byteOffset":10560,
			"target":34962
		},
		{
			"buffer":0,
			"byteLength":756,
			"byteOffset":11316,
			"target":34962
		},
		{
			"buffer":0,
			"byteLength":504,
			"byteOffset":12072,
			"target":34962
		},
		{
			"buffer":0,
			"byteLength":756,
			"byteOffset":12576,
			"target":34962
		},
		{
			"buffer":0,
			"byteLength":756,
			"byteOffset":13332,
			"target":34962
		},
		{
			"buffer":0,
			"byteLength":504,
			"byteOffset":14088,
			"target":34962
		},
		{
			"buffer":0,
			"byteLength":264,
			"byteOffset":14592,
			"target":34962
		},
		{
			"buffer":0,
			"byteLength":264,
			"byteOffset":14856,
			"target":34962
		},
		{
			"buffer":0,
			"byteLength":176,
			"byteOffset":15120,
			"target":34962
		},
		{
			"buffer":0,
			"byteLength":120,
			"byteOffset":15296,
			"target":34963
		},
		{
			"buffer":0,
			"byteLength":288,
			"byteOffset":15416,
			"target":34962
		},
		{
			"buffer":0,
			"byteLength":288,
			"byteOffset":15704,
			"target":34962
		},
		{
			"buffer":0,
			"byteLength":192,
			"byteOffset":15992,
			"target":34962
		},
		{
			"buffer":0,
			"byteLength":72,
			"byteOffset":16184,
			"target":34963
		},
		{
			"buffer":0,
			"byteLength":288,
			"byteOffset":16256,
			"target":34962
		},
		{
			"buffer":0,
			"byteLength":288,
			"byteOffset":16544,
			"target":34962
		},
		{
			"buffer":0,
			"byteLength":192,
			"byteOffset":16832,
			"target":34962
		},
		{
			"buffer":0,
			"byteLength":72,
			"byteOffset":17024,
			"target":34963
		},
		{
			"buffer":0,
			"byteLength":288,
			"byteOffset":17096,
			"target":34962
		},
		{
			"buffer":0,
			"byteLength":288,
			"byteOffset":17384,
			"target":34962
		},
		{
			"buffer":0,
			"byteLength":192,
			"byteOffset":17672,
			"target":34962
		},
		{
			"buffer":0,
			"byteLength":72,
			"byteOffset":17864,
			"target":34963
		},
		{
			"buffer":0,
			"byteLength":288,
			"byteOffset":17936,
			"target":34962
		},
		{
			"buffer":0,
			"byteLength":288,
			"byteOffset":18224,
			"target":34962
		},
		{
			"buffer":0,
			"byteLength":192,
			"byteOffset":18512,
			"target":34962
		},
		{
			"buffer":0,
			"byteLength":288,
			"byteOffset":18704,
			"target":34962
		},
		{
			"buffer":0,
			"byteLength":288,
			"byteOffset":18992,
			"target":34962
		},
		{
			"buffer":0,
			"byteLength":192,
			"byteOffset":19280,
			"target":34962
		},
		{
			"buffer":0,
			"byteLength":288,
			"byteOffset":19472,
			"target":34962
		},
		{
			"buffer":0,
			"byteLength":288,
			"byteOffset":19760,
			"target":34962
		},
		{
			"buffer":0,
			"byteLength":192,
			"byteOffset":20048,
			"target":34962
		},
		{
			"buffer":0,
			"byteLength":288,
			"byteOffset":20240,
			"target":34962
		},
		{
			"buffer":0,
			"byteLength":288,
			"byteOffset":20528,
			"target":34962
		},
		{
			"buffer":0,
			"byteLength":192,
			"byteOffset":20816,
			"target":34962
		},
		{
			"buffer":0,
			"byteLength":456,
			"byteOffset":21008,
			"target":34962
		},
		{
			"buffer":0,
			"byteLength":456,
			"byteOffset":21464,
			"target":34962
		},
		{
			"buffer":0,
			"byteLength":304,
			"byteOffset":21920,
			"target":34962
		},
		{
			"buffer":0,
			"byteLength":192,
			"byteOffset":22224,
			"target":34963
		}
	],
	"buffers":[
		{
			"byteLength":22416,
			"uri":"hd_birch.bin"
		}
	]
}
