{
	"asset":{
		"generator":"Khronos glTF Blender I/O v5.2.40",
		"version":"2.0"
	},
	"scene":0,
	"scenes":[
		{
			"name":"Scene",
			"nodes":[
				0,
				1,
				2,
				3,
				4,
				5,
				6,
				7,
				8
			]
		}
	],
	"nodes":[
		{
			"mesh":0,
			"name":"c0"
		},
		{
			"mesh":1,
			"name":"c1"
		},
		{
			"mesh":2,
			"name":"c2"
		},
		{
			"mesh":3,
			"name":"edge0_0.32"
		},
		{
			"mesh":4,
			"name":"edge0_-0.32"
		},
		{
			"mesh":5,
			"name":"edge1_0.32"
		},
		{
			"mesh":6,
			"name":"edge1_-0.32"
		},
		{
			"mesh":7,
			"name":"edge2_0.32"
		},
		{
			"mesh":8,
			"name":"edge2_-0.32"
		}
	],
	"materials":[
		{
			"doubleSided":true,
			"name":"M_cr0",
			"pbrMetallicRoughness":{
				"baseColorFactor":[
					0.5668097138404846,
					0.2590273320674896,
					0.06575387716293335,
					1
				],
				"metallicFactor":0,
				"roughnessFactor":0.8500000238418579
			}
		},
		{
			"doubleSided":true,
			"name":"M_cr1",
			"pbrMetallicRoughness":{
				"baseColorFactor":[
					0.5668097138404846,
					0.2590273320674896,
					0.06575387716293335,
					1
				],
				"metallicFactor":0,
				"roughnessFactor":0.8500000238418579
			}
		},
		{
			"doubleSided":true,
			"name":"M_cr2",
			"pbrMetallicRoughness":{
				"baseColorFactor":[
					0.5668097138404846,
					0.2590273320674896,
					0.06575387716293335,
					1
				],
				"metallicFactor":0,
				"roughnessFactor":0.8500000238418579
			}
		},
		{
			"doubleSided":true,
			"name":"M_ce0_0.32",
			"pbrMetallicRoughness":{
				"baseColorFactor":[
					0.33922332525253296,
					0.14799802005290985,
					0.03561437129974365,
					1
				],
				"metallicFactor":0,
				"roughnessFactor":0.8500000238418579
			}
		},
		{
			"doubleSided":true,
			"name":"M_ce0_-0.32",
			"pbrMetallicRoughness":{
				"baseColorFactor":[
					0.33922332525253296,
					0.14799802005290985,
					0.03561437129974365,
					1
				],
				"metallicFactor":0,
				"roughnessFactor":0.8500000238418579
			}
		},
		{
			"doubleSided":true,
			"name":"M_ce1_0.32",
			"pbrMetallicRoughness":{
				"baseColorFactor":[
					0.33922332525253296,
					0.14799802005290985,
					0.03561437129974365,
					1
				],
				"metallicFactor":0,
				"roughnessFactor":0.8500000238418579
			}
		},
		{
			"doubleSided":true,
			"name":"M_ce1_-0.32",
			"pbrMetallicRoughness":{
				"baseColorFactor":[
					0.33922332525253296,
					0.14799802005290985,
					0.03561437129974365,
					1
				],
				"metallicFactor":0,
				"roughnessFactor":0.8500000238418579
			}
		},
		{
			"doubleSided":true,
			"name":"M_ce2_0.32",
			"pbrMetallicRoughness":{
				"baseColorFactor":[
					0.33922332525253296,
					0.14799802005290985,
					0.03561437129974365,
					1
				],
				"metallicFactor":0,
				"roughnessFactor":0.8500000238418579
			}
		},
		{
			"doubleSided":true,
			"name":"M_ce2_-0.32",
			"pbrMetallicRoughness":{
				"baseColorFactor":[
					0.33922332525253296,
					0.14799802005290985,
					0.03561437129974365,
					1
				],
				"metallicFactor":0,
				"roughnessFactor":0.8500000238418579
			}
		}
	],
	"meshes":[
		{
			"name":"Cube",
			"primitives":[
				{
					"attributes":{
						"POSITION":0,
						"NORMAL":1,
						"TEXCOORD_0":2
					},
					"indices":3,
					"material":0
				}
			]
		},
		{
			"name":"Cube.003",
			"primitives":[
				{
					"attributes":{
						"POSITION":4,
						"NORMAL":5,
						"TEXCOORD_0":6
					},
					"indices":7,
					"material":1
				}
			]
		},
		{
			"name":"Cube.006",
			"primitives":[
				{
					"attributes":{
						"POSITION":8,
						"NORMAL":9,
						"TEXCOORD_0":10
					},
					"indices":11,
					"material":2
				}
			]
		},
		{
			"name":"Cube.002",
			"primitives":[
				{
					"attributes":{
						"POSITION":12,
						"NORMAL":13,
						"TEXCOORD_0":14
					},
					"indices":15,
					"material":3
				}
			]
		},
		{
			"name":"Cube.001",
			"primitives":[
				{
					"attributes":{
						"POSITION":16,
						"NORMAL":17,
						"TEXCOORD_0":18
					},
					"indices":15,
					"material":4
				}
			]
		},
		{
			"name":"Cube.005",
			"primitives":[
				{
					"attributes":{
						"POSITION":19,
						"NORMAL":20,
						"TEXCOORD_0":21
					},
					"indices":22,
					"material":5
				}
			]
		},
		{
			"name":"Cube.004",
			"primitives":[
				{
					"attributes":{
						"POSITION":23,
						"NORMAL":24,
						"TEXCOORD_0":25
					},
					"indices":22,
					"material":6
				}
			]
		},
		{
			"name":"Cube.008",
			"primitives":[
				{
					"attributes":{
						"POSITION":26,
						"NORMAL":27,
						"TEXCOORD_0":28
					},
					"indices":15,
					"material":7
				}
			]
		},
		{
			"name":"Cube.007",
			"primitives":[
				{
					"attributes":{
						"POSITION":29,
						"NORMAL":30,
						"TEXCOORD_0":31
					},
					"indices":15,
					"material":8
				}
			]
		}
	],
	"accessors":[
		{
			"bufferView":0,
			"componentType":5126,
			"count":96,
			"max":[
				0.08153177052736282,
				0.699999988079071,
				0.3815317749977112
			],
			"min":[
				-0.6815317869186401,
				0,
				-0.3815317749977112
			],
			"type":"VEC3"
		},
		{
			"bufferView":1,
			"componentType":5126,
			"count":96,
			"type":"VEC3"
		},
		{
			"bufferView":2,
			"componentType":5126,
			"count":96,
			"type":"VEC2"
		},
		{
			"bufferView":3,
			"componentType":5123,
			"count":132,
			"type":"SCALAR"
		},
		{
			"bufferView":4,
			"componentType":5126,
			"count":96,
			"max":[
				0.6699850559234619,
				0.6299999952316284,
				0.29998505115509033
			],
			"min":[
				-0.02998506650328636,
				0.009999990463256836,
				-0.39998507499694824
			],
			"type":"VEC3"
		},
		{
			"bufferView":5,
			"componentType":5126,
			"count":96,
			"type":"VEC3"
		},
		{
			"bufferView":6,
			"componentType":5126,
			"count":96,
			"type":"VEC2"
		},
		{
			"bufferView":7,
			"componentType":5123,
			"count":132,
			"type":"SCALAR"
		},
		{
			"bufferView":8,
			"componentType":5126,
			"count":96,
			"max":[
				0.33223602175712585,
				1.2000000476837158,
				0.36223602294921875
			],
			"min":[
				-0.29223600029945374,
				0.699999988079071,
				-0.26223599910736084
			],
			"type":"VEC3"
		},
		{
			"bufferView":9,
			"componentType":5126,
			"count":96,
			"type":"VEC3"
		},
		{
			"bufferView":10,
			"componentType":5126,
			"count":96,
			"type":"VEC2"
		},
		{
			"bufferView":11,
			"componentType":5123,
			"count":132,
			"type":"SCALAR"
		},
		{
			"bufferView":12,
			"componentType":5126,
			"count":24,
			"max":[
				0.011356346309185028,
				0.7100000381469727,
				0.3632543385028839
			],
			"min":[
				-0.16335633397102356,
				-0.010000020265579224,
				-0.3632543385028839
			],
			"type":"VEC3"
		},
		{
			"bufferView":13,
			"componentType":5126,
			"count":24,
			"type":"VEC3"
		},
		{
			"bufferView":14,
			"componentType":5126,
			"count":24,
			"type":"VEC2"
		},
		{
			"bufferView":15,
			"componentType":5123,
			"count":36,
			"type":"SCALAR"
		},
		{
			"bufferView":16,
			"componentType":5126,
			"count":24,
			"max":[
				-0.43664366006851196,
				0.7100000381469727,
				0.3632543385028839
			],
			"min":[
				-0.6113563179969788,
				-0.010000020265579224,
				-0.3632543385028839
			],
			"type":"VEC3"
		},
		{
			"bufferView":17,
			"componentType":5126,
			"count":24,
			"type":"VEC3"
		},
		{
			"bufferView":18,
			"componentType":5126,
			"count":24,
			"type":"VEC2"
		},
		{
			"bufferView":19,
			"componentType":5126,
			"count":24,
			"max":[
				0.6178434491157532,
				0.6399999856948853,
				0.2738819718360901
			],
			"min":[
				0.41895657777786255,
				0,
				-0.373881995677948
			],
			"type":"VEC3"
		},
		{
			"bufferView":20,
			"componentType":5126,
			"count":24,
			"type":"VEC3"
		},
		{
			"bufferView":21,
			"componentType":5126,
			"count":24,
			"type":"VEC2"
		},
		{
			"bufferView":22,
			"componentType":5123,
			"count":36,
			"type":"SCALAR"
		},
		{
			"bufferView":23,
			"componentType":5126,
			"count":24,
			"max":[
				0.2210434526205063,
				0.6399999856948853,
				0.2738819718360901
			],
			"min":[
				0.022156551480293274,
				0,
				-0.373881995677948
			],
			"type":"VEC3"
		},
		{
			"bufferView":24,
			"componentType":5126,
			"count":24,
			"type":"VEC3"
		},
		{
			"bufferView":25,
			"componentType":5126,
			"count":24,
			"type":"VEC2"
		},
		{
			"bufferView":26,
			"componentType":5126,
			"count":24,
			"max":[
				0.3198546767234802,
				1.2100000381469727,
				0.3106492757797241
			],
			"min":[
				0.04014533758163452,
				0.6899999976158142,
				-0.2106492668390274
			],
			"type":"VEC3"
		},
		{
			"bufferView":27,
			"componentType":5126,
			"count":24,
			"type":"VEC3"
		},
		{
			"bufferView":28,
			"componentType":5126,
			"count":24,
			"type":"VEC2"
		},
		{
			"bufferView":29,
			"componentType":5126,
			"count":24,
			"max":[
				-0.0001453310251235962,
				1.2100000381469727,
				0.3106492757797241
			],
			"min":[
				-0.2798546552658081,
				0.6899999976158142,
				-0.2106492668390274
			],
			"type":"VEC3"
		},
		{
			"bufferView":30,
			"componentType":5126,
			"count":24,
			"type":"VEC3"
		},
		{
			"bufferView":31,
			"componentType":5126,
			"count":24,
			"type":"VEC2"
		}
	],
	"bufferViews":[
		{
			"buffer":0,
			"byteLength":1152,
			"byteOffset":0,
			"target":34962
		},
		{
			"buffer":0,
			"byteLength":1152,
			"byteOffset":1152,
			"target":34962
		},
		{
			"buffer":0,
			"byteLength":768,
			"byteOffset":2304,
			"target":34962
		},
		{
			"buffer":0,
			"byteLength":264,
			"byteOffset":3072,
			"target":34963
		},
		{
			"buffer":0,
			"byteLength":1152,
			"byteOffset":3336,
			"target":34962
		},
		{
			"buffer":0,
			"byteLength":1152,
			"byteOffset":4488,
			"target":34962
		},
		{
			"buffer":0,
			"byteLength":768,
			"byteOffset":5640,
			"target":34962
		},
		{
			"buffer":0,
			"byteLength":264,
			"byteOffset":6408,
			"target":34963
		},
		{
			"buffer":0,
			"byteLength":1152,
			"byteOffset":6672,
			"target":34962
		},
		{
			"buffer":0,
			"byteLength":1152,
			"byteOffset":7824,
			"target":34962
		},
		{
			"buffer":0,
			"byteLength":768,
			"byteOffset":8976,
			"target":34962
		},
		{
			"buffer":0,
			"byteLength":264,
			"byteOffset":9744,
			"target":34963
		},
		{
			"buffer":0,
			"byteLength":288,
			"byteOffset":10008,
			"target":34962
		},
		{
			"buffer":0,
			"byteLength":288,
			"byteOffset":10296,
			"target":34962
		},
		{
			"buffer":0,
			"byteLength":192,
			"byteOffset":10584,
			"target":34962
		},
		{
			"buffer":0,
			"byteLength":72,
			"byteOffset":10776,
			"target":34963
		},
		{
			"buffer":0,
			"byteLength":288,
			"byteOffset":10848,
			"target":34962
		},
		{
			"buffer":0,
			"byteLength":288,
			"byteOffset":11136,
			"target":34962
		},
		{
			"buffer":0,
			"byteLength":192,
			"byteOffset":11424,
			"target":34962
		},
		{
			"buffer":0,
			"byteLength":288,
			"byteOffset":11616,
			"target":34962
		},
		{
			"buffer":0,
			"byteLength":288,
			"byteOffset":11904,
			"target":34962
		},
		{
			"buffer":0,
			"byteLength":192,
			"byteOffset":12192,
			"target":34962
		},
		{
			"buffer":0,
			"byteLength":72,
			"byteOffset":12384,
			"target":34963
		},
		{
			"buffer":0,
			"byteLength":288,
			"byteOffset":12456,
			"target":34962
		},
		{
			"buffer":0,
			"byteLength":288,
			"byteOffset":12744,
			"target":34962
		},
		{
			"buffer":0,
			"byteLength":192,
			"byteOffset":13032,
			"target":34962
		},
		{
			"buffer":0,
			"byteLength":288,
			"byteOffset":13224,
			"target":34962
		},
		{
			"buffer":0,
			"byteLength":288,
			"byteOffset":13512,
			"target":34962
		},
		{
			"buffer":0,
			"byteLength":192,
			"byteOffset":13800,
			"target":34962
		},
		{
			"buffer":0,
			"byteLength":288,
			"byteOffset":13992,
			"target":34962
		},
		{
			"buffer":0,
			"byteLength":288,
			"byteOffset":14280,
			"target":34962
		},
		{
			"buffer":0,
			"byteLength":192,
			"byteOffset":14568,
			"target":34962
		}
	],
	"buffers":[
		{
			"byteLength":14760,
			"uri":"hd_crates.bin"
		}
	]
}
