{
	"asset":{
		"generator":"Khronos glTF Blender I/O v5.2.40",
		"version":"2.0"
	},
	"scene":0,
	"scenes":[
		{
			"name":"Scene",
			"nodes":[
				0,
				1,
				2,
				3,
				4,
				5,
				6,
				7,
				8,
				9,
				10,
				11,
				12,
				13,
				14,
				15,
				16
			]
		}
	],
	"nodes":[
		{
			"mesh":0,
			"name":"grass_medium_01_large_a_LOD0",
			"translation":[
				-2.3999998569488525,
				0,
				0
			]
		},
		{
			"mesh":1,
			"name":"grass_medium_01_large_b_LOD0",
			"translation":[
				-1.9999998807907104,
				0,
				0
			]
		},
		{
			"mesh":2,
			"name":"grass_medium_01_large_c_LOD0",
			"translation":[
				-1.5999997854232788,
				0,
				0
			]
		},
		{
			"mesh":3,
			"name":"grass_medium_01_mid_a_LOD0",
			"translation":[
				-1.1999996900558472,
				0,
				0
			]
		},
		{
			"mesh":4,
			"name":"grass_medium_01_mid_b_LOD0",
			"translation":[
				-0.7999995946884155,
				0,
				0
			]
		},
		{
			"mesh":5,
			"name":"grass_medium_01_mid_c_LOD0",
			"translation":[
				-0.3999999463558197,
				0,
				0
			]
		},
		{
			"mesh":6,
			"name":"grass_medium_01_small_a_LOD0"
		},
		{
			"mesh":7,
			"name":"grass_medium_01_small_b_LOD0",
			"translation":[
				0.4000002443790436,
				0,
				0
			]
		},
		{
			"mesh":8,
			"name":"grass_medium_01_tall_a_LOD0",
			"translation":[
				0.7999998331069946,
				0,
				0
			]
		},
		{
			"mesh":9,
			"name":"grass_medium_01_tall_b_LOD0",
			"translation":[
				1.1999999284744263,
				0,
				0
			]
		},
		{
			"mesh":10,
			"name":"grass_medium_01_tall_c_LOD0",
			"translation":[
				1.6000001430511475,
				0,
				0
			]
		},
		{
			"mesh":11,
			"name":"grass_medium_01_tiny_a_LOD0",
			"translation":[
				2.000000476837158,
				0,
				0
			]
		},
		{
			"mesh":12,
			"name":"grass_medium_01_tiny_b_LOD0",
			"translation":[
				2.200000762939453,
				0,
				0
			]
		},
		{
			"mesh":13,
			"name":"grass_medium_01_tiny_c_LOD0",
			"translation":[
				2.40000057220459,
				0,
				0
			]
		},
		{
			"mesh":14,
			"name":"grass_medium_01_tiny_d_LOD0",
			"translation":[
				2.6000003814697266,
				0,
				0
			]
		},
		{
			"mesh":15,
			"name":"grass_medium_01_tiny_e_LOD0",
			"translation":[
				2.8000001907348633,
				0,
				0
			]
		},
		{
			"mesh":16,
			"name":"grass_medium_01_tiny_f_LOD0",
			"translation":[
				3.000000476837158,
				0,
				0
			]
		}
	],
	"materials":[
		{
			"alphaMode":"BLEND",
			"doubleSided":true,
			"name":"grass_medium_01",
			"normalTexture":{
				"index":0
			},
			"pbrMetallicRoughness":{
				"baseColorTexture":{
					"index":1
				},
				"metallicFactor":0,
				"metallicRoughnessTexture":{
					"index":2
				}
			}
		}
	],
	"meshes":[
		{
			"name":"Plane.051",
			"primitives":[
				{
					"attributes":{
						"POSITION":0,
						"NORMAL":1,
						"TEXCOORD_0":2
					},
					"indices":3,
					"material":0
				}
			]
		},
		{
			"name":"Plane.038",
			"primitives":[
				{
					"attributes":{
						"POSITION":4,
						"NORMAL":5,
						"TEXCOORD_0":6
					},
					"indices":7,
					"material":0
				}
			]
		},
		{
			"name":"Plane.053",
			"primitives":[
				{
					"attributes":{
						"POSITION":8,
						"NORMAL":9,
						"TEXCOORD_0":10
					},
					"indices":11,
					"material":0
				}
			]
		},
		{
			"name":"Plane.050",
			"primitives":[
				{
					"attributes":{
						"POSITION":12,
						"NORMAL":13,
						"TEXCOORD_0":14
					},
					"indices":15,
					"material":0
				}
			]
		},
		{
			"name":"Plane.039",
			"primitives":[
				{
					"attributes":{
						"POSITION":16,
						"NORMAL":17,
						"TEXCOORD_0":18
					},
					"indices":19,
					"material":0
				}
			]
		},
		{
			"name":"Plane.048",
			"primitives":[
				{
					"attributes":{
						"POSITION":20,
						"NORMAL":21,
						"TEXCOORD_0":22
					},
					"indices":23,
					"material":0
				}
			]
		},
		{
			"name":"Plane.037",
			"primitives":[
				{
					"attributes":{
						"POSITION":24,
						"NORMAL":25,
						"TEXCOORD_0":26
					},
					"indices":27,
					"material":0
				}
			]
		},
		{
			"name":"Plane.047",
			"primitives":[
				{
					"attributes":{
						"POSITION":28,
						"NORMAL":29,
						"TEXCOORD_0":30
					},
					"indices":31,
					"material":0
				}
			]
		},
		{
			"name":"Plane.043",
			"primitives":[
				{
					"attributes":{
						"POSITION":32,
						"NORMAL":33,
						"TEXCOORD_0":34
					},
					"indices":35,
					"material":0
				}
			]
		},
		{
			"name":"Plane.042",
			"primitives":[
				{
					"attributes":{
						"POSITION":36,
						"NORMAL":37,
						"TEXCOORD_0":38
					},
					"indices":39,
					"material":0
				}
			]
		},
		{
			"name":"Plane.045",
			"primitives":[
				{
					"attributes":{
						"POSITION":40,
						"NORMAL":41,
						"TEXCOORD_0":42
					},
					"indices":43,
					"material":0
				}
			]
		},
		{
			"name":"Plane.055",
			"primitives":[
				{
					"attributes":{
						"POSITION":44,
						"NORMAL":45,
						"TEXCOORD_0":46
					},
					"indices":47,
					"material":0
				}
			]
		},
		{
			"name":"Plane.056",
			"primitives":[
				{
					"attributes":{
						"POSITION":48,
						"NORMAL":49,
						"TEXCOORD_0":50
					},
					"indices":51,
					"material":0
				}
			]
		},
		{
			"name":"Plane.054",
			"primitives":[
				{
					"attributes":{
						"POSITION":52,
						"NORMAL":53,
						"TEXCOORD_0":54
					},
					"indices":55,
					"material":0
				}
			]
		},
		{
			"name":"Plane.057",
			"primitives":[
				{
					"attributes":{
						"POSITION":56,
						"NORMAL":57,
						"TEXCOORD_0":58
					},
					"indices":59,
					"material":0
				}
			]
		},
		{
			"name":"Plane.058",
			"primitives":[
				{
					"attributes":{
						"POSITION":60,
						"NORMAL":61,
						"TEXCOORD_0":62
					},
					"indices":63,
					"material":0
				}
			]
		},
		{
			"name":"Plane.059",
			"primitives":[
				{
					"attributes":{
						"POSITION":64,
						"NORMAL":65,
						"TEXCOORD_0":66
					},
					"indices":67,
					"material":0
				}
			]
		}
	],
	"textures":[
		{
			"sampler":0,
			"source":0
		},
		{
			"sampler":0,
			"source":1
		},
		{
			"sampler":0,
			"source":2
		}
	],
	"images":[
		{
			"mimeType":"image/jpeg",
			"name":"grass_medium_01_nor_gl",
			"uri":"textures/grass_medium_01_nor_gl_1k.jpg"
		},
		{
			"mimeType":"image/png",
			"name":"grass_medium_01_diff-grass_medium_01_alpha",
			"uri":"textures/grass_medium_01_diff_1k.jpg"
		},
		{
			"mimeType":"image/jpeg",
			"name":"grass_medium_01_rough",
			"uri":"textures/grass_medium_01_arm_1k.jpg"
		}
	],
	"accessors":[
		{
			"bufferView":0,
			"componentType":5126,
			"count":2668,
			"max":[
				0.16508042812347412,
				0.13833414018154144,
				0.1679621934890747
			],
			"min":[
				-0.15311379730701447,
				-0.007086355704814196,
				-0.15861237049102783
			],
			"type":"VEC3"
		},
		{
			"bufferView":1,
			"componentType":5126,
			"count":2668,
			"type":"VEC3"
		},
		{
			"bufferView":2,
			"componentType":5126,
			"count":2668,
			"type":"VEC2"
		},
		{
			"bufferView":3,
			"componentType":5123,
			"count":5778,
			"type":"SCALAR"
		},
		{
			"bufferView":4,
			"componentType":5126,
			"count":1787,
			"max":[
				0.1337188482284546,
				0.1378861665725708,
				0.13546419143676758
			],
			"min":[
				-0.14041082561016083,
				-0.025825515389442444,
				-0.13199596107006073
			],
			"type":"VEC3"
		},
		{
			"bufferView":5,
			"componentType":5126,
			"count":1787,
			"type":"VEC3"
		},
		{
			"bufferView":6,
			"componentType":5126,
			"count":1787,
			"type":"VEC2"
		},
		{
			"bufferView":7,
			"componentType":5123,
			"count":4161,
			"type":"SCALAR"
		},
		{
			"bufferView":8,
			"componentType":5126,
			"count":2416,
			"max":[
				0.13335976004600525,
				0.12023121118545532,
				0.11933346092700958
			],
			"min":[
				-0.14540651440620422,
				-0.021458163857460022,
				-0.13539369404315948
			],
			"type":"VEC3"
		},
		{
			"bufferView":9,
			"componentType":5126,
			"count":2416,
			"type":"VEC3"
		},
		{
			"bufferView":10,
			"componentType":5126,
			"count":2416,
			"type":"VEC2"
		},
		{
			"bufferView":11,
			"componentType":5123,
			"count":5346,
			"type":"SCALAR"
		},
		{
			"bufferView":12,
			"componentType":5126,
			"count":986,
			"max":[
				0.1042696014046669,
				0.19412003457546234,
				0.10355298966169357
			],
			"min":[
				-0.112527996301651,
				-0.022240782156586647,
				-0.11221493780612946
			],
			"type":"VEC3"
		},
		{
			"bufferView":13,
			"componentType":5126,
			"count":986,
			"type":"VEC3"
		},
		{
			"bufferView":14,
			"componentType":5126,
			"count":986,
			"type":"VEC2"
		},
		{
			"bufferView":15,
			"componentType":5123,
			"count":2058,
			"type":"SCALAR"
		},
		{
			"bufferView":16,
			"componentType":5126,
			"count":529,
			"max":[
				0.11137876659631729,
				0.17437009513378143,
				0.11313516646623611
			],
			"min":[
				-0.07544368505477905,
				-0.003299933625385165,
				-0.0874805673956871
			],
			"type":"VEC3"
		},
		{
			"bufferView":17,
			"componentType":5126,
			"count":529,
			"type":"VEC3"
		},
		{
			"bufferView":18,
			"componentType":5126,
			"count":529,
			"type":"VEC2"
		},
		{
			"bufferView":19,
			"componentType":5123,
			"count":1131,
			"type":"SCALAR"
		},
		{
			"bufferView":20,
			"componentType":5126,
			"count":595,
			"max":[
				0.11111602932214737,
				0.12217928469181061,
				0.09481842070817947
			],
			"min":[
				-0.07941077649593353,
				-0.02120278775691986,
				-0.10754815489053726
			],
			"type":"VEC3"
		},
		{
			"bufferView":21,
			"componentType":5126,
			"count":595,
			"type":"VEC3"
		},
		{
			"bufferView":22,
			"componentType":5126,
			"count":595,
			"type":"VEC2"
		},
		{
			"bufferView":23,
			"componentType":5123,
			"count":1317,
			"type":"SCALAR"
		},
		{
			"bufferView":24,
			"componentType":5126,
			"count":351,
			"max":[
				0.09471149742603302,
				0.13802213966846466,
				0.07554293423891068
			],
			"min":[
				-0.07981916517019272,
				-0.0015588037203997374,
				-0.08240219950675964
			],
			"type":"VEC3"
		},
		{
			"bufferView":25,
			"componentType":5126,
			"count":351,
			"type":"VEC3"
		},
		{
			"bufferView":26,
			"componentType":5126,
			"count":351,
			"type":"VEC2"
		},
		{
			"bufferView":27,
			"componentType":5123,
			"count":747,
			"type":"SCALAR"
		},
		{
			"bufferView":28,
			"componentType":5126,
			"count":280,
			"max":[
				0.07323592156171799,
				0.09164202958345413,
				0.08523859083652496
			],
			"min":[
				-0.09153568744659424,
				-0.00645113829523325,
				-0.09797845035791397
			],
			"type":"VEC3"
		},
		{
			"bufferView":29,
			"componentType":5126,
			"count":280,
			"type":"VEC3"
		},
		{
			"bufferView":30,
			"componentType":5126,
			"count":280,
			"type":"VEC2"
		},
		{
			"bufferView":31,
			"componentType":5123,
			"count":582,
			"type":"SCALAR"
		},
		{
			"bufferView":32,
			"componentType":5126,
			"count":137,
			"max":[
				0.08165208995342255,
				0.3169684112071991,
				0.08410284668207169
			],
			"min":[
				-0.07115063071250916,
				-0.004585923161357641,
				-0.07431402802467346
			],
			"type":"VEC3"
		},
		{
			"bufferView":33,
			"componentType":5126,
			"count":137,
			"type":"VEC3"
		},
		{
			"bufferView":34,
			"componentType":5126,
			"count":137,
			"type":"VEC2"
		},
		{
			"bufferView":35,
			"componentType":5123,
			"count":261,
			"type":"SCALAR"
		},
		{
			"bufferView":36,
			"componentType":5126,
			"count":145,
			"max":[
				0.06540076434612274,
				0.2828522026538849,
				0.07403488457202911
			],
			"min":[
				-0.08588055521249771,
				-0.001327592646703124,
				-0.060298189520835876
			],
			"type":"VEC3"
		},
		{
			"bufferView":37,
			"componentType":5126,
			"count":145,
			"type":"VEC3"
		},
		{
			"bufferView":38,
			"componentType":5126,
			"count":145,
			"type":"VEC2"
		},
		{
			"bufferView":39,
			"componentType":5123,
			"count":279,
			"type":"SCALAR"
		},
		{
			"bufferView":40,
			"componentType":5126,
			"count":154,
			"max":[
				0.08429726958274841,
				0.22932717204093933,
				0.07759398221969604
			],
			"min":[
				-0.06667222827672958,
				-0.004728082567453384,
				-0.04994093254208565
			],
			"type":"VEC3"
		},
		{
			"bufferView":41,
			"componentType":5126,
			"count":154,
			"type":"VEC3"
		},
		{
			"bufferView":42,
			"componentType":5126,
			"count":154,
			"type":"VEC2"
		},
		{
			"bufferView":43,
			"componentType":5123,
			"count":306,
			"type":"SCALAR"
		},
		{
			"bufferView":44,
			"componentType":5126,
			"count":31,
			"max":[
				0.043423302471637726,
				0.10915733128786087,
				0.02205830067396164
			],
			"min":[
				-0.023772895336151123,
				-0.0024959330912679434,
				-0.049694497138261795
			],
			"type":"VEC3"
		},
		{
			"bufferView":45,
			"componentType":5126,
			"count":31,
			"type":"VEC3"
		},
		{
			"bufferView":46,
			"componentType":5126,
			"count":31,
			"type":"VEC2"
		},
		{
			"bufferView":47,
			"componentType":5123,
			"count":69,
			"type":"SCALAR"
		},
		{
			"bufferView":48,
			"componentType":5126,
			"count":12,
			"max":[
				0.01937008462846279,
				0.05794752016663551,
				0.00010602945985738188
			],
			"min":[
				-0.004201855044811964,
				-0.0021947945933789015,
				-0.03381183743476868
			],
			"type":"VEC3"
		},
		{
			"bufferView":49,
			"componentType":5126,
			"count":12,
			"type":"VEC3"
		},
		{
			"bufferView":50,
			"componentType":5126,
			"count":12,
			"type":"VEC2"
		},
		{
			"bufferView":51,
			"componentType":5123,
			"count":24,
			"type":"SCALAR"
		},
		{
			"bufferView":52,
			"componentType":5126,
			"count":16,
			"max":[
				0.010502447374165058,
				0.07958631217479706,
				0.02789485454559326
			],
			"min":[
				-0.0018558112205937505,
				-0.0015813366044312716,
				-0.0005562239675782621
			],
			"type":"VEC3"
		},
		{
			"bufferView":53,
			"componentType":5126,
			"count":16,
			"type":"VEC3"
		},
		{
			"bufferView":54,
			"componentType":5126,
			"count":16,
			"type":"VEC2"
		},
		{
			"bufferView":55,
			"componentType":5123,
			"count":36,
			"type":"SCALAR"
		},
		{
			"bufferView":56,
			"componentType":5126,
			"count":13,
			"max":[
				0.027753200381994247,
				0.045038919895887375,
				0.03443552553653717
			],
			"min":[
				-0.00018706162518355995,
				-0.00266977958381176,
				-0.03513975068926811
			],
			"type":"VEC3"
		},
		{
			"bufferView":57,
			"componentType":5126,
			"count":13,
			"type":"VEC3"
		},
		{
			"bufferView":58,
			"componentType":5126,
			"count":13,
			"type":"VEC2"
		},
		{
			"bufferView":59,
			"componentType":5123,
			"count":27,
			"type":"SCALAR"
		},
		{
			"bufferView":60,
			"componentType":5126,
			"count":24,
			"max":[
				0.05863136053085327,
				0.0436788834631443,
				0.0507904477417469
			],
			"min":[
				-0.02512136474251747,
				-0.004863663576543331,
				-0.021879373118281364
			],
			"type":"VEC3"
		},
		{
			"bufferView":61,
			"componentType":5126,
			"count":24,
			"type":"VEC3"
		},
		{
			"bufferView":62,
			"componentType":5126,
			"count":24,
			"type":"VEC2"
		},
		{
			"bufferView":63,
			"componentType":5123,
			"count":54,
			"type":"SCALAR"
		},
		{
			"bufferView":64,
			"componentType":5126,
			"count":24,
			"max":[
				0.05108146369457245,
				0.04359304904937744,
				0.0232082586735487
			],
			"min":[
				-0.003069303696975112,
				-0.003225123044103384,
				-0.0468808077275753
			],
			"type":"VEC3"
		},
		{
			"bufferView":65,
			"componentType":5126,
			"count":24,
			"type":"VEC3"
		},
		{
			"bufferView":66,
			"componentType":5126,
			"count":24,
			"type":"VEC2"
		},
		{
			"bufferView":67,
			"componentType":5123,
			"count":54,
			"type":"SCALAR"
		}
	],
	"bufferViews":[
		{
			"buffer":0,
			"byteLength":32016,
			"byteOffset":0,
			"target":34962
		},
		{
			"buffer":0,
			"byteLength":32016,
			"byteOffset":32016,
			"target":34962
		},
		{
			"buffer":0,
			"byteLength":21344,
			"byteOffset":64032,
			"target":34962
		},
		{
			"buffer":0,
			"byteLength":11556,
			"byteOffset":85376,
			"target":34963
		},
		{
			"buffer":0,
			"byteLength":21444,
			"byteOffset":96932,
			"target":34962
		},
		{
			"buffer":0,
			"byteLength":21444,
			"byteOffset":118376,
			"target":34962
		},
		{
			"buffer":0,
			"byteLength":14296,
			"byteOffset":139820,
			"target":34962
		},
		{
			"buffer":0,
			"byteLength":8322,
			"byteOffset":154116,
			"target":34963
		},
		{
			"buffer":0,
			"byteLength":28992,
			"byteOffset":162440,
			"target":34962
		},
		{
			"buffer":0,
			"byteLength":28992,
			"byteOffset":191432,
			"target":34962
		},
		{
			"buffer":0,
			"byteLength":19328,
			"byteOffset":220424,
			"target":34962
		},
		{
			"buffer":0,
			"byteLength":10692,
			"byteOffset":239752,
			"target":34963
		},
		{
			"buffer":0,
			"byteLength":11832,
			"byteOffset":250444,
			"target":34962
		},
		{
			"buffer":0,
			"byteLength":11832,
			"byteOffset":262276,
			"target":34962
		},
		{
			"buffer":0,
			"byteLength":7888,
			"byteOffset":274108,
			"target":34962
		},
		{
			"buffer":0,
			"byteLength":4116,
			"byteOffset":281996,
			"target":34963
		},
		{
			"buffer":0,
			"byteLength":6348,
			"byteOffset":286112,
			"target":34962
		},
		{
			"buffer":0,
			"byteLength":6348,
			"byteOffset":292460,
			"target":34962
		},
		{
			"buffer":0,
			"byteLength":4232,
			"byteOffset":298808,
			"target":34962
		},
		{
			"buffer":0,
			"byteLength":2262,
			"byteOffset":303040,
			"target":34963
		},
		{
			"buffer":0,
			"byteLength":7140,
			"byteOffset":305304,
			"target":34962
		},
		{
			"buffer":0,
			"byteLength":7140,
			"byteOffset":312444,
			"target":34962
		},
		{
			"buffer":0,
			"byteLength":4760,
			"byteOffset":319584,
			"target":34962
		},
		{
			"buffer":0,
			"byteLength":2634,
			"byteOffset":324344,
			"target":34963
		},
		{
			"buffer":0,
			"byteLength":4212,
			"byteOffset":326980,
			"target":34962
		},
		{
			"buffer":0,
			"byteLength":4212,
			"byteOffset":331192,
			"target":34962
		},
		{
			"buffer":0,
			"byteLength":2808,
			"byteOffset":335404,
			"target":34962
		},
		{
			"buffer":0,
			"byteLength":1494,
			"byteOffset":338212,
			"target":34963
		},
		{
			"buffer":0,
			"byteLength":3360,
			"byteOffset":339708,
			"target":34962
		},
		{
			"buffer":0,
			"byteLength":3360,
			"byteOffset":343068,
			"target":34962
		},
		{
			"buffer":0,
			"byteLength":2240,
			"byteOffset":346428,
			"target":34962
		},
		{
			"buffer":0,
			"byteLength":1164,
			"byteOffset":348668,
			"target":34963
		},
		{
			"buffer":0,
			"byteLength":1644,
			"byteOffset":349832,
			"target":34962
		},
		{
			"buffer":0,
			"byteLength":1644,
			"byteOffset":351476,
			"target":34962
		},
		{
			"buffer":0,
			"byteLength":1096,
			"byteOffset":353120,
			"target":34962
		},
		{
			"buffer":0,
			"byteLength":522,
			"byteOffset":354216,
			"target":34963
		},
		{
			"buffer":0,
			"byteLength":1740,
			"byteOffset":354740,
			"target":34962
		},
		{
			"buffer":0,
			"byteLength":1740,
			"byteOffset":356480,
			"target":34962
		},
		{
			"buffer":0,
			"byteLength":1160,
			"byteOffset":358220,
			"target":34962
		},
		{
			"buffer":0,
			"byteLength":558,
			"byteOffset":359380,
			"target":34963
		},
		{
			"buffer":0,
			"byteLength":1848,
			"byteOffset":359940,
			"target":34962
		},
		{
			"buffer":0,
			"byteLength":1848,
			"byteOffset":361788,
			"target":34962
		},
		{
			"buffer":0,
			"byteLength":1232,
			"byteOffset":363636,
			"target":34962
		},
		{
			"buffer":0,
			"byteLength":612,
			"byteOffset":364868,
			"target":34963
		},
		{
			"buffer":0,
			"byteLength":372,
			"byteOffset":365480,
			"target":34962
		},
		{
			"buffer":0,
			"byteLength":372,
			"byteOffset":365852,
			"target":34962
		},
		{
			"buffer":0,
			"byteLength":248,
			"byteOffset":366224,
			"target":34962
		},
		{
			"buffer":0,
			"byteLength":138,
			"byteOffset":366472,
			"target":34963
		},
		{
			"buffer":0,
			"byteLength":144,
			"byteOffset":366612,
			"target":34962
		},
		{
			"buffer":0,
			"byteLength":144,
			"byteOffset":366756,
			"target":34962
		},
		{
			"buffer":0,
			"byteLength":96,
			"byteOffset":366900,
			"target":34962
		},
		{
			"buffer":0,
			"byteLength":48,
			"byteOffset":366996,
			"target":34963
		},
		{
			"buffer":0,
			"byteLength":192,
			"byteOffset":367044,
			"target":34962
		},
		{
			"buffer":0,
			"byteLength":192,
			"byteOffset":367236,
			"target":34962
		},
		{
			"buffer":0,
			"byteLength":128,
			"byteOffset":367428,
			"target":34962
		},
		{
			"buffer":0,
			"byteLength":72,
			"byteOffset":367556,
			"target":34963
		},
		{
			"buffer":0,
			"byteLength":156,
			"byteOffset":367628,
			"target":34962
		},
		{
			"buffer":0,
			"byteLength":156,
			"byteOffset":367784,
			"target":34962
		},
		{
			"buffer":0,
			"byteLength":104,
			"byteOffset":367940,
			"target":34962
		},
		{
			"buffer":0,
			"byteLength":54,
			"byteOffset":368044,
			"target":34963
		},
		{
			"buffer":0,
			"byteLength":288,
			"byteOffset":368100,
			"target":34962
		},
		{
			"buffer":0,
			"byteLength":288,
			"byteOffset":368388,
			"target":34962
		},
		{
			"buffer":0,
			"byteLength":192,
			"byteOffset":368676,
			"target":34962
		},
		{
			"buffer":0,
			"byteLength":108,
			"byteOffset":368868,
			"target":34963
		},
		{
			"buffer":0,
			"byteLength":288,
			"byteOffset":368976,
			"target":34962
		},
		{
			"buffer":0,
			"byteLength":288,
			"byteOffset":369264,
			"target":34962
		},
		{
			"buffer":0,
			"byteLength":192,
			"byteOffset":369552,
			"target":34962
		},
		{
			"buffer":0,
			"byteLength":108,
			"byteOffset":369744,
			"target":34963
		}
	],
	"samplers":[
		{
			"magFilter":9729,
			"minFilter":9987
		}
	],
	"buffers":[
		{
			"byteLength":369852,
			"uri":"grass_medium_01.bin"
		}
	]
}
