{
	"asset":{
		"generator":"Khronos glTF Blender I/O v5.2.40",
		"version":"2.0"
	},
	"scene":0,
	"scenes":[
		{
			"name":"Scene",
			"nodes":[
				0,
				1,
				2,
				3,
				4,
				5,
				6,
				7,
				8,
				9,
				10,
				11,
				12,
				13,
				14,
				15,
				16,
				17
			]
		}
	],
	"nodes":[
		{
			"mesh":0,
			"name":"ice0"
		},
		{
			"mesh":1,
			"name":"ice1"
		},
		{
			"mesh":2,
			"name":"ice2"
		},
		{
			"mesh":3,
			"name":"lip0"
		},
		{
			"mesh":4,
			"name":"lip1"
		},
		{
			"mesh":5,
			"name":"s0"
		},
		{
			"mesh":6,
			"name":"s1"
		},
		{
			"mesh":7,
			"name":"s2"
		},
		{
			"mesh":8,
			"name":"s3"
		},
		{
			"mesh":9,
			"name":"s4"
		},
		{
			"mesh":10,
			"name":"s5"
		},
		{
			"mesh":11,
			"name":"s6"
		},
		{
			"mesh":12,
			"name":"s7"
		},
		{
			"mesh":13,
			"name":"s8"
		},
		{
			"mesh":14,
			"name":"s9"
		},
		{
			"mesh":15,
			"name":"s10"
		},
		{
			"mesh":16,
			"name":"s11"
		},
		{
			"mesh":17,
			"name":"snowbase"
		}
	],
	"materials":[
		{
			"doubleSided":true,
			"name":"M_ic0",
			"pbrMetallicRoughness":{
				"baseColorFactor":[
					0.3537409007549286,
					0.6661169528961182,
					0.843369722366333,
					1
				],
				"metallicFactor":0,
				"roughnessFactor":0.18000000715255737
			}
		},
		{
			"doubleSided":true,
			"name":"M_ic1",
			"pbrMetallicRoughness":{
				"baseColorFactor":[
					0.3537409007549286,
					0.6661169528961182,
					0.843369722366333,
					1
				],
				"metallicFactor":0,
				"roughnessFactor":0.18000000715255737
			}
		},
		{
			"doubleSided":true,
			"name":"M_ic2",
			"pbrMetallicRoughness":{
				"baseColorFactor":[
					0.3537409007549286,
					0.6661169528961182,
					0.843369722366333,
					1
				],
				"metallicFactor":0,
				"roughnessFactor":0.18000000715255737
			}
		},
		{
			"doubleSided":true,
			"name":"M_dl0",
			"pbrMetallicRoughness":{
				"baseColorFactor":[
					0.6800203323364258,
					0.7817506790161133,
					0.859173595905304,
					1
				],
				"metallicFactor":0,
				"roughnessFactor":0.699999988079071
			}
		},
		{
			"doubleSided":true,
			"name":"M_dl1",
			"pbrMetallicRoughness":{
				"baseColorFactor":[
					0.6800203323364258,
					0.7817506790161133,
					0.859173595905304,
					1
				],
				"metallicFactor":0,
				"roughnessFactor":0.699999988079071
			}
		},
		{
			"doubleSided":true,
			"name":"M_sp0",
			"pbrMetallicRoughness":{
				"baseColorFactor":[
					0.11392093449831009,
					0.46474114060401917,
					0.7372047901153564,
					1
				],
				"metallicFactor":0,
				"roughnessFactor":0.4000000059604645
			}
		},
		{
			"doubleSided":true,
			"name":"M_sp1",
			"pbrMetallicRoughness":{
				"baseColorFactor":[
					0.6800203323364258,
					0.7817506790161133,
					0.859173595905304,
					1
				],
				"metallicFactor":0,
				"roughnessFactor":0.4000000059604645
			}
		},
		{
			"doubleSided":true,
			"name":"M_sp2",
			"pbrMetallicRoughness":{
				"baseColorFactor":[
					0.6800203323364258,
					0.7817506790161133,
					0.859173595905304,
					1
				],
				"metallicFactor":0,
				"roughnessFactor":0.4000000059604645
			}
		},
		{
			"doubleSided":true,
			"name":"M_sp3",
			"pbrMetallicRoughness":{
				"baseColorFactor":[
					0.6800203323364258,
					0.7817506790161133,
					0.859173595905304,
					1
				],
				"metallicFactor":0,
				"roughnessFactor":0.4000000059604645
			}
		},
		{
			"doubleSided":true,
			"name":"M_sp4",
			"pbrMetallicRoughness":{
				"baseColorFactor":[
					0.11392093449831009,
					0.46474114060401917,
					0.7372047901153564,
					1
				],
				"metallicFactor":0,
				"roughnessFactor":0.4000000059604645
			}
		},
		{
			"doubleSided":true,
			"name":"M_sp5",
			"pbrMetallicRoughness":{
				"baseColorFactor":[
					0.6800203323364258,
					0.7817506790161133,
					0.859173595905304,
					1
				],
				"metallicFactor":0,
				"roughnessFactor":0.4000000059604645
			}
		},
		{
			"doubleSided":true,
			"name":"M_sp6",
			"pbrMetallicRoughness":{
				"baseColorFactor":[
					0.6800203323364258,
					0.7817506790161133,
					0.859173595905304,
					1
				],
				"metallicFactor":0,
				"roughnessFactor":0.4000000059604645
			}
		},
		{
			"doubleSided":true,
			"name":"M_sp7",
			"pbrMetallicRoughness":{
				"baseColorFactor":[
					0.6800203323364258,
					0.7817506790161133,
					0.859173595905304,
					1
				],
				"metallicFactor":0,
				"roughnessFactor":0.4000000059604645
			}
		},
		{
			"doubleSided":true,
			"name":"M_sp8",
			"pbrMetallicRoughness":{
				"baseColorFactor":[
					0.11392093449831009,
					0.46474114060401917,
					0.7372047901153564,
					1
				],
				"metallicFactor":0,
				"roughnessFactor":0.4000000059604645
			}
		},
		{
			"doubleSided":true,
			"name":"M_sp9",
			"pbrMetallicRoughness":{
				"baseColorFactor":[
					0.6800203323364258,
					0.7817506790161133,
					0.859173595905304,
					1
				],
				"metallicFactor":0,
				"roughnessFactor":0.4000000059604645
			}
		},
		{
			"doubleSided":true,
			"name":"M_sp10",
			"pbrMetallicRoughness":{
				"baseColorFactor":[
					0.6800203323364258,
					0.7817506790161133,
					0.859173595905304,
					1
				],
				"metallicFactor":0,
				"roughnessFactor":0.4000000059604645
			}
		},
		{
			"doubleSided":true,
			"name":"M_sp11",
			"pbrMetallicRoughness":{
				"baseColorFactor":[
					0.6800203323364258,
					0.7817506790161133,
					0.859173595905304,
					1
				],
				"metallicFactor":0,
				"roughnessFactor":0.4000000059604645
			}
		},
		{
			"doubleSided":true,
			"name":"M_snowbase",
			"pbrMetallicRoughness":{
				"baseColorFactor":[
					0.8912620544433594,
					0.9406006932258606,
					0.97430020570755,
					1
				],
				"metallicFactor":0,
				"roughnessFactor":0.6000000238418579
			}
		}
	],
	"meshes":[
		{
			"name":"Cube.001",
			"primitives":[
				{
					"attributes":{
						"POSITION":0,
						"NORMAL":1,
						"TEXCOORD_0":2
					},
					"indices":3,
					"material":0
				}
			]
		},
		{
			"name":"Cube.002",
			"primitives":[
				{
					"attributes":{
						"POSITION":4,
						"NORMAL":5,
						"TEXCOORD_0":6
					},
					"indices":3,
					"material":1
				}
			]
		},
		{
			"name":"Cube.003",
			"primitives":[
				{
					"attributes":{
						"POSITION":7,
						"NORMAL":8,
						"TEXCOORD_0":9
					},
					"indices":3,
					"material":2
				}
			]
		},
		{
			"name":"Icosphere",
			"primitives":[
				{
					"attributes":{
						"POSITION":10,
						"NORMAL":11,
						"TEXCOORD_0":12
					},
					"indices":13,
					"material":3
				}
			]
		},
		{
			"name":"Icosphere.001",
			"primitives":[
				{
					"attributes":{
						"POSITION":14,
						"NORMAL":15,
						"TEXCOORD_0":16
					},
					"indices":13,
					"material":4
				}
			]
		},
		{
			"name":"Icosphere.002",
			"primitives":[
				{
					"attributes":{
						"POSITION":17,
						"NORMAL":18,
						"TEXCOORD_0":19
					},
					"indices":20,
					"material":5
				}
			]
		},
		{
			"name":"Icosphere.003",
			"primitives":[
				{
					"attributes":{
						"POSITION":21,
						"NORMAL":22,
						"TEXCOORD_0":23
					},
					"indices":20,
					"material":6
				}
			]
		},
		{
			"name":"Icosphere.004",
			"primitives":[
				{
					"attributes":{
						"POSITION":24,
						"NORMAL":25,
						"TEXCOORD_0":26
					},
					"indices":20,
					"material":7
				}
			]
		},
		{
			"name":"Icosphere.005",
			"primitives":[
				{
					"attributes":{
						"POSITION":27,
						"NORMAL":28,
						"TEXCOORD_0":29
					},
					"indices":20,
					"material":8
				}
			]
		},
		{
			"name":"Icosphere.006",
			"primitives":[
				{
					"attributes":{
						"POSITION":30,
						"NORMAL":31,
						"TEXCOORD_0":32
					},
					"indices":20,
					"material":9
				}
			]
		},
		{
			"name":"Icosphere.007",
			"primitives":[
				{
					"attributes":{
						"POSITION":33,
						"NORMAL":34,
						"TEXCOORD_0":35
					},
					"indices":20,
					"material":10
				}
			]
		},
		{
			"name":"Icosphere.008",
			"primitives":[
				{
					"attributes":{
						"POSITION":36,
						"NORMAL":37,
						"TEXCOORD_0":38
					},
					"indices":20,
					"material":11
				}
			]
		},
		{
			"name":"Icosphere.009",
			"primitives":[
				{
					"attributes":{
						"POSITION":39,
						"NORMAL":40,
						"TEXCOORD_0":41
					},
					"indices":20,
					"material":12
				}
			]
		},
		{
			"name":"Icosphere.010",
			"primitives":[
				{
					"attributes":{
						"POSITION":42,
						"NORMAL":43,
						"TEXCOORD_0":44
					},
					"indices":20,
					"material":13
				}
			]
		},
		{
			"name":"Icosphere.011",
			"primitives":[
				{
					"attributes":{
						"POSITION":45,
						"NORMAL":46,
						"TEXCOORD_0":47
					},
					"indices":20,
					"material":14
				}
			]
		},
		{
			"name":"Icosphere.012",
			"primitives":[
				{
					"attributes":{
						"POSITION":48,
						"NORMAL":49,
						"TEXCOORD_0":50
					},
					"indices":20,
					"material":15
				}
			]
		},
		{
			"name":"Icosphere.013",
			"primitives":[
				{
					"attributes":{
						"POSITION":51,
						"NORMAL":52,
						"TEXCOORD_0":53
					},
					"indices":20,
					"material":16
				}
			]
		},
		{
			"name":"Cube",
			"primitives":[
				{
					"attributes":{
						"POSITION":54,
						"NORMAL":55,
						"TEXCOORD_0":56
					},
					"indices":57,
					"material":17
				}
			]
		}
	],
	"accessors":[
		{
			"bufferView":0,
			"componentType":5126,
			"count":24,
			"max":[
				-1.4500000476837158,
				0.024000000208616257,
				12
			],
			"min":[
				-2.950000047683716,
				-0.00800000037997961,
				-12
			],
			"type":"VEC3"
		},
		{
			"bufferView":1,
			"componentType":5126,
			"count":24,
			"type":"VEC3"
		},
		{
			"bufferView":2,
			"componentType":5126,
			"count":24,
			"type":"VEC2"
		},
		{
			"bufferView":3,
			"componentType":5123,
			"count":36,
			"type":"SCALAR"
		},
		{
			"bufferView":4,
			"componentType":5126,
			"count":24,
			"max":[
				0.75,
				0.024000000208616257,
				12
			],
			"min":[
				-0.75,
				-0.00800000037997961,
				-12
			],
			"type":"VEC3"
		},
		{
			"bufferView":5,
			"componentType":5126,
			"count":24,
			"type":"VEC3"
		},
		{
			"bufferView":6,
			"componentType":5126,
			"count":24,
			"type":"VEC2"
		},
		{
			"bufferView":7,
			"componentType":5126,
			"count":24,
			"max":[
				2.950000047683716,
				0.024000000208616257,
				12
			],
			"min":[
				1.4500000476837158,
				-0.00800000037997961,
				-12
			],
			"type":"VEC3"
		},
		{
			"bufferView":8,
			"componentType":5126,
			"count":24,
			"type":"VEC3"
		},
		{
			"bufferView":9,
			"componentType":5126,
			"count":24,
			"type":"VEC2"
		},
		{
			"bufferView":10,
			"componentType":5126,
			"count":63,
			"max":[
				-4.064842700958252,
				0.18520228564739227,
				11.984333038330078
			],
			"min":[
				-5.001020431518555,
				-0.24794283509254456,
				-12.0496244430542
			],
			"type":"VEC3"
		},
		{
			"bufferView":11,
			"componentType":5126,
			"count":63,
			"type":"VEC3"
		},
		{
			"bufferView":12,
			"componentType":5126,
			"count":63,
			"type":"VEC2"
		},
		{
			"bufferView":13,
			"componentType":5123,
			"count":240,
			"type":"SCALAR"
		},
		{
			"bufferView":14,
			"componentType":5126,
			"count":63,
			"max":[
				5.026371479034424,
				0.20324426889419556,
				11.979660987854004
			],
			"min":[
				4.05562162399292,
				-0.22680707275867462,
				-12.038617134094238
			],
			"type":"VEC3"
		},
		{
			"bufferView":15,
			"componentType":5126,
			"count":63,
			"type":"VEC3"
		},
		{
			"bufferView":16,
			"componentType":5126,
			"count":63,
			"type":"VEC2"
		},
		{
			"bufferView":17,
			"componentType":5126,
			"count":22,
			"max":[
				-1.7025929689407349,
				0.06981143355369568,
				0.1947328746318817
			],
			"min":[
				-1.9988962411880493,
				-0.09224160015583038,
				-0.2563731074333191
			],
			"type":"VEC3"
		},
		{
			"bufferView":18,
			"componentType":5126,
			"count":22,
			"type":"VEC3"
		},
		{
			"bufferView":19,
			"componentType":5126,
			"count":22,
			"type":"VEC2"
		},
		{
			"bufferView":20,
			"componentType":5123,
			"count":60,
			"type":"SCALAR"
		},
		{
			"bufferView":21,
			"componentType":5126,
			"count":22,
			"max":[
				-1.6903283596038818,
				0.06205584108829498,
				-0.9909542202949524
			],
			"min":[
				-2.2109010219573975,
				-0.09029507637023926,
				-1.3445069789886475
			],
			"type":"VEC3"
		},
		{
			"bufferView":22,
			"componentType":5126,
			"count":22,
			"type":"VEC3"
		},
		{
			"bufferView":23,
			"componentType":5126,
			"count":22,
			"type":"VEC2"
		},
		{
			"bufferView":24,
			"componentType":5126,
			"count":22,
			"max":[
				3.555838108062744,
				0.057905953377485275,
				-4.911211013793945
			],
			"min":[
				3.170793056488037,
				-0.10034877061843872,
				-5.30333948135376
			],
			"type":"VEC3"
		},
		{
			"bufferView":25,
			"componentType":5126,
			"count":22,
			"type":"VEC3"
		},
		{
			"bufferView":26,
			"componentType":5126,
			"count":22,
			"type":"VEC2"
		},
		{
			"bufferView":27,
			"componentType":5126,
			"count":22,
			"max":[
				0.8558706641197205,
				0.08052396029233932,
				3.262432098388672
			],
			"min":[
				0.31450197100639343,
				-0.09973588585853577,
				2.928659200668335
			],
			"type":"VEC3"
		},
		{
			"bufferView":28,
			"componentType":5126,
			"count":22,
			"type":"VEC3"
		},
		{
			"bufferView":29,
			"componentType":5126,
			"count":22,
			"type":"VEC2"
		},
		{
			"bufferView":30,
			"componentType":5126,
			"count":22,
			"max":[
				3.5992558002471924,
				0.07101136445999146,
				-7.613678932189941
			],
			"min":[
				3.363739013671875,
				-0.1225925162434578,
				-7.930625915527344
			],
			"type":"VEC3"
		},
		{
			"bufferView":31,
			"componentType":5126,
			"count":22,
			"type":"VEC3"
		},
		{
			"bufferView":32,
			"componentType":5126,
			"count":22,
			"type":"VEC2"
		},
		{
			"bufferView":33,
			"componentType":5126,
			"count":22,
			"max":[
				-0.026590511202812195,
				0.05894634127616882,
				-6.706386566162109
			],
			"min":[
				-0.3292427957057953,
				-0.09422019124031067,
				-7.121680736541748
			],
			"type":"VEC3"
		},
		{
			"bufferView":34,
			"componentType":5126,
			"count":22,
			"type":"VEC3"
		},
		{
			"bufferView":35,
			"componentType":5126,
			"count":22,
			"type":"VEC2"
		},
		{
			"bufferView":36,
			"componentType":5126,
			"count":22,
			"max":[
				-0.6611548662185669,
				0.05921187996864319,
				-6.040878772735596
			],
			"min":[
				-1.2274142503738403,
				-0.11331787705421448,
				-6.516850471496582
			],
			"type":"VEC3"
		},
		{
			"bufferView":37,
			"componentType":5126,
			"count":22,
			"type":"VEC3"
		},
		{
			"bufferView":38,
			"componentType":5126,
			"count":22,
			"type":"VEC2"
		},
		{
			"bufferView":39,
			"componentType":5126,
			"count":22,
			"max":[
				-2.0109846591949463,
				0.08163454383611679,
				-5.47363805770874
			],
			"min":[
				-2.373452663421631,
				-0.11523521691560745,
				-5.974923133850098
			],
			"type":"VEC3"
		},
		{
			"bufferView":40,
			"componentType":5126,
			"count":22,
			"type":"VEC3"
		},
		{
			"bufferView":41,
			"componentType":5126,
			"count":22,
			"type":"VEC2"
		},
		{
			"bufferView":42,
			"componentType":5126,
			"count":22,
			"max":[
				0.023449258878827095,
				0.10548464953899384,
				-8.695595741271973
			],
			"min":[
				-0.5055475234985352,
				-0.11680971086025238,
				-9.149287223815918
			],
			"type":"VEC3"
		},
		{
			"bufferView":43,
			"componentType":5126,
			"count":22,
			"type":"VEC3"
		},
		{
			"bufferView":44,
			"componentType":5126,
			"count":22,
			"type":"VEC2"
		},
		{
			"bufferView":45,
			"componentType":5126,
			"count":22,
			"max":[
				2.5896077156066895,
				0.11313695460557938,
				-6.9058051109313965
			],
			"min":[
				2.1709299087524414,
				-0.13069581985473633,
				-7.122045993804932
			],
			"type":"VEC3"
		},
		{
			"bufferView":46,
			"componentType":5126,
			"count":22,
			"type":"VEC3"
		},
		{
			"bufferView":47,
			"componentType":5126,
			"count":22,
			"type":"VEC2"
		},
		{
			"bufferView":48,
			"componentType":5126,
			"count":22,
			"max":[
				3.611048936843872,
				0.10229398310184479,
				0.9615687727928162
			],
			"min":[
				3.387202501296997,
				-0.08883705735206604,
				0.6150303483009338
			],
			"type":"VEC3"
		},
		{
			"bufferView":49,
			"componentType":5126,
			"count":22,
			"type":"VEC3"
		},
		{
			"bufferView":50,
			"componentType":5126,
			"count":22,
			"type":"VEC2"
		},
		{
			"bufferView":51,
			"componentType":5126,
			"count":22,
			"max":[
				-0.3598804771900177,
				0.07212843745946884,
				6.720466613769531
			],
			"min":[
				-0.8587208390235901,
				-0.08814026415348053,
				6.43295955657959
			],
			"type":"VEC3"
		},
		{
			"bufferView":52,
			"componentType":5126,
			"count":22,
			"type":"VEC3"
		},
		{
			"bufferView":53,
			"componentType":5126,
			"count":22,
			"type":"VEC2"
		},
		{
			"bufferView":54,
			"componentType":5126,
			"count":96,
			"max":[
				4.699999809265137,
				0,
				12
			],
			"min":[
				-4.699999809265137,
				-0.23999999463558197,
				-12
			],
			"type":"VEC3"
		},
		{
			"bufferView":55,
			"componentType":5126,
			"count":96,
			"type":"VEC3"
		},
		{
			"bufferView":56,
			"componentType":5126,
			"count":96,
			"type":"VEC2"
		},
		{
			"bufferView":57,
			"componentType":5123,
			"count":132,
			"type":"SCALAR"
		}
	],
	"bufferViews":[
		{
			"buffer":0,
			"byteLength":288,
			"byteOffset":0,
			"target":34962
		},
		{
			"buffer":0,
			"byteLength":288,
			"byteOffset":288,
			"target":34962
		},
		{
			"buffer":0,
			"byteLength":192,
			"byteOffset":576,
			"target":34962
		},
		{
			"buffer":0,
			"byteLength":72,
			"byteOffset":768,
			"target":34963
		},
		{
			"buffer":0,
			"byteLength":288,
			"byteOffset":840,
			"target":34962
		},
		{
			"buffer":0,
			"byteLength":288,
			"byteOffset":1128,
			"target":34962
		},
		{
			"buffer":0,
			"byteLength":192,
			"byteOffset":1416,
			"target":34962
		},
		{
			"buffer":0,
			"byteLength":288,
			"byteOffset":1608,
			"target":34962
		},
		{
			"buffer":0,
			"byteLength":288,
			"byteOffset":1896,
			"target":34962
		},
		{
			"buffer":0,
			"byteLength":192,
			"byteOffset":2184,
			"target":34962
		},
		{
			"buffer":0,
			"byteLength":756,
			"byteOffset":2376,
			"target":34962
		},
		{
			"buffer":0,
			"byteLength":756,
			"byteOffset":3132,
			"target":34962
		},
		{
			"buffer":0,
			"byteLength":504,
			"byteOffset":3888,
			"target":34962
		},
		{
			"buffer":0,
			"byteLength":480,
			"byteOffset":4392,
			"target":34963
		},
		{
			"buffer":0,
			"byteLength":756,
			"byteOffset":4872,
			"target":34962
		},
		{
			"buffer":0,
			"byteLength":756,
			"byteOffset":5628,
			"target":34962
		},
		{
			"buffer":0,
			"byteLength":504,
			"byteOffset":6384,
			"target":34962
		},
		{
			"buffer":0,
			"byteLength":264,
			"byteOffset":6888,
			"target":34962
		},
		{
			"buffer":0,
			"byteLength":264,
			"byteOffset":7152,
			"target":34962
		},
		{
			"buffer":0,
			"byteLength":176,
			"byteOffset":7416,
			"target":34962
		},
		{
			"buffer":0,
			"byteLength":120,
			"byteOffset":7592,
			"target":34963
		},
		{
			"buffer":0,
			"byteLength":264,
			"byteOffset":7712,
			"target":34962
		},
		{
			"buffer":0,
			"byteLength":264,
			"byteOffset":7976,
			"target":34962
		},
		{
			"buffer":0,
			"byteLength":176,
			"byteOffset":8240,
			"target":34962
		},
		{
			"buffer":0,
			"byteLength":264,
			"byteOffset":8416,
			"target":34962
		},
		{
			"buffer":0,
			"byteLength":264,
			"byteOffset":8680,
			"target":34962
		},
		{
			"buffer":0,
			"byteLength":176,
			"byteOffset":8944,
			"target":34962
		},
		{
			"buffer":0,
			"byteLength":264,
			"byteOffset":9120,
			"target":34962
		},
		{
			"buffer":0,
			"byteLength":264,
			"byteOffset":9384,
			"target":34962
		},
		{
			"buffer":0,
			"byteLength":176,
			"byteOffset":9648,
			"target":34962
		},
		{
			"buffer":0,
			"byteLength":264,
			"byteOffset":9824,
			"target":34962
		},
		{
			"buffer":0,
			"byteLength":264,
			"byteOffset":10088,
			"target":34962
		},
		{
			"buffer":0,
			"byteLength":176,
			"byteOffset":10352,
			"target":34962
		},
		{
			"buffer":0,
			"byteLength":264,
			"byteOffset":10528,
			"target":34962
		},
		{
			"buffer":0,
			"byteLength":264,
			"byteOffset":10792,
			"target":34962
		},
		{
			"buffer":0,
			"byteLength":176,
			"byteOffset":11056,
			"target":34962
		},
		{
			"buffer":0,
			"byteLength":264,
			"byteOffset":11232,
			"target":34962
		},
		{
			"buffer":0,
			"byteLength":264,
			"byteOffset":11496,
			"target":34962
		},
		{
			"buffer":0,
			"byteLength":176,
			"byteOffset":11760,
			"target":34962
		},
		{
			"buffer":0,
			"byteLength":264,
			"byteOffset":11936,
			"target":34962
		},
		{
			"buffer":0,
			"byteLength":264,
			"byteOffset":12200,
			"target":34962
		},
		{
			"buffer":0,
			"byteLength":176,
			"byteOffset":12464,
			"target":34962
		},
		{
			"buffer":0,
			"byteLength":264,
			"byteOffset":12640,
			"target":34962
		},
		{
			"buffer":0,
			"byteLength":264,
			"byteOffset":12904,
			"target":34962
		},
		{
			"buffer":0,
			"byteLength":176,
			"byteOffset":13168,
			"target":34962
		},
		{
			"buffer":0,
			"byteLength":264,
			"byteOffset":13344,
			"target":34962
		},
		{
			"buffer":0,
			"byteLength":264,
			"byteOffset":13608,
			"target":34962
		},
		{
			"buffer":0,
			"byteLength":176,
			"byteOffset":13872,
			"target":34962
		},
		{
			"buffer":0,
			"byteLength":264,
			"byteOffset":14048,
			"target":34962
		},
		{
			"buffer":0,
			"byteLength":264,
			"byteOffset":14312,
			"target":34962
		},
		{
			"buffer":0,
			"byteLength":176,
			"byteOffset":14576,
			"target":34962
		},
		{
			"buffer":0,
			"byteLength":264,
			"byteOffset":14752,
			"target":34962
		},
		{
			"buffer":0,
			"byteLength":264,
			"byteOffset":15016,
			"target":34962
		},
		{
			"buffer":0,
			"byteLength":176,
			"byteOffset":15280,
			"target":34962
		},
		{
			"buffer":0,
			"byteLength":1152,
			"byteOffset":15456,
			"target":34962
		},
		{
			"buffer":0,
			"byteLength":1152,
			"byteOffset":16608,
			"target":34962
		},
		{
			"buffer":0,
			"byteLength":768,
			"byteOffset":17760,
			"target":34962
		},
		{
			"buffer":0,
			"byteLength":264,
			"byteOffset":18528,
			"target":34963
		}
	],
	"buffers":[
		{
			"byteLength":18792,
			"uri":"hd_rd_ice.bin"
		}
	]
}
