{
	"asset":{
		"generator":"Khronos glTF Blender I/O v5.2.40",
		"version":"2.0"
	},
	"scene":0,
	"scenes":[
		{
			"name":"Scene",
			"nodes":[
				0,
				1,
				2,
				3,
				4,
				5,
				6,
				7,
				8
			]
		}
	],
	"nodes":[
		{
			"mesh":0,
			"name":"g0"
		},
		{
			"mesh":1,
			"name":"g1"
		},
		{
			"mesh":2,
			"name":"g2"
		},
		{
			"mesh":3,
			"name":"g3"
		},
		{
			"mesh":4,
			"name":"g4"
		},
		{
			"mesh":5,
			"name":"g5"
		},
		{
			"mesh":6,
			"name":"g6"
		},
		{
			"mesh":7,
			"name":"g7"
		},
		{
			"mesh":8,
			"name":"g8"
		}
	],
	"materials":[
		{
			"doubleSided":true,
			"name":"M_gr0",
			"pbrMetallicRoughness":{
				"baseColorFactor":[
					0.5113978385925293,
					0.6940805315971375,
					0.07382776588201523,
					1
				],
				"metallicFactor":0,
				"roughnessFactor":0.8500000238418579
			}
		},
		{
			"doubleSided":true,
			"name":"M_gr1",
			"pbrMetallicRoughness":{
				"baseColorFactor":[
					0.09387587010860443,
					0.48776519298553467,
					0.05637409910559654,
					1
				],
				"metallicFactor":0,
				"roughnessFactor":0.8500000238418579
			}
		},
		{
			"doubleSided":true,
			"name":"M_gr2",
			"pbrMetallicRoughness":{
				"baseColorFactor":[
					0.1939721703529358,
					0.6592239737510681,
					0.0915183499455452,
					1
				],
				"metallicFactor":0,
				"roughnessFactor":0.8500000238418579
			}
		},
		{
			"doubleSided":true,
			"name":"M_gr3",
			"pbrMetallicRoughness":{
				"baseColorFactor":[
					0.5113978385925293,
					0.6940805315971375,
					0.07382776588201523,
					1
				],
				"metallicFactor":0,
				"roughnessFactor":0.8500000238418579
			}
		},
		{
			"doubleSided":true,
			"name":"M_gr4",
			"pbrMetallicRoughness":{
				"baseColorFactor":[
					0.09387587010860443,
					0.48776519298553467,
					0.05637409910559654,
					1
				],
				"metallicFactor":0,
				"roughnessFactor":0.8500000238418579
			}
		},
		{
			"doubleSided":true,
			"name":"M_gr5",
			"pbrMetallicRoughness":{
				"baseColorFactor":[
					0.1939721703529358,
					0.6592239737510681,
					0.0915183499455452,
					1
				],
				"metallicFactor":0,
				"roughnessFactor":0.8500000238418579
			}
		},
		{
			"doubleSided":true,
			"name":"M_gr6",
			"pbrMetallicRoughness":{
				"baseColorFactor":[
					0.5113978385925293,
					0.6940805315971375,
					0.07382776588201523,
					1
				],
				"metallicFactor":0,
				"roughnessFactor":0.8500000238418579
			}
		},
		{
			"doubleSided":true,
			"name":"M_gr7",
			"pbrMetallicRoughness":{
				"baseColorFactor":[
					0.09387587010860443,
					0.48776519298553467,
					0.05637409910559654,
					1
				],
				"metallicFactor":0,
				"roughnessFactor":0.8500000238418579
			}
		},
		{
			"doubleSided":true,
			"name":"M_gr8",
			"pbrMetallicRoughness":{
				"baseColorFactor":[
					0.1939721703529358,
					0.6592239737510681,
					0.0915183499455452,
					1
				],
				"metallicFactor":0,
				"roughnessFactor":0.8500000238418579
			}
		}
	],
	"meshes":[
		{
			"name":"Cone",
			"primitives":[
				{
					"attributes":{
						"POSITION":0,
						"NORMAL":1,
						"TEXCOORD_0":2
					},
					"indices":3,
					"material":0
				}
			]
		},
		{
			"name":"Cone.001",
			"primitives":[
				{
					"attributes":{
						"POSITION":4,
						"NORMAL":5,
						"TEXCOORD_0":6
					},
					"indices":3,
					"material":1
				}
			]
		},
		{
			"name":"Cone.002",
			"primitives":[
				{
					"attributes":{
						"POSITION":7,
						"NORMAL":8,
						"TEXCOORD_0":9
					},
					"indices":3,
					"material":2
				}
			]
		},
		{
			"name":"Cone.003",
			"primitives":[
				{
					"attributes":{
						"POSITION":10,
						"NORMAL":11,
						"TEXCOORD_0":12
					},
					"indices":3,
					"material":3
				}
			]
		},
		{
			"name":"Cone.004",
			"primitives":[
				{
					"attributes":{
						"POSITION":13,
						"NORMAL":14,
						"TEXCOORD_0":15
					},
					"indices":3,
					"material":4
				}
			]
		},
		{
			"name":"Cone.005",
			"primitives":[
				{
					"attributes":{
						"POSITION":16,
						"NORMAL":17,
						"TEXCOORD_0":18
					},
					"indices":3,
					"material":5
				}
			]
		},
		{
			"name":"Cone.006",
			"primitives":[
				{
					"attributes":{
						"POSITION":19,
						"NORMAL":20,
						"TEXCOORD_0":21
					},
					"indices":3,
					"material":6
				}
			]
		},
		{
			"name":"Cone.007",
			"primitives":[
				{
					"attributes":{
						"POSITION":22,
						"NORMAL":23,
						"TEXCOORD_0":24
					},
					"indices":3,
					"material":7
				}
			]
		},
		{
			"name":"Cone.008",
			"primitives":[
				{
					"attributes":{
						"POSITION":25,
						"NORMAL":26,
						"TEXCOORD_0":27
					},
					"indices":3,
					"material":8
				}
			]
		}
	],
	"accessors":[
		{
			"bufferView":0,
			"componentType":5126,
			"count":18,
			"max":[
				0.22089210152626038,
				0.4713185429573059,
				-0.008285043761134148
			],
			"min":[
				0.035741135478019714,
				-0.0021363496780395508,
				-0.09799601137638092
			],
			"type":"VEC3"
		},
		{
			"bufferView":1,
			"componentType":5126,
			"count":18,
			"type":"VEC3"
		},
		{
			"bufferView":2,
			"componentType":5126,
			"count":18,
			"type":"VEC2"
		},
		{
			"bufferView":3,
			"componentType":5123,
			"count":36,
			"type":"SCALAR"
		},
		{
			"bufferView":4,
			"componentType":5126,
			"count":18,
			"max":[
				0.14332105219364166,
				0.5269581079483032,
				-0.07767148315906525
			],
			"min":[
				0.03501841425895691,
				-0.0021957457065582275,
				-0.1776416152715683
			],
			"type":"VEC3"
		},
		{
			"bufferView":5,
			"componentType":5126,
			"count":18,
			"type":"VEC3"
		},
		{
			"bufferView":6,
			"componentType":5126,
			"count":18,
			"type":"VEC2"
		},
		{
			"bufferView":7,
			"componentType":5126,
			"count":18,
			"max":[
				0.022318677976727486,
				0.44734102487564087,
				-0.0809255838394165
			],
			"min":[
				-0.06766970455646515,
				-0.0033095628023147583,
				-0.2604307234287262
			],
			"type":"VEC3"
		},
		{
			"bufferView":8,
			"componentType":5126,
			"count":18,
			"type":"VEC3"
		},
		{
			"bufferView":9,
			"componentType":5126,
			"count":18,
			"type":"VEC2"
		},
		{
			"bufferView":10,
			"componentType":5126,
			"count":18,
			"max":[
				-0.03656810522079468,
				0.3433237075805664,
				-0.033853136003017426
			],
			"min":[
				-0.1431756317615509,
				-0.003155067563056946,
				-0.13558954000473022
			],
			"type":"VEC3"
		},
		{
			"bufferView":11,
			"componentType":5126,
			"count":18,
			"type":"VEC3"
		},
		{
			"bufferView":12,
			"componentType":5126,
			"count":18,
			"type":"VEC2"
		},
		{
			"bufferView":13,
			"componentType":5126,
			"count":18,
			"max":[
				0.01363103836774826,
				0.3328888416290283,
				0.04160429164767265
			],
			"min":[
				-0.13397909700870514,
				-0.00575844943523407,
				-0.048392828553915024
			],
			"type":"VEC3"
		},
		{
			"bufferView":14,
			"componentType":5126,
			"count":18,
			"type":"VEC3"
		},
		{
			"bufferView":15,
			"componentType":5126,
			"count":18,
			"type":"VEC2"
		},
		{
			"bufferView":16,
			"componentType":5126,
			"count":18,
			"max":[
				-0.0772765725851059,
				0.3209909498691559,
				0.15052148699760437
			],
			"min":[
				-0.16676592826843262,
				-0.004237115383148193,
				0.047390151768922806
			],
			"type":"VEC3"
		},
		{
			"bufferView":17,
			"componentType":5126,
			"count":18,
			"type":"VEC3"
		},
		{
			"bufferView":18,
			"componentType":5126,
			"count":18,
			"type":"VEC2"
		},
		{
			"bufferView":19,
			"componentType":5126,
			"count":18,
			"max":[
				0.00966276042163372,
				0.3136802911758423,
				0.1720890998840332
			],
			"min":[
				-0.08015475422143936,
				-0.0034529417753219604,
				0.08256123960018158
			],
			"type":"VEC3"
		},
		{
			"bufferView":20,
			"componentType":5126,
			"count":18,
			"type":"VEC3"
		},
		{
			"bufferView":21,
			"componentType":5126,
			"count":18,
			"type":"VEC2"
		},
		{
			"bufferView":22,
			"componentType":5126,
			"count":18,
			"max":[
				0.09567876905202866,
				0.33199337124824524,
				0.1473390758037567
			],
			"min":[
				0.0025085005909204483,
				-0.004356175661087036,
				0.006058644503355026
			],
			"type":"VEC3"
		},
		{
			"bufferView":23,
			"componentType":5126,
			"count":18,
			"type":"VEC3"
		},
		{
			"bufferView":24,
			"componentType":5126,
			"count":18,
			"type":"VEC2"
		},
		{
			"bufferView":25,
			"componentType":5126,
			"count":18,
			"max":[
				0.1733204573392868,
				0.5330711603164673,
				0.09654700756072998
			],
			"min":[
				0.0024212077260017395,
				-0.0022641122341156006,
				0.00024901144206523895
			],
			"type":"VEC3"
		},
		{
			"bufferView":26,
			"componentType":5126,
			"count":18,
			"type":"VEC3"
		},
		{
			"bufferView":27,
			"componentType":5126,
			"count":18,
			"type":"VEC2"
		}
	],
	"bufferViews":[
		{
			"buffer":0,
			"byteLength":216,
			"byteOffset":0,
			"target":34962
		},
		{
			"buffer":0,
			"byteLength":216,
			"byteOffset":216,
			"target":34962
		},
		{
			"buffer":0,
			"byteLength":144,
			"byteOffset":432,
			"target":34962
		},
		{
			"buffer":0,
			"byteLength":72,
			"byteOffset":576,
			"target":34963
		},
		{
			"buffer":0,
			"byteLength":216,
			"byteOffset":648,
			"target":34962
		},
		{
			"buffer":0,
			"byteLength":216,
			"byteOffset":864,
			"target":34962
		},
		{
			"buffer":0,
			"byteLength":144,
			"byteOffset":1080,
			"target":34962
		},
		{
			"buffer":0,
			"byteLength":216,
			"byteOffset":1224,
			"target":34962
		},
		{
			"buffer":0,
			"byteLength":216,
			"byteOffset":1440,
			"target":34962
		},
		{
			"buffer":0,
			"byteLength":144,
			"byteOffset":1656,
			"target":34962
		},
		{
			"buffer":0,
			"byteLength":216,
			"byteOffset":1800,
			"target":34962
		},
		{
			"buffer":0,
			"byteLength":216,
			"byteOffset":2016,
			"target":34962
		},
		{
			"buffer":0,
			"byteLength":144,
			"byteOffset":2232,
			"target":34962
		},
		{
			"buffer":0,
			"byteLength":216,
			"byteOffset":2376,
			"target":34962
		},
		{
			"buffer":0,
			"byteLength":216,
			"byteOffset":2592,
			"target":34962
		},
		{
			"buffer":0,
			"byteLength":144,
			"byteOffset":2808,
			"target":34962
		},
		{
			"buffer":0,
			"byteLength":216,
			"byteOffset":2952,
			"target":34962
		},
		{
			"buffer":0,
			"byteLength":216,
			"byteOffset":3168,
			"target":34962
		},
		{
			"buffer":0,
			"byteLength":144,
			"byteOffset":3384,
			"target":34962
		},
		{
			"buffer":0,
			"byteLength":216,
			"byteOffset":3528,
			"target":34962
		},
		{
			"buffer":0,
			"byteLength":216,
			"byteOffset":3744,
			"target":34962
		},
		{
			"buffer":0,
			"byteLength":144,
			"byteOffset":3960,
			"target":34962
		},
		{
			"buffer":0,
			"byteLength":216,
			"byteOffset":4104,
			"target":34962
		},
		{
			"buffer":0,
			"byteLength":216,
			"byteOffset":4320,
			"target":34962
		},
		{
			"buffer":0,
			"byteLength":144,
			"byteOffset":4536,
			"target":34962
		},
		{
			"buffer":0,
			"byteLength":216,
			"byteOffset":4680,
			"target":34962
		},
		{
			"buffer":0,
			"byteLength":216,
			"byteOffset":4896,
			"target":34962
		},
		{
			"buffer":0,
			"byteLength":144,
			"byteOffset":5112,
			"target":34962
		}
	],
	"buffers":[
		{
			"byteLength":5256,
			"uri":"hd_grass.bin"
		}
	]
}
