{
	"asset":{
		"generator":"Khronos glTF Blender I/O v5.2.40",
		"version":"2.0"
	},
	"scene":0,
	"scenes":[
		{
			"name":"Scene",
			"nodes":[
				0,
				1,
				2,
				3,
				4,
				5,
				6,
				7,
				8
			]
		}
	],
	"nodes":[
		{
			"mesh":0,
			"name":"tw0",
			"translation":[
				0.0488123744726181,
				0,
				0.010832910425961018
			]
		},
		{
			"mesh":1,
			"name":"tw1",
			"translation":[
				0.04971902444958687,
				0,
				-0.005293276160955429
			]
		},
		{
			"mesh":2,
			"name":"tw2",
			"translation":[
				0.0032288224902004004,
				0,
				-0.04989563673734665
			]
		},
		{
			"mesh":3,
			"name":"tw3",
			"translation":[
				0.006699740886688232,
				0,
				-0.049549102783203125
			]
		},
		{
			"mesh":4,
			"name":"tw4",
			"translation":[
				0.04452723637223244,
				0,
				0.022744782269001007
			]
		},
		{
			"mesh":5,
			"name":"tw5",
			"translation":[
				0.04397190362215042,
				0,
				-0.023800663650035858
			]
		},
		{
			"mesh":6,
			"name":"tw6",
			"translation":[
				-0.030503351241350174,
				0,
				0.03961749002337456
			]
		},
		{
			"mesh":7,
			"name":"tw7",
			"translation":[
				0.04704667627811432,
				0,
				0.016929563134908676
			]
		},
		{
			"mesh":8,
			"name":"tw8",
			"translation":[
				-0.018264487385749817,
				0,
				0.046544693410396576
			]
		}
	],
	"materials":[
		{
			"doubleSided":true,
			"name":"M_dt0",
			"pbrMetallicRoughness":{
				"baseColorFactor":[
					0.4423229396343231,
					0.26317471265792847,
					0.07592611759901047,
					1
				],
				"metallicFactor":0,
				"roughnessFactor":0.8500000238418579
			}
		},
		{
			"doubleSided":true,
			"name":"M_dt1",
			"pbrMetallicRoughness":{
				"baseColorFactor":[
					0.4423229396343231,
					0.26317471265792847,
					0.07592611759901047,
					1
				],
				"metallicFactor":0,
				"roughnessFactor":0.8500000238418579
			}
		},
		{
			"doubleSided":true,
			"name":"M_dt2",
			"pbrMetallicRoughness":{
				"baseColorFactor":[
					0.4423229396343231,
					0.26317471265792847,
					0.07592611759901047,
					1
				],
				"metallicFactor":0,
				"roughnessFactor":0.8500000238418579
			}
		},
		{
			"doubleSided":true,
			"name":"M_dt3",
			"pbrMetallicRoughness":{
				"baseColorFactor":[
					0.4423229396343231,
					0.26317471265792847,
					0.07592611759901047,
					1
				],
				"metallicFactor":0,
				"roughnessFactor":0.8500000238418579
			}
		},
		{
			"doubleSided":true,
			"name":"M_dt4",
			"pbrMetallicRoughness":{
				"baseColorFactor":[
					0.4423229396343231,
					0.26317471265792847,
					0.07592611759901047,
					1
				],
				"metallicFactor":0,
				"roughnessFactor":0.8500000238418579
			}
		},
		{
			"doubleSided":true,
			"name":"M_dt5",
			"pbrMetallicRoughness":{
				"baseColorFactor":[
					0.4423229396343231,
					0.26317471265792847,
					0.07592611759901047,
					1
				],
				"metallicFactor":0,
				"roughnessFactor":0.8500000238418579
			}
		},
		{
			"doubleSided":true,
			"name":"M_dt6",
			"pbrMetallicRoughness":{
				"baseColorFactor":[
					0.4423229396343231,
					0.26317471265792847,
					0.07592611759901047,
					1
				],
				"metallicFactor":0,
				"roughnessFactor":0.8500000238418579
			}
		},
		{
			"doubleSided":true,
			"name":"M_dt7",
			"pbrMetallicRoughness":{
				"baseColorFactor":[
					0.4423229396343231,
					0.26317471265792847,
					0.07592611759901047,
					1
				],
				"metallicFactor":0,
				"roughnessFactor":0.8500000238418579
			}
		},
		{
			"doubleSided":true,
			"name":"M_dt8",
			"pbrMetallicRoughness":{
				"baseColorFactor":[
					0.4423229396343231,
					0.26317471265792847,
					0.07592611759901047,
					1
				],
				"metallicFactor":0,
				"roughnessFactor":0.8500000238418579
			}
		}
	],
	"meshes":[
		{
			"name":"Cone",
			"primitives":[
				{
					"attributes":{
						"POSITION":0,
						"NORMAL":1,
						"TEXCOORD_0":2
					},
					"indices":3,
					"material":0
				}
			]
		},
		{
			"name":"Cone.001",
			"primitives":[
				{
					"attributes":{
						"POSITION":4,
						"NORMAL":5,
						"TEXCOORD_0":6
					},
					"indices":7,
					"material":1
				}
			]
		},
		{
			"name":"Cone.002",
			"primitives":[
				{
					"attributes":{
						"POSITION":8,
						"NORMAL":9,
						"TEXCOORD_0":10
					},
					"indices":11,
					"material":2
				}
			]
		},
		{
			"name":"Cone.003",
			"primitives":[
				{
					"attributes":{
						"POSITION":12,
						"NORMAL":13,
						"TEXCOORD_0":14
					},
					"indices":15,
					"material":3
				}
			]
		},
		{
			"name":"Cone.004",
			"primitives":[
				{
					"attributes":{
						"POSITION":16,
						"NORMAL":17,
						"TEXCOORD_0":18
					},
					"indices":19,
					"material":4
				}
			]
		},
		{
			"name":"Cone.005",
			"primitives":[
				{
					"attributes":{
						"POSITION":20,
						"NORMAL":21,
						"TEXCOORD_0":22
					},
					"indices":23,
					"material":5
				}
			]
		},
		{
			"name":"Cone.006",
			"primitives":[
				{
					"attributes":{
						"POSITION":24,
						"NORMAL":25,
						"TEXCOORD_0":26
					},
					"indices":27,
					"material":6
				}
			]
		},
		{
			"name":"Cone.007",
			"primitives":[
				{
					"attributes":{
						"POSITION":28,
						"NORMAL":29,
						"TEXCOORD_0":30
					},
					"indices":31,
					"material":7
				}
			]
		},
		{
			"name":"Cone.008",
			"primitives":[
				{
					"attributes":{
						"POSITION":32,
						"NORMAL":33,
						"TEXCOORD_0":34
					},
					"indices":35,
					"material":8
				}
			]
		}
	],
	"accessors":[
		{
			"bufferView":0,
			"componentType":5126,
			"count":24,
			"max":[
				0.2249750792980194,
				0.6144684553146362,
				0.346343457698822
			],
			"min":[
				-0.21194608509540558,
				0.09625869989395142,
				-0.35624784231185913
			],
			"type":"VEC3"
		},
		{
			"bufferView":1,
			"componentType":5126,
			"count":24,
			"type":"VEC3"
		},
		{
			"bufferView":2,
			"componentType":5126,
			"count":24,
			"type":"VEC2"
		},
		{
			"bufferView":3,
			"componentType":5123,
			"count":36,
			"type":"SCALAR"
		},
		{
			"bufferView":4,
			"componentType":5126,
			"count":24,
			"max":[
				0.08807837218046188,
				0.536056637763977,
				0.43475908041000366
			],
			"min":[
				-0.07551732659339905,
				0.15269969403743744,
				-0.44079524278640747
			],
			"type":"VEC3"
		},
		{
			"bufferView":5,
			"componentType":5126,
			"count":24,
			"type":"VEC3"
		},
		{
			"bufferView":6,
			"componentType":5126,
			"count":24,
			"type":"VEC2"
		},
		{
			"bufferView":7,
			"componentType":5123,
			"count":36,
			"type":"SCALAR"
		},
		{
			"bufferView":8,
			"componentType":5126,
			"count":24,
			"max":[
				0.2878032922744751,
				0.4861626625061035,
				0.1577913463115692
			],
			"min":[
				-0.29628995060920715,
				0.22502440214157104,
				-0.16776292026042938
			],
			"type":"VEC3"
		},
		{
			"bufferView":9,
			"componentType":5126,
			"count":24,
			"type":"VEC3"
		},
		{
			"bufferView":10,
			"componentType":5126,
			"count":24,
			"type":"VEC2"
		},
		{
			"bufferView":11,
			"componentType":5123,
			"count":36,
			"type":"SCALAR"
		},
		{
			"bufferView":12,
			"componentType":5126,
			"count":24,
			"max":[
				0.14404286444187164,
				0.5692176818847656,
				0.2248648703098297
			],
			"min":[
				-0.15763498842716217,
				0.12057149410247803,
				-0.23575393855571747
			],
			"type":"VEC3"
		},
		{
			"bufferView":13,
			"componentType":5126,
			"count":24,
			"type":"VEC3"
		},
		{
			"bufferView":14,
			"componentType":5126,
			"count":24,
			"type":"VEC2"
		},
		{
			"bufferView":15,
			"componentType":5123,
			"count":36,
			"type":"SCALAR"
		},
		{
			"bufferView":16,
			"componentType":5126,
			"count":24,
			"max":[
				0.1461729109287262,
				0.41310179233551025,
				0.3426401913166046
			],
			"min":[
				-0.15978556871414185,
				0.2722097933292389,
				-0.3486326336860657
			],
			"type":"VEC3"
		},
		{
			"bufferView":17,
			"componentType":5126,
			"count":24,
			"type":"VEC3"
		},
		{
			"bufferView":18,
			"componentType":5126,
			"count":24,
			"type":"VEC2"
		},
		{
			"bufferView":19,
			"componentType":5123,
			"count":36,
			"type":"SCALAR"
		},
		{
			"bufferView":20,
			"componentType":5126,
			"count":24,
			"max":[
				0.3870376944541931,
				0.39983248710632324,
				0.26021939516067505
			],
			"min":[
				-0.3951947093009949,
				0.31502479314804077,
				-0.2726752758026123
			],
			"type":"VEC3"
		},
		{
			"bufferView":21,
			"componentType":5126,
			"count":24,
			"type":"VEC3"
		},
		{
			"bufferView":22,
			"componentType":5126,
			"count":24,
			"type":"VEC2"
		},
		{
			"bufferView":23,
			"componentType":5123,
			"count":36,
			"type":"SCALAR"
		},
		{
			"bufferView":24,
			"componentType":5126,
			"count":24,
			"max":[
				0.14332695305347443,
				0.6773136854171753,
				0.17933590710163116
			],
			"min":[
				-0.13245534896850586,
				0.014930307865142822,
				-0.16759511828422546
			],
			"type":"VEC3"
		},
		{
			"bufferView":25,
			"componentType":5126,
			"count":24,
			"type":"VEC3"
		},
		{
			"bufferView":26,
			"componentType":5126,
			"count":24,
			"type":"VEC2"
		},
		{
			"bufferView":27,
			"componentType":5123,
			"count":36,
			"type":"SCALAR"
		},
		{
			"bufferView":28,
			"componentType":5126,
			"count":24,
			"max":[
				0.13675160706043243,
				0.7208293676376343,
				0.2532672882080078
			],
			"min":[
				-0.1490238904953003,
				-0.028238028287887573,
				-0.2651240825653076
			],
			"type":"VEC3"
		},
		{
			"bufferView":29,
			"componentType":5126,
			"count":24,
			"type":"VEC3"
		},
		{
			"bufferView":30,
			"componentType":5126,
			"count":24,
			"type":"VEC2"
		},
		{
			"bufferView":31,
			"componentType":5123,
			"count":36,
			"type":"SCALAR"
		},
		{
			"bufferView":32,
			"componentType":5126,
			"count":24,
			"max":[
				0.43586358428001404,
				0.38045063614845276,
				0.1542150378227234
			],
			"min":[
				-0.43088841438293457,
				0.30460458993911743,
				-0.16833233833312988
			],
			"type":"VEC3"
		},
		{
			"bufferView":33,
			"componentType":5126,
			"count":24,
			"type":"VEC3"
		},
		{
			"bufferView":34,
			"componentType":5126,
			"count":24,
			"type":"VEC2"
		},
		{
			"bufferView":35,
			"componentType":5123,
			"count":36,
			"type":"SCALAR"
		}
	],
	"bufferViews":[
		{
			"buffer":0,
			"byteLength":288,
			"byteOffset":0,
			"target":34962
		},
		{
			"buffer":0,
			"byteLength":288,
			"byteOffset":288,
			"target":34962
		},
		{
			"buffer":0,
			"byteLength":192,
			"byteOffset":576,
			"target":34962
		},
		{
			"buffer":0,
			"byteLength":72,
			"byteOffset":768,
			"target":34963
		},
		{
			"buffer":0,
			"byteLength":288,
			"byteOffset":840,
			"target":34962
		},
		{
			"buffer":0,
			"byteLength":288,
			"byteOffset":1128,
			"target":34962
		},
		{
			"buffer":0,
			"byteLength":192,
			"byteOffset":1416,
			"target":34962
		},
		{
			"buffer":0,
			"byteLength":72,
			"byteOffset":1608,
			"target":34963
		},
		{
			"buffer":0,
			"byteLength":288,
			"byteOffset":1680,
			"target":34962
		},
		{
			"buffer":0,
			"byteLength":288,
			"byteOffset":1968,
			"target":34962
		},
		{
			"buffer":0,
			"byteLength":192,
			"byteOffset":2256,
			"target":34962
		},
		{
			"buffer":0,
			"byteLength":72,
			"byteOffset":2448,
			"target":34963
		},
		{
			"buffer":0,
			"byteLength":288,
			"byteOffset":2520,
			"target":34962
		},
		{
			"buffer":0,
			"byteLength":288,
			"byteOffset":2808,
			"target":34962
		},
		{
			"buffer":0,
			"byteLength":192,
			"byteOffset":3096,
			"target":34962
		},
		{
			"buffer":0,
			"byteLength":72,
			"byteOffset":3288,
			"target":34963
		},
		{
			"buffer":0,
			"byteLength":288,
			"byteOffset":3360,
			"target":34962
		},
		{
			"buffer":0,
			"byteLength":288,
			"byteOffset":3648,
			"target":34962
		},
		{
			"buffer":0,
			"byteLength":192,
			"byteOffset":3936,
			"target":34962
		},
		{
			"buffer":0,
			"byteLength":72,
			"byteOffset":4128,
			"target":34963
		},
		{
			"buffer":0,
			"byteLength":288,
			"byteOffset":4200,
			"target":34962
		},
		{
			"buffer":0,
			"byteLength":288,
			"byteOffset":4488,
			"target":34962
		},
		{
			"buffer":0,
			"byteLength":192,
			"byteOffset":4776,
			"target":34962
		},
		{
			"buffer":0,
			"byteLength":72,
			"byteOffset":4968,
			"target":34963
		},
		{
			"buffer":0,
			"byteLength":288,
			"byteOffset":5040,
			"target":34962
		},
		{
			"buffer":0,
			"byteLength":288,
			"byteOffset":5328,
			"target":34962
		},
		{
			"buffer":0,
			"byteLength":192,
			"byteOffset":5616,
			"target":34962
		},
		{
			"buffer":0,
			"byteLength":72,
			"byteOffset":5808,
			"target":34963
		},
		{
			"buffer":0,
			"byteLength":288,
			"byteOffset":5880,
			"target":34962
		},
		{
			"buffer":0,
			"byteLength":288,
			"byteOffset":6168,
			"target":34962
		},
		{
			"buffer":0,
			"byteLength":192,
			"byteOffset":6456,
			"target":34962
		},
		{
			"buffer":0,
			"byteLength":72,
			"byteOffset":6648,
			"target":34963
		},
		{
			"buffer":0,
			"byteLength":288,
			"byteOffset":6720,
			"target":34962
		},
		{
			"buffer":0,
			"byteLength":288,
			"byteOffset":7008,
			"target":34962
		},
		{
			"buffer":0,
			"byteLength":192,
			"byteOffset":7296,
			"target":34962
		},
		{
			"buffer":0,
			"byteLength":72,
			"byteOffset":7488,
			"target":34963
		}
	],
	"buffers":[
		{
			"byteLength":7560,
			"uri":"hd_drybrush.bin"
		}
	]
}
