{
	"asset":{
		"generator":"Khronos glTF Blender I/O v5.2.40",
		"version":"2.0"
	},
	"scene":0,
	"scenes":[
		{
			"name":"Scene",
			"nodes":[
				0,
				1,
				2,
				3,
				4,
				5,
				6,
				7,
				8,
				9,
				10
			]
		}
	],
	"nodes":[
		{
			"mesh":0,
			"name":"abacus"
		},
		{
			"mesh":1,
			"name":"baseRing"
		},
		{
			"mesh":2,
			"name":"echinus"
		},
		{
			"mesh":3,
			"name":"flute0"
		},
		{
			"mesh":4,
			"name":"flute1"
		},
		{
			"mesh":5,
			"name":"flute2"
		},
		{
			"mesh":6,
			"name":"flute3"
		},
		{
			"mesh":7,
			"name":"neckRing"
		},
		{
			"mesh":8,
			"name":"plinth"
		},
		{
			"mesh":9,
			"name":"plinth2"
		},
		{
			"mesh":10,
			"name":"shaft"
		}
	],
	"materials":[
		{
			"doubleSided":true,
			"name":"M_ca",
			"pbrMetallicRoughness":{
				"baseColorFactor":[
					0.7226724624633789,
					0.5924380421638489,
					0.39929330348968506,
					1
				],
				"metallicFactor":0,
				"roughnessFactor":0.8500000238418579
			}
		},
		{
			"doubleSided":true,
			"name":"M_cb2",
			"pbrMetallicRoughness":{
				"baseColorFactor":[
					0.7226724624633789,
					0.5924380421638489,
					0.39929330348968506,
					1
				],
				"metallicFactor":0,
				"roughnessFactor":0.8500000238418579
			}
		},
		{
			"doubleSided":true,
			"name":"M_ce",
			"pbrMetallicRoughness":{
				"baseColorFactor":[
					0.7226724624633789,
					0.5924380421638489,
					0.39929330348968506,
					1
				],
				"metallicFactor":0,
				"roughnessFactor":0.8500000238418579
			}
		},
		{
			"doubleSided":true,
			"name":"M_cf0",
			"pbrMetallicRoughness":{
				"baseColorFactor":[
					0.4819522500038147,
					0.3586539030075073,
					0.18698850274085999,
					1
				],
				"metallicFactor":0,
				"roughnessFactor":0.8500000238418579
			}
		},
		{
			"doubleSided":true,
			"name":"M_cf1",
			"pbrMetallicRoughness":{
				"baseColorFactor":[
					0.4819522500038147,
					0.3586539030075073,
					0.18698850274085999,
					1
				],
				"metallicFactor":0,
				"roughnessFactor":0.8500000238418579
			}
		},
		{
			"doubleSided":true,
			"name":"M_cf2",
			"pbrMetallicRoughness":{
				"baseColorFactor":[
					0.4819522500038147,
					0.3586539030075073,
					0.18698850274085999,
					1
				],
				"metallicFactor":0,
				"roughnessFactor":0.8500000238418579
			}
		},
		{
			"doubleSided":true,
			"name":"M_cf3",
			"pbrMetallicRoughness":{
				"baseColorFactor":[
					0.4819522500038147,
					0.3586539030075073,
					0.18698850274085999,
					1
				],
				"metallicFactor":0,
				"roughnessFactor":0.8500000238418579
			}
		},
		{
			"doubleSided":true,
			"name":"M_cn",
			"pbrMetallicRoughness":{
				"baseColorFactor":[
					0.4819522500038147,
					0.3586539030075073,
					0.18698850274085999,
					1
				],
				"metallicFactor":0,
				"roughnessFactor":0.8500000238418579
			}
		},
		{
			"doubleSided":true,
			"name":"M_cp",
			"pbrMetallicRoughness":{
				"baseColorFactor":[
					0.4819522500038147,
					0.3586539030075073,
					0.18698850274085999,
					1
				],
				"metallicFactor":0,
				"roughnessFactor":0.8500000238418579
			}
		},
		{
			"doubleSided":true,
			"name":"M_cp2",
			"pbrMetallicRoughness":{
				"baseColorFactor":[
					0.7226724624633789,
					0.5924380421638489,
					0.39929330348968506,
					1
				],
				"metallicFactor":0,
				"roughnessFactor":0.8500000238418579
			}
		},
		{
			"doubleSided":true,
			"name":"M_cs",
			"pbrMetallicRoughness":{
				"baseColorFactor":[
					0.7226724624633789,
					0.5924380421638489,
					0.39929330348968506,
					1
				],
				"metallicFactor":0,
				"roughnessFactor":0.8500000238418579
			}
		}
	],
	"meshes":[
		{
			"name":"Cube.006",
			"primitives":[
				{
					"attributes":{
						"POSITION":0,
						"NORMAL":1,
						"TEXCOORD_0":2
					},
					"indices":3,
					"material":0
				}
			]
		},
		{
			"name":"Torus",
			"primitives":[
				{
					"attributes":{
						"POSITION":4,
						"NORMAL":5,
						"TEXCOORD_0":6
					},
					"indices":7,
					"material":1
				}
			]
		},
		{
			"name":"Sphere",
			"primitives":[
				{
					"attributes":{
						"POSITION":8,
						"NORMAL":9,
						"TEXCOORD_0":10
					},
					"indices":11,
					"material":2
				}
			]
		},
		{
			"name":"Cube.002",
			"primitives":[
				{
					"attributes":{
						"POSITION":12,
						"NORMAL":13,
						"TEXCOORD_0":14
					},
					"indices":15,
					"material":3
				}
			]
		},
		{
			"name":"Cube.003",
			"primitives":[
				{
					"attributes":{
						"POSITION":16,
						"NORMAL":17,
						"TEXCOORD_0":18
					},
					"indices":19,
					"material":4
				}
			]
		},
		{
			"name":"Cube.004",
			"primitives":[
				{
					"attributes":{
						"POSITION":20,
						"NORMAL":21,
						"TEXCOORD_0":22
					},
					"indices":23,
					"material":5
				}
			]
		},
		{
			"name":"Cube.005",
			"primitives":[
				{
					"attributes":{
						"POSITION":24,
						"NORMAL":25,
						"TEXCOORD_0":26
					},
					"indices":27,
					"material":6
				}
			]
		},
		{
			"name":"Torus.001",
			"primitives":[
				{
					"attributes":{
						"POSITION":28,
						"NORMAL":29,
						"TEXCOORD_0":30
					},
					"indices":31,
					"material":7
				}
			]
		},
		{
			"name":"Cube",
			"primitives":[
				{
					"attributes":{
						"POSITION":32,
						"NORMAL":33,
						"TEXCOORD_0":34
					},
					"indices":3,
					"material":8
				}
			]
		},
		{
			"name":"Cube.001",
			"primitives":[
				{
					"attributes":{
						"POSITION":35,
						"NORMAL":36,
						"TEXCOORD_0":37
					},
					"indices":3,
					"material":9
				}
			]
		},
		{
			"name":"Cone",
			"primitives":[
				{
					"attributes":{
						"POSITION":38,
						"NORMAL":39,
						"TEXCOORD_0":40
					},
					"indices":41,
					"material":10
				}
			]
		}
	],
	"accessors":[
		{
			"bufferView":0,
			"componentType":5126,
			"count":24,
			"max":[
				0.5,
				3.7699999809265137,
				0.5
			],
			"min":[
				-0.5,
				3.5900001525878906,
				-0.5
			],
			"type":"VEC3"
		},
		{
			"bufferView":1,
			"componentType":5126,
			"count":24,
			"type":"VEC3"
		},
		{
			"bufferView":2,
			"componentType":5126,
			"count":24,
			"type":"VEC2"
		},
		{
			"bufferView":3,
			"componentType":5123,
			"count":36,
			"type":"SCALAR"
		},
		{
			"bufferView":4,
			"componentType":5126,
			"count":244,
			"max":[
				0.3700000047683716,
				0.6106218099594116,
				0.3700000047683716
			],
			"min":[
				-0.3700000047683716,
				0.4893782436847687,
				-0.3700000047683716
			],
			"type":"VEC3"
		},
		{
			"bufferView":5,
			"componentType":5126,
			"count":244,
			"type":"VEC3"
		},
		{
			"bufferView":6,
			"componentType":5126,
			"count":244,
			"type":"VEC2"
		},
		{
			"bufferView":7,
			"componentType":5123,
			"count":432,
			"type":"SCALAR"
		},
		{
			"bufferView":8,
			"componentType":5126,
			"count":89,
			"max":[
				0.3399999737739563,
				3.5928001403808594,
				0.3399999439716339
			],
			"min":[
				-0.3399999141693115,
				3.3071999549865723,
				-0.3400000035762787
			],
			"type":"VEC3"
		},
		{
			"bufferView":9,
			"componentType":5126,
			"count":89,
			"type":"VEC3"
		},
		{
			"bufferView":10,
			"componentType":5126,
			"count":89,
			"type":"VEC2"
		},
		{
			"bufferView":11,
			"componentType":5123,
			"count":360,
			"type":"SCALAR"
		},
		{
			"bufferView":12,
			"componentType":5126,
			"count":24,
			"max":[
				0.20152543485164642,
				3.179999828338623,
				-0.14495690166950226
			],
			"min":[
				0.14495690166950226,
				0.6200000047683716,
				-0.20152543485164642
			],
			"type":"VEC3"
		},
		{
			"bufferView":13,
			"componentType":5126,
			"count":24,
			"type":"VEC3"
		},
		{
			"bufferView":14,
			"componentType":5126,
			"count":24,
			"type":"VEC2"
		},
		{
			"bufferView":15,
			"componentType":5123,
			"count":36,
			"type":"SCALAR"
		},
		{
			"bufferView":16,
			"componentType":5126,
			"count":24,
			"max":[
				-0.14495690166950226,
				3.179999828338623,
				-0.14495690166950226
			],
			"min":[
				-0.20152543485164642,
				0.6200000047683716,
				-0.20152543485164642
			],
			"type":"VEC3"
		},
		{
			"bufferView":17,
			"componentType":5126,
			"count":24,
			"type":"VEC3"
		},
		{
			"bufferView":18,
			"componentType":5126,
			"count":24,
			"type":"VEC2"
		},
		{
			"bufferView":19,
			"componentType":5123,
			"count":36,
			"type":"SCALAR"
		},
		{
			"bufferView":20,
			"componentType":5126,
			"count":24,
			"max":[
				-0.14495690166950226,
				3.179999828338623,
				0.20152543485164642
			],
			"min":[
				-0.20152543485164642,
				0.6200000047683716,
				0.14495690166950226
			],
			"type":"VEC3"
		},
		{
			"bufferView":21,
			"componentType":5126,
			"count":24,
			"type":"VEC3"
		},
		{
			"bufferView":22,
			"componentType":5126,
			"count":24,
			"type":"VEC2"
		},
		{
			"bufferView":23,
			"componentType":5123,
			"count":36,
			"type":"SCALAR"
		},
		{
			"bufferView":24,
			"componentType":5126,
			"count":24,
			"max":[
				0.20152543485164642,
				3.179999828338623,
				0.20152543485164642
			],
			"min":[
				0.14495690166950226,
				0.6200000047683716,
				0.14495690166950226
			],
			"type":"VEC3"
		},
		{
			"bufferView":25,
			"componentType":5126,
			"count":24,
			"type":"VEC3"
		},
		{
			"bufferView":26,
			"componentType":5126,
			"count":24,
			"type":"VEC2"
		},
		{
			"bufferView":27,
			"componentType":5123,
			"count":36,
			"type":"SCALAR"
		},
		{
			"bufferView":28,
			"componentType":5126,
			"count":240,
			"max":[
				0.28999999165534973,
				3.3275527954101562,
				0.28999999165534973
			],
			"min":[
				-0.28999999165534973,
				3.2324471473693848,
				-0.28999999165534973
			],
			"type":"VEC3"
		},
		{
			"bufferView":29,
			"componentType":5126,
			"count":240,
			"type":"VEC3"
		},
		{
			"bufferView":30,
			"componentType":5126,
			"count":240,
			"type":"VEC2"
		},
		{
			"bufferView":31,
			"componentType":5123,
			"count":360,
			"type":"SCALAR"
		},
		{
			"bufferView":32,
			"componentType":5126,
			"count":24,
			"max":[
				0.550000011920929,
				0.30000001192092896,
				0.550000011920929
			],
			"min":[
				-0.550000011920929,
				0,
				-0.550000011920929
			],
			"type":"VEC3"
		},
		{
			"bufferView":33,
			"componentType":5126,
			"count":24,
			"type":"VEC3"
		},
		{
			"bufferView":34,
			"componentType":5126,
			"count":24,
			"type":"VEC2"
		},
		{
			"bufferView":35,
			"componentType":5126,
			"count":24,
			"max":[
				0.46000000834465027,
				0.47999998927116394,
				0.46000000834465027
			],
			"min":[
				-0.46000000834465027,
				0.2800000011920929,
				-0.46000000834465027
			],
			"type":"VEC3"
		},
		{
			"bufferView":36,
			"componentType":5126,
			"count":24,
			"type":"VEC3"
		},
		{
			"bufferView":37,
			"componentType":5126,
			"count":24,
			"type":"VEC2"
		},
		{
			"bufferView":38,
			"componentType":5126,
			"count":50,
			"max":[
				0.27000001072883606,
				3.25,
				0.27000001072883606
			],
			"min":[
				-0.27000001072883606,
				0.5499999523162842,
				-0.27000001072883606
			],
			"type":"VEC3"
		},
		{
			"bufferView":39,
			"componentType":5126,
			"count":50,
			"type":"VEC3"
		},
		{
			"bufferView":40,
			"componentType":5126,
			"count":50,
			"type":"VEC2"
		},
		{
			"bufferView":41,
			"componentType":5123,
			"count":132,
			"type":"SCALAR"
		}
	],
	"bufferViews":[
		{
			"buffer":0,
			"byteLength":288,
			"byteOffset":0,
			"target":34962
		},
		{
			"buffer":0,
			"byteLength":288,
			"byteOffset":288,
			"target":34962
		},
		{
			"buffer":0,
			"byteLength":192,
			"byteOffset":576,
			"target":34962
		},
		{
			"buffer":0,
			"byteLength":72,
			"byteOffset":768,
			"target":34963
		},
		{
			"buffer":0,
			"byteLength":2928,
			"byteOffset":840,
			"target":34962
		},
		{
			"buffer":0,
			"byteLength":2928,
			"byteOffset":3768,
			"target":34962
		},
		{
			"buffer":0,
			"byteLength":1952,
			"byteOffset":6696,
			"target":34962
		},
		{
			"buffer":0,
			"byteLength":864,
			"byteOffset":8648,
			"target":34963
		},
		{
			"buffer":0,
			"byteLength":1068,
			"byteOffset":9512,
			"target":34962
		},
		{
			"buffer":0,
			"byteLength":1068,
			"byteOffset":10580,
			"target":34962
		},
		{
			"buffer":0,
			"byteLength":712,
			"byteOffset":11648,
			"target":34962
		},
		{
			"buffer":0,
			"byteLength":720,
			"byteOffset":12360,
			"target":34963
		},
		{
			"buffer":0,
			"byteLength":288,
			"byteOffset":13080,
			"target":34962
		},
		{
			"buffer":0,
			"byteLength":288,
			"byteOffset":13368,
			"target":34962
		},
		{
			"buffer":0,
			"byteLength":192,
			"byteOffset":13656,
			"target":34962
		},
		{
			"buffer":0,
			"byteLength":72,
			"byteOffset":13848,
			"target":34963
		},
		{
			"buffer":0,
			"byteLength":288,
			"byteOffset":13920,
			"target":34962
		},
		{
			"buffer":0,
			"byteLength":288,
			"byteOffset":14208,
			"target":34962
		},
		{
			"buffer":0,
			"byteLength":192,
			"byteOffset":14496,
			"target":34962
		},
		{
			"buffer":0,
			"byteLength":72,
			"byteOffset":14688,
			"target":34963
		},
		{
			"buffer":0,
			"byteLength":288,
			"byteOffset":14760,
			"target":34962
		},
		{
			"buffer":0,
			"byteLength":288,
			"byteOffset":15048,
			"target":34962
		},
		{
			"buffer":0,
			"byteLength":192,
			"byteOffset":15336,
			"target":34962
		},
		{
			"buffer":0,
			"byteLength":72,
			"byteOffset":15528,
			"target":34963
		},
		{
			"buffer":0,
			"byteLength":288,
			"byteOffset":15600,
			"target":34962
		},
		{
			"buffer":0,
			"byteLength":288,
			"byteOffset":15888,
			"target":34962
		},
		{
			"buffer":0,
			"byteLength":192,
			"byteOffset":16176,
			"target":34962
		},
		{
			"buffer":0,
			"byteLength":72,
			"byteOffset":16368,
			"target":34963
		},
		{
			"buffer":0,
			"byteLength":2880,
			"byteOffset":16440,
			"target":34962
		},
		{
			"buffer":0,
			"byteLength":2880,
			"byteOffset":19320,
			"target":34962
		},
		{
			"buffer":0,
			"byteLength":1920,
			"byteOffset":22200,
			"target":34962
		},
		{
			"buffer":0,
			"byteLength":720,
			"byteOffset":24120,
			"target":34963
		},
		{
			"buffer":0,
			"byteLength":288,
			"byteOffset":24840,
			"target":34962
		},
		{
			"buffer":0,
			"byteLength":288,
			"byteOffset":25128,
			"target":34962
		},
		{
			"buffer":0,
			"byteLength":192,
			"byteOffset":25416,
			"target":34962
		},
		{
			"buffer":0,
			"byteLength":288,
			"byteOffset":25608,
			"target":34962
		},
		{
			"buffer":0,
			"byteLength":288,
			"byteOffset":25896,
			"target":34962
		},
		{
			"buffer":0,
			"byteLength":192,
			"byteOffset":26184,
			"target":34962
		},
		{
			"buffer":0,
			"byteLength":600,
			"byteOffset":26376,
			"target":34962
		},
		{
			"buffer":0,
			"byteLength":600,
			"byteOffset":26976,
			"target":34962
		},
		{
			"buffer":0,
			"byteLength":400,
			"byteOffset":27576,
			"target":34962
		},
		{
			"buffer":0,
			"byteLength":264,
			"byteOffset":27976,
			"target":34963
		}
	],
	"buffers":[
		{
			"byteLength":28240,
			"uri":"hd_column.bin"
		}
	]
}
