{
	"asset":{
		"generator":"Khronos glTF Blender I/O v5.2.40",
		"version":"2.0"
	},
	"extensionsUsed":[
		"KHR_materials_emissive_strength"
	],
	"scene":0,
	"scenes":[
		{
			"name":"Scene",
			"nodes":[
				0,
				1,
				2,
				3
			]
		}
	],
	"nodes":[
		{
			"mesh":0,
			"name":"base"
		},
		{
			"mesh":1,
			"name":"cube0"
		},
		{
			"mesh":2,
			"name":"cube1"
		},
		{
			"mesh":3,
			"name":"cube2"
		}
	],
	"materials":[
		{
			"doubleSided":true,
			"name":"M_hb2",
			"pbrMetallicRoughness":{
				"baseColorFactor":[
					0.014310519210994244,
					0.016988052055239677,
					0.06003160774707794,
					1
				],
				"metallicFactor":0,
				"roughnessFactor":0.8500000238418579
			}
		},
		{
			"doubleSided":true,
			"emissiveFactor":[
				0.12474094331264496,
				0.6940805315971375,
				1
			],
			"extensions":{
				"KHR_materials_emissive_strength":{
					"emissiveStrength":1.399999976158142
				}
			},
			"name":"M_hc0",
			"pbrMetallicRoughness":{
				"baseColorFactor":[
					0.12474094331264496,
					0.6940805315971375,
					1,
					1
				],
				"metallicFactor":0,
				"roughnessFactor":0.8500000238418579
			}
		},
		{
			"doubleSided":true,
			"emissiveFactor":[
				0.02982234006579952,
				1,
				0.9076177404946932
			],
			"extensions":{
				"KHR_materials_emissive_strength":{
					"emissiveStrength":1.1371380731525065
				}
			},
			"name":"M_hc1",
			"pbrMetallicRoughness":{
				"baseColorFactor":[
					0.02422294206917286,
					0.8122414946556091,
					0.7372047901153564,
					1
				],
				"metallicFactor":0,
				"roughnessFactor":0.8500000238418579
			}
		},
		{
			"doubleSided":true,
			"emissiveFactor":[
				1,
				0.07592611759901047,
				0.4423229396343231
			],
			"extensions":{
				"KHR_materials_emissive_strength":{
					"emissiveStrength":1.399999976158142
				}
			},
			"name":"M_hc2",
			"pbrMetallicRoughness":{
				"baseColorFactor":[
					1,
					0.07592611759901047,
					0.4423229396343231,
					1
				],
				"metallicFactor":0,
				"roughnessFactor":0.8500000238418579
			}
		}
	],
	"meshes":[
		{
			"name":"Cube",
			"primitives":[
				{
					"attributes":{
						"POSITION":0,
						"NORMAL":1,
						"TEXCOORD_0":2
					},
					"indices":3,
					"material":0
				}
			]
		},
		{
			"name":"Cube.001",
			"primitives":[
				{
					"attributes":{
						"POSITION":4,
						"NORMAL":5,
						"TEXCOORD_0":6
					},
					"indices":7,
					"material":1
				}
			]
		},
		{
			"name":"Cube.002",
			"primitives":[
				{
					"attributes":{
						"POSITION":8,
						"NORMAL":9,
						"TEXCOORD_0":10
					},
					"indices":11,
					"material":2
				}
			]
		},
		{
			"name":"Cube.003",
			"primitives":[
				{
					"attributes":{
						"POSITION":12,
						"NORMAL":13,
						"TEXCOORD_0":14
					},
					"indices":15,
					"material":3
				}
			]
		}
	],
	"accessors":[
		{
			"bufferView":0,
			"componentType":5126,
			"count":24,
			"max":[
				0.5,
				0.30000001192092896,
				0.5
			],
			"min":[
				-0.5,
				0,
				-0.5
			],
			"type":"VEC3"
		},
		{
			"bufferView":1,
			"componentType":5126,
			"count":24,
			"type":"VEC3"
		},
		{
			"bufferView":2,
			"componentType":5126,
			"count":24,
			"type":"VEC2"
		},
		{
			"bufferView":3,
			"componentType":5123,
			"count":36,
			"type":"SCALAR"
		},
		{
			"bufferView":4,
			"componentType":5126,
			"count":96,
			"max":[
				0.25,
				1.2508933544158936,
				0.3008933663368225
			],
			"min":[
				-0.25,
				0.6491066217422485,
				-0.3008933961391449
			],
			"type":"VEC3"
		},
		{
			"bufferView":5,
			"componentType":5126,
			"count":96,
			"type":"VEC3"
		},
		{
			"bufferView":6,
			"componentType":5126,
			"count":96,
			"type":"VEC2"
		},
		{
			"bufferView":7,
			"componentType":5123,
			"count":132,
			"type":"SCALAR"
		},
		{
			"bufferView":8,
			"componentType":5126,
			"count":96,
			"max":[
				0.4247108995914459,
				1.7042534351348877,
				0.08213768899440765
			],
			"min":[
				0.01528909057378769,
				1.2957465648651123,
				-0.2821377217769623
			],
			"type":"VEC3"
		},
		{
			"bufferView":9,
			"componentType":5126,
			"count":96,
			"type":"VEC3"
		},
		{
			"bufferView":10,
			"componentType":5126,
			"count":96,
			"type":"VEC2"
		},
		{
			"bufferView":11,
			"componentType":5123,
			"count":132,
			"type":"SCALAR"
		},
		{
			"bufferView":12,
			"componentType":5126,
			"count":96,
			"max":[
				-0.06334353238344193,
				1.9768259525299072,
				0.1832907497882843
			],
			"min":[
				-0.33665648102760315,
				1.7231740951538086,
				-0.08329074084758759
			],
			"type":"VEC3"
		},
		{
			"bufferView":13,
			"componentType":5126,
			"count":96,
			"type":"VEC3"
		},
		{
			"bufferView":14,
			"componentType":5126,
			"count":96,
			"type":"VEC2"
		},
		{
			"bufferView":15,
			"componentType":5123,
			"count":132,
			"type":"SCALAR"
		}
	],
	"bufferViews":[
		{
			"buffer":0,
			"byteLength":288,
			"byteOffset":0,
			"target":34962
		},
		{
			"buffer":0,
			"byteLength":288,
			"byteOffset":288,
			"target":34962
		},
		{
			"buffer":0,
			"byteLength":192,
			"byteOffset":576,
			"target":34962
		},
		{
			"buffer":0,
			"byteLength":72,
			"byteOffset":768,
			"target":34963
		},
		{
			"buffer":0,
			"byteLength":1152,
			"byteOffset":840,
			"target":34962
		},
		{
			"buffer":0,
			"byteLength":1152,
			"byteOffset":1992,
			"target":34962
		},
		{
			"buffer":0,
			"byteLength":768,
			"byteOffset":3144,
			"target":34962
		},
		{
			"buffer":0,
			"byteLength":264,
			"byteOffset":3912,
			"target":34963
		},
		{
			"buffer":0,
			"byteLength":1152,
			"byteOffset":4176,
			"target":34962
		},
		{
			"buffer":0,
			"byteLength":1152,
			"byteOffset":5328,
			"target":34962
		},
		{
			"buffer":0,
			"byteLength":768,
			"byteOffset":6480,
			"target":34962
		},
		{
			"buffer":0,
			"byteLength":264,
			"byteOffset":7248,
			"target":34963
		},
		{
			"buffer":0,
			"byteLength":1152,
			"byteOffset":7512,
			"target":34962
		},
		{
			"buffer":0,
			"byteLength":1152,
			"byteOffset":8664,
			"target":34962
		},
		{
			"buffer":0,
			"byteLength":768,
			"byteOffset":9816,
			"target":34962
		},
		{
			"buffer":0,
			"byteLength":264,
			"byteOffset":10584,
			"target":34963
		}
	],
	"buffers":[
		{
			"byteLength":10848,
			"uri":"hd_holo.bin"
		}
	]
}
