{
	"asset":{
		"generator":"Khronos glTF Blender I/O v5.2.40",
		"version":"2.0"
	},
	"scene":0,
	"scenes":[
		{
			"name":"Scene",
			"nodes":[
				0,
				1,
				2,
				3,
				4,
				5
			]
		}
	],
	"nodes":[
		{
			"mesh":0,
			"name":"can"
		},
		{
			"mesh":1,
			"name":"knob"
		},
		{
			"mesh":2,
			"name":"lid"
		},
		{
			"mesh":3,
			"name":"rib"
		},
		{
			"mesh":4,
			"name":"rib.001"
		},
		{
			"mesh":5,
			"name":"rib.002"
		}
	],
	"materials":[
		{
			"doubleSided":true,
			"name":"M_tc",
			"pbrMetallicRoughness":{
				"baseColorFactor":[
					0.11129941791296005,
					0.14799802005290985,
					0.1801442950963974,
					1
				],
				"metallicFactor":0,
				"roughnessFactor":0.8500000238418579
			}
		},
		{
			"doubleSided":true,
			"name":"M_tck",
			"pbrMetallicRoughness":{
				"baseColorFactor":[
					0.06381487101316452,
					0.08919350802898407,
					0.11129941791296005,
					1
				],
				"metallicFactor":0,
				"roughnessFactor":0.8500000238418579
			}
		},
		{
			"doubleSided":true,
			"name":"M_tcl",
			"pbrMetallicRoughness":{
				"baseColorFactor":[
					0.06381487101316452,
					0.08919350802898407,
					0.11129941791296005,
					1
				],
				"metallicFactor":0,
				"roughnessFactor":0.8500000238418579
			}
		},
		{
			"doubleSided":true,
			"name":"M_tcd",
			"pbrMetallicRoughness":{
				"baseColorFactor":[
					0.06381487101316452,
					0.08919350802898407,
					0.11129941791296005,
					1
				],
				"metallicFactor":0,
				"roughnessFactor":0.8500000238418579
			}
		}
	],
	"meshes":[
		{
			"name":"Cylinder",
			"primitives":[
				{
					"attributes":{
						"POSITION":0,
						"NORMAL":1,
						"TEXCOORD_0":2
					},
					"indices":3,
					"material":0
				}
			]
		},
		{
			"name":"Cylinder.002",
			"primitives":[
				{
					"attributes":{
						"POSITION":4,
						"NORMAL":5,
						"TEXCOORD_0":6
					},
					"indices":7,
					"material":1
				}
			]
		},
		{
			"name":"Cylinder.001",
			"primitives":[
				{
					"attributes":{
						"POSITION":8,
						"NORMAL":9,
						"TEXCOORD_0":10
					},
					"indices":3,
					"material":2
				}
			]
		},
		{
			"name":"Torus",
			"primitives":[
				{
					"attributes":{
						"POSITION":11,
						"NORMAL":12,
						"TEXCOORD_0":13
					},
					"indices":14,
					"material":3
				}
			]
		},
		{
			"name":"Torus.001",
			"primitives":[
				{
					"attributes":{
						"POSITION":15,
						"NORMAL":16,
						"TEXCOORD_0":17
					},
					"indices":14,
					"material":3
				}
			]
		},
		{
			"name":"Torus.002",
			"primitives":[
				{
					"attributes":{
						"POSITION":18,
						"NORMAL":19,
						"TEXCOORD_0":20
					},
					"indices":14,
					"material":3
				}
			]
		}
	],
	"accessors":[
		{
			"bufferView":0,
			"componentType":5126,
			"count":50,
			"max":[
				0.4577292203903198,
				0.7793676853179932,
				0.5540804862976074
			],
			"min":[
				-0.6504318714141846,
				0.03630852699279785,
				-0.554080605506897
			],
			"type":"VEC3"
		},
		{
			"bufferView":1,
			"componentType":5126,
			"count":50,
			"type":"VEC3"
		},
		{
			"bufferView":2,
			"componentType":5126,
			"count":50,
			"type":"VEC2"
		},
		{
			"bufferView":3,
			"componentType":5123,
			"count":132,
			"type":"SCALAR"
		},
		{
			"bufferView":4,
			"componentType":5126,
			"count":48,
			"max":[
				0.05140349268913269,
				0.9152931571006775,
				0.1477547287940979
			],
			"min":[
				-0.24410614371299744,
				0.8609229922294617,
				-0.14775490760803223
			],
			"type":"VEC3"
		},
		{
			"bufferView":5,
			"componentType":5126,
			"count":48,
			"type":"VEC3"
		},
		{
			"bufferView":6,
			"componentType":5126,
			"count":48,
			"type":"VEC2"
		},
		{
			"bufferView":7,
			"componentType":5123,
			"count":84,
			"type":"SCALAR"
		},
		{
			"bufferView":8,
			"componentType":5126,
			"count":50,
			"max":[
				0.5131372809410095,
				0.865453839302063,
				0.6094884872436523
			],
			"min":[
				-0.7058399319648743,
				0.8020219802856445,
				-0.6094887256622314
			],
			"type":"VEC3"
		},
		{
			"bufferView":9,
			"componentType":5126,
			"count":50,
			"type":"VEC3"
		},
		{
			"bufferView":10,
			"componentType":5126,
			"count":50,
			"type":"VEC2"
		},
		{
			"bufferView":11,
			"componentType":5126,
			"count":192,
			"max":[
				0.5131372809410095,
				0.20934566855430603,
				0.6094884872436523
			],
			"min":[
				-0.7058399319648743,
				0.11699891090393066,
				-0.6094887256622314
			],
			"type":"VEC3"
		},
		{
			"bufferView":12,
			"componentType":5126,
			"count":192,
			"type":"VEC3"
		},
		{
			"bufferView":13,
			"componentType":5126,
			"count":192,
			"type":"VEC2"
		},
		{
			"bufferView":14,
			"componentType":5123,
			"count":288,
			"type":"SCALAR"
		},
		{
			"bufferView":15,
			"componentType":5126,
			"count":192,
			"max":[
				0.5131372809410095,
				0.4540114998817444,
				0.6094884872436523
			],
			"min":[
				-0.7058399319648743,
				0.36166471242904663,
				-0.6094887256622314
			],
			"type":"VEC3"
		},
		{
			"bufferView":16,
			"componentType":5126,
			"count":192,
			"type":"VEC3"
		},
		{
			"bufferView":17,
			"componentType":5126,
			"count":192,
			"type":"VEC2"
		},
		{
			"bufferView":18,
			"componentType":5126,
			"count":192,
			"max":[
				0.5131372809410095,
				0.6986773610115051,
				0.6094884872436523
			],
			"min":[
				-0.7058399319648743,
				0.6063305735588074,
				-0.6094887256622314
			],
			"type":"VEC3"
		},
		{
			"bufferView":19,
			"componentType":5126,
			"count":192,
			"type":"VEC3"
		},
		{
			"bufferView":20,
			"componentType":5126,
			"count":192,
			"type":"VEC2"
		}
	],
	"bufferViews":[
		{
			"buffer":0,
			"byteLength":600,
			"byteOffset":0,
			"target":34962
		},
		{
			"buffer":0,
			"byteLength":600,
			"byteOffset":600,
			"target":34962
		},
		{
			"buffer":0,
			"byteLength":400,
			"byteOffset":1200,
			"target":34962
		},
		{
			"buffer":0,
			"byteLength":264,
			"byteOffset":1600,
			"target":34963
		},
		{
			"buffer":0,
			"byteLength":576,
			"byteOffset":1864,
			"target":34962
		},
		{
			"buffer":0,
			"byteLength":576,
			"byteOffset":2440,
			"target":34962
		},
		{
			"buffer":0,
			"byteLength":384,
			"byteOffset":3016,
			"target":34962
		},
		{
			"buffer":0,
			"byteLength":168,
			"byteOffset":3400,
			"target":34963
		},
		{
			"buffer":0,
			"byteLength":600,
			"byteOffset":3568,
			"target":34962
		},
		{
			"buffer":0,
			"byteLength":600,
			"byteOffset":4168,
			"target":34962
		},
		{
			"buffer":0,
			"byteLength":400,
			"byteOffset":4768,
			"target":34962
		},
		{
			"buffer":0,
			"byteLength":2304,
			"byteOffset":5168,
			"target":34962
		},
		{
			"buffer":0,
			"byteLength":2304,
			"byteOffset":7472,
			"target":34962
		},
		{
			"buffer":0,
			"byteLength":1536,
			"byteOffset":9776,
			"target":34962
		},
		{
			"buffer":0,
			"byteLength":576,
			"byteOffset":11312,
			"target":34963
		},
		{
			"buffer":0,
			"byteLength":2304,
			"byteOffset":11888,
			"target":34962
		},
		{
			"buffer":0,
			"byteLength":2304,
			"byteOffset":14192,
			"target":34962
		},
		{
			"buffer":0,
			"byteLength":1536,
			"byteOffset":16496,
			"target":34962
		},
		{
			"buffer":0,
			"byteLength":2304,
			"byteOffset":18032,
			"target":34962
		},
		{
			"buffer":0,
			"byteLength":2304,
			"byteOffset":20336,
			"target":34962
		},
		{
			"buffer":0,
			"byteLength":1536,
			"byteOffset":22640,
			"target":34962
		}
	],
	"buffers":[
		{
			"byteLength":24176,
			"uri":"metal_trash_can.bin"
		}
	]
}
