{"asset": {"generator": "Khronos glTF Blender I/O v5.2.40", "version": "2.0"}, "scene": 0, "scenes": [{"name": "Scene", "nodes": [0, 1, 2]}], "nodes": [{"mesh": 0, "name": "cap_ring"}, {"mesh": 1, "name": "plinth"}, {"mesh": 2, "name": "shaft"}], "materials": [{"doubleSided": true, "name": "sandstone", "normalTexture": {"index": 0}, "pbrMetallicRoughness": {"baseColorTexture": {"index": 1}, "metallicFactor": 0, "roughnessFactor": 0.9200000166893005}}], "meshes": [{"name": "Torus", "primitives": [{"attributes": {"POSITION": 0, "NORMAL": 1, "TEXCOORD_0": 2}, "indices": 3, "material": 0}]}, {"name": "Cube", "primitives": [{"attributes": {"POSITION": 4, "NORMAL": 5, "TEXCOORD_0": 6}, "indices": 7, "material": 0}]}, {"name": "Cylinder", "primitives": [{"attributes": {"POSITION": 8, "NORMAL": 9, "TEXCOORD_0": 10}, "indices": 11, "material": 0}]}], "textures": [{"sampler": 0, "source": 0}, {"sampler": 0, "source": 1}], "images": [{"mimeType": "image/jpeg", "name": "sandstone_blocks_04_nor_gl_1k", "uri": "textures/sandstone_blocks_04_nor_gl_1k.jpg"}, {"mimeType": "image/jpeg", "name": "sandstone_blocks_04_Diffuse_1k", "uri": "textures/sandstone_blocks_04_Diffuse_1k.jpg"}], "accessors": [{"bufferView": 0, "componentType": 5126, "count": 189, "max": [0.4699999988079071, 1.0999999046325684, 0.4699999988079071], "min": [-0.4699999988079071, 0.9999999403953552, -0.4699999988079071], "type": "VEC3"}, {"bufferView": 1, "componentType": 5126, "count": 189, "type": "VEC3"}, {"bufferView": 2, "componentType": 5126, "count": 189, "type": "VEC2"}, {"bufferView": 3, "componentType": 5123, "count": 960, "type": "SCALAR"}, {"bufferView": 4, "componentType": 5126, "count": 216, "max": [1.149999976158142, 0.42000001668930054, 1.149999976158142], "min": [-1.149999976158142, -0.14000000059604645, -1.149999976158142], "type": "VEC3"}, {"bufferView": 5, "componentType": 5126, "count": 216, "type": "VEC3"}, {"bufferView": 6, "componentType": 5126, "count": 216, "type": "VEC2"}, {"bufferView": 7, "componentType": 5123, "count": 324, "type": "SCALAR"}, {"bufferView": 8, "componentType": 5126, "count": 536, "max": [0.42474669218063354, 2.20084285736084, 0.4095727205276489], "min": [-0.39972490072250366, 0.2799999713897705, -0.399823397397995], "type": "VEC3"}, {"bufferView": 9, "componentType": 5126, "count": 536, "type": "VEC3"}, {"bufferView": 10, "componentType": 5126, "count": 536, "type": "VEC2"}, {"bufferView": 11, "componentType": 5123, "count": 852, "type": "SCALAR"}], "bufferViews": [{"buffer": 0, "byteLength": 2268, "byteOffset": 0, "target": 34962}, {"buffer": 0, "byteLength": 2268, "byteOffset": 2268, "target": 34962}, {"buffer": 0, "byteLength": 1512, "byteOffset": 4536, "target": 34962}, {"buffer": 0, "byteLength": 1920, "byteOffset": 6048, "target": 34963}, {"buffer": 0, "byteLength": 2592, "byteOffset": 7968, "target": 34962}, {"buffer": 0, "byteLength": 2592, "byteOffset": 10560, "target": 34962}, {"buffer": 0, "byteLength": 1728, "byteOffset": 13152, "target": 34962}, {"buffer": 0, "byteLength": 648, "byteOffset": 14880, "target": 34963}, {"buffer": 0, "byteLength": 6432, "byteOffset": 15528, "target": 34962}, {"buffer": 0, "byteLength": 6432, "byteOffset": 21960, "target": 34962}, {"buffer": 0, "byteLength": 4288, "byteOffset": 28392, "target": 34962}, {"buffer": 0, "byteLength": 1704, "byteOffset": 32680, "target": 34963}], "samplers": [{"magFilter": 9729, "minFilter": 9987}], "buffers": [{"byteLength": 34384, "uri": "bl_pillar_broken.bin"}]}