{
	"asset":{
		"generator":"Khronos glTF Blender I/O v5.2.40",
		"version":"2.0"
	},
	"extensionsUsed":[
		"KHR_materials_emissive_strength"
	],
	"scene":0,
	"scenes":[
		{
			"name":"Scene",
			"nodes":[
				0,
				1,
				2,
				3
			]
		}
	],
	"nodes":[
		{
			"mesh":0,
			"name":"rock"
		},
		{
			"mesh":1,
			"name":"seam0"
		},
		{
			"mesh":2,
			"name":"seam1"
		},
		{
			"mesh":3,
			"name":"seam2"
		}
	],
	"materials":[
		{
			"doubleSided":true,
			"name":"M_lb",
			"pbrMetallicRoughness":{
				"baseColorFactor":[
					0.03994717076420784,
					0.02899118699133396,
					0.030256519094109535,
					1
				],
				"metallicFactor":0,
				"roughnessFactor":0.8500000238418579
			}
		},
		{
			"doubleSided":true,
			"emissiveFactor":[
				1,
				0.5479934811592102,
				0.038472745567560196
			],
			"extensions":{
				"KHR_materials_emissive_strength":{
					"emissiveStrength":2
				}
			},
			"name":"M_ls0",
			"pbrMetallicRoughness":{
				"baseColorFactor":[
					1,
					0.5479934811592102,
					0.038472745567560196,
					1
				],
				"metallicFactor":0,
				"roughnessFactor":0.8500000238418579
			}
		},
		{
			"doubleSided":true,
			"emissiveFactor":[
				1,
				0.5479934811592102,
				0.038472745567560196
			],
			"extensions":{
				"KHR_materials_emissive_strength":{
					"emissiveStrength":2
				}
			},
			"name":"M_ls1",
			"pbrMetallicRoughness":{
				"baseColorFactor":[
					1,
					0.5479934811592102,
					0.038472745567560196,
					1
				],
				"metallicFactor":0,
				"roughnessFactor":0.8500000238418579
			}
		},
		{
			"doubleSided":true,
			"emissiveFactor":[
				1,
				0.5479934811592102,
				0.038472745567560196
			],
			"extensions":{
				"KHR_materials_emissive_strength":{
					"emissiveStrength":2
				}
			},
			"name":"M_ls2",
			"pbrMetallicRoughness":{
				"baseColorFactor":[
					1,
					0.5479934811592102,
					0.038472745567560196,
					1
				],
				"metallicFactor":0,
				"roughnessFactor":0.8500000238418579
			}
		}
	],
	"meshes":[
		{
			"name":"Icosphere",
			"primitives":[
				{
					"attributes":{
						"POSITION":0,
						"NORMAL":1,
						"TEXCOORD_0":2
					},
					"indices":3,
					"material":0
				}
			]
		},
		{
			"name":"Cube",
			"primitives":[
				{
					"attributes":{
						"POSITION":4,
						"NORMAL":5,
						"TEXCOORD_0":6
					},
					"indices":7,
					"material":1
				}
			]
		},
		{
			"name":"Cube.001",
			"primitives":[
				{
					"attributes":{
						"POSITION":8,
						"NORMAL":9,
						"TEXCOORD_0":10
					},
					"indices":11,
					"material":2
				}
			]
		},
		{
			"name":"Cube.002",
			"primitives":[
				{
					"attributes":{
						"POSITION":12,
						"NORMAL":13,
						"TEXCOORD_0":14
					},
					"indices":15,
					"material":3
				}
			]
		}
	],
	"accessors":[
		{
			"bufferView":0,
			"componentType":5126,
			"count":240,
			"max":[
				0.7861222624778748,
				1.0034528970718384,
				0.5898870825767517
			],
			"min":[
				-0.7760050296783447,
				-0.14233462512493134,
				-0.5700114369392395
			],
			"type":"VEC3"
		},
		{
			"bufferView":1,
			"componentType":5126,
			"count":240,
			"type":"VEC3"
		},
		{
			"bufferView":2,
			"componentType":5126,
			"count":240,
			"type":"VEC2"
		},
		{
			"bufferView":3,
			"componentType":5123,
			"count":240,
			"type":"SCALAR"
		},
		{
			"bufferView":4,
			"componentType":5126,
			"count":24,
			"max":[
				-0.040000006556510925,
				0.9991360902786255,
				-0.043049897998571396
			],
			"min":[
				-0.36000001430511475,
				0.9008638858795166,
				-0.15695010125637054
			],
			"type":"VEC3"
		},
		{
			"bufferView":5,
			"componentType":5126,
			"count":24,
			"type":"VEC3"
		},
		{
			"bufferView":6,
			"componentType":5126,
			"count":24,
			"type":"VEC2"
		},
		{
			"bufferView":7,
			"componentType":5123,
			"count":36,
			"type":"SCALAR"
		},
		{
			"bufferView":8,
			"componentType":5126,
			"count":24,
			"max":[
				0.39061546325683594,
				0.9298291206359863,
				0.203963503241539
			],
			"min":[
				0.10938453674316406,
				0.6901708841323853,
				-0.10396350920200348
			],
			"type":"VEC3"
		},
		{
			"bufferView":9,
			"componentType":5126,
			"count":24,
			"type":"VEC3"
		},
		{
			"bufferView":10,
			"componentType":5126,
			"count":24,
			"type":"VEC2"
		},
		{
			"bufferView":11,
			"componentType":5123,
			"count":36,
			"type":"SCALAR"
		},
		{
			"bufferView":12,
			"componentType":5126,
			"count":24,
			"max":[
				0.06950616836547852,
				0.831183671951294,
				0.4211117923259735
			],
			"min":[
				-0.06950616836547852,
				0.5088163614273071,
				0.1788882315158844
			],
			"type":"VEC3"
		},
		{
			"bufferView":13,
			"componentType":5126,
			"count":24,
			"type":"VEC3"
		},
		{
			"bufferView":14,
			"componentType":5126,
			"count":24,
			"type":"VEC2"
		},
		{
			"bufferView":15,
			"componentType":5123,
			"count":36,
			"type":"SCALAR"
		}
	],
	"bufferViews":[
		{
			"buffer":0,
			"byteLength":2880,
			"byteOffset":0,
			"target":34962
		},
		{
			"buffer":0,
			"byteLength":2880,
			"byteOffset":2880,
			"target":34962
		},
		{
			"buffer":0,
			"byteLength":1920,
			"byteOffset":5760,
			"target":34962
		},
		{
			"buffer":0,
			"byteLength":480,
			"byteOffset":7680,
			"target":34963
		},
		{
			"buffer":0,
			"byteLength":288,
			"byteOffset":8160,
			"target":34962
		},
		{
			"buffer":0,
			"byteLength":288,
			"byteOffset":8448,
			"target":34962
		},
		{
			"buffer":0,
			"byteLength":192,
			"byteOffset":8736,
			"target":34962
		},
		{
			"buffer":0,
			"byteLength":72,
			"byteOffset":8928,
			"target":34963
		},
		{
			"buffer":0,
			"byteLength":288,
			"byteOffset":9000,
			"target":34962
		},
		{
			"buffer":0,
			"byteLength":288,
			"byteOffset":9288,
			"target":34962
		},
		{
			"buffer":0,
			"byteLength":192,
			"byteOffset":9576,
			"target":34962
		},
		{
			"buffer":0,
			"byteLength":72,
			"byteOffset":9768,
			"target":34963
		},
		{
			"buffer":0,
			"byteLength":288,
			"byteOffset":9840,
			"target":34962
		},
		{
			"buffer":0,
			"byteLength":288,
			"byteOffset":10128,
			"target":34962
		},
		{
			"buffer":0,
			"byteLength":192,
			"byteOffset":10416,
			"target":34962
		},
		{
			"buffer":0,
			"byteLength":72,
			"byteOffset":10608,
			"target":34963
		}
	],
	"buffers":[
		{
			"byteLength":10680,
			"uri":"hd_lavabomb.bin"
		}
	]
}
