{
	"asset":{
		"generator":"Khronos glTF Blender I/O v5.2.40",
		"version":"2.0"
	},
	"extensionsUsed":[
		"KHR_materials_emissive_strength"
	],
	"scene":0,
	"scenes":[
		{
			"name":"Scene",
			"nodes":[
				0,
				1,
				2,
				3,
				4,
				5,
				6,
				7,
				8,
				9,
				10,
				11,
				12,
				13,
				14,
				15,
				16,
				17,
				18
			]
		}
	],
	"nodes":[
		{
			"mesh":0,
			"name":"deck"
		},
		{
			"mesh":1,
			"name":"edge0"
		},
		{
			"mesh":2,
			"name":"edge1"
		},
		{
			"mesh":3,
			"name":"guide0"
		},
		{
			"mesh":4,
			"name":"guide1"
		},
		{
			"mesh":5,
			"name":"hd0"
		},
		{
			"mesh":6,
			"name":"hd1"
		},
		{
			"mesh":7,
			"name":"hd2"
		},
		{
			"mesh":8,
			"name":"hd3"
		},
		{
			"mesh":9,
			"name":"hd4"
		},
		{
			"mesh":10,
			"name":"hd5"
		},
		{
			"mesh":11,
			"name":"hd6"
		},
		{
			"mesh":12,
			"name":"hd7"
		},
		{
			"mesh":13,
			"name":"seam0"
		},
		{
			"mesh":14,
			"name":"seam1"
		},
		{
			"mesh":15,
			"name":"seam2"
		},
		{
			"mesh":16,
			"name":"seam3"
		},
		{
			"mesh":17,
			"name":"seam4"
		},
		{
			"mesh":18,
			"name":"seam5"
		}
	],
	"materials":[
		{
			"doubleSided":true,
			"name":"M_deck",
			"pbrMetallicRoughness":{
				"baseColorFactor":[
					0.008373118005692959,
					0.00969632901251316,
					0.03561437129974365,
					1
				],
				"metallicFactor":0,
				"roughnessFactor":0.3499999940395355
			}
		},
		{
			"doubleSided":true,
			"emissiveFactor":[
				1,
				0.07592611759901047,
				0.4423229396343231
			],
			"extensions":{
				"KHR_materials_emissive_strength":{
					"emissiveStrength":2.200000047683716
				}
			},
			"name":"M_eg0",
			"pbrMetallicRoughness":{
				"baseColorFactor":[
					1,
					0.07592611759901047,
					0.4423229396343231,
					1
				],
				"metallicFactor":0,
				"roughnessFactor":0.8500000238418579
			}
		},
		{
			"doubleSided":true,
			"emissiveFactor":[
				1,
				0.07592611759901047,
				0.4423229396343231
			],
			"extensions":{
				"KHR_materials_emissive_strength":{
					"emissiveStrength":2.200000047683716
				}
			},
			"name":"M_eg1",
			"pbrMetallicRoughness":{
				"baseColorFactor":[
					1,
					0.07592611759901047,
					0.4423229396343231,
					1
				],
				"metallicFactor":0,
				"roughnessFactor":0.8500000238418579
			}
		},
		{
			"doubleSided":true,
			"emissiveFactor":[
				0.02982234006579952,
				1,
				0.9076177404946932
			],
			"extensions":{
				"KHR_materials_emissive_strength":{
					"emissiveStrength":1.7869313269730327
				}
			},
			"name":"M_gd0",
			"pbrMetallicRoughness":{
				"baseColorFactor":[
					0.02422294206917286,
					0.8122414946556091,
					0.7372047901153564,
					1
				],
				"metallicFactor":0,
				"roughnessFactor":0.8500000238418579
			}
		},
		{
			"doubleSided":true,
			"emissiveFactor":[
				0.02982234006579952,
				1,
				0.9076177404946932
			],
			"extensions":{
				"KHR_materials_emissive_strength":{
					"emissiveStrength":1.7869313269730327
				}
			},
			"name":"M_gd1",
			"pbrMetallicRoughness":{
				"baseColorFactor":[
					0.02422294206917286,
					0.8122414946556091,
					0.7372047901153564,
					1
				],
				"metallicFactor":0,
				"roughnessFactor":0.8500000238418579
			}
		},
		{
			"doubleSided":true,
			"emissiveFactor":[
				0.02982234006579952,
				1,
				0.9076177404946932
			],
			"extensions":{
				"KHR_materials_emissive_strength":{
					"emissiveStrength":1.299586410814321
				}
			},
			"name":"M_hb0",
			"pbrMetallicRoughness":{
				"baseColorFactor":[
					0.02422294206917286,
					0.8122414946556091,
					0.7372047901153564,
					1
				],
				"metallicFactor":0,
				"roughnessFactor":0.8500000238418579
			}
		},
		{
			"doubleSided":true,
			"emissiveFactor":[
				0.12474094331264496,
				0.6940805315971375,
				1
			],
			"extensions":{
				"KHR_materials_emissive_strength":{
					"emissiveStrength":1.600000023841858
				}
			},
			"name":"M_hb1",
			"pbrMetallicRoughness":{
				"baseColorFactor":[
					0.12474094331264496,
					0.6940805315971375,
					1,
					1
				],
				"metallicFactor":0,
				"roughnessFactor":0.8500000238418579
			}
		},
		{
			"doubleSided":true,
			"emissiveFactor":[
				0.12474094331264496,
				0.6940805315971375,
				1
			],
			"extensions":{
				"KHR_materials_emissive_strength":{
					"emissiveStrength":1.600000023841858
				}
			},
			"name":"M_hb2",
			"pbrMetallicRoughness":{
				"baseColorFactor":[
					0.12474094331264496,
					0.6940805315971375,
					1,
					1
				],
				"metallicFactor":0,
				"roughnessFactor":0.8500000238418579
			}
		},
		{
			"doubleSided":true,
			"emissiveFactor":[
				0.12474094331264496,
				0.6940805315971375,
				1
			],
			"extensions":{
				"KHR_materials_emissive_strength":{
					"emissiveStrength":1.600000023841858
				}
			},
			"name":"M_hb3",
			"pbrMetallicRoughness":{
				"baseColorFactor":[
					0.12474094331264496,
					0.6940805315971375,
					1,
					1
				],
				"metallicFactor":0,
				"roughnessFactor":0.8500000238418579
			}
		},
		{
			"doubleSided":true,
			"emissiveFactor":[
				0.12474094331264496,
				0.6940805315971375,
				1
			],
			"extensions":{
				"KHR_materials_emissive_strength":{
					"emissiveStrength":1.600000023841858
				}
			},
			"name":"M_hb4",
			"pbrMetallicRoughness":{
				"baseColorFactor":[
					0.12474094331264496,
					0.6940805315971375,
					1,
					1
				],
				"metallicFactor":0,
				"roughnessFactor":0.8500000238418579
			}
		},
		{
			"doubleSided":true,
			"emissiveFactor":[
				0.12474094331264496,
				0.6940805315971375,
				1
			],
			"extensions":{
				"KHR_materials_emissive_strength":{
					"emissiveStrength":1.600000023841858
				}
			},
			"name":"M_hb5",
			"pbrMetallicRoughness":{
				"baseColorFactor":[
					0.12474094331264496,
					0.6940805315971375,
					1,
					1
				],
				"metallicFactor":0,
				"roughnessFactor":0.8500000238418579
			}
		},
		{
			"doubleSided":true,
			"emissiveFactor":[
				0.02982234006579952,
				1,
				0.9076177404946932
			],
			"extensions":{
				"KHR_materials_emissive_strength":{
					"emissiveStrength":1.299586410814321
				}
			},
			"name":"M_hb6",
			"pbrMetallicRoughness":{
				"baseColorFactor":[
					0.02422294206917286,
					0.8122414946556091,
					0.7372047901153564,
					1
				],
				"metallicFactor":0,
				"roughnessFactor":0.8500000238418579
			}
		},
		{
			"doubleSided":true,
			"emissiveFactor":[
				0.2590273320674896,
				0.10615606606006622,
				1
			],
			"extensions":{
				"KHR_materials_emissive_strength":{
					"emissiveStrength":1.600000023841858
				}
			},
			"name":"M_hb7",
			"pbrMetallicRoughness":{
				"baseColorFactor":[
					0.2590273320674896,
					0.10615606606006622,
					1,
					1
				],
				"metallicFactor":0,
				"roughnessFactor":0.8500000238418579
			}
		},
		{
			"doubleSided":true,
			"name":"M_ps0",
			"pbrMetallicRoughness":{
				"baseColorFactor":[
					0.018912984058260918,
					0.022012995555996895,
					0.07382776588201523,
					1
				],
				"metallicFactor":0,
				"roughnessFactor":0.4000000059604645
			}
		},
		{
			"doubleSided":true,
			"name":"M_ps1",
			"pbrMetallicRoughness":{
				"baseColorFactor":[
					0.018912984058260918,
					0.022012995555996895,
					0.07382776588201523,
					1
				],
				"metallicFactor":0,
				"roughnessFactor":0.4000000059604645
			}
		},
		{
			"doubleSided":true,
			"name":"M_ps2",
			"pbrMetallicRoughness":{
				"baseColorFactor":[
					0.018912984058260918,
					0.022012995555996895,
					0.07382776588201523,
					1
				],
				"metallicFactor":0,
				"roughnessFactor":0.4000000059604645
			}
		},
		{
			"doubleSided":true,
			"name":"M_ps3",
			"pbrMetallicRoughness":{
				"baseColorFactor":[
					0.018912984058260918,
					0.022012995555996895,
					0.07382776588201523,
					1
				],
				"metallicFactor":0,
				"roughnessFactor":0.4000000059604645
			}
		},
		{
			"doubleSided":true,
			"name":"M_ps4",
			"pbrMetallicRoughness":{
				"baseColorFactor":[
					0.018912984058260918,
					0.022012995555996895,
					0.07382776588201523,
					1
				],
				"metallicFactor":0,
				"roughnessFactor":0.4000000059604645
			}
		},
		{
			"doubleSided":true,
			"name":"M_ps5",
			"pbrMetallicRoughness":{
				"baseColorFactor":[
					0.018912984058260918,
					0.022012995555996895,
					0.07382776588201523,
					1
				],
				"metallicFactor":0,
				"roughnessFactor":0.4000000059604645
			}
		}
	],
	"meshes":[
		{
			"name":"Cube",
			"primitives":[
				{
					"attributes":{
						"POSITION":0,
						"NORMAL":1,
						"TEXCOORD_0":2
					},
					"indices":3,
					"material":0
				}
			]
		},
		{
			"name":"Cube.009",
			"primitives":[
				{
					"attributes":{
						"POSITION":4,
						"NORMAL":5,
						"TEXCOORD_0":6
					},
					"indices":7,
					"material":1
				}
			]
		},
		{
			"name":"Cube.010",
			"primitives":[
				{
					"attributes":{
						"POSITION":8,
						"NORMAL":9,
						"TEXCOORD_0":10
					},
					"indices":7,
					"material":2
				}
			]
		},
		{
			"name":"Cube.007",
			"primitives":[
				{
					"attributes":{
						"POSITION":11,
						"NORMAL":12,
						"TEXCOORD_0":13
					},
					"indices":7,
					"material":3
				}
			]
		},
		{
			"name":"Cube.008",
			"primitives":[
				{
					"attributes":{
						"POSITION":14,
						"NORMAL":15,
						"TEXCOORD_0":16
					},
					"indices":7,
					"material":4
				}
			]
		},
		{
			"name":"Cube.011",
			"primitives":[
				{
					"attributes":{
						"POSITION":17,
						"NORMAL":18,
						"TEXCOORD_0":19
					},
					"indices":7,
					"material":5
				}
			]
		},
		{
			"name":"Cube.012",
			"primitives":[
				{
					"attributes":{
						"POSITION":20,
						"NORMAL":21,
						"TEXCOORD_0":22
					},
					"indices":7,
					"material":6
				}
			]
		},
		{
			"name":"Cube.013",
			"primitives":[
				{
					"attributes":{
						"POSITION":23,
						"NORMAL":24,
						"TEXCOORD_0":25
					},
					"indices":7,
					"material":7
				}
			]
		},
		{
			"name":"Cube.014",
			"primitives":[
				{
					"attributes":{
						"POSITION":26,
						"NORMAL":27,
						"TEXCOORD_0":28
					},
					"indices":7,
					"material":8
				}
			]
		},
		{
			"name":"Cube.015",
			"primitives":[
				{
					"attributes":{
						"POSITION":29,
						"NORMAL":30,
						"TEXCOORD_0":31
					},
					"indices":7,
					"material":9
				}
			]
		},
		{
			"name":"Cube.016",
			"primitives":[
				{
					"attributes":{
						"POSITION":32,
						"NORMAL":33,
						"TEXCOORD_0":34
					},
					"indices":7,
					"material":10
				}
			]
		},
		{
			"name":"Cube.017",
			"primitives":[
				{
					"attributes":{
						"POSITION":35,
						"NORMAL":36,
						"TEXCOORD_0":37
					},
					"indices":7,
					"material":11
				}
			]
		},
		{
			"name":"Cube.018",
			"primitives":[
				{
					"attributes":{
						"POSITION":38,
						"NORMAL":39,
						"TEXCOORD_0":40
					},
					"indices":7,
					"material":12
				}
			]
		},
		{
			"name":"Cube.001",
			"primitives":[
				{
					"attributes":{
						"POSITION":41,
						"NORMAL":42,
						"TEXCOORD_0":43
					},
					"indices":7,
					"material":13
				}
			]
		},
		{
			"name":"Cube.002",
			"primitives":[
				{
					"attributes":{
						"POSITION":44,
						"NORMAL":45,
						"TEXCOORD_0":46
					},
					"indices":7,
					"material":14
				}
			]
		},
		{
			"name":"Cube.003",
			"primitives":[
				{
					"attributes":{
						"POSITION":47,
						"NORMAL":48,
						"TEXCOORD_0":49
					},
					"indices":7,
					"material":15
				}
			]
		},
		{
			"name":"Cube.004",
			"primitives":[
				{
					"attributes":{
						"POSITION":50,
						"NORMAL":51,
						"TEXCOORD_0":52
					},
					"indices":7,
					"material":16
				}
			]
		},
		{
			"name":"Cube.005",
			"primitives":[
				{
					"attributes":{
						"POSITION":53,
						"NORMAL":54,
						"TEXCOORD_0":55
					},
					"indices":7,
					"material":17
				}
			]
		},
		{
			"name":"Cube.006",
			"primitives":[
				{
					"attributes":{
						"POSITION":56,
						"NORMAL":57,
						"TEXCOORD_0":58
					},
					"indices":7,
					"material":18
				}
			]
		}
	],
	"accessors":[
		{
			"bufferView":0,
			"componentType":5126,
			"count":96,
			"max":[
				4.699999809265137,
				0,
				12
			],
			"min":[
				-4.699999809265137,
				-0.23999999463558197,
				-12
			],
			"type":"VEC3"
		},
		{
			"bufferView":1,
			"componentType":5126,
			"count":96,
			"type":"VEC3"
		},
		{
			"bufferView":2,
			"componentType":5126,
			"count":96,
			"type":"VEC2"
		},
		{
			"bufferView":3,
			"componentType":5123,
			"count":132,
			"type":"SCALAR"
		},
		{
			"bufferView":4,
			"componentType":5126,
			"count":24,
			"max":[
				-4.179999828338623,
				0.024000000208616257,
				12
			],
			"min":[
				-4.320000171661377,
				-0.00800000037997961,
				-12
			],
			"type":"VEC3"
		},
		{
			"bufferView":5,
			"componentType":5126,
			"count":24,
			"type":"VEC3"
		},
		{
			"bufferView":6,
			"componentType":5126,
			"count":24,
			"type":"VEC2"
		},
		{
			"bufferView":7,
			"componentType":5123,
			"count":36,
			"type":"SCALAR"
		},
		{
			"bufferView":8,
			"componentType":5126,
			"count":24,
			"max":[
				4.320000171661377,
				0.024000000208616257,
				12
			],
			"min":[
				4.179999828338623,
				-0.00800000037997961,
				-12
			],
			"type":"VEC3"
		},
		{
			"bufferView":9,
			"componentType":5126,
			"count":24,
			"type":"VEC3"
		},
		{
			"bufferView":10,
			"componentType":5126,
			"count":24,
			"type":"VEC2"
		},
		{
			"bufferView":11,
			"componentType":5126,
			"count":24,
			"max":[
				-1.0500000715255737,
				0.024000000208616257,
				12
			],
			"min":[
				-1.149999976158142,
				-0.00800000037997961,
				-12
			],
			"type":"VEC3"
		},
		{
			"bufferView":12,
			"componentType":5126,
			"count":24,
			"type":"VEC3"
		},
		{
			"bufferView":13,
			"componentType":5126,
			"count":24,
			"type":"VEC2"
		},
		{
			"bufferView":14,
			"componentType":5126,
			"count":24,
			"max":[
				1.149999976158142,
				0.024000000208616257,
				12
			],
			"min":[
				1.0500000715255737,
				-0.00800000037997961,
				-12
			],
			"type":"VEC3"
		},
		{
			"bufferView":15,
			"componentType":5126,
			"count":24,
			"type":"VEC3"
		},
		{
			"bufferView":16,
			"componentType":5126,
			"count":24,
			"type":"VEC2"
		},
		{
			"bufferView":17,
			"componentType":5126,
			"count":24,
			"max":[
				2.549999952316284,
				0.01599999889731407,
				10.098416328430176
			],
			"min":[
				1.850000023841858,
				-0.003999999724328518,
				9.99841594696045
			],
			"type":"VEC3"
		},
		{
			"bufferView":18,
			"componentType":5126,
			"count":24,
			"type":"VEC3"
		},
		{
			"bufferView":19,
			"componentType":5126,
			"count":24,
			"type":"VEC2"
		},
		{
			"bufferView":20,
			"componentType":5126,
			"count":24,
			"max":[
				-1.850000023841858,
				0.01599999889731407,
				-0.20281745493412018
			],
			"min":[
				-2.549999952316284,
				-0.003999999724328518,
				-0.3028174638748169
			],
			"type":"VEC3"
		},
		{
			"bufferView":21,
			"componentType":5126,
			"count":24,
			"type":"VEC3"
		},
		{
			"bufferView":22,
			"componentType":5126,
			"count":24,
			"type":"VEC2"
		},
		{
			"bufferView":23,
			"componentType":5126,
			"count":24,
			"max":[
				0.3499999940395355,
				0.01599999889731407,
				-10.879972457885742
			],
			"min":[
				-0.3499999940395355,
				-0.003999999724328518,
				-10.979972839355469
			],
			"type":"VEC3"
		},
		{
			"bufferView":24,
			"componentType":5126,
			"count":24,
			"type":"VEC3"
		},
		{
			"bufferView":25,
			"componentType":5126,
			"count":24,
			"type":"VEC2"
		},
		{
			"bufferView":26,
			"componentType":5126,
			"count":24,
			"max":[
				2.549999952316284,
				0.01599999889731407,
				7.788284778594971
			],
			"min":[
				1.850000023841858,
				-0.003999999724328518,
				7.688284397125244
			],
			"type":"VEC3"
		},
		{
			"bufferView":27,
			"componentType":5126,
			"count":24,
			"type":"VEC3"
		},
		{
			"bufferView":28,
			"componentType":5126,
			"count":24,
			"type":"VEC2"
		},
		{
			"bufferView":29,
			"componentType":5126,
			"count":24,
			"max":[
				-1.850000023841858,
				0.01599999889731407,
				5.320382118225098
			],
			"min":[
				-2.549999952316284,
				-0.003999999724328518,
				5.220381736755371
			],
			"type":"VEC3"
		},
		{
			"bufferView":30,
			"componentType":5126,
			"count":24,
			"type":"VEC3"
		},
		{
			"bufferView":31,
			"componentType":5126,
			"count":24,
			"type":"VEC2"
		},
		{
			"bufferView":32,
			"componentType":5126,
			"count":24,
			"max":[
				0.3499999940395355,
				0.01599999889731407,
				-7.309199333190918
			],
			"min":[
				-0.3499999940395355,
				-0.003999999724328518,
				-7.4091997146606445
			],
			"type":"VEC3"
		},
		{
			"bufferView":33,
			"componentType":5126,
			"count":24,
			"type":"VEC3"
		},
		{
			"bufferView":34,
			"componentType":5126,
			"count":24,
			"type":"VEC2"
		},
		{
			"bufferView":35,
			"componentType":5126,
			"count":24,
			"max":[
				0.3499999940395355,
				0.01599999889731407,
				10.547066688537598
			],
			"min":[
				-0.3499999940395355,
				-0.003999999724328518,
				10.447066307067871
			],
			"type":"VEC3"
		},
		{
			"bufferView":36,
			"componentType":5126,
			"count":24,
			"type":"VEC3"
		},
		{
			"bufferView":37,
			"componentType":5126,
			"count":24,
			"type":"VEC2"
		},
		{
			"bufferView":38,
			"componentType":5126,
			"count":24,
			"max":[
				-1.850000023841858,
				0.01599999889731407,
				-8.291200637817383
			],
			"min":[
				-2.549999952316284,
				-0.003999999724328518,
				-8.39120101928711
			],
			"type":"VEC3"
		},
		{
			"bufferView":39,
			"componentType":5126,
			"count":24,
			"type":"VEC3"
		},
		{
			"bufferView":40,
			"componentType":5126,
			"count":24,
			"type":"VEC2"
		},
		{
			"bufferView":41,
			"componentType":5126,
			"count":24,
			"max":[
				4.699999809265137,
				0.014000000432133675,
				10.029999732971191
			],
			"min":[
				-4.699999809265137,
				-0.005999999586492777,
				9.970000267028809
			],
			"type":"VEC3"
		},
		{
			"bufferView":42,
			"componentType":5126,
			"count":24,
			"type":"VEC3"
		},
		{
			"bufferView":43,
			"componentType":5126,
			"count":24,
			"type":"VEC2"
		},
		{
			"bufferView":44,
			"componentType":5126,
			"count":24,
			"max":[
				4.699999809265137,
				0.014000000432133675,
				6.03000020980835
			],
			"min":[
				-4.699999809265137,
				-0.005999999586492777,
				5.96999979019165
			],
			"type":"VEC3"
		},
		{
			"bufferView":45,
			"componentType":5126,
			"count":24,
			"type":"VEC3"
		},
		{
			"bufferView":46,
			"componentType":5126,
			"count":24,
			"type":"VEC2"
		},
		{
			"bufferView":47,
			"componentType":5126,
			"count":24,
			"max":[
				4.699999809265137,
				0.014000000432133675,
				2.0299999713897705
			],
			"min":[
				-4.699999809265137,
				-0.005999999586492777,
				1.9700000286102295
			],
			"type":"VEC3"
		},
		{
			"bufferView":48,
			"componentType":5126,
			"count":24,
			"type":"VEC3"
		},
		{
			"bufferView":49,
			"componentType":5126,
			"count":24,
			"type":"VEC2"
		},
		{
			"bufferView":50,
			"componentType":5126,
			"count":24,
			"max":[
				4.699999809265137,
				0.014000000432133675,
				-1.9700000286102295
			],
			"min":[
				-4.699999809265137,
				-0.005999999586492777,
				-2.0299999713897705
			],
			"type":"VEC3"
		},
		{
			"bufferView":51,
			"componentType":5126,
			"count":24,
			"type":"VEC3"
		},
		{
			"bufferView":52,
			"componentType":5126,
			"count":24,
			"type":"VEC2"
		},
		{
			"bufferView":53,
			"componentType":5126,
			"count":24,
			"max":[
				4.699999809265137,
				0.014000000432133675,
				-5.96999979019165
			],
			"min":[
				-4.699999809265137,
				-0.005999999586492777,
				-6.03000020980835
			],
			"type":"VEC3"
		},
		{
			"bufferView":54,
			"componentType":5126,
			"count":24,
			"type":"VEC3"
		},
		{
			"bufferView":55,
			"componentType":5126,
			"count":24,
			"type":"VEC2"
		},
		{
			"bufferView":56,
			"componentType":5126,
			"count":24,
			"max":[
				4.699999809265137,
				0.014000000432133675,
				-9.970000267028809
			],
			"min":[
				-4.699999809265137,
				-0.005999999586492777,
				-10.029999732971191
			],
			"type":"VEC3"
		},
		{
			"bufferView":57,
			"componentType":5126,
			"count":24,
			"type":"VEC3"
		},
		{
			"bufferView":58,
			"componentType":5126,
			"count":24,
			"type":"VEC2"
		}
	],
	"bufferViews":[
		{
			"buffer":0,
			"byteLength":1152,
			"byteOffset":0,
			"target":34962
		},
		{
			"buffer":0,
			"byteLength":1152,
			"byteOffset":1152,
			"target":34962
		},
		{
			"buffer":0,
			"byteLength":768,
			"byteOffset":2304,
			"target":34962
		},
		{
			"buffer":0,
			"byteLength":264,
			"byteOffset":3072,
			"target":34963
		},
		{
			"buffer":0,
			"byteLength":288,
			"byteOffset":3336,
			"target":34962
		},
		{
			"buffer":0,
			"byteLength":288,
			"byteOffset":3624,
			"target":34962
		},
		{
			"buffer":0,
			"byteLength":192,
			"byteOffset":3912,
			"target":34962
		},
		{
			"buffer":0,
			"byteLength":72,
			"byteOffset":4104,
			"target":34963
		},
		{
			"buffer":0,
			"byteLength":288,
			"byteOffset":4176,
			"target":34962
		},
		{
			"buffer":0,
			"byteLength":288,
			"byteOffset":4464,
			"target":34962
		},
		{
			"buffer":0,
			"byteLength":192,
			"byteOffset":4752,
			"target":34962
		},
		{
			"buffer":0,
			"byteLength":288,
			"byteOffset":4944,
			"target":34962
		},
		{
			"buffer":0,
			"byteLength":288,
			"byteOffset":5232,
			"target":34962
		},
		{
			"buffer":0,
			"byteLength":192,
			"byteOffset":5520,
			"target":34962
		},
		{
			"buffer":0,
			"byteLength":288,
			"byteOffset":5712,
			"target":34962
		},
		{
			"buffer":0,
			"byteLength":288,
			"byteOffset":6000,
			"target":34962
		},
		{
			"buffer":0,
			"byteLength":192,
			"byteOffset":6288,
			"target":34962
		},
		{
			"buffer":0,
			"byteLength":288,
			"byteOffset":6480,
			"target":34962
		},
		{
			"buffer":0,
			"byteLength":288,
			"byteOffset":6768,
			"target":34962
		},
		{
			"buffer":0,
			"byteLength":192,
			"byteOffset":7056,
			"target":34962
		},
		{
			"buffer":0,
			"byteLength":288,
			"byteOffset":7248,
			"target":34962
		},
		{
			"buffer":0,
			"byteLength":288,
			"byteOffset":7536,
			"target":34962
		},
		{
			"buffer":0,
			"byteLength":192,
			"byteOffset":7824,
			"target":34962
		},
		{
			"buffer":0,
			"byteLength":288,
			"byteOffset":8016,
			"target":34962
		},
		{
			"buffer":0,
			"byteLength":288,
			"byteOffset":8304,
			"target":34962
		},
		{
			"buffer":0,
			"byteLength":192,
			"byteOffset":8592,
			"target":34962
		},
		{
			"buffer":0,
			"byteLength":288,
			"byteOffset":8784,
			"target":34962
		},
		{
			"buffer":0,
			"byteLength":288,
			"byteOffset":9072,
			"target":34962
		},
		{
			"buffer":0,
			"byteLength":192,
			"byteOffset":9360,
			"target":34962
		},
		{
			"buffer":0,
			"byteLength":288,
			"byteOffset":9552,
			"target":34962
		},
		{
			"buffer":0,
			"byteLength":288,
			"byteOffset":9840,
			"target":34962
		},
		{
			"buffer":0,
			"byteLength":192,
			"byteOffset":10128,
			"target":34962
		},
		{
			"buffer":0,
			"byteLength":288,
			"byteOffset":10320,
			"target":34962
		},
		{
			"buffer":0,
			"byteLength":288,
			"byteOffset":10608,
			"target":34962
		},
		{
			"buffer":0,
			"byteLength":192,
			"byteOffset":10896,
			"target":34962
		},
		{
			"buffer":0,
			"byteLength":288,
			"byteOffset":11088,
			"target":34962
		},
		{
			"buffer":0,
			"byteLength":288,
			"byteOffset":11376,
			"target":34962
		},
		{
			"buffer":0,
			"byteLength":192,
			"byteOffset":11664,
			"target":34962
		},
		{
			"buffer":0,
			"byteLength":288,
			"byteOffset":11856,
			"target":34962
		},
		{
			"buffer":0,
			"byteLength":288,
			"byteOffset":12144,
			"target":34962
		},
		{
			"buffer":0,
			"byteLength":192,
			"byteOffset":12432,
			"target":34962
		},
		{
			"buffer":0,
			"byteLength":288,
			"byteOffset":12624,
			"target":34962
		},
		{
			"buffer":0,
			"byteLength":288,
			"byteOffset":12912,
			"target":34962
		},
		{
			"buffer":0,
			"byteLength":192,
			"byteOffset":13200,
			"target":34962
		},
		{
			"buffer":0,
			"byteLength":288,
			"byteOffset":13392,
			"target":34962
		},
		{
			"buffer":0,
			"byteLength":288,
			"byteOffset":13680,
			"target":34962
		},
		{
			"buffer":0,
			"byteLength":192,
			"byteOffset":13968,
			"target":34962
		},
		{
			"buffer":0,
			"byteLength":288,
			"byteOffset":14160,
			"target":34962
		},
		{
			"buffer":0,
			"byteLength":288,
			"byteOffset":14448,
			"target":34962
		},
		{
			"buffer":0,
			"byteLength":192,
			"byteOffset":14736,
			"target":34962
		},
		{
			"buffer":0,
			"byteLength":288,
			"byteOffset":14928,
			"target":34962
		},
		{
			"buffer":0,
			"byteLength":288,
			"byteOffset":15216,
			"target":34962
		},
		{
			"buffer":0,
			"byteLength":192,
			"byteOffset":15504,
			"target":34962
		},
		{
			"buffer":0,
			"byteLength":288,
			"byteOffset":15696,
			"target":34962
		},
		{
			"buffer":0,
			"byteLength":288,
			"byteOffset":15984,
			"target":34962
		},
		{
			"buffer":0,
			"byteLength":192,
			"byteOffset":16272,
			"target":34962
		},
		{
			"buffer":0,
			"byteLength":288,
			"byteOffset":16464,
			"target":34962
		},
		{
			"buffer":0,
			"byteLength":288,
			"byteOffset":16752,
			"target":34962
		},
		{
			"buffer":0,
			"byteLength":192,
			"byteOffset":17040,
			"target":34962
		}
	],
	"buffers":[
		{
			"byteLength":17232,
			"uri":"hd_rd_neon.bin"
		}
	]
}
