{
	"asset":{
		"generator":"Khronos glTF Blender I/O v5.2.40",
		"version":"2.0"
	},
	"scene":0,
	"scenes":[
		{
			"name":"Scene",
			"nodes":[
				0,
				1,
				2,
				3,
				4,
				5,
				6,
				7,
				8
			]
		}
	],
	"nodes":[
		{
			"mesh":0,
			"name":"back0"
		},
		{
			"mesh":1,
			"name":"back1"
		},
		{
			"mesh":2,
			"name":"leg"
		},
		{
			"mesh":3,
			"name":"leg.001"
		},
		{
			"mesh":4,
			"name":"legback"
		},
		{
			"mesh":5,
			"name":"legback.001"
		},
		{
			"mesh":6,
			"name":"slat0"
		},
		{
			"mesh":7,
			"name":"slat1"
		},
		{
			"mesh":8,
			"name":"slat2"
		}
	],
	"materials":[
		{
			"doubleSided":true,
			"name":"M_bback",
			"pbrMetallicRoughness":{
				"baseColorFactor":[
					0.8751375675201416,
					0.3586539030075073,
					0.03155139088630676,
					1
				],
				"metallicFactor":0,
				"roughnessFactor":0.8500000238418579
			}
		},
		{
			"doubleSided":true,
			"name":"M_bleg",
			"pbrMetallicRoughness":{
				"baseColorFactor":[
					0.04298701137304306,
					0.06190747395157814,
					0.08690125495195389,
					1
				],
				"metallicFactor":0.30000001192092896,
				"roughnessFactor":0.8500000238418579
			}
		},
		{
			"doubleSided":true,
			"name":"M_bleg2",
			"pbrMetallicRoughness":{
				"baseColorFactor":[
					0.04298701137304306,
					0.06190747395157814,
					0.08690125495195389,
					1
				],
				"metallicFactor":0.30000001192092896,
				"roughnessFactor":0.8500000238418579
			}
		},
		{
			"doubleSided":true,
			"name":"M_bslat",
			"pbrMetallicRoughness":{
				"baseColorFactor":[
					0.8751375675201416,
					0.3586539030075073,
					0.03155139088630676,
					1
				],
				"metallicFactor":0,
				"roughnessFactor":0.8500000238418579
			}
		}
	],
	"meshes":[
		{
			"name":"Cube.003",
			"primitives":[
				{
					"attributes":{
						"POSITION":0,
						"NORMAL":1,
						"TEXCOORD_0":2
					},
					"indices":3,
					"material":0
				}
			]
		},
		{
			"name":"Cube.004",
			"primitives":[
				{
					"attributes":{
						"POSITION":4,
						"NORMAL":5,
						"TEXCOORD_0":6
					},
					"indices":3,
					"material":0
				}
			]
		},
		{
			"name":"Cube.005",
			"primitives":[
				{
					"attributes":{
						"POSITION":7,
						"NORMAL":8,
						"TEXCOORD_0":9
					},
					"indices":10,
					"material":1
				}
			]
		},
		{
			"name":"Cube.007",
			"primitives":[
				{
					"attributes":{
						"POSITION":11,
						"NORMAL":12,
						"TEXCOORD_0":13
					},
					"indices":10,
					"material":1
				}
			]
		},
		{
			"name":"Cube.006",
			"primitives":[
				{
					"attributes":{
						"POSITION":14,
						"NORMAL":15,
						"TEXCOORD_0":16
					},
					"indices":3,
					"material":2
				}
			]
		},
		{
			"name":"Cube.008",
			"primitives":[
				{
					"attributes":{
						"POSITION":17,
						"NORMAL":18,
						"TEXCOORD_0":19
					},
					"indices":3,
					"material":2
				}
			]
		},
		{
			"name":"Cube",
			"primitives":[
				{
					"attributes":{
						"POSITION":20,
						"NORMAL":21,
						"TEXCOORD_0":22
					},
					"indices":10,
					"material":3
				}
			]
		},
		{
			"name":"Cube.001",
			"primitives":[
				{
					"attributes":{
						"POSITION":23,
						"NORMAL":24,
						"TEXCOORD_0":25
					},
					"indices":10,
					"material":3
				}
			]
		},
		{
			"name":"Cube.002",
			"primitives":[
				{
					"attributes":{
						"POSITION":26,
						"NORMAL":27,
						"TEXCOORD_0":28
					},
					"indices":10,
					"material":3
				}
			]
		}
	],
	"accessors":[
		{
			"bufferView":0,
			"componentType":5126,
			"count":96,
			"max":[
				0.5422847867012024,
				0.6677956581115723,
				-0.16138115525245667
			],
			"min":[
				-0.5294633507728577,
				0.5050700902938843,
				-0.24670782685279846
			],
			"type":"VEC3"
		},
		{
			"bufferView":1,
			"componentType":5126,
			"count":96,
			"type":"VEC3"
		},
		{
			"bufferView":2,
			"componentType":5126,
			"count":96,
			"type":"VEC2"
		},
		{
			"bufferView":3,
			"componentType":5123,
			"count":132,
			"type":"SCALAR"
		},
		{
			"bufferView":4,
			"componentType":5126,
			"count":96,
			"max":[
				0.5422847867012024,
				0.8456539511680603,
				-0.16138115525245667
			],
			"min":[
				-0.5294633507728577,
				0.6829283833503723,
				-0.24670782685279846
			],
			"type":"VEC3"
		},
		{
			"bufferView":5,
			"componentType":5126,
			"count":96,
			"type":"VEC3"
		},
		{
			"bufferView":6,
			"componentType":5126,
			"count":96,
			"type":"VEC2"
		},
		{
			"bufferView":7,
			"componentType":5126,
			"count":96,
			"max":[
				-0.4013195335865021,
				0.6397903561592102,
				0.2031208574771881
			],
			"min":[
				-0.5178139209747314,
				-0.2139294594526291,
				-0.21397534012794495
			],
			"type":"VEC3"
		},
		{
			"bufferView":8,
			"componentType":5126,
			"count":96,
			"type":"VEC3"
		},
		{
			"bufferView":9,
			"componentType":5126,
			"count":96,
			"type":"VEC2"
		},
		{
			"bufferView":10,
			"componentType":5123,
			"count":132,
			"type":"SCALAR"
		},
		{
			"bufferView":11,
			"componentType":5126,
			"count":96,
			"max":[
				0.5306353569030762,
				0.6397903561592102,
				0.2031208574771881
			],
			"min":[
				0.4141409695148468,
				-0.2139294594526291,
				-0.21397534012794495
			],
			"type":"VEC3"
		},
		{
			"bufferView":12,
			"componentType":5126,
			"count":96,
			"type":"VEC3"
		},
		{
			"bufferView":13,
			"componentType":5126,
			"count":96,
			"type":"VEC2"
		},
		{
			"bufferView":14,
			"componentType":5126,
			"count":96,
			"max":[
				-0.4013195335865021,
				1.077795147895813,
				-0.0657128393650055
			],
			"min":[
				-0.5178139209747314,
				0.2017856389284134,
				-0.3026526868343353
			],
			"type":"VEC3"
		},
		{
			"bufferView":15,
			"componentType":5126,
			"count":96,
			"type":"VEC3"
		},
		{
			"bufferView":16,
			"componentType":5126,
			"count":96,
			"type":"VEC2"
		},
		{
			"bufferView":17,
			"componentType":5126,
			"count":96,
			"max":[
				0.5306353569030762,
				1.077795147895813,
				-0.0657128393650055
			],
			"min":[
				0.4141409695148468,
				0.2017856389284134,
				-0.3026526868343353
			],
			"type":"VEC3"
		},
		{
			"bufferView":18,
			"componentType":5126,
			"count":96,
			"type":"VEC3"
		},
		{
			"bufferView":19,
			"componentType":5126,
			"count":96,
			"type":"VEC2"
		},
		{
			"bufferView":20,
			"componentType":5126,
			"count":96,
			"max":[
				0.5422847867012024,
				0.4708249568939209,
				0.19815541803836823
			],
			"min":[
				-0.5294633507728577,
				0.38189584016799927,
				0.08891592919826508
			],
			"type":"VEC3"
		},
		{
			"bufferView":21,
			"componentType":5126,
			"count":96,
			"type":"VEC3"
		},
		{
			"bufferView":22,
			"componentType":5126,
			"count":96,
			"type":"VEC2"
		},
		{
			"bufferView":23,
			"componentType":5126,
			"count":96,
			"max":[
				0.5422847867012024,
				0.4708249568939209,
				0.04919249191880226
			],
			"min":[
				-0.5294633507728577,
				0.38189584016799927,
				-0.06004698947072029
			],
			"type":"VEC3"
		},
		{
			"bufferView":24,
			"componentType":5126,
			"count":96,
			"type":"VEC3"
		},
		{
			"bufferView":25,
			"componentType":5126,
			"count":96,
			"type":"VEC2"
		},
		{
			"bufferView":26,
			"componentType":5126,
			"count":96,
			"max":[
				0.5422847867012024,
				0.4708249568939209,
				-0.0997704267501831
			],
			"min":[
				-0.5294633507728577,
				0.38189584016799927,
				-0.20900991559028625
			],
			"type":"VEC3"
		},
		{
			"bufferView":27,
			"componentType":5126,
			"count":96,
			"type":"VEC3"
		},
		{
			"bufferView":28,
			"componentType":5126,
			"count":96,
			"type":"VEC2"
		}
	],
	"bufferViews":[
		{
			"buffer":0,
			"byteLength":1152,
			"byteOffset":0,
			"target":34962
		},
		{
			"buffer":0,
			"byteLength":1152,
			"byteOffset":1152,
			"target":34962
		},
		{
			"buffer":0,
			"byteLength":768,
			"byteOffset":2304,
			"target":34962
		},
		{
			"buffer":0,
			"byteLength":264,
			"byteOffset":3072,
			"target":34963
		},
		{
			"buffer":0,
			"byteLength":1152,
			"byteOffset":3336,
			"target":34962
		},
		{
			"buffer":0,
			"byteLength":1152,
			"byteOffset":4488,
			"target":34962
		},
		{
			"buffer":0,
			"byteLength":768,
			"byteOffset":5640,
			"target":34962
		},
		{
			"buffer":0,
			"byteLength":1152,
			"byteOffset":6408,
			"target":34962
		},
		{
			"buffer":0,
			"byteLength":1152,
			"byteOffset":7560,
			"target":34962
		},
		{
			"buffer":0,
			"byteLength":768,
			"byteOffset":8712,
			"target":34962
		},
		{
			"buffer":0,
			"byteLength":264,
			"byteOffset":9480,
			"target":34963
		},
		{
			"buffer":0,
			"byteLength":1152,
			"byteOffset":9744,
			"target":34962
		},
		{
			"buffer":0,
			"byteLength":1152,
			"byteOffset":10896,
			"target":34962
		},
		{
			"buffer":0,
			"byteLength":768,
			"byteOffset":12048,
			"target":34962
		},
		{
			"buffer":0,
			"byteLength":1152,
			"byteOffset":12816,
			"target":34962
		},
		{
			"buffer":0,
			"byteLength":1152,
			"byteOffset":13968,
			"target":34962
		},
		{
			"buffer":0,
			"byteLength":768,
			"byteOffset":15120,
			"target":34962
		},
		{
			"buffer":0,
			"byteLength":1152,
			"byteOffset":15888,
			"target":34962
		},
		{
			"buffer":0,
			"byteLength":1152,
			"byteOffset":17040,
			"target":34962
		},
		{
			"buffer":0,
			"byteLength":768,
			"byteOffset":18192,
			"target":34962
		},
		{
			"buffer":0,
			"byteLength":1152,
			"byteOffset":18960,
			"target":34962
		},
		{
			"buffer":0,
			"byteLength":1152,
			"byteOffset":20112,
			"target":34962
		},
		{
			"buffer":0,
			"byteLength":768,
			"byteOffset":21264,
			"target":34962
		},
		{
			"buffer":0,
			"byteLength":1152,
			"byteOffset":22032,
			"target":34962
		},
		{
			"buffer":0,
			"byteLength":1152,
			"byteOffset":23184,
			"target":34962
		},
		{
			"buffer":0,
			"byteLength":768,
			"byteOffset":24336,
			"target":34962
		},
		{
			"buffer":0,
			"byteLength":1152,
			"byteOffset":25104,
			"target":34962
		},
		{
			"buffer":0,
			"byteLength":1152,
			"byteOffset":26256,
			"target":34962
		},
		{
			"buffer":0,
			"byteLength":768,
			"byteOffset":27408,
			"target":34962
		}
	],
	"buffers":[
		{
			"byteLength":28176,
			"uri":"painted_wooden_bench.bin"
		}
	]
}
