{
	"asset":{
		"generator":"Khronos glTF Blender I/O v5.2.40",
		"version":"2.0"
	},
	"scene":0,
	"scenes":[
		{
			"name":"Scene",
			"nodes":[
				0,
				1,
				2,
				3,
				4,
				5,
				6,
				7,
				8,
				9,
				10,
				11,
				12,
				13,
				14,
				15,
				16
			]
		}
	],
	"nodes":[
		{
			"mesh":0,
			"name":"br0"
		},
		{
			"mesh":1,
			"name":"br1"
		},
		{
			"mesh":2,
			"name":"can0"
		},
		{
			"mesh":3,
			"name":"can1"
		},
		{
			"mesh":4,
			"name":"can2"
		},
		{
			"mesh":5,
			"name":"can3"
		},
		{
			"mesh":6,
			"name":"can4"
		},
		{
			"mesh":7,
			"name":"can5"
		},
		{
			"mesh":8,
			"name":"canopyDark"
		},
		{
			"mesh":9,
			"name":"crown"
		},
		{
			"mesh":10,
			"name":"petal0"
		},
		{
			"mesh":11,
			"name":"petal1"
		},
		{
			"mesh":12,
			"name":"petal2"
		},
		{
			"mesh":13,
			"name":"petal3"
		},
		{
			"mesh":14,
			"name":"petal4"
		},
		{
			"mesh":15,
			"name":"petal5"
		},
		{
			"mesh":16,
			"name":"trunk"
		}
	],
	"materials":[
		{
			"doubleSided":true,
			"name":"M_bb0",
			"pbrMetallicRoughness":{
				"baseColorFactor":[
					0.11129941791296005,
					0.041451890021562576,
					0.011881334707140923,
					1
				],
				"metallicFactor":0,
				"roughnessFactor":0.8500000238418579
			}
		},
		{
			"doubleSided":true,
			"name":"M_bb1",
			"pbrMetallicRoughness":{
				"baseColorFactor":[
					0.11129941791296005,
					0.041451890021562576,
					0.011881334707140923,
					1
				],
				"metallicFactor":0,
				"roughnessFactor":0.8500000238418579
			}
		},
		{
			"doubleSided":true,
			"name":"M_canM0",
			"pbrMetallicRoughness":{
				"baseColorFactor":[
					0.8912620544433594,
					0.32972902059555054,
					0.5479934811592102,
					1
				],
				"metallicFactor":0,
				"roughnessFactor":0.8500000238418579
			}
		},
		{
			"doubleSided":true,
			"name":"M_canM1",
			"pbrMetallicRoughness":{
				"baseColorFactor":[
					0.8912620544433594,
					0.32972902059555054,
					0.5479934811592102,
					1
				],
				"metallicFactor":0,
				"roughnessFactor":0.8500000238418579
			}
		},
		{
			"doubleSided":true,
			"name":"M_canM2",
			"pbrMetallicRoughness":{
				"baseColorFactor":[
					0.8912620544433594,
					0.32972902059555054,
					0.5479934811592102,
					1
				],
				"metallicFactor":0,
				"roughnessFactor":0.8500000238418579
			}
		},
		{
			"doubleSided":true,
			"name":"M_canM3",
			"pbrMetallicRoughness":{
				"baseColorFactor":[
					0.8912620544433594,
					0.32972902059555054,
					0.5479934811592102,
					1
				],
				"metallicFactor":0,
				"roughnessFactor":0.8500000238418579
			}
		},
		{
			"doubleSided":true,
			"name":"M_canM4",
			"pbrMetallicRoughness":{
				"baseColorFactor":[
					0.8912620544433594,
					0.32972902059555054,
					0.5479934811592102,
					1
				],
				"metallicFactor":0,
				"roughnessFactor":0.8500000238418579
			}
		},
		{
			"doubleSided":true,
			"name":"M_canM5",
			"pbrMetallicRoughness":{
				"baseColorFactor":[
					0.8912620544433594,
					0.32972902059555054,
					0.5479934811592102,
					1
				],
				"metallicFactor":0,
				"roughnessFactor":0.8500000238418579
			}
		},
		{
			"doubleSided":true,
			"name":"M_canD",
			"pbrMetallicRoughness":{
				"baseColorFactor":[
					0.7372047901153564,
					0.160443514585495,
					0.38377463817596436,
					1
				],
				"metallicFactor":0,
				"roughnessFactor":0.8500000238418579
			}
		},
		{
			"doubleSided":true,
			"name":"M_crown",
			"pbrMetallicRoughness":{
				"baseColorFactor":[
					1,
					0.9075471758842468,
					0.7518950700759888,
					1
				],
				"metallicFactor":0,
				"roughnessFactor":0.8500000238418579
			}
		},
		{
			"doubleSided":true,
			"name":"M_pet0",
			"pbrMetallicRoughness":{
				"baseColorFactor":[
					0.7372047901153564,
					0.160443514585495,
					0.38377463817596436,
					1
				],
				"metallicFactor":0,
				"roughnessFactor":0.8500000238418579
			}
		},
		{
			"doubleSided":true,
			"name":"M_pet1",
			"pbrMetallicRoughness":{
				"baseColorFactor":[
					0.8912620544433594,
					0.32972902059555054,
					0.5479934811592102,
					1
				],
				"metallicFactor":0,
				"roughnessFactor":0.8500000238418579
			}
		},
		{
			"doubleSided":true,
			"name":"M_pet2",
			"pbrMetallicRoughness":{
				"baseColorFactor":[
					0.7372047901153564,
					0.160443514585495,
					0.38377463817596436,
					1
				],
				"metallicFactor":0,
				"roughnessFactor":0.8500000238418579
			}
		},
		{
			"doubleSided":true,
			"name":"M_pet3",
			"pbrMetallicRoughness":{
				"baseColorFactor":[
					0.8912620544433594,
					0.32972902059555054,
					0.5479934811592102,
					1
				],
				"metallicFactor":0,
				"roughnessFactor":0.8500000238418579
			}
		},
		{
			"doubleSided":true,
			"name":"M_pet4",
			"pbrMetallicRoughness":{
				"baseColorFactor":[
					0.7372047901153564,
					0.160443514585495,
					0.38377463817596436,
					1
				],
				"metallicFactor":0,
				"roughnessFactor":0.8500000238418579
			}
		},
		{
			"doubleSided":true,
			"name":"M_pet5",
			"pbrMetallicRoughness":{
				"baseColorFactor":[
					0.8912620544433594,
					0.32972902059555054,
					0.5479934811592102,
					1
				],
				"metallicFactor":0,
				"roughnessFactor":0.8500000238418579
			}
		},
		{
			"doubleSided":true,
			"name":"M_bt",
			"pbrMetallicRoughness":{
				"baseColorFactor":[
					0.11129941791296005,
					0.041451890021562576,
					0.011881334707140923,
					1
				],
				"metallicFactor":0,
				"roughnessFactor":0.8500000238418579
			}
		}
	],
	"meshes":[
		{
			"name":"Cone.001",
			"primitives":[
				{
					"attributes":{
						"POSITION":0,
						"NORMAL":1,
						"TEXCOORD_0":2
					},
					"indices":3,
					"material":0
				}
			]
		},
		{
			"name":"Cone.002",
			"primitives":[
				{
					"attributes":{
						"POSITION":4,
						"NORMAL":5,
						"TEXCOORD_0":6
					},
					"indices":3,
					"material":1
				}
			]
		},
		{
			"name":"Icosphere.001",
			"primitives":[
				{
					"attributes":{
						"POSITION":7,
						"NORMAL":8,
						"TEXCOORD_0":9
					},
					"indices":10,
					"material":2
				}
			]
		},
		{
			"name":"Icosphere.002",
			"primitives":[
				{
					"attributes":{
						"POSITION":11,
						"NORMAL":12,
						"TEXCOORD_0":13
					},
					"indices":10,
					"material":3
				}
			]
		},
		{
			"name":"Icosphere.003",
			"primitives":[
				{
					"attributes":{
						"POSITION":14,
						"NORMAL":15,
						"TEXCOORD_0":16
					},
					"indices":10,
					"material":4
				}
			]
		},
		{
			"name":"Icosphere.004",
			"primitives":[
				{
					"attributes":{
						"POSITION":17,
						"NORMAL":18,
						"TEXCOORD_0":19
					},
					"indices":10,
					"material":5
				}
			]
		},
		{
			"name":"Icosphere.005",
			"primitives":[
				{
					"attributes":{
						"POSITION":20,
						"NORMAL":21,
						"TEXCOORD_0":22
					},
					"indices":10,
					"material":6
				}
			]
		},
		{
			"name":"Icosphere.006",
			"primitives":[
				{
					"attributes":{
						"POSITION":23,
						"NORMAL":24,
						"TEXCOORD_0":25
					},
					"indices":10,
					"material":7
				}
			]
		},
		{
			"name":"Icosphere",
			"primitives":[
				{
					"attributes":{
						"POSITION":26,
						"NORMAL":27,
						"TEXCOORD_0":28
					},
					"indices":10,
					"material":8
				}
			]
		},
		{
			"name":"Icosphere.007",
			"primitives":[
				{
					"attributes":{
						"POSITION":29,
						"NORMAL":30,
						"TEXCOORD_0":31
					},
					"indices":32,
					"material":9
				}
			]
		},
		{
			"name":"Icosphere.008",
			"primitives":[
				{
					"attributes":{
						"POSITION":33,
						"NORMAL":34,
						"TEXCOORD_0":35
					},
					"indices":36,
					"material":10
				}
			]
		},
		{
			"name":"Icosphere.009",
			"primitives":[
				{
					"attributes":{
						"POSITION":37,
						"NORMAL":38,
						"TEXCOORD_0":39
					},
					"indices":36,
					"material":11
				}
			]
		},
		{
			"name":"Icosphere.010",
			"primitives":[
				{
					"attributes":{
						"POSITION":40,
						"NORMAL":41,
						"TEXCOORD_0":42
					},
					"indices":36,
					"material":12
				}
			]
		},
		{
			"name":"Icosphere.011",
			"primitives":[
				{
					"attributes":{
						"POSITION":43,
						"NORMAL":44,
						"TEXCOORD_0":45
					},
					"indices":36,
					"material":13
				}
			]
		},
		{
			"name":"Icosphere.012",
			"primitives":[
				{
					"attributes":{
						"POSITION":46,
						"NORMAL":47,
						"TEXCOORD_0":48
					},
					"indices":36,
					"material":14
				}
			]
		},
		{
			"name":"Icosphere.013",
			"primitives":[
				{
					"attributes":{
						"POSITION":49,
						"NORMAL":50,
						"TEXCOORD_0":51
					},
					"indices":36,
					"material":15
				}
			]
		},
		{
			"name":"Cone",
			"primitives":[
				{
					"attributes":{
						"POSITION":52,
						"NORMAL":53,
						"TEXCOORD_0":54
					},
					"indices":55,
					"material":16
				}
			]
		}
	],
	"accessors":[
		{
			"bufferView":0,
			"componentType":5126,
			"count":26,
			"max":[
				0.6582001447677612,
				2.94895339012146,
				-0.048099711537361145
			],
			"min":[
				0.1288459151983261,
				2.021322727203369,
				-0.4127371907234192
			],
			"type":"VEC3"
		},
		{
			"bufferView":1,
			"componentType":5126,
			"count":26,
			"type":"VEC3"
		},
		{
			"bufferView":2,
			"componentType":5126,
			"count":26,
			"type":"VEC2"
		},
		{
			"bufferView":3,
			"componentType":5123,
			"count":60,
			"type":"SCALAR"
		},
		{
			"bufferView":4,
			"componentType":5126,
			"count":26,
			"max":[
				-0.058551520109176636,
				2.9326272010803223,
				0.3446248173713684
			],
			"min":[
				-0.6459978818893433,
				2.034297466278076,
				-0.030850782990455627
			],
			"type":"VEC3"
		},
		{
			"bufferView":5,
			"componentType":5126,
			"count":26,
			"type":"VEC3"
		},
		{
			"bufferView":6,
			"componentType":5126,
			"count":26,
			"type":"VEC2"
		},
		{
			"bufferView":7,
			"componentType":5126,
			"count":63,
			"max":[
				-0.13857607543468475,
				4.020384788513184,
				0.3855085074901581
			],
			"min":[
				-1.538482666015625,
				2.8404037952423096,
				-0.9936919808387756
			],
			"type":"VEC3"
		},
		{
			"bufferView":8,
			"componentType":5126,
			"count":63,
			"type":"VEC3"
		},
		{
			"bufferView":9,
			"componentType":5126,
			"count":63,
			"type":"VEC2"
		},
		{
			"bufferView":10,
			"componentType":5123,
			"count":240,
			"type":"SCALAR"
		},
		{
			"bufferView":11,
			"componentType":5126,
			"count":63,
			"max":[
				1.5153656005859375,
				4.053835391998291,
				0.9264758825302124
			],
			"min":[
				0.1824703961610794,
				2.8939127922058105,
				-0.43455830216407776
			],
			"type":"VEC3"
		},
		{
			"bufferView":12,
			"componentType":5126,
			"count":63,
			"type":"VEC3"
		},
		{
			"bufferView":13,
			"componentType":5126,
			"count":63,
			"type":"VEC2"
		},
		{
			"bufferView":14,
			"componentType":5126,
			"count":63,
			"max":[
				0.6699022054672241,
				4.090367317199707,
				-0.20689012110233307
			],
			"min":[
				-0.576501190662384,
				3.1183347702026367,
				-1.3685261011123657
			],
			"type":"VEC3"
		},
		{
			"bufferView":15,
			"componentType":5126,
			"count":63,
			"type":"VEC3"
		},
		{
			"bufferView":16,
			"componentType":5126,
			"count":63,
			"type":"VEC2"
		},
		{
			"bufferView":17,
			"componentType":5126,
			"count":63,
			"max":[
				0.48293179273605347,
				4.116304397583008,
				1.473915934562683
			],
			"min":[
				-0.7479897737503052,
				3.1261324882507324,
				0.18073701858520508
			],
			"type":"VEC3"
		},
		{
			"bufferView":18,
			"componentType":5126,
			"count":63,
			"type":"VEC3"
		},
		{
			"bufferView":19,
			"componentType":5126,
			"count":63,
			"type":"VEC2"
		},
		{
			"bufferView":20,
			"componentType":5126,
			"count":63,
			"max":[
				1.1623170375823975,
				4.266766548156738,
				-0.06796764582395554
			],
			"min":[
				0.14583054184913635,
				3.357210636138916,
				-1.1139132976531982
			],
			"type":"VEC3"
		},
		{
			"bufferView":21,
			"componentType":5126,
			"count":63,
			"type":"VEC3"
		},
		{
			"bufferView":22,
			"componentType":5126,
			"count":63,
			"type":"VEC2"
		},
		{
			"bufferView":23,
			"componentType":5126,
			"count":63,
			"max":[
				-0.2339882254600525,
				4.144228458404541,
				1.041202187538147
			],
			"min":[
				-1.2541873455047607,
				3.3371918201446533,
				0.008405359461903572
			],
			"type":"VEC3"
		},
		{
			"bufferView":24,
			"componentType":5126,
			"count":63,
			"type":"VEC3"
		},
		{
			"bufferView":25,
			"componentType":5126,
			"count":63,
			"type":"VEC2"
		},
		{
			"bufferView":26,
			"componentType":5126,
			"count":63,
			"max":[
				1.2659717798233032,
				3.5795044898986816,
				1.2591084241867065
			],
			"min":[
				-1.2630305290222168,
				2.225283622741699,
				-1.307291865348816
			],
			"type":"VEC3"
		},
		{
			"bufferView":27,
			"componentType":5126,
			"count":63,
			"type":"VEC3"
		},
		{
			"bufferView":28,
			"componentType":5126,
			"count":63,
			"type":"VEC2"
		},
		{
			"bufferView":29,
			"componentType":5126,
			"count":22,
			"max":[
				0.6872370839118958,
				5.044693470001221,
				0.6069559454917908
			],
			"min":[
				-0.5801211595535278,
				4.064965724945068,
				-0.6052722930908203
			],
			"type":"VEC3"
		},
		{
			"bufferView":30,
			"componentType":5126,
			"count":22,
			"type":"VEC3"
		},
		{
			"bufferView":31,
			"componentType":5126,
			"count":22,
			"type":"VEC2"
		},
		{
			"bufferView":32,
			"componentType":5123,
			"count":60,
			"type":"SCALAR"
		},
		{
			"bufferView":33,
			"componentType":5126,
			"count":60,
			"max":[
				0.8804982900619507,
				0.04999999701976776,
				0.07655760645866394
			],
			"min":[
				0.7195017337799072,
				-0.009999999776482582,
				-0.07655760645866394
			],
			"type":"VEC3"
		},
		{
			"bufferView":34,
			"componentType":5126,
			"count":60,
			"type":"VEC3"
		},
		{
			"bufferView":35,
			"componentType":5126,
			"count":60,
			"type":"VEC2"
		},
		{
			"bufferView":36,
			"componentType":5123,
			"count":60,
			"type":"SCALAR"
		},
		{
			"bufferView":37,
			"componentType":5126,
			"count":60,
			"max":[
				0.4433751404285431,
				0.04999999701976776,
				-0.6364083290100098
			],
			"min":[
				0.2823786437511444,
				-0.009999999776482582,
				-0.7895234823226929
			],
			"type":"VEC3"
		},
		{
			"bufferView":38,
			"componentType":5126,
			"count":60,
			"type":"VEC3"
		},
		{
			"bufferView":39,
			"componentType":5126,
			"count":60,
			"type":"VEC2"
		},
		{
			"bufferView":40,
			"componentType":5126,
			"count":60,
			"max":[
				-0.3903026580810547,
				0.04999999701976776,
				-0.5702395439147949
			],
			"min":[
				-0.5512991547584534,
				-0.009999999776482582,
				-0.723354697227478
			],
			"type":"VEC3"
		},
		{
			"bufferView":41,
			"componentType":5126,
			"count":60,
			"type":"VEC3"
		},
		{
			"bufferView":42,
			"componentType":5126,
			"count":60,
			"type":"VEC2"
		},
		{
			"bufferView":43,
			"componentType":5126,
			"count":60,
			"max":[
				-0.7094855308532715,
				0.04999999701976776,
				0.2027541548013687
			],
			"min":[
				-0.8704820871353149,
				-0.009999999776482582,
				0.04963894188404083
			],
			"type":"VEC3"
		},
		{
			"bufferView":44,
			"componentType":5126,
			"count":60,
			"type":"VEC3"
		},
		{
			"bufferView":45,
			"componentType":5126,
			"count":60,
			"type":"VEC2"
		},
		{
			"bufferView":46,
			"componentType":5126,
			"count":60,
			"max":[
				-0.16536805033683777,
				0.04999999701976776,
				0.8378392457962036
			],
			"min":[
				-0.32636454701423645,
				-0.009999999776482582,
				0.6847240924835205
			],
			"type":"VEC3"
		},
		{
			"bufferView":47,
			"componentType":5126,
			"count":60,
			"type":"VEC3"
		},
		{
			"bufferView":48,
			"componentType":5126,
			"count":60,
			"type":"VEC2"
		},
		{
			"bufferView":49,
			"componentType":5126,
			"count":60,
			"max":[
				0.6474341154098511,
				0.04999999701976776,
				0.6409898996353149
			],
			"min":[
				0.48643758893013,
				-0.009999999776482582,
				0.4878746569156647
			],
			"type":"VEC3"
		},
		{
			"bufferView":50,
			"componentType":5126,
			"count":60,
			"type":"VEC3"
		},
		{
			"bufferView":51,
			"componentType":5126,
			"count":60,
			"type":"VEC2"
		},
		{
			"bufferView":52,
			"componentType":5126,
			"count":38,
			"max":[
				0.2560499906539917,
				2.4000000953674316,
				0.2443200647830963
			],
			"min":[
				-0.2560499906539917,
				0,
				-0.25999999046325684
			],
			"type":"VEC3"
		},
		{
			"bufferView":53,
			"componentType":5126,
			"count":38,
			"type":"VEC3"
		},
		{
			"bufferView":54,
			"componentType":5126,
			"count":38,
			"type":"VEC2"
		},
		{
			"bufferView":55,
			"componentType":5123,
			"count":96,
			"type":"SCALAR"
		}
	],
	"bufferViews":[
		{
			"buffer":0,
			"byteLength":312,
			"byteOffset":0,
			"target":34962
		},
		{
			"buffer":0,
			"byteLength":312,
			"byteOffset":312,
			"target":34962
		},
		{
			"buffer":0,
			"byteLength":208,
			"byteOffset":624,
			"target":34962
		},
		{
			"buffer":0,
			"byteLength":120,
			"byteOffset":832,
			"target":34963
		},
		{
			"buffer":0,
			"byteLength":312,
			"byteOffset":952,
			"target":34962
		},
		{
			"buffer":0,
			"byteLength":312,
			"byteOffset":1264,
			"target":34962
		},
		{
			"buffer":0,
			"byteLength":208,
			"byteOffset":1576,
			"target":34962
		},
		{
			"buffer":0,
			"byteLength":756,
			"byteOffset":1784,
			"target":34962
		},
		{
			"buffer":0,
			"byteLength":756,
			"byteOffset":2540,
			"target":34962
		},
		{
			"buffer":0,
			"byteLength":504,
			"byteOffset":3296,
			"target":34962
		},
		{
			"buffer":0,
			"byteLength":480,
			"byteOffset":3800,
			"target":34963
		},
		{
			"buffer":0,
			"byteLength":756,
			"byteOffset":4280,
			"target":34962
		},
		{
			"buffer":0,
			"byteLength":756,
			"byteOffset":5036,
			"target":34962
		},
		{
			"buffer":0,
			"byteLength":504,
			"byteOffset":5792,
			"target":34962
		},
		{
			"buffer":0,
			"byteLength":756,
			"byteOffset":6296,
			"target":34962
		},
		{
			"buffer":0,
			"byteLength":756,
			"byteOffset":7052,
			"target":34962
		},
		{
			"buffer":0,
			"byteLength":504,
			"byteOffset":7808,
			"target":34962
		},
		{
			"buffer":0,
			"byteLength":756,
			"byteOffset":8312,
			"target":34962
		},
		{
			"buffer":0,
			"byteLength":756,
			"byteOffset":9068,
			"target":34962
		},
		{
			"buffer":0,
			"byteLength":504,
			"byteOffset":9824,
			"target":34962
		},
		{
			"buffer":0,
			"byteLength":756,
			"byteOffset":10328,
			"target":34962
		},
		{
			"buffer":0,
			"byteLength":756,
			"byteOffset":11084,
			"target":34962
		},
		{
			"buffer":0,
			"byteLength":504,
			"byteOffset":11840,
			"target":34962
		},
		{
			"buffer":0,
			"byteLength":756,
			"byteOffset":12344,
			"target":34962
		},
		{
			"buffer":0,
			"byteLength":756,
			"byteOffset":13100,
			"target":34962
		},
		{
			"buffer":0,
			"byteLength":504,
			"byteOffset":13856,
			"target":34962
		},
		{
			"buffer":0,
			"byteLength":756,
			"byteOffset":14360,
			"target":34962
		},
		{
			"buffer":0,
			"byteLength":756,
			"byteOffset":15116,
			"target":34962
		},
		{
			"buffer":0,
			"byteLength":504,
			"byteOffset":15872,
			"target":34962
		},
		{
			"buffer":0,
			"byteLength":264,
			"byteOffset":16376,
			"target":34962
		},
		{
			"buffer":0,
			"byteLength":264,
			"byteOffset":16640,
			"target":34962
		},
		{
			"buffer":0,
			"byteLength":176,
			"byteOffset":16904,
			"target":34962
		},
		{
			"buffer":0,
			"byteLength":120,
			"byteOffset":17080,
			"target":34963
		},
		{
			"buffer":0,
			"byteLength":720,
			"byteOffset":17200,
			"target":34962
		},
		{
			"buffer":0,
			"byteLength":720,
			"byteOffset":17920,
			"target":34962
		},
		{
			"buffer":0,
			"byteLength":480,
			"byteOffset":18640,
			"target":34962
		},
		{
			"buffer":0,
			"byteLength":120,
			"byteOffset":19120,
			"target":34963
		},
		{
			"buffer":0,
			"byteLength":720,
			"byteOffset":19240,
			"target":34962
		},
		{
			"buffer":0,
			"byteLength":720,
			"byteOffset":19960,
			"target":34962
		},
		{
			"buffer":0,
			"byteLength":480,
			"byteOffset":20680,
			"target":34962
		},
		{
			"buffer":0,
			"byteLength":720,
			"byteOffset":21160,
			"target":34962
		},
		{
			"buffer":0,
			"byteLength":720,
			"byteOffset":21880,
			"target":34962
		},
		{
			"buffer":0,
			"byteLength":480,
			"byteOffset":22600,
			"target":34962
		},
		{
			"buffer":0,
			"byteLength":720,
			"byteOffset":23080,
			"target":34962
		},
		{
			"buffer":0,
			"byteLength":720,
			"byteOffset":23800,
			"target":34962
		},
		{
			"buffer":0,
			"byteLength":480,
			"byteOffset":24520,
			"target":34962
		},
		{
			"buffer":0,
			"byteLength":720,
			"byteOffset":25000,
			"target":34962
		},
		{
			"buffer":0,
			"byteLength":720,
			"byteOffset":25720,
			"target":34962
		},
		{
			"buffer":0,
			"byteLength":480,
			"byteOffset":26440,
			"target":34962
		},
		{
			"buffer":0,
			"byteLength":720,
			"byteOffset":26920,
			"target":34962
		},
		{
			"buffer":0,
			"byteLength":720,
			"byteOffset":27640,
			"target":34962
		},
		{
			"buffer":0,
			"byteLength":480,
			"byteOffset":28360,
			"target":34962
		},
		{
			"buffer":0,
			"byteLength":456,
			"byteOffset":28840,
			"target":34962
		},
		{
			"buffer":0,
			"byteLength":456,
			"byteOffset":29296,
			"target":34962
		},
		{
			"buffer":0,
			"byteLength":304,
			"byteOffset":29752,
			"target":34962
		},
		{
			"buffer":0,
			"byteLength":192,
			"byteOffset":30056,
			"target":34963
		}
	],
	"buffers":[
		{
			"byteLength":30248,
			"uri":"hd_blossom.bin"
		}
	]
}
