{
	"asset":{
		"generator":"Khronos glTF Blender I/O v5.2.40",
		"version":"2.0"
	},
	"scene":0,
	"scenes":[
		{
			"name":"Scene",
			"nodes":[
				0,
				1,
				2,
				3,
				4
			]
		}
	],
	"nodes":[
		{
			"mesh":0,
			"name":"cut"
		},
		{
			"mesh":1,
			"name":"cut.001"
		},
		{
			"mesh":2,
			"name":"log"
		},
		{
			"mesh":3,
			"name":"stub0"
		},
		{
			"mesh":4,
			"name":"stub1"
		}
	],
	"materials":[
		{
			"doubleSided":true,
			"name":"M_lc",
			"pbrMetallicRoughness":{
				"baseColorFactor":[
					0.701169490814209,
					0.39929330348968506,
					0.15105804800987244,
					1
				],
				"metallicFactor":0,
				"roughnessFactor":0.8500000238418579
			}
		},
		{
			"doubleSided":true,
			"name":"M_lg",
			"pbrMetallicRoughness":{
				"baseColorFactor":[
					0.2590273320674896,
					0.10114516317844391,
					0.02775527909398079,
					1
				],
				"metallicFactor":0,
				"roughnessFactor":0.8500000238418579
			}
		},
		{
			"doubleSided":true,
			"name":"M_lst",
			"pbrMetallicRoughness":{
				"baseColorFactor":[
					0.14799802005290985,
					0.05112205073237419,
					0.015175238251686096,
					1
				],
				"metallicFactor":0,
				"roughnessFactor":0.8500000238418579
			}
		}
	],
	"meshes":[
		{
			"name":"Cylinder",
			"primitives":[
				{
					"attributes":{
						"POSITION":0,
						"NORMAL":1,
						"TEXCOORD_0":2
					},
					"indices":3,
					"material":0
				}
			]
		},
		{
			"name":"Cylinder.001",
			"primitives":[
				{
					"attributes":{
						"POSITION":4,
						"NORMAL":5,
						"TEXCOORD_0":6
					},
					"indices":3,
					"material":0
				}
			]
		},
		{
			"name":"Cone",
			"primitives":[
				{
					"attributes":{
						"POSITION":7,
						"NORMAL":8,
						"TEXCOORD_0":9
					},
					"indices":10,
					"material":1
				}
			]
		},
		{
			"name":"Cone.001",
			"primitives":[
				{
					"attributes":{
						"POSITION":11,
						"NORMAL":12,
						"TEXCOORD_0":13
					},
					"indices":14,
					"material":2
				}
			]
		},
		{
			"name":"Cone.002",
			"primitives":[
				{
					"attributes":{
						"POSITION":15,
						"NORMAL":16,
						"TEXCOORD_0":17
					},
					"indices":14,
					"material":2
				}
			]
		}
	],
	"accessors":[
		{
			"bufferView":0,
			"componentType":5126,
			"count":72,
			"max":[
				-1.0673083066940308,
				0.7400331497192383,
				0.34278786182403564
			],
			"min":[
				-1.0873082876205444,
				0.055096209049224854,
				-0.3421490788459778
			],
			"type":"VEC3"
		},
		{
			"bufferView":1,
			"componentType":5126,
			"count":72,
			"type":"VEC3"
		},
		{
			"bufferView":2,
			"componentType":5126,
			"count":72,
			"type":"VEC2"
		},
		{
			"bufferView":3,
			"componentType":5123,
			"count":132,
			"type":"SCALAR"
		},
		{
			"bufferView":4,
			"componentType":5126,
			"count":72,
			"max":[
				1.0873082876205444,
				0.6783888339996338,
				0.2811434864997864
			],
			"min":[
				1.0673083066940308,
				0.11674055457115173,
				-0.2805047631263733
			],
			"type":"VEC3"
		},
		{
			"bufferView":5,
			"componentType":5126,
			"count":72,
			"type":"VEC3"
		},
		{
			"bufferView":6,
			"componentType":5126,
			"count":72,
			"type":"VEC2"
		},
		{
			"bufferView":7,
			"componentType":5126,
			"count":50,
			"max":[
				1.0773082971572876,
				0.7580578327178955,
				0.3608124852180481
			],
			"min":[
				-1.0773082971572876,
				0.03707161545753479,
				-0.360173761844635
			],
			"type":"VEC3"
		},
		{
			"bufferView":8,
			"componentType":5126,
			"count":50,
			"type":"VEC3"
		},
		{
			"bufferView":9,
			"componentType":5126,
			"count":50,
			"type":"VEC2"
		},
		{
			"bufferView":10,
			"componentType":5123,
			"count":132,
			"type":"SCALAR"
		},
		{
			"bufferView":11,
			"componentType":5126,
			"count":26,
			"max":[
				-0.39892709255218506,
				0.7171778082847595,
				0.1083284467458725
			],
			"min":[
				-0.49882984161376953,
				0.44632381200790405,
				-0.13655339181423187
			],
			"type":"VEC3"
		},
		{
			"bufferView":12,
			"componentType":5126,
			"count":26,
			"type":"VEC3"
		},
		{
			"bufferView":13,
			"componentType":5126,
			"count":26,
			"type":"VEC2"
		},
		{
			"bufferView":14,
			"componentType":5123,
			"count":60,
			"type":"SCALAR"
		},
		{
			"bufferView":15,
			"componentType":5126,
			"count":26,
			"max":[
				0.3866102695465088,
				0.7018696665763855,
				0.14785616099834442
			],
			"min":[
				0.28670746088027954,
				0.45698776841163635,
				-0.12299787253141403
			],
			"type":"VEC3"
		},
		{
			"bufferView":16,
			"componentType":5126,
			"count":26,
			"type":"VEC3"
		},
		{
			"bufferView":17,
			"componentType":5126,
			"count":26,
			"type":"VEC2"
		}
	],
	"bufferViews":[
		{
			"buffer":0,
			"byteLength":864,
			"byteOffset":0,
			"target":34962
		},
		{
			"buffer":0,
			"byteLength":864,
			"byteOffset":864,
			"target":34962
		},
		{
			"buffer":0,
			"byteLength":576,
			"byteOffset":1728,
			"target":34962
		},
		{
			"buffer":0,
			"byteLength":264,
			"byteOffset":2304,
			"target":34963
		},
		{
			"buffer":0,
			"byteLength":864,
			"byteOffset":2568,
			"target":34962
		},
		{
			"buffer":0,
			"byteLength":864,
			"byteOffset":3432,
			"target":34962
		},
		{
			"buffer":0,
			"byteLength":576,
			"byteOffset":4296,
			"target":34962
		},
		{
			"buffer":0,
			"byteLength":600,
			"byteOffset":4872,
			"target":34962
		},
		{
			"buffer":0,
			"byteLength":600,
			"byteOffset":5472,
			"target":34962
		},
		{
			"buffer":0,
			"byteLength":400,
			"byteOffset":6072,
			"target":34962
		},
		{
			"buffer":0,
			"byteLength":264,
			"byteOffset":6472,
			"target":34963
		},
		{
			"buffer":0,
			"byteLength":312,
			"byteOffset":6736,
			"target":34962
		},
		{
			"buffer":0,
			"byteLength":312,
			"byteOffset":7048,
			"target":34962
		},
		{
			"buffer":0,
			"byteLength":208,
			"byteOffset":7360,
			"target":34962
		},
		{
			"buffer":0,
			"byteLength":120,
			"byteOffset":7568,
			"target":34963
		},
		{
			"buffer":0,
			"byteLength":312,
			"byteOffset":7688,
			"target":34962
		},
		{
			"buffer":0,
			"byteLength":312,
			"byteOffset":8000,
			"target":34962
		},
		{
			"buffer":0,
			"byteLength":208,
			"byteOffset":8312,
			"target":34962
		}
	],
	"buffers":[
		{
			"byteLength":8520,
			"uri":"bl_fallen_log.bin"
		}
	]
}
