{
	"asset":{
		"generator":"Khronos glTF Blender I/O v5.2.40",
		"version":"2.0"
	},
	"scene":0,
	"scenes":[
		{
			"name":"Scene",
			"nodes":[
				0
			]
		}
	],
	"nodes":[
		{
			"mesh":0,
			"name":"concrete_road_barrier"
		}
	],
	"materials":[
		{
			"doubleSided":true,
			"name":"concrete_road_barrier",
			"normalTexture":{
				"index":0
			},
			"pbrMetallicRoughness":{
				"baseColorTexture":{
					"index":1
				},
				"metallicFactor":0,
				"metallicRoughnessTexture":{
					"index":2
				}
			}
		}
	],
	"meshes":[
		{
			"name":"RetopoFlow.006",
			"primitives":[
				{
					"attributes":{
						"POSITION":0,
						"NORMAL":1,
						"TEXCOORD_0":2
					},
					"indices":3,
					"material":0
				}
			]
		}
	],
	"textures":[
		{
			"sampler":0,
			"source":0
		},
		{
			"sampler":0,
			"source":1
		},
		{
			"sampler":0,
			"source":2
		}
	],
	"images":[
		{
			"mimeType":"image/jpeg",
			"name":"concrete_road_barrier_nor_gl",
			"uri":"textures/concrete_road_barrier_nor_gl_2k.jpg"
		},
		{
			"mimeType":"image/jpeg",
			"name":"concrete_road_barrier_diff",
			"uri":"textures/concrete_road_barrier_diff_2k.jpg"
		},
		{
			"mimeType":"image/jpeg",
			"name":"concrete_road_barrier_rough",
			"uri":"textures/concrete_road_barrier_arm_2k.jpg"
		}
	],
	"accessors":[
		{
			"bufferView":0,
			"componentType":5126,
			"count":9978,
			"max":[
				0.7707244157791138,
				0.8224999308586121,
				0.3439931571483612
			],
			"min":[
				-0.774281919002533,
				-0.008274680003523827,
				-0.2947474718093872
			],
			"type":"VEC3"
		},
		{
			"bufferView":1,
			"componentType":5126,
			"count":9978,
			"type":"VEC3"
		},
		{
			"bufferView":2,
			"componentType":5126,
			"count":9978,
			"type":"VEC2"
		},
		{
			"bufferView":3,
			"componentType":5123,
			"count":54834,
			"type":"SCALAR"
		}
	],
	"bufferViews":[
		{
			"buffer":0,
			"byteLength":119736,
			"byteOffset":0,
			"target":34962
		},
		{
			"buffer":0,
			"byteLength":119736,
			"byteOffset":119736,
			"target":34962
		},
		{
			"buffer":0,
			"byteLength":79824,
			"byteOffset":239472,
			"target":34962
		},
		{
			"buffer":0,
			"byteLength":109668,
			"byteOffset":319296,
			"target":34963
		}
	],
	"samplers":[
		{
			"magFilter":9729,
			"minFilter":9987
		}
	],
	"buffers":[
		{
			"byteLength":428964,
			"uri":"concrete_road_barrier.bin"
		}
	]
}
