{
	"asset":{
		"generator":"Khronos glTF Blender I/O v5.2.40",
		"version":"2.0"
	},
	"scene":0,
	"scenes":[
		{
			"name":"Scene",
			"nodes":[
				0,
				1,
				2,
				3,
				4,
				5,
				6,
				7
			]
		}
	],
	"nodes":[
		{
			"mesh":0,
			"name":"base"
		},
		{
			"mesh":1,
			"name":"spike"
		},
		{
			"mesh":2,
			"name":"spike.001"
		},
		{
			"mesh":3,
			"name":"spike.002"
		},
		{
			"mesh":4,
			"name":"spike.003"
		},
		{
			"mesh":5,
			"name":"spike.004"
		},
		{
			"mesh":6,
			"name":"spike.005"
		},
		{
			"mesh":7,
			"name":"spike.006"
		}
	],
	"materials":[
		{
			"doubleSided":true,
			"name":"plate_steel",
			"pbrMetallicRoughness":{
				"baseColorFactor":[
					0.10000000149011612,
					0.10000000149011612,
					0.10999999940395355,
					1
				],
				"metallicFactor":0.6000000238418579,
				"roughnessFactor":0.550000011920929
			}
		},
		{
			"doubleSided":true,
			"name":"spike_steel",
			"pbrMetallicRoughness":{
				"baseColorFactor":[
					0.1599999964237213,
					0.15000000596046448,
					0.14000000059604645,
					1
				],
				"metallicFactor":0.800000011920929,
				"roughnessFactor":0.41999998688697815
			}
		}
	],
	"meshes":[
		{
			"name":"Cube",
			"primitives":[
				{
					"attributes":{
						"POSITION":0,
						"NORMAL":1,
						"TEXCOORD_0":2
					},
					"indices":3,
					"material":0
				}
			]
		},
		{
			"name":"Cone",
			"primitives":[
				{
					"attributes":{
						"POSITION":4,
						"NORMAL":5,
						"TEXCOORD_0":6
					},
					"indices":7,
					"material":1
				}
			]
		},
		{
			"name":"Cone.001",
			"primitives":[
				{
					"attributes":{
						"POSITION":8,
						"NORMAL":9,
						"TEXCOORD_0":10
					},
					"indices":7,
					"material":1
				}
			]
		},
		{
			"name":"Cone.002",
			"primitives":[
				{
					"attributes":{
						"POSITION":11,
						"NORMAL":12,
						"TEXCOORD_0":13
					},
					"indices":7,
					"material":1
				}
			]
		},
		{
			"name":"Cone.003",
			"primitives":[
				{
					"attributes":{
						"POSITION":14,
						"NORMAL":15,
						"TEXCOORD_0":16
					},
					"indices":7,
					"material":1
				}
			]
		},
		{
			"name":"Cone.004",
			"primitives":[
				{
					"attributes":{
						"POSITION":17,
						"NORMAL":18,
						"TEXCOORD_0":19
					},
					"indices":7,
					"material":1
				}
			]
		},
		{
			"name":"Cone.005",
			"primitives":[
				{
					"attributes":{
						"POSITION":20,
						"NORMAL":21,
						"TEXCOORD_0":22
					},
					"indices":7,
					"material":1
				}
			]
		},
		{
			"name":"Cone.006",
			"primitives":[
				{
					"attributes":{
						"POSITION":23,
						"NORMAL":24,
						"TEXCOORD_0":25
					},
					"indices":7,
					"material":1
				}
			]
		}
	],
	"accessors":[
		{
			"bufferView":0,
			"componentType":5126,
			"count":216,
			"max":[
				2.25,
				0.15000000596046448,
				1.2999999523162842
			],
			"min":[
				-2.25,
				-0.05000000074505806,
				-1.2999999523162842
			],
			"type":"VEC3"
		},
		{
			"bufferView":1,
			"componentType":5126,
			"count":216,
			"type":"VEC3"
		},
		{
			"bufferView":2,
			"componentType":5126,
			"count":216,
			"type":"VEC2"
		},
		{
			"bufferView":3,
			"componentType":5123,
			"count":324,
			"type":"SCALAR"
		},
		{
			"bufferView":4,
			"componentType":5126,
			"count":30,
			"max":[
				-0.7464914917945862,
				0.6564779281616211,
				0.4384031593799591
			],
			"min":[
				-1.0704867839813232,
				0.0895935595035553,
				0.1222430020570755
			],
			"type":"VEC3"
		},
		{
			"bufferView":5,
			"componentType":5126,
			"count":30,
			"type":"VEC3"
		},
		{
			"bufferView":6,
			"componentType":5126,
			"count":30,
			"type":"VEC2"
		},
		{
			"bufferView":7,
			"componentType":5123,
			"count":72,
			"type":"SCALAR"
		},
		{
			"bufferView":8,
			"componentType":5126,
			"count":30,
			"max":[
				-0.15630482137203217,
				0.8268949389457703,
				0.4811272621154785
			],
			"min":[
				-0.47809696197509766,
				0.08451917767524719,
				0.16592131555080414
			],
			"type":"VEC3"
		},
		{
			"bufferView":9,
			"componentType":5126,
			"count":30,
			"type":"VEC3"
		},
		{
			"bufferView":10,
			"componentType":5126,
			"count":30,
			"type":"VEC2"
		},
		{
			"bufferView":11,
			"componentType":5126,
			"count":30,
			"max":[
				0.39384695887565613,
				0.866736650466919,
				0.4183380603790283
			],
			"min":[
				0.11178725212812424,
				0.09023937582969666,
				0.14246103167533875
			],
			"type":"VEC3"
		},
		{
			"bufferView":12,
			"componentType":5126,
			"count":30,
			"type":"VEC3"
		},
		{
			"bufferView":13,
			"componentType":5126,
			"count":30,
			"type":"VEC2"
		},
		{
			"bufferView":14,
			"componentType":5126,
			"count":30,
			"max":[
				1.0550488233566284,
				0.6282364130020142,
				0.5382766723632812
			],
			"min":[
				0.733938992023468,
				0.08012506365776062,
				0.22434936463832855
			],
			"type":"VEC3"
		},
		{
			"bufferView":15,
			"componentType":5126,
			"count":30,
			"type":"VEC3"
		},
		{
			"bufferView":16,
			"componentType":5126,
			"count":30,
			"type":"VEC2"
		},
		{
			"bufferView":17,
			"componentType":5126,
			"count":30,
			"max":[
				-0.4799458980560303,
				0.6434822082519531,
				-0.23897553980350494
			],
			"min":[
				-0.7674121856689453,
				0.08124253153800964,
				-0.5186839699745178
			],
			"type":"VEC3"
		},
		{
			"bufferView":18,
			"componentType":5126,
			"count":30,
			"type":"VEC3"
		},
		{
			"bufferView":19,
			"componentType":5126,
			"count":30,
			"type":"VEC2"
		},
		{
			"bufferView":20,
			"componentType":5126,
			"count":30,
			"max":[
				0.0948084369301796,
				0.6904796361923218,
				-0.1768539696931839
			],
			"min":[
				-0.18810786306858063,
				0.0853128433227539,
				-0.4530212879180908
			],
			"type":"VEC3"
		},
		{
			"bufferView":21,
			"componentType":5126,
			"count":30,
			"type":"VEC3"
		},
		{
			"bufferView":22,
			"componentType":5126,
			"count":30,
			"type":"VEC2"
		},
		{
			"bufferView":23,
			"componentType":5126,
			"count":30,
			"max":[
				0.7417475581169128,
				0.6639772653579712,
				-0.18890301883220673
			],
			"min":[
				0.47289276123046875,
				0.0830858051776886,
				-0.4523192048072815
			],
			"type":"VEC3"
		},
		{
			"bufferView":24,
			"componentType":5126,
			"count":30,
			"type":"VEC3"
		},
		{
			"bufferView":25,
			"componentType":5126,
			"count":30,
			"type":"VEC2"
		}
	],
	"bufferViews":[
		{
			"buffer":0,
			"byteLength":2592,
			"byteOffset":0,
			"target":34962
		},
		{
			"buffer":0,
			"byteLength":2592,
			"byteOffset":2592,
			"target":34962
		},
		{
			"buffer":0,
			"byteLength":1728,
			"byteOffset":5184,
			"target":34962
		},
		{
			"buffer":0,
			"byteLength":648,
			"byteOffset":6912,
			"target":34963
		},
		{
			"buffer":0,
			"byteLength":360,
			"byteOffset":7560,
			"target":34962
		},
		{
			"buffer":0,
			"byteLength":360,
			"byteOffset":7920,
			"target":34962
		},
		{
			"buffer":0,
			"byteLength":240,
			"byteOffset":8280,
			"target":34962
		},
		{
			"buffer":0,
			"byteLength":144,
			"byteOffset":8520,
			"target":34963
		},
		{
			"buffer":0,
			"byteLength":360,
			"byteOffset":8664,
			"target":34962
		},
		{
			"buffer":0,
			"byteLength":360,
			"byteOffset":9024,
			"target":34962
		},
		{
			"buffer":0,
			"byteLength":240,
			"byteOffset":9384,
			"target":34962
		},
		{
			"buffer":0,
			"byteLength":360,
			"byteOffset":9624,
			"target":34962
		},
		{
			"buffer":0,
			"byteLength":360,
			"byteOffset":9984,
			"target":34962
		},
		{
			"buffer":0,
			"byteLength":240,
			"byteOffset":10344,
			"target":34962
		},
		{
			"buffer":0,
			"byteLength":360,
			"byteOffset":10584,
			"target":34962
		},
		{
			"buffer":0,
			"byteLength":360,
			"byteOffset":10944,
			"target":34962
		},
		{
			"buffer":0,
			"byteLength":240,
			"byteOffset":11304,
			"target":34962
		},
		{
			"buffer":0,
			"byteLength":360,
			"byteOffset":11544,
			"target":34962
		},
		{
			"buffer":0,
			"byteLength":360,
			"byteOffset":11904,
			"target":34962
		},
		{
			"buffer":0,
			"byteLength":240,
			"byteOffset":12264,
			"target":34962
		},
		{
			"buffer":0,
			"byteLength":360,
			"byteOffset":12504,
			"target":34962
		},
		{
			"buffer":0,
			"byteLength":360,
			"byteOffset":12864,
			"target":34962
		},
		{
			"buffer":0,
			"byteLength":240,
			"byteOffset":13224,
			"target":34962
		},
		{
			"buffer":0,
			"byteLength":360,
			"byteOffset":13464,
			"target":34962
		},
		{
			"buffer":0,
			"byteLength":360,
			"byteOffset":13824,
			"target":34962
		},
		{
			"buffer":0,
			"byteLength":240,
			"byteOffset":14184,
			"target":34962
		}
	],
	"buffers":[
		{
			"byteLength":14424,
			"uri":"bl_spikes.bin"
		}
	]
}
