{
	"asset":{
		"generator":"Khronos glTF Blender I/O v5.2.40",
		"version":"2.0"
	},
	"extensionsUsed":[
		"KHR_materials_emissive_strength"
	],
	"scene":0,
	"scenes":[
		{
			"name":"Scene",
			"nodes":[
				0,
				1,
				2,
				3
			]
		}
	],
	"nodes":[
		{
			"mesh":0,
			"name":"cap"
		},
		{
			"mesh":1,
			"name":"frame"
		},
		{
			"mesh":2,
			"name":"glow"
		},
		{
			"mesh":3,
			"name":"ring"
		}
	],
	"materials":[
		{
			"doubleSided":true,
			"name":"M_lc",
			"pbrMetallicRoughness":{
				"baseColorFactor":[
					0.2590273320674896,
					0.14799802005290985,
					0.05637409910559654,
					1
				],
				"metallicFactor":0,
				"roughnessFactor":0.8500000238418579
			}
		},
		{
			"doubleSided":true,
			"name":"M_lf",
			"pbrMetallicRoughness":{
				"baseColorFactor":[
					0.2590273320674896,
					0.14799802005290985,
					0.05637409910559654,
					1
				],
				"metallicFactor":0,
				"roughnessFactor":0.8500000238418579
			}
		},
		{
			"doubleSided":true,
			"emissiveFactor":[
				1,
				0.6870307922363281,
				0.15728072822093964
			],
			"extensions":{
				"KHR_materials_emissive_strength":{
					"emissiveStrength":3
				}
			},
			"name":"M_lg",
			"pbrMetallicRoughness":{
				"baseColorFactor":[
					1,
					0.6870307922363281,
					0.15728072822093964,
					1
				],
				"metallicFactor":0,
				"roughnessFactor":0.8500000238418579
			}
		},
		{
			"doubleSided":true,
			"name":"M_lr",
			"pbrMetallicRoughness":{
				"baseColorFactor":[
					0.2590273320674896,
					0.14799802005290985,
					0.05637409910559654,
					1
				],
				"metallicFactor":0,
				"roughnessFactor":0.8500000238418579
			}
		}
	],
	"meshes":[
		{
			"name":"Cone",
			"primitives":[
				{
					"attributes":{
						"POSITION":0,
						"NORMAL":1,
						"TEXCOORD_0":2
					},
					"indices":3,
					"material":0
				}
			]
		},
		{
			"name":"Cube",
			"primitives":[
				{
					"attributes":{
						"POSITION":4,
						"NORMAL":5,
						"TEXCOORD_0":6
					},
					"indices":7,
					"material":1
				}
			]
		},
		{
			"name":"Cube.001",
			"primitives":[
				{
					"attributes":{
						"POSITION":8,
						"NORMAL":9,
						"TEXCOORD_0":10
					},
					"indices":11,
					"material":2
				}
			]
		},
		{
			"name":"Torus",
			"primitives":[
				{
					"attributes":{
						"POSITION":12,
						"NORMAL":13,
						"TEXCOORD_0":14
					},
					"indices":15,
					"material":3
				}
			]
		}
	],
	"accessors":[
		{
			"bufferView":0,
			"componentType":5126,
			"count":24,
			"max":[
				0.06632143259048462,
				0.5187614560127258,
				0.07313282042741776
			],
			"min":[
				-0.0663074254989624,
				0.4339396357536316,
				-0.059496037662029266
			],
			"type":"VEC3"
		},
		{
			"bufferView":1,
			"componentType":5126,
			"count":24,
			"type":"VEC3"
		},
		{
			"bufferView":2,
			"componentType":5126,
			"count":24,
			"type":"VEC2"
		},
		{
			"bufferView":3,
			"componentType":5123,
			"count":36,
			"type":"SCALAR"
		},
		{
			"bufferView":4,
			"componentType":5126,
			"count":96,
			"max":[
				0.06632143259048462,
				0.4869532585144043,
				0.07723571360111237
			],
			"min":[
				-0.0663074254989624,
				0.04163855314254761,
				-0.06359893083572388
			],
			"type":"VEC3"
		},
		{
			"bufferView":5,
			"componentType":5126,
			"count":96,
			"type":"VEC3"
		},
		{
			"bufferView":6,
			"componentType":5126,
			"count":96,
			"type":"VEC2"
		},
		{
			"bufferView":7,
			"componentType":5123,
			"count":132,
			"type":"SCALAR"
		},
		{
			"bufferView":8,
			"componentType":5126,
			"count":24,
			"max":[
				0.04863758012652397,
				0.4445423483848572,
				0.058457762002944946
			],
			"min":[
				-0.04862358048558235,
				0.08404947817325592,
				-0.04482097923755646
			],
			"type":"VEC3"
		},
		{
			"bufferView":9,
			"componentType":5126,
			"count":24,
			"type":"VEC3"
		},
		{
			"bufferView":10,
			"componentType":5126,
			"count":24,
			"type":"VEC2"
		},
		{
			"bufferView":11,
			"componentType":5123,
			"count":36,
			"type":"SCALAR"
		},
		{
			"bufferView":12,
			"componentType":5126,
			"count":128,
			"max":[
				0.019901327788829803,
				0.5178810358047485,
				0.026712719351053238
			],
			"min":[
				-0.019887328147888184,
				0.5090391635894775,
				-0.01307593658566475
			],
			"type":"VEC3"
		},
		{
			"bufferView":13,
			"componentType":5126,
			"count":128,
			"type":"VEC3"
		},
		{
			"bufferView":14,
			"componentType":5126,
			"count":128,
			"type":"VEC2"
		},
		{
			"bufferView":15,
			"componentType":5123,
			"count":192,
			"type":"SCALAR"
		}
	],
	"bufferViews":[
		{
			"buffer":0,
			"byteLength":288,
			"byteOffset":0,
			"target":34962
		},
		{
			"buffer":0,
			"byteLength":288,
			"byteOffset":288,
			"target":34962
		},
		{
			"buffer":0,
			"byteLength":192,
			"byteOffset":576,
			"target":34962
		},
		{
			"buffer":0,
			"byteLength":72,
			"byteOffset":768,
			"target":34963
		},
		{
			"buffer":0,
			"byteLength":1152,
			"byteOffset":840,
			"target":34962
		},
		{
			"buffer":0,
			"byteLength":1152,
			"byteOffset":1992,
			"target":34962
		},
		{
			"buffer":0,
			"byteLength":768,
			"byteOffset":3144,
			"target":34962
		},
		{
			"buffer":0,
			"byteLength":264,
			"byteOffset":3912,
			"target":34963
		},
		{
			"buffer":0,
			"byteLength":288,
			"byteOffset":4176,
			"target":34962
		},
		{
			"buffer":0,
			"byteLength":288,
			"byteOffset":4464,
			"target":34962
		},
		{
			"buffer":0,
			"byteLength":192,
			"byteOffset":4752,
			"target":34962
		},
		{
			"buffer":0,
			"byteLength":72,
			"byteOffset":4944,
			"target":34963
		},
		{
			"buffer":0,
			"byteLength":1536,
			"byteOffset":5016,
			"target":34962
		},
		{
			"buffer":0,
			"byteLength":1536,
			"byteOffset":6552,
			"target":34962
		},
		{
			"buffer":0,
			"byteLength":1024,
			"byteOffset":8088,
			"target":34962
		},
		{
			"buffer":0,
			"byteLength":384,
			"byteOffset":9112,
			"target":34963
		}
	],
	"buffers":[
		{
			"byteLength":9496,
			"uri":"wooden_lantern_01.bin"
		}
	]
}
