{
	"asset":{
		"generator":"Khronos glTF Blender I/O v5.2.40",
		"version":"2.0"
	},
	"scene":0,
	"scenes":[
		{
			"name":"Scene",
			"nodes":[
				0,
				1
			]
		}
	],
	"nodes":[
		{
			"mesh":0,
			"name":"cap"
		},
		{
			"mesh":1,
			"name":"rock"
		}
	],
	"materials":[
		{
			"doubleSided":true,
			"name":"M_fc",
			"pbrMetallicRoughness":{
				"baseColorFactor":[
					0.8912620544433594,
					0.9406006932258606,
					0.97430020570755,
					1
				],
				"metallicFactor":0,
				"roughnessFactor":0.8500000238418579
			}
		},
		{
			"doubleSided":true,
			"name":"M_fr",
			"pbrMetallicRoughness":{
				"baseColorFactor":[
					0.14799802005290985,
					0.18354900181293488,
					0.234895259141922,
					1
				],
				"metallicFactor":0,
				"roughnessFactor":0.8500000238418579
			}
		}
	],
	"meshes":[
		{
			"name":"Icosphere.001",
			"primitives":[
				{
					"attributes":{
						"POSITION":0,
						"NORMAL":1,
						"TEXCOORD_0":2
					},
					"indices":3,
					"material":0
				}
			]
		},
		{
			"name":"Icosphere",
			"primitives":[
				{
					"attributes":{
						"POSITION":4,
						"NORMAL":5,
						"TEXCOORD_0":6
					},
					"indices":7,
					"material":1
				}
			]
		}
	],
	"accessors":[
		{
			"bufferView":0,
			"componentType":5126,
			"count":22,
			"max":[
				0.5172966718673706,
				1.0507469177246094,
				0.45017653703689575
			],
			"min":[
				-0.49714770913124084,
				0.8047407865524292,
				-0.40819990634918213
			],
			"type":"VEC3"
		},
		{
			"bufferView":1,
			"componentType":5126,
			"count":22,
			"type":"VEC3"
		},
		{
			"bufferView":2,
			"componentType":5126,
			"count":22,
			"type":"VEC2"
		},
		{
			"bufferView":3,
			"componentType":5123,
			"count":60,
			"type":"SCALAR"
		},
		{
			"bufferView":4,
			"componentType":5126,
			"count":240,
			"max":[
				0.7152925133705139,
				0.9249822497367859,
				0.5923691391944885
			],
			"min":[
				-0.7313476800918579,
				-0.1622062623500824,
				-0.6039362549781799
			],
			"type":"VEC3"
		},
		{
			"bufferView":5,
			"componentType":5126,
			"count":240,
			"type":"VEC3"
		},
		{
			"bufferView":6,
			"componentType":5126,
			"count":240,
			"type":"VEC2"
		},
		{
			"bufferView":7,
			"componentType":5123,
			"count":240,
			"type":"SCALAR"
		}
	],
	"bufferViews":[
		{
			"buffer":0,
			"byteLength":264,
			"byteOffset":0,
			"target":34962
		},
		{
			"buffer":0,
			"byteLength":264,
			"byteOffset":264,
			"target":34962
		},
		{
			"buffer":0,
			"byteLength":176,
			"byteOffset":528,
			"target":34962
		},
		{
			"buffer":0,
			"byteLength":120,
			"byteOffset":704,
			"target":34963
		},
		{
			"buffer":0,
			"byteLength":2880,
			"byteOffset":824,
			"target":34962
		},
		{
			"buffer":0,
			"byteLength":2880,
			"byteOffset":3704,
			"target":34962
		},
		{
			"buffer":0,
			"byteLength":1920,
			"byteOffset":6584,
			"target":34962
		},
		{
			"buffer":0,
			"byteLength":480,
			"byteOffset":8504,
			"target":34963
		}
	],
	"buffers":[
		{
			"byteLength":8984,
			"uri":"hd_frozenrock.bin"
		}
	]
}
