{
	"asset":{
		"generator":"Khronos glTF Blender I/O v5.2.40",
		"version":"2.0"
	},
	"scene":0,
	"scenes":[
		{
			"name":"Scene",
			"nodes":[
				0,
				1,
				2,
				3,
				4,
				5,
				6,
				7,
				8,
				9,
				10,
				11,
				12,
				13,
				14
			]
		}
	],
	"nodes":[
		{
			"mesh":0,
			"name":"body"
		},
		{
			"mesh":1,
			"name":"cab"
		},
		{
			"mesh":2,
			"name":"head0.42900000000000005"
		},
		{
			"mesh":3,
			"name":"head-0.42900000000000005"
		},
		{
			"mesh":4,
			"name":"rim0.6396_0.585"
		},
		{
			"mesh":5,
			"name":"rim0.6396_-0.585"
		},
		{
			"mesh":6,
			"name":"rim-0.6396_0.585"
		},
		{
			"mesh":7,
			"name":"rim-0.6396_-0.585"
		},
		{
			"mesh":8,
			"name":"sign"
		},
		{
			"mesh":9,
			"name":"tail0.42900000000000005"
		},
		{
			"mesh":10,
			"name":"tail-0.42900000000000005"
		},
		{
			"mesh":11,
			"name":"wh0.6396_0.585"
		},
		{
			"mesh":12,
			"name":"wh0.6396_-0.585"
		},
		{
			"mesh":13,
			"name":"wh-0.6396_0.585"
		},
		{
			"mesh":14,
			"name":"wh-0.6396_-0.585"
		}
	],
	"materials":[
		{
			"doubleSided":true,
			"name":"M_cb",
			"pbrMetallicRoughness":{
				"baseColorFactor":[
					0.8912620544433594,
					0.48776519298553467,
					0.041451890021562576,
					1
				],
				"metallicFactor":0,
				"roughnessFactor":0.8500000238418579
			}
		},
		{
			"doubleSided":true,
			"name":"M_cc",
			"pbrMetallicRoughness":{
				"baseColorFactor":[
					0.01606770046055317,
					0.04943345859646797,
					0.0915183499455452,
					1
				],
				"metallicFactor":0,
				"roughnessFactor":0.30000001192092896
			}
		},
		{
			"doubleSided":true,
			"emissiveFactor":[
				0.8999999761581421,
				0.8021358277496802,
				0.5273756543165931
			],
			"name":"M_chl",
			"pbrMetallicRoughness":{
				"baseColorFactor":[
					1,
					0.8912620544433594,
					0.5859729647636414,
					1
				],
				"metallicFactor":0,
				"roughnessFactor":0.8500000238418579
			}
		},
		{
			"doubleSided":true,
			"name":"M_wr",
			"pbrMetallicRoughness":{
				"baseColorFactor":[
					0.701169490814209,
					0.7372047901153564,
					0.7817506790161133,
					1
				],
				"metallicFactor":0,
				"roughnessFactor":0.8500000238418579
			}
		},
		{
			"doubleSided":true,
			"emissiveFactor":[
				0.800000011920929,
				0.6559709646697485,
				0.31943464755169515
			],
			"name":"M_cs",
			"pbrMetallicRoughness":{
				"baseColorFactor":[
					1,
					0.8199636936187744,
					0.39929330348968506,
					1
				],
				"metallicFactor":0,
				"roughnessFactor":0.8500000238418579
			}
		},
		{
			"doubleSided":true,
			"emissiveFactor":[
				0.5685690365762532,
				0.033443026420167055,
				0.01695605915966103
			],
			"name":"M_ctl",
			"pbrMetallicRoughness":{
				"baseColorFactor":[
					0.8122414946556091,
					0.0477757528424263,
					0.02422294206917286,
					1
				],
				"metallicFactor":0,
				"roughnessFactor":0.8500000238418579
			}
		},
		{
			"doubleSided":true,
			"name":"M_wt2",
			"pbrMetallicRoughness":{
				"baseColorFactor":[
					0.012663720175623894,
					0.01606770046055317,
					0.023103555664420128,
					1
				],
				"metallicFactor":0,
				"roughnessFactor":0.8500000238418579
			}
		}
	],
	"meshes":[
		{
			"name":"Cube",
			"primitives":[
				{
					"attributes":{
						"POSITION":0,
						"NORMAL":1,
						"TEXCOORD_0":2
					},
					"indices":3,
					"material":0
				}
			]
		},
		{
			"name":"Cube.001",
			"primitives":[
				{
					"attributes":{
						"POSITION":4,
						"NORMAL":5,
						"TEXCOORD_0":6
					},
					"indices":3,
					"material":1
				}
			]
		},
		{
			"name":"Cube.004",
			"primitives":[
				{
					"attributes":{
						"POSITION":7,
						"NORMAL":8,
						"TEXCOORD_0":9
					},
					"indices":10,
					"material":2
				}
			]
		},
		{
			"name":"Cube.002",
			"primitives":[
				{
					"attributes":{
						"POSITION":11,
						"NORMAL":12,
						"TEXCOORD_0":13
					},
					"indices":10,
					"material":2
				}
			]
		},
		{
			"name":"Cylinder.007",
			"primitives":[
				{
					"attributes":{
						"POSITION":14,
						"NORMAL":15,
						"TEXCOORD_0":16
					},
					"indices":17,
					"material":3
				}
			]
		},
		{
			"name":"Cylinder.005",
			"primitives":[
				{
					"attributes":{
						"POSITION":18,
						"NORMAL":19,
						"TEXCOORD_0":20
					},
					"indices":17,
					"material":3
				}
			]
		},
		{
			"name":"Cylinder.003",
			"primitives":[
				{
					"attributes":{
						"POSITION":21,
						"NORMAL":22,
						"TEXCOORD_0":23
					},
					"indices":17,
					"material":3
				}
			]
		},
		{
			"name":"Cylinder.001",
			"primitives":[
				{
					"attributes":{
						"POSITION":24,
						"NORMAL":25,
						"TEXCOORD_0":26
					},
					"indices":17,
					"material":3
				}
			]
		},
		{
			"name":"Cube.006",
			"primitives":[
				{
					"attributes":{
						"POSITION":27,
						"NORMAL":28,
						"TEXCOORD_0":29
					},
					"indices":10,
					"material":4
				}
			]
		},
		{
			"name":"Cube.005",
			"primitives":[
				{
					"attributes":{
						"POSITION":30,
						"NORMAL":31,
						"TEXCOORD_0":32
					},
					"indices":10,
					"material":5
				}
			]
		},
		{
			"name":"Cube.003",
			"primitives":[
				{
					"attributes":{
						"POSITION":33,
						"NORMAL":34,
						"TEXCOORD_0":35
					},
					"indices":10,
					"material":5
				}
			]
		},
		{
			"name":"Cylinder.006",
			"primitives":[
				{
					"attributes":{
						"POSITION":36,
						"NORMAL":37,
						"TEXCOORD_0":38
					},
					"indices":39,
					"material":6
				}
			]
		},
		{
			"name":"Cylinder.004",
			"primitives":[
				{
					"attributes":{
						"POSITION":40,
						"NORMAL":41,
						"TEXCOORD_0":42
					},
					"indices":39,
					"material":6
				}
			]
		},
		{
			"name":"Cylinder.002",
			"primitives":[
				{
					"attributes":{
						"POSITION":43,
						"NORMAL":44,
						"TEXCOORD_0":45
					},
					"indices":39,
					"material":6
				}
			]
		},
		{
			"name":"Cylinder",
			"primitives":[
				{
					"attributes":{
						"POSITION":46,
						"NORMAL":47,
						"TEXCOORD_0":48
					},
					"indices":39,
					"material":6
				}
			]
		}
	],
	"accessors":[
		{
			"bufferView":0,
			"componentType":5126,
			"count":216,
			"max":[
				0.7799999713897705,
				0.7799999713897705,
				0.9750000238418579
			],
			"min":[
				-0.7799999713897705,
				0.0599999725818634,
				-0.9750000238418579
			],
			"type":"VEC3"
		},
		{
			"bufferView":1,
			"componentType":5126,
			"count":216,
			"type":"VEC3"
		},
		{
			"bufferView":2,
			"componentType":5126,
			"count":216,
			"type":"VEC2"
		},
		{
			"bufferView":3,
			"componentType":5123,
			"count":324,
			"type":"SCALAR"
		},
		{
			"bufferView":4,
			"componentType":5126,
			"count":216,
			"max":[
				0.6083999872207642,
				1.0140000581741333,
				0.3999999761581421
			],
			"min":[
				-0.6083999872207642,
				0.4740000069141388,
				-0.5
			],
			"type":"VEC3"
		},
		{
			"bufferView":5,
			"componentType":5126,
			"count":216,
			"type":"VEC3"
		},
		{
			"bufferView":6,
			"componentType":5126,
			"count":216,
			"type":"VEC2"
		},
		{
			"bufferView":7,
			"componentType":5126,
			"count":24,
			"max":[
				0.5289999842643738,
				0.47999998927116394,
				1.0149999856948853
			],
			"min":[
				0.32899999618530273,
				0.35999998450279236,
				0.9550000429153442
			],
			"type":"VEC3"
		},
		{
			"bufferView":8,
			"componentType":5126,
			"count":24,
			"type":"VEC3"
		},
		{
			"bufferView":9,
			"componentType":5126,
			"count":24,
			"type":"VEC2"
		},
		{
			"bufferView":10,
			"componentType":5123,
			"count":36,
			"type":"SCALAR"
		},
		{
			"bufferView":11,
			"componentType":5126,
			"count":24,
			"max":[
				-0.32899999618530273,
				0.47999998927116394,
				1.0149999856948853
			],
			"min":[
				-0.5289999842643738,
				0.35999998450279236,
				0.9550000429153442
			],
			"type":"VEC3"
		},
		{
			"bufferView":12,
			"componentType":5126,
			"count":24,
			"type":"VEC3"
		},
		{
			"bufferView":13,
			"componentType":5126,
			"count":24,
			"type":"VEC2"
		},
		{
			"bufferView":14,
			"componentType":5126,
			"count":48,
			"max":[
				0.7009959816932678,
				0.32999998331069946,
				-0.4949999749660492
			],
			"min":[
				0.5909959673881531,
				0.14999999105930328,
				-0.6749999523162842
			],
			"type":"VEC3"
		},
		{
			"bufferView":15,
			"componentType":5126,
			"count":48,
			"type":"VEC3"
		},
		{
			"bufferView":16,
			"componentType":5126,
			"count":48,
			"type":"VEC2"
		},
		{
			"bufferView":17,
			"componentType":5123,
			"count":84,
			"type":"SCALAR"
		},
		{
			"bufferView":18,
			"componentType":5126,
			"count":48,
			"max":[
				0.7009959816932678,
				0.32999998331069946,
				0.6749999523162842
			],
			"min":[
				0.5909959673881531,
				0.14999999105930328,
				0.4949999749660492
			],
			"type":"VEC3"
		},
		{
			"bufferView":19,
			"componentType":5126,
			"count":48,
			"type":"VEC3"
		},
		{
			"bufferView":20,
			"componentType":5126,
			"count":48,
			"type":"VEC2"
		},
		{
			"bufferView":21,
			"componentType":5126,
			"count":48,
			"max":[
				-0.5909959673881531,
				0.32999998331069946,
				-0.4949999749660492
			],
			"min":[
				-0.7009959816932678,
				0.14999999105930328,
				-0.6749999523162842
			],
			"type":"VEC3"
		},
		{
			"bufferView":22,
			"componentType":5126,
			"count":48,
			"type":"VEC3"
		},
		{
			"bufferView":23,
			"componentType":5126,
			"count":48,
			"type":"VEC2"
		},
		{
			"bufferView":24,
			"componentType":5126,
			"count":48,
			"max":[
				-0.5909959673881531,
				0.32999998331069946,
				0.6749999523162842
			],
			"min":[
				-0.7009959816932678,
				0.14999999105930328,
				0.4949999749660492
			],
			"type":"VEC3"
		},
		{
			"bufferView":25,
			"componentType":5126,
			"count":48,
			"type":"VEC3"
		},
		{
			"bufferView":26,
			"componentType":5126,
			"count":48,
			"type":"VEC2"
		},
		{
			"bufferView":27,
			"componentType":5126,
			"count":24,
			"max":[
				0.2800000011920929,
				1.1047999858856201,
				0.17000000178813934
			],
			"min":[
				-0.2800000011920929,
				0.9447999596595764,
				-0.06999999284744263
			],
			"type":"VEC3"
		},
		{
			"bufferView":28,
			"componentType":5126,
			"count":24,
			"type":"VEC3"
		},
		{
			"bufferView":29,
			"componentType":5126,
			"count":24,
			"type":"VEC2"
		},
		{
			"bufferView":30,
			"componentType":5126,
			"count":24,
			"max":[
				0.5289999842643738,
				0.47999998927116394,
				-0.9550000429153442
			],
			"min":[
				0.32899999618530273,
				0.35999998450279236,
				-1.0149999856948853
			],
			"type":"VEC3"
		},
		{
			"bufferView":31,
			"componentType":5126,
			"count":24,
			"type":"VEC3"
		},
		{
			"bufferView":32,
			"componentType":5126,
			"count":24,
			"type":"VEC2"
		},
		{
			"bufferView":33,
			"componentType":5126,
			"count":24,
			"max":[
				-0.32899999618530273,
				0.47999998927116394,
				-0.9550000429153442
			],
			"min":[
				-0.5289999842643738,
				0.35999998450279236,
				-1.0149999856948853
			],
			"type":"VEC3"
		},
		{
			"bufferView":34,
			"componentType":5126,
			"count":24,
			"type":"VEC3"
		},
		{
			"bufferView":35,
			"componentType":5126,
			"count":24,
			"type":"VEC2"
		},
		{
			"bufferView":36,
			"componentType":5126,
			"count":42,
			"max":[
				0.6895999908447266,
				0.43972188234329224,
				-0.375
			],
			"min":[
				0.5895999670028687,
				0.0402781218290329,
				-0.7949999570846558
			],
			"type":"VEC3"
		},
		{
			"bufferView":37,
			"componentType":5126,
			"count":42,
			"type":"VEC3"
		},
		{
			"bufferView":38,
			"componentType":5126,
			"count":42,
			"type":"VEC2"
		},
		{
			"bufferView":39,
			"componentType":5123,
			"count":108,
			"type":"SCALAR"
		},
		{
			"bufferView":40,
			"componentType":5126,
			"count":42,
			"max":[
				0.6895999908447266,
				0.43972188234329224,
				0.7949999570846558
			],
			"min":[
				0.5895999670028687,
				0.0402781218290329,
				0.375
			],
			"type":"VEC3"
		},
		{
			"bufferView":41,
			"componentType":5126,
			"count":42,
			"type":"VEC3"
		},
		{
			"bufferView":42,
			"componentType":5126,
			"count":42,
			"type":"VEC2"
		},
		{
			"bufferView":43,
			"componentType":5126,
			"count":42,
			"max":[
				-0.5895999670028687,
				0.43972188234329224,
				-0.375
			],
			"min":[
				-0.6895999908447266,
				0.0402781218290329,
				-0.7949999570846558
			],
			"type":"VEC3"
		},
		{
			"bufferView":44,
			"componentType":5126,
			"count":42,
			"type":"VEC3"
		},
		{
			"bufferView":45,
			"componentType":5126,
			"count":42,
			"type":"VEC2"
		},
		{
			"bufferView":46,
			"componentType":5126,
			"count":42,
			"max":[
				-0.5895999670028687,
				0.43972188234329224,
				0.7949999570846558
			],
			"min":[
				-0.6895999908447266,
				0.0402781218290329,
				0.375
			],
			"type":"VEC3"
		},
		{
			"bufferView":47,
			"componentType":5126,
			"count":42,
			"type":"VEC3"
		},
		{
			"bufferView":48,
			"componentType":5126,
			"count":42,
			"type":"VEC2"
		}
	],
	"bufferViews":[
		{
			"buffer":0,
			"byteLength":2592,
			"byteOffset":0,
			"target":34962
		},
		{
			"buffer":0,
			"byteLength":2592,
			"byteOffset":2592,
			"target":34962
		},
		{
			"buffer":0,
			"byteLength":1728,
			"byteOffset":5184,
			"target":34962
		},
		{
			"buffer":0,
			"byteLength":648,
			"byteOffset":6912,
			"target":34963
		},
		{
			"buffer":0,
			"byteLength":2592,
			"byteOffset":7560,
			"target":34962
		},
		{
			"buffer":0,
			"byteLength":2592,
			"byteOffset":10152,
			"target":34962
		},
		{
			"buffer":0,
			"byteLength":1728,
			"byteOffset":12744,
			"target":34962
		},
		{
			"buffer":0,
			"byteLength":288,
			"byteOffset":14472,
			"target":34962
		},
		{
			"buffer":0,
			"byteLength":288,
			"byteOffset":14760,
			"target":34962
		},
		{
			"buffer":0,
			"byteLength":192,
			"byteOffset":15048,
			"target":34962
		},
		{
			"buffer":0,
			"byteLength":72,
			"byteOffset":15240,
			"target":34963
		},
		{
			"buffer":0,
			"byteLength":288,
			"byteOffset":15312,
			"target":34962
		},
		{
			"buffer":0,
			"byteLength":288,
			"byteOffset":15600,
			"target":34962
		},
		{
			"buffer":0,
			"byteLength":192,
			"byteOffset":15888,
			"target":34962
		},
		{
			"buffer":0,
			"byteLength":576,
			"byteOffset":16080,
			"target":34962
		},
		{
			"buffer":0,
			"byteLength":576,
			"byteOffset":16656,
			"target":34962
		},
		{
			"buffer":0,
			"byteLength":384,
			"byteOffset":17232,
			"target":34962
		},
		{
			"buffer":0,
			"byteLength":168,
			"byteOffset":17616,
			"target":34963
		},
		{
			"buffer":0,
			"byteLength":576,
			"byteOffset":17784,
			"target":34962
		},
		{
			"buffer":0,
			"byteLength":576,
			"byteOffset":18360,
			"target":34962
		},
		{
			"buffer":0,
			"byteLength":384,
			"byteOffset":18936,
			"target":34962
		},
		{
			"buffer":0,
			"byteLength":576,
			"byteOffset":19320,
			"target":34962
		},
		{
			"buffer":0,
			"byteLength":576,
			"byteOffset":19896,
			"target":34962
		},
		{
			"buffer":0,
			"byteLength":384,
			"byteOffset":20472,
			"target":34962
		},
		{
			"buffer":0,
			"byteLength":576,
			"byteOffset":20856,
			"target":34962
		},
		{
			"buffer":0,
			"byteLength":576,
			"byteOffset":21432,
			"target":34962
		},
		{
			"buffer":0,
			"byteLength":384,
			"byteOffset":22008,
			"target":34962
		},
		{
			"buffer":0,
			"byteLength":288,
			"byteOffset":22392,
			"target":34962
		},
		{
			"buffer":0,
			"byteLength":288,
			"byteOffset":22680,
			"target":34962
		},
		{
			"buffer":0,
			"byteLength":192,
			"byteOffset":22968,
			"target":34962
		},
		{
			"buffer":0,
			"byteLength":288,
			"byteOffset":23160,
			"target":34962
		},
		{
			"buffer":0,
			"byteLength":288,
			"byteOffset":23448,
			"target":34962
		},
		{
			"buffer":0,
			"byteLength":192,
			"byteOffset":23736,
			"target":34962
		},
		{
			"buffer":0,
			"byteLength":288,
			"byteOffset":23928,
			"target":34962
		},
		{
			"buffer":0,
			"byteLength":288,
			"byteOffset":24216,
			"target":34962
		},
		{
			"buffer":0,
			"byteLength":192,
			"byteOffset":24504,
			"target":34962
		},
		{
			"buffer":0,
			"byteLength":504,
			"byteOffset":24696,
			"target":34962
		},
		{
			"buffer":0,
			"byteLength":504,
			"byteOffset":25200,
			"target":34962
		},
		{
			"buffer":0,
			"byteLength":336,
			"byteOffset":25704,
			"target":34962
		},
		{
			"buffer":0,
			"byteLength":216,
			"byteOffset":26040,
			"target":34963
		},
		{
			"buffer":0,
			"byteLength":504,
			"byteOffset":26256,
			"target":34962
		},
		{
			"buffer":0,
			"byteLength":504,
			"byteOffset":26760,
			"target":34962
		},
		{
			"buffer":0,
			"byteLength":336,
			"byteOffset":27264,
			"target":34962
		},
		{
			"buffer":0,
			"byteLength":504,
			"byteOffset":27600,
			"target":34962
		},
		{
			"buffer":0,
			"byteLength":504,
			"byteOffset":28104,
			"target":34962
		},
		{
			"buffer":0,
			"byteLength":336,
			"byteOffset":28608,
			"target":34962
		},
		{
			"buffer":0,
			"byteLength":504,
			"byteOffset":28944,
			"target":34962
		},
		{
			"buffer":0,
			"byteLength":504,
			"byteOffset":29448,
			"target":34962
		},
		{
			"buffer":0,
			"byteLength":336,
			"byteOffset":29952,
			"target":34962
		}
	],
	"buffers":[
		{
			"byteLength":30288,
			"uri":"hd_taxi.bin"
		}
	]
}
