{
	"asset":{
		"generator":"Khronos glTF Blender I/O v5.2.40",
		"version":"2.0"
	},
	"extensionsUsed":[
		"KHR_materials_emissive_strength"
	],
	"scene":0,
	"scenes":[
		{
			"name":"Scene",
			"nodes":[
				0,
				1,
				2,
				3,
				4,
				5,
				6,
				7,
				8,
				9,
				10,
				11,
				12,
				13,
				14,
				15,
				16,
				17,
				18,
				19,
				20,
				21,
				22,
				23,
				24,
				25
			]
		}
	],
	"nodes":[
		{
			"mesh":0,
			"name":"chip0"
		},
		{
			"mesh":1,
			"name":"chip1"
		},
		{
			"mesh":2,
			"name":"chip2"
		},
		{
			"mesh":3,
			"name":"chip3"
		},
		{
			"mesh":4,
			"name":"chip4"
		},
		{
			"mesh":5,
			"name":"chip5"
		},
		{
			"mesh":6,
			"name":"chip6"
		},
		{
			"mesh":7,
			"name":"chip7"
		},
		{
			"mesh":8,
			"name":"chip8"
		},
		{
			"mesh":9,
			"name":"chip9"
		},
		{
			"mesh":10,
			"name":"chip10"
		},
		{
			"mesh":11,
			"name":"chip11"
		},
		{
			"mesh":12,
			"name":"chip12"
		},
		{
			"mesh":13,
			"name":"chip13"
		},
		{
			"mesh":14,
			"name":"chip14"
		},
		{
			"mesh":15,
			"name":"chip15"
		},
		{
			"mesh":16,
			"name":"glow0"
		},
		{
			"mesh":17,
			"name":"glow1"
		},
		{
			"mesh":18,
			"name":"glow2"
		},
		{
			"mesh":19,
			"name":"glow3"
		},
		{
			"mesh":20,
			"name":"ledge"
		},
		{
			"mesh":21,
			"name":"seam0"
		},
		{
			"mesh":22,
			"name":"seam1"
		},
		{
			"mesh":23,
			"name":"seam2"
		},
		{
			"mesh":24,
			"name":"seam3"
		},
		{
			"mesh":25,
			"name":"seam4"
		}
	],
	"materials":[
		{
			"doubleSided":true,
			"name":"M_ch0",
			"pbrMetallicRoughness":{
				"baseColorFactor":[
					0.019917838275432587,
					0.011126082390546799,
					0.025371277704834938,
					1
				],
				"metallicFactor":0,
				"roughnessFactor":0.699999988079071
			}
		},
		{
			"doubleSided":true,
			"name":"M_ch1",
			"pbrMetallicRoughness":{
				"baseColorFactor":[
					0.08241420239210129,
					0.058187179267406464,
					0.06190747395157814,
					1
				],
				"metallicFactor":0,
				"roughnessFactor":0.699999988079071
			}
		},
		{
			"doubleSided":true,
			"name":"M_ch2",
			"pbrMetallicRoughness":{
				"baseColorFactor":[
					0.08241420239210129,
					0.058187179267406464,
					0.06190747395157814,
					1
				],
				"metallicFactor":0,
				"roughnessFactor":0.699999988079071
			}
		},
		{
			"doubleSided":true,
			"name":"M_ch3",
			"pbrMetallicRoughness":{
				"baseColorFactor":[
					0.019917838275432587,
					0.011126082390546799,
					0.025371277704834938,
					1
				],
				"metallicFactor":0,
				"roughnessFactor":0.699999988079071
			}
		},
		{
			"doubleSided":true,
			"name":"M_ch4",
			"pbrMetallicRoughness":{
				"baseColorFactor":[
					0.08241420239210129,
					0.058187179267406464,
					0.06190747395157814,
					1
				],
				"metallicFactor":0,
				"roughnessFactor":0.699999988079071
			}
		},
		{
			"doubleSided":true,
			"name":"M_ch5",
			"pbrMetallicRoughness":{
				"baseColorFactor":[
					0.08241420239210129,
					0.058187179267406464,
					0.06190747395157814,
					1
				],
				"metallicFactor":0,
				"roughnessFactor":0.699999988079071
			}
		},
		{
			"doubleSided":true,
			"name":"M_ch6",
			"pbrMetallicRoughness":{
				"baseColorFactor":[
					0.019917838275432587,
					0.011126082390546799,
					0.025371277704834938,
					1
				],
				"metallicFactor":0,
				"roughnessFactor":0.699999988079071
			}
		},
		{
			"doubleSided":true,
			"name":"M_ch7",
			"pbrMetallicRoughness":{
				"baseColorFactor":[
					0.08241420239210129,
					0.058187179267406464,
					0.06190747395157814,
					1
				],
				"metallicFactor":0,
				"roughnessFactor":0.699999988079071
			}
		},
		{
			"doubleSided":true,
			"name":"M_ch8",
			"pbrMetallicRoughness":{
				"baseColorFactor":[
					0.08241420239210129,
					0.058187179267406464,
					0.06190747395157814,
					1
				],
				"metallicFactor":0,
				"roughnessFactor":0.699999988079071
			}
		},
		{
			"doubleSided":true,
			"name":"M_ch9",
			"pbrMetallicRoughness":{
				"baseColorFactor":[
					0.019917838275432587,
					0.011126082390546799,
					0.025371277704834938,
					1
				],
				"metallicFactor":0,
				"roughnessFactor":0.699999988079071
			}
		},
		{
			"doubleSided":true,
			"name":"M_ch10",
			"pbrMetallicRoughness":{
				"baseColorFactor":[
					0.08241420239210129,
					0.058187179267406464,
					0.06190747395157814,
					1
				],
				"metallicFactor":0,
				"roughnessFactor":0.699999988079071
			}
		},
		{
			"doubleSided":true,
			"name":"M_ch11",
			"pbrMetallicRoughness":{
				"baseColorFactor":[
					0.08241420239210129,
					0.058187179267406464,
					0.06190747395157814,
					1
				],
				"metallicFactor":0,
				"roughnessFactor":0.699999988079071
			}
		},
		{
			"doubleSided":true,
			"name":"M_ch12",
			"pbrMetallicRoughness":{
				"baseColorFactor":[
					0.019917838275432587,
					0.011126082390546799,
					0.025371277704834938,
					1
				],
				"metallicFactor":0,
				"roughnessFactor":0.699999988079071
			}
		},
		{
			"doubleSided":true,
			"name":"M_ch13",
			"pbrMetallicRoughness":{
				"baseColorFactor":[
					0.08241420239210129,
					0.058187179267406464,
					0.06190747395157814,
					1
				],
				"metallicFactor":0,
				"roughnessFactor":0.699999988079071
			}
		},
		{
			"doubleSided":true,
			"name":"M_ch14",
			"pbrMetallicRoughness":{
				"baseColorFactor":[
					0.08241420239210129,
					0.058187179267406464,
					0.06190747395157814,
					1
				],
				"metallicFactor":0,
				"roughnessFactor":0.699999988079071
			}
		},
		{
			"doubleSided":true,
			"name":"M_ch15",
			"pbrMetallicRoughness":{
				"baseColorFactor":[
					0.019917838275432587,
					0.011126082390546799,
					0.025371277704834938,
					1
				],
				"metallicFactor":0,
				"roughnessFactor":0.699999988079071
			}
		},
		{
			"doubleSided":true,
			"emissiveFactor":[
				1,
				0.5479934811592102,
				0.038472745567560196
			],
			"extensions":{
				"KHR_materials_emissive_strength":{
					"emissiveStrength":2.799999952316284
				}
			},
			"name":"M_gb0",
			"pbrMetallicRoughness":{
				"baseColorFactor":[
					1,
					0.5479934811592102,
					0.038472745567560196,
					1
				],
				"metallicFactor":0,
				"roughnessFactor":0.8500000238418579
			}
		},
		{
			"doubleSided":true,
			"emissiveFactor":[
				1,
				0.5479934811592102,
				0.038472745567560196
			],
			"extensions":{
				"KHR_materials_emissive_strength":{
					"emissiveStrength":2.799999952316284
				}
			},
			"name":"M_gb1",
			"pbrMetallicRoughness":{
				"baseColorFactor":[
					1,
					0.5479934811592102,
					0.038472745567560196,
					1
				],
				"metallicFactor":0,
				"roughnessFactor":0.8500000238418579
			}
		},
		{
			"doubleSided":true,
			"emissiveFactor":[
				1,
				0.5479934811592102,
				0.038472745567560196
			],
			"extensions":{
				"KHR_materials_emissive_strength":{
					"emissiveStrength":2.799999952316284
				}
			},
			"name":"M_gb2",
			"pbrMetallicRoughness":{
				"baseColorFactor":[
					1,
					0.5479934811592102,
					0.038472745567560196,
					1
				],
				"metallicFactor":0,
				"roughnessFactor":0.8500000238418579
			}
		},
		{
			"doubleSided":true,
			"emissiveFactor":[
				1,
				0.5479934811592102,
				0.038472745567560196
			],
			"extensions":{
				"KHR_materials_emissive_strength":{
					"emissiveStrength":2.799999952316284
				}
			},
			"name":"M_gb3",
			"pbrMetallicRoughness":{
				"baseColorFactor":[
					1,
					0.5479934811592102,
					0.038472745567560196,
					1
				],
				"metallicFactor":0,
				"roughnessFactor":0.8500000238418579
			}
		},
		{
			"doubleSided":true,
			"name":"M_ledge",
			"pbrMetallicRoughness":{
				"baseColorFactor":[
					0.03994717076420784,
					0.02899118699133396,
					0.030256519094109535,
					1
				],
				"metallicFactor":0,
				"roughnessFactor":0.8999999761581421
			}
		},
		{
			"doubleSided":true,
			"emissiveFactor":[
				1,
				0.19751642644405365,
				0.015175238251686096
			],
			"extensions":{
				"KHR_materials_emissive_strength":{
					"emissiveStrength":2.4000000953674316
				}
			},
			"name":"M_vs0",
			"pbrMetallicRoughness":{
				"baseColorFactor":[
					1,
					0.19751642644405365,
					0.015175238251686096,
					1
				],
				"metallicFactor":0,
				"roughnessFactor":0.8500000238418579
			}
		},
		{
			"doubleSided":true,
			"emissiveFactor":[
				1,
				0.19751642644405365,
				0.015175238251686096
			],
			"extensions":{
				"KHR_materials_emissive_strength":{
					"emissiveStrength":2.4000000953674316
				}
			},
			"name":"M_vs1",
			"pbrMetallicRoughness":{
				"baseColorFactor":[
					1,
					0.19751642644405365,
					0.015175238251686096,
					1
				],
				"metallicFactor":0,
				"roughnessFactor":0.8500000238418579
			}
		},
		{
			"doubleSided":true,
			"emissiveFactor":[
				1,
				0.19751642644405365,
				0.015175238251686096
			],
			"extensions":{
				"KHR_materials_emissive_strength":{
					"emissiveStrength":2.4000000953674316
				}
			},
			"name":"M_vs2",
			"pbrMetallicRoughness":{
				"baseColorFactor":[
					1,
					0.19751642644405365,
					0.015175238251686096,
					1
				],
				"metallicFactor":0,
				"roughnessFactor":0.8500000238418579
			}
		},
		{
			"doubleSided":true,
			"emissiveFactor":[
				1,
				0.19751642644405365,
				0.015175238251686096
			],
			"extensions":{
				"KHR_materials_emissive_strength":{
					"emissiveStrength":2.4000000953674316
				}
			},
			"name":"M_vs3",
			"pbrMetallicRoughness":{
				"baseColorFactor":[
					1,
					0.19751642644405365,
					0.015175238251686096,
					1
				],
				"metallicFactor":0,
				"roughnessFactor":0.8500000238418579
			}
		},
		{
			"doubleSided":true,
			"emissiveFactor":[
				1,
				0.19751642644405365,
				0.015175238251686096
			],
			"extensions":{
				"KHR_materials_emissive_strength":{
					"emissiveStrength":2.4000000953674316
				}
			},
			"name":"M_vs4",
			"pbrMetallicRoughness":{
				"baseColorFactor":[
					1,
					0.19751642644405365,
					0.015175238251686096,
					1
				],
				"metallicFactor":0,
				"roughnessFactor":0.8500000238418579
			}
		}
	],
	"meshes":[
		{
			"name":"Cube.006",
			"primitives":[
				{
					"attributes":{
						"POSITION":0,
						"NORMAL":1,
						"TEXCOORD_0":2
					},
					"indices":3,
					"material":0
				}
			]
		},
		{
			"name":"Cube.007",
			"primitives":[
				{
					"attributes":{
						"POSITION":4,
						"NORMAL":5,
						"TEXCOORD_0":6
					},
					"indices":3,
					"material":1
				}
			]
		},
		{
			"name":"Cube.008",
			"primitives":[
				{
					"attributes":{
						"POSITION":7,
						"NORMAL":8,
						"TEXCOORD_0":9
					},
					"indices":3,
					"material":2
				}
			]
		},
		{
			"name":"Cube.009",
			"primitives":[
				{
					"attributes":{
						"POSITION":10,
						"NORMAL":11,
						"TEXCOORD_0":12
					},
					"indices":13,
					"material":3
				}
			]
		},
		{
			"name":"Cube.010",
			"primitives":[
				{
					"attributes":{
						"POSITION":14,
						"NORMAL":15,
						"TEXCOORD_0":16
					},
					"indices":17,
					"material":4
				}
			]
		},
		{
			"name":"Cube.011",
			"primitives":[
				{
					"attributes":{
						"POSITION":18,
						"NORMAL":19,
						"TEXCOORD_0":20
					},
					"indices":21,
					"material":5
				}
			]
		},
		{
			"name":"Cube.012",
			"primitives":[
				{
					"attributes":{
						"POSITION":22,
						"NORMAL":23,
						"TEXCOORD_0":24
					},
					"indices":25,
					"material":6
				}
			]
		},
		{
			"name":"Cube.013",
			"primitives":[
				{
					"attributes":{
						"POSITION":26,
						"NORMAL":27,
						"TEXCOORD_0":28
					},
					"indices":3,
					"material":7
				}
			]
		},
		{
			"name":"Cube.014",
			"primitives":[
				{
					"attributes":{
						"POSITION":29,
						"NORMAL":30,
						"TEXCOORD_0":31
					},
					"indices":13,
					"material":8
				}
			]
		},
		{
			"name":"Cube.015",
			"primitives":[
				{
					"attributes":{
						"POSITION":32,
						"NORMAL":33,
						"TEXCOORD_0":34
					},
					"indices":3,
					"material":9
				}
			]
		},
		{
			"name":"Cube.016",
			"primitives":[
				{
					"attributes":{
						"POSITION":35,
						"NORMAL":36,
						"TEXCOORD_0":37
					},
					"indices":3,
					"material":10
				}
			]
		},
		{
			"name":"Cube.017",
			"primitives":[
				{
					"attributes":{
						"POSITION":38,
						"NORMAL":39,
						"TEXCOORD_0":40
					},
					"indices":25,
					"material":11
				}
			]
		},
		{
			"name":"Cube.018",
			"primitives":[
				{
					"attributes":{
						"POSITION":41,
						"NORMAL":42,
						"TEXCOORD_0":43
					},
					"indices":3,
					"material":12
				}
			]
		},
		{
			"name":"Cube.019",
			"primitives":[
				{
					"attributes":{
						"POSITION":44,
						"NORMAL":45,
						"TEXCOORD_0":46
					},
					"indices":13,
					"material":13
				}
			]
		},
		{
			"name":"Cube.020",
			"primitives":[
				{
					"attributes":{
						"POSITION":47,
						"NORMAL":48,
						"TEXCOORD_0":49
					},
					"indices":25,
					"material":14
				}
			]
		},
		{
			"name":"Cube.021",
			"primitives":[
				{
					"attributes":{
						"POSITION":50,
						"NORMAL":51,
						"TEXCOORD_0":52
					},
					"indices":25,
					"material":15
				}
			]
		},
		{
			"name":"Icosphere",
			"primitives":[
				{
					"attributes":{
						"POSITION":53,
						"NORMAL":54,
						"TEXCOORD_0":55
					},
					"indices":56,
					"material":16
				}
			]
		},
		{
			"name":"Icosphere.001",
			"primitives":[
				{
					"attributes":{
						"POSITION":57,
						"NORMAL":58,
						"TEXCOORD_0":59
					},
					"indices":56,
					"material":17
				}
			]
		},
		{
			"name":"Icosphere.002",
			"primitives":[
				{
					"attributes":{
						"POSITION":60,
						"NORMAL":61,
						"TEXCOORD_0":62
					},
					"indices":56,
					"material":18
				}
			]
		},
		{
			"name":"Icosphere.003",
			"primitives":[
				{
					"attributes":{
						"POSITION":63,
						"NORMAL":64,
						"TEXCOORD_0":65
					},
					"indices":56,
					"material":19
				}
			]
		},
		{
			"name":"Cube",
			"primitives":[
				{
					"attributes":{
						"POSITION":66,
						"NORMAL":67,
						"TEXCOORD_0":68
					},
					"indices":69,
					"material":20
				}
			]
		},
		{
			"name":"Cube.001",
			"primitives":[
				{
					"attributes":{
						"POSITION":70,
						"NORMAL":71,
						"TEXCOORD_0":72
					},
					"indices":73,
					"material":21
				}
			]
		},
		{
			"name":"Cube.002",
			"primitives":[
				{
					"attributes":{
						"POSITION":74,
						"NORMAL":75,
						"TEXCOORD_0":76
					},
					"indices":77,
					"material":22
				}
			]
		},
		{
			"name":"Cube.003",
			"primitives":[
				{
					"attributes":{
						"POSITION":78,
						"NORMAL":79,
						"TEXCOORD_0":80
					},
					"indices":73,
					"material":23
				}
			]
		},
		{
			"name":"Cube.004",
			"primitives":[
				{
					"attributes":{
						"POSITION":81,
						"NORMAL":82,
						"TEXCOORD_0":83
					},
					"indices":73,
					"material":24
				}
			]
		},
		{
			"name":"Cube.005",
			"primitives":[
				{
					"attributes":{
						"POSITION":84,
						"NORMAL":85,
						"TEXCOORD_0":86
					},
					"indices":77,
					"material":25
				}
			]
		}
	],
	"accessors":[
		{
			"bufferView":0,
			"componentType":5126,
			"count":24,
			"max":[
				-1.192874789237976,
				0.05394976586103439,
				-2.357743263244629
			],
			"min":[
				-1.6571346521377563,
				-0.09122415632009506,
				-2.973200798034668
			],
			"type":"VEC3"
		},
		{
			"bufferView":1,
			"componentType":5126,
			"count":24,
			"type":"VEC3"
		},
		{
			"bufferView":2,
			"componentType":5126,
			"count":24,
			"type":"VEC2"
		},
		{
			"bufferView":3,
			"componentType":5123,
			"count":36,
			"type":"SCALAR"
		},
		{
			"bufferView":4,
			"componentType":5126,
			"count":24,
			"max":[
				1.4956532716751099,
				0.07399005442857742,
				8.325764656066895
			],
			"min":[
				1.2327739000320435,
				-0.04858929663896561,
				7.5528340339660645
			],
			"type":"VEC3"
		},
		{
			"bufferView":5,
			"componentType":5126,
			"count":24,
			"type":"VEC3"
		},
		{
			"bufferView":6,
			"componentType":5126,
			"count":24,
			"type":"VEC2"
		},
		{
			"bufferView":7,
			"componentType":5126,
			"count":24,
			"max":[
				-1.1743156909942627,
				0.05399724096059799,
				0.7331407070159912
			],
			"min":[
				-1.547985553741455,
				-0.07904454320669174,
				-0.029508113861083984
			],
			"type":"VEC3"
		},
		{
			"bufferView":8,
			"componentType":5126,
			"count":24,
			"type":"VEC3"
		},
		{
			"bufferView":9,
			"componentType":5126,
			"count":24,
			"type":"VEC2"
		},
		{
			"bufferView":10,
			"componentType":5126,
			"count":24,
			"max":[
				1.5957708358764648,
				0.07944118231534958,
				-10.411689758300781
			],
			"min":[
				1.0942840576171875,
				-0.04792391508817673,
				-11.151683807373047
			],
			"type":"VEC3"
		},
		{
			"bufferView":11,
			"componentType":5126,
			"count":24,
			"type":"VEC3"
		},
		{
			"bufferView":12,
			"componentType":5126,
			"count":24,
			"type":"VEC2"
		},
		{
			"bufferView":13,
			"componentType":5123,
			"count":36,
			"type":"SCALAR"
		},
		{
			"bufferView":14,
			"componentType":5126,
			"count":24,
			"max":[
				-1.1783548593521118,
				0.08435054123401642,
				0.933645486831665
			],
			"min":[
				-1.4910398721694946,
				-0.05818909406661987,
				0.1553865373134613
			],
			"type":"VEC3"
		},
		{
			"bufferView":15,
			"componentType":5126,
			"count":24,
			"type":"VEC3"
		},
		{
			"bufferView":16,
			"componentType":5126,
			"count":24,
			"type":"VEC2"
		},
		{
			"bufferView":17,
			"componentType":5123,
			"count":36,
			"type":"SCALAR"
		},
		{
			"bufferView":18,
			"componentType":5126,
			"count":24,
			"max":[
				1.6556472778320312,
				0.07990393042564392,
				1.4251614809036255
			],
			"min":[
				1.0720057487487793,
				-0.08904170989990234,
				0.8140436410903931
			],
			"type":"VEC3"
		},
		{
			"bufferView":19,
			"componentType":5126,
			"count":24,
			"type":"VEC3"
		},
		{
			"bufferView":20,
			"componentType":5126,
			"count":24,
			"type":"VEC2"
		},
		{
			"bufferView":21,
			"componentType":5123,
			"count":36,
			"type":"SCALAR"
		},
		{
			"bufferView":22,
			"componentType":5126,
			"count":24,
			"max":[
				-1.1844618320465088,
				0.06919791549444199,
				-11.018623352050781
			],
			"min":[
				-1.627880334854126,
				-0.06951705366373062,
				-11.651252746582031
			],
			"type":"VEC3"
		},
		{
			"bufferView":23,
			"componentType":5126,
			"count":24,
			"type":"VEC3"
		},
		{
			"bufferView":24,
			"componentType":5126,
			"count":24,
			"type":"VEC2"
		},
		{
			"bufferView":25,
			"componentType":5123,
			"count":36,
			"type":"SCALAR"
		},
		{
			"bufferView":26,
			"componentType":5126,
			"count":24,
			"max":[
				1.5742042064666748,
				0.06929699331521988,
				-1.076331377029419
			],
			"min":[
				1.2119321823120117,
				-0.05948717147111893,
				-1.5220706462860107
			],
			"type":"VEC3"
		},
		{
			"bufferView":27,
			"componentType":5126,
			"count":24,
			"type":"VEC3"
		},
		{
			"bufferView":28,
			"componentType":5126,
			"count":24,
			"type":"VEC2"
		},
		{
			"bufferView":29,
			"componentType":5126,
			"count":24,
			"max":[
				-1.2112795114517212,
				0.060548316687345505,
				-2.048473358154297
			],
			"min":[
				-1.511907696723938,
				-0.07601919770240784,
				-2.4244089126586914
			],
			"type":"VEC3"
		},
		{
			"bufferView":30,
			"componentType":5126,
			"count":24,
			"type":"VEC3"
		},
		{
			"bufferView":31,
			"componentType":5126,
			"count":24,
			"type":"VEC2"
		},
		{
			"bufferView":32,
			"componentType":5126,
			"count":24,
			"max":[
				1.706883430480957,
				0.07165908813476562,
				-3.777207136154175
			],
			"min":[
				1.0230867862701416,
				-0.05758694186806679,
				-4.656975269317627
			],
			"type":"VEC3"
		},
		{
			"bufferView":33,
			"componentType":5126,
			"count":24,
			"type":"VEC3"
		},
		{
			"bufferView":34,
			"componentType":5126,
			"count":24,
			"type":"VEC2"
		},
		{
			"bufferView":35,
			"componentType":5126,
			"count":24,
			"max":[
				-1.2081196308135986,
				0.08485152572393417,
				-1.8009097576141357
			],
			"min":[
				-1.662623405456543,
				-0.05419795587658882,
				-2.36295485496521
			],
			"type":"VEC3"
		},
		{
			"bufferView":36,
			"componentType":5126,
			"count":24,
			"type":"VEC3"
		},
		{
			"bufferView":37,
			"componentType":5126,
			"count":24,
			"type":"VEC2"
		},
		{
			"bufferView":38,
			"componentType":5126,
			"count":24,
			"max":[
				1.6190013885498047,
				0.08759739995002747,
				10.227999687194824
			],
			"min":[
				1.0599489212036133,
				-0.06317485868930817,
				9.5825834274292
			],
			"type":"VEC3"
		},
		{
			"bufferView":39,
			"componentType":5126,
			"count":24,
			"type":"VEC3"
		},
		{
			"bufferView":40,
			"componentType":5126,
			"count":24,
			"type":"VEC2"
		},
		{
			"bufferView":41,
			"componentType":5126,
			"count":24,
			"max":[
				-1.1819067001342773,
				0.06141728535294533,
				5.030308246612549
			],
			"min":[
				-1.520007610321045,
				-0.0678531751036644,
				4.635457515716553
			],
			"type":"VEC3"
		},
		{
			"bufferView":42,
			"componentType":5126,
			"count":24,
			"type":"VEC3"
		},
		{
			"bufferView":43,
			"componentType":5126,
			"count":24,
			"type":"VEC2"
		},
		{
			"bufferView":44,
			"componentType":5126,
			"count":24,
			"max":[
				1.637345314025879,
				0.05995901674032211,
				-5.247519493103027
			],
			"min":[
				1.2386820316314697,
				-0.06164116412401199,
				-6.06147575378418
			],
			"type":"VEC3"
		},
		{
			"bufferView":45,
			"componentType":5126,
			"count":24,
			"type":"VEC3"
		},
		{
			"bufferView":46,
			"componentType":5126,
			"count":24,
			"type":"VEC2"
		},
		{
			"bufferView":47,
			"componentType":5126,
			"count":24,
			"max":[
				-1.105023980140686,
				0.07826615124940872,
				7.003243923187256
			],
			"min":[
				-1.541767954826355,
				-0.051205046474933624,
				6.2405476570129395
			],
			"type":"VEC3"
		},
		{
			"bufferView":48,
			"componentType":5126,
			"count":24,
			"type":"VEC3"
		},
		{
			"bufferView":49,
			"componentType":5126,
			"count":24,
			"type":"VEC2"
		},
		{
			"bufferView":50,
			"componentType":5126,
			"count":24,
			"max":[
				1.6282997131347656,
				0.06275377422571182,
				-7.768451690673828
			],
			"min":[
				1.1511738300323486,
				-0.07811558991670609,
				-8.30128288269043
			],
			"type":"VEC3"
		},
		{
			"bufferView":51,
			"componentType":5126,
			"count":24,
			"type":"VEC3"
		},
		{
			"bufferView":52,
			"componentType":5126,
			"count":24,
			"type":"VEC2"
		},
		{
			"bufferView":53,
			"componentType":5126,
			"count":22,
			"max":[
				0.49618008732795715,
				0.04102500528097153,
				-8.986557006835938
			],
			"min":[
				0.3215499818325043,
				-0.053177136927843094,
				-9.181073188781738
			],
			"type":"VEC3"
		},
		{
			"bufferView":54,
			"componentType":5126,
			"count":22,
			"type":"VEC3"
		},
		{
			"bufferView":55,
			"componentType":5126,
			"count":22,
			"type":"VEC2"
		},
		{
			"bufferView":56,
			"componentType":5123,
			"count":60,
			"type":"SCALAR"
		},
		{
			"bufferView":57,
			"componentType":5126,
			"count":22,
			"max":[
				-0.9670770168304443,
				0.03085958957672119,
				-1.769890308380127
			],
			"min":[
				-1.1566071510314941,
				-0.03944901376962662,
				-1.9563103914260864
			],
			"type":"VEC3"
		},
		{
			"bufferView":58,
			"componentType":5126,
			"count":22,
			"type":"VEC3"
		},
		{
			"bufferView":59,
			"componentType":5126,
			"count":22,
			"type":"VEC2"
		},
		{
			"bufferView":60,
			"componentType":5126,
			"count":22,
			"max":[
				0.40864238142967224,
				0.03727374225854874,
				-6.93930721282959
			],
			"min":[
				0.22522735595703125,
				-0.06773794442415237,
				-7.114446640014648
			],
			"type":"VEC3"
		},
		{
			"bufferView":61,
			"componentType":5126,
			"count":22,
			"type":"VEC3"
		},
		{
			"bufferView":62,
			"componentType":5126,
			"count":22,
			"type":"VEC2"
		},
		{
			"bufferView":63,
			"componentType":5126,
			"count":22,
			"max":[
				0.28355610370635986,
				0.06742347031831741,
				4.931478500366211
			],
			"min":[
				0.08547914773225784,
				-0.05520179495215416,
				4.7622480392456055
			],
			"type":"VEC3"
		},
		{
			"bufferView":64,
			"componentType":5126,
			"count":22,
			"type":"VEC3"
		},
		{
			"bufferView":65,
			"componentType":5126,
			"count":22,
			"type":"VEC2"
		},
		{
			"bufferView":66,
			"componentType":5126,
			"count":96,
			"max":[
				1.399999976158142,
				0,
				12
			],
			"min":[
				-1.399999976158142,
				-0.30000001192092896,
				-12
			],
			"type":"VEC3"
		},
		{
			"bufferView":67,
			"componentType":5126,
			"count":96,
			"type":"VEC3"
		},
		{
			"bufferView":68,
			"componentType":5126,
			"count":96,
			"type":"VEC2"
		},
		{
			"bufferView":69,
			"componentType":5123,
			"count":132,
			"type":"SCALAR"
		},
		{
			"bufferView":70,
			"componentType":5126,
			"count":24,
			"max":[
				-0.5269001126289368,
				0.017000000923871994,
				-1.7058756351470947
			],
			"min":[
				-0.6792817711830139,
				-0.007000000216066837,
				-5.884800910949707
			],
			"type":"VEC3"
		},
		{
			"bufferView":71,
			"componentType":5126,
			"count":24,
			"type":"VEC3"
		},
		{
			"bufferView":72,
			"componentType":5126,
			"count":24,
			"type":"VEC2"
		},
		{
			"bufferView":73,
			"componentType":5123,
			"count":36,
			"type":"SCALAR"
		},
		{
			"bufferView":74,
			"componentType":5126,
			"count":24,
			"max":[
				-0.44375449419021606,
				0.017000000923871994,
				-3.5213630199432373
			],
			"min":[
				-0.578593909740448,
				-0.007000000216066837,
				-8.183971405029297
			],
			"type":"VEC3"
		},
		{
			"bufferView":75,
			"componentType":5126,
			"count":24,
			"type":"VEC3"
		},
		{
			"bufferView":76,
			"componentType":5126,
			"count":24,
			"type":"VEC2"
		},
		{
			"bufferView":77,
			"componentType":5123,
			"count":36,
			"type":"SCALAR"
		},
		{
			"bufferView":78,
			"componentType":5126,
			"count":24,
			"max":[
				0.1520998328924179,
				0.017000000923871994,
				6.483587265014648
			],
			"min":[
				-0.13379688560962677,
				-0.007000000216066837,
				4.074158668518066
			],
			"type":"VEC3"
		},
		{
			"bufferView":79,
			"componentType":5126,
			"count":24,
			"type":"VEC3"
		},
		{
			"bufferView":80,
			"componentType":5126,
			"count":24,
			"type":"VEC2"
		},
		{
			"bufferView":81,
			"componentType":5126,
			"count":24,
			"max":[
				0.5727124214172363,
				0.017000000923871994,
				10.904193878173828
			],
			"min":[
				-0.2654074728488922,
				-0.007000000216066837,
				6.325215816497803
			],
			"type":"VEC3"
		},
		{
			"bufferView":82,
			"componentType":5126,
			"count":24,
			"type":"VEC3"
		},
		{
			"bufferView":83,
			"componentType":5126,
			"count":24,
			"type":"VEC2"
		},
		{
			"bufferView":84,
			"componentType":5126,
			"count":24,
			"max":[
				-0.06106686592102051,
				0.017000000923871994,
				11.73043155670166
			],
			"min":[
				-0.9012312889099121,
				-0.007000000216066837,
				6.5761518478393555
			],
			"type":"VEC3"
		},
		{
			"bufferView":85,
			"componentType":5126,
			"count":24,
			"type":"VEC3"
		},
		{
			"bufferView":86,
			"componentType":5126,
			"count":24,
			"type":"VEC2"
		}
	],
	"bufferViews":[
		{
			"buffer":0,
			"byteLength":288,
			"byteOffset":0,
			"target":34962
		},
		{
			"buffer":0,
			"byteLength":288,
			"byteOffset":288,
			"target":34962
		},
		{
			"buffer":0,
			"byteLength":192,
			"byteOffset":576,
			"target":34962
		},
		{
			"buffer":0,
			"byteLength":72,
			"byteOffset":768,
			"target":34963
		},
		{
			"buffer":0,
			"byteLength":288,
			"byteOffset":840,
			"target":34962
		},
		{
			"buffer":0,
			"byteLength":288,
			"byteOffset":1128,
			"target":34962
		},
		{
			"buffer":0,
			"byteLength":192,
			"byteOffset":1416,
			"target":34962
		},
		{
			"buffer":0,
			"byteLength":288,
			"byteOffset":1608,
			"target":34962
		},
		{
			"buffer":0,
			"byteLength":288,
			"byteOffset":1896,
			"target":34962
		},
		{
			"buffer":0,
			"byteLength":192,
			"byteOffset":2184,
			"target":34962
		},
		{
			"buffer":0,
			"byteLength":288,
			"byteOffset":2376,
			"target":34962
		},
		{
			"buffer":0,
			"byteLength":288,
			"byteOffset":2664,
			"target":34962
		},
		{
			"buffer":0,
			"byteLength":192,
			"byteOffset":2952,
			"target":34962
		},
		{
			"buffer":0,
			"byteLength":72,
			"byteOffset":3144,
			"target":34963
		},
		{
			"buffer":0,
			"byteLength":288,
			"byteOffset":3216,
			"target":34962
		},
		{
			"buffer":0,
			"byteLength":288,
			"byteOffset":3504,
			"target":34962
		},
		{
			"buffer":0,
			"byteLength":192,
			"byteOffset":3792,
			"target":34962
		},
		{
			"buffer":0,
			"byteLength":72,
			"byteOffset":3984,
			"target":34963
		},
		{
			"buffer":0,
			"byteLength":288,
			"byteOffset":4056,
			"target":34962
		},
		{
			"buffer":0,
			"byteLength":288,
			"byteOffset":4344,
			"target":34962
		},
		{
			"buffer":0,
			"byteLength":192,
			"byteOffset":4632,
			"target":34962
		},
		{
			"buffer":0,
			"byteLength":72,
			"byteOffset":4824,
			"target":34963
		},
		{
			"buffer":0,
			"byteLength":288,
			"byteOffset":4896,
			"target":34962
		},
		{
			"buffer":0,
			"byteLength":288,
			"byteOffset":5184,
			"target":34962
		},
		{
			"buffer":0,
			"byteLength":192,
			"byteOffset":5472,
			"target":34962
		},
		{
			"buffer":0,
			"byteLength":72,
			"byteOffset":5664,
			"target":34963
		},
		{
			"buffer":0,
			"byteLength":288,
			"byteOffset":5736,
			"target":34962
		},
		{
			"buffer":0,
			"byteLength":288,
			"byteOffset":6024,
			"target":34962
		},
		{
			"buffer":0,
			"byteLength":192,
			"byteOffset":6312,
			"target":34962
		},
		{
			"buffer":0,
			"byteLength":288,
			"byteOffset":6504,
			"target":34962
		},
		{
			"buffer":0,
			"byteLength":288,
			"byteOffset":6792,
			"target":34962
		},
		{
			"buffer":0,
			"byteLength":192,
			"byteOffset":7080,
			"target":34962
		},
		{
			"buffer":0,
			"byteLength":288,
			"byteOffset":7272,
			"target":34962
		},
		{
			"buffer":0,
			"byteLength":288,
			"byteOffset":7560,
			"target":34962
		},
		{
			"buffer":0,
			"byteLength":192,
			"byteOffset":7848,
			"target":34962
		},
		{
			"buffer":0,
			"byteLength":288,
			"byteOffset":8040,
			"target":34962
		},
		{
			"buffer":0,
			"byteLength":288,
			"byteOffset":8328,
			"target":34962
		},
		{
			"buffer":0,
			"byteLength":192,
			"byteOffset":8616,
			"target":34962
		},
		{
			"buffer":0,
			"byteLength":288,
			"byteOffset":8808,
			"target":34962
		},
		{
			"buffer":0,
			"byteLength":288,
			"byteOffset":9096,
			"target":34962
		},
		{
			"buffer":0,
			"byteLength":192,
			"byteOffset":9384,
			"target":34962
		},
		{
			"buffer":0,
			"byteLength":288,
			"byteOffset":9576,
			"target":34962
		},
		{
			"buffer":0,
			"byteLength":288,
			"byteOffset":9864,
			"target":34962
		},
		{
			"buffer":0,
			"byteLength":192,
			"byteOffset":10152,
			"target":34962
		},
		{
			"buffer":0,
			"byteLength":288,
			"byteOffset":10344,
			"target":34962
		},
		{
			"buffer":0,
			"byteLength":288,
			"byteOffset":10632,
			"target":34962
		},
		{
			"buffer":0,
			"byteLength":192,
			"byteOffset":10920,
			"target":34962
		},
		{
			"buffer":0,
			"byteLength":288,
			"byteOffset":11112,
			"target":34962
		},
		{
			"buffer":0,
			"byteLength":288,
			"byteOffset":11400,
			"target":34962
		},
		{
			"buffer":0,
			"byteLength":192,
			"byteOffset":11688,
			"target":34962
		},
		{
			"buffer":0,
			"byteLength":288,
			"byteOffset":11880,
			"target":34962
		},
		{
			"buffer":0,
			"byteLength":288,
			"byteOffset":12168,
			"target":34962
		},
		{
			"buffer":0,
			"byteLength":192,
			"byteOffset":12456,
			"target":34962
		},
		{
			"buffer":0,
			"byteLength":264,
			"byteOffset":12648,
			"target":34962
		},
		{
			"buffer":0,
			"byteLength":264,
			"byteOffset":12912,
			"target":34962
		},
		{
			"buffer":0,
			"byteLength":176,
			"byteOffset":13176,
			"target":34962
		},
		{
			"buffer":0,
			"byteLength":120,
			"byteOffset":13352,
			"target":34963
		},
		{
			"buffer":0,
			"byteLength":264,
			"byteOffset":13472,
			"target":34962
		},
		{
			"buffer":0,
			"byteLength":264,
			"byteOffset":13736,
			"target":34962
		},
		{
			"buffer":0,
			"byteLength":176,
			"byteOffset":14000,
			"target":34962
		},
		{
			"buffer":0,
			"byteLength":264,
			"byteOffset":14176,
			"target":34962
		},
		{
			"buffer":0,
			"byteLength":264,
			"byteOffset":14440,
			"target":34962
		},
		{
			"buffer":0,
			"byteLength":176,
			"byteOffset":14704,
			"target":34962
		},
		{
			"buffer":0,
			"byteLength":264,
			"byteOffset":14880,
			"target":34962
		},
		{
			"buffer":0,
			"byteLength":264,
			"byteOffset":15144,
			"target":34962
		},
		{
			"buffer":0,
			"byteLength":176,
			"byteOffset":15408,
			"target":34962
		},
		{
			"buffer":0,
			"byteLength":1152,
			"byteOffset":15584,
			"target":34962
		},
		{
			"buffer":0,
			"byteLength":1152,
			"byteOffset":16736,
			"target":34962
		},
		{
			"buffer":0,
			"byteLength":768,
			"byteOffset":17888,
			"target":34962
		},
		{
			"buffer":0,
			"byteLength":264,
			"byteOffset":18656,
			"target":34963
		},
		{
			"buffer":0,
			"byteLength":288,
			"byteOffset":18920,
			"target":34962
		},
		{
			"buffer":0,
			"byteLength":288,
			"byteOffset":19208,
			"target":34962
		},
		{
			"buffer":0,
			"byteLength":192,
			"byteOffset":19496,
			"target":34962
		},
		{
			"buffer":0,
			"byteLength":72,
			"byteOffset":19688,
			"target":34963
		},
		{
			"buffer":0,
			"byteLength":288,
			"byteOffset":19760,
			"target":34962
		},
		{
			"buffer":0,
			"byteLength":288,
			"byteOffset":20048,
			"target":34962
		},
		{
			"buffer":0,
			"byteLength":192,
			"byteOffset":20336,
			"target":34962
		},
		{
			"buffer":0,
			"byteLength":72,
			"byteOffset":20528,
			"target":34963
		},
		{
			"buffer":0,
			"byteLength":288,
			"byteOffset":20600,
			"target":34962
		},
		{
			"buffer":0,
			"byteLength":288,
			"byteOffset":20888,
			"target":34962
		},
		{
			"buffer":0,
			"byteLength":192,
			"byteOffset":21176,
			"target":34962
		},
		{
			"buffer":0,
			"byteLength":288,
			"byteOffset":21368,
			"target":34962
		},
		{
			"buffer":0,
			"byteLength":288,
			"byteOffset":21656,
			"target":34962
		},
		{
			"buffer":0,
			"byteLength":192,
			"byteOffset":21944,
			"target":34962
		},
		{
			"buffer":0,
			"byteLength":288,
			"byteOffset":22136,
			"target":34962
		},
		{
			"buffer":0,
			"byteLength":288,
			"byteOffset":22424,
			"target":34962
		},
		{
			"buffer":0,
			"byteLength":192,
			"byteOffset":22712,
			"target":34962
		}
	],
	"buffers":[
		{
			"byteLength":22904,
			"uri":"hd_rd_lava.bin"
		}
	]
}
