{
	"asset":{
		"generator":"Khronos glTF Blender I/O v5.2.40",
		"version":"2.0"
	},
	"scene":0,
	"scenes":[
		{
			"name":"Scene",
			"nodes":[
				0
			]
		}
	],
	"nodes":[
		{
			"mesh":0,
			"name":"quiver_tree_02"
		}
	],
	"materials":[
		{
			"doubleSided":true,
			"name":"quiver_tree_02",
			"normalTexture":{
				"index":0
			},
			"pbrMetallicRoughness":{
				"baseColorTexture":{
					"index":1
				},
				"metallicFactor":0,
				"metallicRoughnessTexture":{
					"index":2
				}
			}
		}
	],
	"meshes":[
		{
			"name":"tree_small_25m",
			"primitives":[
				{
					"attributes":{
						"POSITION":0,
						"NORMAL":1,
						"TEXCOORD_0":2
					},
					"indices":3,
					"material":0
				}
			]
		}
	],
	"textures":[
		{
			"sampler":0,
			"source":0
		},
		{
			"sampler":0,
			"source":1
		},
		{
			"sampler":0,
			"source":2
		}
	],
	"images":[
		{
			"mimeType":"image/jpeg",
			"name":"quiver_tree_02_nor_gl",
			"uri":"textures/quiver_tree_02_nor_gl_2k.jpg"
		},
		{
			"mimeType":"image/jpeg",
			"name":"quiver_tree_02_diff",
			"uri":"textures/quiver_tree_02_diff_2k.jpg"
		},
		{
			"mimeType":"image/jpeg",
			"name":"quiver_tree_02_rough",
			"uri":"textures/quiver_tree_02_arm_2k.jpg"
		}
	],
	"accessors":[
		{
			"bufferView":0,
			"componentType":5126,
			"count":12870,
			"max":[
				0.3850488066673279,
				1.4195235967636108,
				0.44794896245002747
			],
			"min":[
				-0.4854334890842438,
				-0.049302227795124054,
				-0.4320560097694397
			],
			"type":"VEC3"
		},
		{
			"bufferView":1,
			"componentType":5126,
			"count":12870,
			"type":"VEC3"
		},
		{
			"bufferView":2,
			"componentType":5126,
			"count":12870,
			"type":"VEC2"
		},
		{
			"bufferView":3,
			"componentType":5123,
			"count":49242,
			"type":"SCALAR"
		}
	],
	"bufferViews":[
		{
			"buffer":0,
			"byteLength":154440,
			"byteOffset":0,
			"target":34962
		},
		{
			"buffer":0,
			"byteLength":154440,
			"byteOffset":154440,
			"target":34962
		},
		{
			"buffer":0,
			"byteLength":102960,
			"byteOffset":308880,
			"target":34962
		},
		{
			"buffer":0,
			"byteLength":98484,
			"byteOffset":411840,
			"target":34963
		}
	],
	"samplers":[
		{
			"magFilter":9729,
			"minFilter":9987
		}
	],
	"buffers":[
		{
			"byteLength":510324,
			"uri":"quiver_tree_02.bin"
		}
	]
}
