{
	"asset":{
		"generator":"Khronos glTF Blender I/O v5.2.40",
		"version":"2.0"
	},
	"scene":0,
	"scenes":[
		{
			"name":"Scene",
			"nodes":[
				0,
				1,
				2,
				3,
				4,
				5,
				6,
				7,
				8,
				9
			]
		}
	],
	"nodes":[
		{
			"mesh":0,
			"name":"moss"
		},
		{
			"mesh":1,
			"name":"ring0"
		},
		{
			"mesh":2,
			"name":"ring1"
		},
		{
			"mesh":3,
			"name":"ring2"
		},
		{
			"mesh":4,
			"name":"root0"
		},
		{
			"mesh":5,
			"name":"root1"
		},
		{
			"mesh":6,
			"name":"root2"
		},
		{
			"mesh":7,
			"name":"root3"
		},
		{
			"mesh":8,
			"name":"stump"
		},
		{
			"mesh":9,
			"name":"top"
		}
	],
	"materials":[
		{
			"doubleSided":true,
			"name":"M_sms",
			"pbrMetallicRoughness":{
				"baseColorFactor":[
					0.20109573006629944,
					0.3586539030075073,
					0.10363409668207169,
					1
				],
				"metallicFactor":0,
				"roughnessFactor":0.8500000238418579
			}
		},
		{
			"doubleSided":true,
			"name":"M_sr0",
			"pbrMetallicRoughness":{
				"baseColorFactor":[
					0.11129941791296005,
					0.041451890021562576,
					0.011881334707140923,
					1
				],
				"metallicFactor":0,
				"roughnessFactor":0.8500000238418579
			}
		},
		{
			"doubleSided":true,
			"name":"M_sr1",
			"pbrMetallicRoughness":{
				"baseColorFactor":[
					0.11129941791296005,
					0.041451890021562576,
					0.011881334707140923,
					1
				],
				"metallicFactor":0,
				"roughnessFactor":0.8500000238418579
			}
		},
		{
			"doubleSided":true,
			"name":"M_sr2",
			"pbrMetallicRoughness":{
				"baseColorFactor":[
					0.11129941791296005,
					0.041451890021562576,
					0.011881334707140923,
					1
				],
				"metallicFactor":0,
				"roughnessFactor":0.8500000238418579
			}
		},
		{
			"doubleSided":true,
			"name":"M_srt0",
			"pbrMetallicRoughness":{
				"baseColorFactor":[
					0.11129941791296005,
					0.041451890021562576,
					0.011881334707140923,
					1
				],
				"metallicFactor":0,
				"roughnessFactor":0.8500000238418579
			}
		},
		{
			"doubleSided":true,
			"name":"M_srt1",
			"pbrMetallicRoughness":{
				"baseColorFactor":[
					0.11129941791296005,
					0.041451890021562576,
					0.011881334707140923,
					1
				],
				"metallicFactor":0,
				"roughnessFactor":0.8500000238418579
			}
		},
		{
			"doubleSided":true,
			"name":"M_srt2",
			"pbrMetallicRoughness":{
				"baseColorFactor":[
					0.11129941791296005,
					0.041451890021562576,
					0.011881334707140923,
					1
				],
				"metallicFactor":0,
				"roughnessFactor":0.8500000238418579
			}
		},
		{
			"doubleSided":true,
			"name":"M_srt3",
			"pbrMetallicRoughness":{
				"baseColorFactor":[
					0.11129941791296005,
					0.041451890021562576,
					0.011881334707140923,
					1
				],
				"metallicFactor":0,
				"roughnessFactor":0.8500000238418579
			}
		},
		{
			"doubleSided":true,
			"name":"M_stb",
			"pbrMetallicRoughness":{
				"baseColorFactor":[
					0.2590273320674896,
					0.10114516317844391,
					0.02775527909398079,
					1
				],
				"metallicFactor":0,
				"roughnessFactor":0.8500000238418579
			}
		},
		{
			"doubleSided":true,
			"name":"M_stt",
			"pbrMetallicRoughness":{
				"baseColorFactor":[
					0.8122414946556091,
					0.535641610622406,
					0.2508402466773987,
					1
				],
				"metallicFactor":0,
				"roughnessFactor":0.8500000238418579
			}
		}
	],
	"meshes":[
		{
			"name":"Icosphere",
			"primitives":[
				{
					"attributes":{
						"POSITION":0,
						"NORMAL":1,
						"TEXCOORD_0":2
					},
					"indices":3,
					"material":0
				}
			]
		},
		{
			"name":"Torus",
			"primitives":[
				{
					"attributes":{
						"POSITION":4,
						"NORMAL":5,
						"TEXCOORD_0":6
					},
					"indices":7,
					"material":1
				}
			]
		},
		{
			"name":"Torus.001",
			"primitives":[
				{
					"attributes":{
						"POSITION":8,
						"NORMAL":9,
						"TEXCOORD_0":10
					},
					"indices":7,
					"material":2
				}
			]
		},
		{
			"name":"Torus.002",
			"primitives":[
				{
					"attributes":{
						"POSITION":11,
						"NORMAL":12,
						"TEXCOORD_0":13
					},
					"indices":7,
					"material":3
				}
			]
		},
		{
			"name":"Cone.001",
			"primitives":[
				{
					"attributes":{
						"POSITION":14,
						"NORMAL":15,
						"TEXCOORD_0":16
					},
					"indices":17,
					"material":4
				}
			]
		},
		{
			"name":"Cone.002",
			"primitives":[
				{
					"attributes":{
						"POSITION":18,
						"NORMAL":19,
						"TEXCOORD_0":20
					},
					"indices":17,
					"material":5
				}
			]
		},
		{
			"name":"Cone.003",
			"primitives":[
				{
					"attributes":{
						"POSITION":21,
						"NORMAL":22,
						"TEXCOORD_0":23
					},
					"indices":17,
					"material":6
				}
			]
		},
		{
			"name":"Cone.004",
			"primitives":[
				{
					"attributes":{
						"POSITION":24,
						"NORMAL":25,
						"TEXCOORD_0":26
					},
					"indices":17,
					"material":7
				}
			]
		},
		{
			"name":"Cone",
			"primitives":[
				{
					"attributes":{
						"POSITION":27,
						"NORMAL":28,
						"TEXCOORD_0":29
					},
					"indices":30,
					"material":8
				}
			]
		},
		{
			"name":"Cylinder",
			"primitives":[
				{
					"attributes":{
						"POSITION":31,
						"NORMAL":32,
						"TEXCOORD_0":33
					},
					"indices":34,
					"material":9
				}
			]
		}
	],
	"accessors":[
		{
			"bufferView":0,
			"componentType":5126,
			"count":22,
			"max":[
				0.14884383976459503,
				0.9745714068412781,
				0.07318440824747086
			],
			"min":[
				-0.3876873552799225,
				0.7704824805259705,
				-0.3324567973613739
			],
			"type":"VEC3"
		},
		{
			"bufferView":1,
			"componentType":5126,
			"count":22,
			"type":"VEC3"
		},
		{
			"bufferView":2,
			"componentType":5126,
			"count":22,
			"type":"VEC2"
		},
		{
			"bufferView":3,
			"componentType":5123,
			"count":60,
			"type":"SCALAR"
		},
		{
			"bufferView":4,
			"componentType":5126,
			"count":192,
			"max":[
				0.1379999965429306,
				1.0529999732971191,
				0.1379999965429306
			],
			"min":[
				-0.1379999965429306,
				1.0169999599456787,
				-0.1379999965429306
			],
			"type":"VEC3"
		},
		{
			"bufferView":5,
			"componentType":5126,
			"count":192,
			"type":"VEC3"
		},
		{
			"bufferView":6,
			"componentType":5126,
			"count":192,
			"type":"VEC2"
		},
		{
			"bufferView":7,
			"componentType":5123,
			"count":288,
			"type":"SCALAR"
		},
		{
			"bufferView":8,
			"componentType":5126,
			"count":192,
			"max":[
				0.23800000548362732,
				1.0529999732971191,
				0.23800000548362732
			],
			"min":[
				-0.23800000548362732,
				1.0169999599456787,
				-0.23800000548362732
			],
			"type":"VEC3"
		},
		{
			"bufferView":9,
			"componentType":5126,
			"count":192,
			"type":"VEC3"
		},
		{
			"bufferView":10,
			"componentType":5126,
			"count":192,
			"type":"VEC2"
		},
		{
			"bufferView":11,
			"componentType":5126,
			"count":192,
			"max":[
				0.31800001859664917,
				1.0529999732971191,
				0.31800001859664917
			],
			"min":[
				-0.31800001859664917,
				1.0169999599456787,
				-0.31800001859664917
			],
			"type":"VEC3"
		},
		{
			"bufferView":12,
			"componentType":5126,
			"count":192,
			"type":"VEC3"
		},
		{
			"bufferView":13,
			"componentType":5126,
			"count":192,
			"type":"VEC2"
		},
		{
			"bufferView":14,
			"componentType":5126,
			"count":26,
			"max":[
				0.6800713539123535,
				0.309497207403183,
				-0.022471293807029724
			],
			"min":[
				0.1334531158208847,
				-0.12425412237644196,
				-0.4748463034629822
			],
			"type":"VEC3"
		},
		{
			"bufferView":15,
			"componentType":5126,
			"count":26,
			"type":"VEC3"
		},
		{
			"bufferView":16,
			"componentType":5126,
			"count":26,
			"type":"VEC2"
		},
		{
			"bufferView":17,
			"componentType":5123,
			"count":60,
			"type":"SCALAR"
		},
		{
			"bufferView":18,
			"componentType":5126,
			"count":26,
			"max":[
				-0.08741824328899384,
				0.3076275587081909,
				-0.10268652439117432
			],
			"min":[
				-0.4205383062362671,
				-0.11552901566028595,
				-0.6957306861877441
			],
			"type":"VEC3"
		},
		{
			"bufferView":19,
			"componentType":5126,
			"count":26,
			"type":"VEC3"
		},
		{
			"bufferView":20,
			"componentType":5126,
			"count":26,
			"type":"VEC2"
		},
		{
			"bufferView":21,
			"componentType":5126,
			"count":26,
			"max":[
				-0.1334531158208847,
				0.309497207403183,
				0.4748463034629822
			],
			"min":[
				-0.6800713539123535,
				-0.12425412237644196,
				0.022471293807029724
			],
			"type":"VEC3"
		},
		{
			"bufferView":22,
			"componentType":5126,
			"count":26,
			"type":"VEC3"
		},
		{
			"bufferView":23,
			"componentType":5126,
			"count":26,
			"type":"VEC2"
		},
		{
			"bufferView":24,
			"componentType":5126,
			"count":26,
			"max":[
				0.4205383062362671,
				0.3076275587081909,
				0.6957306861877441
			],
			"min":[
				0.08741824328899384,
				-0.11552901566028595,
				0.10268652439117432
			],
			"type":"VEC3"
		},
		{
			"bufferView":25,
			"componentType":5126,
			"count":26,
			"type":"VEC3"
		},
		{
			"bufferView":26,
			"componentType":5126,
			"count":26,
			"type":"VEC2"
		},
		{
			"bufferView":27,
			"componentType":5126,
			"count":46,
			"max":[
				0.4355214238166809,
				1,
				0.42217689752578735
			],
			"min":[
				-0.4355214238166809,
				0,
				-0.4399999976158142
			],
			"type":"VEC3"
		},
		{
			"bufferView":28,
			"componentType":5126,
			"count":46,
			"type":"VEC3"
		},
		{
			"bufferView":29,
			"componentType":5126,
			"count":46,
			"type":"VEC2"
		},
		{
			"bufferView":30,
			"componentType":5123,
			"count":120,
			"type":"SCALAR"
		},
		{
			"bufferView":31,
			"componentType":5126,
			"count":66,
			"max":[
				0.3662339448928833,
				1.034999966621399,
				0.3550124168395996
			],
			"min":[
				-0.3662339448928833,
				0.9850000143051147,
				-0.3700000047683716
			],
			"type":"VEC3"
		},
		{
			"bufferView":32,
			"componentType":5126,
			"count":66,
			"type":"VEC3"
		},
		{
			"bufferView":33,
			"componentType":5126,
			"count":66,
			"type":"VEC2"
		},
		{
			"bufferView":34,
			"componentType":5123,
			"count":120,
			"type":"SCALAR"
		}
	],
	"bufferViews":[
		{
			"buffer":0,
			"byteLength":264,
			"byteOffset":0,
			"target":34962
		},
		{
			"buffer":0,
			"byteLength":264,
			"byteOffset":264,
			"target":34962
		},
		{
			"buffer":0,
			"byteLength":176,
			"byteOffset":528,
			"target":34962
		},
		{
			"buffer":0,
			"byteLength":120,
			"byteOffset":704,
			"target":34963
		},
		{
			"buffer":0,
			"byteLength":2304,
			"byteOffset":824,
			"target":34962
		},
		{
			"buffer":0,
			"byteLength":2304,
			"byteOffset":3128,
			"target":34962
		},
		{
			"buffer":0,
			"byteLength":1536,
			"byteOffset":5432,
			"target":34962
		},
		{
			"buffer":0,
			"byteLength":576,
			"byteOffset":6968,
			"target":34963
		},
		{
			"buffer":0,
			"byteLength":2304,
			"byteOffset":7544,
			"target":34962
		},
		{
			"buffer":0,
			"byteLength":2304,
			"byteOffset":9848,
			"target":34962
		},
		{
			"buffer":0,
			"byteLength":1536,
			"byteOffset":12152,
			"target":34962
		},
		{
			"buffer":0,
			"byteLength":2304,
			"byteOffset":13688,
			"target":34962
		},
		{
			"buffer":0,
			"byteLength":2304,
			"byteOffset":15992,
			"target":34962
		},
		{
			"buffer":0,
			"byteLength":1536,
			"byteOffset":18296,
			"target":34962
		},
		{
			"buffer":0,
			"byteLength":312,
			"byteOffset":19832,
			"target":34962
		},
		{
			"buffer":0,
			"byteLength":312,
			"byteOffset":20144,
			"target":34962
		},
		{
			"buffer":0,
			"byteLength":208,
			"byteOffset":20456,
			"target":34962
		},
		{
			"buffer":0,
			"byteLength":120,
			"byteOffset":20664,
			"target":34963
		},
		{
			"buffer":0,
			"byteLength":312,
			"byteOffset":20784,
			"target":34962
		},
		{
			"buffer":0,
			"byteLength":312,
			"byteOffset":21096,
			"target":34962
		},
		{
			"buffer":0,
			"byteLength":208,
			"byteOffset":21408,
			"target":34962
		},
		{
			"buffer":0,
			"byteLength":312,
			"byteOffset":21616,
			"target":34962
		},
		{
			"buffer":0,
			"byteLength":312,
			"byteOffset":21928,
			"target":34962
		},
		{
			"buffer":0,
			"byteLength":208,
			"byteOffset":22240,
			"target":34962
		},
		{
			"buffer":0,
			"byteLength":312,
			"byteOffset":22448,
			"target":34962
		},
		{
			"buffer":0,
			"byteLength":312,
			"byteOffset":22760,
			"target":34962
		},
		{
			"buffer":0,
			"byteLength":208,
			"byteOffset":23072,
			"target":34962
		},
		{
			"buffer":0,
			"byteLength":552,
			"byteOffset":23280,
			"target":34962
		},
		{
			"buffer":0,
			"byteLength":552,
			"byteOffset":23832,
			"target":34962
		},
		{
			"buffer":0,
			"byteLength":368,
			"byteOffset":24384,
			"target":34962
		},
		{
			"buffer":0,
			"byteLength":240,
			"byteOffset":24752,
			"target":34963
		},
		{
			"buffer":0,
			"byteLength":792,
			"byteOffset":24992,
			"target":34962
		},
		{
			"buffer":0,
			"byteLength":792,
			"byteOffset":25784,
			"target":34962
		},
		{
			"buffer":0,
			"byteLength":528,
			"byteOffset":26576,
			"target":34962
		},
		{
			"buffer":0,
			"byteLength":240,
			"byteOffset":27104,
			"target":34963
		}
	],
	"buffers":[
		{
			"byteLength":27344,
			"uri":"hd_stump.bin"
		}
	]
}
