{
	"asset":{
		"generator":"Khronos glTF Blender I/O v5.2.40",
		"version":"2.0"
	},
	"scene":0,
	"scenes":[
		{
			"name":"Scene",
			"nodes":[
				0,
				1,
				2,
				3,
				4,
				5
			]
		}
	],
	"nodes":[
		{
			"mesh":0,
			"name":"cr0"
		},
		{
			"mesh":1,
			"name":"cr1"
		},
		{
			"mesh":2,
			"name":"cr2"
		},
		{
			"mesh":3,
			"name":"cr3"
		},
		{
			"mesh":4,
			"name":"cr4"
		},
		{
			"mesh":5,
			"name":"snowBase"
		}
	],
	"materials":[
		{
			"doubleSided":true,
			"emissiveFactor":[
				0.03987232639538685,
				0.16265939644133365,
				0.2580216721462918
			],
			"name":"M_ic0",
			"pbrMetallicRoughness":{
				"baseColorFactor":[
					0.11392093449831009,
					0.46474114060401917,
					0.7372047901153564,
					1
				],
				"metallicFactor":0,
				"roughnessFactor":0.25
			}
		},
		{
			"doubleSided":true,
			"emissiveFactor":[
				0.12380931315576493,
				0.23314092954327492,
				0.2951793978013413
			],
			"name":"M_ic1",
			"pbrMetallicRoughness":{
				"baseColorFactor":[
					0.3537409007549286,
					0.6661169528961182,
					0.843369722366333,
					1
				],
				"metallicFactor":0,
				"roughnessFactor":0.25
			}
		},
		{
			"doubleSided":true,
			"emissiveFactor":[
				0.03987232639538685,
				0.16265939644133365,
				0.2580216721462918
			],
			"name":"M_ic2",
			"pbrMetallicRoughness":{
				"baseColorFactor":[
					0.11392093449831009,
					0.46474114060401917,
					0.7372047901153564,
					1
				],
				"metallicFactor":0,
				"roughnessFactor":0.25
			}
		},
		{
			"doubleSided":true,
			"emissiveFactor":[
				0.12380931315576493,
				0.23314092954327492,
				0.2951793978013413
			],
			"name":"M_ic3",
			"pbrMetallicRoughness":{
				"baseColorFactor":[
					0.3537409007549286,
					0.6661169528961182,
					0.843369722366333,
					1
				],
				"metallicFactor":0,
				"roughnessFactor":0.25
			}
		},
		{
			"doubleSided":true,
			"emissiveFactor":[
				0.03987232639538685,
				0.16265939644133365,
				0.2580216721462918
			],
			"name":"M_ic4",
			"pbrMetallicRoughness":{
				"baseColorFactor":[
					0.11392093449831009,
					0.46474114060401917,
					0.7372047901153564,
					1
				],
				"metallicFactor":0,
				"roughnessFactor":0.25
			}
		},
		{
			"doubleSided":true,
			"name":"M_isb",
			"pbrMetallicRoughness":{
				"baseColorFactor":[
					0.8912620544433594,
					0.9406006932258606,
					0.97430020570755,
					1
				],
				"metallicFactor":0,
				"roughnessFactor":0.8500000238418579
			}
		}
	],
	"meshes":[
		{
			"name":"Cone",
			"primitives":[
				{
					"attributes":{
						"POSITION":0,
						"NORMAL":1,
						"TEXCOORD_0":2
					},
					"indices":3,
					"material":0
				}
			]
		},
		{
			"name":"Cone.001",
			"primitives":[
				{
					"attributes":{
						"POSITION":4,
						"NORMAL":5,
						"TEXCOORD_0":6
					},
					"indices":3,
					"material":1
				}
			]
		},
		{
			"name":"Cone.002",
			"primitives":[
				{
					"attributes":{
						"POSITION":7,
						"NORMAL":8,
						"TEXCOORD_0":9
					},
					"indices":10,
					"material":2
				}
			]
		},
		{
			"name":"Cone.003",
			"primitives":[
				{
					"attributes":{
						"POSITION":11,
						"NORMAL":12,
						"TEXCOORD_0":13
					},
					"indices":14,
					"material":3
				}
			]
		},
		{
			"name":"Cone.004",
			"primitives":[
				{
					"attributes":{
						"POSITION":15,
						"NORMAL":16,
						"TEXCOORD_0":17
					},
					"indices":18,
					"material":4
				}
			]
		},
		{
			"name":"Icosphere",
			"primitives":[
				{
					"attributes":{
						"POSITION":19,
						"NORMAL":20,
						"TEXCOORD_0":21
					},
					"indices":22,
					"material":5
				}
			]
		}
	],
	"accessors":[
		{
			"bufferView":0,
			"componentType":5126,
			"count":36,
			"max":[
				0.21016767621040344,
				1.8346714973449707,
				0.2559089958667755
			],
			"min":[
				-0.3273194134235382,
				-0.11013655364513397,
				-0.3353067934513092
			],
			"type":"VEC3"
		},
		{
			"bufferView":1,
			"componentType":5126,
			"count":36,
			"type":"VEC3"
		},
		{
			"bufferView":2,
			"componentType":5126,
			"count":36,
			"type":"VEC2"
		},
		{
			"bufferView":3,
			"componentType":5123,
			"count":60,
			"type":"SCALAR"
		},
		{
			"bufferView":4,
			"componentType":5126,
			"count":36,
			"max":[
				0.5804138779640198,
				1.1380211114883423,
				0.03710070252418518
			],
			"min":[
				0.1331353485584259,
				-0.09124316275119781,
				-0.395024836063385
			],
			"type":"VEC3"
		},
		{
			"bufferView":5,
			"componentType":5126,
			"count":36,
			"type":"VEC3"
		},
		{
			"bufferView":6,
			"componentType":5126,
			"count":36,
			"type":"VEC2"
		},
		{
			"bufferView":7,
			"componentType":5126,
			"count":36,
			"max":[
				-0.13054919242858887,
				0.9027377963066101,
				0.0873698741197586
			],
			"min":[
				-0.5171385407447815,
				-0.07168588042259216,
				-0.27506518363952637
			],
			"type":"VEC3"
		},
		{
			"bufferView":8,
			"componentType":5126,
			"count":36,
			"type":"VEC3"
		},
		{
			"bufferView":9,
			"componentType":5126,
			"count":36,
			"type":"VEC2"
		},
		{
			"bufferView":10,
			"componentType":5123,
			"count":60,
			"type":"SCALAR"
		},
		{
			"bufferView":11,
			"componentType":5126,
			"count":36,
			"max":[
				0.23309384286403656,
				0.6708337068557739,
				0.49968570470809937
			],
			"min":[
				-0.13058561086654663,
				-0.05623007193207741,
				0.22644498944282532
			],
			"type":"VEC3"
		},
		{
			"bufferView":12,
			"componentType":5126,
			"count":36,
			"type":"VEC3"
		},
		{
			"bufferView":13,
			"componentType":5126,
			"count":36,
			"type":"VEC2"
		},
		{
			"bufferView":14,
			"componentType":5123,
			"count":60,
			"type":"SCALAR"
		},
		{
			"bufferView":15,
			"componentType":5126,
			"count":36,
			"max":[
				0.035715680569410324,
				0.47601813077926636,
				0.4922739565372467
			],
			"min":[
				-0.2568747103214264,
				-0.03705942630767822,
				0.2754650413990021
			],
			"type":"VEC3"
		},
		{
			"bufferView":16,
			"componentType":5126,
			"count":36,
			"type":"VEC3"
		},
		{
			"bufferView":17,
			"componentType":5126,
			"count":36,
			"type":"VEC2"
		},
		{
			"bufferView":18,
			"componentType":5123,
			"count":60,
			"type":"SCALAR"
		},
		{
			"bufferView":19,
			"componentType":5126,
			"count":22,
			"max":[
				0.6262468695640564,
				0.19371186196804047,
				0.49795910716056824
			],
			"min":[
				-0.620037853717804,
				-0.03885527700185776,
				-0.5337539911270142
			],
			"type":"VEC3"
		},
		{
			"bufferView":20,
			"componentType":5126,
			"count":22,
			"type":"VEC3"
		},
		{
			"bufferView":21,
			"componentType":5126,
			"count":22,
			"type":"VEC2"
		},
		{
			"bufferView":22,
			"componentType":5123,
			"count":60,
			"type":"SCALAR"
		}
	],
	"bufferViews":[
		{
			"buffer":0,
			"byteLength":432,
			"byteOffset":0,
			"target":34962
		},
		{
			"buffer":0,
			"byteLength":432,
			"byteOffset":432,
			"target":34962
		},
		{
			"buffer":0,
			"byteLength":288,
			"byteOffset":864,
			"target":34962
		},
		{
			"buffer":0,
			"byteLength":120,
			"byteOffset":1152,
			"target":34963
		},
		{
			"buffer":0,
			"byteLength":432,
			"byteOffset":1272,
			"target":34962
		},
		{
			"buffer":0,
			"byteLength":432,
			"byteOffset":1704,
			"target":34962
		},
		{
			"buffer":0,
			"byteLength":288,
			"byteOffset":2136,
			"target":34962
		},
		{
			"buffer":0,
			"byteLength":432,
			"byteOffset":2424,
			"target":34962
		},
		{
			"buffer":0,
			"byteLength":432,
			"byteOffset":2856,
			"target":34962
		},
		{
			"buffer":0,
			"byteLength":288,
			"byteOffset":3288,
			"target":34962
		},
		{
			"buffer":0,
			"byteLength":120,
			"byteOffset":3576,
			"target":34963
		},
		{
			"buffer":0,
			"byteLength":432,
			"byteOffset":3696,
			"target":34962
		},
		{
			"buffer":0,
			"byteLength":432,
			"byteOffset":4128,
			"target":34962
		},
		{
			"buffer":0,
			"byteLength":288,
			"byteOffset":4560,
			"target":34962
		},
		{
			"buffer":0,
			"byteLength":120,
			"byteOffset":4848,
			"target":34963
		},
		{
			"buffer":0,
			"byteLength":432,
			"byteOffset":4968,
			"target":34962
		},
		{
			"buffer":0,
			"byteLength":432,
			"byteOffset":5400,
			"target":34962
		},
		{
			"buffer":0,
			"byteLength":288,
			"byteOffset":5832,
			"target":34962
		},
		{
			"buffer":0,
			"byteLength":120,
			"byteOffset":6120,
			"target":34963
		},
		{
			"buffer":0,
			"byteLength":264,
			"byteOffset":6240,
			"target":34962
		},
		{
			"buffer":0,
			"byteLength":264,
			"byteOffset":6504,
			"target":34962
		},
		{
			"buffer":0,
			"byteLength":176,
			"byteOffset":6768,
			"target":34962
		},
		{
			"buffer":0,
			"byteLength":120,
			"byteOffset":6944,
			"target":34963
		}
	],
	"buffers":[
		{
			"byteLength":7064,
			"uri":"hd_icecrystal.bin"
		}
	]
}
