{
	"asset":{
		"generator":"Khronos glTF Blender I/O v5.2.40",
		"version":"2.0"
	},
	"extensionsUsed":[
		"KHR_materials_clearcoat"
	],
	"scene":0,
	"scenes":[
		{
			"name":"Scene",
			"nodes":[
				0,
				1,
				2,
				3
			]
		}
	],
	"nodes":[
		{
			"mesh":0,
			"name":"band"
		},
		{
			"mesh":1,
			"name":"base"
		},
		{
			"mesh":2,
			"name":"body"
		},
		{
			"mesh":3,
			"name":"tip"
		}
	],
	"materials":[
		{
			"doubleSided":true,
			"extensions":{
				"KHR_materials_clearcoat":{
					"clearcoatFactor":0.5
				}
			},
			"name":"cone_reflect",
			"pbrMetallicRoughness":{
				"baseColorFactor":[
					0.949999988079071,
					0.949999988079071,
					0.9300000071525574,
					1
				],
				"metallicFactor":0,
				"roughnessFactor":0.2800000011920929
			}
		},
		{
			"doubleSided":true,
			"name":"cone_rubber",
			"pbrMetallicRoughness":{
				"baseColorFactor":[
					0.07000000029802322,
					0.07000000029802322,
					0.07000000029802322,
					1
				],
				"metallicFactor":0,
				"roughnessFactor":0.8500000238418579
			}
		},
		{
			"doubleSided":true,
			"extensions":{
				"KHR_materials_clearcoat":{
					"clearcoatFactor":0.25
				}
			},
			"name":"cone_orange",
			"pbrMetallicRoughness":{
				"baseColorFactor":[
					0.9300000071525574,
					0.30000001192092896,
					0.03999999910593033,
					1
				],
				"metallicFactor":0,
				"roughnessFactor":0.41999998688697815
			}
		}
	],
	"meshes":[
		{
			"name":"Cone.001",
			"primitives":[
				{
					"attributes":{
						"POSITION":0,
						"NORMAL":1,
						"TEXCOORD_0":2
					},
					"indices":3,
					"material":0
				}
			]
		},
		{
			"name":"Cube",
			"primitives":[
				{
					"attributes":{
						"POSITION":4,
						"NORMAL":5,
						"TEXCOORD_0":6
					},
					"indices":7,
					"material":1
				}
			]
		},
		{
			"name":"Cone",
			"primitives":[
				{
					"attributes":{
						"POSITION":8,
						"NORMAL":9,
						"TEXCOORD_0":10
					},
					"indices":3,
					"material":2
				}
			]
		},
		{
			"name":"Cylinder",
			"primitives":[
				{
					"attributes":{
						"POSITION":11,
						"NORMAL":12,
						"TEXCOORD_0":13
					},
					"indices":14,
					"material":2
				}
			]
		}
	],
	"accessors":[
		{
			"bufferView":0,
			"componentType":5126,
			"count":98,
			"max":[
				0.1550000011920929,
				0.5550000071525574,
				0.1550000011920929
			],
			"min":[
				-0.1550000011920929,
				0.38499999046325684,
				-0.1550000011920929
			],
			"type":"VEC3"
		},
		{
			"bufferView":1,
			"componentType":5126,
			"count":98,
			"type":"VEC3"
		},
		{
			"bufferView":2,
			"componentType":5126,
			"count":98,
			"type":"VEC2"
		},
		{
			"bufferView":3,
			"componentType":5123,
			"count":276,
			"type":"SCALAR"
		},
		{
			"bufferView":4,
			"componentType":5126,
			"count":216,
			"max":[
				0.5199999809265137,
				0.07500000298023224,
				0.5199999809265137
			],
			"min":[
				-0.5199999809265137,
				-0.02500000037252903,
				-0.5199999809265137
			],
			"type":"VEC3"
		},
		{
			"bufferView":5,
			"componentType":5126,
			"count":216,
			"type":"VEC3"
		},
		{
			"bufferView":6,
			"componentType":5126,
			"count":216,
			"type":"VEC2"
		},
		{
			"bufferView":7,
			"componentType":5123,
			"count":324,
			"type":"SCALAR"
		},
		{
			"bufferView":8,
			"componentType":5126,
			"count":98,
			"max":[
				0.23000000417232513,
				0.7799999713897705,
				0.23000000417232513
			],
			"min":[
				-0.23000000417232513,
				0.0599999725818634,
				-0.23000000417232513
			],
			"type":"VEC3"
		},
		{
			"bufferView":9,
			"componentType":5126,
			"count":98,
			"type":"VEC3"
		},
		{
			"bufferView":10,
			"componentType":5126,
			"count":98,
			"type":"VEC2"
		},
		{
			"bufferView":11,
			"componentType":5126,
			"count":66,
			"max":[
				0.05000000074505806,
				0.8299999833106995,
				0.05000000074505806
			],
			"min":[
				-0.05000000074505806,
				0.7700000405311584,
				-0.05000000074505806
			],
			"type":"VEC3"
		},
		{
			"bufferView":12,
			"componentType":5126,
			"count":66,
			"type":"VEC3"
		},
		{
			"bufferView":13,
			"componentType":5126,
			"count":66,
			"type":"VEC2"
		},
		{
			"bufferView":14,
			"componentType":5123,
			"count":180,
			"type":"SCALAR"
		}
	],
	"bufferViews":[
		{
			"buffer":0,
			"byteLength":1176,
			"byteOffset":0,
			"target":34962
		},
		{
			"buffer":0,
			"byteLength":1176,
			"byteOffset":1176,
			"target":34962
		},
		{
			"buffer":0,
			"byteLength":784,
			"byteOffset":2352,
			"target":34962
		},
		{
			"buffer":0,
			"byteLength":552,
			"byteOffset":3136,
			"target":34963
		},
		{
			"buffer":0,
			"byteLength":2592,
			"byteOffset":3688,
			"target":34962
		},
		{
			"buffer":0,
			"byteLength":2592,
			"byteOffset":6280,
			"target":34962
		},
		{
			"buffer":0,
			"byteLength":1728,
			"byteOffset":8872,
			"target":34962
		},
		{
			"buffer":0,
			"byteLength":648,
			"byteOffset":10600,
			"target":34963
		},
		{
			"buffer":0,
			"byteLength":1176,
			"byteOffset":11248,
			"target":34962
		},
		{
			"buffer":0,
			"byteLength":1176,
			"byteOffset":12424,
			"target":34962
		},
		{
			"buffer":0,
			"byteLength":784,
			"byteOffset":13600,
			"target":34962
		},
		{
			"buffer":0,
			"byteLength":792,
			"byteOffset":14384,
			"target":34962
		},
		{
			"buffer":0,
			"byteLength":792,
			"byteOffset":15176,
			"target":34962
		},
		{
			"buffer":0,
			"byteLength":528,
			"byteOffset":15968,
			"target":34962
		},
		{
			"buffer":0,
			"byteLength":360,
			"byteOffset":16496,
			"target":34963
		}
	],
	"buffers":[
		{
			"byteLength":16856,
			"uri":"bl_traffic_cone.bin"
		}
	]
}
