{
	"asset":{
		"generator":"Khronos glTF Blender I/O v5.2.40",
		"version":"2.0"
	},
	"scene":0,
	"scenes":[
		{
			"name":"Scene",
			"nodes":[
				0,
				1,
				2,
				3,
				4,
				5
			]
		}
	],
	"nodes":[
		{
			"mesh":0,
			"name":"base"
		},
		{
			"mesh":1,
			"name":"body"
		},
		{
			"mesh":2,
			"name":"cap0"
		},
		{
			"mesh":3,
			"name":"cap3.141592653589793"
		},
		{
			"mesh":4,
			"name":"dome"
		},
		{
			"mesh":5,
			"name":"nut"
		}
	],
	"materials":[
		{
			"doubleSided":true,
			"name":"M_hbb",
			"pbrMetallicRoughness":{
				"baseColorFactor":[
					0.8122414946556091,
					0.0477757528424263,
					0.02422294206917286,
					1
				],
				"metallicFactor":0,
				"roughnessFactor":0.8500000238418579
			}
		},
		{
			"doubleSided":true,
			"name":"M_hb",
			"pbrMetallicRoughness":{
				"baseColorFactor":[
					0.8122414946556091,
					0.0477757528424263,
					0.02422294206917286,
					1
				],
				"metallicFactor":0,
				"roughnessFactor":0.8500000238418579
			}
		},
		{
			"doubleSided":true,
			"name":"M_hc0",
			"pbrMetallicRoughness":{
				"baseColorFactor":[
					1,
					0.8199636936187744,
					0.39929330348968506,
					1
				],
				"metallicFactor":0,
				"roughnessFactor":0.8500000238418579
			}
		},
		{
			"doubleSided":true,
			"name":"M_hc3.141592653589793",
			"pbrMetallicRoughness":{
				"baseColorFactor":[
					1,
					0.8199636936187744,
					0.39929330348968506,
					1
				],
				"metallicFactor":0,
				"roughnessFactor":0.8500000238418579
			}
		},
		{
			"doubleSided":true,
			"name":"M_hd2",
			"pbrMetallicRoughness":{
				"baseColorFactor":[
					0.8122414946556091,
					0.0477757528424263,
					0.02422294206917286,
					1
				],
				"metallicFactor":0,
				"roughnessFactor":0.8500000238418579
			}
		},
		{
			"doubleSided":true,
			"name":"M_hn",
			"pbrMetallicRoughness":{
				"baseColorFactor":[
					1,
					0.8199636936187744,
					0.39929330348968506,
					1
				],
				"metallicFactor":0,
				"roughnessFactor":0.8500000238418579
			}
		}
	],
	"meshes":[
		{
			"name":"Cylinder.004",
			"primitives":[
				{
					"attributes":{
						"POSITION":0,
						"NORMAL":1,
						"TEXCOORD_0":2
					},
					"indices":3,
					"material":0
				}
			]
		},
		{
			"name":"Cylinder",
			"primitives":[
				{
					"attributes":{
						"POSITION":4,
						"NORMAL":5,
						"TEXCOORD_0":6
					},
					"indices":7,
					"material":1
				}
			]
		},
		{
			"name":"Cylinder.002",
			"primitives":[
				{
					"attributes":{
						"POSITION":8,
						"NORMAL":9,
						"TEXCOORD_0":10
					},
					"indices":11,
					"material":2
				}
			]
		},
		{
			"name":"Cylinder.003",
			"primitives":[
				{
					"attributes":{
						"POSITION":12,
						"NORMAL":13,
						"TEXCOORD_0":14
					},
					"indices":11,
					"material":3
				}
			]
		},
		{
			"name":"Sphere",
			"primitives":[
				{
					"attributes":{
						"POSITION":15,
						"NORMAL":16,
						"TEXCOORD_0":17
					},
					"indices":18,
					"material":4
				}
			]
		},
		{
			"name":"Cylinder.001",
			"primitives":[
				{
					"attributes":{
						"POSITION":19,
						"NORMAL":20,
						"TEXCOORD_0":21
					},
					"indices":22,
					"material":5
				}
			]
		}
	],
	"accessors":[
		{
			"bufferView":0,
			"componentType":5126,
			"count":60,
			"max":[
				0.20923243463039398,
				0.10000000149011612,
				0.2199999988079071
			],
			"min":[
				-0.20923243463039398,
				0,
				-0.2199999988079071
			],
			"type":"VEC3"
		},
		{
			"bufferView":1,
			"componentType":5126,
			"count":60,
			"type":"VEC3"
		},
		{
			"bufferView":2,
			"componentType":5126,
			"count":60,
			"type":"VEC2"
		},
		{
			"bufferView":3,
			"componentType":5123,
			"count":108,
			"type":"SCALAR"
		},
		{
			"bufferView":4,
			"componentType":5126,
			"count":102,
			"max":[
				0.15216904878616333,
				0.75,
				0.15381965041160583
			],
			"min":[
				-0.15216904878616333,
				0.050000011920928955,
				-0.15381965041160583
			],
			"type":"VEC3"
		},
		{
			"bufferView":5,
			"componentType":5126,
			"count":102,
			"type":"VEC3"
		},
		{
			"bufferView":6,
			"componentType":5126,
			"count":102,
			"type":"VEC2"
		},
		{
			"bufferView":7,
			"componentType":5123,
			"count":348,
			"type":"SCALAR"
		},
		{
			"bufferView":8,
			"componentType":5126,
			"count":34,
			"max":[
				0.26499998569488525,
				0.574999988079071,
				0.04500000551342964
			],
			"min":[
				0.11499999463558197,
				0.42500001192092896,
				-0.04500000551342964
			],
			"type":"VEC3"
		},
		{
			"bufferView":9,
			"componentType":5126,
			"count":34,
			"type":"VEC3"
		},
		{
			"bufferView":10,
			"componentType":5126,
			"count":34,
			"type":"VEC2"
		},
		{
			"bufferView":11,
			"componentType":5123,
			"count":84,
			"type":"SCALAR"
		},
		{
			"bufferView":12,
			"componentType":5126,
			"count":34,
			"max":[
				-0.11499998718500137,
				0.574999988079071,
				0.04500000923871994
			],
			"min":[
				-0.26500001549720764,
				0.42500001192092896,
				-0.04500000923871994
			],
			"type":"VEC3"
		},
		{
			"bufferView":13,
			"componentType":5126,
			"count":34,
			"type":"VEC3"
		},
		{
			"bufferView":14,
			"componentType":5126,
			"count":34,
			"type":"VEC2"
		},
		{
			"bufferView":15,
			"componentType":5126,
			"count":75,
			"max":[
				0.15216904878616333,
				0.8919999599456787,
				0.1599999964237213
			],
			"min":[
				-0.15216904878616333,
				0.6679999828338623,
				-0.1599999964237213
			],
			"type":"VEC3"
		},
		{
			"bufferView":16,
			"componentType":5126,
			"count":75,
			"type":"VEC3"
		},
		{
			"bufferView":17,
			"componentType":5126,
			"count":75,
			"type":"VEC2"
		},
		{
			"bufferView":18,
			"componentType":5123,
			"count":300,
			"type":"SCALAR"
		},
		{
			"bufferView":19,
			"componentType":5126,
			"count":36,
			"max":[
				0.04330126941204071,
				0.9399999976158142,
				0.05000000074505806
			],
			"min":[
				-0.04330126941204071,
				0.85999995470047,
				-0.05000000074505806
			],
			"type":"VEC3"
		},
		{
			"bufferView":20,
			"componentType":5126,
			"count":36,
			"type":"VEC3"
		},
		{
			"bufferView":21,
			"componentType":5126,
			"count":36,
			"type":"VEC2"
		},
		{
			"bufferView":22,
			"componentType":5123,
			"count":60,
			"type":"SCALAR"
		}
	],
	"bufferViews":[
		{
			"buffer":0,
			"byteLength":720,
			"byteOffset":0,
			"target":34962
		},
		{
			"buffer":0,
			"byteLength":720,
			"byteOffset":720,
			"target":34962
		},
		{
			"buffer":0,
			"byteLength":480,
			"byteOffset":1440,
			"target":34962
		},
		{
			"buffer":0,
			"byteLength":216,
			"byteOffset":1920,
			"target":34963
		},
		{
			"buffer":0,
			"byteLength":1224,
			"byteOffset":2136,
			"target":34962
		},
		{
			"buffer":0,
			"byteLength":1224,
			"byteOffset":3360,
			"target":34962
		},
		{
			"buffer":0,
			"byteLength":816,
			"byteOffset":4584,
			"target":34962
		},
		{
			"buffer":0,
			"byteLength":696,
			"byteOffset":5400,
			"target":34963
		},
		{
			"buffer":0,
			"byteLength":408,
			"byteOffset":6096,
			"target":34962
		},
		{
			"buffer":0,
			"byteLength":408,
			"byteOffset":6504,
			"target":34962
		},
		{
			"buffer":0,
			"byteLength":272,
			"byteOffset":6912,
			"target":34962
		},
		{
			"buffer":0,
			"byteLength":168,
			"byteOffset":7184,
			"target":34963
		},
		{
			"buffer":0,
			"byteLength":408,
			"byteOffset":7352,
			"target":34962
		},
		{
			"buffer":0,
			"byteLength":408,
			"byteOffset":7760,
			"target":34962
		},
		{
			"buffer":0,
			"byteLength":272,
			"byteOffset":8168,
			"target":34962
		},
		{
			"buffer":0,
			"byteLength":900,
			"byteOffset":8440,
			"target":34962
		},
		{
			"buffer":0,
			"byteLength":900,
			"byteOffset":9340,
			"target":34962
		},
		{
			"buffer":0,
			"byteLength":600,
			"byteOffset":10240,
			"target":34962
		},
		{
			"buffer":0,
			"byteLength":600,
			"byteOffset":10840,
			"target":34963
		},
		{
			"buffer":0,
			"byteLength":432,
			"byteOffset":11440,
			"target":34962
		},
		{
			"buffer":0,
			"byteLength":432,
			"byteOffset":11872,
			"target":34962
		},
		{
			"buffer":0,
			"byteLength":288,
			"byteOffset":12304,
			"target":34962
		},
		{
			"buffer":0,
			"byteLength":120,
			"byteOffset":12592,
			"target":34963
		}
	],
	"buffers":[
		{
			"byteLength":12712,
			"uri":"hd_hydrant.bin"
		}
	]
}
